# Blender 4.1.1
# www.blender.org
mtllib Cube.029_Cube.032.mtl
o Cube.029_Cube.032
v 4.177676 0.276058 -1.068790
v 4.123041 0.240756 -1.069205
v 4.390833 -0.170146 -1.095225
v 4.180809 0.276787 -0.986600
v 4.394839 -0.176223 -1.012963
v 4.312838 0.070762 -1.081599
v 4.269068 0.020385 -1.090919
v 4.147750 0.266430 -1.069357
v 4.397410 -0.181449 -1.034263
v 4.257060 0.028710 -0.997602
v 4.120438 0.248152 -1.027039
v 4.313239 0.065622 -0.995682
v 4.181029 0.279019 -1.028148
v 4.432496 -0.176708 -1.056805
v 4.319381 0.072465 -1.040100
v 4.284777 0.046771 -0.994264
v 4.245059 0.023709 -1.043877
v 4.281360 0.050390 -1.087618
v 4.448595 -0.147505 -1.096247
v 4.189679 0.133995 -1.073807
v 4.186994 0.127071 -0.991867
v 4.109010 0.233349 -1.048730
v 4.449806 -0.147711 -1.012891
v 4.245861 0.166130 -0.995886
v 4.121621 0.245503 -0.986342
v 4.180576 0.275700 -1.007620
v 4.244292 0.170431 -1.080721
v 4.424657 -0.160130 -1.095874
v 4.322761 -0.067028 -1.099567
v 4.403500 -0.189421 -1.072610
v 4.322375 -0.072714 -1.004428
v 4.121047 0.237562 -1.007591
v 4.376600 -0.037020 -1.003618
v 4.449503 -0.146697 -1.074202
v 4.158131 0.263177 -1.007892
v 4.244627 0.167519 -1.030915
v 4.313120 0.067242 -1.022677
v 4.312088 0.068914 -1.060086
v 4.205068 0.149940 -0.995174
v 4.271388 0.038369 -1.001006
v 4.295060 0.053780 -0.997919
v 4.183705 0.127565 -1.034180
v 4.320514 -0.071191 -1.051628
v 4.255643 0.031843 -1.062258
v 4.259565 0.031896 -1.022000
v 4.348056 -0.050381 -1.096309
v 4.299456 0.061945 -1.081666
v 4.337605 -0.058570 -1.094835
v 4.360769 -0.042039 -1.090492
v 4.230412 0.161616 -1.086045
v 4.311420 -0.078675 -1.030091
v 4.320132 -0.070835 -1.082540
v 4.187349 0.131489 -1.058383
v 4.365009 -0.074179 -1.008406
v 4.332492 -0.065712 -1.009730
v 4.383778 -0.047937 -1.056085
v 4.373987 -0.037413 -1.025999
v 4.240927 0.163842 -1.011232
v 4.149918 0.256870 -1.048357
v 4.405897 -0.170467 -1.012924
v 4.436282 -0.151104 -1.058717
v 4.416867 -0.182680 -1.095223
v 4.242756 0.167498 -1.050186
v 4.229491 0.155169 -0.993195
v 4.179480 0.123743 -1.017696
v 4.203591 0.159231 -1.079170
vn -0.2116 -0.0901 -0.9732
vn 0.1563 0.0090 0.9877
vn 0.9525 -0.1602 -0.2591
vn 0.4673 -0.8479 0.2505
vn -0.3345 0.9391 -0.0785
vn -0.2449 -0.0389 -0.9688
vn 0.2862 0.0782 0.9550
vn -0.0460 -0.1135 0.9925
vn -0.0593 -0.0719 0.9957
vn 0.1410 0.0317 0.9895
vn 0.7959 0.4754 -0.3749
vn 0.8266 0.5601 -0.0546
vn -0.4865 0.8728 -0.0398
vn -0.4843 0.8653 0.1292
vn 0.2979 -0.9544 -0.0173
vn 0.4590 -0.8857 -0.0699
vn 0.8944 -0.3181 -0.3144
vn -0.0636 -0.0794 0.9948
vn 0.0287 0.0977 -0.9948
vn 0.8655 0.4912 0.0985
vn 0.8469 0.5236 0.0929
vn -0.3840 -0.7978 -0.4648
vn 0.8465 -0.0859 0.5254
vn -0.4710 0.8242 -0.3143
vn 0.7909 0.4467 0.4182
vn 0.8491 0.5232 0.0732
vn -0.3027 -0.2547 0.9184
vn 0.0363 -0.0605 0.9975
vn -0.0515 -0.1085 0.9928
vn -0.6764 -0.3918 0.6237
vn -0.6561 -0.4737 -0.5874
vn -0.8353 -0.5275 -0.1546
vn 0.2605 0.2528 -0.9318
vn -0.1064 -0.0431 -0.9934
vn 0.1866 0.2096 -0.9598
vn -0.0325 -0.0176 -0.9993
vn 0.2400 0.1179 -0.9636
vn -0.0366 0.0631 -0.9973
vn -0.0255 0.1376 -0.9902
vn -0.0308 0.0289 -0.9991
vn 0.2948 0.2020 -0.9340
vn 0.2718 0.1465 -0.9511
vn -0.2391 -0.0959 -0.9662
vn -0.7025 -0.3738 0.6057
vn -0.7211 -0.5406 0.4334
vn -0.6824 -0.5515 -0.4798
vn -0.8470 -0.4925 -0.1998
vn -0.8162 -0.5767 -0.0343
vn -0.8205 -0.5717 0.0036
vn -0.6549 -0.4459 -0.6101
vn -0.8101 -0.5470 -0.2113
vn -0.7231 -0.3729 -0.5814
vn 0.2060 0.0390 0.9778
vn 0.0193 -0.0387 0.9991
vn 0.0090 -0.0242 0.9997
vn 0.1407 0.0319 0.9895
vn 0.8645 0.5020 0.0263
vn -0.3152 -0.2354 0.9194
vn 0.8238 0.5669 0.0053
vn 0.8252 0.4560 -0.3333
vn 0.8366 0.5416 0.0828
vn 0.7385 0.5905 -0.3255
vn 0.7316 0.5345 0.4232
vn -0.5753 0.8179 -0.0107
vn -0.6701 0.6471 0.3637
vn -0.4981 0.8667 -0.0278
vn 0.4103 -0.9073 0.0920
vn -0.2850 0.8609 0.4214
vn 0.2511 -0.9254 0.2838
vn 0.4446 -0.8560 0.2637
vn -0.5471 0.7888 -0.2800
vn -0.8533 -0.4805 0.2026
vn 0.4136 -0.9101 -0.0268
vn 0.8607 0.4976 -0.1072
vn -0.5127 0.7472 0.4229
vn 0.7420 0.5590 -0.3701
vn 0.8206 0.5635 0.0954
vn 0.2576 0.1219 0.9585
vn 0.1115 0.0767 0.9908
vn -0.8555 -0.4113 -0.3146
vn -0.7199 -0.6124 -0.3265
vn -0.8087 -0.5669 -0.1571
vn -0.0655 0.0571 -0.9962
vn -0.2786 -0.0502 -0.9591
vn 0.8564 0.4541 0.2458
vn 0.8815 0.4545 0.1279
vn 0.8489 0.5233 0.0746
vn -0.0844 -0.1708 0.9817
vn -0.0542 -0.1110 0.9923
vn -0.7842 -0.5830 -0.2126
vn -0.8464 -0.5325 0.0043
vn -0.8017 -0.4079 0.4370
vn 0.1920 0.1948 -0.9619
vn 0.0221 0.1004 -0.9947
vn -0.0886 -0.0658 -0.9939
vn 0.0023 0.0046 -1.0000
vn 0.0591 0.1034 -0.9929
vn 0.2110 0.2401 -0.9475
vn -0.0005 0.0084 -1.0000
vn 0.2384 0.1228 -0.9634
vn -0.7056 -0.5219 -0.4793
vn -0.7640 -0.6419 0.0653
vn -0.8377 -0.4909 -0.2391
vn -0.8043 -0.5413 -0.2453
vn -0.8176 -0.5757 -0.0102
vn -0.8336 -0.5113 -0.2090
vn -0.8200 -0.5481 -0.1649
vn -0.8102 -0.5471 -0.2106
vn 0.3617 0.1713 0.9164
vn 0.3588 0.1756 0.9167
vn 0.1834 0.0735 0.9803
vn 0.8423 0.5282 -0.1076
vn 0.8253 0.5547 -0.1061
vn 0.8602 0.5087 -0.0358
vn 0.8302 0.5566 0.0297
vn 0.7891 0.5598 0.2529
vn -0.5747 0.8183 -0.0122
vn 0.4666 -0.8844 0.0132
vn -0.4665 0.8820 -0.0669
vn -0.8368 -0.4565 0.3022
vn 0.8646 0.4953 -0.0845
vn 0.7801 0.6209 -0.0764
vn 0.8192 0.5683 0.0774
vn -0.0709 -0.0460 0.9964
vn -0.0648 -0.0882 0.9940
vn -0.8701 -0.4438 -0.2144
vn -0.6599 -0.4463 0.6045
vn -0.7146 -0.6367 0.2899
s 0
usemtl Fence2
f 20//1 2//1 66//1
f 24//2 4//2 64//2
f 14//3 28//3 61//3
f 60//4 9//4 30//4
f 59//5 11//5 35//5
f 66//6 8//6 50//6
f 54//7 41//7 16//7
f 23//8 33//8 54//8
f 60//9 54//9 55//9
f 39//10 25//10 21//10
f 56//11 38//11 15//11
f 34//12 19//12 56//12
f 35//13 4//13 26//13
f 13//14 35//14 26//14
f 23//15 61//15 34//15
f 60//16 61//16 23//16
f 14//17 62//17 28//17
f 64//18 4//18 39//18
f 7//19 66//19 18//19
f 26//20 36//20 13//20
f 63//21 27//21 1//21
f 30//22 3//22 62//22
f 60//23 14//23 61//23
f 59//24 22//24 11//24
f 57//25 15//25 37//25
f 6//26 56//26 19//26
f 55//27 16//27 40//27
f 39//28 4//28 25//28
f 41//29 33//29 12//29
f 22//30 42//30 11//30
f 44//31 43//31 17//31
f 45//32 31//32 10//32
f 18//33 49//33 46//33
f 7//34 46//34 48//34
f 48//35 29//35 7//35
f 48//36 28//36 62//36
f 48//37 3//37 29//37
f 6//38 49//38 47//38
f 1//39 50//39 8//39
f 19//40 28//40 49//40
f 28//41 46//41 49//41
f 27//42 47//42 50//42
f 50//43 18//43 66//43
f 17//44 51//44 45//44
f 51//45 5//45 31//45
f 9//46 51//46 43//46
f 7//47 52//47 44//47
f 52//48 3//48 30//48
f 52//49 9//49 43//49
f 2//50 53//50 22//50
f 20//51 44//51 53//51
f 42//52 44//52 17//52
f 10//53 55//53 40//53
f 60//54 23//54 54//54
f 55//55 5//55 60//55
f 21//56 40//56 39//56
f 12//57 57//57 37//57
f 40//58 16//58 39//58
f 57//59 23//59 34//59
f 26//60 24//60 58//60
f 34//61 56//61 57//61
f 24//62 37//62 58//62
f 36//63 37//63 15//63
f 13//64 59//64 35//64
f 8//65 2//65 59//65
f 2//66 22//66 59//66
f 28//67 34//67 61//67
f 1//68 8//68 59//68
f 60//69 30//69 14//69
f 60//70 5//70 9//70
f 25//71 35//71 32//71
f 32//72 21//72 25//72
f 14//73 30//73 62//73
f 13//74 63//74 1//74
f 11//75 32//75 35//75
f 63//76 15//76 38//76
f 63//77 6//77 27//77
f 64//78 16//78 41//78
f 64//79 12//79 24//79
f 32//80 42//80 65//80
f 42//81 45//81 65//81
f 21//82 45//82 10//82
f 66//83 2//83 8//83
f 7//84 20//84 66//84
f 26//85 58//85 36//85
f 57//86 56//86 15//86
f 6//87 38//87 56//87
f 55//88 54//88 16//88
f 41//89 54//89 33//89
f 22//90 53//90 42//90
f 44//91 52//91 43//91
f 45//92 51//92 31//92
f 18//93 47//93 49//93
f 7//94 18//94 46//94
f 48//95 46//95 28//95
f 48//96 62//96 3//96
f 6//97 19//97 49//97
f 1//98 27//98 50//98
f 27//99 6//99 47//99
f 50//100 47//100 18//100
f 17//101 43//101 51//101
f 51//102 9//102 5//102
f 7//103 29//103 52//103
f 52//104 29//104 3//104
f 52//105 30//105 9//105
f 2//106 20//106 53//106
f 20//107 7//107 44//107
f 42//108 53//108 44//108
f 10//109 31//109 55//109
f 55//110 31//110 5//110
f 21//111 10//111 40//111
f 12//112 33//112 57//112
f 57//113 33//113 23//113
f 26//114 4//114 24//114
f 24//115 12//115 37//115
f 36//116 58//116 37//116
f 13//117 1//117 59//117
f 28//118 19//118 34//118
f 25//119 4//119 35//119
f 32//120 65//120 21//120
f 13//121 36//121 63//121
f 63//122 36//122 15//122
f 63//123 38//123 6//123
f 64//124 39//124 16//124
f 64//125 41//125 12//125
f 32//126 11//126 42//126
f 42//127 17//127 45//127
f 21//128 65//128 45//128
