# Blender 4.1.1
# www.blender.org
mtllib Cube.029_Cube.032.mtl
o Cube.029_Cube.032
v 11.822011 5.415652 10.314551
v 11.672898 5.416785 10.218204
v 12.403767 5.487798 9.096753
v 11.830561 5.191336 10.316542
v 12.414700 5.263286 9.080168
v 12.190900 5.450610 9.754250
v 12.071440 5.476047 9.616758
v 11.740335 5.417200 10.288274
v 12.421717 5.321418 9.065905
v 12.038669 5.221362 9.639480
v 11.665794 5.301703 10.238389
v 12.191995 5.216122 9.740221
v 11.831161 5.304730 10.322633
v 12.517475 5.382940 9.078844
v 12.208757 5.337349 9.758897
v 12.114315 5.212252 9.688772
v 12.005915 5.347658 9.625831
v 12.104989 5.467037 9.698649
v 12.561413 5.490587 9.158546
v 11.854770 5.429344 9.926827
v 11.847442 5.205710 9.907930
v 11.634604 5.360904 10.197989
v 12.564719 5.263089 9.157984
v 12.008103 5.216680 10.014532
v 11.669023 5.190632 10.231159
v 11.829925 5.248704 10.313575
v 12.003820 5.448215 10.026270
v 12.496080 5.489569 9.124089
v 12.217982 5.499649 9.378187
v 12.438338 5.426076 9.044147
v 12.216928 5.239992 9.362669
v 11.667456 5.248625 10.209487
v 12.364921 5.237781 9.460087
v 12.563891 5.430421 9.160751
v 11.768667 5.249447 10.279396
v 12.004735 5.312282 10.018322
v 12.191669 5.289798 9.744642
v 12.188852 5.391896 9.749206
v 11.896770 5.214736 9.970345
v 12.077773 5.230653 9.665841
v 12.142380 5.222228 9.707902
v 11.838464 5.321193 9.909278
v 12.211850 5.368812 9.366825
v 12.034801 5.397824 9.648030
v 12.045505 5.287950 9.648174
v 12.287018 5.490757 9.423620
v 12.154377 5.450793 9.730186
v 12.258494 5.486734 9.401271
v 12.321714 5.474881 9.446388
v 11.965940 5.462745 10.002212
v 12.187030 5.310032 9.346400
v 12.210806 5.453178 9.367797
v 11.848410 5.387248 9.919988
v 12.333286 5.250849 9.358670
v 12.244540 5.254462 9.381779
v 12.384512 5.380976 9.430291
v 12.357791 5.298864 9.459014
v 11.994637 5.258562 10.008287
v 11.746252 5.359885 10.262182
v 12.444880 5.263179 9.095878
v 12.527808 5.388159 9.148724
v 12.474819 5.487792 9.062545
v 11.999629 5.364877 10.018265
v 11.963427 5.209334 9.984616
v 11.826934 5.276204 9.898848
v 11.892738 5.443981 9.995703
vn -0.2116 0.9732 -0.0902
vn 0.1563 -0.9877 0.0090
vn 0.9525 0.2591 -0.1602
vn 0.4673 -0.2505 -0.8479
vn -0.3345 0.0785 0.9391
vn -0.2449 0.9688 -0.0389
vn 0.2862 -0.9550 0.0782
vn -0.0460 -0.9925 -0.1135
vn -0.0592 -0.9957 -0.0719
vn 0.1410 -0.9895 0.0317
vn 0.7959 0.3749 0.4754
vn 0.8266 0.0546 0.5601
vn -0.4865 0.0397 0.8728
vn -0.4843 -0.1292 0.8653
vn 0.2979 0.0173 -0.9544
vn 0.4590 0.0699 -0.8857
vn 0.8944 0.3144 -0.3181
vn -0.0636 -0.9948 -0.0794
vn 0.0287 0.9948 0.0977
vn 0.8655 -0.0985 0.4912
vn 0.8469 -0.0929 0.5236
vn -0.3841 0.4648 -0.7978
vn 0.8465 -0.5254 -0.0859
vn -0.4710 0.3143 0.8242
vn 0.7909 -0.4181 0.4467
vn 0.8491 -0.0732 0.5232
vn -0.3027 -0.9184 -0.2547
vn 0.0363 -0.9975 -0.0605
vn -0.0515 -0.9928 -0.1085
vn -0.6764 -0.6237 -0.3918
vn -0.6561 0.5874 -0.4737
vn -0.8353 0.1546 -0.5275
vn 0.2605 0.9318 0.2528
vn -0.1063 0.9934 -0.0431
vn 0.1866 0.9598 0.2096
vn -0.0325 0.9993 -0.0176
vn 0.2400 0.9636 0.1179
vn -0.0366 0.9973 0.0631
vn -0.0255 0.9902 0.1375
vn -0.0308 0.9991 0.0289
vn 0.2948 0.9340 0.2020
vn 0.2718 0.9511 0.1465
vn -0.2391 0.9662 -0.0959
vn -0.7025 -0.6057 -0.3738
vn -0.7211 -0.4334 -0.5406
vn -0.6824 0.4798 -0.5515
vn -0.8470 0.1998 -0.4925
vn -0.8162 0.0343 -0.5767
vn -0.8205 -0.0036 -0.5717
vn -0.6549 0.6101 -0.4459
vn -0.8101 0.2113 -0.5470
vn -0.7231 0.5814 -0.3729
vn 0.2060 -0.9778 0.0390
vn 0.0193 -0.9991 -0.0387
vn 0.0090 -0.9997 -0.0241
vn 0.1407 -0.9895 0.0319
vn 0.8645 -0.0263 0.5020
vn -0.3152 -0.9194 -0.2354
vn 0.8238 -0.0053 0.5669
vn 0.8252 0.3333 0.4560
vn 0.8366 -0.0828 0.5416
vn 0.7385 0.3255 0.5905
vn 0.7316 -0.4231 0.5345
vn -0.5753 0.0107 0.8179
vn -0.6701 -0.3638 0.6470
vn -0.4981 0.0278 0.8667
vn 0.4102 -0.0921 -0.9073
vn -0.2850 -0.4214 0.8610
vn 0.2510 -0.2838 -0.9254
vn 0.4447 -0.2637 -0.8560
vn -0.5471 0.2800 0.7888
vn -0.8533 -0.2026 -0.4805
vn 0.4136 0.0268 -0.9101
vn 0.8607 0.1072 0.4976
vn -0.5127 -0.4229 0.7472
vn 0.7420 0.3701 0.5590
vn 0.8206 -0.0954 0.5635
vn 0.2576 -0.9585 0.1219
vn 0.1115 -0.9908 0.0768
vn -0.8555 0.3146 -0.4113
vn -0.7199 0.3265 -0.6124
vn -0.8087 0.1570 -0.5669
vn -0.0655 0.9962 0.0571
vn -0.2786 0.9591 -0.0502
vn 0.8564 -0.2458 0.4541
vn 0.8815 -0.1279 0.4545
vn 0.8489 -0.0746 0.5233
vn -0.0845 -0.9817 -0.1708
vn -0.0542 -0.9923 -0.1110
vn -0.7842 0.2126 -0.5830
vn -0.8464 -0.0043 -0.5325
vn -0.8017 -0.4369 -0.4079
vn 0.1920 0.9619 0.1948
vn 0.0221 0.9947 0.1004
vn -0.0886 0.9939 -0.0658
vn 0.0023 1.0000 0.0046
vn 0.0591 0.9929 0.1034
vn 0.2110 0.9475 0.2401
vn -0.0005 1.0000 0.0084
vn 0.2384 0.9634 0.1228
vn -0.7056 0.4793 -0.5219
vn -0.7640 -0.0653 -0.6419
vn -0.8377 0.2391 -0.4909
vn -0.8043 0.2452 -0.5413
vn -0.8176 0.0102 -0.5757
vn -0.8336 0.2090 -0.5113
vn -0.8200 0.1649 -0.5481
vn -0.8102 0.2107 -0.5471
vn 0.3617 -0.9164 0.1713
vn 0.3589 -0.9167 0.1756
vn 0.1834 -0.9803 0.0735
vn 0.8423 0.1076 0.5282
vn 0.8253 0.1061 0.5547
vn 0.8602 0.0359 0.5087
vn 0.8302 -0.0297 0.5566
vn 0.7891 -0.2529 0.5598
vn -0.5746 0.0122 0.8183
vn 0.4666 -0.0132 -0.8844
vn -0.4665 0.0669 0.8820
vn -0.8368 -0.3023 -0.4565
vn 0.8646 0.0845 0.4953
vn 0.7801 0.0764 0.6209
vn 0.8192 -0.0774 0.5683
vn -0.0709 -0.9964 -0.0460
vn -0.0648 -0.9940 -0.0882
vn -0.8701 0.2144 -0.4438
vn -0.6599 -0.6045 -0.4463
vn -0.7146 -0.2899 -0.6367
s 0
usemtl Fence2
f 20//1 2//1 66//1
f 24//2 4//2 64//2
f 14//3 28//3 61//3
f 60//4 9//4 30//4
f 59//5 11//5 35//5
f 66//6 8//6 50//6
f 54//7 41//7 16//7
f 23//8 33//8 54//8
f 60//9 54//9 55//9
f 39//10 25//10 21//10
f 56//11 38//11 15//11
f 34//12 19//12 56//12
f 35//13 4//13 26//13
f 13//14 35//14 26//14
f 23//15 61//15 34//15
f 60//16 61//16 23//16
f 14//17 62//17 28//17
f 64//18 4//18 39//18
f 7//19 66//19 18//19
f 26//20 36//20 13//20
f 63//21 27//21 1//21
f 30//22 3//22 62//22
f 60//23 14//23 61//23
f 59//24 22//24 11//24
f 57//25 15//25 37//25
f 6//26 56//26 19//26
f 55//27 16//27 40//27
f 39//28 4//28 25//28
f 41//29 33//29 12//29
f 22//30 42//30 11//30
f 44//31 43//31 17//31
f 45//32 31//32 10//32
f 18//33 49//33 46//33
f 7//34 46//34 48//34
f 48//35 29//35 7//35
f 48//36 28//36 62//36
f 48//37 3//37 29//37
f 6//38 49//38 47//38
f 1//39 50//39 8//39
f 19//40 28//40 49//40
f 28//41 46//41 49//41
f 27//42 47//42 50//42
f 50//43 18//43 66//43
f 17//44 51//44 45//44
f 51//45 5//45 31//45
f 9//46 51//46 43//46
f 7//47 52//47 44//47
f 52//48 3//48 30//48
f 52//49 9//49 43//49
f 2//50 53//50 22//50
f 20//51 44//51 53//51
f 42//52 44//52 17//52
f 10//53 55//53 40//53
f 60//54 23//54 54//54
f 55//55 5//55 60//55
f 21//56 40//56 39//56
f 12//57 57//57 37//57
f 40//58 16//58 39//58
f 57//59 23//59 34//59
f 26//60 24//60 58//60
f 34//61 56//61 57//61
f 24//62 37//62 58//62
f 36//63 37//63 15//63
f 13//64 59//64 35//64
f 8//65 2//65 59//65
f 2//66 22//66 59//66
f 28//67 34//67 61//67
f 1//68 8//68 59//68
f 60//69 30//69 14//69
f 60//70 5//70 9//70
f 25//71 35//71 32//71
f 32//72 21//72 25//72
f 14//73 30//73 62//73
f 13//74 63//74 1//74
f 11//75 32//75 35//75
f 63//76 15//76 38//76
f 63//77 6//77 27//77
f 64//78 16//78 41//78
f 64//79 12//79 24//79
f 32//80 42//80 65//80
f 42//81 45//81 65//81
f 21//82 45//82 10//82
f 66//83 2//83 8//83
f 7//84 20//84 66//84
f 26//85 58//85 36//85
f 57//86 56//86 15//86
f 6//87 38//87 56//87
f 55//88 54//88 16//88
f 41//89 54//89 33//89
f 22//90 53//90 42//90
f 44//91 52//91 43//91
f 45//92 51//92 31//92
f 18//93 47//93 49//93
f 7//94 18//94 46//94
f 48//95 46//95 28//95
f 48//96 62//96 3//96
f 6//97 19//97 49//97
f 1//98 27//98 50//98
f 27//99 6//99 47//99
f 50//100 47//100 18//100
f 17//101 43//101 51//101
f 51//102 9//102 5//102
f 7//103 29//103 52//103
f 52//104 29//104 3//104
f 52//105 30//105 9//105
f 2//106 20//106 53//106
f 20//107 7//107 44//107
f 42//108 53//108 44//108
f 10//109 31//109 55//109
f 55//110 31//110 5//110
f 21//111 10//111 40//111
f 12//112 33//112 57//112
f 57//113 33//113 23//113
f 26//114 4//114 24//114
f 24//115 12//115 37//115
f 36//116 58//116 37//116
f 13//117 1//117 59//117
f 28//118 19//118 34//118
f 25//119 4//119 35//119
f 32//120 65//120 21//120
f 13//121 36//121 63//121
f 63//122 36//122 15//122
f 63//123 38//123 6//123
f 64//124 39//124 16//124
f 64//125 41//125 12//125
f 32//126 11//126 42//126
f 42//127 17//127 45//127
f 21//128 65//128 45//128
