# Blender 4.1.1
# www.blender.org
mtllib Cube.081_Cube.085.mtl
o Cube.081_Cube.085
v -11.387770 6.729835 -12.402815
v -11.482344 6.749635 -12.551752
v -10.442014 6.298458 -13.266609
v -11.466118 6.522180 -12.369114
v -10.512006 6.084969 -13.248621
v -10.864989 6.502827 -12.758356
v -10.910730 6.525119 -12.935083
v -11.448326 6.748584 -12.460651
v -10.479045 6.132373 -13.265892
v -11.043222 6.307454 -12.896063
v -11.538998 6.651628 -12.521984
v -10.948098 6.283805 -12.740896
v -11.424724 6.627578 -12.377710
v -10.377902 6.163693 -13.222183
v -10.894168 6.394916 -12.732428
v -10.998621 6.289695 -12.819054
v -11.018809 6.429353 -12.937943
v -10.913469 6.528673 -12.846243
v -10.326745 6.270511 -13.145737
v -11.221171 6.629398 -12.740082
v -11.305726 6.421539 -12.731882
v -11.529472 6.704431 -12.578825
v -10.409932 6.060823 -13.116114
v -11.200164 6.412121 -12.570436
v -11.575836 6.546918 -12.513115
v -11.443905 6.574172 -12.379305
v -11.120130 6.628779 -12.590910
v -10.371423 6.279863 -13.203814
v -10.693882 6.439587 -13.091953
v -10.417621 6.217571 -13.291798
v -10.787859 6.197733 -13.073544
v -11.547752 6.594778 -12.540613
v -10.695024 6.177567 -12.923973
v -10.348174 6.215202 -13.135113
v -11.484508 6.584000 -12.435659
v -11.168132 6.501777 -12.580503
v -10.921969 6.352620 -12.746363
v -10.887268 6.448269 -12.756329
v -11.281376 6.431738 -12.656294
v -11.015163 6.311343 -12.857231
v -10.977300 6.295574 -12.791412
v -11.270134 6.530436 -12.748997
v -10.744832 6.318449 -13.088194
v -10.982606 6.472649 -12.912275
v -11.015100 6.368774 -12.893806
v -10.653550 6.422972 -13.021193
v -10.888029 6.507466 -12.795242
v -10.671901 6.421831 -13.052675
v -10.637581 6.404145 -12.984245
v -11.138905 6.646977 -12.630171
v -10.781412 6.266518 -13.109482
v -10.714087 6.396358 -13.098417
v -11.240235 6.590880 -12.743565
v -10.682394 6.171966 -13.030113
v -10.765220 6.207863 -13.046677
v -10.613680 6.295069 -12.960754
v -10.677632 6.235402 -12.935625
v -11.193718 6.452866 -12.586954
v -11.455996 6.687335 -12.474442
v -10.491514 6.080061 -13.221905
v -10.391062 6.184005 -13.155617
v -10.369212 6.268180 -13.267859
v -11.152567 6.551497 -12.589329
v -11.231054 6.410731 -12.615032
v -11.293508 6.489852 -12.757502
v -11.206674 6.649846 -12.664110
vn 0.2180 0.9312 -0.2922
vn -0.2431 -0.9496 0.1980
vn 0.9716 -0.0889 0.2192
vn 0.5979 -0.5945 -0.5376
vn -0.5804 0.4216 0.6967
vn 0.1701 0.9507 -0.2593
vn -0.1429 -0.9399 0.3101
vn -0.3766 -0.9264 0.0041
vn -0.4035 -0.9142 0.0365
vn -0.2648 -0.9407 0.2122
vn 0.6625 0.2332 0.7118
vn 0.5384 -0.0470 0.8414
vn -0.7029 0.4137 0.5786
vn -0.7626 0.2561 0.5941
vn 0.5906 -0.3271 -0.7377
vn 0.7253 -0.3085 -0.6154
vn 0.9970 -0.0629 0.0459
vn -0.4044 -0.9142 0.0278
vn 0.3681 0.9294 -0.0258
vn 0.5374 -0.2174 0.8148
vn 0.5125 -0.1980 0.8356
vn 0.1204 0.3281 -0.9370
vn 0.5578 -0.7566 0.3411
vn -0.5689 0.6479 0.5066
vn 0.3676 -0.5000 0.7842
vn 0.5219 -0.1807 0.8336
vn -0.5206 -0.8196 -0.2392
vn -0.3261 -0.9414 0.0867
vn -0.3832 -0.9237 0.0063
vn -0.6829 -0.4746 -0.5554
vn -0.1783 0.6078 -0.7738
vn -0.4778 0.2501 -0.8421
vn 0.4901 0.8439 0.2182
vn 0.2999 0.9309 -0.2085
vn 0.4520 0.8802 0.1449
vn 0.3569 0.9211 -0.1557
vn 0.5309 0.8433 0.0841
vn 0.3249 0.9420 -0.0844
vn 0.3061 0.9519 -0.0119
vn 0.3423 0.9328 -0.1131
vn 0.5378 0.8222 0.1865
vn 0.5436 0.8300 0.1248
vn 0.1937 0.9315 -0.3080
vn -0.7046 -0.4455 -0.5523
vn -0.5980 -0.3264 -0.7320
vn -0.2150 0.4962 -0.8412
vn -0.4828 0.3044 -0.8212
vn -0.4901 0.1210 -0.8632
vn -0.5098 0.0889 -0.8557
vn -0.1783 0.6357 -0.7511
vn -0.4280 0.2893 -0.8562
vn -0.2728 0.6491 -0.7101
vn -0.2069 -0.9473 0.2444
vn -0.3488 -0.9319 0.0995
vn -0.3629 -0.9255 0.1083
vn -0.2651 -0.9406 0.2123
vn 0.5603 -0.1480 0.8150
vn -0.5383 -0.8116 -0.2269
vn 0.5109 -0.0993 0.8539
vn 0.6786 0.1812 0.7118
vn 0.5013 -0.1809 0.8462
vn 0.5549 0.2357 0.7978
vn 0.2846 -0.4635 0.8392
vn -0.7714 0.3989 0.4958
vn -0.9360 0.0384 0.3499
vn -0.7153 0.4045 0.5698
vn 0.6295 -0.4481 -0.6348
vn -0.7005 -0.0721 0.7100
vn 0.4262 -0.5813 -0.6931
vn 0.5763 -0.6020 -0.5527
vn -0.6351 0.6297 0.4474
vn -0.6448 -0.0594 -0.7620
vn 0.6783 -0.3409 -0.6509
vn 0.6092 -0.0255 0.7926
vn -0.8576 -0.0361 0.5131
vn 0.5857 0.2671 0.7653
vn 0.4752 -0.1819 0.8609
vn -0.1839 -0.9230 0.3381
vn -0.3061 -0.9211 0.2407
vn -0.4744 0.4338 -0.7660
vn -0.2843 0.3508 -0.8923
vn -0.4405 0.2339 -0.8668
vn 0.3017 0.9480 -0.1017
vn 0.1414 0.9488 -0.2824
vn 0.4865 -0.3595 0.7963
vn 0.5527 -0.2588 0.7922
vn 0.5212 -0.1819 0.8338
vn -0.3859 -0.9203 -0.0648
vn -0.3845 -0.9231 0.0030
vn -0.3928 0.2732 -0.8781
vn -0.5459 0.1064 -0.8311
vn -0.7142 -0.2704 -0.6456
vn 0.4625 0.8765 0.1337
vn 0.3614 0.9320 -0.0261
vn 0.3232 0.9200 -0.2217
vn 0.3794 0.9172 -0.1213
vn 0.3915 0.9201 -0.0078
vn 0.4578 0.8697 0.1842
vn 0.3756 0.9191 -0.1190
vn 0.5277 0.8448 0.0880
vn -0.2453 0.5106 -0.8241
vn -0.4606 -0.0032 -0.8876
vn -0.4605 0.3380 -0.8208
vn -0.4121 0.3202 -0.8530
vn -0.5008 0.0996 -0.8598
vn -0.4613 0.3037 -0.8336
vn -0.4536 0.2495 -0.8556
vn -0.4282 0.2888 -0.8563
vn -0.0954 -0.9022 0.4206
vn -0.0994 -0.9005 0.4233
vn -0.2392 -0.9337 0.2664
vn 0.5829 -0.0116 0.8125
vn 0.5586 -0.0009 0.8294
vn 0.5779 -0.0878 0.8114
vn 0.5107 -0.1264 0.8504
vn 0.3897 -0.3179 0.8643
vn -0.7704 0.4002 0.4963
vn 0.6999 -0.3865 -0.6007
vn -0.6786 0.4351 0.5918
vn -0.6767 -0.1494 -0.7210
vn 0.6047 -0.0482 0.7950
vn 0.4859 0.0030 0.8740
vn 0.4792 -0.1636 0.8623
vn -0.4227 -0.9046 0.0550
vn -0.4021 -0.9154 0.0192
vn -0.5138 0.3376 -0.7887
vn -0.6427 -0.4765 -0.6000
vn -0.5050 -0.2224 -0.8339
s 0
usemtl Fence2
f 20//1 2//1 66//1
f 24//2 4//2 64//2
f 14//3 28//3 61//3
f 60//4 9//4 30//4
f 59//5 11//5 35//5
f 66//6 8//6 50//6
f 54//7 41//7 16//7
f 23//8 33//8 54//8
f 60//9 54//9 55//9
f 39//10 25//10 21//10
f 56//11 38//11 15//11
f 34//12 19//12 56//12
f 35//13 4//13 26//13
f 13//14 35//14 26//14
f 23//15 61//15 34//15
f 60//16 61//16 23//16
f 14//17 62//17 28//17
f 64//18 4//18 39//18
f 7//19 66//19 18//19
f 26//20 36//20 13//20
f 63//21 27//21 1//21
f 30//22 3//22 62//22
f 60//23 14//23 61//23
f 59//24 22//24 11//24
f 57//25 15//25 37//25
f 6//26 56//26 19//26
f 55//27 16//27 40//27
f 39//28 4//28 25//28
f 41//29 33//29 12//29
f 22//30 42//30 11//30
f 44//31 43//31 17//31
f 45//32 31//32 10//32
f 18//33 49//33 46//33
f 7//34 46//34 48//34
f 48//35 29//35 7//35
f 48//36 28//36 62//36
f 48//37 3//37 29//37
f 6//38 49//38 47//38
f 1//39 50//39 8//39
f 19//40 28//40 49//40
f 28//41 46//41 49//41
f 27//42 47//42 50//42
f 50//43 18//43 66//43
f 17//44 51//44 45//44
f 51//45 5//45 31//45
f 9//46 51//46 43//46
f 7//47 52//47 44//47
f 52//48 3//48 30//48
f 52//49 9//49 43//49
f 2//50 53//50 22//50
f 20//51 44//51 53//51
f 42//52 44//52 17//52
f 10//53 55//53 40//53
f 60//54 23//54 54//54
f 55//55 5//55 60//55
f 21//56 40//56 39//56
f 12//57 57//57 37//57
f 40//58 16//58 39//58
f 57//59 23//59 34//59
f 26//60 24//60 58//60
f 34//61 56//61 57//61
f 24//62 37//62 58//62
f 36//63 37//63 15//63
f 13//64 59//64 35//64
f 8//65 2//65 59//65
f 2//66 22//66 59//66
f 28//67 34//67 61//67
f 1//68 8//68 59//68
f 60//69 30//69 14//69
f 60//70 5//70 9//70
f 25//71 35//71 32//71
f 32//72 21//72 25//72
f 14//73 30//73 62//73
f 13//74 63//74 1//74
f 11//75 32//75 35//75
f 63//76 15//76 38//76
f 63//77 6//77 27//77
f 64//78 16//78 41//78
f 64//79 12//79 24//79
f 32//80 42//80 65//80
f 42//81 45//81 65//81
f 21//82 45//82 10//82
f 66//83 2//83 8//83
f 7//84 20//84 66//84
f 26//85 58//85 36//85
f 57//86 56//86 15//86
f 6//87 38//87 56//87
f 55//88 54//88 16//88
f 41//89 54//89 33//89
f 22//90 53//90 42//90
f 44//91 52//91 43//91
f 45//92 51//92 31//92
f 18//93 47//93 49//93
f 7//94 18//94 46//94
f 48//95 46//95 28//95
f 48//96 62//96 3//96
f 6//97 19//97 49//97
f 1//98 27//98 50//98
f 27//99 6//99 47//99
f 50//100 47//100 18//100
f 17//101 43//101 51//101
f 51//102 9//102 5//102
f 7//103 29//103 52//103
f 52//104 29//104 3//104
f 52//105 30//105 9//105
f 2//106 20//106 53//106
f 20//107 7//107 44//107
f 42//108 53//108 44//108
f 10//109 31//109 55//109
f 55//110 31//110 5//110
f 21//111 10//111 40//111
f 12//112 33//112 57//112
f 57//113 33//113 23//113
f 26//114 4//114 24//114
f 24//115 12//115 37//115
f 36//116 58//116 37//116
f 13//117 1//117 59//117
f 28//118 19//118 34//118
f 25//119 4//119 35//119
f 32//120 65//120 21//120
f 13//121 36//121 63//121
f 63//122 36//122 15//122
f 63//123 38//123 6//123
f 64//124 39//124 16//124
f 64//125 41//125 12//125
f 32//126 11//126 42//126
f 42//127 17//127 45//127
f 21//128 65//128 45//128
