# Blender 4.1.1
# www.blender.org
mtllib Plane.029.mtl
o Plane.029
v -5.478044 -5.529437 -0.866791
v -5.528768 -5.510723 -0.675902
v -5.481637 -5.581059 -0.862685
v -5.532361 -5.562344 -0.671796
v -5.472868 -5.557820 -0.890976
v -5.518019 -5.518550 -0.764902
v -5.530564 -5.536533 -0.673849
v -5.521612 -5.570171 -0.760796
v -5.520950 -5.546289 -0.788079
v -5.441676 -5.657952 -0.794450
v -5.470048 -5.639908 -0.598922
v -5.390456 -5.653261 -0.787450
v -5.418828 -5.635217 -0.591922
v -5.412167 -5.658086 -0.817825
v -5.456346 -5.660391 -0.685469
v -5.444438 -5.637563 -0.595422
v -5.405125 -5.655700 -0.678469
v -5.426697 -5.667766 -0.705008
v -5.272932 -5.551232 -0.816662
v -5.283145 -5.516452 -0.621603
v -5.285277 -5.501711 -0.826138
v -5.295490 -5.466931 -0.631079
v -5.277701 -5.531252 -0.848210
v -5.266451 -5.529039 -0.709128
v -5.289318 -5.491692 -0.626341
v -5.278797 -5.479518 -0.718604
v -5.264023 -5.506670 -0.737571
v -5.558248 -5.343089 -0.926375
v -5.603115 -5.326962 -0.733790
v -5.595952 -5.309352 -0.937984
v -5.640819 -5.293225 -0.745400
v -5.570932 -5.328437 -0.958649
v -5.574860 -5.324775 -0.819199
v -5.621967 -5.310093 -0.739595
v -5.612564 -5.291038 -0.830808
v -5.583323 -5.304139 -0.847796
v -5.312441 -5.535420 -0.829556
v -5.342099 -5.507561 -0.635375
v -5.350933 -5.570237 -0.830440
v -5.380590 -5.542377 -0.636259
v -5.327610 -5.556658 -0.856687
v -5.336941 -5.510985 -0.725149
v -5.361345 -5.524969 -0.635817
v -5.375432 -5.545801 -0.726033
v -5.357535 -5.526263 -0.750795
v -5.416532 -5.342100 -0.891484
v -5.461643 -5.305323 -0.701815
v -5.403101 -5.390631 -0.878879
v -5.448212 -5.353854 -0.689211
v -5.403616 -5.371420 -0.911251
v -5.453097 -5.325619 -0.789066
v -5.454927 -5.329588 -0.695513
v -5.439666 -5.374150 -0.776462
v -5.448007 -5.356659 -0.807117
v -5.575714 -5.666495 -0.874409
v -5.620825 -5.629718 -0.684740
v -5.604382 -5.625797 -0.889119
v -5.649493 -5.589020 -0.699450
v -5.583848 -5.651201 -0.907834
v -5.590551 -5.638844 -0.768990
v -5.635159 -5.609369 -0.692095
v -5.619219 -5.598146 -0.783699
v -5.593307 -5.618482 -0.798873
vn 0.9950 0.0620 0.0784
vn 0.9019 0.1520 0.4044
vn 0.8767 -0.2092 0.4331
vn 0.9778 -0.1853 0.0981
vn -0.1730 0.9420 -0.2876
vn -0.2782 0.9594 0.0465
vn 0.0801 0.9922 0.0955
vn 0.0725 0.9645 -0.2541
vn -0.9092 -0.3867 -0.1547
vn -0.9047 -0.3784 0.1959
vn -0.9911 -0.0319 0.1296
vn -0.9683 -0.1493 -0.2001
vn -0.5046 -0.8332 -0.2261
vn -0.5355 -0.8355 0.1233
vn -0.7993 -0.5994 0.0420
vn -0.6854 -0.6715 -0.2817
vn 0.7571 -0.6524 0.0324
vn 0.7420 -0.5590 0.3701
vn 0.4727 -0.8026 0.3640
vn 0.5727 -0.8193 0.0282
vn 0.9244 0.3798 -0.0348
vn 0.8225 0.4947 0.2805
vn 0.9165 0.1552 0.3687
vn 0.9888 0.1472 0.0256
vn -0.6756 -0.7084 -0.2044
vn -0.7155 -0.6838 0.1432
vn -0.9160 -0.3991 0.0403
vn -0.8130 -0.5134 -0.2748
vn 0.9904 -0.0590 0.1248
vn 0.8893 0.3332 0.3133
vn 0.8383 -0.3990 0.3715
vn -0.0562 0.9695 -0.2384
vn -0.4493 0.8925 -0.0405
vn 0.2773 0.9590 0.0588
vn -0.0562 0.9696 -0.2384
vn -0.9534 -0.2651 -0.1437
vn -0.8138 -0.5575 0.1641
vn -0.9890 0.1451 0.0297
vn -0.9534 -0.2652 -0.1437
vn -0.6114 -0.7596 -0.2217
vn -0.3560 -0.9287 0.1035
vn -0.8909 -0.4501 -0.0612
vn 0.6685 -0.7407 0.0667
vn 0.8614 -0.4110 0.2983
vn 0.3154 -0.9049 0.2858
vn 0.9613 0.2739 0.0305
vn 0.7480 0.6433 0.1635
vn 0.9385 -0.0452 0.3423
vn 0.9613 0.2740 0.0304
vn -0.7628 -0.6124 -0.2078
vn -0.5616 -0.8163 0.1351
vn -0.9682 -0.2390 -0.0736
vn -0.7628 -0.6124 -0.2077
s 0
usemtl Material.001
f 7//1 8//1 9//1
f 9//2 3//2 5//2
f 1//3 9//3 5//3
f 6//4 7//4 9//4
f 16//5 17//5 18//5
f 18//6 12//6 14//6
f 10//7 18//7 14//7
f 15//8 16//8 18//8
f 25//9 26//9 27//9
f 27//10 21//10 23//10
f 19//11 27//11 23//11
f 24//12 25//12 27//12
f 34//13 35//13 36//13
f 36//14 30//14 32//14
f 28//15 36//15 32//15
f 33//16 34//16 36//16
f 43//17 44//17 45//17
f 45//18 39//18 41//18
f 37//19 45//19 41//19
f 42//20 43//20 45//20
f 52//21 53//21 54//21
f 54//22 48//22 50//22
f 46//23 54//23 50//23
f 51//24 52//24 54//24
f 61//25 62//25 63//25
f 63//26 57//26 59//26
f 55//27 63//27 59//27
f 60//28 61//28 63//28
f 7//29 4//29 8//29
f 9//30 8//30 3//30
f 1//31 6//31 9//31
f 6//29 2//29 7//29
f 16//32 13//32 17//32
f 18//33 17//33 12//33
f 10//34 15//34 18//34
f 15//35 11//35 16//35
f 25//36 22//36 26//36
f 27//37 26//37 21//37
f 19//38 24//38 27//38
f 24//39 20//39 25//39
f 34//40 31//40 35//40
f 36//41 35//41 30//41
f 28//42 33//42 36//42
f 33//40 29//40 34//40
f 43//43 40//43 44//43
f 45//44 44//44 39//44
f 37//45 42//45 45//45
f 42//43 38//43 43//43
f 52//46 49//46 53//46
f 54//47 53//47 48//47
f 46//48 51//48 54//48
f 51//49 47//49 52//49
f 61//50 58//50 62//50
f 63//51 62//51 57//51
f 55//52 60//52 63//52
f 60//53 56//53 61//53
