# Blender 4.1.1
# www.blender.org
mtllib Cube.051_Cube.055.mtl
o Cube.051_Cube.055
v -0.826494 4.884398 15.205915
v -0.923786 4.882835 15.354411
v -0.927061 6.223288 15.360648
v -1.008597 4.875679 15.074926
v -1.114620 6.231352 15.235919
v -0.826933 5.556144 15.206090
v -0.905052 5.606455 15.364795
v -0.869973 4.861501 15.276265
v -1.068070 6.250149 15.269268
v -1.123443 5.556144 15.237405
v -1.015704 4.856067 15.287062
v -1.026225 5.556144 15.081734
v -0.911963 4.876874 15.134562
v -0.970529 6.295217 15.229568
v -0.911698 5.556144 15.128740
v -1.081044 5.556144 15.157171
v -1.037439 5.556144 15.336460
v -0.869897 5.556144 15.300409
v -0.834561 6.258560 15.223253
v -0.933051 5.226395 15.358482
v -1.128672 5.226395 15.248230
v -0.993932 4.875714 15.359518
v -1.022478 6.248915 15.095341
v -1.012759 5.226394 15.093760
v -1.109117 4.858043 15.226486
v -0.962183 4.880810 15.108392
v -0.818099 5.226395 15.219745
v -0.875800 6.251325 15.284109
v -0.902607 5.887146 15.377176
v -0.981182 6.282914 15.324764
v -1.124278 5.885894 15.241076
v -1.068976 4.878294 15.269075
v -1.028007 5.885893 15.092316
v -0.882751 6.254928 15.187260
v -1.000076 4.875676 15.167204
v -0.933442 5.226394 15.147376
v -0.963592 5.556144 15.120787
v -0.878371 5.556144 15.177269
v -1.078250 5.201941 15.191047
v -1.089584 5.556144 15.203287
v -1.053921 5.556144 15.134422
v -1.036119 5.226395 15.317888
v -1.017966 5.886388 15.314121
v -0.975486 5.556144 15.334023
v -1.062112 5.556144 15.265590
v -0.864236 5.886745 15.303440
v -0.850997 5.556144 15.242613
v -0.887710 5.889491 15.331203
v -0.854460 5.885997 15.260103
v -0.830828 5.226395 15.265167
v -1.084691 5.886696 15.308132
v -0.947937 5.889431 15.361094
v -0.973177 5.226395 15.342693
v -1.065613 5.953748 15.166059
v -1.093621 5.885894 15.221147
v -0.910519 5.929010 15.170503
v -0.980707 5.886068 15.131633
v -0.985966 5.226394 15.129208
v -0.923941 4.883501 15.251688
v -1.096121 6.234838 15.207579
v -0.937817 6.242908 15.194776
v -0.907596 6.290858 15.324961
v -0.891965 5.226395 15.180119
v -1.048654 5.226394 15.134459
v -1.082142 5.226395 15.305737
v -0.880735 5.190603 15.309675
vn 0.6857 0.0099 0.7278
vn -0.7497 0.0266 -0.6612
vn 0.5782 0.6707 -0.4646
vn -0.2928 0.9506 -0.1028
vn 0.2391 -0.9627 -0.1263
vn 0.6850 -0.0514 0.7267
vn -0.6421 0.0420 -0.7655
vn -0.8842 0.0174 -0.4669
vn -0.8784 -0.0248 -0.4772
vn -0.7502 -0.0008 -0.6612
vn 0.8228 0.0607 -0.5651
vn 0.5989 -0.0099 -0.8008
vn 0.1176 -0.9930 -0.0109
vn -0.0245 -0.9944 -0.1026
vn -0.1807 0.9604 0.2119
vn -0.0429 0.9944 0.0966
vn 0.5449 0.7733 -0.3242
vn -0.8822 -0.0209 -0.4704
vn 0.8731 -0.0135 0.4873
vn 0.4650 0.0610 -0.8832
vn 0.4726 0.0240 -0.8810
vn -0.0540 0.4784 0.8765
vn -0.0951 0.5094 -0.8553
vn 0.3362 -0.9296 0.1511
vn 0.1514 0.0403 -0.9877
vn 0.4897 0.0266 -0.8715
vn -0.9833 -0.0022 -0.1821
vn -0.8342 0.0181 -0.5512
vn -0.8851 0.0101 -0.4653
vn -0.9488 -0.0778 0.3062
vn 0.0392 0.0651 0.9971
vn -0.4175 -0.0112 0.9086
vn 0.9752 -0.0187 0.2203
vn 0.7647 0.0295 0.6437
vn 0.9514 -0.0218 0.3072
vn 0.8107 0.0492 0.5834
vn 0.9467 0.0842 0.3110
vn 0.8349 -0.0204 0.5501
vn 0.8591 -0.0768 0.5060
vn 0.8271 0.0114 0.5619
vn 0.9748 0.0425 0.2192
vn 0.9600 0.0771 0.2690
vn 0.6659 -0.0008 0.7460
vn -0.9391 -0.1062 0.3269
vn -0.8609 0.0316 0.5078
vn -0.0884 0.1099 0.9900
vn -0.3731 -0.0444 0.9267
vn -0.5260 0.0340 0.8498
vn -0.5576 0.0255 0.8297
vn 0.0681 0.0438 0.9967
vn -0.3661 0.0219 0.9303
vn 0.0393 -0.0560 0.9977
vn -0.7095 0.0294 -0.7041
vn -0.8355 -0.0095 -0.5494
vn -0.8355 -0.0273 -0.5488
vn -0.7503 -0.0012 -0.6611
vn 0.5283 0.0553 -0.8473
vn -0.9830 -0.0252 -0.1820
vn 0.5501 -0.0202 -0.8349
vn 0.7945 0.0908 -0.6005
vn 0.4826 0.0039 -0.8758
vn 0.7958 -0.0694 -0.6015
vn 0.1512 -0.0657 -0.9863
vn 0.0358 -0.9975 0.0601
vn -0.3754 -0.9269 -0.0054
vn 0.1005 -0.9949 -0.0066
vn -0.2063 0.9772 0.0512
vn -0.1815 -0.8966 -0.4040
vn -0.4417 0.8947 0.0662
vn -0.3165 0.9443 -0.0904
vn 0.2622 -0.9437 0.2016
vn -0.7064 -0.0790 0.7034
vn -0.1069 0.9875 0.1157
vn 0.6362 0.0638 -0.7688
vn -0.3214 -0.9270 -0.1936
vn 0.8237 -0.0388 -0.5657
vn 0.4726 -0.0238 -0.8810
vn -0.6426 -0.0104 -0.7661
vn -0.7489 -0.0547 -0.6605
vn -0.2537 -0.1108 0.9609
vn -0.2530 0.1321 0.9584
vn -0.4173 0.0364 0.9080
vn 0.8192 -0.0313 0.5727
vn 0.6583 -0.0610 0.7503
vn 0.3259 0.0792 -0.9421
vn 0.4351 0.0989 -0.8949
vn 0.4886 0.0263 -0.8721
vn -0.9116 0.0445 -0.4087
vn -0.8868 0.0107 -0.4621
vn -0.3658 0.0662 0.9283
vn -0.5563 -0.0215 0.8307
vn -0.8539 -0.1234 0.5056
vn 0.9505 -0.0065 0.3108
vn 0.8711 -0.0194 0.4908
vn 0.7652 0.0583 0.6412
vn 0.8341 0.0499 0.5494
vn 0.8868 -0.0017 0.4621
vn 0.9623 -0.0345 0.2697
vn 0.8342 0.0451 0.5496
vn 0.9475 0.0791 0.3098
vn -0.0888 0.0724 0.9934
vn -0.6082 0.1118 0.7859
vn -0.3358 -0.0386 0.9411
vn -0.3333 0.0221 0.9426
vn -0.5463 0.0311 0.8370
vn -0.3661 -0.0209 0.9303
vn -0.4093 0.0150 0.9123
vn -0.3666 0.0219 0.9301
vn -0.5450 0.0080 -0.8384
vn -0.5450 0.0027 -0.8384
vn -0.7097 -0.0119 -0.7044
vn 0.6389 0.0281 -0.7688
vn 0.6392 -0.0033 -0.7690
vn 0.5804 0.0505 -0.8127
vn 0.5291 -0.0093 -0.8485
vn 0.3266 -0.0463 -0.9440
vn 0.0375 -0.9975 0.0603
vn -0.1083 0.9931 0.0447
vn 0.1522 -0.9883 -0.0141
vn -0.7739 -0.0952 0.6262
vn 0.6182 0.0667 -0.7832
vn 0.6174 -0.0849 -0.7821
vn 0.4886 -0.0277 -0.8721
vn -0.8753 -0.0529 -0.4806
vn -0.8851 -0.0142 -0.4652
vn -0.3545 -0.0970 0.9300
vn -0.9442 -0.0223 0.3287
vn -0.7715 0.1229 0.6242
s 0
usemtl Fence
f 20//1 2//1 66//1
f 24//2 4//2 64//2
f 14//3 28//3 61//3
f 60//4 9//4 30//4
f 59//5 11//5 35//5
f 66//6 8//6 50//6
f 54//7 41//7 16//7
f 23//8 33//8 54//8
f 60//9 54//9 55//9
f 39//10 25//10 21//10
f 56//11 38//11 15//11
f 34//12 19//12 56//12
f 35//13 4//13 26//13
f 13//14 35//14 26//14
f 23//15 61//15 34//15
f 60//16 61//16 23//16
f 14//17 62//17 28//17
f 64//18 4//18 39//18
f 7//19 66//19 18//19
f 26//20 36//20 13//20
f 63//21 27//21 1//21
f 30//22 3//22 62//22
f 60//23 14//23 61//23
f 59//24 22//24 11//24
f 57//25 15//25 37//25
f 6//26 56//26 19//26
f 55//27 16//27 40//27
f 39//28 4//28 25//28
f 41//29 33//29 12//29
f 22//30 42//30 11//30
f 44//31 43//31 17//31
f 45//32 31//32 10//32
f 18//33 49//33 46//33
f 7//34 46//34 48//34
f 48//35 29//35 7//35
f 48//36 28//36 62//36
f 48//37 3//37 29//37
f 6//38 49//38 47//38
f 1//39 50//39 8//39
f 19//40 28//40 49//40
f 28//41 46//41 49//41
f 27//42 47//42 50//42
f 50//43 18//43 66//43
f 17//44 51//44 45//44
f 51//45 5//45 31//45
f 9//46 51//46 43//46
f 7//47 52//47 44//47
f 52//48 3//48 30//48
f 52//49 9//49 43//49
f 2//50 53//50 22//50
f 20//51 44//51 53//51
f 42//52 44//52 17//52
f 10//53 55//53 40//53
f 60//54 23//54 54//54
f 55//55 5//55 60//55
f 21//56 40//56 39//56
f 12//57 57//57 37//57
f 40//58 16//58 39//58
f 57//59 23//59 34//59
f 26//60 24//60 58//60
f 34//61 56//61 57//61
f 24//62 37//62 58//62
f 36//63 37//63 15//63
f 13//64 59//64 35//64
f 8//65 2//65 59//65
f 2//66 22//66 59//66
f 28//67 34//67 61//67
f 1//68 8//68 59//68
f 60//69 30//69 14//69
f 60//70 5//70 9//70
f 25//71 35//71 32//71
f 32//72 21//72 25//72
f 14//73 30//73 62//73
f 13//74 63//74 1//74
f 11//75 32//75 35//75
f 63//76 15//76 38//76
f 63//77 6//77 27//77
f 64//78 16//78 41//78
f 64//79 12//79 24//79
f 32//80 42//80 65//80
f 42//81 45//81 65//81
f 21//82 45//82 10//82
f 66//83 2//83 8//83
f 7//84 20//84 66//84
f 26//85 58//85 36//85
f 57//86 56//86 15//86
f 6//87 38//87 56//87
f 55//88 54//88 16//88
f 41//89 54//89 33//89
f 22//90 53//90 42//90
f 44//91 52//91 43//91
f 45//92 51//92 31//92
f 18//93 47//93 49//93
f 7//94 18//94 46//94
f 48//95 46//95 28//95
f 48//96 62//96 3//96
f 6//97 19//97 49//97
f 1//98 27//98 50//98
f 27//99 6//99 47//99
f 50//100 47//100 18//100
f 17//101 43//101 51//101
f 51//102 9//102 5//102
f 7//103 29//103 52//103
f 52//104 29//104 3//104
f 52//105 30//105 9//105
f 2//106 20//106 53//106
f 20//107 7//107 44//107
f 42//108 53//108 44//108
f 10//109 31//109 55//109
f 55//110 31//110 5//110
f 21//111 10//111 40//111
f 12//112 33//112 57//112
f 57//113 33//113 23//113
f 26//114 4//114 24//114
f 24//115 12//115 37//115
f 36//116 58//116 37//116
f 13//117 1//117 59//117
f 28//118 19//118 34//118
f 25//119 4//119 35//119
f 32//120 65//120 21//120
f 13//121 36//121 63//121
f 63//122 36//122 15//122
f 63//123 38//123 6//123
f 64//124 39//124 16//124
f 64//125 41//125 12//125
f 32//126 11//126 42//126
f 42//127 17//127 45//127
f 21//128 65//128 45//128
