# Blender 4.1.1
# www.blender.org
mtllib Cube.102_Cube.110.mtl
o Cube.102_Cube.110
v 1.723377 -0.196629 -0.889853
v 1.738496 -0.207438 -0.702682
v 1.727774 -0.183204 -0.700169
v 1.695376 -0.209505 -0.889117
v 1.686923 -0.193912 -0.889081
v 1.700381 -0.201057 -0.700370
v 1.719800 -0.187932 -0.889745
v 1.723477 -0.183299 -0.794485
v 1.710713 -0.198242 -0.700221
v 1.708431 -0.204061 -0.890201
v 1.708218 -0.188642 -0.793687
v 1.718514 -0.211897 -0.795961
v 1.734483 -0.197948 -0.701141
v 1.716604 -0.179963 -0.885520
v 1.726752 -0.185694 -0.748307
v 1.706730 -0.215988 -0.698397
v 1.732184 -0.211115 -0.704104
v 1.688341 -0.194271 -0.839139
v 1.708812 -0.220558 -0.703040
v 1.709317 -0.181546 -0.888491
v 1.720951 -0.180990 -0.833162
v 1.732265 -0.201665 -0.792051
v 1.722933 -0.192161 -0.700271
v 1.704844 -0.210389 -0.700049
v 1.716372 -0.216444 -0.702433
v 1.697562 -0.199217 -0.730770
v 1.696321 -0.210670 -0.840796
v 1.693581 -0.188653 -0.887053
v 1.716453 -0.200224 -0.888608
v 1.716397 -0.187211 -0.794207
v 1.698992 -0.187704 -0.792935
v 1.710950 -0.189112 -0.747344
v 1.724602 -0.205744 -0.796019
v 1.713412 -0.206331 -0.841796
v 1.720403 -0.211155 -0.749477
v 1.702098 -0.185306 -0.890559
v 1.700225 -0.211780 -0.806099
v 1.698058 -0.204171 -0.780850
v 1.725755 -0.188235 -0.799035
v 1.726472 -0.187797 -0.841577
v 1.731058 -0.190584 -0.751802
v 1.728225 -0.196222 -0.838330
v 1.691091 -0.200551 -0.845138
v 1.700773 -0.212011 -0.748061
v 1.719959 -0.200270 -0.841895
v 1.704703 -0.206395 -0.841148
v 1.701286 -0.188761 -0.746598
v 1.697481 -0.184066 -0.832744
v 1.710995 -0.180670 -0.839957
v 1.716829 -0.181423 -0.747288
v 1.712671 -0.214215 -0.762258
v 1.692611 -0.203468 -0.890163
v 1.732047 -0.196741 -0.749418
vn -0.1515 -0.0501 -0.9872
vn 0.9183 0.3942 -0.0365
vn 0.0506 0.9805 0.1901
vn -0.7396 -0.6730 0.0043
vn 0.7882 0.6151 0.0196
vn 0.9774 0.2106 0.0186
vn 0.0547 -0.0409 0.9977
vn 0.0395 -0.0711 0.9967
vn -0.9076 -0.4192 0.0228
vn -0.9014 -0.4291 0.0576
vn -0.9546 -0.2978 0.0078
vn -0.1198 0.0410 -0.9919
vn -0.0089 -0.1747 -0.9846
vn -0.0032 -0.0202 -0.9998
vn 0.5045 -0.8585 -0.0918
vn 0.5165 -0.8514 -0.0910
vn -0.3832 0.9223 -0.0504
vn 0.1455 -0.9847 -0.0960
vn 0.3682 -0.9298 -0.0001
vn 0.4531 -0.8894 -0.0612
vn 0.9889 0.1409 -0.0464
vn -0.8598 0.4622 0.2172
vn 0.2781 -0.6193 0.7342
vn -0.9097 -0.4153 0.0078
vn 0.4809 -0.8745 -0.0623
vn -0.4794 0.8736 0.0835
vn 0.2302 -0.9658 -0.1190
vn 0.1077 0.9904 0.0864
vn 0.7007 -0.6948 -0.1624
vn 0.1836 -0.2462 0.9517
vn 0.3108 -0.9471 -0.0799
vn -0.8591 -0.5118 0.0042
vn 0.7439 0.6680 -0.0181
vn 0.9053 0.4237 -0.0292
vn 0.9084 0.4161 -0.0408
vn 0.7453 0.6649 -0.0488
vn 0.9813 0.1681 -0.0937
vn 0.8959 0.4430 -0.0321
vn 0.0373 0.0939 0.9949
vn -0.8873 -0.4559 0.0705
vn -0.0210 0.0243 0.9995
vn -0.1022 -0.2014 0.9742
vn -0.9964 0.0073 0.0842
vn -0.8815 -0.4706 0.0378
vn -0.8801 -0.4700 0.0679
vn 0.3164 -0.9451 -0.0813
vn 0.1137 0.5006 -0.8582
vn 0.4173 -0.3366 -0.8441
vn -0.4774 0.7686 -0.4259
vn 0.6780 -0.7332 -0.0516
vn 0.4518 -0.8914 -0.0355
vn 0.4868 -0.8602 -0.1519
vn 0.4531 -0.8909 -0.0303
vn -0.1095 -0.9902 -0.0871
vn 0.0038 -0.9989 -0.0472
vn 0.0379 0.9991 0.0209
vn -0.6927 0.6659 0.2769
vn -0.9118 0.4071 0.0544
vn -0.7440 0.6682 -0.0030
vn -0.7686 0.6338 0.0871
vn 0.0199 0.9996 0.0180
vn -0.2644 0.9635 -0.0418
vn -0.1604 0.9743 0.1582
vn 0.3825 0.9166 -0.1166
vn -0.7924 0.6063 -0.0675
vn -0.4386 0.8827 0.1688
vn 0.1759 0.0406 -0.9836
vn -0.7962 -0.6049 0.0123
vn -0.9438 0.3096 0.1161
vn 0.9077 0.4173 -0.0436
vn 0.9874 0.1183 -0.1050
vn 0.9227 0.3834 -0.0396
vn 0.3899 0.9192 -0.0558
vn -0.0702 0.9863 0.1493
vn 0.4503 -0.8894 -0.0791
vn 0.6699 -0.7262 -0.1544
vn 0.3394 -0.3920 0.8551
vn 0.8773 0.4740 -0.0749
vn 0.7645 0.6433 0.0418
vn 0.8961 0.4258 -0.1253
vn 0.9167 0.3786 -0.1280
vn -0.3195 0.1676 0.9327
vn -0.8348 -0.5486 0.0460
vn -0.9516 -0.2938 0.0906
vn 0.7107 -0.7033 -0.0177
vn 0.4439 -0.8918 -0.0875
vn 0.4555 -0.8895 -0.0351
vn 0.5222 -0.8405 -0.1444
vn 0.3838 -0.9233 -0.0148
vn -0.0017 -0.9927 -0.1204
vn 0.1015 0.9948 0.0041
vn -0.2631 0.9612 0.0826
vn -0.6240 0.7810 0.0233
vn -0.7870 0.6096 0.0948
vn -0.2082 0.9780 -0.0105
vn -0.4619 0.8869 -0.0000
vn -0.4797 0.8738 0.0793
vn -0.1711 0.9851 0.0201
vn -0.7730 0.5893 0.2349
vn 0.0308 -0.1004 -0.9945
vn -0.8768 -0.4760 0.0682
s 0
usemtl Bark
f 7//1 1//1 29//1
f 2//2 53//2 13//2
f 9//3 32//3 47//3
f 37//4 19//4 44//4
f 21//5 39//5 40//5
f 40//6 39//6 42//6
f 23//7 13//7 3//7
f 23//8 9//8 13//8
f 5//9 43//9 18//9
f 6//10 26//10 24//10
f 38//11 37//11 44//11
f 36//12 52//12 5//12
f 52//13 10//13 4//13
f 36//14 10//14 52//14
f 22//15 17//15 33//15
f 2//16 17//16 22//16
f 48//17 36//17 28//17
f 51//18 19//18 37//18
f 35//19 51//19 12//19
f 35//20 25//20 51//20
f 41//21 13//21 53//21
f 3//22 50//22 23//22
f 16//23 19//23 25//23
f 52//24 4//24 27//24
f 51//25 25//25 19//25
f 21//26 30//26 8//26
f 37//27 46//27 51//27
f 31//28 11//28 48//28
f 34//29 33//29 12//29
f 13//30 25//30 17//30
f 17//31 25//31 35//31
f 5//32 52//32 43//32
f 41//33 8//33 15//33
f 39//34 22//34 42//34
f 13//35 15//35 3//35
f 40//36 14//36 21//36
f 1//37 40//37 42//37
f 21//38 8//38 39//38
f 9//39 16//39 13//39
f 38//40 18//40 43//40
f 9//41 6//41 24//41
f 13//42 17//42 2//42
f 44//43 24//43 38//43
f 24//44 26//44 38//44
f 16//45 44//45 19//45
f 35//46 33//46 17//46
f 36//47 14//47 7//47
f 20//48 14//48 36//48
f 5//49 28//49 36//49
f 34//50 29//50 45//50
f 45//51 1//51 42//51
f 42//52 33//52 45//52
f 4//53 46//53 27//53
f 46//54 12//54 51//54
f 10//55 34//55 46//55
f 32//56 31//56 47//56
f 26//57 9//57 47//57
f 26//58 47//58 31//58
f 28//59 18//59 48//59
f 18//60 31//60 48//60
f 14//61 49//61 21//61
f 49//62 36//62 48//62
f 48//63 30//63 49//63
f 15//64 30//64 50//64
f 30//65 32//65 50//65
f 23//66 32//66 9//66
f 36//67 29//67 10//67
f 37//68 43//68 52//68
f 37//69 52//69 27//69
f 39//70 53//70 22//70
f 39//71 41//71 53//71
f 2//72 22//72 53//72
f 3//73 15//73 50//73
f 21//74 49//74 30//74
f 37//75 27//75 46//75
f 34//76 45//76 33//76
f 13//77 16//77 25//77
f 41//78 39//78 8//78
f 13//79 41//79 15//79
f 40//80 7//80 14//80
f 1//81 7//81 40//81
f 9//82 24//82 16//82
f 38//83 26//83 18//83
f 44//84 16//84 24//84
f 35//85 12//85 33//85
f 34//86 10//86 29//86
f 45//87 29//87 1//87
f 42//88 22//88 33//88
f 4//89 10//89 46//89
f 46//90 34//90 12//90
f 32//91 11//91 31//91
f 26//92 6//92 9//92
f 28//93 5//93 18//93
f 18//94 26//94 31//94
f 14//95 20//95 49//95
f 49//96 20//96 36//96
f 48//63 11//63 30//63
f 15//97 8//97 30//97
f 30//98 11//98 32//98
f 23//99 50//99 32//99
f 36//100 7//100 29//100
f 37//101 38//101 43//101
