# Blender 4.1.1
# www.blender.org
mtllib Cube.080_Cube.084.mtl
o Cube.080_Cube.084
v -12.376490 7.565936 -11.607939
v -12.460806 7.591432 -11.762081
v -11.395491 7.111036 -12.418732
v -12.464456 7.360967 -11.582561
v -11.474363 6.900139 -12.408611
v -11.841396 7.324193 -11.934244
v -11.875185 7.350710 -12.113066
v -12.432590 7.587797 -11.669083
v -11.438645 6.946492 -12.423037
v -12.017853 7.137728 -12.085878
v -12.522809 7.495245 -11.737480
v -11.933517 7.108277 -11.925550
v -12.418714 7.464817 -11.586847
v -11.339326 6.973310 -12.372662
v -11.876126 7.217120 -11.911943
v -11.978825 7.117193 -12.006567
v -11.986362 7.259185 -12.124161
v -11.883312 7.353109 -12.024517
v -11.289092 7.077010 -12.291456
v -12.193068 7.463990 -11.935896
v -12.285644 7.259411 -11.936346
v -12.507807 7.548444 -11.792751
v -11.381702 6.870249 -12.270473
v -12.190761 7.243697 -11.768875
v -12.563995 7.391903 -11.732624
v -12.439732 7.412211 -11.590500
v -12.101605 7.457410 -11.780804
v -11.329689 7.088880 -12.352016
v -11.652321 7.259193 -12.257641
v -11.372604 7.029644 -12.443697
v -11.756192 7.020865 -12.249054
v -12.532497 7.439039 -11.757549
v -11.673663 6.995060 -12.094389
v -11.313182 7.022415 -12.283087
v -12.476354 7.424375 -11.649084
v -12.154850 7.332198 -11.775473
v -11.904563 7.176116 -11.928259
v -11.865772 7.270503 -11.934490
v -12.265684 7.267608 -11.859243
v -11.992141 7.139993 -12.045332
v -11.959064 7.121866 -11.977573
v -12.245029 7.367105 -11.949440
v -11.707874 7.140045 -12.259033
v -11.950242 7.300702 -12.095600
v -11.987665 7.197895 -12.080881
v -11.617118 7.240050 -12.184814
v -11.861904 7.330229 -11.972403
v -11.633506 7.240056 -12.217384
v -11.604190 7.220110 -12.147270
v -12.117208 7.476864 -11.820845
v -11.744964 7.089851 -12.283388
v -11.673679 7.216862 -12.266056
v -12.213300 7.426282 -11.941179
v -11.654668 6.990480 -12.199625
v -11.734907 7.029743 -12.220676
v -11.585876 7.109879 -12.124146
v -11.653441 7.052350 -12.103994
v -12.181787 7.284393 -11.784290
v -12.441657 7.527085 -11.684328
v -11.455771 6.894080 -12.380766
v -11.355844 6.993168 -12.306707
v -11.323930 7.078025 -12.415985
v -12.136928 7.381409 -11.782501
v -12.218845 7.244117 -11.815306
v -12.269320 7.327563 -11.960039
v -12.182576 7.482798 -11.858847
vn 0.2702 0.9262 -0.2629
vn -0.2901 -0.9423 0.1669
vn 0.9521 -0.1289 0.2773
vn 0.6079 -0.6093 -0.5092
vn -0.6066 0.4336 0.6664
vn 0.2212 0.9471 -0.2326
vn -0.1968 -0.9380 0.2853
vn -0.4103 -0.9113 -0.0344
vn -0.4388 -0.8986 -0.0036
vn -0.3122 -0.9328 0.1800
vn 0.6251 0.1977 0.7551
vn 0.4829 -0.0794 0.8721
vn -0.7217 0.4320 0.5409
vn -0.7880 0.2767 0.5500
vn 0.6228 -0.3389 -0.7052
vn 0.7502 -0.3272 -0.5745
vn 0.9891 -0.1015 0.1063
vn -0.4390 -0.8984 -0.0123
vn 0.4033 0.9150 0.0122
vn 0.4772 -0.2492 0.8427
vn 0.4517 -0.2292 0.8622
vn 0.1906 0.3365 -0.9222
vn 0.5069 -0.7821 0.3624
vn -0.5748 0.6619 0.4811
vn 0.2992 -0.5246 0.7970
vn 0.4620 -0.2123 0.8611
vn -0.5348 -0.7957 -0.2843
vn -0.3656 -0.9294 0.0509
vn -0.4169 -0.9084 -0.0325
vn -0.6641 -0.4404 -0.6041
vn -0.1071 0.6250 -0.7732
vn -0.4148 0.2800 -0.8657
vn 0.5066 0.8215 0.2619
vn 0.3467 0.9216 -0.1743
vn 0.4746 0.8601 0.1871
vn 0.3999 0.9089 -0.1182
vn 0.5556 0.8211 0.1307
vn 0.3643 0.9300 -0.0487
vn 0.3414 0.9396 0.0227
vn 0.3831 0.9205 -0.0764
vn 0.5553 0.7984 0.2328
vn 0.5653 0.8068 0.1717
vn 0.2470 0.9277 -0.2800
vn -0.6850 -0.4105 -0.6019
vn -0.5630 -0.2930 -0.7728
vn -0.1436 0.5159 -0.8445
vn -0.4191 0.3341 -0.8443
vn -0.4305 0.1518 -0.8897
vn -0.4519 0.1204 -0.8839
vn -0.1074 0.6526 -0.7501
vn -0.3628 0.3174 -0.8761
vn -0.2037 0.6690 -0.7148
vn -0.2569 -0.9421 0.2155
vn -0.3887 -0.9192 0.0624
vn -0.4030 -0.9125 0.0705
vn -0.3126 -0.9327 0.1801
vn 0.5026 -0.1807 0.8454
vn -0.5530 -0.7872 -0.2731
vn 0.4527 -0.1308 0.8820
vn 0.6393 0.1451 0.7552
vn 0.4405 -0.2118 0.8724
vn 0.5126 0.2030 0.8343
vn 0.2143 -0.4858 0.8474
vn -0.7854 0.4210 0.4538
vn -0.9539 0.0691 0.2921
vn -0.7339 0.4234 0.5312
vn 0.6506 -0.4628 -0.6021
vn -0.7455 -0.0555 0.6642
vn 0.4466 -0.5873 -0.6750
vn 0.5868 -0.6158 -0.5258
vn -0.6378 0.6471 0.4176
vn -0.5979 -0.0241 -0.8012
vn 0.7044 -0.3573 -0.6133
vn 0.5573 -0.0600 0.8282
vn -0.8886 -0.0105 0.4585
vn 0.5464 0.2337 0.8043
vn 0.4136 -0.2120 0.8854
vn -0.2387 -0.9200 0.3109
vn -0.3545 -0.9120 0.2062
vn -0.4093 0.4623 -0.7866
vn -0.2150 0.3739 -0.9022
vn -0.3766 0.2628 -0.8883
vn 0.3425 0.9371 -0.0673
vn 0.1938 0.9466 -0.2575
vn 0.4223 -0.3890 0.8187
vn 0.4923 -0.2908 0.8204
vn 0.4612 -0.2133 0.8613
vn -0.4151 -0.9039 -0.1037
vn -0.4180 -0.9077 -0.0360
vn -0.3270 0.3004 -0.8960
vn -0.4888 0.1388 -0.8613
vn -0.6822 -0.2338 -0.6928
vn 0.4856 0.8562 0.1764
vn 0.3968 0.9178 0.0116
vn 0.3703 0.9101 -0.1862
vn 0.4201 0.9037 -0.0825
vn 0.4252 0.9045 0.0316
vn 0.4775 0.8490 0.2264
vn 0.4162 0.9057 -0.0804
vn 0.5523 0.8227 0.1343
vn -0.1743 0.5311 -0.8292
vn -0.4042 0.0270 -0.9143
vn -0.3955 0.3669 -0.8420
vn -0.3459 0.3478 -0.8714
vn -0.4422 0.1308 -0.8873
vn -0.3969 0.3328 -0.8554
vn -0.3899 0.2786 -0.8777
vn -0.3630 0.3170 -0.8762
vn -0.1549 -0.9038 0.3989
vn -0.1590 -0.9019 0.4015
vn -0.2899 -0.9276 0.2357
vn 0.5303 -0.0453 0.8466
vn 0.5055 -0.0339 0.8622
vn 0.5225 -0.1214 0.8439
vn 0.4518 -0.1578 0.8781
vn 0.3231 -0.3446 0.8814
vn -0.7844 0.4223 0.4543
vn 0.7210 -0.4044 -0.5626
vn -0.6974 0.4523 0.5559
vn -0.6356 -0.1133 -0.7637
vn 0.5518 -0.0824 0.8299
vn 0.4303 -0.0278 0.9023
vn 0.4181 -0.1939 0.8875
vn -0.4587 -0.8885 0.0140
vn -0.4363 -0.8996 -0.0207
vn -0.4508 0.3681 -0.8132
vn -0.6214 -0.4431 -0.6462
vn -0.4600 -0.1913 -0.8671
s 0
usemtl Fence2
f 20//1 2//1 66//1
f 24//2 4//2 64//2
f 14//3 28//3 61//3
f 60//4 9//4 30//4
f 59//5 11//5 35//5
f 66//6 8//6 50//6
f 54//7 41//7 16//7
f 23//8 33//8 54//8
f 60//9 54//9 55//9
f 39//10 25//10 21//10
f 56//11 38//11 15//11
f 34//12 19//12 56//12
f 35//13 4//13 26//13
f 13//14 35//14 26//14
f 23//15 61//15 34//15
f 60//16 61//16 23//16
f 14//17 62//17 28//17
f 64//18 4//18 39//18
f 7//19 66//19 18//19
f 26//20 36//20 13//20
f 63//21 27//21 1//21
f 30//22 3//22 62//22
f 60//23 14//23 61//23
f 59//24 22//24 11//24
f 57//25 15//25 37//25
f 6//26 56//26 19//26
f 55//27 16//27 40//27
f 39//28 4//28 25//28
f 41//29 33//29 12//29
f 22//30 42//30 11//30
f 44//31 43//31 17//31
f 45//32 31//32 10//32
f 18//33 49//33 46//33
f 7//34 46//34 48//34
f 48//35 29//35 7//35
f 48//36 28//36 62//36
f 48//37 3//37 29//37
f 6//38 49//38 47//38
f 1//39 50//39 8//39
f 19//40 28//40 49//40
f 28//41 46//41 49//41
f 27//42 47//42 50//42
f 50//43 18//43 66//43
f 17//44 51//44 45//44
f 51//45 5//45 31//45
f 9//46 51//46 43//46
f 7//47 52//47 44//47
f 52//48 3//48 30//48
f 52//49 9//49 43//49
f 2//50 53//50 22//50
f 20//51 44//51 53//51
f 42//52 44//52 17//52
f 10//53 55//53 40//53
f 60//54 23//54 54//54
f 55//55 5//55 60//55
f 21//56 40//56 39//56
f 12//57 57//57 37//57
f 40//58 16//58 39//58
f 57//59 23//59 34//59
f 26//60 24//60 58//60
f 34//61 56//61 57//61
f 24//62 37//62 58//62
f 36//63 37//63 15//63
f 13//64 59//64 35//64
f 8//65 2//65 59//65
f 2//66 22//66 59//66
f 28//67 34//67 61//67
f 1//68 8//68 59//68
f 60//69 30//69 14//69
f 60//70 5//70 9//70
f 25//71 35//71 32//71
f 32//72 21//72 25//72
f 14//73 30//73 62//73
f 13//74 63//74 1//74
f 11//75 32//75 35//75
f 63//76 15//76 38//76
f 63//77 6//77 27//77
f 64//78 16//78 41//78
f 64//79 12//79 24//79
f 32//80 42//80 65//80
f 42//81 45//81 65//81
f 21//82 45//82 10//82
f 66//83 2//83 8//83
f 7//84 20//84 66//84
f 26//85 58//85 36//85
f 57//86 56//86 15//86
f 6//87 38//87 56//87
f 55//88 54//88 16//88
f 41//89 54//89 33//89
f 22//90 53//90 42//90
f 44//91 52//91 43//91
f 45//92 51//92 31//92
f 18//93 47//93 49//93
f 7//94 18//94 46//94
f 48//95 46//95 28//95
f 48//96 62//96 3//96
f 6//97 19//97 49//97
f 1//98 27//98 50//98
f 27//99 6//99 47//99
f 50//100 47//100 18//100
f 17//101 43//101 51//101
f 51//102 9//102 5//102
f 7//103 29//103 52//103
f 52//104 29//104 3//104
f 52//105 30//105 9//105
f 2//106 20//106 53//106
f 20//107 7//107 44//107
f 42//108 53//108 44//108
f 10//109 31//109 55//109
f 55//110 31//110 5//110
f 21//111 10//111 40//111
f 12//112 33//112 57//112
f 57//113 33//113 23//113
f 26//114 4//114 24//114
f 24//115 12//115 37//115
f 36//116 58//116 37//116
f 13//117 1//117 59//117
f 28//118 19//118 34//118
f 25//119 4//119 35//119
f 32//120 65//120 21//120
f 13//121 36//121 63//121
f 63//122 36//122 15//122
f 63//123 38//123 6//123
f 64//124 39//124 16//124
f 64//125 41//125 12//125
f 32//126 11//126 42//126
f 42//127 17//127 45//127
f 21//128 65//128 45//128
