# Blender 4.1.1
# www.blender.org
mtllib Cube.080_Cube.084.mtl
o Cube.080_Cube.084
v -4.688710 -7.756392 -1.856670
v -4.719604 -7.812870 -1.866012
v -4.329270 -8.053469 -1.689994
v -4.720941 -7.747093 -1.781569
v -4.358169 -8.049761 -1.612721
v -4.492651 -7.875951 -1.768095
v -4.505031 -7.941471 -1.777811
v -4.709265 -7.778795 -1.864680
v -4.345082 -8.055046 -1.629705
v -4.557305 -7.931511 -1.699774
v -4.742322 -7.803856 -1.830769
v -4.526404 -7.872766 -1.688983
v -4.704181 -7.748664 -1.819620
v -4.308691 -8.036589 -1.639531
v -4.505376 -7.867780 -1.728863
v -4.543005 -7.902451 -1.692250
v -4.545767 -7.945537 -1.744276
v -4.508009 -7.909027 -1.778690
v -4.290285 -8.006835 -1.677527
v -4.621504 -7.876556 -1.819317
v -4.655424 -7.876722 -1.744359
v -4.736825 -7.824107 -1.850261
v -4.324218 -7.999147 -1.601769
v -4.620659 -7.815360 -1.738601
v -4.757413 -7.802077 -1.792904
v -4.711882 -7.750002 -1.800345
v -4.587992 -7.819730 -1.816906
v -4.305160 -8.029024 -1.681876
v -4.423373 -7.994445 -1.744279
v -4.320884 -8.062616 -1.660172
v -4.461432 -7.991298 -1.656955
v -4.745872 -7.811209 -1.810175
v -4.431193 -7.934629 -1.647500
v -4.299112 -8.003768 -1.657523
v -4.725301 -7.771467 -1.804802
v -4.607501 -7.817776 -1.771028
v -4.515795 -7.873759 -1.713839
v -4.501582 -7.876042 -1.748423
v -4.648111 -7.848471 -1.747362
v -4.547884 -7.916654 -1.700604
v -4.535764 -7.891827 -1.693962
v -4.640543 -7.881519 -1.783818
v -4.443728 -7.994955 -1.700623
v -4.532532 -7.935073 -1.759488
v -4.546244 -7.929680 -1.721819
v -4.410475 -7.967761 -1.737265
v -4.500165 -7.889932 -1.770307
v -4.416479 -7.979695 -1.737267
v -4.405738 -7.954005 -1.729959
v -4.593709 -7.834401 -1.824034
v -4.457318 -8.003879 -1.682232
v -4.431199 -7.997528 -1.728769
v -4.628917 -7.878492 -1.805501
v -4.424233 -7.973188 -1.645822
v -4.453633 -7.980901 -1.660208
v -4.399028 -7.945532 -1.689570
v -4.423784 -7.938148 -1.668491
v -4.617371 -7.821008 -1.753512
v -4.712588 -7.784381 -1.842435
v -4.351357 -8.039558 -1.610501
v -4.314743 -8.012423 -1.646807
v -4.303050 -8.052463 -1.677899
v -4.600934 -7.820352 -1.789059
v -4.630949 -7.832372 -1.738755
v -4.649443 -7.885402 -1.769330
v -4.617660 -7.848325 -1.826208
vn 0.2702 -0.2629 -0.9262
vn -0.2901 0.1669 0.9423
vn 0.9521 0.2773 0.1289
vn 0.6079 -0.5092 0.6093
vn -0.6066 0.6664 -0.4336
vn 0.2212 -0.2326 -0.9471
vn -0.1968 0.2853 0.9380
vn -0.4103 -0.0344 0.9113
vn -0.4387 -0.0036 0.8986
vn -0.3123 0.1800 0.9328
vn 0.6251 0.7551 -0.1977
vn 0.4829 0.8721 0.0793
vn -0.7217 0.5409 -0.4320
vn -0.7880 0.5500 -0.2767
vn 0.6228 -0.7052 0.3389
vn 0.7502 -0.5745 0.3272
vn 0.9891 0.1063 0.1015
vn -0.4390 -0.0123 0.8984
vn 0.4033 0.0122 -0.9150
vn 0.4772 0.8427 0.2492
vn 0.4517 0.8622 0.2292
vn 0.1906 -0.9222 -0.3365
vn 0.5069 0.3624 0.7821
vn -0.5748 0.4811 -0.6619
vn 0.2992 0.7970 0.5247
vn 0.4619 0.8611 0.2123
vn -0.5348 -0.2843 0.7957
vn -0.3656 0.0509 0.9294
vn -0.4169 -0.0325 0.9084
vn -0.6641 -0.6042 0.4404
vn -0.1071 -0.7732 -0.6250
vn -0.4148 -0.8657 -0.2800
vn 0.5066 0.2619 -0.8215
vn 0.3467 -0.1743 -0.9216
vn 0.4746 0.1871 -0.8601
vn 0.3999 -0.1182 -0.9089
vn 0.5556 0.1306 -0.8211
vn 0.3643 -0.0487 -0.9300
vn 0.3414 0.0227 -0.9396
vn 0.3831 -0.0764 -0.9205
vn 0.5553 0.2328 -0.7984
vn 0.5653 0.1717 -0.8068
vn 0.2470 -0.2800 -0.9277
vn -0.6850 -0.6019 0.4105
vn -0.5630 -0.7728 0.2930
vn -0.1436 -0.8445 -0.5159
vn -0.4190 -0.8442 -0.3342
vn -0.4305 -0.8897 -0.1518
vn -0.4519 -0.8839 -0.1203
vn -0.1074 -0.7501 -0.6525
vn -0.3628 -0.8761 -0.3174
vn -0.2037 -0.7148 -0.6690
vn -0.2569 0.2155 0.9421
vn -0.3887 0.0624 0.9192
vn -0.4031 0.0705 0.9125
vn -0.3126 0.1801 0.9327
vn 0.5026 0.8454 0.1807
vn -0.5530 -0.2731 0.7872
vn 0.4527 0.8820 0.1308
vn 0.6393 0.7552 -0.1451
vn 0.4405 0.8724 0.2118
vn 0.5126 0.8343 -0.2030
vn 0.2143 0.8474 0.4858
vn -0.7854 0.4538 -0.4210
vn -0.9539 0.2921 -0.0691
vn -0.7339 0.5311 -0.4234
vn 0.6507 -0.6020 0.4628
vn -0.7455 0.6642 0.0555
vn 0.4466 -0.6750 0.5873
vn 0.5868 -0.5258 0.6158
vn -0.6379 0.4176 -0.6471
vn -0.5979 -0.8012 0.0241
vn 0.7044 -0.6133 0.3573
vn 0.5573 0.8282 0.0600
vn -0.8886 0.4585 0.0106
vn 0.5464 0.8042 -0.2337
vn 0.4136 0.8854 0.2120
vn -0.2387 0.3109 0.9200
vn -0.3545 0.2062 0.9120
vn -0.4094 -0.7866 -0.4623
vn -0.2150 -0.9022 -0.3739
vn -0.3766 -0.8883 -0.2628
vn 0.3425 -0.0673 -0.9371
vn 0.1939 -0.2575 -0.9466
vn 0.4223 0.8187 0.3890
vn 0.4923 0.8204 0.2908
vn 0.4612 0.8613 0.2134
vn -0.4151 -0.1037 0.9039
vn -0.4180 -0.0360 0.9077
vn -0.3270 -0.8960 -0.3004
vn -0.4888 -0.8613 -0.1388
vn -0.6821 -0.6928 0.2338
vn 0.4856 0.1764 -0.8562
vn 0.3968 0.0116 -0.9178
vn 0.3703 -0.1862 -0.9101
vn 0.4200 -0.0825 -0.9037
vn 0.4252 0.0315 -0.9045
vn 0.4775 0.2264 -0.8489
vn 0.4162 -0.0804 -0.9057
vn 0.5523 0.1343 -0.8227
vn -0.1743 -0.8292 -0.5311
vn -0.4042 -0.9143 -0.0270
vn -0.3955 -0.8420 -0.3669
vn -0.3459 -0.8714 -0.3478
vn -0.4422 -0.8873 -0.1308
vn -0.3969 -0.8554 -0.3328
vn -0.3899 -0.8777 -0.2787
vn -0.3630 -0.8762 -0.3170
vn -0.1549 0.3989 0.9038
vn -0.1590 0.4015 0.9020
vn -0.2899 0.2357 0.9276
vn 0.5303 0.8466 0.0453
vn 0.5055 0.8622 0.0339
vn 0.5225 0.8439 0.1214
vn 0.4518 0.8781 0.1577
vn 0.3231 0.8814 0.3447
vn -0.7843 0.4544 -0.4223
vn 0.7210 -0.5627 0.4044
vn -0.6974 0.5559 -0.4523
vn -0.6356 -0.7637 0.1132
vn 0.5518 0.8299 0.0824
vn 0.4303 0.9023 0.0278
vn 0.4181 0.8875 0.1939
vn -0.4587 0.0140 0.8885
vn -0.4363 -0.0207 0.8996
vn -0.4508 -0.8132 -0.3681
vn -0.6213 -0.6462 0.4431
vn -0.4600 -0.8671 0.1912
s 0
usemtl Fence2
f 20//1 2//1 66//1
f 24//2 4//2 64//2
f 14//3 28//3 61//3
f 60//4 9//4 30//4
f 59//5 11//5 35//5
f 66//6 8//6 50//6
f 54//7 41//7 16//7
f 23//8 33//8 54//8
f 60//9 54//9 55//9
f 39//10 25//10 21//10
f 56//11 38//11 15//11
f 34//12 19//12 56//12
f 35//13 4//13 26//13
f 13//14 35//14 26//14
f 23//15 61//15 34//15
f 60//16 61//16 23//16
f 14//17 62//17 28//17
f 64//18 4//18 39//18
f 7//19 66//19 18//19
f 26//20 36//20 13//20
f 63//21 27//21 1//21
f 30//22 3//22 62//22
f 60//23 14//23 61//23
f 59//24 22//24 11//24
f 57//25 15//25 37//25
f 6//26 56//26 19//26
f 55//27 16//27 40//27
f 39//28 4//28 25//28
f 41//29 33//29 12//29
f 22//30 42//30 11//30
f 44//31 43//31 17//31
f 45//32 31//32 10//32
f 18//33 49//33 46//33
f 7//34 46//34 48//34
f 48//35 29//35 7//35
f 48//36 28//36 62//36
f 48//37 3//37 29//37
f 6//38 49//38 47//38
f 1//39 50//39 8//39
f 19//40 28//40 49//40
f 28//41 46//41 49//41
f 27//42 47//42 50//42
f 50//43 18//43 66//43
f 17//44 51//44 45//44
f 51//45 5//45 31//45
f 9//46 51//46 43//46
f 7//47 52//47 44//47
f 52//48 3//48 30//48
f 52//49 9//49 43//49
f 2//50 53//50 22//50
f 20//51 44//51 53//51
f 42//52 44//52 17//52
f 10//53 55//53 40//53
f 60//54 23//54 54//54
f 55//55 5//55 60//55
f 21//56 40//56 39//56
f 12//57 57//57 37//57
f 40//58 16//58 39//58
f 57//59 23//59 34//59
f 26//60 24//60 58//60
f 34//61 56//61 57//61
f 24//62 37//62 58//62
f 36//63 37//63 15//63
f 13//64 59//64 35//64
f 8//65 2//65 59//65
f 2//66 22//66 59//66
f 28//67 34//67 61//67
f 1//68 8//68 59//68
f 60//69 30//69 14//69
f 60//70 5//70 9//70
f 25//71 35//71 32//71
f 32//72 21//72 25//72
f 14//73 30//73 62//73
f 13//74 63//74 1//74
f 11//75 32//75 35//75
f 63//76 15//76 38//76
f 63//77 6//77 27//77
f 64//78 16//78 41//78
f 64//79 12//79 24//79
f 32//80 42//80 65//80
f 42//81 45//81 65//81
f 21//82 45//82 10//82
f 66//83 2//83 8//83
f 7//84 20//84 66//84
f 26//85 58//85 36//85
f 57//86 56//86 15//86
f 6//87 38//87 56//87
f 55//88 54//88 16//88
f 41//89 54//89 33//89
f 22//90 53//90 42//90
f 44//91 52//91 43//91
f 45//92 51//92 31//92
f 18//93 47//93 49//93
f 7//94 18//94 46//94
f 48//95 46//95 28//95
f 48//96 62//96 3//96
f 6//97 19//97 49//97
f 1//98 27//98 50//98
f 27//99 6//99 47//99
f 50//100 47//100 18//100
f 17//101 43//101 51//101
f 51//102 9//102 5//102
f 7//103 29//103 52//103
f 52//104 29//104 3//104
f 52//105 30//105 9//105
f 2//106 20//106 53//106
f 20//107 7//107 44//107
f 42//108 53//108 44//108
f 10//109 31//109 55//109
f 55//110 31//110 5//110
f 21//111 10//111 40//111
f 12//112 33//112 57//112
f 57//113 33//113 23//113
f 26//114 4//114 24//114
f 24//115 12//115 37//115
f 36//116 58//116 37//116
f 13//117 1//117 59//117
f 28//118 19//118 34//118
f 25//119 4//119 35//119
f 32//120 65//120 21//120
f 13//121 36//121 63//121
f 63//122 36//122 15//122
f 63//123 38//123 6//123
f 64//124 39//124 16//124
f 64//125 41//125 12//125
f 32//126 11//126 42//126
f 42//127 17//127 45//127
f 21//128 65//128 45//128
