# Blender 4.1.1
# www.blender.org
mtllib Cube.052_Cube.056.mtl
o Cube.052_Cube.056
v -1.823207 4.846415 14.485710
v -1.800622 4.844851 14.661798
v -1.799056 6.185304 14.668665
v -2.046734 4.837695 14.504528
v -2.022662 6.193369 14.695789
v -1.823425 5.518160 14.486127
v -1.779637 5.568471 14.657513
v -1.810521 4.823517 14.567432
v -1.965613 6.212165 14.690876
v -2.028405 5.518160 14.702651
v -1.914252 4.818080 14.670362
v -2.055708 5.518160 14.521159
v -1.934535 4.838890 14.487040
v -1.917292 6.257233 14.597303
v -1.938119 5.518160 14.482443
v -2.048337 5.518160 14.614120
v -1.898662 5.518160 14.722029
v -1.794771 5.518160 14.585733
v -1.818068 6.220574 14.504128
v -1.805019 5.188411 14.670914
v -2.025342 5.188411 14.714278
v -1.850614 4.837730 14.711273
v -2.044013 6.210928 14.529065
v -2.037657 5.188411 14.521547
v -2.024616 4.820059 14.685043
v -1.989712 4.842826 14.499793
v -1.807838 5.188411 14.490765
v -1.809850 6.213342 14.577181
v -1.769730 5.849163 14.665331
v -1.863512 6.244930 14.676573
v -2.026653 5.847907 14.705983
v -1.966426 4.840310 14.691318
v -2.050184 5.847907 14.530362
v -1.878083 6.216944 14.508099
v -1.980283 4.837692 14.569118
v -1.942529 5.188411 14.510736
v -1.982725 5.518160 14.510128
v -1.881250 5.518160 14.497661
v -2.024191 5.163954 14.638048
v -2.024848 5.518160 14.654717
v -2.042507 5.518160 14.579203
v -1.909729 5.188411 14.707054
v -1.898384 5.848404 14.692394
v -1.853166 5.518160 14.679909
v -1.963476 5.518160 14.684207
v -1.788499 5.848762 14.584357
v -1.817975 5.518160 14.529524
v -1.788292 5.851504 14.620710
v -1.809238 5.848013 14.545067
v -1.787989 5.188411 14.533556
v -1.952982 5.848712 14.731213
v -1.814631 5.851444 14.682571
v -1.845775 5.188411 14.684996
v -2.030831 5.915761 14.610845
v -2.016309 5.847907 14.670912
v -1.910079 5.891026 14.513411
v -1.988683 5.848084 14.529493
v -1.994254 5.188411 14.531070
v -1.867511 4.845517 14.583835
v -2.027026 6.196852 14.662225
v -1.915046 6.204925 14.549603
v -1.807462 6.252874 14.628893
v -1.889729 5.188411 14.508659
v -2.038484 5.188411 14.575808
v -1.952603 5.188411 14.727736
v -1.796984 5.152619 14.599819
vn 0.9942 0.0099 0.1074
vn -0.9995 0.0266 -0.0152
vn 0.1374 0.6706 -0.7290
vn -0.2894 0.9506 0.1122
vn 0.0996 -0.9627 -0.2515
vn 0.9929 -0.0514 0.1070
vn -0.9855 0.0420 -0.1645
vn -0.9754 0.0174 0.2199
vn -0.9777 -0.0248 0.2083
vn -0.9999 -0.0008 -0.0149
vn 0.2580 0.0607 -0.9642
vn -0.0654 -0.0098 -0.9978
vn 0.0823 -0.9930 -0.0847
vn -0.0853 -0.9944 -0.0620
vn 0.0004 0.9604 0.2785
vn 0.0302 0.9944 0.1013
vn 0.2034 0.7733 -0.6005
vn -0.9762 -0.0209 0.2160
vn 0.9803 -0.0135 -0.1972
vn -0.2207 0.0610 -0.9734
vn -0.2134 0.0240 -0.9767
vn 0.5286 0.4785 0.7012
vn -0.6282 0.5094 -0.5881
vn 0.3537 -0.9296 -0.1037
vn -0.5269 0.0403 -0.8490
vn -0.1942 0.0266 -0.9806
vn -0.8656 -0.0022 0.5008
vn -0.9922 0.0181 0.1233
vn -0.9750 0.0101 0.2218
vn -0.5220 -0.0778 0.8494
vn 0.6779 0.0651 0.7323
vn 0.2732 -0.0112 0.9619
vn 0.8843 -0.0187 -0.4664
vn 0.9995 0.0295 -0.0079
vn 0.9227 -0.0218 -0.3850
vn 0.9953 0.0492 -0.0836
vn 0.9216 0.0842 -0.3789
vn 0.9920 -0.0204 -0.1246
vn 0.9818 -0.0768 -0.1739
vn 0.9938 0.0114 -0.1107
vn 0.8832 0.0425 -0.4670
vn 0.9044 0.0771 -0.4196
vn 0.9910 -0.0008 0.1341
vn -0.5012 -0.1062 0.8588
vn -0.3241 0.0316 0.9455
vn 0.5764 0.1099 0.8098
vn 0.3188 -0.0444 0.9468
vn 0.1526 0.0340 0.9877
vn 0.1155 0.0255 0.9930
vn 0.6996 0.0438 0.7132
vn 0.3265 0.0219 0.9449
vn 0.6783 -0.0560 0.7327
vn -0.9968 0.0294 -0.0740
vn -0.9920 -0.0095 0.1255
vn -0.9916 -0.0273 0.1261
vn -0.9999 -0.0012 -0.0147
vn -0.1492 0.0552 -0.9873
vn -0.8653 -0.0252 0.5006
vn -0.1246 -0.0202 -0.9920
vn 0.2134 0.0908 -0.9727
vn -0.2025 0.0039 -0.9793
vn 0.2138 -0.0694 -0.9744
vn -0.5262 -0.0657 -0.8478
vn 0.0663 -0.9975 0.0224
vn -0.2888 -0.9269 0.2398
vn 0.0721 -0.9949 -0.0703
vn -0.1235 0.9772 0.1730
vn -0.4005 -0.8966 -0.1890
vn -0.2927 0.8947 0.3374
vn -0.2992 0.9443 0.1372
vn 0.3303 -0.9437 -0.0172
vn -0.0796 -0.0790 0.9937
vn -0.0061 0.9875 0.1574
vn -0.0162 0.0638 -0.9978
vn -0.3701 -0.9269 0.0618
vn 0.2583 -0.0388 -0.9653
vn -0.2134 -0.0238 -0.9767
vn -0.9863 -0.0103 -0.1647
vn -0.9984 -0.0547 -0.0152
vn 0.4318 -0.1108 0.8951
vn 0.4307 0.1320 0.8928
vn 0.2731 0.0364 0.9613
vn 0.9948 -0.0313 -0.0973
vn 0.9879 -0.0610 0.1423
vn -0.3647 0.0792 -0.9277
vn -0.2510 0.0989 -0.9629
vn -0.1955 0.0263 -0.9803
vn -0.9584 0.0445 0.2820
vn -0.9742 0.0107 0.2253
vn 0.3253 0.0662 0.9433
vn 0.1172 -0.0215 0.9929
vn -0.3203 -0.1234 0.9392
vn 0.9243 -0.0065 -0.3816
vn 0.9810 -0.0194 -0.1932
vn 0.9983 0.0583 -0.0101
vn 0.9909 0.0499 -0.1247
vn 0.9743 -0.0017 -0.2252
vn 0.9066 -0.0345 -0.4206
vn 0.9912 0.0451 -0.1245
vn 0.9214 0.0791 -0.3804
vn 0.5782 0.0724 0.8127
vn 0.0486 0.1118 0.9925
vn 0.3565 -0.0386 0.9335
vn 0.3593 0.0221 0.9329
vn 0.1289 0.0311 0.9912
vn 0.3265 -0.0209 0.9450
vn 0.2819 0.0150 0.9593
vn 0.3260 0.0219 0.9451
vn -0.9591 0.0080 -0.2829
vn -0.9591 0.0027 -0.2829
vn -0.9972 -0.0119 -0.0740
vn -0.0142 0.0281 -0.9995
vn -0.0141 -0.0033 -0.9999
vn -0.0872 0.0505 -0.9949
vn -0.1494 -0.0093 -0.9887
vn -0.3655 -0.0463 -0.9297
vn 0.0677 -0.9975 0.0214
vn -0.0532 0.9931 0.1043
vn 0.1065 -0.9883 -0.1096
vn -0.1811 -0.0952 0.9788
vn -0.0392 0.0667 -0.9970
vn -0.0392 -0.0849 -0.9956
vn -0.1955 -0.0277 -0.9803
vn -0.9776 -0.0529 0.2037
vn -0.9750 -0.0142 0.2217
vn 0.3351 -0.0969 0.9372
vn -0.5039 -0.0223 0.8635
vn -0.1805 0.1229 0.9759
s 0
usemtl Fence
f 20//1 2//1 66//1
f 24//2 4//2 64//2
f 14//3 28//3 61//3
f 60//4 9//4 30//4
f 59//5 11//5 35//5
f 66//6 8//6 50//6
f 54//7 41//7 16//7
f 23//8 33//8 54//8
f 60//9 54//9 55//9
f 39//10 25//10 21//10
f 56//11 38//11 15//11
f 34//12 19//12 56//12
f 35//13 4//13 26//13
f 13//14 35//14 26//14
f 23//15 61//15 34//15
f 60//16 61//16 23//16
f 14//17 62//17 28//17
f 64//18 4//18 39//18
f 7//19 66//19 18//19
f 26//20 36//20 13//20
f 63//21 27//21 1//21
f 30//22 3//22 62//22
f 60//23 14//23 61//23
f 59//24 22//24 11//24
f 57//25 15//25 37//25
f 6//26 56//26 19//26
f 55//27 16//27 40//27
f 39//28 4//28 25//28
f 41//29 33//29 12//29
f 22//30 42//30 11//30
f 44//31 43//31 17//31
f 45//32 31//32 10//32
f 18//33 49//33 46//33
f 7//34 46//34 48//34
f 48//35 29//35 7//35
f 48//36 28//36 62//36
f 48//37 3//37 29//37
f 6//38 49//38 47//38
f 1//39 50//39 8//39
f 19//40 28//40 49//40
f 28//41 46//41 49//41
f 27//42 47//42 50//42
f 50//43 18//43 66//43
f 17//44 51//44 45//44
f 51//45 5//45 31//45
f 9//46 51//46 43//46
f 7//47 52//47 44//47
f 52//48 3//48 30//48
f 52//49 9//49 43//49
f 2//50 53//50 22//50
f 20//51 44//51 53//51
f 42//52 44//52 17//52
f 10//53 55//53 40//53
f 60//54 23//54 54//54
f 55//55 5//55 60//55
f 21//56 40//56 39//56
f 12//57 57//57 37//57
f 40//58 16//58 39//58
f 57//59 23//59 34//59
f 26//60 24//60 58//60
f 34//61 56//61 57//61
f 24//62 37//62 58//62
f 36//63 37//63 15//63
f 13//64 59//64 35//64
f 8//65 2//65 59//65
f 2//66 22//66 59//66
f 28//67 34//67 61//67
f 1//68 8//68 59//68
f 60//69 30//69 14//69
f 60//70 5//70 9//70
f 25//71 35//71 32//71
f 32//72 21//72 25//72
f 14//73 30//73 62//73
f 13//74 63//74 1//74
f 11//75 32//75 35//75
f 63//76 15//76 38//76
f 63//77 6//77 27//77
f 64//78 16//78 41//78
f 64//79 12//79 24//79
f 32//80 42//80 65//80
f 42//81 45//81 65//81
f 21//82 45//82 10//82
f 66//83 2//83 8//83
f 7//84 20//84 66//84
f 26//85 58//85 36//85
f 57//86 56//86 15//86
f 6//87 38//87 56//87
f 55//88 54//88 16//88
f 41//89 54//89 33//89
f 22//90 53//90 42//90
f 44//91 52//91 43//91
f 45//92 51//92 31//92
f 18//93 47//93 49//93
f 7//94 18//94 46//94
f 48//95 46//95 28//95
f 48//96 62//96 3//96
f 6//97 19//97 49//97
f 1//98 27//98 50//98
f 27//99 6//99 47//99
f 50//100 47//100 18//100
f 17//101 43//101 51//101
f 51//102 9//102 5//102
f 7//103 29//103 52//103
f 52//104 29//104 3//104
f 52//105 30//105 9//105
f 2//106 20//106 53//106
f 20//107 7//107 44//107
f 42//108 53//108 44//108
f 10//109 31//109 55//109
f 55//110 31//110 5//110
f 21//111 10//111 40//111
f 12//112 33//112 57//112
f 57//113 33//113 23//113
f 26//114 4//114 24//114
f 24//115 12//115 37//115
f 36//116 58//116 37//116
f 13//117 1//117 59//117
f 28//118 19//118 34//118
f 25//119 4//119 35//119
f 32//120 65//120 21//120
f 13//121 36//121 63//121
f 63//122 36//122 15//122
f 63//123 38//123 6//123
f 64//124 39//124 16//124
f 64//125 41//125 12//125
f 32//126 11//126 42//126
f 42//127 17//127 45//127
f 21//128 65//128 45//128
