# Blender 4.1.1
# www.blender.org
mtllib Plane.021_Plane.005.mtl
o Plane.021_Plane.005
v 3.044555 -1.827664 -0.908246
v 3.038230 -1.845508 -0.710753
v 3.038733 -1.879019 -0.913072
v 3.032407 -1.896863 -0.715580
v 3.042514 -1.850889 -0.937804
v 3.028675 -1.836062 -0.799732
v 3.035318 -1.871185 -0.713166
v 3.022853 -1.887417 -0.804558
v 3.019001 -1.858697 -0.826365
v 3.087810 -1.968472 -0.871179
v 3.104222 -1.988303 -0.674458
v 3.139508 -1.966211 -0.875264
v 3.155920 -1.986042 -0.678543
v 3.111403 -1.964616 -0.900260
v 3.097291 -1.991802 -0.764110
v 3.130071 -1.987173 -0.676500
v 3.148989 -1.989541 -0.768195
v 3.121409 -1.995795 -0.790898
v 3.253896 -1.862706 -0.910999
v 3.288931 -1.866378 -0.715753
v 3.242891 -1.812061 -0.908072
v 3.277926 -1.815734 -0.712826
v 3.243578 -1.836879 -0.936372
v 3.285191 -1.862000 -0.805556
v 3.283429 -1.841056 -0.714290
v 3.274185 -1.811356 -0.802629
v 3.282711 -1.834572 -0.829153
v 2.965035 -1.631788 -0.912428
v 2.964622 -1.652611 -0.715126
v 2.927886 -1.595724 -0.908699
v 2.927473 -1.616547 -0.711398
v 2.946517 -1.610894 -0.937682
v 2.973525 -1.634376 -0.802795
v 2.946047 -1.634579 -0.713262
v 2.936376 -1.598313 -0.799067
v 2.960298 -1.608411 -0.824385
v 3.213587 -1.843936 -0.911412
v 3.229065 -1.853854 -0.713867
v 3.173742 -1.877174 -0.909958
v 3.189220 -1.887092 -0.712414
v 3.191537 -1.859192 -0.937837
v 3.214173 -1.839832 -0.801499
v 3.209143 -1.870473 -0.713140
v 3.174328 -1.873070 -0.800045
v 3.187540 -1.849430 -0.824166
v 3.110731 -1.640311 -0.911112
v 3.110731 -1.640311 -0.712714
v 3.123542 -1.690614 -0.911112
v 3.123542 -1.690614 -0.712714
v 3.117136 -1.665462 -0.938381
v 3.098636 -1.643391 -0.801831
v 3.117136 -1.665462 -0.712714
v 3.111447 -1.693694 -0.801831
v 3.097691 -1.670414 -0.825999
v 2.939227 -1.958730 -0.918727
v 2.939227 -1.958730 -0.720329
v 2.910630 -1.915408 -0.918727
v 2.910630 -1.915408 -0.720329
v 2.924928 -1.937069 -0.945996
v 2.949643 -1.951854 -0.809446
v 2.924928 -1.937069 -0.720329
v 2.921046 -1.908533 -0.809446
v 2.941675 -1.926015 -0.833614
vn 0.9898 0.0267 -0.1397
vn 0.9763 0.0532 0.2097
vn 0.9356 -0.3061 0.1760
vn 0.9619 -0.2195 -0.1629
vn -0.1727 0.9831 -0.0610
vn -0.2008 0.9371 0.2855
vn 0.1610 0.9529 0.2570
vn 0.0750 0.9939 -0.0806
vn -0.9433 -0.3318 -0.0128
vn -0.8615 -0.3920 0.3229
vn -0.9385 -0.0376 0.3433
vn -0.9960 -0.0890 0.0012
vn -0.5930 -0.7634 -0.2558
vn -0.5465 -0.8331 0.0847
vn -0.8065 -0.5808 0.1108
vn -0.7710 -0.5907 -0.2380
vn 0.7035 -0.6606 -0.2621
vn 0.7687 -0.6344 0.0815
vn 0.4899 -0.8669 0.0917
vn 0.5126 -0.8199 -0.2551
vn 0.9161 0.3617 -0.1731
vn 0.8933 0.4149 0.1728
vn 0.9829 0.0629 0.1728
vn 0.9775 0.1206 -0.1731
vn -0.7469 -0.6421 -0.1731
vn -0.7079 -0.6849 0.1729
vn -0.9080 -0.3818 0.1729
vn -0.8839 -0.4344 -0.1731
vn 0.9880 -0.1010 -0.1168
vn 0.9554 0.2489 0.1591
vn 0.8728 -0.4796 0.0906
vn 0.9880 -0.1011 -0.1168
vn -0.0465 0.9983 -0.0354
vn -0.3906 0.8917 0.2289
vn 0.3428 0.9237 0.1709
vn -0.0464 0.9983 -0.0354
vn -0.9764 -0.2139 0.0302
vn -0.7912 -0.5631 0.2386
vn -0.9473 0.1553 0.2801
vn -0.6914 -0.6901 -0.2138
vn -0.3819 -0.9242 0.0078
vn -0.9089 -0.4126 0.0606
vn 0.6192 -0.7521 -0.2256
vn 0.8785 -0.4776 0.0131
vn 0.3133 -0.9491 0.0338
vn 0.9597 0.2444 -0.1387
vn 0.8043 0.5848 0.1055
vn 0.9860 -0.1288 0.1055
vn -0.8265 -0.5456 -0.1387
vn -0.5681 -0.8162 0.1055
vn -0.9738 -0.2016 0.1055
s 0
usemtl Material.001
f 7//1 8//1 9//1
f 9//2 3//2 5//2
f 1//3 9//3 5//3
f 6//4 7//4 9//4
f 16//5 17//5 18//5
f 18//6 12//6 14//6
f 10//7 18//7 14//7
f 15//8 16//8 18//8
f 25//9 26//9 27//9
f 27//10 21//10 23//10
f 19//11 27//11 23//11
f 24//12 25//12 27//12
f 34//13 35//13 36//13
f 36//14 30//14 32//14
f 28//15 36//15 32//15
f 33//16 34//16 36//16
f 43//17 44//17 45//17
f 45//18 39//18 41//18
f 37//19 45//19 41//19
f 42//20 43//20 45//20
f 52//21 53//21 54//21
f 54//22 48//22 50//22
f 46//23 54//23 50//23
f 51//24 52//24 54//24
f 61//25 62//25 63//25
f 63//26 57//26 59//26
f 55//27 63//27 59//27
f 60//28 61//28 63//28
f 7//29 4//29 8//29
f 9//30 8//30 3//30
f 1//31 6//31 9//31
f 6//32 2//32 7//32
f 16//33 13//33 17//33
f 18//34 17//34 12//34
f 10//35 15//35 18//35
f 15//36 11//36 16//36
f 25//37 22//37 26//37
f 27//38 26//38 21//38
f 19//39 24//39 27//39
f 24//37 20//37 25//37
f 34//40 31//40 35//40
f 36//41 35//41 30//41
f 28//42 33//42 36//42
f 33//40 29//40 34//40
f 43//43 40//43 44//43
f 45//44 44//44 39//44
f 37//45 42//45 45//45
f 42//43 38//43 43//43
f 52//46 49//46 53//46
f 54//47 53//47 48//47
f 46//48 51//48 54//48
f 51//46 47//46 52//46
f 61//49 58//49 62//49
f 63//50 62//50 57//50
f 55//51 60//51 63//51
f 60//49 56//49 61//49
