# Blender 4.1.1
# www.blender.org
mtllib Cube.040_Cube.044.mtl
o Cube.040_Cube.044
v 5.283926 5.924068 17.918789
v 5.267920 5.925504 18.095592
v 3.947772 5.727981 17.972870
v 5.326309 5.703655 17.914680
v 3.972988 5.504019 17.975349
v 4.622757 5.824459 17.854187
v 4.552716 5.839599 18.023556
v 5.297974 5.930177 18.003220
v 3.945870 5.557837 17.974682
v 4.637931 5.597422 18.046864
v 5.311530 5.816880 18.094677
v 4.656649 5.592231 17.864359
v 5.308806 5.815721 17.909088
v 3.901310 5.609758 17.882812
v 4.641158 5.712290 17.838442
v 4.648106 5.588399 17.957140
v 4.615907 5.722501 18.079723
v 4.610325 5.840731 17.955788
v 3.929120 5.723696 17.804609
v 4.929739 5.869292 18.070911
v 4.961082 5.647812 18.090593
v 5.278893 5.871583 18.139977
v 3.972311 5.500316 17.806393
v 4.978328 5.658674 17.898548
v 5.325842 5.706483 18.097374
v 5.312630 5.759446 17.915510
v 4.944485 5.887980 17.892323
v 3.929145 5.724132 17.878477
v 4.274258 5.806886 18.005184
v 3.898635 5.654941 17.968130
v 4.312830 5.549980 18.018440
v 5.296224 5.759872 18.107763
v 4.330488 5.547793 17.842146
v 3.941858 5.664834 17.802557
v 5.310689 5.761209 17.985613
v 4.964166 5.753357 17.897884
v 4.646002 5.665200 17.861137
v 4.630972 5.766313 17.859501
v 4.991022 5.661638 18.017635
v 4.641174 5.606622 17.999794
v 4.649957 5.598279 17.923195
v 4.943402 5.762181 18.095640
v 4.293168 5.677463 18.018471
v 4.612066 5.772183 18.042835
v 4.629144 5.663368 18.035454
v 4.284044 5.798161 17.923103
v 4.618450 5.824642 17.897709
v 4.278425 5.793627 17.958839
v 4.291173 5.782587 17.882101
v 4.937954 5.902371 17.936764
v 4.298406 5.619188 18.051102
v 4.277732 5.760406 18.017292
v 4.935056 5.827601 18.080553
v 4.254258 5.547174 17.917276
v 4.313982 5.564311 17.984819
v 4.267273 5.680988 17.835974
v 4.320674 5.608252 17.847755
v 4.970718 5.700153 17.912552
v 5.284013 5.869020 18.011314
v 3.972911 5.503217 17.941334
v 3.956227 5.625380 17.840897
v 3.885750 5.714474 17.926083
v 4.955995 5.805445 17.901398
v 4.974149 5.651401 17.952160
v 4.948530 5.717627 18.111588
v 4.969343 5.890941 18.004864
vn -0.1752 0.9618 0.2102
vn 0.1328 -0.9835 -0.1231
vn -0.6239 0.1226 -0.7718
vn -0.8989 -0.4380 -0.0115
vn 0.9518 0.2701 -0.1452
vn -0.1147 0.9697 0.2156
vn 0.1273 -0.9542 -0.2708
vn 0.1195 -0.9864 0.1131
vn 0.1623 -0.9811 0.1054
vn 0.1598 -0.9798 -0.1201
vn -0.0239 0.3592 -0.9330
vn 0.0992 0.0561 -0.9935
vn 0.9711 0.2378 0.0209
vn 0.9972 0.0707 0.0258
vn -0.9675 -0.1748 0.1827
vn -0.9916 -0.1295 0.0072
vn -0.7455 0.1569 -0.6478
vn 0.1576 -0.9810 0.1128
vn -0.1258 0.9879 -0.0904
vn 0.0521 -0.1097 -0.9926
vn 0.0876 -0.0968 -0.9914
vn -0.6101 0.3647 0.7034
vn -0.3555 -0.6221 -0.6976
vn 0.8673 0.4971 0.0246
vn 0.1109 -0.4222 -0.8997
vn 0.0823 -0.0778 -0.9936
vn 0.0991 -0.9091 0.4045
vn 0.1291 -0.9915 0.0157
vn 0.1263 -0.9852 0.1156
vn 0.0915 -0.6022 0.7931
vn -0.2293 0.5687 0.7899
vn -0.1085 0.1554 0.9819
vn -0.0842 0.9266 -0.3666
vn -0.1863 0.9779 0.0948
vn -0.0936 0.9549 -0.2816
vn -0.1990 0.9799 0.0174
vn -0.1983 0.9375 -0.2860
vn -0.1267 0.9918 -0.0167
vn -0.0656 0.9960 -0.0611
vn -0.1593 0.9872 -0.0058
vn -0.1442 0.9165 -0.3732
vn -0.1854 0.9266 -0.3273
vn -0.1663 0.9571 0.2373
vn 0.1155 -0.5786 0.8074
vn -0.0550 -0.4355 0.8985
vn -0.2635 0.4532 0.8516
vn -0.0818 0.2068 0.9750
vn -0.1360 0.0272 0.9903
vn -0.1222 -0.0086 0.9925
vn -0.2102 0.5954 0.7754
vn -0.1481 0.2050 0.9675
vn -0.1101 0.5870 0.8021
vn 0.1343 -0.9742 -0.1812
vn 0.1560 -0.9875 0.0205
vn 0.1735 -0.9846 0.0228
vn 0.1602 -0.9798 -0.1199
vn 0.0476 -0.0371 -0.9982
vn 0.1217 -0.9055 0.4066
vn 0.1183 -0.0012 -0.9930
vn -0.0459 0.3120 -0.9490
vn 0.1059 -0.0828 -0.9909
vn 0.1119 0.3362 -0.9351
vn 0.2151 -0.4059 -0.8882
vn 0.9696 0.2099 0.1257
vn 0.9388 -0.1750 0.2966
vn 0.9735 0.2263 0.0342
vn -0.9560 -0.2864 0.0636
vn 0.9607 -0.2382 -0.1426
vn -0.8612 -0.4598 0.2165
vn -0.8930 -0.4498 0.0126
vn 0.8781 0.4659 0.1091
vn 0.0115 -0.1849 0.9827
vn -0.9835 -0.1708 0.0596
vn 0.0190 0.0935 -0.9954
vn 0.9659 -0.2336 0.1118
vn 0.0741 0.3744 -0.9243
vn 0.1347 -0.0897 -0.9868
vn 0.1790 -0.9472 -0.2659
vn 0.2127 -0.9703 -0.1151
vn -0.0302 0.3338 0.9422
vn -0.2689 0.2970 0.9162
vn -0.1553 0.1483 0.9767
vn -0.1185 0.9929 0.0117
vn -0.1073 0.9620 0.2510
vn 0.0533 -0.2593 -0.9643
vn 0.0188 -0.1464 -0.9890
vn 0.0828 -0.0790 -0.9934
vn 0.0851 -0.9811 0.1737
vn 0.1254 -0.9849 0.1191
vn -0.1914 0.1974 0.9615
vn -0.0762 -0.0000 0.9971
vn 0.0975 -0.4081 0.9077
vn -0.1092 0.9539 -0.2795
vn -0.1204 0.9890 -0.0859
vn -0.2142 0.9727 0.0897
vn -0.1956 0.9804 -0.0237
vn -0.1343 0.9836 -0.1200
vn -0.0758 0.9453 -0.3173
vn -0.1910 0.9813 -0.0230
vn -0.1932 0.9383 -0.2869
vn -0.2271 0.4602 0.8583
vn -0.1966 -0.0869 0.9766
vn -0.0924 0.2445 0.9652
vn -0.1526 0.2384 0.9591
vn -0.1297 0.0039 0.9916
vn -0.1060 0.2112 0.9717
vn -0.1354 0.1604 0.9777
vn -0.1481 0.2042 0.9677
vn 0.1661 -0.9092 -0.3819
vn 0.1712 -0.9084 -0.3813
vn 0.1750 -0.9685 -0.1772
vn 0.0539 0.1009 -0.9934
vn 0.0849 0.1057 -0.9908
vn 0.0430 0.0253 -0.9988
vn 0.1113 -0.0276 -0.9934
vn 0.1771 -0.2413 -0.9542
vn 0.9694 0.2114 0.1249
vn -0.9774 -0.2115 0.0016
vn 0.9646 0.2638 -0.0016
vn 0.0446 -0.2803 0.9589
vn 0.0197 0.0704 -0.9973
vn 0.1688 0.0925 -0.9813
vn 0.1359 -0.0711 -0.9882
vn 0.1902 -0.9763 0.1036
vn 0.1503 -0.9816 0.1180
vn -0.0319 0.2317 0.9723
vn 0.0329 -0.5942 0.8036
vn -0.1699 -0.3117 0.9349
s 0
usemtl Fence2
f 20//1 2//1 66//1
f 24//2 4//2 64//2
f 14//3 28//3 61//3
f 60//4 9//4 30//4
f 59//5 11//5 35//5
f 66//6 8//6 50//6
f 54//7 41//7 16//7
f 23//8 33//8 54//8
f 60//9 54//9 55//9
f 39//10 25//10 21//10
f 56//11 38//11 15//11
f 34//12 19//12 56//12
f 35//13 4//13 26//13
f 13//14 35//14 26//14
f 23//15 61//15 34//15
f 60//16 61//16 23//16
f 14//17 62//17 28//17
f 64//18 4//18 39//18
f 7//19 66//19 18//19
f 26//20 36//20 13//20
f 63//21 27//21 1//21
f 30//22 3//22 62//22
f 60//23 14//23 61//23
f 59//24 22//24 11//24
f 57//25 15//25 37//25
f 6//26 56//26 19//26
f 55//27 16//27 40//27
f 39//28 4//28 25//28
f 41//29 33//29 12//29
f 22//30 42//30 11//30
f 44//31 43//31 17//31
f 45//32 31//32 10//32
f 18//33 49//33 46//33
f 7//34 46//34 48//34
f 48//35 29//35 7//35
f 48//36 28//36 62//36
f 48//37 3//37 29//37
f 6//38 49//38 47//38
f 1//39 50//39 8//39
f 19//40 28//40 49//40
f 28//41 46//41 49//41
f 27//42 47//42 50//42
f 50//43 18//43 66//43
f 17//44 51//44 45//44
f 51//45 5//45 31//45
f 9//46 51//46 43//46
f 7//47 52//47 44//47
f 52//48 3//48 30//48
f 52//49 9//49 43//49
f 2//50 53//50 22//50
f 20//51 44//51 53//51
f 42//52 44//52 17//52
f 10//53 55//53 40//53
f 60//54 23//54 54//54
f 55//55 5//55 60//55
f 21//56 40//56 39//56
f 12//57 57//57 37//57
f 40//58 16//58 39//58
f 57//59 23//59 34//59
f 26//60 24//60 58//60
f 34//61 56//61 57//61
f 24//62 37//62 58//62
f 36//63 37//63 15//63
f 13//64 59//64 35//64
f 8//65 2//65 59//65
f 2//66 22//66 59//66
f 28//67 34//67 61//67
f 1//68 8//68 59//68
f 60//69 30//69 14//69
f 60//70 5//70 9//70
f 25//71 35//71 32//71
f 32//72 21//72 25//72
f 14//73 30//73 62//73
f 13//74 63//74 1//74
f 11//75 32//75 35//75
f 63//76 15//76 38//76
f 63//77 6//77 27//77
f 64//78 16//78 41//78
f 64//79 12//79 24//79
f 32//80 42//80 65//80
f 42//81 45//81 65//81
f 21//82 45//82 10//82
f 66//83 2//83 8//83
f 7//84 20//84 66//84
f 26//85 58//85 36//85
f 57//86 56//86 15//86
f 6//87 38//87 56//87
f 55//88 54//88 16//88
f 41//89 54//89 33//89
f 22//90 53//90 42//90
f 44//91 52//91 43//91
f 45//92 51//92 31//92
f 18//93 47//93 49//93
f 7//94 18//94 46//94
f 48//95 46//95 28//95
f 48//96 62//96 3//96
f 6//97 19//97 49//97
f 1//98 27//98 50//98
f 27//99 6//99 47//99
f 50//100 47//100 18//100
f 17//101 43//101 51//101
f 51//102 9//102 5//102
f 7//103 29//103 52//103
f 52//104 29//104 3//104
f 52//105 30//105 9//105
f 2//106 20//106 53//106
f 20//107 7//107 44//107
f 42//108 53//108 44//108
f 10//109 31//109 55//109
f 55//110 31//110 5//110
f 21//111 10//111 40//111
f 12//112 33//112 57//112
f 57//113 33//113 23//113
f 26//114 4//114 24//114
f 24//115 12//115 37//115
f 36//116 58//116 37//116
f 13//117 1//117 59//117
f 28//118 19//118 34//118
f 25//119 4//119 35//119
f 32//120 65//120 21//120
f 13//121 36//121 63//121
f 63//122 36//122 15//122
f 63//123 38//123 6//123
f 64//124 39//124 16//124
f 64//125 41//125 12//125
f 32//126 11//126 42//126
f 42//127 17//127 45//127
f 21//128 65//128 45//128
