# Blender 4.1.1
# www.blender.org
mtllib Cube.040_Cube.044.mtl
o Cube.040_Cube.044
v 1.782107 3.062268 -1.255071
v 1.776242 3.127050 -1.255597
v 1.292537 3.082084 -1.183224
v 1.797636 3.060763 -1.174311
v 1.301776 3.082992 -1.101164
v 1.539853 3.038598 -1.218574
v 1.514190 3.100655 -1.224121
v 1.787254 3.093204 -1.257309
v 1.291840 3.082748 -1.120883
v 1.545413 3.109195 -1.135387
v 1.792221 3.126714 -1.215797
v 1.552271 3.042325 -1.133485
v 1.791223 3.058714 -1.215372
v 1.275513 3.049087 -1.139907
v 1.546595 3.032829 -1.177475
v 1.549141 3.076320 -1.132081
v 1.537343 3.121235 -1.181216
v 1.535298 3.075825 -1.224536
v 1.285703 3.020433 -1.181654
v 1.652332 3.118007 -1.235001
v 1.663816 3.125218 -1.153850
v 1.780263 3.143312 -1.235840
v 1.301528 3.021086 -1.099807
v 1.670135 3.054852 -1.157830
v 1.797465 3.127703 -1.175347
v 1.792624 3.061067 -1.194753
v 1.657735 3.052571 -1.241848
v 1.285712 3.047498 -1.181814
v 1.412162 3.093924 -1.212135
v 1.274533 3.080347 -1.156462
v 1.426295 3.098781 -1.118004
v 1.786613 3.131509 -1.194909
v 1.432765 3.034186 -1.117203
v 1.290370 3.019681 -1.160087
v 1.791913 3.086753 -1.195399
v 1.664946 3.054609 -1.192522
v 1.548370 3.041145 -1.160221
v 1.542863 3.040545 -1.197269
v 1.674786 3.098486 -1.158916
v 1.546601 3.091949 -1.138758
v 1.549819 3.063883 -1.135701
v 1.657338 3.127067 -1.195755
v 1.419091 3.098792 -1.164714
v 1.535936 3.107719 -1.199420
v 1.542193 3.105015 -1.159550
v 1.415748 3.063849 -1.208938
v 1.538275 3.054545 -1.218641
v 1.413689 3.076943 -1.207277
v 1.418360 3.048826 -1.203232
v 1.655342 3.068855 -1.247121
v 1.421010 3.110748 -1.143362
v 1.413435 3.098360 -1.195105
v 1.654280 3.121539 -1.219725
v 1.404834 3.061714 -1.116976
v 1.426717 3.086462 -1.123255
v 1.409603 3.031925 -1.166006
v 1.429169 3.036242 -1.139355
v 1.667347 3.059983 -1.173028
v 1.782139 3.096170 -1.234901
v 1.301748 3.070529 -1.100870
v 1.295635 3.033729 -1.145631
v 1.269812 3.064941 -1.178275
v 1.661952 3.055896 -1.211607
v 1.668604 3.074496 -1.155165
v 1.659217 3.132910 -1.179430
v 1.666843 3.093806 -1.242933
vn -0.1752 0.2102 -0.9618
vn 0.1328 -0.1231 0.9835
vn -0.6239 -0.7718 -0.1226
vn -0.8989 -0.0115 0.4380
vn 0.9518 -0.1452 -0.2701
vn -0.1147 0.2156 -0.9697
vn 0.1273 -0.2708 0.9542
vn 0.1195 0.1131 0.9864
vn 0.1623 0.1054 0.9811
vn 0.1598 -0.1201 0.9798
vn -0.0239 -0.9330 -0.3592
vn 0.0992 -0.9935 -0.0561
vn 0.9711 0.0209 -0.2378
vn 0.9972 0.0258 -0.0707
vn -0.9675 0.1827 0.1748
vn -0.9916 0.0072 0.1295
vn -0.7455 -0.6478 -0.1569
vn 0.1576 0.1128 0.9810
vn -0.1258 -0.0904 -0.9879
vn 0.0521 -0.9926 0.1097
vn 0.0876 -0.9914 0.0968
vn -0.6100 0.7034 -0.3648
vn -0.3555 -0.6976 0.6221
vn 0.8673 0.0246 -0.4971
vn 0.1109 -0.8997 0.4222
vn 0.0823 -0.9936 0.0779
vn 0.0991 0.4045 0.9092
vn 0.1291 0.0157 0.9915
vn 0.1264 0.1156 0.9852
vn 0.0915 0.7931 0.6022
vn -0.2293 0.7899 -0.5688
vn -0.1085 0.9819 -0.1554
vn -0.0842 -0.3666 -0.9266
vn -0.1863 0.0948 -0.9779
vn -0.0936 -0.2816 -0.9550
vn -0.1990 0.0174 -0.9799
vn -0.1983 -0.2860 -0.9375
vn -0.1266 -0.0167 -0.9918
vn -0.0656 -0.0611 -0.9960
vn -0.1593 -0.0058 -0.9872
vn -0.1442 -0.3732 -0.9165
vn -0.1854 -0.3273 -0.9266
vn -0.1663 0.2373 -0.9571
vn 0.1155 0.8074 0.5786
vn -0.0550 0.8985 0.4355
vn -0.2635 0.8516 -0.4532
vn -0.0818 0.9750 -0.2068
vn -0.1360 0.9903 -0.0272
vn -0.1222 0.9925 0.0086
vn -0.2102 0.7754 -0.5955
vn -0.1481 0.9675 -0.2048
vn -0.1101 0.8021 -0.5870
vn 0.1343 -0.1812 0.9742
vn 0.1560 0.0205 0.9875
vn 0.1734 0.0229 0.9846
vn 0.1602 -0.1199 0.9798
vn 0.0476 -0.9982 0.0371
vn 0.1217 0.4066 0.9055
vn 0.1183 -0.9930 0.0012
vn -0.0459 -0.9490 -0.3120
vn 0.1059 -0.9909 0.0828
vn 0.1119 -0.9351 -0.3362
vn 0.2151 -0.8882 0.4060
vn 0.9696 0.1257 -0.2099
vn 0.9388 0.2966 0.1750
vn 0.9735 0.0342 -0.2263
vn -0.9560 0.0636 0.2864
vn 0.9607 -0.1426 0.2382
vn -0.8612 0.2165 0.4598
vn -0.8930 0.0126 0.4498
vn 0.8781 0.1091 -0.4659
vn 0.0115 0.9827 0.1848
vn -0.9835 0.0596 0.1708
vn 0.0190 -0.9954 -0.0935
vn 0.9659 0.1118 0.2336
vn 0.0741 -0.9243 -0.3743
vn 0.1347 -0.9868 0.0897
vn 0.1790 -0.2659 0.9472
vn 0.2127 -0.1151 0.9703
vn -0.0302 0.9422 -0.3337
vn -0.2689 0.9163 -0.2970
vn -0.1553 0.9767 -0.1483
vn -0.1185 0.0117 -0.9929
vn -0.1073 0.2510 -0.9620
vn 0.0533 -0.9643 0.2593
vn 0.0188 -0.9890 0.1464
vn 0.0828 -0.9934 0.0791
vn 0.0851 0.1737 0.9811
vn 0.1254 0.1191 0.9849
vn -0.1914 0.9615 -0.1973
vn -0.0762 0.9971 -0.0000
vn 0.0974 0.9077 0.4081
vn -0.1092 -0.2795 -0.9539
vn -0.1204 -0.0858 -0.9890
vn -0.2142 0.0897 -0.9727
vn -0.1957 -0.0237 -0.9804
vn -0.1343 -0.1200 -0.9836
vn -0.0758 -0.3172 -0.9453
vn -0.1910 -0.0230 -0.9813
vn -0.1932 -0.2869 -0.9383
vn -0.2271 0.8583 -0.4602
vn -0.1966 0.9766 0.0870
vn -0.0924 0.9652 -0.2445
vn -0.1525 0.9591 -0.2384
vn -0.1297 0.9916 -0.0038
vn -0.1060 0.9717 -0.2112
vn -0.1354 0.9777 -0.1604
vn -0.1481 0.9677 -0.2043
vn 0.1661 -0.3819 0.9092
vn 0.1712 -0.3814 0.9084
vn 0.1750 -0.1772 0.9685
vn 0.0539 -0.9934 -0.1010
vn 0.0849 -0.9908 -0.1057
vn 0.0430 -0.9988 -0.0254
vn 0.1113 -0.9934 0.0276
vn 0.1770 -0.9542 0.2412
vn 0.9694 0.1249 -0.2114
vn -0.9774 0.0016 0.2116
vn 0.9646 -0.0016 -0.2638
vn 0.0446 0.9589 0.2803
vn 0.0197 -0.9973 -0.0703
vn 0.1688 -0.9813 -0.0927
vn 0.1359 -0.9882 0.0711
vn 0.1902 0.1036 0.9763
vn 0.1503 0.1180 0.9816
vn -0.0319 0.9723 -0.2318
vn 0.0329 0.8036 0.5942
vn -0.1699 0.9349 0.3117
s 0
usemtl Fence2
f 20//1 2//1 66//1
f 24//2 4//2 64//2
f 14//3 28//3 61//3
f 60//4 9//4 30//4
f 59//5 11//5 35//5
f 66//6 8//6 50//6
f 54//7 41//7 16//7
f 23//8 33//8 54//8
f 60//9 54//9 55//9
f 39//10 25//10 21//10
f 56//11 38//11 15//11
f 34//12 19//12 56//12
f 35//13 4//13 26//13
f 13//14 35//14 26//14
f 23//15 61//15 34//15
f 60//16 61//16 23//16
f 14//17 62//17 28//17
f 64//18 4//18 39//18
f 7//19 66//19 18//19
f 26//20 36//20 13//20
f 63//21 27//21 1//21
f 30//22 3//22 62//22
f 60//23 14//23 61//23
f 59//24 22//24 11//24
f 57//25 15//25 37//25
f 6//26 56//26 19//26
f 55//27 16//27 40//27
f 39//28 4//28 25//28
f 41//29 33//29 12//29
f 22//30 42//30 11//30
f 44//31 43//31 17//31
f 45//32 31//32 10//32
f 18//33 49//33 46//33
f 7//34 46//34 48//34
f 48//35 29//35 7//35
f 48//36 28//36 62//36
f 48//37 3//37 29//37
f 6//38 49//38 47//38
f 1//39 50//39 8//39
f 19//40 28//40 49//40
f 28//41 46//41 49//41
f 27//42 47//42 50//42
f 50//43 18//43 66//43
f 17//44 51//44 45//44
f 51//45 5//45 31//45
f 9//46 51//46 43//46
f 7//47 52//47 44//47
f 52//48 3//48 30//48
f 52//49 9//49 43//49
f 2//50 53//50 22//50
f 20//51 44//51 53//51
f 42//52 44//52 17//52
f 10//53 55//53 40//53
f 60//54 23//54 54//54
f 55//55 5//55 60//55
f 21//56 40//56 39//56
f 12//57 57//57 37//57
f 40//58 16//58 39//58
f 57//59 23//59 34//59
f 26//60 24//60 58//60
f 34//61 56//61 57//61
f 24//62 37//62 58//62
f 36//63 37//63 15//63
f 13//64 59//64 35//64
f 8//65 2//65 59//65
f 2//66 22//66 59//66
f 28//67 34//67 61//67
f 1//68 8//68 59//68
f 60//69 30//69 14//69
f 60//70 5//70 9//70
f 25//71 35//71 32//71
f 32//72 21//72 25//72
f 14//73 30//73 62//73
f 13//74 63//74 1//74
f 11//75 32//75 35//75
f 63//76 15//76 38//76
f 63//77 6//77 27//77
f 64//78 16//78 41//78
f 64//79 12//79 24//79
f 32//80 42//80 65//80
f 42//81 45//81 65//81
f 21//82 45//82 10//82
f 66//83 2//83 8//83
f 7//84 20//84 66//84
f 26//85 58//85 36//85
f 57//86 56//86 15//86
f 6//87 38//87 56//87
f 55//88 54//88 16//88
f 41//89 54//89 33//89
f 22//90 53//90 42//90
f 44//91 52//91 43//91
f 45//92 51//92 31//92
f 18//93 47//93 49//93
f 7//94 18//94 46//94
f 48//95 46//95 28//95
f 48//96 62//96 3//96
f 6//97 19//97 49//97
f 1//98 27//98 50//98
f 27//99 6//99 47//99
f 50//100 47//100 18//100
f 17//101 43//101 51//101
f 51//102 9//102 5//102
f 7//103 29//103 52//103
f 52//104 29//104 3//104
f 52//105 30//105 9//105
f 2//106 20//106 53//106
f 20//107 7//107 44//107
f 42//108 53//108 44//108
f 10//109 31//109 55//109
f 55//110 31//110 5//110
f 21//111 10//111 40//111
f 12//112 33//112 57//112
f 57//113 33//113 23//113
f 26//114 4//114 24//114
f 24//115 12//115 37//115
f 36//116 58//116 37//116
f 13//117 1//117 59//117
f 28//118 19//118 34//118
f 25//119 4//119 35//119
f 32//120 65//120 21//120
f 13//121 36//121 63//121
f 63//122 36//122 15//122
f 63//123 38//123 6//123
f 64//124 39//124 16//124
f 64//125 41//125 12//125
f 32//126 11//126 42//126
f 42//127 17//127 45//127
f 21//128 65//128 45//128
