# Blender 4.1.1
# www.blender.org
mtllib Plane.025_Plane.016.mtl
o Plane.025_Plane.016
v -7.635070 5.309296 7.766423
v -7.773508 4.788314 7.817502
v -7.644876 5.298089 7.625537
v -7.783314 4.777107 7.676613
v -7.620943 5.375302 7.688959
v -7.744171 5.031216 7.796137
v -7.778409 4.782711 7.747057
v -7.753978 5.020010 7.655251
v -7.752171 5.094471 7.720430
v -7.535813 5.111859 7.415675
v -7.613247 4.578217 7.464923
v -7.396020 5.092754 7.428478
v -7.473455 4.559112 7.477726
v -7.455273 5.175655 7.415309
v -7.575848 4.814424 7.409019
v -7.543351 4.568664 7.471323
v -7.436056 4.795319 7.421822
v -7.494931 4.867750 7.388891
v -7.075270 5.172482 7.706940
v -7.103144 4.640119 7.801864
v -7.108963 5.198344 7.842092
v -7.136836 4.665981 7.937018
v -7.088285 5.258584 7.761470
v -7.057581 4.878995 7.767510
v -7.119991 4.653050 7.869440
v -7.091277 4.904858 7.902665
v -7.050955 4.956623 7.828558
v -7.853963 5.471915 8.275012
v -7.976418 4.946305 8.319027
v -7.956866 5.503599 8.367088
v -8.079322 4.977991 8.411103
v -7.888586 5.559999 8.315001
v -7.899303 5.179406 8.324998
v -8.027870 4.962148 8.365067
v -8.002207 5.211090 8.417071
v -7.922404 5.257454 8.381316
v -7.183099 5.207672 7.750094
v -7.264043 4.677706 7.826129
v -7.288153 5.210085 7.655073
v -7.369094 4.680119 7.731108
v -7.224499 5.281719 7.692134
v -7.249966 4.922721 7.816784
v -7.316570 4.678912 7.778619
v -7.355017 4.925133 7.721763
v -7.306172 4.992715 7.775086
v -7.467188 5.376690 8.277711
v -7.590307 4.859037 8.378085
v -7.430532 5.342287 8.145258
v -7.553651 4.824637 8.245632
v -7.431938 5.430638 8.197690
v -7.566983 5.097166 8.322692
v -7.571978 4.841838 8.311857
v -7.530327 5.062767 8.190239
v -7.553092 5.146432 8.237976
v -7.901634 5.330086 7.392359
v -8.024754 4.812434 7.492733
v -7.979877 5.370234 7.503434
v -8.102995 4.852582 7.603808
v -7.923834 5.421311 7.434100
v -7.942128 5.042373 7.467826
v -8.063874 4.832508 7.548270
v -8.020370 5.082517 7.578900
v -7.949647 5.123931 7.523401
vn 0.9950 -0.0784 0.0620
vn 0.9019 -0.4044 0.1520
vn 0.8767 -0.4331 -0.2092
vn 0.9778 -0.0981 -0.1853
vn -0.1730 0.2876 0.9420
vn -0.2783 -0.0465 0.9594
vn 0.0801 -0.0954 0.9922
vn 0.0725 0.2541 0.9645
vn -0.9092 0.1547 -0.3866
vn -0.9047 -0.1959 -0.3784
vn -0.9911 -0.1296 -0.0319
vn -0.9683 0.2001 -0.1494
vn -0.5047 0.2261 -0.8332
vn -0.5355 -0.1233 -0.8355
vn -0.7993 -0.0420 -0.5994
vn -0.6853 0.2817 -0.6715
vn 0.7571 -0.0324 -0.6524
vn 0.7420 -0.3701 -0.5590
vn 0.4727 -0.3639 -0.8026
vn 0.5727 -0.0282 -0.8193
vn 0.9244 0.0348 0.3798
vn 0.8225 -0.2805 0.4947
vn 0.9165 -0.3687 0.1552
vn 0.9888 -0.0256 0.1473
vn -0.6756 0.2044 -0.7084
vn -0.7154 -0.1432 -0.6838
vn -0.9160 -0.0403 -0.3991
vn -0.8130 0.2748 -0.5133
vn 0.9904 -0.1248 -0.0590
vn 0.8893 -0.3133 0.3333
vn 0.8383 -0.3715 -0.3990
vn -0.0562 0.2384 0.9695
vn -0.4493 0.0405 0.8924
vn 0.2773 -0.0588 0.9590
vn -0.0562 0.2384 0.9696
vn -0.9534 0.1437 -0.2652
vn -0.8138 -0.1641 -0.5574
vn -0.9890 -0.0297 0.1451
vn -0.6114 0.2217 -0.7596
vn -0.3560 -0.1035 -0.9287
vn -0.8909 0.0612 -0.4502
vn 0.6685 -0.0667 -0.7407
vn 0.8614 -0.2983 -0.4110
vn 0.3154 -0.2858 -0.9049
vn 0.9613 -0.0304 0.2739
vn 0.7480 -0.1635 0.6433
vn 0.9385 -0.3423 -0.0452
vn 0.9613 -0.0304 0.2740
vn -0.7628 0.2078 -0.6124
vn -0.5615 -0.1351 -0.8164
vn -0.9682 0.0736 -0.2390
s 0
usemtl Material.001
f 7//1 8//1 9//1
f 9//2 3//2 5//2
f 1//3 9//3 5//3
f 6//4 7//4 9//4
f 16//5 17//5 18//5
f 18//6 12//6 14//6
f 10//7 18//7 14//7
f 15//8 16//8 18//8
f 25//9 26//9 27//9
f 27//10 21//10 23//10
f 19//11 27//11 23//11
f 24//12 25//12 27//12
f 34//13 35//13 36//13
f 36//14 30//14 32//14
f 28//15 36//15 32//15
f 33//16 34//16 36//16
f 43//17 44//17 45//17
f 45//18 39//18 41//18
f 37//19 45//19 41//19
f 42//20 43//20 45//20
f 52//21 53//21 54//21
f 54//22 48//22 50//22
f 46//23 54//23 50//23
f 51//24 52//24 54//24
f 61//25 62//25 63//25
f 63//26 57//26 59//26
f 55//27 63//27 59//27
f 60//28 61//28 63//28
f 7//29 4//29 8//29
f 9//30 8//30 3//30
f 1//31 6//31 9//31
f 6//29 2//29 7//29
f 16//32 13//32 17//32
f 18//33 17//33 12//33
f 10//34 15//34 18//34
f 15//35 11//35 16//35
f 25//36 22//36 26//36
f 27//37 26//37 21//37
f 19//38 24//38 27//38
f 24//36 20//36 25//36
f 34//39 31//39 35//39
f 36//40 35//40 30//40
f 28//41 33//41 36//41
f 33//39 29//39 34//39
f 43//42 40//42 44//42
f 45//43 44//43 39//43
f 37//44 42//44 45//44
f 42//42 38//42 43//42
f 52//45 49//45 53//45
f 54//46 53//46 48//46
f 46//47 51//47 54//47
f 51//48 47//48 52//48
f 61//49 58//49 62//49
f 63//50 62//50 57//50
f 55//51 60//51 63//51
f 60//49 56//49 61//49
