# Blender 4.1.1
# www.blender.org
mtllib Cube.025_Cube.028.mtl
o Cube.025_Cube.028
v 8.828887 4.329845 11.833170
v 8.785348 4.328281 11.661064
v 8.782968 5.668734 11.654430
v 9.048545 4.321125 11.787682
v 9.001708 5.676796 11.600687
v 8.829054 5.001590 11.832730
v 8.765029 5.051901 11.667835
v 8.806492 4.306944 11.753561
v 8.945659 5.695595 11.612406
v 9.006585 5.001590 11.593184
v 8.897130 4.301510 11.638936
v 9.055458 5.001590 11.770094
v 8.939253 4.322320 11.818503
v 8.908909 5.740663 11.711095
v 8.943360 5.001590 11.822632
v 9.036989 5.001590 11.678689
v 8.875454 5.001590 11.589508
v 8.788662 5.001590 11.737280
v 8.821576 5.704004 11.815499
v 8.788618 4.671841 11.651487
v 9.002151 4.671841 11.582011
v 8.829043 4.321157 11.605950
v 9.042901 5.694359 11.763643
v 9.037492 4.671841 11.771873
v 9.004937 4.303489 11.611122
v 8.992503 4.326256 11.799221
v 8.813023 4.671841 11.829998
v 8.804654 5.696772 11.743960
v 8.754253 5.332592 11.661260
v 8.846008 5.728356 11.638849
v 9.004446 5.331337 11.590087
v 8.946414 4.323740 11.611873
v 9.048870 5.331337 11.761620
v 8.880683 5.700374 11.804361
v 8.974825 4.321122 11.731528
v 8.944348 4.671841 11.794014
v 8.984326 5.001590 11.789797
v 8.885080 5.001590 11.814346
v 9.010150 4.647384 11.657830
v 9.008804 5.001590 11.641200
v 9.035390 5.001590 11.714052
v 8.888238 4.671841 11.603048
v 8.878732 5.331833 11.618962
v 8.835337 5.001590 11.636782
v 8.944337 5.001590 11.619284
v 8.782599 5.332191 11.739398
v 8.818440 5.001590 11.790301
v 8.778031 5.334934 11.703331
v 8.807899 5.331444 11.775918
v 8.788184 4.671841 11.789895
v 8.928281 5.332139 11.573875
v 8.796764 5.334874 11.638758
v 8.827390 4.671841 11.632617
v 9.020003 5.399191 11.684035
v 8.998384 5.331337 11.626145
v 8.911810 5.374456 11.795249
v 8.987918 5.331514 11.769856
v 8.993259 4.671841 11.767624
v 8.861103 4.328947 11.730444
v 9.010065 5.680281 11.633484
v 8.912399 5.688354 11.758723
v 8.796082 5.736304 11.692907
v 8.892176 4.671841 11.802408
v 9.031804 4.671841 11.717906
v 8.928322 4.671841 11.577374
v 8.789169 4.636049 11.723032
vn -0.9999 0.0099 0.0126
vn 0.9941 0.0266 -0.1048
vn -0.0490 0.6707 0.7401
vn 0.2738 0.9507 -0.1459
vn -0.0687 -0.9627 0.2616
vn -0.9986 -0.0514 0.0128
vn 0.9981 0.0420 0.0451
vn 0.9420 0.0174 -0.3353
vn 0.9457 -0.0248 -0.3240
vn 0.9945 -0.0008 -0.1052
vn -0.1405 0.0607 0.9882
vn 0.1846 -0.0098 0.9828
vn -0.0716 -0.9930 0.0940
vn 0.0921 -0.9944 0.0514
vn -0.0338 0.9604 -0.2764
vn -0.0421 0.9944 -0.0969
vn -0.1299 0.7733 0.6206
vn 0.9432 -0.0209 -0.3315
vn -0.9495 -0.0135 0.3133
vn 0.3359 0.0610 0.9399
vn 0.3291 0.0240 0.9440
vn -0.6089 0.4785 -0.6327
vn 0.6942 0.5094 0.5085
vn -0.3387 -0.9296 0.1454
vn 0.6249 0.0403 0.7797
vn 0.3105 0.0266 0.9502
vn 0.7993 -0.0022 -0.6009
vn 0.9702 0.0181 -0.2414
vn 0.9414 0.0101 -0.3371
vn 0.4164 -0.0778 -0.9058
vn -0.7609 0.0651 -0.6456
vn -0.3866 -0.0112 -0.9222
vn -0.8221 -0.0187 0.5691
vn -0.9914 0.0295 0.1278
vn -0.8699 -0.0218 0.4928
vn -0.9781 0.0492 0.2023
vn -0.8695 0.0842 0.4868
vn -0.9699 -0.0204 0.2426
vn -0.9538 -0.0768 0.2904
vn -0.9733 0.0114 0.2291
vn -0.8209 0.0425 0.5695
vn -0.8476 0.0771 0.5250
vn -0.9999 -0.0008 -0.0143
vn 0.3945 -0.1062 -0.9127
vn 0.2084 0.0316 -0.9775
vn -0.6693 0.1099 -0.7348
vn -0.4301 -0.0444 -0.9017
vn -0.2700 0.0340 -0.9623
vn -0.2338 0.0255 -0.9720
vn -0.7801 0.0438 -0.6241
vn -0.4375 0.0219 -0.8989
vn -0.7613 -0.0560 -0.6460
vn 0.9985 0.0294 -0.0461
vn 0.9698 -0.0095 -0.2436
vn 0.9694 -0.0273 -0.2441
vn 0.9944 -0.0012 -0.1053
vn 0.2665 0.0553 0.9622
vn 0.7991 -0.0252 -0.6007
vn 0.2427 -0.0202 0.9699
vn -0.0952 0.0909 0.9913
vn 0.3185 0.0039 0.9479
vn -0.0954 -0.0694 0.9930
vn 0.6241 -0.0657 0.7786
vn -0.0685 -0.9975 -0.0143
vn 0.2580 -0.9268 -0.2728
vn -0.0632 -0.9949 0.0785
vn 0.1019 0.9771 -0.1865
vn 0.4203 -0.8966 0.1397
vn 0.2501 0.8947 -0.3701
vn 0.2808 0.9443 -0.1719
vn -0.3258 -0.9437 0.0567
vn -0.0401 -0.0790 -0.9961
vn -0.0128 0.9875 -0.1570
vn 0.1357 0.0638 0.9887
vn 0.3600 -0.9269 -0.1058
vn -0.1406 -0.0388 0.9893
vn 0.3290 -0.0238 0.9440
vn 0.9989 -0.0103 0.0452
vn 0.9930 -0.0547 -0.1046
vn -0.5360 -0.1108 -0.8369
vn -0.5346 0.1321 -0.8347
vn -0.3864 0.0364 -0.9216
vn -0.9759 -0.0313 0.2159
vn -0.9979 -0.0610 -0.0228
vn 0.4734 0.0792 0.8773
vn 0.3647 0.0989 0.9259
vn 0.3117 0.0263 0.9498
vn 0.9177 0.0445 -0.3949
vn 0.9402 0.0107 -0.3405
vn -0.4361 0.0662 -0.8975
vn -0.2355 -0.0215 -0.9716
vn 0.2053 -0.1234 -0.9709
vn -0.8719 -0.0065 0.4897
vn -0.9507 -0.0194 0.3095
vn -0.9898 0.0583 0.1298
vn -0.9688 0.0499 0.2426
vn -0.9402 -0.0017 0.3405
vn -0.8496 -0.0345 0.5262
vn -0.9691 0.0451 0.2424
vn -0.8692 0.0792 0.4881
vn -0.6715 0.0724 -0.7375
vn -0.1673 0.1118 -0.9795
vn -0.4659 -0.0386 -0.8840
vn -0.4686 0.0221 -0.8831
vn -0.2468 0.0311 -0.9686
vn -0.4375 -0.0209 -0.8990
vn -0.3950 0.0150 -0.9186
vn -0.4370 0.0219 -0.8992
vn 0.9861 0.0080 0.1658
vn 0.9862 0.0027 0.1658
vn 0.9989 -0.0119 -0.0462
vn 0.1340 0.0281 0.9906
vn 0.1339 -0.0033 0.9910
vn 0.2059 0.0505 0.9773
vn 0.2669 -0.0093 0.9637
vn 0.4743 -0.0463 0.8791
vn -0.0698 -0.9975 -0.0132
vn 0.0403 0.9931 -0.1099
vn -0.0926 -0.9883 0.1216
vn 0.0624 -0.0952 -0.9935
vn 0.1585 0.0667 0.9851
vn 0.1583 -0.0849 0.9837
vn 0.3116 -0.0277 0.9498
vn 0.9461 -0.0529 -0.3195
vn 0.9414 -0.0142 -0.3371
vn -0.4451 -0.0970 -0.8902
vn 0.3967 -0.0223 -0.9177
vn 0.0622 0.1229 -0.9905
s 0
usemtl Fence
f 20//1 2//1 66//1
f 24//2 4//2 64//2
f 14//3 28//3 61//3
f 60//4 9//4 30//4
f 59//5 11//5 35//5
f 66//6 8//6 50//6
f 54//7 41//7 16//7
f 23//8 33//8 54//8
f 60//9 54//9 55//9
f 39//10 25//10 21//10
f 56//11 38//11 15//11
f 34//12 19//12 56//12
f 35//13 4//13 26//13
f 13//14 35//14 26//14
f 23//15 61//15 34//15
f 60//16 61//16 23//16
f 14//17 62//17 28//17
f 64//18 4//18 39//18
f 7//19 66//19 18//19
f 26//20 36//20 13//20
f 63//21 27//21 1//21
f 30//22 3//22 62//22
f 60//23 14//23 61//23
f 59//24 22//24 11//24
f 57//25 15//25 37//25
f 6//26 56//26 19//26
f 55//27 16//27 40//27
f 39//28 4//28 25//28
f 41//29 33//29 12//29
f 22//30 42//30 11//30
f 44//31 43//31 17//31
f 45//32 31//32 10//32
f 18//33 49//33 46//33
f 7//34 46//34 48//34
f 48//35 29//35 7//35
f 48//36 28//36 62//36
f 48//37 3//37 29//37
f 6//38 49//38 47//38
f 1//39 50//39 8//39
f 19//40 28//40 49//40
f 28//41 46//41 49//41
f 27//42 47//42 50//42
f 50//43 18//43 66//43
f 17//44 51//44 45//44
f 51//45 5//45 31//45
f 9//46 51//46 43//46
f 7//47 52//47 44//47
f 52//48 3//48 30//48
f 52//49 9//49 43//49
f 2//50 53//50 22//50
f 20//51 44//51 53//51
f 42//52 44//52 17//52
f 10//53 55//53 40//53
f 60//54 23//54 54//54
f 55//55 5//55 60//55
f 21//56 40//56 39//56
f 12//57 57//57 37//57
f 40//58 16//58 39//58
f 57//59 23//59 34//59
f 26//60 24//60 58//60
f 34//61 56//61 57//61
f 24//62 37//62 58//62
f 36//63 37//63 15//63
f 13//64 59//64 35//64
f 8//65 2//65 59//65
f 2//66 22//66 59//66
f 28//67 34//67 61//67
f 1//68 8//68 59//68
f 60//69 30//69 14//69
f 60//70 5//70 9//70
f 25//71 35//71 32//71
f 32//72 21//72 25//72
f 14//73 30//73 62//73
f 13//74 63//74 1//74
f 11//75 32//75 35//75
f 63//76 15//76 38//76
f 63//77 6//77 27//77
f 64//78 16//78 41//78
f 64//79 12//79 24//79
f 32//80 42//80 65//80
f 42//81 45//81 65//81
f 21//82 45//82 10//82
f 66//83 2//83 8//83
f 7//84 20//84 66//84
f 26//85 58//85 36//85
f 57//86 56//86 15//86
f 6//87 38//87 56//87
f 55//88 54//88 16//88
f 41//89 54//89 33//89
f 22//90 53//90 42//90
f 44//91 52//91 43//91
f 45//92 51//92 31//92
f 18//93 47//93 49//93
f 7//94 18//94 46//94
f 48//95 46//95 28//95
f 48//96 62//96 3//96
f 6//97 19//97 49//97
f 1//98 27//98 50//98
f 27//99 6//99 47//99
f 50//100 47//100 18//100
f 17//101 43//101 51//101
f 51//102 9//102 5//102
f 7//103 29//103 52//103
f 52//104 29//104 3//104
f 52//105 30//105 9//105
f 2//106 20//106 53//106
f 20//107 7//107 44//107
f 42//108 53//108 44//108
f 10//109 31//109 55//109
f 55//110 31//110 5//110
f 21//111 10//111 40//111
f 12//112 33//112 57//112
f 57//113 33//113 23//113
f 26//114 4//114 24//114
f 24//115 12//115 37//115
f 36//116 58//116 37//116
f 13//117 1//117 59//117
f 28//118 19//118 34//118
f 25//119 4//119 35//119
f 32//120 65//120 21//120
f 13//121 36//121 63//121
f 63//122 36//122 15//122
f 63//123 38//123 6//123
f 64//124 39//124 16//124
f 64//125 41//125 12//125
f 32//126 11//126 42//126
f 42//127 17//127 45//127
f 21//128 65//128 45//128
