# Blender 4.1.1
# www.blender.org
mtllib Cube.025_Cube.028.mtl
o Cube.025_Cube.028
v 3.080989 0.832483 -0.670947
v 3.065036 0.769423 -0.670374
v 3.064164 0.766993 -1.161519
v 3.161472 0.815816 -0.667752
v 3.144311 0.747301 -1.164473
v 3.081050 0.832322 -0.917076
v 3.057591 0.771904 -0.935510
v 3.072783 0.803314 -0.662556
v 3.123774 0.751595 -1.171361
v 3.146098 0.744552 -0.917076
v 3.105993 0.761315 -0.660565
v 3.164005 0.809372 -0.917076
v 3.121427 0.827109 -0.668190
v 3.110309 0.787755 -1.187874
v 3.122932 0.828622 -0.917076
v 3.157238 0.775881 -0.917076
v 3.098051 0.743205 -0.917076
v 3.066250 0.797349 -0.917076
v 3.078310 0.826009 -1.174442
v 3.066234 0.765914 -0.796255
v 3.144473 0.740458 -0.796255
v 3.081046 0.749229 -0.667764
v 3.159404 0.807009 -1.170908
v 3.157422 0.810024 -0.796255
v 3.145494 0.751124 -0.661290
v 3.140938 0.820044 -0.669632
v 3.075176 0.831321 -0.796255
v 3.072110 0.799797 -1.171792
v 3.053643 0.769495 -1.038356
v 3.087262 0.761284 -1.183365
v 3.145314 0.743417 -1.037896
v 3.124051 0.751399 -0.668710
v 3.161591 0.806267 -1.037896
v 3.099967 0.821928 -1.173112
v 3.134461 0.795241 -0.667751
v 3.123294 0.818136 -0.796255
v 3.137942 0.816591 -0.917076
v 3.101578 0.825586 -0.917076
v 3.147404 0.768238 -0.787294
v 3.146911 0.762145 -0.917076
v 3.156652 0.788838 -0.917076
v 3.102735 0.748166 -0.796255
v 3.099252 0.753997 -1.038078
v 3.083352 0.760526 -0.917076
v 3.123290 0.754115 -0.917076
v 3.064029 0.798125 -1.038209
v 3.077161 0.816776 -0.917076
v 3.062355 0.784910 -1.039214
v 3.073299 0.811506 -1.037935
v 3.066075 0.816627 -0.796255
v 3.117407 0.737477 -1.038190
v 3.069219 0.761250 -1.039192
v 3.080440 0.759000 -0.796255
v 3.151014 0.777840 -1.062758
v 3.143093 0.756629 -1.037896
v 3.111372 0.818589 -1.053695
v 3.139258 0.809285 -1.037961
v 3.141215 0.808467 -0.796255
v 3.092793 0.794844 -0.670618
v 3.147373 0.759318 -1.165750
v 3.111588 0.805206 -1.168708
v 3.068969 0.781091 -1.186277
v 3.104178 0.821212 -0.796255
v 3.155338 0.790250 -0.796255
v 3.117422 0.738759 -0.796255
v 3.066436 0.792128 -0.783141
vn -0.9999 0.0126 -0.0099
vn 0.9941 -0.1048 -0.0266
vn -0.0490 0.7401 -0.6707
vn 0.2738 -0.1460 -0.9506
vn -0.0687 0.2616 0.9627
vn -0.9986 0.0128 0.0514
vn 0.9981 0.0451 -0.0420
vn 0.9420 -0.3353 -0.0174
vn 0.9457 -0.3240 0.0248
vn 0.9945 -0.1052 0.0008
vn -0.1405 0.9882 -0.0607
vn 0.1846 0.9828 0.0099
vn -0.0716 0.0940 0.9930
vn 0.0921 0.0514 0.9944
vn -0.0338 -0.2764 -0.9604
vn -0.0421 -0.0969 -0.9944
vn -0.1299 0.6206 -0.7733
vn 0.9432 -0.3315 0.0209
vn -0.9495 0.3133 0.0135
vn 0.3358 0.9399 -0.0610
vn 0.3290 0.9440 -0.0240
vn -0.6089 -0.6327 -0.4785
vn 0.6942 0.5085 -0.5094
vn -0.3387 0.1454 0.9296
vn 0.6249 0.7796 -0.0403
vn 0.3104 0.9502 -0.0266
vn 0.7993 -0.6009 0.0022
vn 0.9702 -0.2414 -0.0181
vn 0.9414 -0.3371 -0.0101
vn 0.4164 -0.9058 0.0778
vn -0.7608 -0.6457 -0.0651
vn -0.3866 -0.9222 0.0112
vn -0.8221 0.5691 0.0187
vn -0.9914 0.1278 -0.0295
vn -0.8699 0.4928 0.0218
vn -0.9781 0.2024 -0.0492
vn -0.8695 0.4867 -0.0842
vn -0.9699 0.2426 0.0204
vn -0.9538 0.2904 0.0768
vn -0.9733 0.2291 -0.0114
vn -0.8209 0.5695 -0.0425
vn -0.8476 0.5250 -0.0771
vn -0.9999 -0.0143 0.0008
vn 0.3945 -0.9127 0.1062
vn 0.2084 -0.9775 -0.0316
vn -0.6693 -0.7348 -0.1099
vn -0.4301 -0.9017 0.0444
vn -0.2700 -0.9623 -0.0340
vn -0.2338 -0.9720 -0.0255
vn -0.7801 -0.6241 -0.0438
vn -0.4375 -0.8989 -0.0219
vn -0.7613 -0.6460 0.0560
vn 0.9985 -0.0461 -0.0294
vn 0.9698 -0.2436 0.0095
vn 0.9694 -0.2441 0.0273
vn 0.9944 -0.1053 0.0012
vn 0.2665 0.9622 -0.0553
vn 0.7990 -0.6007 0.0252
vn 0.2427 0.9699 0.0202
vn -0.0952 0.9913 -0.0908
vn 0.3185 0.9479 -0.0039
vn -0.0954 0.9930 0.0694
vn 0.6241 0.7786 0.0657
vn -0.0685 -0.0143 0.9975
vn 0.2580 -0.2728 0.9268
vn -0.0632 0.0785 0.9949
vn 0.1019 -0.1865 -0.9771
vn 0.4203 0.1397 0.8966
vn 0.2501 -0.3701 -0.8947
vn 0.2808 -0.1719 -0.9443
vn -0.3258 0.0567 0.9437
vn -0.0401 -0.9961 0.0790
vn -0.0128 -0.1570 -0.9875
vn 0.1357 0.9887 -0.0638
vn 0.3600 -0.1058 0.9269
vn -0.1406 0.9893 0.0388
vn 0.3290 0.9440 0.0238
vn 0.9989 0.0452 0.0103
vn 0.9930 -0.1047 0.0547
vn -0.5360 -0.8369 0.1108
vn -0.5346 -0.8347 -0.1321
vn -0.3864 -0.9216 -0.0364
vn -0.9759 0.2158 0.0313
vn -0.9979 -0.0228 0.0610
vn 0.4733 0.8773 -0.0792
vn 0.3647 0.9259 -0.0988
vn 0.3117 0.9498 -0.0263
vn 0.9177 -0.3949 -0.0445
vn 0.9402 -0.3405 -0.0107
vn -0.4361 -0.8975 -0.0662
vn -0.2354 -0.9716 0.0215
vn 0.2054 -0.9709 0.1234
vn -0.8719 0.4897 0.0065
vn -0.9507 0.3095 0.0194
vn -0.9898 0.1298 -0.0583
vn -0.9688 0.2426 -0.0499
vn -0.9402 0.3405 0.0017
vn -0.8496 0.5262 0.0345
vn -0.9691 0.2424 -0.0451
vn -0.8692 0.4882 -0.0791
vn -0.6715 -0.7375 -0.0724
vn -0.1673 -0.9795 -0.1118
vn -0.4659 -0.8840 0.0386
vn -0.4686 -0.8831 -0.0221
vn -0.2468 -0.9686 -0.0311
vn -0.4375 -0.8990 0.0209
vn -0.3950 -0.9186 -0.0150
vn -0.4370 -0.8992 -0.0219
vn 0.9861 0.1658 -0.0080
vn 0.9862 0.1658 -0.0027
vn 0.9989 -0.0462 0.0119
vn 0.1339 0.9906 -0.0281
vn 0.1339 0.9910 0.0033
vn 0.2059 0.9773 -0.0505
vn 0.2669 0.9637 0.0093
vn 0.4743 0.8791 0.0463
vn -0.0698 -0.0132 0.9975
vn 0.0403 -0.1099 -0.9931
vn -0.0926 0.1216 0.9883
vn 0.0624 -0.9935 0.0952
vn 0.1585 0.9851 -0.0667
vn 0.1583 0.9837 0.0849
vn 0.3117 0.9498 0.0277
vn 0.9461 -0.3195 0.0529
vn 0.9414 -0.3371 0.0142
vn -0.4451 -0.8902 0.0970
vn 0.3967 -0.9177 0.0223
vn 0.0622 -0.9905 -0.1229
s 0
usemtl Fence
f 20//1 2//1 66//1
f 24//2 4//2 64//2
f 14//3 28//3 61//3
f 60//4 9//4 30//4
f 59//5 11//5 35//5
f 66//6 8//6 50//6
f 54//7 41//7 16//7
f 23//8 33//8 54//8
f 60//9 54//9 55//9
f 39//10 25//10 21//10
f 56//11 38//11 15//11
f 34//12 19//12 56//12
f 35//13 4//13 26//13
f 13//14 35//14 26//14
f 23//15 61//15 34//15
f 60//16 61//16 23//16
f 14//17 62//17 28//17
f 64//18 4//18 39//18
f 7//19 66//19 18//19
f 26//20 36//20 13//20
f 63//21 27//21 1//21
f 30//22 3//22 62//22
f 60//23 14//23 61//23
f 59//24 22//24 11//24
f 57//25 15//25 37//25
f 6//26 56//26 19//26
f 55//27 16//27 40//27
f 39//28 4//28 25//28
f 41//29 33//29 12//29
f 22//30 42//30 11//30
f 44//31 43//31 17//31
f 45//32 31//32 10//32
f 18//33 49//33 46//33
f 7//34 46//34 48//34
f 48//35 29//35 7//35
f 48//36 28//36 62//36
f 48//37 3//37 29//37
f 6//38 49//38 47//38
f 1//39 50//39 8//39
f 19//40 28//40 49//40
f 28//41 46//41 49//41
f 27//42 47//42 50//42
f 50//43 18//43 66//43
f 17//44 51//44 45//44
f 51//45 5//45 31//45
f 9//46 51//46 43//46
f 7//47 52//47 44//47
f 52//48 3//48 30//48
f 52//49 9//49 43//49
f 2//50 53//50 22//50
f 20//51 44//51 53//51
f 42//52 44//52 17//52
f 10//53 55//53 40//53
f 60//54 23//54 54//54
f 55//55 5//55 60//55
f 21//56 40//56 39//56
f 12//57 57//57 37//57
f 40//58 16//58 39//58
f 57//59 23//59 34//59
f 26//60 24//60 58//60
f 34//61 56//61 57//61
f 24//62 37//62 58//62
f 36//63 37//63 15//63
f 13//64 59//64 35//64
f 8//65 2//65 59//65
f 2//66 22//66 59//66
f 28//67 34//67 61//67
f 1//68 8//68 59//68
f 60//69 30//69 14//69
f 60//70 5//70 9//70
f 25//71 35//71 32//71
f 32//72 21//72 25//72
f 14//73 30//73 62//73
f 13//74 63//74 1//74
f 11//75 32//75 35//75
f 63//76 15//76 38//76
f 63//77 6//77 27//77
f 64//78 16//78 41//78
f 64//79 12//79 24//79
f 32//80 42//80 65//80
f 42//81 45//81 65//81
f 21//82 45//82 10//82
f 66//83 2//83 8//83
f 7//84 20//84 66//84
f 26//85 58//85 36//85
f 57//86 56//86 15//86
f 6//87 38//87 56//87
f 55//88 54//88 16//88
f 41//89 54//89 33//89
f 22//90 53//90 42//90
f 44//91 52//91 43//91
f 45//92 51//92 31//92
f 18//93 47//93 49//93
f 7//94 18//94 46//94
f 48//95 46//95 28//95
f 48//96 62//96 3//96
f 6//97 19//97 49//97
f 1//98 27//98 50//98
f 27//99 6//99 47//99
f 50//100 47//100 18//100
f 17//101 43//101 51//101
f 51//102 9//102 5//102
f 7//103 29//103 52//103
f 52//104 29//104 3//104
f 52//105 30//105 9//105
f 2//106 20//106 53//106
f 20//107 7//107 44//107
f 42//108 53//108 44//108
f 10//109 31//109 55//109
f 55//110 31//110 5//110
f 21//111 10//111 40//111
f 12//112 33//112 57//112
f 57//113 33//113 23//113
f 26//114 4//114 24//114
f 24//115 12//115 37//115
f 36//116 58//116 37//116
f 13//117 1//117 59//117
f 28//118 19//118 34//118
f 25//119 4//119 35//119
f 32//120 65//120 21//120
f 13//121 36//121 63//121
f 63//122 36//122 15//122
f 63//123 38//123 6//123
f 64//124 39//124 16//124
f 64//125 41//125 12//125
f 32//126 11//126 42//126
f 42//127 17//127 45//127
f 21//128 65//128 45//128
