# Blender 4.1.1
# www.blender.org
mtllib Plane.026_Plane.017.mtl
o Plane.026_Plane.017
v -12.180459 4.852027 3.615533
v -12.227398 4.313668 3.581438
v -12.165783 4.859661 3.474833
v -12.212724 4.321302 3.440734
v -12.166671 4.929841 3.549870
v -12.240065 4.558648 3.593405
v -12.220059 4.317484 3.511086
v -12.225392 4.566278 3.452702
v -12.247521 4.629960 3.525171
v -11.992855 4.725404 3.268219
v -11.977987 4.184774 3.241854
v -11.855708 4.727448 3.303675
v -11.840839 4.186818 3.277310
v -11.926325 4.800734 3.289572
v -11.976180 4.429459 3.220760
v -11.909414 4.185798 3.259584
v -11.839031 4.431500 3.256216
v -11.904260 4.497452 3.221682
v -11.602798 4.817153 3.642446
v -11.547247 4.279225 3.669767
v -11.661471 4.817642 3.771398
v -11.605921 4.279717 3.798718
v -11.639771 4.891334 3.703166
v -11.541393 4.524748 3.671499
v -11.576585 4.279471 3.734242
v -11.600063 4.525237 3.800448
v -11.558774 4.592883 3.741155
v -12.502590 4.902786 4.091641
v -12.532061 4.363497 4.052990
v -12.622725 4.903971 4.166725
v -12.652194 4.364681 4.128075
v -12.558605 4.977505 4.134495
v -12.500863 4.602693 4.099136
v -12.592127 4.364089 4.090534
v -12.620996 4.603878 4.174220
v -12.546426 4.667128 4.158879
v -11.720670 4.827967 3.669240
v -11.714088 4.286529 3.668839
v -11.808125 4.826984 3.557788
v -11.801548 4.285549 3.557391
v -11.765300 4.901894 3.613568
v -11.743839 4.529393 3.690050
v -11.757819 4.286040 3.613116
v -11.831299 4.528413 3.578598
v -11.804653 4.594649 3.647152
v -12.110228 4.871747 4.152954
v -12.150659 4.332056 4.170159
v -12.047539 4.863010 4.026207
v -12.087967 4.323319 4.043411
v -12.073328 4.941558 4.087217
v -12.162940 4.576274 4.147250
v -12.119312 4.327686 4.106784
v -12.100251 4.567537 4.020504
v -12.145169 4.638738 4.072556
v -12.384174 4.882886 3.204487
v -12.424603 4.343195 3.221691
v -12.484911 4.893591 3.303524
v -12.525339 4.353900 3.320727
v -12.428986 4.962417 3.251641
v -12.382627 4.584608 3.238295
v -12.474971 4.348548 3.271210
v -12.483363 4.595312 3.337334
v -12.413599 4.655088 3.300508
vn 0.9702 0.0749 0.2304
vn 0.9254 -0.2713 0.2647
vn 0.9630 -0.2517 -0.0961
vn 0.9960 0.0883 -0.0166
vn -0.3686 0.1182 0.9220
vn -0.4123 -0.2275 0.8822
vn -0.0607 -0.2223 0.9731
vn -0.1278 0.1218 0.9843
vn -0.8499 0.0598 -0.5235
vn -0.7826 -0.2830 -0.5545
vn -0.9330 -0.2817 -0.2240
vn -0.9529 0.0607 -0.2972
vn -0.4002 0.2586 -0.8792
vn -0.3658 -0.0871 -0.9266
vn -0.6738 -0.0841 -0.7341
vn -0.6112 0.2607 -0.7473
vn 0.8432 0.1837 -0.5052
vn 0.8757 -0.1619 -0.4549
vn 0.6515 -0.1644 -0.7406
vn 0.6897 0.1820 -0.7009
vn 0.8310 0.1286 0.5412
vn 0.7718 -0.2121 0.5994
vn 0.9326 -0.2345 0.2744
vn 0.9411 0.1133 0.3187
vn -0.5817 0.1920 -0.7904
vn -0.5606 -0.1573 -0.8130
vn -0.8189 -0.1299 -0.5591
vn -0.7586 0.2108 -0.6165
vn 0.9933 0.0462 0.1061
vn 0.8680 -0.2103 0.4499
vn 0.9443 -0.1706 -0.2815
vn -0.2506 0.0850 0.9644
vn -0.5837 -0.1605 0.7959
vn 0.1292 -0.1499 0.9802
vn -0.9099 0.0246 -0.4141
vn -0.6721 -0.2116 -0.7095
vn -0.9771 -0.2091 -0.0393
vn -0.5146 0.2267 -0.8269
vn -0.1806 -0.0256 -0.9832
vn -0.8050 -0.0194 -0.5930
vn -0.5146 0.2266 -0.8269
vn 0.7773 0.1486 -0.6113
vn 0.9552 -0.0937 -0.2807
vn 0.5006 -0.0988 -0.8600
vn 0.8954 0.0860 0.4369
vn 0.6547 -0.1312 0.7444
vn 0.9806 -0.1766 0.0856
vn -0.6821 0.1676 -0.7118
vn -0.3919 -0.1056 -0.9139
vn -0.9155 -0.0500 -0.3992
vn -0.6820 0.1676 -0.7119
s 0
usemtl Material.001
f 7//1 8//1 9//1
f 9//2 3//2 5//2
f 1//3 9//3 5//3
f 6//4 7//4 9//4
f 16//5 17//5 18//5
f 18//6 12//6 14//6
f 10//7 18//7 14//7
f 15//8 16//8 18//8
f 25//9 26//9 27//9
f 27//10 21//10 23//10
f 19//11 27//11 23//11
f 24//12 25//12 27//12
f 34//13 35//13 36//13
f 36//14 30//14 32//14
f 28//15 36//15 32//15
f 33//16 34//16 36//16
f 43//17 44//17 45//17
f 45//18 39//18 41//18
f 37//19 45//19 41//19
f 42//20 43//20 45//20
f 52//21 53//21 54//21
f 54//22 48//22 50//22
f 46//23 54//23 50//23
f 51//24 52//24 54//24
f 61//25 62//25 63//25
f 63//26 57//26 59//26
f 55//27 63//27 59//27
f 60//28 61//28 63//28
f 7//29 4//29 8//29
f 9//30 8//30 3//30
f 1//31 6//31 9//31
f 6//29 2//29 7//29
f 16//32 13//32 17//32
f 18//33 17//33 12//33
f 10//34 15//34 18//34
f 15//32 11//32 16//32
f 25//35 22//35 26//35
f 27//36 26//36 21//36
f 19//37 24//37 27//37
f 24//35 20//35 25//35
f 34//38 31//38 35//38
f 36//39 35//39 30//39
f 28//40 33//40 36//40
f 33//41 29//41 34//41
f 43//42 40//42 44//42
f 45//43 44//43 39//43
f 37//44 42//44 45//44
f 42//42 38//42 43//42
f 52//45 49//45 53//45
f 54//46 53//46 48//46
f 46//47 51//47 54//47
f 51//45 47//45 52//45
f 61//48 58//48 62//48
f 63//49 62//49 57//49
f 55//50 60//50 63//50
f 60//51 56//51 61//51
