# Blender 4.1.1
# www.blender.org
mtllib blockCliffCorner.mtl
o blockCliffCorner
v 0.500000 -0.000000 -0.250000
v 0.500000 -0.500000 0.000000
v -0.000000 -0.500000 -0.250000
v 0.500000 -0.500000 -1.000000
v 0.500000 0.500000 -1.000000
v -0.500000 -0.500000 -1.000000
v 0.591514 0.500000 -0.841493
v 0.435290 0.564710 -0.841493
v -0.500000 -0.591514 -0.841493
v -0.564710 -0.435290 -0.841493
v 0.500000 -0.591514 -0.841493
v 0.591514 -0.500000 -0.841493
v 0.633028 -0.416667 -0.769589
v 0.591514 -0.333333 -0.841493
v 0.591514 -0.166667 -0.841493
v 0.633028 -0.250000 -0.769589
v 0.591514 -0.000000 -0.841493
v 0.633028 -0.083333 -0.769589
v 0.591514 0.166667 -0.841493
v 0.633028 0.083333 -0.769589
v 0.633028 0.250000 -0.769589
v 0.591514 0.333333 -0.841493
v 0.633028 0.416667 -0.769589
v -0.416667 -0.633028 -0.769589
v -0.333333 -0.591514 -0.841493
v -0.166667 -0.591514 -0.841493
v -0.250000 -0.633028 -0.769589
v -0.000000 -0.591514 -0.841493
v -0.083333 -0.633028 -0.769589
v 0.166667 -0.591514 -0.841493
v 0.083333 -0.633028 -0.769589
v 0.333333 -0.591514 -0.841493
v 0.250000 -0.633028 -0.769589
v 0.416667 -0.633028 -0.769589
v 0.343435 0.531565 -0.769589
v 0.310290 0.439710 -0.841493
v 0.185290 0.314710 -0.841493
v 0.218435 0.406565 -0.769589
v 0.060290 0.189710 -0.841493
v 0.093435 0.281565 -0.769589
v -0.064710 0.064710 -0.841493
v -0.031565 0.156565 -0.769589
v -0.189710 -0.060290 -0.841493
v -0.156565 0.031565 -0.769589
v -0.314710 -0.185290 -0.841493
v -0.281565 -0.093435 -0.769589
v -0.439710 -0.310290 -0.841493
v -0.406565 -0.218435 -0.769589
v -0.531565 -0.343435 -0.769589
vn -0.4082 0.4082 0.8165
vn 1.0000 -0.0000 -0.0000
vn -0.6396 0.6396 0.4264
vn -0.0000 -1.0000 -0.0000
vn 0.3737 0.9021 -0.2157
vn -0.3737 -0.9021 0.2157
vn -0.9021 -0.3737 -0.2157
vn 0.9021 0.3737 0.2157
vn -0.0000 -0.0000 -1.0000
vn 0.6547 -0.6547 -0.3780
vn -0.6547 0.6547 0.3780
vn 0.8660 -0.0000 -0.5000
vn -0.8660 -0.0000 0.5000
vn -0.0000 -0.8660 -0.5000
vn -0.0000 0.8660 0.5000
vn -0.6124 0.6124 -0.5000
vn 0.6124 -0.6124 0.5000
vt -13.919430 -5.682581
vt -0.000000 -22.730330
vt 13.919430 -5.682581
vt -19.685040 39.370079
vt 19.685040 -0.000000
vt 19.685040 39.370079
vt 0.000000 9.842520
vt 27.838850 35.611580
vt -13.919430 2.967631
vt 13.919430 2.967631
vt -27.838850 35.611580
vt 0.000000 9.842520
vt -19.685040 0.000000
vt 10.653490 32.894211
vt 7.324837 26.503281
vt 13.982150 26.503281
vt -7.324835 26.503281
vt -10.653490 32.894211
vt -13.982150 26.503281
vt 19.685040 -19.685040
vt -19.685040 19.685040
vt -19.685040 -19.685040
vt -0.000000 25.927509
vt -2.547645 19.187080
vt 2.547644 19.187080
vt 19.685040 24.252970
vt 16.404200 13.778330
vt 19.685040 17.047150
vt 13.123360 17.047150
vt -19.685040 24.252970
vt 6.561681 17.047150
vt 9.842520 13.778330
vt 0.000000 17.047150
vt 3.280838 13.778330
vt -6.561681 17.047150
vt -3.280838 13.778330
vt -9.842520 13.778330
vt -13.123360 17.047150
vt -16.404200 13.778330
vt -19.685040 17.047150
vt -0.000000 17.047150
vt -3.280839 13.778330
vt 27.838840 26.889669
vt 20.879141 26.889660
vt 24.358990 23.620840
vt 27.838850 34.095490
vt 13.919420 26.889660
vt 17.399281 23.620840
vt 6.959710 26.889660
vt 10.439570 23.620840
vt -0.000000 26.889660
vt 3.479856 23.620840
vt -6.959710 26.889660
vt -3.479856 23.620840
vt -13.919420 26.889660
vt -10.439570 23.620840
vt -20.879141 26.889660
vt -17.399281 23.620840
vt -27.838840 26.889669
vt -27.838850 34.095490
vt -24.358990 23.620840
s 0
usemtl dirt.002
f 3/1/1 2/2/1 1/3/1
f 5/4/2 2/5/2 4/6/2
f 2/5/2 5/4/2 1/7/2
f 5/8/3 3/9/3 1/10/3
f 3/9/3 5/8/3 6/11/3
f 3/12/4 4/4/4 2/13/4
f 4/4/4 3/12/4 6/6/4
usemtl grass.002
f 5/14/5 8/15/5 7/16/5
f 7/16/6 8/15/6 5/14/6
f 10/17/7 6/18/7 9/19/7
f 9/19/8 6/18/8 10/17/8
f 6/20/9 5/21/9 4/22/9
f 4/23/10 12/24/10 11/25/10
f 11/25/11 12/24/11 4/23/11
f 4/26/12 13/27/12 12/28/12
f 13/27/12 4/26/12 14/29/12
f 14/29/12 4/26/12 5/30/12
f 14/29/12 5/30/12 15/31/12
f 14/29/12 15/31/12 16/32/12
f 15/31/12 5/30/12 17/33/12
f 15/31/12 17/33/12 18/34/12
f 17/33/12 5/30/12 19/35/12
f 17/33/12 19/35/12 20/36/12
f 19/35/12 5/30/12 21/37/12
f 21/37/12 5/30/12 22/38/12
f 22/38/12 5/30/12 23/39/12
f 23/39/12 5/30/12 7/40/12
f 12/28/13 13/27/13 4/26/13
f 14/29/13 4/26/13 13/27/13
f 5/30/13 4/26/13 14/29/13
f 15/31/13 5/30/13 14/29/13
f 16/32/13 15/31/13 14/29/13
f 17/33/13 5/30/13 15/31/13
f 18/34/13 17/33/13 15/31/13
f 19/35/13 5/30/13 17/33/13
f 20/36/13 19/35/13 17/33/13
f 21/37/13 5/30/13 19/35/13
f 22/38/13 5/30/13 21/37/13
f 23/39/13 5/30/13 22/38/13
f 7/40/13 5/30/13 23/39/13
f 9/28/14 25/29/14 24/27/14
f 25/29/14 9/28/14 6/26/14
f 25/29/14 6/26/14 26/31/14
f 26/31/14 27/32/14 25/29/14
f 26/31/14 6/26/14 28/41/14
f 28/41/14 29/34/14 26/31/14
f 28/41/14 6/26/14 30/35/14
f 30/35/14 31/42/14 28/41/14
f 30/35/14 6/26/14 32/38/14
f 32/38/14 33/37/14 30/35/14
f 32/38/14 6/26/14 11/40/14
f 11/40/14 6/26/14 4/30/14
f 11/40/14 34/39/14 32/38/14
f 24/27/15 25/29/15 9/28/15
f 6/26/15 9/28/15 25/29/15
f 26/31/15 6/26/15 25/29/15
f 25/29/15 27/32/15 26/31/15
f 28/41/15 6/26/15 26/31/15
f 26/31/15 29/34/15 28/41/15
f 30/35/15 6/26/15 28/41/15
f 28/41/15 31/42/15 30/35/15
f 32/38/15 6/26/15 30/35/15
f 30/35/15 33/37/15 32/38/15
f 11/40/15 6/26/15 32/38/15
f 32/38/15 34/39/15 11/40/15
f 4/30/15 6/26/15 11/40/15
f 8/43/16 36/44/16 35/45/16
f 36/44/16 8/43/16 5/46/16
f 36/44/16 5/46/16 37/47/16
f 37/47/16 38/48/16 36/44/16
f 37/47/16 5/46/16 39/49/16
f 39/49/16 40/50/16 37/47/16
f 39/49/16 5/46/16 41/51/16
f 41/51/16 42/52/16 39/49/16
f 41/51/16 5/46/16 43/53/16
f 43/53/16 44/54/16 41/51/16
f 43/53/16 5/46/16 45/55/16
f 45/55/16 46/56/16 43/53/16
f 45/55/16 5/46/16 47/57/16
f 47/57/16 48/58/16 45/55/16
f 47/57/16 5/46/16 10/59/16
f 10/59/16 5/46/16 6/60/16
f 10/59/16 49/61/16 47/57/16
f 35/45/17 36/44/17 8/43/17
f 5/46/17 8/43/17 36/44/17
f 37/47/17 5/46/17 36/44/17
f 36/44/17 38/48/17 37/47/17
f 39/49/17 5/46/17 37/47/17
f 37/47/17 40/50/17 39/49/17
f 41/51/17 5/46/17 39/49/17
f 39/49/17 42/52/17 41/51/17
f 43/53/17 5/46/17 41/51/17
f 41/51/17 44/54/17 43/53/17
f 45/55/17 5/46/17 43/53/17
f 43/53/17 46/56/17 45/55/17
f 47/57/17 5/46/17 45/55/17
f 45/55/17 48/58/17 47/57/17
f 10/59/17 5/46/17 47/57/17
f 47/57/17 49/61/17 10/59/17
f 6/60/17 5/46/17 10/59/17
