# Blender 4.1.1
# www.blender.org
mtllib Cube.046_Cube.050.mtl
o Cube.046_Cube.050
v 0.823611 5.069539 16.773890
v 0.703718 5.067975 16.904816
v 0.699482 6.408428 16.910448
v 0.664933 5.060819 16.615334
v 0.534409 6.416493 16.757193
v 0.823152 5.741284 16.773991
v 0.720538 5.791595 16.918074
v 0.769391 5.046640 16.836334
v 0.574993 6.435289 16.797588
v 0.525460 5.741284 16.757236
v 0.623819 5.041206 16.823568
v 0.646439 5.741284 16.619219
v 0.750723 5.062014 16.689728
v 0.677648 6.480357 16.774084
v 0.751919 5.741284 16.684023
v 0.580206 5.741284 16.684864
v 0.594425 5.741284 16.868830
v 0.765584 5.741284 16.860178
v 0.812863 6.443701 16.789705
v 0.693917 5.411535 16.907343
v 0.518561 5.411534 16.767082
v 0.633661 5.060855 16.898582
v 0.647949 6.434055 16.633251
v 0.657796 5.411534 16.633253
v 0.541355 5.043185 16.748764
v 0.705361 5.065949 16.655823
v 0.829675 5.411534 16.788887
v 0.762380 6.436465 16.843142
v 0.720961 6.072287 16.930691
v 0.651832 6.468054 16.866329
v 0.524049 6.071033 16.760727
v 0.574131 5.063437 16.797255
v 0.642979 6.071033 16.629377
v 0.771084 6.440068 16.746433
v 0.658508 5.060819 16.707781
v 0.727465 5.411534 16.698921
v 0.701979 5.741284 16.667830
v 0.777012 5.741284 16.737274
v 0.577520 5.387081 16.718746
v 0.564366 5.741284 16.729008
v 0.610634 5.741284 16.666771
v 0.598716 5.411534 16.850712
v 0.617239 6.071530 16.849911
v 0.655964 5.741284 16.876381
v 0.581467 5.741284 16.794914
v 0.770682 6.071885 16.864079
v 0.793529 5.741284 16.806170
v 0.743054 6.074631 16.887711
v 0.787298 6.071140 16.822874
v 0.809809 5.411534 16.831673
v 0.552343 6.071836 16.833277
v 0.678805 6.074571 16.907530
v 0.656851 5.411535 16.885313
v 0.594008 6.138888 16.696117
v 0.557510 6.071033 16.745983
v 0.746373 6.114150 16.725430
v 0.683344 6.071208 16.675785
v 0.678543 5.411534 16.672546
v 0.720074 5.068641 16.803404
v 0.557223 6.419978 16.732193
v 0.715527 6.428048 16.745001
v 0.724430 6.476002 16.878351
v 0.763136 5.411534 16.737904
v 0.615825 5.411534 16.667652
v 0.555244 5.411534 16.831322
v 0.753398 5.375743 16.867580
vn 0.5598 0.0099 0.8286
vn -0.6337 0.0266 -0.7731
vn 0.6454 0.6707 -0.3656
vn -0.2725 0.9506 -0.1485
vn 0.2563 -0.9627 -0.0863
vn 0.5593 -0.0514 0.8274
vn -0.5106 0.0420 -0.8588
vn -0.7976 0.0174 -0.6029
vn -0.7903 -0.0248 -0.6122
vn -0.6342 -0.0008 -0.7732
vn 0.9029 0.0607 -0.4255
vn 0.7198 -0.0098 -0.6941
vn 0.1178 -0.9930 0.0082
vn -0.0077 -0.9944 -0.1051
vn -0.2124 0.9604 0.1801
vn -0.0578 0.9944 0.0884
vn 0.5900 0.7733 -0.2324
vn -0.7951 -0.0209 -0.6061
vn 0.7834 -0.0135 0.6213
vn 0.6010 0.0610 -0.7970
vn 0.6080 0.0240 -0.7935
vn -0.1942 0.4784 0.8564
vn 0.0436 0.5094 -0.8594
vn 0.3075 -0.9296 0.2031
vn 0.3082 0.0403 -0.9505
vn 0.6235 0.0266 -0.7814
vn -0.9412 -0.0022 -0.3378
vn -0.7347 0.0181 -0.6781
vn -0.7988 0.0102 -0.6015
vn -0.9857 -0.0778 0.1497
vn -0.1215 0.0651 0.9904
vn -0.5581 -0.0112 0.8297
vn 0.9272 -0.0187 0.3742
vn 0.6514 0.0295 0.7581
vn 0.8897 -0.0218 0.4561
vn 0.7064 0.0492 0.7061
vn 0.8843 0.0842 0.4592
vn 0.7356 -0.0204 0.6771
vn 0.7666 -0.0768 0.6375
vn 0.7261 0.0114 0.6875
vn 0.9269 0.0425 0.3730
vn 0.9043 0.0771 0.4199
vn 0.5374 -0.0008 0.8434
vn -0.9794 -0.1062 0.1717
vn -0.9313 0.0316 0.3629
vn -0.2463 0.1099 0.9629
vn -0.5172 -0.0444 0.8547
vn -0.6558 0.0340 0.7542
vn -0.6838 0.0255 0.7293
vn -0.0930 0.0438 0.9947
vn -0.5108 0.0219 0.8594
vn -0.1216 -0.0560 0.9910
vn -0.5870 0.0294 -0.8090
vn -0.7363 -0.0095 -0.6765
vn -0.7365 -0.0273 -0.6759
vn -0.6343 -0.0012 -0.7731
vn 0.6576 0.0553 -0.7513
vn -0.9409 -0.0252 -0.3376
vn 0.6771 -0.0202 -0.7356
vn 0.8806 0.0908 -0.4650
vn 0.6171 0.0039 -0.7869
vn 0.8822 -0.0694 -0.4658
vn 0.3078 -0.0657 -0.9492
vn 0.0257 -0.9976 0.0651
vn -0.3696 -0.9269 -0.0657
vn 0.1003 -0.9949 0.0096
vn -0.2119 0.9771 0.0173
vn -0.1142 -0.8966 -0.4279
vn -0.4466 0.8947 -0.0057
vn -0.2978 0.9443 -0.1402
vn 0.2264 -0.9437 0.2411
vn -0.8103 -0.0790 0.5807
vn -0.1242 0.9875 0.0970
vn 0.7516 0.0638 -0.6566
vn -0.2861 -0.9269 -0.2427
vn 0.9039 -0.0389 -0.4259
vn 0.6080 -0.0238 -0.7936
vn -0.5111 -0.0103 -0.8595
vn -0.6329 -0.0547 -0.7723
vn -0.4048 -0.1108 0.9076
vn -0.4038 0.1321 0.9053
vn -0.5578 0.0364 0.8292
vn 0.7165 -0.0313 0.6969
vn 0.5291 -0.0610 0.8464
vn 0.4731 0.0792 -0.8775
vn 0.5733 0.0988 -0.8134
vn 0.6225 0.0263 -0.7822
vn -0.8341 0.0445 -0.5499
vn -0.8010 0.0107 -0.5986
vn -0.5103 0.0662 0.8574
vn -0.6826 -0.0215 0.7305
vn -0.9241 -0.1234 0.3617
vn 0.8881 -0.0065 0.4595
vn 0.7809 -0.0194 0.6244
vn 0.6522 0.0583 0.7558
vn 0.7350 0.0499 0.6763
vn 0.8010 -0.0017 0.5987
vn 0.9065 -0.0345 0.4209
vn 0.7350 0.0451 0.6766
vn 0.8854 0.0791 0.4581
vn -0.2473 0.0724 0.9662
vn -0.7266 0.1119 0.6779
vn -0.4828 -0.0386 0.8749
vn -0.4805 0.0221 0.8767
vn -0.6738 0.0311 0.7383
vn -0.5108 -0.0209 0.8594
vn -0.5506 0.0150 0.8346
vn -0.5113 0.0219 0.8591
vn -0.4032 0.0080 -0.9151
vn -0.4032 0.0027 -0.9151
vn -0.5872 -0.0119 -0.8093
vn 0.7542 0.0281 -0.6561
vn 0.7545 -0.0033 -0.6563
vn 0.7035 0.0505 -0.7089
vn 0.6586 -0.0093 -0.7525
vn 0.4740 -0.0463 -0.8793
vn 0.0273 -0.9975 0.0655
vn -0.1140 0.9931 0.0267
vn 0.1525 -0.9883 0.0106
vn -0.8644 -0.0952 0.4936
vn 0.7361 0.0667 -0.6736
vn 0.7351 -0.0849 -0.6726
vn 0.6224 -0.0277 -0.7822
vn -0.7867 -0.0529 -0.6151
vn -0.7988 -0.0142 -0.6015
vn -0.4993 -0.0969 0.8610
vn -0.9847 -0.0223 0.1726
vn -0.8618 0.1229 0.4921
s 0
usemtl Fence
f 20//1 2//1 66//1
f 24//2 4//2 64//2
f 14//3 28//3 61//3
f 60//4 9//4 30//4
f 59//5 11//5 35//5
f 66//6 8//6 50//6
f 54//7 41//7 16//7
f 23//8 33//8 54//8
f 60//9 54//9 55//9
f 39//10 25//10 21//10
f 56//11 38//11 15//11
f 34//12 19//12 56//12
f 35//13 4//13 26//13
f 13//14 35//14 26//14
f 23//15 61//15 34//15
f 60//16 61//16 23//16
f 14//17 62//17 28//17
f 64//18 4//18 39//18
f 7//19 66//19 18//19
f 26//20 36//20 13//20
f 63//21 27//21 1//21
f 30//22 3//22 62//22
f 60//23 14//23 61//23
f 59//24 22//24 11//24
f 57//25 15//25 37//25
f 6//26 56//26 19//26
f 55//27 16//27 40//27
f 39//28 4//28 25//28
f 41//29 33//29 12//29
f 22//30 42//30 11//30
f 44//31 43//31 17//31
f 45//32 31//32 10//32
f 18//33 49//33 46//33
f 7//34 46//34 48//34
f 48//35 29//35 7//35
f 48//36 28//36 62//36
f 48//37 3//37 29//37
f 6//38 49//38 47//38
f 1//39 50//39 8//39
f 19//40 28//40 49//40
f 28//41 46//41 49//41
f 27//42 47//42 50//42
f 50//43 18//43 66//43
f 17//44 51//44 45//44
f 51//45 5//45 31//45
f 9//46 51//46 43//46
f 7//47 52//47 44//47
f 52//48 3//48 30//48
f 52//49 9//49 43//49
f 2//50 53//50 22//50
f 20//51 44//51 53//51
f 42//52 44//52 17//52
f 10//53 55//53 40//53
f 60//54 23//54 54//54
f 55//55 5//55 60//55
f 21//56 40//56 39//56
f 12//57 57//57 37//57
f 40//58 16//58 39//58
f 57//59 23//59 34//59
f 26//60 24//60 58//60
f 34//61 56//61 57//61
f 24//62 37//62 58//62
f 36//63 37//63 15//63
f 13//64 59//64 35//64
f 8//65 2//65 59//65
f 2//66 22//66 59//66
f 28//67 34//67 61//67
f 1//68 8//68 59//68
f 60//69 30//69 14//69
f 60//70 5//70 9//70
f 25//71 35//71 32//71
f 32//72 21//72 25//72
f 14//73 30//73 62//73
f 13//74 63//74 1//74
f 11//75 32//75 35//75
f 63//76 15//76 38//76
f 63//77 6//77 27//77
f 64//78 16//78 41//78
f 64//79 12//79 24//79
f 32//80 42//80 65//80
f 42//81 45//81 65//81
f 21//82 45//82 10//82
f 66//83 2//83 8//83
f 7//84 20//84 66//84
f 26//85 58//85 36//85
f 57//86 56//86 15//86
f 6//87 38//87 56//87
f 55//88 54//88 16//88
f 41//89 54//89 33//89
f 22//90 53//90 42//90
f 44//91 52//91 43//91
f 45//92 51//92 31//92
f 18//93 47//93 49//93
f 7//94 18//94 46//94
f 48//95 46//95 28//95
f 48//96 62//96 3//96
f 6//97 19//97 49//97
f 1//98 27//98 50//98
f 27//99 6//99 47//99
f 50//100 47//100 18//100
f 17//101 43//101 51//101
f 51//102 9//102 5//102
f 7//103 29//103 52//103
f 52//104 29//104 3//104
f 52//105 30//105 9//105
f 2//106 20//106 53//106
f 20//107 7//107 44//107
f 42//108 53//108 44//108
f 10//109 31//109 55//109
f 55//110 31//110 5//110
f 21//111 10//111 40//111
f 12//112 33//112 57//112
f 57//113 33//113 23//113
f 26//114 4//114 24//114
f 24//115 12//115 37//115
f 36//116 58//116 37//116
f 13//117 1//117 59//117
f 28//118 19//118 34//118
f 25//119 4//119 35//119
f 32//120 65//120 21//120
f 13//121 36//121 63//121
f 63//122 36//122 15//122
f 63//123 38//123 6//123
f 64//124 39//124 16//124
f 64//125 41//125 12//125
f 32//126 11//126 42//126
f 42//127 17//127 45//127
f 21//128 65//128 45//128
