# Blender 4.1.1
# www.blender.org
mtllib Cube.046_Cube.050.mtl
o Cube.046_Cube.050
v 0.147837 2.642774 -0.941970
v 0.103908 2.690746 -0.941397
v 0.102356 2.692810 -1.432542
v 0.089697 2.584679 -0.938775
v 0.041873 2.636657 -1.435497
v 0.147669 2.642812 -1.188099
v 0.110071 2.695604 -1.206533
v 0.127971 2.665654 -0.933580
v 0.056743 2.651458 -1.442384
v 0.038594 2.636673 -1.188099
v 0.074633 2.660977 -0.931589
v 0.082921 2.586103 -1.188099
v 0.121131 2.611937 -0.939213
v 0.094356 2.642846 -1.458897
v 0.121569 2.609847 -1.188099
v 0.058653 2.610155 -1.188099
v 0.063863 2.677561 -1.188099
v 0.126576 2.674391 -1.188099
v 0.143899 2.648570 -1.445466
v 0.100317 2.691672 -1.067278
v 0.036066 2.640280 -1.067278
v 0.078239 2.688462 -0.938788
v 0.083474 2.591245 -1.441932
v 0.087082 2.591245 -1.067278
v 0.044418 2.633568 -0.932314
v 0.104510 2.599514 -0.940655
v 0.150059 2.648270 -1.067278
v 0.125402 2.668149 -1.442815
v 0.110226 2.700227 -1.309379
v 0.084897 2.676645 -1.454389
v 0.038077 2.637952 -1.308920
v 0.056427 2.651335 -0.939734
v 0.081653 2.589825 -1.308920
v 0.128591 2.632715 -1.444135
v 0.087343 2.618552 -0.938775
v 0.112609 2.615306 -1.067278
v 0.103271 2.603914 -1.188099
v 0.130763 2.629359 -1.188099
v 0.057669 2.622570 -1.058318
v 0.052849 2.626330 -1.188099
v 0.069802 2.603526 -1.188099
v 0.065435 2.670922 -1.067278
v 0.072222 2.670629 -1.309102
v 0.086411 2.680328 -1.188099
v 0.059115 2.650478 -1.188099
v 0.128444 2.675820 -1.309232
v 0.136815 2.654602 -1.188099
v 0.118321 2.684479 -1.310238
v 0.134532 2.660723 -1.308959
v 0.142780 2.663946 -1.067278
v 0.048444 2.664534 -1.309214
v 0.094780 2.691741 -1.310216
v 0.086736 2.683600 -1.067278
v 0.063710 2.614279 -1.333782
v 0.050337 2.632550 -1.308920
v 0.119537 2.625019 -1.324718
v 0.096443 2.606829 -1.308984
v 0.094684 2.605642 -1.067278
v 0.109901 2.653588 -0.941641
v 0.050232 2.627497 -1.436774
v 0.108235 2.632190 -1.439731
v 0.111497 2.681050 -1.457301
v 0.125679 2.629589 -1.067278
v 0.071704 2.603849 -1.067278
v 0.049507 2.663818 -1.067278
v 0.122111 2.677103 -1.054164
vn 0.5598 0.8286 -0.0099
vn -0.6337 -0.7731 -0.0266
vn 0.6454 -0.3656 -0.6707
vn -0.2725 -0.1485 -0.9506
vn 0.2563 -0.0863 0.9627
vn 0.5593 0.8274 0.0514
vn -0.5106 -0.8588 -0.0420
vn -0.7976 -0.6029 -0.0174
vn -0.7903 -0.6122 0.0248
vn -0.6342 -0.7732 0.0008
vn 0.9029 -0.4255 -0.0607
vn 0.7198 -0.6941 0.0098
vn 0.1178 0.0082 0.9930
vn -0.0077 -0.1051 0.9944
vn -0.2124 0.1801 -0.9604
vn -0.0578 0.0884 -0.9944
vn 0.5900 -0.2324 -0.7733
vn -0.7951 -0.6061 0.0209
vn 0.7835 0.6213 0.0135
vn 0.6010 -0.7970 -0.0610
vn 0.6080 -0.7935 -0.0240
vn -0.1942 0.8564 -0.4785
vn 0.0436 -0.8594 -0.5094
vn 0.3075 0.2031 0.9296
vn 0.3082 -0.9505 -0.0403
vn 0.6235 -0.7814 -0.0266
vn -0.9412 -0.3378 0.0022
vn -0.7347 -0.6781 -0.0181
vn -0.7988 -0.6015 -0.0101
vn -0.9857 0.1497 0.0778
vn -0.1215 0.9904 -0.0651
vn -0.5582 0.8297 0.0112
vn 0.9272 0.3742 0.0187
vn 0.6514 0.7581 -0.0295
vn 0.8896 0.4561 0.0218
vn 0.7064 0.7061 -0.0492
vn 0.8844 0.4592 -0.0842
vn 0.7355 0.6772 0.0204
vn 0.7666 0.6375 0.0768
vn 0.7261 0.6875 -0.0114
vn 0.9269 0.3730 -0.0425
vn 0.9043 0.4199 -0.0771
vn 0.5374 0.8434 0.0008
vn -0.9794 0.1717 0.1062
vn -0.9313 0.3629 -0.0316
vn -0.2463 0.9629 -0.1099
vn -0.5172 0.8547 0.0444
vn -0.6557 0.7542 -0.0340
vn -0.6838 0.7293 -0.0255
vn -0.0930 0.9947 -0.0438
vn -0.5108 0.8594 -0.0219
vn -0.1216 0.9910 0.0560
vn -0.5870 -0.8090 -0.0294
vn -0.7363 -0.6765 0.0095
vn -0.7365 -0.6759 0.0273
vn -0.6343 -0.7731 0.0012
vn 0.6576 -0.7513 -0.0553
vn -0.9409 -0.3376 0.0252
vn 0.6771 -0.7356 0.0202
vn 0.8806 -0.4650 -0.0908
vn 0.6171 -0.7869 -0.0039
vn 0.8822 -0.4658 0.0694
vn 0.3078 -0.9492 0.0657
vn 0.0257 0.0651 0.9976
vn -0.3696 -0.0657 0.9269
vn 0.1003 0.0096 0.9949
vn -0.2118 0.0173 -0.9771
vn -0.1142 -0.4279 0.8966
vn -0.4466 -0.0057 -0.8947
vn -0.2978 -0.1402 -0.9443
vn 0.2264 0.2411 0.9437
vn -0.8103 0.5807 0.0790
vn -0.1242 0.0970 -0.9875
vn 0.7516 -0.6566 -0.0638
vn -0.2861 -0.2427 0.9269
vn 0.9039 -0.4259 0.0388
vn 0.6081 -0.7935 0.0238
vn -0.5110 -0.8595 0.0103
vn -0.6329 -0.7723 0.0547
vn -0.4048 0.9077 0.1108
vn -0.4038 0.9053 -0.1321
vn -0.5578 0.8292 -0.0364
vn 0.7165 0.6969 0.0313
vn 0.5291 0.8464 0.0610
vn 0.4731 -0.8775 -0.0792
vn 0.5733 -0.8134 -0.0989
vn 0.6224 -0.7822 -0.0263
vn -0.8341 -0.5499 -0.0445
vn -0.8010 -0.5986 -0.0107
vn -0.5103 0.8574 -0.0662
vn -0.6826 0.7305 0.0215
vn -0.9241 0.3618 0.1234
vn 0.8881 0.4595 0.0065
vn 0.7808 0.6244 0.0194
vn 0.6522 0.7558 -0.0583
vn 0.7349 0.6763 -0.0499
vn 0.8010 0.5987 0.0017
vn 0.9064 0.4209 0.0345
vn 0.7349 0.6766 -0.0451
vn 0.8854 0.4581 -0.0791
vn -0.2473 0.9662 -0.0724
vn -0.7266 0.6779 -0.1118
vn -0.4828 0.8749 0.0386
vn -0.4805 0.8767 -0.0221
vn -0.6738 0.7383 -0.0311
vn -0.5108 0.8594 0.0209
vn -0.5506 0.8346 -0.0150
vn -0.5113 0.8591 -0.0219
vn -0.4032 -0.9151 -0.0080
vn -0.4032 -0.9151 -0.0027
vn -0.5872 -0.8093 0.0119
vn 0.7542 -0.6561 -0.0281
vn 0.7545 -0.6563 0.0033
vn 0.7035 -0.7089 -0.0505
vn 0.6586 -0.7525 0.0093
vn 0.4740 -0.8793 0.0463
vn 0.0273 0.0655 0.9975
vn -0.1140 0.0267 -0.9931
vn 0.1525 0.0106 0.9883
vn -0.8644 0.4936 0.0952
vn 0.7361 -0.6736 -0.0667
vn 0.7351 -0.6726 0.0849
vn 0.6224 -0.7822 0.0277
vn -0.7867 -0.6151 0.0529
vn -0.7988 -0.6014 0.0142
vn -0.4993 0.8610 0.0970
vn -0.9847 0.1726 0.0223
vn -0.8618 0.4921 -0.1229
s 0
usemtl Fence
f 20//1 2//1 66//1
f 24//2 4//2 64//2
f 14//3 28//3 61//3
f 60//4 9//4 30//4
f 59//5 11//5 35//5
f 66//6 8//6 50//6
f 54//7 41//7 16//7
f 23//8 33//8 54//8
f 60//9 54//9 55//9
f 39//10 25//10 21//10
f 56//11 38//11 15//11
f 34//12 19//12 56//12
f 35//13 4//13 26//13
f 13//14 35//14 26//14
f 23//15 61//15 34//15
f 60//16 61//16 23//16
f 14//17 62//17 28//17
f 64//18 4//18 39//18
f 7//19 66//19 18//19
f 26//20 36//20 13//20
f 63//21 27//21 1//21
f 30//22 3//22 62//22
f 60//23 14//23 61//23
f 59//24 22//24 11//24
f 57//25 15//25 37//25
f 6//26 56//26 19//26
f 55//27 16//27 40//27
f 39//28 4//28 25//28
f 41//29 33//29 12//29
f 22//30 42//30 11//30
f 44//31 43//31 17//31
f 45//32 31//32 10//32
f 18//33 49//33 46//33
f 7//34 46//34 48//34
f 48//35 29//35 7//35
f 48//36 28//36 62//36
f 48//37 3//37 29//37
f 6//38 49//38 47//38
f 1//39 50//39 8//39
f 19//40 28//40 49//40
f 28//41 46//41 49//41
f 27//42 47//42 50//42
f 50//43 18//43 66//43
f 17//44 51//44 45//44
f 51//45 5//45 31//45
f 9//46 51//46 43//46
f 7//47 52//47 44//47
f 52//48 3//48 30//48
f 52//49 9//49 43//49
f 2//50 53//50 22//50
f 20//51 44//51 53//51
f 42//52 44//52 17//52
f 10//53 55//53 40//53
f 60//54 23//54 54//54
f 55//55 5//55 60//55
f 21//56 40//56 39//56
f 12//57 57//57 37//57
f 40//58 16//58 39//58
f 57//59 23//59 34//59
f 26//60 24//60 58//60
f 34//61 56//61 57//61
f 24//62 37//62 58//62
f 36//63 37//63 15//63
f 13//64 59//64 35//64
f 8//65 2//65 59//65
f 2//66 22//66 59//66
f 28//67 34//67 61//67
f 1//68 8//68 59//68
f 60//69 30//69 14//69
f 60//70 5//70 9//70
f 25//71 35//71 32//71
f 32//72 21//72 25//72
f 14//73 30//73 62//73
f 13//74 63//74 1//74
f 11//75 32//75 35//75
f 63//76 15//76 38//76
f 63//77 6//77 27//77
f 64//78 16//78 41//78
f 64//79 12//79 24//79
f 32//80 42//80 65//80
f 42//81 45//81 65//81
f 21//82 45//82 10//82
f 66//83 2//83 8//83
f 7//84 20//84 66//84
f 26//85 58//85 36//85
f 57//86 56//86 15//86
f 6//87 38//87 56//87
f 55//88 54//88 16//88
f 41//89 54//89 33//89
f 22//90 53//90 42//90
f 44//91 52//91 43//91
f 45//92 51//92 31//92
f 18//93 47//93 49//93
f 7//94 18//94 46//94
f 48//95 46//95 28//95
f 48//96 62//96 3//96
f 6//97 19//97 49//97
f 1//98 27//98 50//98
f 27//99 6//99 47//99
f 50//100 47//100 18//100
f 17//101 43//101 51//101
f 51//102 9//102 5//102
f 7//103 29//103 52//103
f 52//104 29//104 3//104
f 52//105 30//105 9//105
f 2//106 20//106 53//106
f 20//107 7//107 44//107
f 42//108 53//108 44//108
f 10//109 31//109 55//109
f 55//110 31//110 5//110
f 21//111 10//111 40//111
f 12//112 33//112 57//112
f 57//113 33//113 23//113
f 26//114 4//114 24//114
f 24//115 12//115 37//115
f 36//116 58//116 37//116
f 13//117 1//117 59//117
f 28//118 19//118 34//118
f 25//119 4//119 35//119
f 32//120 65//120 21//120
f 13//121 36//121 63//121
f 63//122 36//122 15//122
f 63//123 38//123 6//123
f 64//124 39//124 16//124
f 64//125 41//125 12//125
f 32//126 11//126 42//126
f 42//127 17//127 45//127
f 21//128 65//128 45//128
