# Blender 4.1.1
# www.blender.org
mtllib Cube.090_Cube.094.mtl
o Cube.090_Cube.094
v -2.931138 -8.702544 -0.101095
v -2.970004 -8.754709 -0.106815
v -2.964082 -8.680037 -0.767446
v -2.862978 -8.748872 -0.101323
v -2.897292 -8.728065 -0.776267
v -2.927306 -8.664338 -0.432058
v -2.971821 -8.708262 -0.462792
v -2.950008 -8.727628 -0.092788
v -2.914574 -8.715259 -0.784369
v -2.900542 -8.769851 -0.443983
v -2.935302 -8.779217 -0.095886
v -2.859204 -8.716893 -0.437363
v -2.895764 -8.723237 -0.099327
v -2.912988 -8.674262 -0.802102
v -2.889911 -8.683603 -0.433859
v -2.878260 -8.745196 -0.440866
v -2.945576 -8.752902 -0.442540
v -2.954371 -8.690966 -0.435460
v -2.928242 -8.628988 -0.778723
v -2.968271 -8.738769 -0.276503
v -2.905495 -8.791847 -0.281931
v -2.962920 -8.779787 -0.106084
v -2.860411 -8.677750 -0.778775
v -2.866938 -8.732639 -0.274617
v -2.902582 -8.803449 -0.099305
v -2.880360 -8.736909 -0.102700
v -2.935014 -8.681876 -0.269520
v -2.944035 -8.651212 -0.777871
v -2.974796 -8.692952 -0.601214
v -2.944518 -8.690636 -0.798222
v -2.899818 -8.751760 -0.606539
v -2.922229 -8.793921 -0.108540
v -2.860742 -8.700002 -0.600083
v -2.909754 -8.641156 -0.778106
v -2.895860 -8.757607 -0.102717
v -2.895463 -8.712243 -0.272583
v -2.880596 -8.700374 -0.435695
v -2.910857 -8.678317 -0.433488
v -2.892313 -8.768753 -0.266888
v -2.893073 -8.753945 -0.442052
v -2.873856 -8.733033 -0.439405
v -2.941226 -8.768944 -0.279689
v -2.938456 -8.724544 -0.604078
v -2.952583 -8.731376 -0.440125
v -2.918025 -8.752403 -0.442163
v -2.954244 -8.670522 -0.598174
v -2.936845 -8.677193 -0.433659
v -2.960824 -8.681911 -0.600942
v -2.940550 -8.661743 -0.596625
v -2.949056 -8.691973 -0.270854
v -2.927940 -8.746624 -0.606670
v -2.963498 -8.706317 -0.603773
v -2.957747 -8.750518 -0.277744
v -2.881007 -8.718318 -0.636325
v -2.896833 -8.738744 -0.604994
v -2.902323 -8.667171 -0.618289
v -2.880282 -8.688755 -0.599094
v -2.882549 -8.727939 -0.274253
v -2.934576 -8.741752 -0.105234
v -2.889847 -8.717951 -0.776748
v -2.905439 -8.661653 -0.774431
v -2.953861 -8.665003 -0.799326
v -2.912001 -8.702172 -0.271607
v -2.876418 -8.750073 -0.276749
v -2.931209 -8.783173 -0.281223
v -2.958280 -8.716731 -0.255959
vn -0.9198 0.3915 0.0274
vn 0.8800 -0.4706 -0.0642
vn 0.2699 0.8463 -0.4593
vn 0.2680 -0.2038 -0.9416
vn 0.0358 0.2413 0.9698
vn -0.9196 0.3862 0.0724
vn 0.9409 -0.3336 -0.0591
vn 0.7443 -0.6629 -0.0812
vn 0.7518 -0.6576 -0.0490
vn 0.8797 -0.4734 -0.0441
vn 0.2452 0.9670 0.0696
vn 0.5439 0.8319 0.1101
vn -0.0525 0.0385 0.9979
vn 0.1294 -0.0977 0.9868
vn -0.1673 -0.2080 -0.9637
vn -0.0904 0.0160 -0.9958
vn 0.1422 0.8018 -0.5805
vn 0.7466 -0.6632 -0.0527
vn -0.7596 0.6459 0.0762
vn 0.6689 0.7418 0.0482
vn 0.6634 0.7444 0.0761
vn -0.8446 -0.3261 -0.4246
vn 0.8938 0.2625 -0.3635
vn -0.3410 0.2338 0.9105
vn 0.8753 0.4822 0.0360
vn 0.6485 0.7574 0.0755
vn 0.5119 -0.8542 -0.0915
vn 0.8060 -0.5875 -0.0723
vn 0.7430 -0.6649 -0.0761
vn 0.0417 -0.9975 -0.0571
vn -0.9497 -0.2986 -0.0943
vn -0.7083 -0.7012 -0.0812
vn -0.5452 0.8318 0.1041
vn -0.8683 0.4954 0.0254
vn -0.6181 0.7797 0.0995
vn -0.8278 0.5607 0.0187
vn -0.6201 0.7842 0.0210
vn -0.8052 0.5883 0.0741
vn -0.7738 0.6219 0.1204
vn -0.8132 0.5798 0.0493
vn -0.5435 0.8373 0.0591
vn -0.5854 0.8102 0.0297
vn -0.9301 0.3659 0.0323
vn 0.0186 -0.9992 -0.0362
vn -0.1773 -0.9743 -0.1387
vn -0.9002 -0.4122 -0.1405
vn -0.7413 -0.6690 -0.0530
vn -0.6152 -0.7787 -0.1228
vn -0.5853 -0.8021 -0.1188
vn -0.9590 -0.2731 -0.0755
vn -0.7463 -0.6578 -0.1013
vn -0.9510 -0.3090 -0.0050
vn 0.9063 -0.4183 -0.0599
vn 0.8045 -0.5917 -0.0522
vn 0.8038 -0.5936 -0.0392
vn 0.8797 -0.4735 -0.0438
vn 0.6129 0.7881 0.0572
vn 0.5115 -0.8561 -0.0746
vn 0.5928 0.7972 0.1144
vn 0.2890 0.9562 0.0463
vn 0.6548 0.7502 0.0917
vn 0.2880 0.9434 0.1646
vn 0.8737 0.4729 0.1141
vn -0.1042 -0.0973 0.9898
vn 0.1631 -0.5460 0.8218
vn -0.0500 0.0150 0.9986
vn 0.0424 -0.1677 -0.9849
vn 0.5442 -0.1351 0.8280
vn 0.1238 -0.4482 -0.8853
vn 0.2624 -0.2376 -0.9352
vn -0.3726 0.1231 0.9198
vn -0.4161 -0.9079 -0.0510
vn -0.0841 -0.0735 -0.9937
vn 0.5019 0.8630 0.0582
vn 0.3646 -0.3996 0.8410
vn 0.2446 0.9590 0.1431
vn 0.6630 0.7403 0.1113
vn 0.9409 -0.3382 -0.0206
vn 0.8787 -0.4773 -0.0044
vn -0.8173 -0.5761 0.0066
vn -0.8141 -0.5545 -0.1727
vn -0.7077 -0.6969 -0.1162
vn -0.8211 0.5652 0.0794
vn -0.9328 0.3525 0.0755
vn 0.7732 0.6337 0.0233
vn 0.6916 0.7221 0.0178
vn 0.6495 0.7566 0.0756
vn 0.6998 -0.7063 -0.1070
vn 0.7406 -0.6675 -0.0768
vn -0.7448 -0.6537 -0.1339
vn -0.5871 -0.8052 -0.0841
vn -0.1794 -0.9835 -0.0237
vn -0.6211 0.7788 0.0880
vn -0.7622 0.6424 0.0801
vn -0.8663 0.4995 0.0044
vn -0.8040 0.5942 0.0224
vn -0.7406 0.6683 0.0701
vn -0.5871 0.8018 0.1119
vn -0.8043 0.5936 0.0259
vn -0.6193 0.7848 0.0248
vn -0.9021 -0.4164 -0.1129
vn -0.5272 -0.8291 -0.1860
vn -0.7676 -0.6386 -0.0541
vn -0.7692 -0.6314 -0.0986
vn -0.5960 -0.7936 -0.1222
vn -0.7467 -0.6615 -0.0698
vn -0.7144 -0.6925 -0.0998
vn -0.7460 -0.6581 -0.1013
vn 0.9750 -0.2212 -0.0203
vn 0.9750 -0.2217 -0.0164
vn 0.9062 -0.4219 -0.0296
vn 0.5003 0.8617 0.0847
vn 0.5000 0.8593 0.1079
vn 0.5622 0.8245 0.0644
vn 0.6129 0.7832 0.1049
vn 0.7731 0.6237 0.1158
vn -0.1052 -0.0953 0.9899
vn 0.0055 -0.0422 -0.9991
vn -0.0643 0.0835 0.9944
vn -0.3204 -0.9463 -0.0422
vn 0.5217 0.8514 0.0549
vn 0.5200 0.8377 0.1667
vn 0.6490 0.7520 0.1154
vn 0.7540 -0.6563 -0.0280
vn 0.7428 -0.6669 -0.0582
vn -0.7526 -0.6583 -0.0125
vn 0.0194 -0.9949 -0.0985
vn -0.3180 -0.9261 -0.2031
s 0
usemtl Fence
f 20//1 2//1 66//1
f 24//2 4//2 64//2
f 14//3 28//3 61//3
f 60//4 9//4 30//4
f 59//5 11//5 35//5
f 66//6 8//6 50//6
f 54//7 41//7 16//7
f 23//8 33//8 54//8
f 60//9 54//9 55//9
f 39//10 25//10 21//10
f 56//11 38//11 15//11
f 34//12 19//12 56//12
f 35//13 4//13 26//13
f 13//14 35//14 26//14
f 23//15 61//15 34//15
f 60//16 61//16 23//16
f 14//17 62//17 28//17
f 64//18 4//18 39//18
f 7//19 66//19 18//19
f 26//20 36//20 13//20
f 63//21 27//21 1//21
f 30//22 3//22 62//22
f 60//23 14//23 61//23
f 59//24 22//24 11//24
f 57//25 15//25 37//25
f 6//26 56//26 19//26
f 55//27 16//27 40//27
f 39//28 4//28 25//28
f 41//29 33//29 12//29
f 22//30 42//30 11//30
f 44//31 43//31 17//31
f 45//32 31//32 10//32
f 18//33 49//33 46//33
f 7//34 46//34 48//34
f 48//35 29//35 7//35
f 48//36 28//36 62//36
f 48//37 3//37 29//37
f 6//38 49//38 47//38
f 1//39 50//39 8//39
f 19//40 28//40 49//40
f 28//41 46//41 49//41
f 27//42 47//42 50//42
f 50//43 18//43 66//43
f 17//44 51//44 45//44
f 51//45 5//45 31//45
f 9//46 51//46 43//46
f 7//47 52//47 44//47
f 52//48 3//48 30//48
f 52//49 9//49 43//49
f 2//50 53//50 22//50
f 20//51 44//51 53//51
f 42//52 44//52 17//52
f 10//53 55//53 40//53
f 60//54 23//54 54//54
f 55//55 5//55 60//55
f 21//56 40//56 39//56
f 12//57 57//57 37//57
f 40//58 16//58 39//58
f 57//59 23//59 34//59
f 26//60 24//60 58//60
f 34//61 56//61 57//61
f 24//62 37//62 58//62
f 36//63 37//63 15//63
f 13//64 59//64 35//64
f 8//65 2//65 59//65
f 2//66 22//66 59//66
f 28//67 34//67 61//67
f 1//68 8//68 59//68
f 60//69 30//69 14//69
f 60//70 5//70 9//70
f 25//71 35//71 32//71
f 32//72 21//72 25//72
f 14//73 30//73 62//73
f 13//74 63//74 1//74
f 11//75 32//75 35//75
f 63//76 15//76 38//76
f 63//77 6//77 27//77
f 64//78 16//78 41//78
f 64//79 12//79 24//79
f 32//80 42//80 65//80
f 42//81 45//81 65//81
f 21//82 45//82 10//82
f 66//83 2//83 8//83
f 7//84 20//84 66//84
f 26//85 58//85 36//85
f 57//86 56//86 15//86
f 6//87 38//87 56//87
f 55//88 54//88 16//88
f 41//89 54//89 33//89
f 22//90 53//90 42//90
f 44//91 52//91 43//91
f 45//92 51//92 31//92
f 18//93 47//93 49//93
f 7//94 18//94 46//94
f 48//95 46//95 28//95
f 48//96 62//96 3//96
f 6//97 19//97 49//97
f 1//98 27//98 50//98
f 27//99 6//99 47//99
f 50//100 47//100 18//100
f 17//101 43//101 51//101
f 51//102 9//102 5//102
f 7//103 29//103 52//103
f 52//104 29//104 3//104
f 52//105 30//105 9//105
f 2//106 20//106 53//106
f 20//107 7//107 44//107
f 42//108 53//108 44//108
f 10//109 31//109 55//109
f 55//110 31//110 5//110
f 21//111 10//111 40//111
f 12//112 33//112 57//112
f 57//113 33//113 23//113
f 26//114 4//114 24//114
f 24//115 12//115 37//115
f 36//116 58//116 37//116
f 13//117 1//117 59//117
f 28//118 19//118 34//118
f 25//119 4//119 35//119
f 32//120 65//120 21//120
f 13//121 36//121 63//121
f 63//122 36//122 15//122
f 63//123 38//123 6//123
f 64//124 39//124 16//124
f 64//125 41//125 12//125
f 32//126 11//126 42//126
f 42//127 17//127 45//127
f 21//128 65//128 45//128
