# Blender 4.1.1
# www.blender.org
mtllib Cube.058_Cube.062.mtl
o Cube.058_Cube.062
v -1.452122 0.111604 -1.212948
v -1.515833 0.100369 -1.206159
v -1.415487 -0.283755 -0.917006
v -1.450947 0.163873 -1.149449
v -1.415980 -0.236581 -0.849224
v -1.400720 -0.080553 -1.067991
v -1.459586 -0.111243 -1.056441
v -1.483476 0.112236 -1.215209
v -1.414968 -0.254659 -0.861865
v -1.470013 -0.042359 -0.992662
v -1.516593 0.133368 -1.178773
v -1.404316 -0.029409 -0.998856
v -1.448915 0.138848 -1.182629
v -1.380026 -0.274967 -0.873185
v -1.395021 -0.054515 -1.035473
v -1.437713 -0.034549 -0.993793
v -1.481878 -0.072382 -1.028273
v -1.437297 -0.090748 -1.068501
v -1.353441 -0.283403 -0.916657
v -1.492551 0.002726 -1.130109
v -1.499573 0.050859 -1.063752
v -1.532093 0.111846 -1.189580
v -1.354424 -0.230552 -0.852193
v -1.430446 0.060844 -1.075100
v -1.517451 0.157175 -1.145651
v -1.451047 0.149705 -1.165015
v -1.428269 0.010097 -1.143202
v -1.380334 -0.285920 -0.914931
v -1.441213 -0.194081 -0.998140
v -1.411264 -0.286555 -0.885104
v -1.445966 -0.137223 -0.921795
v -1.520357 0.138007 -1.157441
v -1.382504 -0.125344 -0.928615
v -1.352839 -0.268959 -0.899969
v -1.476497 0.146452 -1.163471
v -1.430233 0.039767 -1.103139
v -1.403177 -0.045477 -1.020580
v -1.402616 -0.067926 -1.050563
v -1.474338 0.060445 -1.075236
v -1.453074 -0.041370 -0.997377
v -1.425498 -0.034559 -0.998153
v -1.501422 0.025021 -1.097374
v -1.445992 -0.165823 -0.959421
v -1.468613 -0.081082 -1.044535
v -1.465925 -0.056332 -1.012655
v -1.411680 -0.186700 -0.999106
v -1.416387 -0.083406 -1.066201
v -1.424429 -0.188891 -0.995769
v -1.396948 -0.180334 -0.996367
v -1.444271 0.004015 -1.145577
v -1.457709 -0.155032 -0.940745
v -1.445463 -0.185238 -0.983475
v -1.496010 0.011403 -1.117367
v -1.406709 -0.152136 -0.913308
v -1.433868 -0.138248 -0.927459
v -1.378515 -0.168685 -0.960693
v -1.384533 -0.139250 -0.946233
v -1.435498 0.050687 -1.086778
v -1.485451 0.118197 -1.192901
v -1.403589 -0.235338 -0.849814
v -1.367132 -0.258725 -0.888789
v -1.395813 -0.299703 -0.903099
v -1.431513 0.027921 -1.118400
v -1.449743 0.059003 -1.070677
v -1.507150 0.033929 -1.083517
v -1.470279 0.013810 -1.145610
vn -0.2061 -0.6314 -0.7476
vn 0.1247 0.5968 0.7926
vn 0.8348 -0.5340 0.1340
vn 0.1199 -0.5753 0.8091
vn 0.0325 0.7160 -0.6973
vn -0.2185 -0.5828 -0.7827
vn 0.2715 0.5913 0.7593
vn -0.1084 0.5651 0.8178
vn -0.1057 0.6008 0.7924
vn 0.1186 0.6184 0.7769
vn 0.9233 -0.1080 -0.3687
vn 0.9749 0.1498 -0.1648
vn -0.1342 0.7333 -0.6666
vn -0.1390 0.8354 -0.5318
vn -0.0697 -0.7786 0.6236
vn 0.1066 -0.8054 0.5830
vn 0.7246 -0.6679 0.1699
vn -0.1124 0.5959 0.7951
vn 0.0865 -0.5735 -0.8146
vn 0.9822 0.1877 0.0032
vn 0.9769 0.2124 -0.0249
vn -0.6367 -0.7709 0.0166
vn 0.7440 0.0495 0.6663
vn -0.1308 0.5185 -0.8450
vn 0.8888 0.3799 0.2562
vn 0.9792 0.1990 -0.0392
vn -0.3969 0.4841 0.7798
vn -0.0126 0.5848 0.8111
vn -0.1117 0.5704 0.8137
vn -0.7876 0.2958 0.5405
vn -0.7690 -0.5434 -0.3366
vn -0.9660 -0.2578 -0.0173
vn 0.3573 -0.4828 -0.7995
vn -0.0904 -0.6383 -0.7645
vn 0.2734 -0.5123 -0.8141
vn -0.0123 -0.6433 -0.7655
vn 0.2899 -0.5951 -0.7496
vn 0.0133 -0.5827 -0.8125
vn 0.0505 -0.5274 -0.8481
vn 0.0063 -0.6101 -0.7923
vn 0.3708 -0.5299 -0.7627
vn 0.3296 -0.5749 -0.7489
vn -0.2340 -0.6238 -0.7458
vn -0.8049 0.3042 0.5095
vn -0.8788 0.0786 0.4707
vn -0.8244 -0.5237 -0.2147
vn -0.9631 -0.2584 -0.0756
vn -0.9691 -0.2214 0.1089
vn -0.9721 -0.1924 0.1339
vn -0.7572 -0.5381 -0.3701
vn -0.9482 -0.3148 -0.0430
vn -0.7949 -0.4490 -0.4081
vn 0.1821 0.5989 0.7798
vn -0.0205 0.6060 0.7952
vn -0.0248 0.6196 0.7845
vn 0.1184 0.6187 0.7767
vn 0.9870 0.1496 -0.0589
vn -0.4016 0.5019 0.7660
vn 0.9732 0.1938 -0.1235
vn 0.9425 -0.1032 -0.3179
vn 0.9740 0.2217 -0.0458
vn 0.9105 0.0218 -0.4129
vn 0.8654 0.4621 0.1935
vn -0.2376 0.7358 -0.6341
vn -0.3971 0.8773 -0.2696
vn -0.1475 0.7396 -0.6567
vn 0.0493 -0.7045 0.7080
vn 0.0379 0.9662 -0.2548
vn -0.1102 -0.5527 0.8261
vn 0.0958 -0.5668 0.8183
vn -0.2153 0.5351 -0.8169
vn -0.9743 0.0094 0.2249
vn 0.0544 -0.7834 0.6191
vn 0.9852 0.0620 -0.1599
vn -0.2156 0.9456 -0.2437
vn 0.9034 -0.0304 -0.4277
vn 0.9668 0.2498 -0.0531
vn 0.2608 0.6328 0.7291
vn 0.1076 0.6596 0.7439
vn -0.9386 -0.2709 -0.2138
vn -0.8853 -0.4597 -0.0704
vn -0.9555 -0.2948 0.0107
vn -0.0158 -0.5787 -0.8154
vn -0.2542 -0.5758 -0.7770
vn 0.9566 0.2576 0.1359
vn 0.9831 0.1758 0.0514
vn 0.9791 0.2000 -0.0384
vn -0.1648 0.5271 0.8336
vn -0.1151 0.5691 0.8142
vn -0.9372 -0.3484 -0.0164
vn -0.9820 -0.1568 0.1049
vn -0.9056 0.1979 0.3752
vn 0.2732 -0.5256 -0.8056
vn 0.0814 -0.5697 -0.8178
vn -0.0822 -0.6597 -0.7470
vn 0.0282 -0.6370 -0.7704
vn 0.1169 -0.5762 -0.8089
vn 0.3070 -0.4889 -0.8165
vn 0.0270 -0.6334 -0.7733
vn 0.2903 -0.5909 -0.7527
vn -0.8353 -0.4958 -0.2376
vn -0.9466 -0.2186 0.2368
vn -0.9529 -0.2848 -0.1044
vn -0.9399 -0.3339 -0.0710
vn -0.9706 -0.2048 0.1264
vn -0.9572 -0.2814 -0.0682
vn -0.9590 -0.2834 -0.0093
vn -0.9483 -0.3144 -0.0425
vn 0.3768 0.6138 0.6938
vn 0.3757 0.6179 0.6907
vn 0.1735 0.6314 0.7558
vn 0.9791 0.0888 -0.1828
vn 0.9729 0.1133 -0.2015
vn 0.9870 0.1158 -0.1117
vn 0.9749 0.2003 -0.0970
vn 0.9323 0.3562 0.0623
vn -0.2368 0.7350 -0.6354
vn 0.1121 -0.7534 0.6480
vn -0.1115 0.7172 -0.6879
vn -0.9527 0.0861 0.2915
vn 0.9874 0.0738 -0.1401
vn 0.9543 0.1920 -0.2291
vn 0.9677 0.2421 -0.0701
vn -0.1071 0.6230 0.7748
vn -0.1168 0.5894 0.7994
vn -0.9664 -0.2264 -0.1213
vn -0.7916 0.2399 0.5620
vn -0.9042 -0.0842 0.4188
s 0
usemtl Fence2
f 20//1 2//1 66//1
f 24//2 4//2 64//2
f 14//3 28//3 61//3
f 60//4 9//4 30//4
f 59//5 11//5 35//5
f 66//6 8//6 50//6
f 54//7 41//7 16//7
f 23//8 33//8 54//8
f 60//9 54//9 55//9
f 39//10 25//10 21//10
f 56//11 38//11 15//11
f 34//12 19//12 56//12
f 35//13 4//13 26//13
f 13//14 35//14 26//14
f 23//15 61//15 34//15
f 60//16 61//16 23//16
f 14//17 62//17 28//17
f 64//18 4//18 39//18
f 7//19 66//19 18//19
f 26//20 36//20 13//20
f 63//21 27//21 1//21
f 30//22 3//22 62//22
f 60//23 14//23 61//23
f 59//24 22//24 11//24
f 57//25 15//25 37//25
f 6//26 56//26 19//26
f 55//27 16//27 40//27
f 39//28 4//28 25//28
f 41//29 33//29 12//29
f 22//30 42//30 11//30
f 44//31 43//31 17//31
f 45//32 31//32 10//32
f 18//33 49//33 46//33
f 7//34 46//34 48//34
f 48//35 29//35 7//35
f 48//36 28//36 62//36
f 48//37 3//37 29//37
f 6//38 49//38 47//38
f 1//39 50//39 8//39
f 19//40 28//40 49//40
f 28//41 46//41 49//41
f 27//42 47//42 50//42
f 50//43 18//43 66//43
f 17//44 51//44 45//44
f 51//45 5//45 31//45
f 9//46 51//46 43//46
f 7//47 52//47 44//47
f 52//48 3//48 30//48
f 52//49 9//49 43//49
f 2//50 53//50 22//50
f 20//51 44//51 53//51
f 42//52 44//52 17//52
f 10//53 55//53 40//53
f 60//54 23//54 54//54
f 55//55 5//55 60//55
f 21//56 40//56 39//56
f 12//57 57//57 37//57
f 40//58 16//58 39//58
f 57//59 23//59 34//59
f 26//60 24//60 58//60
f 34//61 56//61 57//61
f 24//62 37//62 58//62
f 36//63 37//63 15//63
f 13//64 59//64 35//64
f 8//65 2//65 59//65
f 2//66 22//66 59//66
f 28//67 34//67 61//67
f 1//68 8//68 59//68
f 60//69 30//69 14//69
f 60//70 5//70 9//70
f 25//71 35//71 32//71
f 32//72 21//72 25//72
f 14//73 30//73 62//73
f 13//74 63//74 1//74
f 11//75 32//75 35//75
f 63//76 15//76 38//76
f 63//77 6//77 27//77
f 64//78 16//78 41//78
f 64//79 12//79 24//79
f 32//80 42//80 65//80
f 42//81 45//81 65//81
f 21//82 45//82 10//82
f 66//83 2//83 8//83
f 7//84 20//84 66//84
f 26//85 58//85 36//85
f 57//86 56//86 15//86
f 6//87 38//87 56//87
f 55//88 54//88 16//88
f 41//89 54//89 33//89
f 22//90 53//90 42//90
f 44//91 52//91 43//91
f 45//92 51//92 31//92
f 18//93 47//93 49//93
f 7//94 18//94 46//94
f 48//95 46//95 28//95
f 48//96 62//96 3//96
f 6//97 19//97 49//97
f 1//98 27//98 50//98
f 27//99 6//99 47//99
f 50//100 47//100 18//100
f 17//101 43//101 51//101
f 51//102 9//102 5//102
f 7//103 29//103 52//103
f 52//104 29//104 3//104
f 52//105 30//105 9//105
f 2//106 20//106 53//106
f 20//107 7//107 44//107
f 42//108 53//108 44//108
f 10//109 31//109 55//109
f 55//110 31//110 5//110
f 21//111 10//111 40//111
f 12//112 33//112 57//112
f 57//113 33//113 23//113
f 26//114 4//114 24//114
f 24//115 12//115 37//115
f 36//116 58//116 37//116
f 13//117 1//117 59//117
f 28//118 19//118 34//118
f 25//119 4//119 35//119
f 32//120 65//120 21//120
f 13//121 36//121 63//121
f 63//122 36//122 15//122
f 63//123 38//123 6//123
f 64//124 39//124 16//124
f 64//125 41//125 12//125
f 32//126 11//126 42//126
f 42//127 17//127 45//127
f 21//128 65//128 45//128
