# Blender 4.1.1
# www.blender.org
mtllib Cube.030_Cube.033.mtl
o Cube.030_Cube.033
v 3.957390 0.610227 -1.065800
v 3.902807 0.574845 -1.066326
v 4.168028 0.167844 -0.993953
v 3.951484 0.624668 -0.985040
v 4.162919 0.175595 -0.911893
v 4.091238 0.406924 -1.029303
v 4.048293 0.355296 -1.034850
v 3.927620 0.600363 -1.068038
v 4.167765 0.166917 -0.931612
v 4.026186 0.378941 -0.946116
v 3.895658 0.589140 -1.026526
v 4.082152 0.416175 -0.944214
v 3.956286 0.619949 -1.026101
v 4.205157 0.168160 -0.950636
v 4.093199 0.415578 -0.988204
v 4.053535 0.397561 -0.942810
v 4.019294 0.366190 -0.991945
v 4.060424 0.385544 -1.035265
v 4.225760 0.190531 -0.992383
v 3.968558 0.469430 -1.045730
v 3.956826 0.476231 -0.964579
v 3.886545 0.570824 -1.046569
v 4.217806 0.204227 -0.910536
v 4.016137 0.514616 -0.968559
v 3.892339 0.593318 -0.986076
v 3.953551 0.620092 -1.005482
v 4.023935 0.504709 -1.052577
v 4.201810 0.177925 -0.992543
v 4.101800 0.268164 -1.022864
v 4.177956 0.152725 -0.967191
v 4.090916 0.278405 -0.928733
v 3.894029 0.581943 -1.005638
v 4.145051 0.314235 -0.927931
v 4.224249 0.195010 -0.970816
v 3.931157 0.607491 -1.006128
v 4.018771 0.510139 -1.003251
v 4.085015 0.413273 -0.970949
v 4.088112 0.408680 -1.007998
v 3.975364 0.498395 -0.969644
v 4.040890 0.388030 -0.949487
v 4.064221 0.403958 -0.946430
v 3.958209 0.469637 -1.006484
v 4.094264 0.272026 -0.975443
v 4.031908 0.371244 -1.010149
v 4.031385 0.378040 -0.970279
v 4.126738 0.285354 -1.019666
v 4.077864 0.398096 -1.029370
v 4.116112 0.277429 -1.018006
v 4.138812 0.294666 -1.013961
v 4.010642 0.495002 -1.057850
v 4.082791 0.268151 -0.954091
v 4.097282 0.267223 -1.005834
v 3.964525 0.469508 -1.030454
v 4.133713 0.276692 -0.927705
v 4.101618 0.284519 -0.933984
v 4.157846 0.294795 -0.976735
v 4.144908 0.310095 -0.950084
v 4.012897 0.509758 -0.983757
v 3.927380 0.594455 -1.045630
v 4.173959 0.181379 -0.911599
v 4.209366 0.193121 -0.956360
v 4.193787 0.155728 -0.989004
v 4.019027 0.506890 -1.022336
v 3.999470 0.504107 -0.965894
v 3.952164 0.468576 -0.990159
v 3.983207 0.493548 -1.053662
vn -0.1043 -0.2530 -0.9618
vn 0.0470 0.1749 0.9835
vn 0.9737 -0.1923 -0.1226
vn 0.4291 -0.7899 0.4380
vn -0.3151 0.9098 -0.2701
vn -0.1373 -0.2020 -0.9697
vn 0.1803 0.2388 0.9542
vn -0.1557 0.0530 0.9864
vn -0.1689 0.0945 0.9811
vn 0.0317 0.1974 0.9798
vn 0.8366 0.4137 -0.3592
vn 0.8327 0.5508 -0.0561
vn -0.4711 0.8494 -0.2378
vn -0.4876 0.8702 -0.0707
vn 0.2893 -0.9412 0.1748
vn 0.4557 -0.8806 0.1295
vn 0.9206 -0.3577 -0.1569
vn -0.1732 0.0869 0.9810
vn 0.1386 -0.0692 -0.9879
vn 0.8539 0.5087 0.1097
vn 0.8364 0.5396 0.0968
vn -0.3380 -0.8676 -0.3648
vn 0.7829 0.0106 0.6221
vn -0.4260 0.7559 -0.4971
vn 0.7443 0.5174 0.4221
vn 0.8407 0.5359 0.0779
vn -0.4040 -0.1009 0.9092
vn -0.0740 0.1069 0.9915
vn -0.1612 0.0579 0.9852
vn -0.7444 -0.2886 0.6022
vn -0.5920 -0.5710 -0.5687
vn -0.8181 -0.5536 -0.1554
vn 0.3635 0.0963 -0.9266
vn 0.0030 -0.2089 -0.9779
vn 0.2928 0.0484 -0.9550
vn 0.0773 -0.1842 -0.9799
vn 0.3455 -0.0421 -0.9375
vn 0.0738 -0.1043 -0.9918
vn 0.0847 -0.0296 -0.9960
vn 0.0794 -0.1383 -0.9872
vn 0.3974 0.0463 -0.9165
vn 0.3760 -0.0115 -0.9266
vn -0.1324 -0.2577 -0.9571
vn -0.7682 -0.2741 0.5786
vn -0.7693 -0.4674 0.4355
vn -0.6306 -0.6300 -0.4532
vn -0.8245 -0.5267 -0.2068
vn -0.8128 -0.5819 -0.0272
vn -0.8212 -0.5706 0.0087
vn -0.5881 -0.5473 -0.5955
vn -0.7870 -0.5820 -0.2048
vn -0.6583 -0.4712 -0.5870
vn 0.0977 0.2032 0.9742
vn -0.0909 0.1285 0.9875
vn -0.1010 0.1428 0.9846
vn 0.0314 0.1976 0.9798
vn 0.8610 0.5073 0.0371
vn -0.4164 -0.0819 0.9055
vn 0.8234 0.5674 0.0012
vn 0.8610 0.4017 -0.3120
vn 0.8274 0.5555 0.0828
vn 0.7752 0.5348 -0.3362
vn 0.6857 0.6043 0.4059
vn -0.5631 0.7993 -0.2099
vn -0.7000 0.6924 0.1751
vn -0.4840 0.8453 -0.2263
vn 0.3893 -0.8755 0.2864
vn -0.3216 0.9164 0.2382
vn 0.2098 -0.8629 0.4598
vn 0.4050 -0.7960 0.4499
vn -0.5058 0.7261 -0.4659
vn -0.8748 -0.4479 0.1849
vn 0.4056 -0.8980 0.1708
vn 0.8719 0.4807 -0.0935
vn -0.5491 0.8024 0.2337
vn 0.7833 0.4964 -0.3743
vn 0.8103 0.5791 0.0897
vn 0.1519 0.2823 0.9472
vn 0.0027 0.2418 0.9703
vn -0.8195 -0.4658 -0.3337
vn -0.6853 -0.6649 -0.2970
vn -0.7917 -0.5926 -0.1482
vn 0.0449 -0.1103 -0.9929
vn -0.1720 -0.2119 -0.9620
vn 0.8283 0.4966 0.2593
vn 0.8663 0.4776 0.1464
vn 0.8403 0.5363 0.0791
vn -0.1933 -0.0056 0.9811
vn -0.1639 0.0554 0.9849
vn -0.7615 -0.6175 -0.1973
vn -0.8467 -0.5321 -0.0000
vn -0.8485 -0.3368 0.4081
vn 0.2982 0.0336 -0.9539
vn 0.1321 -0.0665 -0.9890
vn 0.0205 -0.2312 -0.9727
vn 0.1121 -0.1621 -0.9804
vn 0.1688 -0.0629 -0.9836
vn 0.3160 0.0808 -0.9453
vn 0.1094 -0.1583 -0.9813
vn 0.3439 -0.0372 -0.9383
vn -0.6535 -0.6010 -0.4602
vn -0.7725 -0.6291 0.0870
vn -0.8109 -0.5316 -0.2445
vn -0.7775 -0.5820 -0.2384
vn -0.8168 -0.5768 -0.0039
vn -0.8103 -0.5467 -0.2111
vn -0.8019 -0.5755 -0.1604
vn -0.7871 -0.5820 -0.2043
vn 0.2605 0.3249 0.9092
vn 0.2576 0.3292 0.9084
vn 0.0753 0.2375 0.9685
vn 0.8538 0.5107 -0.1010
vn 0.8370 0.5369 -0.1057
vn 0.8636 0.5035 -0.0254
vn 0.8270 0.5614 0.0276
vn 0.7617 0.6013 0.2413
vn -0.5623 0.7995 -0.2114
vn 0.4541 -0.8655 0.2116
vn -0.4481 0.8542 -0.2638
vn -0.8692 -0.4074 0.2803
vn 0.8732 0.4822 -0.0704
vn 0.7895 0.6067 -0.0927
vn 0.8109 0.5808 0.0711
vn -0.1803 0.1200 0.9763
vn -0.1744 0.0780 0.9816
vn -0.8453 -0.4813 -0.2318
vn -0.7263 -0.3454 0.5943
vn -0.7479 -0.5860 0.3117
s 0
usemtl Fence2
f 20//1 2//1 66//1
f 24//2 4//2 64//2
f 14//3 28//3 61//3
f 60//4 9//4 30//4
f 59//5 11//5 35//5
f 66//6 8//6 50//6
f 54//7 41//7 16//7
f 23//8 33//8 54//8
f 60//9 54//9 55//9
f 39//10 25//10 21//10
f 56//11 38//11 15//11
f 34//12 19//12 56//12
f 35//13 4//13 26//13
f 13//14 35//14 26//14
f 23//15 61//15 34//15
f 60//16 61//16 23//16
f 14//17 62//17 28//17
f 64//18 4//18 39//18
f 7//19 66//19 18//19
f 26//20 36//20 13//20
f 63//21 27//21 1//21
f 30//22 3//22 62//22
f 60//23 14//23 61//23
f 59//24 22//24 11//24
f 57//25 15//25 37//25
f 6//26 56//26 19//26
f 55//27 16//27 40//27
f 39//28 4//28 25//28
f 41//29 33//29 12//29
f 22//30 42//30 11//30
f 44//31 43//31 17//31
f 45//32 31//32 10//32
f 18//33 49//33 46//33
f 7//34 46//34 48//34
f 48//35 29//35 7//35
f 48//36 28//36 62//36
f 48//37 3//37 29//37
f 6//38 49//38 47//38
f 1//39 50//39 8//39
f 19//40 28//40 49//40
f 28//41 46//41 49//41
f 27//42 47//42 50//42
f 50//43 18//43 66//43
f 17//44 51//44 45//44
f 51//45 5//45 31//45
f 9//46 51//46 43//46
f 7//47 52//47 44//47
f 52//48 3//48 30//48
f 52//49 9//49 43//49
f 2//50 53//50 22//50
f 20//51 44//51 53//51
f 42//52 44//52 17//52
f 10//53 55//53 40//53
f 60//54 23//54 54//54
f 55//55 5//55 60//55
f 21//56 40//56 39//56
f 12//57 57//57 37//57
f 40//58 16//58 39//58
f 57//59 23//59 34//59
f 26//60 24//60 58//60
f 34//61 56//61 57//61
f 24//62 37//62 58//62
f 36//63 37//63 15//63
f 13//64 59//64 35//64
f 8//65 2//65 59//65
f 2//66 22//66 59//66
f 28//67 34//67 61//67
f 1//68 8//68 59//68
f 60//69 30//69 14//69
f 60//70 5//70 9//70
f 25//71 35//71 32//71
f 32//72 21//72 25//72
f 14//73 30//73 62//73
f 13//74 63//74 1//74
f 11//75 32//75 35//75
f 63//76 15//76 38//76
f 63//77 6//77 27//77
f 64//78 16//78 41//78
f 64//79 12//79 24//79
f 32//80 42//80 65//80
f 42//81 45//81 65//81
f 21//82 45//82 10//82
f 66//83 2//83 8//83
f 7//84 20//84 66//84
f 26//85 58//85 36//85
f 57//86 56//86 15//86
f 6//87 38//87 56//87
f 55//88 54//88 16//88
f 41//89 54//89 33//89
f 22//90 53//90 42//90
f 44//91 52//91 43//91
f 45//92 51//92 31//92
f 18//93 47//93 49//93
f 7//94 18//94 46//94
f 48//95 46//95 28//95
f 48//96 62//96 3//96
f 6//97 19//97 49//97
f 1//98 27//98 50//98
f 27//99 6//99 47//99
f 50//100 47//100 18//100
f 17//101 43//101 51//101
f 51//102 9//102 5//102
f 7//103 29//103 52//103
f 52//104 29//104 3//104
f 52//105 30//105 9//105
f 2//106 20//106 53//106
f 20//107 7//107 44//107
f 42//108 53//108 44//108
f 10//109 31//109 55//109
f 55//110 31//110 5//110
f 21//111 10//111 40//111
f 12//112 33//112 57//112
f 57//113 33//113 23//113
f 26//114 4//114 24//114
f 24//115 12//115 37//115
f 36//116 58//116 37//116
f 13//117 1//117 59//117
f 28//118 19//118 34//118
f 25//119 4//119 35//119
f 32//120 65//120 21//120
f 13//121 36//121 63//121
f 63//122 36//122 15//122
f 63//123 38//123 6//123
f 64//124 39//124 16//124
f 64//125 41//125 12//125
f 32//126 11//126 42//126
f 42//127 17//127 45//127
f 21//128 65//128 45//128
