# Blender 4.1.1
# www.blender.org
mtllib Cube.100_Cube.108.mtl
o Cube.100_Cube.108
v 2.595780 0.120269 -0.934731
v 2.610898 0.109461 -0.747560
v 2.600176 0.133694 -0.745047
v 2.567778 0.107393 -0.933995
v 2.559325 0.122986 -0.933959
v 2.572783 0.115841 -0.745248
v 2.592202 0.128966 -0.934623
v 2.595879 0.133599 -0.839363
v 2.583115 0.118657 -0.745099
v 2.580833 0.112837 -0.935079
v 2.580621 0.128257 -0.838565
v 2.590916 0.105001 -0.840839
v 2.606885 0.118950 -0.746019
v 2.589006 0.136935 -0.930398
v 2.599154 0.131205 -0.793185
v 2.579132 0.100910 -0.743275
v 2.604586 0.105783 -0.748982
v 2.560743 0.122627 -0.884017
v 2.581214 0.096340 -0.747918
v 2.581719 0.135352 -0.933369
v 2.593353 0.135908 -0.878041
v 2.604667 0.115234 -0.836929
v 2.595335 0.124737 -0.745149
v 2.577246 0.106510 -0.744927
v 2.588774 0.100455 -0.747311
v 2.569964 0.117681 -0.775648
v 2.568723 0.106228 -0.885675
v 2.565983 0.128245 -0.931931
v 2.588855 0.116674 -0.933486
v 2.588799 0.129687 -0.839085
v 2.571394 0.129195 -0.837813
v 2.583352 0.127786 -0.792222
v 2.597004 0.111154 -0.840897
v 2.585814 0.110568 -0.886675
v 2.592805 0.105744 -0.794355
v 2.574500 0.131593 -0.935438
v 2.572627 0.105118 -0.850977
v 2.570461 0.112727 -0.825728
v 2.598157 0.128663 -0.843913
v 2.598874 0.129101 -0.886455
v 2.603460 0.126314 -0.796680
v 2.600627 0.120676 -0.883208
v 2.563493 0.116348 -0.890016
v 2.573175 0.104887 -0.792940
v 2.592361 0.116628 -0.886773
v 2.577105 0.110503 -0.886026
v 2.573688 0.128138 -0.791476
v 2.569883 0.132832 -0.877622
v 2.583397 0.136228 -0.884836
v 2.589231 0.135475 -0.792166
v 2.585073 0.102684 -0.807136
v 2.565013 0.113431 -0.935041
v 2.604450 0.120157 -0.794296
vn -0.1515 -0.0501 -0.9872
vn 0.9183 0.3943 -0.0364
vn 0.0504 0.9805 0.1902
vn -0.7396 -0.6730 0.0043
vn 0.7882 0.6151 0.0196
vn 0.9774 0.2105 0.0187
vn 0.0547 -0.0409 0.9977
vn 0.0395 -0.0711 0.9967
vn -0.9076 -0.4192 0.0228
vn -0.9014 -0.4291 0.0576
vn -0.9546 -0.2977 0.0078
vn -0.1199 0.0410 -0.9919
vn -0.0089 -0.1747 -0.9846
vn -0.0032 -0.0202 -0.9998
vn 0.5046 -0.8585 -0.0918
vn 0.5166 -0.8514 -0.0910
vn -0.3833 0.9223 -0.0504
vn 0.1456 -0.9847 -0.0960
vn 0.3681 -0.9298 -0.0001
vn 0.4531 -0.8894 -0.0612
vn 0.9889 0.1411 -0.0464
vn -0.8598 0.4622 0.2172
vn 0.2781 -0.6193 0.7342
vn -0.9097 -0.4152 0.0078
vn 0.4810 -0.8745 -0.0623
vn -0.4794 0.8736 0.0835
vn 0.2302 -0.9658 -0.1190
vn 0.1077 0.9904 0.0864
vn 0.7007 -0.6948 -0.1624
vn 0.1835 -0.2462 0.9517
vn 0.3107 -0.9471 -0.0799
vn -0.8591 -0.5119 0.0042
vn 0.7440 0.6680 -0.0181
vn 0.9053 0.4237 -0.0292
vn 0.9084 0.4160 -0.0408
vn 0.7453 0.6649 -0.0489
vn 0.9813 0.1681 -0.0936
vn 0.8959 0.4430 -0.0321
vn 0.0373 0.0939 0.9949
vn -0.8872 -0.4559 0.0705
vn -0.0210 0.0243 0.9995
vn -0.1021 -0.2014 0.9742
vn -0.9964 0.0074 0.0842
vn -0.8815 -0.4707 0.0378
vn -0.8801 -0.4699 0.0679
vn 0.3163 -0.9452 -0.0813
vn 0.1138 0.5006 -0.8582
vn 0.4172 -0.3365 -0.8442
vn -0.4775 0.7686 -0.4258
vn 0.6780 -0.7333 -0.0516
vn 0.4518 -0.8914 -0.0355
vn 0.4868 -0.8602 -0.1519
vn 0.4531 -0.8909 -0.0303
vn -0.1096 -0.9902 -0.0871
vn 0.0039 -0.9989 -0.0472
vn 0.0380 0.9991 0.0209
vn -0.6927 0.6659 0.2769
vn -0.9118 0.4071 0.0544
vn -0.7440 0.6682 -0.0030
vn -0.7686 0.6338 0.0871
vn 0.0199 0.9996 0.0180
vn -0.2644 0.9635 -0.0418
vn -0.1604 0.9743 0.1582
vn 0.3824 0.9166 -0.1166
vn -0.7924 0.6063 -0.0675
vn -0.4385 0.8827 0.1688
vn 0.1759 0.0406 -0.9836
vn -0.7962 -0.6048 0.0123
vn -0.9438 0.3095 0.1161
vn 0.9077 0.4174 -0.0436
vn 0.9874 0.1181 -0.1050
vn 0.9227 0.3834 -0.0396
vn 0.3898 0.9192 -0.0558
vn -0.0702 0.9863 0.1493
vn 0.4503 -0.8894 -0.0791
vn 0.6699 -0.7262 -0.1545
vn 0.3394 -0.3921 0.8550
vn 0.8774 0.4740 -0.0749
vn 0.7645 0.6432 0.0418
vn 0.8961 0.4258 -0.1253
vn 0.9166 0.3787 -0.1280
vn -0.3194 0.1675 0.9327
vn -0.8348 -0.5487 0.0460
vn -0.9516 -0.2938 0.0906
vn 0.7107 -0.7033 -0.0176
vn 0.4439 -0.8918 -0.0875
vn 0.4555 -0.8895 -0.0351
vn 0.5223 -0.8405 -0.1444
vn 0.3838 -0.9233 -0.0148
vn -0.0016 -0.9927 -0.1204
vn 0.1015 0.9948 0.0041
vn -0.2632 0.9612 0.0826
vn -0.6240 0.7810 0.0233
vn -0.7871 0.6095 0.0948
vn -0.2082 0.9780 -0.0105
vn -0.4618 0.8870 -0.0000
vn -0.1603 0.9743 0.1582
vn -0.4797 0.8738 0.0793
vn -0.1710 0.9851 0.0201
vn -0.7730 0.5893 0.2349
vn 0.0309 -0.1004 -0.9945
vn -0.8768 -0.4760 0.0682
s 0
usemtl Bark
f 7//1 1//1 29//1
f 2//2 53//2 13//2
f 9//3 32//3 47//3
f 37//4 19//4 44//4
f 21//5 39//5 40//5
f 40//6 39//6 42//6
f 23//7 13//7 3//7
f 23//8 9//8 13//8
f 5//9 43//9 18//9
f 6//10 26//10 24//10
f 38//11 37//11 44//11
f 36//12 52//12 5//12
f 52//13 10//13 4//13
f 36//14 10//14 52//14
f 22//15 17//15 33//15
f 2//16 17//16 22//16
f 48//17 36//17 28//17
f 51//18 19//18 37//18
f 35//19 51//19 12//19
f 35//20 25//20 51//20
f 41//21 13//21 53//21
f 3//22 50//22 23//22
f 16//23 19//23 25//23
f 52//24 4//24 27//24
f 51//25 25//25 19//25
f 21//26 30//26 8//26
f 37//27 46//27 51//27
f 31//28 11//28 48//28
f 34//29 33//29 12//29
f 13//30 25//30 17//30
f 17//31 25//31 35//31
f 5//32 52//32 43//32
f 41//33 8//33 15//33
f 39//34 22//34 42//34
f 13//35 15//35 3//35
f 40//36 14//36 21//36
f 1//37 40//37 42//37
f 21//38 8//38 39//38
f 9//39 16//39 13//39
f 38//40 18//40 43//40
f 9//41 6//41 24//41
f 13//42 17//42 2//42
f 44//43 24//43 38//43
f 24//44 26//44 38//44
f 16//45 44//45 19//45
f 35//46 33//46 17//46
f 36//47 14//47 7//47
f 20//48 14//48 36//48
f 5//49 28//49 36//49
f 34//50 29//50 45//50
f 45//51 1//51 42//51
f 42//52 33//52 45//52
f 4//53 46//53 27//53
f 46//54 12//54 51//54
f 10//55 34//55 46//55
f 32//56 31//56 47//56
f 26//57 9//57 47//57
f 26//58 47//58 31//58
f 28//59 18//59 48//59
f 18//60 31//60 48//60
f 14//61 49//61 21//61
f 49//62 36//62 48//62
f 48//63 30//63 49//63
f 15//64 30//64 50//64
f 30//65 32//65 50//65
f 23//66 32//66 9//66
f 36//67 29//67 10//67
f 37//68 43//68 52//68
f 37//69 52//69 27//69
f 39//70 53//70 22//70
f 39//71 41//71 53//71
f 2//72 22//72 53//72
f 3//73 15//73 50//73
f 21//74 49//74 30//74
f 37//75 27//75 46//75
f 34//76 45//76 33//76
f 13//77 16//77 25//77
f 41//78 39//78 8//78
f 13//79 41//79 15//79
f 40//80 7//80 14//80
f 1//81 7//81 40//81
f 9//82 24//82 16//82
f 38//83 26//83 18//83
f 44//84 16//84 24//84
f 35//85 12//85 33//85
f 34//86 10//86 29//86
f 45//87 29//87 1//87
f 42//88 22//88 33//88
f 4//89 10//89 46//89
f 46//90 34//90 12//90
f 32//91 11//91 31//91
f 26//92 6//92 9//92
f 28//93 5//93 18//93
f 18//94 26//94 31//94
f 14//95 20//95 49//95
f 49//96 20//96 36//96
f 48//97 11//97 30//97
f 15//98 8//98 30//98
f 30//99 11//99 32//99
f 23//100 50//100 32//100
f 36//101 7//101 29//101
f 37//102 38//102 43//102
