# Blender 4.1.1
# www.blender.org
mtllib Cube.067_Cube.071.mtl
o Cube.067_Cube.071
v -17.069368 6.835654 -5.398067
v -17.231171 6.834224 -5.325016
v -16.930630 7.952095 -4.649072
v -17.140312 6.951961 -5.576488
v -17.005611 8.083024 -4.816515
v -16.916124 7.396194 -5.061094
v -17.056761 7.426115 -4.946430
v -17.149029 6.815289 -5.373514
v -16.983608 8.067156 -4.762696
v -17.167900 7.523360 -5.157726
v -17.271399 6.874644 -5.427239
v -17.002417 7.525691 -5.237064
v -17.097815 6.890370 -5.491072
v -16.873705 8.071823 -4.730744
v -16.938881 7.458680 -5.154614
v -17.088688 7.528114 -5.201751
v -17.156549 7.453732 -5.047126
v -17.003813 7.387439 -5.006542
v -16.771227 7.980495 -4.698682
v -17.162201 7.123870 -5.153312
v -17.253641 7.247404 -5.317020
v -17.291054 6.859063 -5.353209
v -16.848726 8.097775 -4.877583
v -17.074099 7.240756 -5.387844
v -17.310091 6.937684 -5.510478
v -17.121609 6.924720 -5.529493
v -16.992384 7.112902 -5.212515
v -16.840120 7.975037 -4.672609
v -16.997671 7.655401 -4.795154
v -16.939220 8.037643 -4.668562
v -17.095209 7.797720 -4.989823
v -17.298079 6.923183 -5.451478
v -16.934420 7.798397 -5.064275
v -16.789545 8.010571 -4.747580
v -17.186220 6.920094 -5.502567
v -17.042103 7.187969 -5.314662
v -16.975281 7.485003 -5.181784
v -16.940266 7.428628 -5.104012
v -17.186844 7.221081 -5.352453
v -17.121729 7.518085 -5.170010
v -17.054319 7.522501 -5.208095
v -17.220356 7.183660 -5.226207
v -17.052887 7.727025 -4.890580
v -17.106285 7.425919 -5.023799
v -17.135592 7.486559 -5.111268
v -16.925440 7.659711 -4.836061
v -16.955938 7.396227 -5.042991
v -16.959162 7.664411 -4.823029
v -16.893181 7.667705 -4.865553
v -17.028336 7.105017 -5.183007
v -17.102041 7.759841 -4.922125
v -17.023735 7.683065 -4.824721
v -17.184851 7.147143 -5.181677
v -16.990618 7.850004 -4.989212
v -17.059658 7.789628 -4.992578
v -16.876459 7.756550 -4.935179
v -16.919483 7.764841 -5.014935
v -17.073179 7.217677 -5.349886
v -17.172554 6.865954 -5.403181
v -16.974056 8.085988 -4.828886
v -16.840023 8.023644 -4.770256
v -16.879463 8.010302 -4.634509
v -17.028059 7.158941 -5.272801
v -17.125626 7.244975 -5.371362
v -17.249733 7.208548 -5.254193
v -17.101280 7.084681 -5.187266
vn 0.1281 -0.5281 0.8394
vn -0.2082 0.5679 -0.7963
vn 0.8746 0.4337 0.2167
vn 0.0452 0.9591 0.2794
vn 0.0405 -0.8751 -0.4823
vn 0.1141 -0.5786 0.8076
vn -0.0603 0.5627 -0.8244
vn -0.4273 0.5633 -0.7072
vn -0.4265 0.5286 -0.7340
vn -0.2149 0.5453 -0.8103
vn 0.9853 -0.1575 -0.0665
vn 0.9269 -0.0417 -0.3729
vn -0.1282 -0.8793 -0.4587
vn -0.1883 -0.7872 -0.5872
vn -0.0437 0.8204 0.5702
vn 0.1386 0.8201 0.5552
vn 0.7917 0.4921 0.3620
vn -0.4324 0.5315 -0.7283
vn 0.4078 -0.5612 0.7203
vn 0.8845 0.1040 -0.4548
vn 0.8808 0.0690 -0.4685
vn -0.4330 0.1587 0.8873
vn 0.5293 0.7277 -0.4362
vn -0.0336 -0.9762 -0.2144
vn 0.6920 0.2629 -0.6723
vn 0.8895 0.0604 -0.4529
vn -0.6723 0.5064 -0.5399
vn -0.3396 0.5664 -0.7509
vn -0.4305 0.5572 -0.7100
vn -0.9409 0.2797 -0.1910
vn -0.5229 -0.2656 0.8099
vn -0.8502 -0.0920 0.5184
vn 0.6394 -0.5318 0.5553
vn 0.2430 -0.5227 0.8172
vn 0.5704 -0.5497 0.6103
vn 0.3181 -0.5092 0.7997
vn 0.5887 -0.4602 0.6645
vn 0.3402 -0.5683 0.7492
vn 0.3716 -0.6132 0.6971
vn 0.3347 -0.5418 0.7710
vn 0.6537 -0.4801 0.5849
vn 0.6215 -0.4595 0.6345
vn 0.0997 -0.5335 0.8399
vn -0.9516 0.2452 -0.1855
vn -0.9615 0.2694 0.0537
vn -0.6092 -0.1674 0.7751
vn -0.8331 -0.1457 0.5336
vn -0.8918 0.0135 0.4522
vn -0.9073 0.0270 0.4197
vn -0.5047 -0.2966 0.8107
vn -0.8143 -0.0947 0.5726
vn -0.5509 -0.3669 0.7496
vn -0.1513 0.5647 -0.8113
vn -0.3479 0.5434 -0.7640
vn -0.3524 0.5284 -0.7724
vn -0.2151 0.5450 -0.8104
vn 0.9126 0.0592 -0.4045
vn -0.6774 0.4871 -0.5512
vn 0.9055 -0.0175 -0.4240
vn 0.9900 -0.1085 -0.0900
vn 0.8812 0.0460 -0.4706
vn 0.9550 -0.2425 -0.1705
vn 0.6668 0.1742 -0.7246
vn -0.2343 -0.8669 -0.4400
vn -0.5051 -0.5986 -0.6218
vn -0.1445 -0.8743 -0.4633
vn 0.0317 0.8947 0.4454
vn -0.1179 -0.5420 -0.8321
vn -0.1816 0.9299 0.3199
vn 0.0179 0.9610 0.2760
vn -0.1240 -0.9692 -0.2129
vn -0.9765 0.0466 0.2103
vn 0.0756 0.8381 0.5403
vn 0.9551 -0.0072 -0.2963
vn -0.3552 -0.5665 -0.7435
vn 0.9636 -0.2407 -0.1166
vn 0.8698 0.0291 -0.4925
vn -0.0723 0.5195 -0.8514
vn -0.2266 0.4995 -0.8362
vn -0.7735 -0.2665 0.5750
vn -0.7160 -0.0634 0.6952
vn -0.8388 -0.0522 0.5419
vn 0.3125 -0.5771 0.7546
vn 0.0774 -0.5814 0.8099
vn 0.8125 0.2011 -0.5472
vn 0.8763 0.1529 -0.4568
vn 0.8889 0.0608 -0.4541
vn -0.4759 0.5810 -0.6603
vn -0.4336 0.5575 -0.7079
vn -0.8030 -0.0572 0.5933
vn -0.9175 -0.0131 0.3974
vn -0.9902 0.1375 -0.0230
vn 0.5710 -0.5375 0.6205
vn 0.4028 -0.5662 0.7191
vn 0.2513 -0.4982 0.8299
vn 0.3562 -0.5091 0.7836
vn 0.4357 -0.5500 0.7125
vn 0.5974 -0.5540 0.5799
vn 0.3549 -0.5132 0.7814
vn 0.5889 -0.4644 0.6615
vn -0.6201 -0.1994 0.7588
vn -0.9024 0.1356 0.4090
vn -0.8106 -0.1623 0.5627
vn -0.7955 -0.1133 0.5953
vn -0.9013 0.0243 0.4326
vn -0.8242 -0.1304 0.5511
vn -0.8398 -0.0751 0.5377
vn -0.8147 -0.0944 0.5721
vn 0.0500 0.5117 -0.8577
vn 0.0488 0.5073 -0.8604
vn -0.1608 0.5304 -0.8323
vn 0.9489 -0.0382 -0.3132
vn 0.9421 -0.0645 -0.3290
vn 0.9330 0.0208 -0.3592
vn 0.8992 0.0053 -0.4375
vn 0.7854 0.0968 -0.6113
vn -0.2330 -0.8677 -0.4392
vn 0.1163 0.8649 0.4884
vn -0.0980 -0.8903 -0.4447
vn -0.9894 0.0876 0.1157
vn 0.9497 0.0079 -0.3131
vn 0.9137 -0.1186 -0.3887
vn 0.8765 0.0158 -0.4811
vn -0.4285 0.5048 -0.7494
vn -0.4361 0.5369 -0.7222
vn -0.8323 -0.1991 0.5174
vn -0.9374 0.3170 -0.1441
vn -0.9366 0.2690 0.2247
s 0
usemtl Fence
f 20//1 2//1 66//1
f 24//2 4//2 64//2
f 14//3 28//3 61//3
f 60//4 9//4 30//4
f 59//5 11//5 35//5
f 66//6 8//6 50//6
f 54//7 41//7 16//7
f 23//8 33//8 54//8
f 60//9 54//9 55//9
f 39//10 25//10 21//10
f 56//11 38//11 15//11
f 34//12 19//12 56//12
f 35//13 4//13 26//13
f 13//14 35//14 26//14
f 23//15 61//15 34//15
f 60//16 61//16 23//16
f 14//17 62//17 28//17
f 64//18 4//18 39//18
f 7//19 66//19 18//19
f 26//20 36//20 13//20
f 63//21 27//21 1//21
f 30//22 3//22 62//22
f 60//23 14//23 61//23
f 59//24 22//24 11//24
f 57//25 15//25 37//25
f 6//26 56//26 19//26
f 55//27 16//27 40//27
f 39//28 4//28 25//28
f 41//29 33//29 12//29
f 22//30 42//30 11//30
f 44//31 43//31 17//31
f 45//32 31//32 10//32
f 18//33 49//33 46//33
f 7//34 46//34 48//34
f 48//35 29//35 7//35
f 48//36 28//36 62//36
f 48//37 3//37 29//37
f 6//38 49//38 47//38
f 1//39 50//39 8//39
f 19//40 28//40 49//40
f 28//41 46//41 49//41
f 27//42 47//42 50//42
f 50//43 18//43 66//43
f 17//44 51//44 45//44
f 51//45 5//45 31//45
f 9//46 51//46 43//46
f 7//47 52//47 44//47
f 52//48 3//48 30//48
f 52//49 9//49 43//49
f 2//50 53//50 22//50
f 20//51 44//51 53//51
f 42//52 44//52 17//52
f 10//53 55//53 40//53
f 60//54 23//54 54//54
f 55//55 5//55 60//55
f 21//56 40//56 39//56
f 12//57 57//57 37//57
f 40//58 16//58 39//58
f 57//59 23//59 34//59
f 26//60 24//60 58//60
f 34//61 56//61 57//61
f 24//62 37//62 58//62
f 36//63 37//63 15//63
f 13//64 59//64 35//64
f 8//65 2//65 59//65
f 2//66 22//66 59//66
f 28//67 34//67 61//67
f 1//68 8//68 59//68
f 60//69 30//69 14//69
f 60//70 5//70 9//70
f 25//71 35//71 32//71
f 32//72 21//72 25//72
f 14//73 30//73 62//73
f 13//74 63//74 1//74
f 11//75 32//75 35//75
f 63//76 15//76 38//76
f 63//77 6//77 27//77
f 64//78 16//78 41//78
f 64//79 12//79 24//79
f 32//80 42//80 65//80
f 42//81 45//81 65//81
f 21//82 45//82 10//82
f 66//83 2//83 8//83
f 7//84 20//84 66//84
f 26//85 58//85 36//85
f 57//86 56//86 15//86
f 6//87 38//87 56//87
f 55//88 54//88 16//88
f 41//89 54//89 33//89
f 22//90 53//90 42//90
f 44//91 52//91 43//91
f 45//92 51//92 31//92
f 18//93 47//93 49//93
f 7//94 18//94 46//94
f 48//95 46//95 28//95
f 48//96 62//96 3//96
f 6//97 19//97 49//97
f 1//98 27//98 50//98
f 27//99 6//99 47//99
f 50//100 47//100 18//100
f 17//101 43//101 51//101
f 51//102 9//102 5//102
f 7//103 29//103 52//103
f 52//104 29//104 3//104
f 52//105 30//105 9//105
f 2//106 20//106 53//106
f 20//107 7//107 44//107
f 42//108 53//108 44//108
f 10//109 31//109 55//109
f 55//110 31//110 5//110
f 21//111 10//111 40//111
f 12//112 33//112 57//112
f 57//113 33//113 23//113
f 26//114 4//114 24//114
f 24//115 12//115 37//115
f 36//116 58//116 37//116
f 13//117 1//117 59//117
f 28//118 19//118 34//118
f 25//119 4//119 35//119
f 32//120 65//120 21//120
f 13//121 36//121 63//121
f 63//122 36//122 15//122
f 63//123 38//123 6//123
f 64//124 39//124 16//124
f 64//125 41//125 12//125
f 32//126 11//126 42//126
f 42//127 17//127 45//127
f 21//128 65//128 45//128
