# Blender 4.1.1
# www.blender.org
mtllib Cube.010.mtl
o Cube.010
v 6.596009 5.679572 4.248323
v 6.592190 5.846449 4.248991
v 6.655869 5.682099 3.959681
v 6.652051 5.848976 3.960350
v 9.550946 5.744745 4.861701
v 9.547125 5.911621 4.862369
v 9.610806 5.747274 4.573059
v 9.606986 5.914151 4.573730
v 6.594098 5.763011 4.248656
v 6.622119 5.847713 4.104669
v 6.653959 5.765537 3.960016
v 6.625940 5.680836 4.104001
v 8.129517 5.881563 4.267040
v 9.608896 5.830709 4.573394
v 8.133338 5.714686 4.266371
v 9.577057 5.912885 4.718050
v 9.549036 5.828186 4.862036
v 9.580875 5.746011 4.717381
v 8.069659 5.879036 4.555681
v 8.073477 5.712160 4.555013
v 8.099588 5.880300 4.411359
v 8.103407 5.713423 4.410691
v 8.071568 5.795598 4.555346
v 9.578964 5.829449 4.717713
v 8.131428 5.798125 4.266704
v 6.624030 5.764274 4.104336
v 6.593145 5.804729 4.248825
v 6.637084 5.848343 4.032510
v 6.654914 5.723818 3.959848
v 6.610973 5.680202 4.176162
v 8.868252 5.897857 4.420385
v 9.609852 5.788991 4.573227
v 7.394604 5.698393 4.113027
v 9.562093 5.912254 4.790211
v 9.549991 5.786467 4.861869
v 9.595840 5.746641 4.645220
v 7.330925 5.862742 4.402337
v 8.812212 5.728454 4.708355
v 6.595053 5.721292 4.248489
v 6.607155 5.847079 4.176830
v 6.653006 5.807257 3.960183
v 6.640904 5.681466 4.031843
v 7.390785 5.865270 4.113695
v 9.607941 5.872432 4.573561
v 8.872072 5.730980 4.419716
v 9.592022 5.913518 4.645888
v 9.548080 5.869905 4.862203
v 9.565911 5.745378 4.789542
v 8.808391 5.895330 4.709024
v 7.334743 5.695866 4.401668
v 7.360854 5.864006 4.258014
v 8.838323 5.896594 4.564704
v 8.084623 5.879667 4.483520
v 8.114553 5.880930 4.339201
v 8.842141 5.729717 4.564036
v 7.364672 5.697129 4.257346
v 8.088442 5.712790 4.482852
v 8.118374 5.714054 4.338530
v 8.072522 5.753879 4.555180
v 8.070612 5.837317 4.555512
v 8.810301 5.811892 4.708691
v 7.332832 5.779305 4.402000
v 9.579920 5.787727 4.717547
v 9.578012 5.871168 4.717883
v 9.593932 5.830079 4.645555
v 9.564000 5.828816 4.789875
v 8.132383 5.756406 4.266538
v 8.130472 5.839844 4.266870
v 7.392693 5.781831 4.113359
v 8.870162 5.814419 4.420049
v 6.624985 5.722555 4.104170
v 6.623075 5.805993 4.104502
v 6.609066 5.763641 4.176497
v 6.638994 5.764904 4.032175
v 6.638039 5.806623 4.032341
v 6.608110 5.805360 4.176663
v 6.610021 5.721922 4.176328
v 8.869206 5.856138 4.420216
v 7.391738 5.823550 4.113528
v 7.393648 5.740112 4.113193
v 9.563047 5.870535 4.790041
v 9.592977 5.871799 4.645722
v 9.594888 5.788360 4.645389
v 7.331880 5.821023 4.402167
v 8.809346 5.853611 4.708857
v 8.811256 5.770173 4.708524
v 7.379640 5.697760 4.185184
v 7.349708 5.696496 4.329507
v 8.827176 5.729084 4.636197
v 8.853288 5.897224 4.492543
v 8.823359 5.895961 4.636866
v 7.345890 5.863373 4.330175
v 7.375818 5.864636 4.185856
v 8.857108 5.730348 4.491875
v 7.333788 5.737585 4.401834
v 9.564956 5.787097 4.789708
v 8.871118 5.772699 4.419883
v 6.639949 5.723185 4.032009
vn -0.9789 -0.0216 -0.2032
vn 0.2031 0.0085 -0.9791
vn 0.9789 0.0216 0.2032
vn -0.2031 -0.0086 0.9791
vn 0.0229 -0.9997 -0.0040
vn -0.0229 0.9997 0.0040
vn -0.2030 -0.0086 0.9791
vn -0.2031 -0.0085 0.9791
vn 0.9789 0.0215 0.2032
vn 0.9789 0.0216 0.2033
vn 0.2031 0.0086 -0.9791
vn -0.9789 -0.0215 -0.2032
s 0
usemtl CHIM
f 98//1 3//1 42//1
f 97//2 7//2 45//2
f 96//3 5//3 48//3
f 95//4 1//4 50//4
f 45//5 36//5 94//5
f 93//6 4//6 28//6
f 51//6 40//6 92//6
f 52//6 53//6 91//6
f 31//6 54//6 90//6
f 89//5 18//5 48//5
f 88//5 22//5 57//5
f 87//5 15//5 58//5
f 86//7 20//7 38//7
f 85//8 23//8 61//8
f 27//8 62//8 84//8
f 83//9 18//9 36//9
f 82//10 24//10 65//10
f 81//9 17//9 66//9
f 67//2 33//2 80//2
f 68//11 69//11 79//11
f 44//2 70//2 78//2
f 77//12 12//12 30//12
f 76//1 26//1 73//1
f 75//1 11//1 74//1
f 72//1 74//1 26//1
f 28//1 72//1 10//1
f 28//1 41//1 75//1
f 76//12 9//12 27//12
f 40//1 27//1 2//1
f 40//1 72//1 76//1
f 39//1 30//1 1//1
f 73//1 39//1 9//1
f 26//1 77//1 73//1
f 78//11 25//11 68//11
f 31//11 68//11 13//11
f 31//11 44//11 78//11
f 41//2 69//2 11//2
f 4//2 79//2 41//2
f 43//11 68//11 79//11
f 80//2 3//2 29//2
f 69//11 29//11 11//11
f 25//2 80//2 69//2
f 81//9 24//9 64//9
f 16//3 81//3 64//3
f 34//3 47//3 81//3
f 82//3 14//3 44//3
f 46//3 44//3 8//3
f 16//3 82//3 46//3
f 32//3 36//3 7//3
f 14//3 83//3 32//3
f 65//3 63//3 83//3
f 84//4 23//4 60//4
f 37//4 60//4 19//4
f 37//7 27//7 84//7
f 47//4 61//4 17//4
f 6//8 85//8 47//8
f 19//4 85//4 49//4
f 35//4 38//4 5//4
f 17//4 86//4 35//4
f 61//8 59//8 86//8
f 87//5 22//5 56//5
f 42//5 56//5 12//5
f 42//5 33//5 87//5
f 50//5 57//5 20//5
f 1//5 88//5 50//5
f 12//5 88//5 30//5
f 89//5 5//5 38//5
f 57//5 38//5 20//5
f 57//5 55//5 89//5
f 52//6 54//6 21//6
f 16//6 90//6 52//6
f 8//6 90//6 46//6
f 49//6 53//6 19//6
f 6//6 91//6 49//6
f 16//6 91//6 34//6
f 92//6 2//6 37//6
f 53//6 37//6 19//6
f 21//6 92//6 53//6
f 93//6 10//6 51//6
f 21//6 93//6 51//6
f 13//6 93//6 54//6
f 94//5 18//5 55//5
f 58//5 55//5 22//5
f 58//5 45//5 94//5
f 59//4 50//4 20//4
f 23//8 95//8 59//8
f 62//4 39//4 95//4
f 96//3 18//3 63//3
f 66//3 63//3 24//3
f 66//3 35//3 96//3
f 97//2 15//2 67//2
f 70//2 67//2 25//2
f 14//11 97//11 70//11
f 98//1 12//1 71//1
f 26//1 98//1 71//1
f 74//1 29//1 98//1
f 98//1 29//1 3//1
f 97//11 32//11 7//11
f 96//3 35//3 5//3
f 95//8 39//8 1//8
f 45//5 7//5 36//5
f 93//6 43//6 4//6
f 51//6 10//6 40//6
f 52//6 21//6 53//6
f 31//6 13//6 54//6
f 89//5 55//5 18//5
f 88//5 56//5 22//5
f 87//5 33//5 15//5
f 86//4 59//4 20//4
f 85//4 60//4 23//4
f 27//4 9//4 62//4
f 83//3 63//3 18//3
f 82//9 64//9 24//9
f 81//3 47//3 17//3
f 67//11 15//11 33//11
f 68//11 25//11 69//11
f 44//11 14//11 70//11
f 77//1 71//1 12//1
f 76//1 72//1 26//1
f 75//12 41//12 11//12
f 72//1 75//1 74//1
f 28//1 75//1 72//1
f 28//1 4//1 41//1
f 76//1 73//1 9//1
f 40//1 76//1 27//1
f 40//1 10//1 72//1
f 39//12 77//12 30//12
f 73//1 77//1 39//1
f 26//1 71//1 77//1
f 78//11 70//11 25//11
f 31//11 78//11 68//11
f 31//11 8//11 44//11
f 41//11 79//11 69//11
f 4//11 43//11 79//11
f 43//11 13//11 68//11
f 80//2 33//2 3//2
f 69//11 80//11 29//11
f 25//11 67//11 80//11
f 81//9 66//9 24//9
f 16//3 34//3 81//3
f 34//3 6//3 47//3
f 82//3 65//3 14//3
f 46//3 82//3 44//3
f 16//3 64//3 82//3
f 32//9 83//9 36//9
f 14//3 65//3 83//3
f 65//3 24//3 63//3
f 84//8 62//8 23//8
f 37//4 84//4 60//4
f 37//4 2//4 27//4
f 47//8 85//8 61//8
f 6//8 49//8 85//8
f 19//4 60//4 85//4
f 35//4 86//4 38//4
f 17//8 61//8 86//8
f 61//8 23//8 59//8
f 87//5 58//5 22//5
f 42//5 87//5 56//5
f 42//5 3//5 33//5
f 50//5 88//5 57//5
f 1//5 30//5 88//5
f 12//5 56//5 88//5
f 89//5 48//5 5//5
f 57//5 89//5 38//5
f 57//5 22//5 55//5
f 52//6 90//6 54//6
f 16//6 46//6 90//6
f 8//6 31//6 90//6
f 49//6 91//6 53//6
f 6//6 34//6 91//6
f 16//6 52//6 91//6
f 92//6 40//6 2//6
f 53//6 92//6 37//6
f 21//6 51//6 92//6
f 93//6 28//6 10//6
f 21//6 54//6 93//6
f 13//6 43//6 93//6
f 94//5 36//5 18//5
f 58//5 94//5 55//5
f 58//5 15//5 45//5
f 59//8 95//8 50//8
f 23//4 62//4 95//4
f 62//4 9//4 39//4
f 96//3 48//3 18//3
f 66//3 96//3 63//3
f 66//3 17//3 35//3
f 97//11 45//11 15//11
f 70//11 97//11 67//11
f 14//2 32//2 97//2
f 98//1 42//1 12//1
f 26//1 74//1 98//1
f 74//1 11//1 29//1
