# Blender 4.1.1
# www.blender.org
mtllib Cube.015.mtl
o Cube.015
v 6.962136 5.848973 2.118205
v 9.775648 5.911649 3.254683
v 8.409554 5.881561 2.544766
v 9.815331 5.912883 3.112716
v 9.812252 5.745796 3.135928
v 8.367913 5.880298 2.686154
v 9.864290 5.829447 3.112538
v 6.878859 5.846446 2.400981
v 9.860636 5.914227 2.972430
v 6.965998 5.682096 2.117851
v 9.794512 5.912252 3.183411
v 9.777479 5.744753 3.253728
v 9.871143 5.855803 2.974982
v 9.860832 5.747272 2.970976
v 6.955196 5.848763 2.141769
v 9.091623 5.914225 2.899436
v 9.532455 5.906191 3.183010
v 8.388735 5.900467 2.615462
v 9.824168 5.782408 3.096580
v 9.842917 5.839739 3.079749
v 9.796441 5.828814 3.183234
v 9.842505 5.870533 3.183321
v 9.884146 5.871797 3.041935
v 6.882718 5.679569 2.400628
v 9.112442 5.897222 2.828741
v 9.070805 5.895958 2.970129
v 7.665025 5.864634 2.402179
v 9.844436 5.787095 3.183146
vn 0.0231 -0.9997 -0.0021
vn -0.0231 0.9997 0.0021
vn -0.0231 0.9997 0.0024
vn 0.4609 -0.5105 0.7259
vn -0.9590 -0.0216 -0.2826
vn 0.2825 0.0085 -0.9592
vn 0.2825 0.0086 -0.9592
vn 0.6459 0.7426 0.1772
vn 0.9605 0.1629 -0.2254
vn 0.7042 -0.4021 -0.5852
vn -0.2825 -0.0086 0.9592
vn -0.2825 -0.0084 0.9592
vn -0.0229 0.9997 0.0017
vn -0.0231 0.9997 0.0020
vn -0.1098 0.9697 0.2182
vn 0.5656 -0.6257 0.5372
vn 0.0231 -0.9997 -0.0020
vn 0.2825 0.0089 -0.9592
vn 0.6435 0.7399 0.1961
vn 0.6988 -0.0578 0.7129
vn 0.6448 -0.7622 0.0569
vn 0.9224 -0.2057 0.3268
vn 0.9592 -0.0087 0.2824
vn -0.1161 0.9636 0.2407
vn -0.0881 0.9704 0.2248
vn -0.0232 0.9997 0.0023
vn -0.1184 0.9635 0.2400
vn 0.6588 -0.7284 0.1880
vn 0.6438 0.7410 -0.1908
vn 0.9629 0.0090 0.2698
vn 0.6666 0.7152 -0.2100
vn 0.0742 0.9686 -0.2372
vn 0.9116 0.3951 -0.1138
vn 0.6562 0.7221 0.2189
vn 0.9644 -0.1006 0.2444
vn 0.0676 0.9744 -0.2145
vn 0.0652 0.9744 -0.2152
vn -0.0007 1.0000 0.0087
vn 0.0261 0.9676 -0.2511
vn 0.8641 -0.4712 -0.1768
vn 0.5520 -0.6486 0.5240
vn 0.4475 0.5132 0.7324
s 0
usemtl CHIM
f 14//1 5//1 24//1
f 1//2 15//2 27//2
f 26//3 6//3 17//3
f 2//4 21//4 22//4
f 15//5 24//5 8//5
f 9//6 10//6 3//6
f 3//7 10//7 1//7
f 11//8 2//8 22//8
f 9//9 23//9 13//9
f 7//10 19//10 20//10
f 8//11 24//11 17//11
f 17//12 24//12 2//12
f 24//11 12//11 2//11
f 26//13 17//13 2//13
f 6//14 27//14 15//14
f 26//15 16//15 6//15
f 7//16 22//16 21//16
f 24//17 5//17 12//17
f 10//1 14//1 24//1
f 3//2 25//2 9//2
f 9//18 13//18 10//18
f 22//19 4//19 11//19
f 23//20 4//20 20//20
f 23//21 20//21 13//21
f 14//22 20//22 19//22
f 19//23 5//23 14//23
f 16//24 18//24 6//24
f 25//2 4//2 9//2
f 11//25 16//25 26//25
f 11//26 26//26 2//26
f 8//2 6//2 15//2
f 27//2 3//2 1//2
f 6//27 18//27 27//27
f 5//28 28//28 12//28
f 19//29 21//29 28//29
f 12//30 21//30 2//30
f 13//7 14//7 10//7
f 15//5 10//5 24//5
f 1//5 10//5 15//5
f 7//31 20//31 22//31
f 3//32 18//32 25//32
f 22//33 20//33 4//33
f 23//34 9//34 4//34
f 14//35 13//35 20//35
f 16//36 25//36 18//36
f 25//37 16//37 4//37
f 11//38 4//38 16//38
f 8//2 17//2 6//2
f 27//39 18//39 3//39
f 5//40 19//40 28//40
f 19//41 7//41 21//41
f 12//42 28//42 21//42
