# Blender 4.1.1
# www.blender.org
mtllib Cube.009.mtl
o Cube.009
v 6.405974 5.679574 5.232132
v 6.402134 5.846450 5.232667
v 6.475753 5.682100 4.945726
v 6.471912 5.848977 4.946263
v 9.338000 5.744746 5.947057
v 9.379547 5.911623 5.947594
v 9.407779 5.747275 5.660653
v 9.403938 5.914152 5.661190
v 6.404053 5.763012 5.232400
v 6.437025 5.847713 5.089466
v 6.473834 5.765539 4.945996
v 6.440865 5.680837 5.088929
v 7.937924 5.881565 5.303725
v 9.405857 5.830711 5.660920
v 7.941764 5.714688 5.303191
v 9.369048 5.912887 5.804391
v 9.336079 5.828187 5.947327
v 9.372889 5.746012 5.803856
v 7.868146 5.879038 5.590132
v 7.871985 5.712161 5.589594
v 7.903037 5.880301 5.446929
v 7.906876 5.713425 5.446391
v 7.870067 5.795600 5.589862
v 9.370967 5.829451 5.804124
v 7.939846 5.798126 5.303458
v 6.438943 5.764276 5.089196
v 6.403095 5.804731 5.232533
v 6.454467 5.848344 5.017865
v 6.474792 5.723820 4.945862
v 6.423419 5.680204 5.160531
v 8.670930 5.897859 5.482458
v 9.406817 5.788992 5.660787
v 7.208759 5.698394 5.124458
v 9.351603 5.912256 5.875992
v 9.337040 5.786469 5.947193
v 9.390333 5.746643 5.732255
v 7.135140 5.862744 5.411399
v 8.604992 5.728455 5.768327
v 6.405014 5.721293 5.232266
v 6.419580 5.847080 5.161068
v 6.472874 5.807258 4.946129
v 6.458310 5.681468 5.017327
v 7.204919 5.865271 5.124996
v 9.404897 5.872433 5.661054
v 8.674773 5.730982 5.481920
v 9.431884 5.913519 5.732789
v 9.335118 5.869906 5.947460
v 9.355443 5.745379 5.875455
v 8.601151 5.895331 5.768862
v 7.138980 5.695868 5.410862
v 7.170031 5.864007 5.268196
v 8.636042 5.896595 5.625661
v 7.885591 5.879668 5.518530
v 7.920482 5.880932 5.375327
v 8.639882 5.729718 5.625124
v 7.173871 5.697131 5.267662
v 7.889431 5.712791 5.517993
v 7.924322 5.714055 5.374790
v 7.871025 5.753881 5.589728
v 7.869106 5.837318 5.589998
v 8.603073 5.811893 5.768594
v 7.137062 5.779306 5.411132
v 9.371927 5.787729 5.803990
v 9.370008 5.871170 5.804257
v 9.433802 5.830081 5.732522
v 9.353524 5.828818 5.875725
v 7.940806 5.756407 5.303324
v 7.938885 5.839846 5.303592
v 7.206840 5.781833 5.124725
v 8.672852 5.814420 5.482190
v 6.439905 5.722556 5.089063
v 6.437983 5.805995 5.089333
v 6.421498 5.763642 5.160798
v 6.456389 5.764906 5.017598
v 6.455429 5.806625 5.017731
v 6.420540 5.805362 5.160934
v 6.422459 5.721923 5.160665
v 8.671890 5.856139 5.482324
v 7.205879 5.823552 5.124859
v 7.207801 5.740113 5.124592
v 9.352564 5.870537 5.875858
v 9.387454 5.871800 5.732656
v 9.389373 5.788362 5.732388
v 7.136101 5.821025 5.411265
v 8.602113 5.853613 5.768728
v 8.604033 5.770175 5.768460
v 7.191313 5.697762 5.196060
v 7.156425 5.696498 5.339263
v 8.622437 5.729085 5.696725
v 8.653487 5.897225 5.554060
v 8.618597 5.895962 5.697263
v 7.152586 5.863374 5.339797
v 7.187476 5.864638 5.196597
v 8.657328 5.730349 5.553522
v 7.138022 5.737587 5.410998
v 9.399872 5.787098 5.875591
v 8.673812 5.772701 5.482054
v 6.457350 5.723186 5.017461
vn -0.9713 -0.0216 -0.2368
vn 0.2367 0.0086 -0.9715
vn 0.5878 -0.6277 0.5103
vn -0.2367 -0.0086 0.9715
vn 0.0230 -0.9997 -0.0032
vn -0.0230 0.9997 0.0032
vn 0.9713 0.0216 0.2368
vn 0.5759 0.6381 0.5110
vn 0.9713 0.0216 0.2369
vn 0.2367 0.0085 -0.9715
vn -0.9713 -0.0216 -0.2369
vn -0.9713 -0.0215 -0.2368
vn 0.9713 0.0215 0.2368
vn 0.5879 -0.6277 0.5103
vn -0.2367 -0.0085 0.9715
vn -0.2222 0.2337 0.9466
vn -0.0252 0.9995 0.0187
vn 0.5759 0.6382 0.5110
vn 0.6606 -0.7027 -0.2640
vn 0.6480 0.7207 -0.2465
vn 0.6607 -0.7027 -0.2640
vn -0.0191 0.9998 -0.0079
s 0
usemtl CHIM
f 29//1 42//1 98//1
f 32//2 45//2 97//2
f 35//3 48//3 96//3
f 39//4 50//4 95//4
f 45//5 36//5 94//5
f 43//6 28//6 93//6
f 92//6 10//6 40//6
f 91//6 21//6 53//6
f 31//6 54//6 90//6
f 55//5 48//5 89//5
f 56//5 57//5 88//5
f 87//5 15//5 58//5
f 59//4 38//4 86//4
f 85//4 23//4 61//4
f 27//4 62//4 84//4
f 63//7 36//7 83//7
f 82//8 24//8 65//8
f 47//9 66//9 81//9
f 80//10 15//10 33//10
f 68//2 69//2 79//2
f 44//2 70//2 78//2
f 77//11 12//11 30//11
f 72//12 73//12 76//12
f 75//1 11//1 74//1
f 75//11 26//11 72//11
f 10//11 75//11 72//11
f 28//11 41//11 75//11
f 76//12 9//12 27//12
f 40//11 27//11 2//11
f 40//1 72//1 76//1
f 77//11 1//11 39//11
f 73//11 39//11 9//11
f 73//1 71//1 77//1
f 78//2 25//2 68//2
f 31//2 68//2 13//2
f 31//10 44//10 78//10
f 79//2 11//2 41//2
f 43//2 41//2 4//2
f 13//2 79//2 43//2
f 29//2 33//2 3//2
f 11//10 80//10 29//10
f 25//2 80//2 69//2
f 81//7 24//7 64//7
f 34//7 64//7 16//7
f 34//7 47//7 81//7
f 82//7 14//7 44//7
f 8//13 82//13 44//13
f 16//14 82//14 46//14
f 32//7 36//7 7//7
f 14//7 83//7 32//7
f 24//14 83//14 65//14
f 60//4 62//4 23//4
f 19//15 84//15 60//15
f 37//4 27//4 84//4
f 47//15 61//15 17//15
f 49//16 47//16 6//16
f 49//4 60//4 85//4
f 86//4 5//4 35//4
f 17//4 86//4 35//4
f 23//4 86//4 61//4
f 56//5 58//5 22//5
f 12//5 87//5 56//5
f 42//5 33//5 87//5
f 88//5 20//5 50//5
f 30//5 50//5 1//5
f 12//5 88//5 30//5
f 38//5 48//5 5//5
f 57//5 38//5 20//5
f 57//5 55//5 89//5
f 52//6 54//6 21//6
f 16//6 90//6 52//6
f 8//17 90//17 46//17
f 49//6 53//6 19//6
f 34//17 49//17 6//17
f 34//6 52//6 91//6
f 37//6 40//6 2//6
f 19//6 92//6 37//6
f 53//6 51//6 92//6
f 93//6 10//6 51//6
f 21//6 93//6 51//6
f 13//6 93//6 54//6
f 55//5 36//5 18//5
f 58//5 55//5 22//5
f 58//5 45//5 94//5
f 95//4 20//4 59//4
f 62//15 59//15 23//15
f 62//4 39//4 95//4
f 63//9 48//9 18//9
f 66//7 63//7 24//7
f 66//18 35//18 96//18
f 97//10 15//10 67//10
f 25//2 97//2 67//2
f 14//2 97//2 70//2
f 98//1 12//1 71//1
f 74//11 71//11 26//11
f 74//1 29//1 98//1
f 29//1 3//1 42//1
f 32//2 7//2 45//2
f 35//7 5//7 48//7
f 39//4 1//4 50//4
f 45//5 7//5 36//5
f 43//6 4//6 28//6
f 92//6 51//6 10//6
f 91//6 52//6 21//6
f 31//6 13//6 54//6
f 55//5 18//5 48//5
f 56//5 22//5 57//5
f 87//5 33//5 15//5
f 59//15 20//15 38//15
f 85//4 60//4 23//4
f 27//15 9//15 62//15
f 63//7 18//7 36//7
f 82//7 64//7 24//7
f 47//9 17//9 66//9
f 80//10 67//10 15//10
f 68//2 25//2 69//2
f 44//2 14//2 70//2
f 77//1 71//1 12//1
f 72//1 26//1 73//1
f 75//11 41//11 11//11
f 75//11 74//11 26//11
f 10//1 28//1 75//1
f 28//1 4//1 41//1
f 76//12 73//12 9//12
f 40//1 76//1 27//1
f 40//12 10//12 72//12
f 77//1 30//1 1//1
f 73//11 77//11 39//11
f 73//1 26//1 71//1
f 78//2 70//2 25//2
f 31//2 78//2 68//2
f 31//2 8//2 44//2
f 79//2 69//2 11//2
f 43//2 79//2 41//2
f 13//2 68//2 79//2
f 29//10 80//10 33//10
f 11//2 69//2 80//2
f 25//2 67//2 80//2
f 81//7 66//7 24//7
f 34//7 81//7 64//7
f 34//19 6//19 47//19
f 82//20 65//20 14//20
f 8//19 46//19 82//19
f 16//9 64//9 82//9
f 32//7 83//7 36//7
f 14//21 65//21 83//21
f 24//9 63//9 83//9
f 60//4 84//4 62//4
f 19//4 37//4 84//4
f 37//4 2//4 27//4
f 47//4 85//4 61//4
f 49//4 85//4 47//4
f 49//4 19//4 60//4
f 86//15 38//15 5//15
f 17//4 61//4 86//4
f 23//15 59//15 86//15
f 56//5 87//5 58//5
f 12//5 42//5 87//5
f 42//5 3//5 33//5
f 88//5 57//5 20//5
f 30//5 88//5 50//5
f 12//5 56//5 88//5
f 38//5 89//5 48//5
f 57//5 89//5 38//5
f 57//5 22//5 55//5
f 52//6 90//6 54//6
f 16//22 46//22 90//22
f 8//6 31//6 90//6
f 49//6 91//6 53//6
f 34//6 91//6 49//6
f 34//6 16//6 52//6
f 37//6 92//6 40//6
f 19//6 53//6 92//6
f 53//6 21//6 51//6
f 93//6 28//6 10//6
f 21//6 54//6 93//6
f 13//6 43//6 93//6
f 55//5 94//5 36//5
f 58//5 94//5 55//5
f 58//5 15//5 45//5
f 95//4 50//4 20//4
f 62//4 95//4 59//4
f 62//4 9//4 39//4
f 63//21 96//21 48//21
f 66//20 96//20 63//20
f 66//7 17//7 35//7
f 97//2 45//2 15//2
f 25//2 70//2 97//2
f 14//10 32//10 97//10
f 98//1 42//1 12//1
f 74//1 98//1 71//1
f 74//12 11//12 29//12
