# Blender 4.1.1
# www.blender.org
mtllib Cube.009.mtl
o Cube.009
v 2.193228 -1.586152 -1.165494
v 2.191821 -1.585956 -1.226638
v 2.218795 -1.691092 -1.166420
v 2.217388 -1.690895 -1.227564
v 3.267529 -1.324202 -1.189373
v 3.282752 -1.324005 -1.250517
v 3.293096 -1.429141 -1.190300
v 3.291689 -1.428944 -1.251444
v 2.192524 -1.586054 -1.196066
v 2.204605 -1.638425 -1.227101
v 2.218092 -1.690993 -1.196992
v 2.206012 -1.638622 -1.165957
v 2.754538 -1.559920 -1.239504
v 3.292392 -1.429043 -1.220871
v 2.755945 -1.560116 -1.178360
v 3.278905 -1.376475 -1.250980
v 3.266825 -1.324103 -1.219946
v 3.280312 -1.376671 -1.189837
v 2.728971 -1.454980 -1.238578
v 2.730378 -1.455177 -1.177434
v 2.741755 -1.507450 -1.239041
v 2.743162 -1.507647 -1.177897
v 2.729675 -1.455079 -1.208006
v 3.279608 -1.376573 -1.220409
v 2.755242 -1.560018 -1.208932
v 2.205308 -1.638524 -1.196529
v 2.192173 -1.586005 -1.211352
v 2.210996 -1.664660 -1.227332
v 2.218443 -1.691042 -1.181706
v 2.199620 -1.612387 -1.165725
v 3.023113 -1.494432 -1.245474
v 3.292744 -1.429092 -1.205585
v 2.487370 -1.625604 -1.172390
v 3.272513 -1.350240 -1.250749
v 3.267177 -1.324152 -1.204660
v 3.286704 -1.402906 -1.190068
v 2.460396 -1.520468 -1.232608
v 2.998953 -1.389689 -1.183404
v 2.192876 -1.586103 -1.180780
v 2.198213 -1.612190 -1.226869
v 2.217740 -1.690944 -1.212278
v 2.212404 -1.664857 -1.166188
v 2.485963 -1.625407 -1.233534
v 3.292040 -1.428994 -1.236158
v 3.024521 -1.494629 -1.184330
v 3.301928 -1.402710 -1.251212
v 3.266473 -1.324054 -1.235232
v 3.273920 -1.350437 -1.189605
v 2.997546 -1.389493 -1.244548
v 2.461803 -1.520665 -1.171464
v 2.473180 -1.572938 -1.233071
v 3.010330 -1.441962 -1.245011
v 2.735363 -1.481215 -1.238809
v 2.748147 -1.533685 -1.239272
v 3.011737 -1.442159 -1.183867
v 2.474587 -1.573134 -1.171927
v 2.736770 -1.481412 -1.177665
v 2.749554 -1.533882 -1.178128
v 2.730026 -1.455128 -1.192720
v 2.729323 -1.455029 -1.223292
v 2.998250 -1.389591 -1.213976
v 2.461100 -1.520566 -1.202036
v 3.279960 -1.376622 -1.205122
v 3.279257 -1.376524 -1.235695
v 3.302631 -1.402808 -1.220640
v 3.273217 -1.350338 -1.220177
v 2.755594 -1.560067 -1.193646
v 2.754890 -1.559969 -1.224218
v 2.486667 -1.625506 -1.202962
v 3.023817 -1.494530 -1.214902
v 2.205660 -1.638573 -1.181243
v 2.204956 -1.638474 -1.211815
v 2.198916 -1.612289 -1.196297
v 2.211700 -1.664758 -1.196760
v 2.211348 -1.664709 -1.212046
v 2.198565 -1.612239 -1.211583
v 2.199268 -1.612338 -1.181011
v 3.023465 -1.494481 -1.230188
v 2.486315 -1.625457 -1.218248
v 2.487019 -1.625555 -1.187676
v 3.272865 -1.350289 -1.235463
v 3.285649 -1.402759 -1.235926
v 3.286352 -1.402857 -1.205354
v 2.460748 -1.520517 -1.217322
v 2.997898 -1.389542 -1.229262
v 2.998602 -1.389640 -1.198690
v 2.480978 -1.599369 -1.172158
v 2.468195 -1.546899 -1.171695
v 3.005345 -1.415924 -1.183635
v 3.016722 -1.468197 -1.245242
v 3.003938 -1.415727 -1.244779
v 2.466788 -1.546703 -1.232839
v 2.479572 -1.599172 -1.233302
v 3.018129 -1.468394 -1.184098
v 2.461452 -1.520615 -1.186750
v 3.290199 -1.350387 -1.204891
v 3.024169 -1.494580 -1.199616
v 2.212052 -1.664808 -1.181474
vn -0.9713 -0.2368 0.0216
vn 0.2367 -0.9715 -0.0086
vn 0.5878 0.5103 0.6277
vn -0.2367 0.9715 0.0086
vn 0.0230 -0.0032 0.9997
vn -0.0230 0.0032 -0.9997
vn 0.9713 0.2368 -0.0217
vn 0.5759 0.5110 -0.6382
vn 0.9713 0.2368 -0.0216
vn -0.9713 -0.2368 0.0215
vn -0.9713 -0.2369 0.0215
vn -0.9713 -0.2369 0.0216
vn 0.2367 -0.9715 -0.0085
vn 0.9713 0.2368 -0.0215
vn 0.5879 0.5103 0.6277
vn 0.5879 0.5104 0.6277
vn -0.2222 0.9466 -0.2337
vn -0.0252 0.0187 -0.9995
vn -0.2367 0.9715 0.0085
vn 0.9713 0.2369 -0.0216
vn 0.5759 0.5110 -0.6381
vn 0.6606 -0.2641 0.7027
vn 0.6480 -0.2465 -0.7207
vn 0.6606 -0.2640 0.7027
vn -0.0191 -0.0079 -0.9998
vn 0.6607 -0.2640 0.7027
s 0
usemtl CHIM
f 29//1 42//1 98//1
f 32//2 45//2 97//2
f 35//3 48//3 96//3
f 39//4 50//4 95//4
f 45//5 36//5 94//5
f 43//6 28//6 93//6
f 92//6 10//6 40//6
f 91//6 21//6 53//6
f 31//6 54//6 90//6
f 55//5 48//5 89//5
f 56//5 57//5 88//5
f 87//5 15//5 58//5
f 59//4 38//4 86//4
f 85//4 23//4 61//4
f 27//4 62//4 84//4
f 83//7 18//7 36//7
f 82//8 24//8 65//8
f 81//9 17//9 66//9
f 80//2 15//2 33//2
f 68//2 69//2 79//2
f 44//2 70//2 78//2
f 77//1 12//1 30//1
f 72//10 73//10 76//10
f 75//1 11//1 74//1
f 75//1 26//1 72//1
f 28//1 72//1 10//1
f 28//1 41//1 75//1
f 76//11 9//11 27//11
f 40//12 27//12 2//12
f 40//1 72//1 76//1
f 77//1 1//1 39//1
f 73//1 39//1 9//1
f 73//1 71//1 77//1
f 78//2 25//2 68//2
f 31//2 68//2 13//2
f 31//2 44//2 78//2
f 79//2 11//2 41//2
f 43//2 41//2 4//2
f 13//2 79//2 43//2
f 29//2 33//2 3//2
f 11//13 80//13 29//13
f 25//2 80//2 69//2
f 81//9 24//9 64//9
f 34//9 64//9 16//9
f 34//9 47//9 81//9
f 82//9 14//9 44//9
f 8//14 82//14 44//14
f 16//15 82//15 46//15
f 83//9 7//9 32//9
f 14//9 83//9 32//9
f 24//16 83//16 65//16
f 60//4 62//4 23//4
f 19//4 84//4 60//4
f 37//4 27//4 84//4
f 47//4 61//4 17//4
f 49//17 47//17 6//17
f 49//4 60//4 85//4
f 86//4 5//4 35//4
f 17//4 86//4 35//4
f 23//4 86//4 61//4
f 56//5 58//5 22//5
f 12//5 87//5 56//5
f 42//5 33//5 87//5
f 88//5 20//5 50//5
f 30//5 50//5 1//5
f 12//5 88//5 30//5
f 38//5 48//5 5//5
f 57//5 38//5 20//5
f 22//5 89//5 57//5
f 52//6 54//6 21//6
f 16//6 90//6 52//6
f 8//18 90//18 46//18
f 49//6 53//6 19//6
f 34//18 49//18 6//18
f 34//6 52//6 91//6
f 37//6 40//6 2//6
f 53//6 37//6 19//6
f 53//6 51//6 92//6
f 93//6 10//6 51//6
f 21//6 93//6 51//6
f 13//6 93//6 54//6
f 94//5 18//5 55//5
f 58//5 55//5 22//5
f 58//5 45//5 94//5
f 95//4 20//4 59//4
f 62//19 59//19 23//19
f 62//4 39//4 95//4
f 63//20 48//20 18//20
f 66//9 63//9 24//9
f 66//21 35//21 96//21
f 67//2 45//2 15//2
f 70//2 67//2 25//2
f 14//2 97//2 70//2
f 98//1 12//1 71//1
f 74//12 71//12 26//12
f 74//1 29//1 98//1
f 29//1 3//1 42//1
f 32//2 7//2 45//2
f 35//9 5//9 48//9
f 39//4 1//4 50//4
f 45//5 7//5 36//5
f 43//6 4//6 28//6
f 92//6 51//6 10//6
f 91//6 52//6 21//6
f 31//6 13//6 54//6
f 55//5 18//5 48//5
f 56//5 22//5 57//5
f 87//5 33//5 15//5
f 59//4 20//4 38//4
f 85//4 60//4 23//4
f 27//4 9//4 62//4
f 83//9 63//9 18//9
f 82//14 64//14 24//14
f 81//9 47//9 17//9
f 80//2 67//2 15//2
f 68//2 25//2 69//2
f 44//2 14//2 70//2
f 77//1 71//1 12//1
f 72//1 26//1 73//1
f 75//1 41//1 11//1
f 75//12 74//12 26//12
f 28//1 75//1 72//1
f 28//1 4//1 41//1
f 76//10 73//10 9//10
f 40//12 76//12 27//12
f 40//10 10//10 72//10
f 77//1 30//1 1//1
f 73//1 77//1 39//1
f 73//1 26//1 71//1
f 78//2 70//2 25//2
f 31//2 78//2 68//2
f 31//2 8//2 44//2
f 79//2 69//2 11//2
f 43//2 79//2 41//2
f 13//2 68//2 79//2
f 29//13 80//13 33//13
f 11//2 69//2 80//2
f 25//2 67//2 80//2
f 81//9 66//9 24//9
f 34//9 81//9 64//9
f 34//22 6//22 47//22
f 82//23 65//23 14//23
f 8//22 46//22 82//22
f 16//9 64//9 82//9
f 83//9 36//9 7//9
f 14//24 65//24 83//24
f 24//9 63//9 83//9
f 60//4 84//4 62//4
f 19//4 37//4 84//4
f 37//4 2//4 27//4
f 47//4 85//4 61//4
f 49//4 85//4 47//4
f 49//4 19//4 60//4
f 86//4 38//4 5//4
f 17//4 61//4 86//4
f 23//19 59//19 86//19
f 56//5 87//5 58//5
f 12//5 42//5 87//5
f 42//5 3//5 33//5
f 88//5 57//5 20//5
f 30//5 88//5 50//5
f 12//5 56//5 88//5
f 38//5 89//5 48//5
f 57//5 89//5 38//5
f 22//5 55//5 89//5
f 52//6 90//6 54//6
f 16//25 46//25 90//25
f 8//6 31//6 90//6
f 49//6 91//6 53//6
f 34//6 91//6 49//6
f 34//6 16//6 52//6
f 37//6 92//6 40//6
f 53//6 92//6 37//6
f 53//6 21//6 51//6
f 93//6 28//6 10//6
f 21//6 54//6 93//6
f 13//6 43//6 93//6
f 94//5 36//5 18//5
f 58//5 94//5 55//5
f 58//5 15//5 45//5
f 95//4 50//4 20//4
f 62//4 95//4 59//4
f 62//4 9//4 39//4
f 63//26 96//26 48//26
f 66//23 96//23 63//23
f 66//9 17//9 35//9
f 67//2 97//2 45//2
f 70//2 97//2 67//2
f 14//2 32//2 97//2
f 98//1 42//1 12//1
f 74//1 98//1 71//1
f 74//1 11//1 29//1
