# Blender 4.1.1
# www.blender.org
mtllib Cylinder.016_Cylinder.026.mtl
o Cylinder.016_Cylinder.026
v 9.205351 4.452224 5.579408
v 9.161284 4.393491 5.639023
v 9.046405 5.759517 5.711297
v 9.075046 5.252347 5.682471
v 9.045131 4.414852 5.638995
v 8.980453 4.964576 5.679491
v 8.975393 4.504353 5.580712
v 8.885711 5.728346 5.694908
v 8.941031 4.432003 5.430228
v 8.850713 5.729857 5.584736
v 8.832422 5.817851 5.520091
v 8.919315 5.826642 5.445504
v 8.942557 5.002523 5.434392
v 8.948374 5.099848 5.638189
v 9.017448 5.048397 5.701538
v 9.146189 5.203627 5.420175
v 9.040589 5.834311 5.459207
v 9.224112 4.500484 5.449024
v 9.195905 4.557616 5.536982
v 9.113408 5.813258 5.661756
v 8.937675 4.438559 5.543368
v 8.821431 5.806361 5.646925
v 9.150512 4.454803 5.349128
v 9.177231 4.536931 5.417883
v 9.093086 5.840612 5.509371
v 9.117379 5.788086 5.567286
v 9.041171 5.497449 5.726622
v 8.977972 5.725901 5.718027
v 8.956960 5.455080 5.407210
v 8.926529 5.354693 5.456902
v 9.043744 5.111201 5.408600
v 9.240748 4.443048 5.482394
v 9.136893 5.359595 5.566642
v 9.168105 5.326828 5.500209
v 9.101517 5.221891 5.411728
v 9.144349 4.785608 5.434348
v 9.199049 4.859075 5.576869
v 9.127167 5.242669 5.648726
v 9.181801 4.693647 5.612609
v 9.097139 4.519874 5.627522
v 8.947536 4.749413 5.621752
v 8.880230 5.351377 5.465158
v 9.028223 4.489207 5.357831
v 8.883210 5.149580 5.532095
v 8.884362 5.196744 5.615719
v 8.912006 5.743646 5.731586
vn 0.9523 0.1438 -0.2690
vn 0.8334 0.0157 0.5525
vn -0.8281 -0.0262 -0.5600
vn -0.1814 0.0967 -0.9786
vn -0.8329 -0.1103 0.5423
vn 0.6723 0.1573 -0.7233
vn 0.2232 0.0974 -0.9699
vn 0.9119 0.0409 0.4083
vn 0.9829 0.0141 -0.1838
vn 0.5437 -0.0754 0.8359
vn 0.3590 -0.0761 0.9302
vn -0.3274 -0.0805 0.9414
vn -0.7784 -0.1330 0.6136
vn -0.7618 -0.1903 0.6193
vn -0.9916 -0.1061 0.0735
vn -0.9967 -0.0767 -0.0251
vn 0.2944 0.0704 -0.9531
vn -0.0477 0.0824 -0.9955
vn -0.9090 -0.0444 -0.4144
vn -0.6416 0.0073 -0.7670
vn -0.4074 0.0078 -0.9132
vn -0.5745 0.0261 -0.8181
vn -0.8226 -0.0317 -0.5677
vn -0.4940 -0.1269 0.8601
vn -0.6749 -0.1070 0.7301
vn -0.3461 -0.0928 0.9336
vn 0.5411 -0.0172 0.8408
vn 0.9985 0.0454 0.0299
vn 0.8815 0.1368 -0.4519
vn 0.4153 -0.9066 0.0751
vn -0.2104 0.9359 0.2825
vn 0.9653 0.0819 -0.2481
vn -0.9110 -0.0136 -0.4122
vn 0.5966 -0.0039 0.8026
vn 0.1722 -0.0341 -0.9845
vn 0.9479 0.1116 -0.2984
vn 0.5986 0.0899 -0.7960
vn 0.2989 0.1023 -0.9488
vn 0.9692 -0.0126 -0.2460
vn 0.9589 0.1318 -0.2513
vn 0.9113 0.0364 0.4102
vn 0.6468 -0.1067 0.7552
vn 0.7097 0.0010 0.7045
vn 0.8684 0.0165 0.4957
vn 0.5433 -0.0012 0.8395
vn 0.8055 -0.0029 0.5925
vn 0.1045 0.1124 -0.9881
vn -0.2728 -0.0393 0.9613
vn 0.0700 0.0568 0.9959
vn 0.4739 -0.0517 0.8791
vn -0.3190 -0.1069 0.9417
vn -0.9229 -0.1058 0.3702
vn -0.5792 -0.1275 0.8052
vn -0.8266 -0.0244 0.5622
vn -0.4934 -0.1979 0.8470
vn -0.3873 -0.0423 0.9210
vn -0.9956 -0.0754 0.0562
vn -0.0904 0.0753 -0.9931
vn -0.1791 0.0546 -0.9823
vn -0.6494 -0.0283 -0.7599
vn 0.0417 0.0065 -0.9991
vn -0.9967 -0.0763 -0.0285
vn -0.9810 -0.0713 0.1805
vn 0.1981 -0.0123 0.9801
vn -0.2263 -0.6130 -0.7570
vn 0.2382 -0.4354 -0.8681
vn 0.3311 -0.6667 0.6677
vn 0.8523 -0.5201 0.0554
vn 0.3754 -0.2824 -0.8828
vn -0.5546 -0.3502 -0.7549
vn -0.8710 -0.4426 0.2134
vn -0.5554 -0.3529 -0.7530
vn -0.0563 -0.8947 0.4430
vn 0.4083 -0.9080 0.0937
vn 0.1637 -0.1378 0.9768
vn -0.7017 0.6805 -0.2108
vn -0.6579 0.3996 0.6383
vn -0.0675 0.9970 0.0389
vn 0.8172 0.5181 -0.2525
vn 0.1787 0.6064 0.7748
vn 0.1799 0.9442 0.2760
vn -0.1546 0.9463 -0.2839
vn -0.4041 0.9038 0.1408
vn 0.8507 0.1459 -0.5049
vn 0.9881 0.1207 -0.0956
vn 0.8096 0.0421 0.5854
vn 0.6344 0.0246 0.7726
vn 0.1822 0.0940 -0.9788
s 0
usemtl Bark
f 25//1 26//1 34//1
f 4//2 3//2 27//2
f 12//3 29//3 30//3
f 42//4 11//4 30//4
f 45//5 21//5 41//5
f 17//6 25//6 16//6
f 35//7 17//7 16//7
f 34//8 26//8 33//8
f 19//9 37//9 1//9
f 4//10 27//10 15//10
f 40//11 15//11 5//11
f 4//12 40//12 2//12
f 46//13 8//13 14//13
f 41//14 7//14 5//14
f 45//15 22//15 44//15
f 21//16 44//16 9//16
f 29//17 31//17 43//17
f 43//18 31//18 23//18
f 11//19 42//19 9//19
f 13//20 43//20 9//20
f 9//21 42//21 13//21
f 13//22 30//22 43//22
f 30//23 29//23 43//23
f 8//24 45//24 14//24
f 8//25 22//25 45//25
f 46//26 6//26 15//26
f 3//27 4//27 38//27
f 33//28 26//28 20//28
f 16//29 25//29 34//29
f 19//30 40//30 9//30
f 3//31 17//31 8//31
f 36//32 23//32 35//32
f 44//33 22//33 10//33
f 38//34 20//34 3//34
f 35//35 16//35 36//35
f 37//36 33//36 20//36
f 24//37 34//37 18//37
f 24//38 36//38 34//38
f 36//39 16//39 34//39
f 18//40 33//40 32//40
f 18//41 34//41 33//41
f 32//42 37//42 19//42
f 38//43 37//43 20//43
f 37//44 39//44 1//44
f 4//45 39//45 38//45
f 1//46 39//46 2//46
f 17//47 29//47 12//47
f 27//48 28//48 15//48
f 3//49 28//49 27//49
f 4//50 15//50 40//50
f 5//51 15//51 6//51
f 6//52 46//52 14//52
f 6//53 41//53 5//53
f 6//54 14//54 41//54
f 7//55 41//55 21//55
f 41//56 14//56 45//56
f 45//57 44//57 21//57
f 31//58 35//58 23//58
f 42//59 30//59 13//59
f 11//60 12//60 30//60
f 31//61 29//61 35//61
f 44//62 11//62 9//62
f 10//63 11//63 44//63
f 15//64 28//64 46//64
f 9//65 43//65 23//65
f 24//66 18//66 32//66
f 9//67 23//67 24//67
f 7//68 21//68 9//68
f 40//69 5//69 7//69
f 1//70 2//70 40//70
f 24//71 32//71 19//71
f 19//72 1//72 40//72
f 40//73 7//73 9//73
f 9//74 24//74 19//74
f 46//75 28//75 3//75
f 3//76 20//76 26//76
f 26//77 25//77 17//77
f 17//78 12//78 11//78
f 10//79 22//79 8//79
f 17//80 11//80 10//80
f 3//81 26//81 17//81
f 8//82 46//82 3//82
f 17//83 10//83 8//83
f 36//84 24//84 23//84
f 37//85 32//85 33//85
f 38//86 39//86 37//86
f 4//87 2//87 39//87
f 17//88 35//88 29//88
