# Blender 4.1.1
# www.blender.org
mtllib Cylinder.016_Cylinder.026.mtl
o Cylinder.016_Cylinder.026
v 3.218926 -1.458910 -0.715790
v 3.202780 -1.437067 -0.694270
v 3.160688 -1.410585 -1.194785
v 3.171182 -1.421147 -1.008957
v 3.160221 -1.437077 -0.702097
v 3.136523 -1.422239 -0.903517
v 3.134669 -1.458432 -0.734890
v 3.101809 -1.416590 -1.183364
v 3.122079 -1.513570 -0.708381
v 3.088986 -1.456957 -1.183918
v 3.082284 -1.480643 -1.216159
v 3.114122 -1.507972 -1.219380
v 3.122638 -1.512044 -0.917421
v 3.124769 -1.437372 -0.953081
v 3.150078 -1.414161 -0.934229
v 3.197249 -1.517253 -0.991106
v 3.158557 -1.502951 -1.222190
v 3.225800 -1.506683 -0.733473
v 3.215465 -1.474455 -0.754406
v 3.185238 -1.428737 -1.214476
v 3.120849 -1.472115 -0.710783
v 3.078257 -1.434171 -1.211949
v 3.198833 -1.543285 -0.716735
v 3.208623 -1.518093 -0.746827
v 3.177792 -1.484571 -1.224499
v 3.186693 -1.463351 -1.205253
v 3.158770 -1.404970 -1.098763
v 3.135614 -1.408119 -1.182468
v 3.127915 -1.522003 -1.083239
v 3.116765 -1.503796 -1.046457
v 3.159713 -1.521494 -0.957241
v 3.231896 -1.494456 -0.712428
v 3.193843 -1.463587 -1.048253
v 3.205279 -1.487928 -1.036247
v 3.180881 -1.520348 -0.997798
v 3.196575 -1.512060 -0.837943
v 3.216617 -1.459840 -0.864861
v 3.190279 -1.433511 -1.005411
v 3.210297 -1.446745 -0.804248
v 3.179277 -1.441281 -0.740577
v 3.124462 -1.443395 -0.824681
v 3.099801 -1.500771 -1.045242
v 3.154026 -1.540096 -0.729341
v 3.100893 -1.476245 -0.971303
v 3.101315 -1.445605 -0.988584
v 3.111444 -1.403151 -1.188970
vn 0.9523 -0.2690 -0.1439
vn 0.8334 0.5525 -0.0157
vn -0.8281 -0.5600 0.0262
vn -0.1814 -0.9786 -0.0967
vn -0.8329 0.5423 0.1103
vn 0.6723 -0.7234 -0.1573
vn 0.2232 -0.9699 -0.0974
vn 0.9119 0.4083 -0.0409
vn 0.9829 -0.1839 -0.0141
vn 0.5437 0.8359 0.0754
vn 0.3590 0.9302 0.0761
vn -0.3274 0.9414 0.0805
vn -0.7784 0.6135 0.1330
vn -0.7618 0.6193 0.1903
vn -0.9916 0.0735 0.1061
vn -0.9967 -0.0251 0.0767
vn 0.2944 -0.9531 -0.0704
vn -0.0476 -0.9955 -0.0824
vn -0.9091 -0.4143 0.0444
vn -0.6416 -0.7670 -0.0073
vn -0.4074 -0.9132 -0.0078
vn -0.5745 -0.8181 -0.0261
vn -0.8226 -0.5677 0.0317
vn -0.4940 0.8602 0.1269
vn -0.6749 0.7301 0.1070
vn -0.3460 0.9336 0.0928
vn 0.5411 0.8408 0.0172
vn 0.9985 0.0299 -0.0454
vn 0.8815 -0.4519 -0.1368
vn 0.4153 0.0751 0.9066
vn -0.2104 0.2825 -0.9359
vn 0.9653 -0.2481 -0.0819
vn -0.9110 -0.4122 0.0136
vn 0.5966 0.8026 0.0039
vn 0.1722 -0.9845 0.0341
vn 0.9479 -0.2983 -0.1116
vn 0.5986 -0.7960 -0.0899
vn 0.2989 -0.9488 -0.1023
vn 0.9692 -0.2460 0.0126
vn 0.9589 -0.2513 -0.1318
vn 0.9113 0.4102 -0.0364
vn 0.6468 0.7552 0.1067
vn 0.7097 0.7045 -0.0010
vn 0.8684 0.4957 -0.0165
vn 0.5433 0.8395 0.0012
vn 0.8055 0.5926 0.0029
vn 0.1045 -0.9881 -0.1124
vn -0.2728 0.9613 0.0393
vn 0.0700 0.9959 -0.0568
vn 0.4739 0.8791 0.0517
vn -0.3190 0.9417 0.1069
vn -0.9229 0.3702 0.1058
vn -0.5792 0.8052 0.1275
vn -0.8267 0.5622 0.0244
vn -0.4934 0.8470 0.1979
vn -0.3873 0.9210 0.0423
vn -0.9956 0.0562 0.0754
vn -0.0904 -0.9931 -0.0753
vn -0.1791 -0.9823 -0.0546
vn -0.6494 -0.7599 0.0283
vn 0.0417 -0.9991 -0.0065
vn -0.9967 -0.0285 0.0763
vn -0.9810 0.1805 0.0713
vn 0.1981 0.9801 0.0123
vn -0.2263 -0.7570 0.6130
vn 0.2382 -0.8682 0.4354
vn 0.3311 0.6677 0.6667
vn 0.8523 0.0554 0.5201
vn 0.3754 -0.8828 0.2824
vn -0.5545 -0.7549 0.3502
vn -0.8710 0.2134 0.4426
vn -0.5554 -0.7530 0.3529
vn -0.0563 0.4430 0.8947
vn 0.4083 0.0937 0.9080
vn 0.1637 0.9768 0.1377
vn -0.7017 -0.2108 -0.6805
vn -0.6579 0.6384 -0.3995
vn -0.0674 0.0389 -0.9970
vn 0.8172 -0.2525 -0.5180
vn 0.1787 0.7748 -0.6064
vn 0.1799 0.2760 -0.9442
vn -0.1546 -0.2839 -0.9463
vn -0.4041 0.1408 -0.9038
vn 0.8507 -0.5049 -0.1459
vn 0.9881 -0.0956 -0.1207
vn 0.8096 0.5854 -0.0421
vn 0.6344 0.7726 -0.0246
vn 0.1822 -0.9787 -0.0940
s 0
usemtl Bark
f 25//1 26//1 34//1
f 4//2 3//2 27//2
f 12//3 29//3 30//3
f 42//4 11//4 30//4
f 45//5 21//5 41//5
f 17//6 25//6 16//6
f 35//7 17//7 16//7
f 34//8 26//8 33//8
f 19//9 37//9 1//9
f 4//10 27//10 15//10
f 40//11 15//11 5//11
f 4//12 40//12 2//12
f 46//13 8//13 14//13
f 41//14 7//14 5//14
f 45//15 22//15 44//15
f 21//16 44//16 9//16
f 29//17 31//17 43//17
f 43//18 31//18 23//18
f 11//19 42//19 9//19
f 13//20 43//20 9//20
f 9//21 42//21 13//21
f 13//22 30//22 43//22
f 30//23 29//23 43//23
f 8//24 45//24 14//24
f 8//25 22//25 45//25
f 46//26 6//26 15//26
f 3//27 4//27 38//27
f 33//28 26//28 20//28
f 16//29 25//29 34//29
f 19//30 40//30 9//30
f 3//31 17//31 8//31
f 36//32 23//32 35//32
f 44//33 22//33 10//33
f 38//34 20//34 3//34
f 35//35 16//35 36//35
f 37//36 33//36 20//36
f 24//37 34//37 18//37
f 24//38 36//38 34//38
f 36//39 16//39 34//39
f 18//40 33//40 32//40
f 18//41 34//41 33//41
f 32//42 37//42 19//42
f 38//43 37//43 20//43
f 37//44 39//44 1//44
f 4//45 39//45 38//45
f 1//46 39//46 2//46
f 17//47 29//47 12//47
f 27//48 28//48 15//48
f 3//49 28//49 27//49
f 4//50 15//50 40//50
f 5//51 15//51 6//51
f 6//52 46//52 14//52
f 6//53 41//53 5//53
f 6//54 14//54 41//54
f 7//55 41//55 21//55
f 41//56 14//56 45//56
f 45//57 44//57 21//57
f 31//58 35//58 23//58
f 42//59 30//59 13//59
f 11//60 12//60 30//60
f 31//61 29//61 35//61
f 44//62 11//62 9//62
f 10//63 11//63 44//63
f 15//64 28//64 46//64
f 9//65 43//65 23//65
f 24//66 18//66 32//66
f 9//67 23//67 24//67
f 7//68 21//68 9//68
f 40//69 5//69 7//69
f 1//70 2//70 40//70
f 24//71 32//71 19//71
f 19//72 1//72 40//72
f 40//73 7//73 9//73
f 9//74 24//74 19//74
f 46//75 28//75 3//75
f 3//76 20//76 26//76
f 26//77 25//77 17//77
f 17//78 12//78 11//78
f 10//79 22//79 8//79
f 17//80 11//80 10//80
f 3//81 26//81 17//81
f 8//82 46//82 3//82
f 17//83 10//83 8//83
f 36//84 24//84 23//84
f 37//85 32//85 33//85
f 38//86 39//86 37//86
f 4//87 2//87 39//87
f 17//88 35//88 29//88
