# Blender 4.1.1
# www.blender.org
mtllib Cube.060_Cube.064.mtl
o Cube.060_Cube.064
v -1.613987 0.502255 -0.860218
v -1.662272 0.545840 -0.859645
v -1.664013 0.547746 -1.350790
v -1.666350 0.438903 -0.857023
v -1.718892 0.486106 -1.353745
v -1.614158 0.502276 -1.106347
v -1.656599 0.551261 -1.124781
v -1.635936 0.523146 -0.851828
v -1.705495 0.502252 -1.360632
v -1.722157 0.485811 -1.106347
v -1.688589 0.513426 -0.849836
v -1.673231 0.439677 -1.106347
v -1.637645 0.469021 -0.857461
v -1.667234 0.497249 -1.377145
v -1.637011 0.466983 -1.106347
v -1.699672 0.461316 -1.106347
v -1.700884 0.528913 -1.106347
v -1.638154 0.531710 -1.106347
v -1.618458 0.507650 -1.363713
v -1.665935 0.546421 -0.985526
v -1.725017 0.489161 -0.985526
v -1.687609 0.541129 -0.857036
v -1.673168 0.444848 -1.360179
v -1.669576 0.445191 -0.985526
v -1.716065 0.483273 -0.850561
v -1.653012 0.455077 -0.858903
v -1.612297 0.507937 -0.985526
v -1.638730 0.525385 -1.361063
v -1.656883 0.555877 -1.227627
v -1.679859 0.529997 -1.372637
v -1.722794 0.487035 -1.227167
v -1.705797 0.502099 -0.857981
v -1.674846 0.443262 -1.227167
v -1.632191 0.490414 -1.362383
v -1.671909 0.472399 -0.857022
v -1.646449 0.471566 -0.985526
v -1.654663 0.459340 -1.106347
v -1.629710 0.487280 -1.106347
v -1.701831 0.473582 -0.976565
v -1.706986 0.476867 -1.106347
v -1.687944 0.455776 -1.106347
v -1.698689 0.522453 -0.985526
v -1.691906 0.522806 -1.227349
v -1.678701 0.533808 -1.106347
v -1.703040 0.501502 -1.106347
v -1.636430 0.533311 -1.227480
v -1.626083 0.512983 -1.106347
v -1.647329 0.540969 -1.228485
v -1.628936 0.518860 -1.227206
v -1.621031 0.522851 -0.985526
v -1.714997 0.514481 -1.227462
v -1.671453 0.545963 -1.228463
v -1.678688 0.537096 -0.985526
v -1.695030 0.465902 -1.252029
v -1.710076 0.482821 -1.227167
v -1.640475 0.481893 -1.242966
v -1.661737 0.461593 -1.227232
v -1.663375 0.460245 -0.985526
v -1.652778 0.509419 -0.859889
v -1.709701 0.477780 -1.355021
v -1.652406 0.487959 -1.357979
v -1.653797 0.536908 -1.375548
v -1.634793 0.487026 -0.985526
v -1.686081 0.456278 -0.985526
v -1.713871 0.513869 -0.985526
v -1.642856 0.533987 -0.972412
vn 0.4786 0.8780 -0.0099
vn -0.5574 -0.8298 -0.0266
vn 0.6772 -0.3027 -0.6707
vn -0.2571 -0.1738 -0.9506
vn 0.2634 -0.0615 0.9627
vn 0.4782 0.8767 0.0514
vn -0.4267 -0.9034 -0.0420
vn -0.7368 -0.6759 -0.0174
vn -0.7286 -0.6845 0.0248
vn -0.5579 -0.8299 0.0008
vn 0.9392 -0.3379 -0.0607
vn 0.7824 -0.6227 0.0098
vn 0.1165 0.0193 0.9930
vn 0.0023 -0.1054 0.9944
vn -0.2286 0.1591 -0.9604
vn -0.0660 0.0825 -0.9944
vn 0.6093 -0.1753 -0.7733
vn -0.7340 -0.6789 0.0209
vn 0.7209 0.6929 0.0135
vn 0.6739 -0.7363 -0.0610
vn 0.6806 -0.7322 -0.0240
vn -0.2746 0.8341 -0.4784
vn 0.1250 -0.8514 -0.5094
vn 0.2869 0.2315 0.9296
vn 0.3970 -0.9169 -0.0403
vn 0.6948 -0.7187 -0.0266
vn -0.9049 -0.4256 0.0022
vn -0.6671 -0.7448 -0.0181
vn -0.7381 -0.6746 -0.0101
vn -0.9954 0.0554 0.0778
vn -0.2150 0.9744 -0.0651
vn -0.6344 0.7729 0.0112
vn 0.8874 0.4606 0.0187
vn 0.5765 0.8166 -0.0295
vn 0.8423 0.5386 0.0218
vn 0.6362 0.7700 -0.0492
vn 0.8367 0.5411 -0.0842
vn 0.6679 0.7439 0.0204
vn 0.7026 0.7074 0.0768
vn 0.6576 0.7533 -0.0114
vn 0.8873 0.4593 -0.0425
vn 0.8603 0.5038 -0.0771
vn 0.4549 0.8905 0.0008
vn -0.9913 0.0780 0.1062
vn -0.9615 0.2728 -0.0316
vn -0.3366 0.9352 -0.1099
vn -0.5960 0.8017 0.0444
vn -0.7244 0.6886 -0.0340
vn -0.7499 0.6611 -0.0255
vn -0.1870 0.9814 -0.0438
vn -0.5901 0.8070 -0.0219
vn -0.2151 0.9750 0.0560
vn -0.5076 -0.8611 -0.0295
vn -0.6688 -0.7434 0.0095
vn -0.6690 -0.7427 0.0273
vn -0.5580 -0.8298 0.0012
vn 0.7259 -0.6855 -0.0553
vn -0.9046 -0.4255 0.0252
vn 0.7439 -0.6680 0.0202
vn 0.9208 -0.3793 -0.0908
vn 0.6890 -0.7247 -0.0039
vn 0.9224 -0.3800 0.0694
vn 0.3965 -0.9157 0.0657
vn 0.0194 0.0672 0.9975
vn -0.3617 -0.1005 0.9269
vn 0.0989 0.0191 0.9949
vn -0.2125 -0.0029 -0.9772
vn -0.0731 -0.4368 0.8966
vn -0.4441 -0.0480 -0.8947
vn -0.2831 -0.1678 -0.9443
vn 0.2025 0.2615 0.9437
vn -0.8617 0.5012 0.0790
vn -0.1328 0.0848 -0.9875
vn 0.8105 -0.5823 -0.0638
vn -0.2618 -0.2688 0.9269
vn 0.9403 -0.3382 0.0388
vn 0.6806 -0.7322 0.0238
vn -0.4271 -0.9041 0.0103
vn -0.5568 -0.8289 0.0547
vn -0.4892 0.8651 0.1108
vn -0.4879 0.8629 -0.1321
vn -0.6340 0.7725 -0.0364
vn 0.6471 0.7618 0.0314
vn 0.4464 0.8928 0.0610
vn 0.5542 -0.8286 -0.0792
vn 0.6479 -0.7553 -0.0989
vn 0.6939 -0.7196 -0.0263
vn -0.7781 -0.6266 -0.0445
vn -0.7405 -0.6719 -0.0107
vn -0.5894 0.8051 -0.0662
vn -0.7488 0.6624 0.0215
vn -0.9542 0.2724 0.1234
vn 0.8405 0.5418 0.0065
vn 0.7180 0.6957 0.0194
vn 0.5775 0.8143 -0.0583
vn 0.6674 0.7430 -0.0499
vn 0.7406 0.6720 0.0017
vn 0.8624 0.5050 0.0345
vn 0.6674 0.7433 -0.0451
vn 0.8379 0.5401 -0.0791
vn -0.3379 0.9384 -0.0724
vn -0.7877 0.6059 -0.1118
vn -0.5636 0.8251 0.0386
vn -0.5615 0.8271 -0.0221
vn -0.7408 0.6710 -0.0311
vn -0.5901 0.8070 0.0209
vn -0.6273 0.7786 -0.0150
vn -0.5906 0.8067 -0.0219
vn -0.3145 -0.9492 -0.0080
vn -0.3145 -0.9492 -0.0027
vn -0.5078 -0.8614 0.0119
vn 0.8130 -0.5815 -0.0281
vn 0.8134 -0.5817 0.0033
vn 0.7676 -0.6389 -0.0505
vn 0.7270 -0.6865 0.0093
vn 0.5554 -0.8303 0.0463
vn 0.0210 0.0678 0.9975
vn -0.1160 0.0158 -0.9931
vn 0.1508 0.0250 0.9883
vn -0.9074 0.4093 0.0952
vn 0.7967 -0.6007 -0.0667
vn 0.7956 -0.5998 0.0849
vn 0.6939 -0.7196 0.0277
vn -0.7247 -0.6870 0.0529
vn -0.7381 -0.6746 0.0142
vn -0.5788 0.8097 0.0969
vn -0.9967 0.0784 0.0223
vn -0.9046 0.4081 -0.1229
s 0
usemtl Fence
f 20//1 2//1 66//1
f 24//2 4//2 64//2
f 14//3 28//3 61//3
f 60//4 9//4 30//4
f 59//5 11//5 35//5
f 66//6 8//6 50//6
f 54//7 41//7 16//7
f 23//8 33//8 54//8
f 60//9 54//9 55//9
f 39//10 25//10 21//10
f 56//11 38//11 15//11
f 34//12 19//12 56//12
f 35//13 4//13 26//13
f 13//14 35//14 26//14
f 23//15 61//15 34//15
f 60//16 61//16 23//16
f 14//17 62//17 28//17
f 64//18 4//18 39//18
f 7//19 66//19 18//19
f 26//20 36//20 13//20
f 63//21 27//21 1//21
f 30//22 3//22 62//22
f 60//23 14//23 61//23
f 59//24 22//24 11//24
f 57//25 15//25 37//25
f 6//26 56//26 19//26
f 55//27 16//27 40//27
f 39//28 4//28 25//28
f 41//29 33//29 12//29
f 22//30 42//30 11//30
f 44//31 43//31 17//31
f 45//32 31//32 10//32
f 18//33 49//33 46//33
f 7//34 46//34 48//34
f 48//35 29//35 7//35
f 48//36 28//36 62//36
f 48//37 3//37 29//37
f 6//38 49//38 47//38
f 1//39 50//39 8//39
f 19//40 28//40 49//40
f 28//41 46//41 49//41
f 27//42 47//42 50//42
f 50//43 18//43 66//43
f 17//44 51//44 45//44
f 51//45 5//45 31//45
f 9//46 51//46 43//46
f 7//47 52//47 44//47
f 52//48 3//48 30//48
f 52//49 9//49 43//49
f 2//50 53//50 22//50
f 20//51 44//51 53//51
f 42//52 44//52 17//52
f 10//53 55//53 40//53
f 60//54 23//54 54//54
f 55//55 5//55 60//55
f 21//56 40//56 39//56
f 12//57 57//57 37//57
f 40//58 16//58 39//58
f 57//59 23//59 34//59
f 26//60 24//60 58//60
f 34//61 56//61 57//61
f 24//62 37//62 58//62
f 36//63 37//63 15//63
f 13//64 59//64 35//64
f 8//65 2//65 59//65
f 2//66 22//66 59//66
f 28//67 34//67 61//67
f 1//68 8//68 59//68
f 60//69 30//69 14//69
f 60//70 5//70 9//70
f 25//71 35//71 32//71
f 32//72 21//72 25//72
f 14//73 30//73 62//73
f 13//74 63//74 1//74
f 11//75 32//75 35//75
f 63//76 15//76 38//76
f 63//77 6//77 27//77
f 64//78 16//78 41//78
f 64//79 12//79 24//79
f 32//80 42//80 65//80
f 42//81 45//81 65//81
f 21//82 45//82 10//82
f 66//83 2//83 8//83
f 7//84 20//84 66//84
f 26//85 58//85 36//85
f 57//86 56//86 15//86
f 6//87 38//87 56//87
f 55//88 54//88 16//88
f 41//89 54//89 33//89
f 22//90 53//90 42//90
f 44//91 52//91 43//91
f 45//92 51//92 31//92
f 18//93 47//93 49//93
f 7//94 18//94 46//94
f 48//95 46//95 28//95
f 48//96 62//96 3//96
f 6//97 19//97 49//97
f 1//98 27//98 50//98
f 27//99 6//99 47//99
f 50//100 47//100 18//100
f 17//101 43//101 51//101
f 51//102 9//102 5//102
f 7//103 29//103 52//103
f 52//104 29//104 3//104
f 52//105 30//105 9//105
f 2//106 20//106 53//106
f 20//107 7//107 44//107
f 42//108 53//108 44//108
f 10//109 31//109 55//109
f 55//110 31//110 5//110
f 21//111 10//111 40//111
f 12//112 33//112 57//112
f 57//113 33//113 23//113
f 26//114 4//114 24//114
f 24//115 12//115 37//115
f 36//116 58//116 37//116
f 13//117 1//117 59//117
f 28//118 19//118 34//118
f 25//119 4//119 35//119
f 32//120 65//120 21//120
f 13//121 36//121 63//121
f 63//122 36//122 15//122
f 63//123 38//123 6//123
f 64//124 39//124 16//124
f 64//125 41//125 12//125
f 32//126 11//126 42//126
f 42//127 17//127 45//127
f 21//128 65//128 45//128
