# Blender 4.1.1
# www.blender.org
mtllib Cube.086_Cube.090.mtl
o Cube.086_Cube.090
v -9.453753 5.779973 -13.589973
v -9.484709 5.785649 -13.764698
v -8.335109 5.132293 -13.984716
v -9.568384 5.588448 -13.566036
v -8.437257 4.931814 -13.971493
v -8.877428 5.451937 -13.697113
v -8.853031 5.451113 -13.879391
v -9.486136 5.795343 -13.667938
v -8.393752 4.972619 -13.980127
v -9.020953 5.255754 -13.869778
v -9.561925 5.699271 -13.748009
v -8.992286 5.247195 -13.688698
v -9.511749 5.686807 -13.569740
v -8.311575 5.000425 -13.905325
v -8.929374 5.352592 -13.672600
v -9.010012 5.245835 -13.780239
v -8.965645 5.366863 -13.912264
v -8.886868 5.468512 -13.798986
v -8.276207 5.112308 -13.827208
v -9.193944 5.613410 -13.827351
v -9.305193 5.418365 -13.829201
v -9.525066 5.741558 -13.802444
v -8.394132 4.918619 -13.808622
v -9.267074 5.423763 -13.639956
v -9.614350 5.601193 -13.742420
v -9.536662 5.635882 -13.572666
v -9.154312 5.626010 -13.652042
v -8.295229 5.116873 -13.898438
v -8.609345 5.322087 -13.933405
v -8.315395 5.046535 -13.990099
v -8.737898 5.096082 -13.925743
v -9.571619 5.641343 -13.762350
v -8.708827 5.090307 -13.751049
v -8.307843 5.061601 -13.819527
v -9.552479 5.640790 -13.640839
v -9.220838 5.507316 -13.646830
v -8.956191 5.311526 -13.691317
v -8.906658 5.400731 -13.697746
v -9.308331 5.437666 -13.751558
v -9.008426 5.262850 -13.823917
v -8.999397 5.253816 -13.747425
v -9.250343 5.519414 -13.843300
v -8.675352 5.208420 -13.936054
v -8.935138 5.409912 -13.879700
v -8.986881 5.313709 -13.863735
v -8.599933 5.312740 -13.851343
v -8.884778 5.453045 -13.740213
v -8.605741 5.308545 -13.887094
v -8.601191 5.298368 -13.809320
v -9.154899 5.639681 -13.697186
v -8.709037 5.157591 -13.963800
v -8.631971 5.280521 -13.942297
v -9.215900 5.576824 -13.833574
v -8.659970 5.067286 -13.843458
v -8.725169 5.107998 -13.893604
v -8.603491 5.192408 -13.767035
v -8.680175 5.143726 -13.761463
v -9.249263 5.460676 -13.657118
v -9.497206 5.733723 -13.676945
v -8.428648 4.929126 -13.938684
v -8.344599 5.031888 -13.851137
v -8.271949 5.095337 -13.955332
v -9.196067 5.553364 -13.654459
v -9.279781 5.418512 -13.692450
v -9.274773 5.480438 -13.855541
v -9.204811 5.643797 -13.754143
vn 0.4416 0.8500 -0.2873
vn -0.4337 -0.8801 0.1930
vn 0.8044 -0.1470 0.5756
vn 0.6572 -0.7247 -0.2071
vn -0.7233 0.5774 0.3788
vn 0.3885 0.8788 -0.2770
vn -0.3801 -0.8630 0.3328
vn -0.4839 -0.8743 -0.0381
vn -0.5186 -0.8548 -0.0197
vn -0.4575 -0.8671 0.1971
vn 0.3899 0.2751 0.8788
vn 0.1881 0.0313 0.9816
vn -0.7951 0.5632 0.2250
vn -0.8786 0.4164 0.2338
vn 0.7612 -0.4916 -0.4230
vn 0.8443 -0.4675 -0.2618
vn 0.8937 -0.1504 0.4227
vn -0.5163 -0.8560 -0.0280
vn 0.4843 0.8748 0.0145
vn 0.1719 -0.1402 0.9751
vn 0.1443 -0.1156 0.9828
vn 0.4946 0.1673 -0.8529
vn 0.2817 -0.7453 0.6044
vn -0.6115 0.7696 0.1838
vn -0.0150 -0.4066 0.9135
vn 0.1562 -0.0998 0.9827
vn -0.5140 -0.7928 -0.3275
vn -0.4691 -0.8812 0.0586
vn -0.4904 -0.8706 -0.0388
vn -0.5000 -0.4865 -0.7165
vn 0.2015 0.4960 -0.8446
vn -0.1024 0.1625 -0.9814
vn 0.4969 0.8164 0.2941
vn 0.4871 0.8547 -0.1794
vn 0.4933 0.8445 0.2085
vn 0.5193 0.8477 -0.1084
vn 0.5825 0.7913 0.1861
vn 0.4673 0.8822 -0.0570
vn 0.4254 0.9050 0.0017
vn 0.4923 0.8671 -0.0759
vn 0.5491 0.7856 0.2851
vn 0.5778 0.7832 0.2297
vn 0.4249 0.8502 -0.3109
vn -0.5169 -0.4553 -0.7249
vn -0.3368 -0.3761 -0.8632
vn 0.1756 0.3795 -0.9084
vn -0.1065 0.2196 -0.9698
vn -0.1250 0.0335 -0.9916
vn -0.1505 0.0050 -0.9886
vn 0.1975 0.5269 -0.8267
vn -0.0456 0.1941 -0.9799
vn 0.0976 0.5555 -0.8258
vn -0.4167 -0.8743 0.2491
vn -0.4933 -0.8678 0.0608
vn -0.5084 -0.8588 0.0631
vn -0.4578 -0.8669 0.1970
vn 0.2030 -0.0742 0.9764
vn -0.5336 -0.7813 -0.3237
vn 0.1507 -0.0156 0.9885
vn 0.3972 0.2223 0.8904
vn 0.1327 -0.0961 0.9865
vn 0.2602 0.3010 0.9174
vn -0.1059 -0.3543 0.9291
vn -0.8307 0.5425 0.1247
vn -0.9829 0.1813 -0.0327
vn -0.8047 0.5540 0.2132
vn 0.7425 -0.5986 -0.3006
vn -0.9109 0.1053 0.3991
vn 0.5565 -0.7191 -0.4162
vn 0.6415 -0.7323 -0.2284
vn -0.6540 0.7489 0.1064
vn -0.3302 -0.1137 -0.9370
vn 0.8090 -0.5003 -0.3086
vn 0.2740 0.0381 0.9610
vn -0.9799 0.1256 0.1549
vn 0.3048 0.3240 0.8956
vn 0.1032 -0.0923 0.9904
vn -0.4254 -0.8381 0.3414
vn -0.5029 -0.8395 0.2057
vn -0.0997 0.3545 -0.9297
vn 0.1087 0.2352 -0.9658
vn -0.0615 0.1392 -0.9884
vn 0.4530 0.8877 -0.0822
vn 0.3700 0.8762 -0.3088
vn 0.1109 -0.2780 0.9542
vn 0.1881 -0.1859 0.9644
vn 0.1553 -0.1008 0.9827
vn -0.4669 -0.8780 -0.1057
vn -0.4904 -0.8705 -0.0424
vn -0.0078 0.1716 -0.9851
vn -0.1901 0.0294 -0.9813
vn -0.4667 -0.2965 -0.8332
vn 0.5065 0.8381 0.2025
vn 0.4787 0.8779 0.0115
vn 0.5117 0.8397 -0.1817
vn 0.5272 0.8471 -0.0678
vn 0.4981 0.8661 0.0409
vn 0.4831 0.8397 0.2480
vn 0.5231 0.8496 -0.0674
vn 0.5784 0.7937 0.1883
vn 0.1436 0.3991 -0.9056
vn -0.1071 -0.0953 -0.9897
vn -0.0812 0.2505 -0.9647
vn -0.0276 0.2235 -0.9743
vn -0.1392 0.0140 -0.9902
vn -0.0824 0.2150 -0.9731
vn -0.0753 0.1575 -0.9846
vn -0.0459 0.1936 -0.9800
vn -0.3703 -0.8136 0.4483
vn -0.3748 -0.8110 0.4492
vn -0.4523 -0.8544 0.2558
vn 0.2447 0.0574 0.9679
vn 0.2178 0.0729 0.9733
vn 0.2293 -0.0173 0.9732
vn 0.1478 -0.0427 0.9881
vn 0.0033 -0.2174 0.9761
vn -0.8298 0.5438 0.1254
vn 0.8042 -0.5395 -0.2494
vn -0.7743 0.5839 0.2440
vn -0.3875 -0.1927 -0.9015
vn 0.2658 0.0168 0.9639
vn 0.1354 0.0907 0.9866
vn 0.1090 -0.0745 0.9912
vn -0.5416 -0.8406 -0.0108
vn -0.5112 -0.8587 -0.0349
vn -0.1419 0.2602 -0.9551
vn -0.4472 -0.4990 -0.7423
vn -0.1994 -0.2984 -0.9334
s 0
usemtl Fence2
f 20//1 2//1 66//1
f 24//2 4//2 64//2
f 14//3 28//3 61//3
f 60//4 9//4 30//4
f 59//5 11//5 35//5
f 66//6 8//6 50//6
f 54//7 41//7 16//7
f 23//8 33//8 54//8
f 60//9 54//9 55//9
f 39//10 25//10 21//10
f 56//11 38//11 15//11
f 34//12 19//12 56//12
f 35//13 4//13 26//13
f 13//14 35//14 26//14
f 23//15 61//15 34//15
f 60//16 61//16 23//16
f 14//17 62//17 28//17
f 64//18 4//18 39//18
f 7//19 66//19 18//19
f 26//20 36//20 13//20
f 63//21 27//21 1//21
f 30//22 3//22 62//22
f 60//23 14//23 61//23
f 59//24 22//24 11//24
f 57//25 15//25 37//25
f 6//26 56//26 19//26
f 55//27 16//27 40//27
f 39//28 4//28 25//28
f 41//29 33//29 12//29
f 22//30 42//30 11//30
f 44//31 43//31 17//31
f 45//32 31//32 10//32
f 18//33 49//33 46//33
f 7//34 46//34 48//34
f 48//35 29//35 7//35
f 48//36 28//36 62//36
f 48//37 3//37 29//37
f 6//38 49//38 47//38
f 1//39 50//39 8//39
f 19//40 28//40 49//40
f 28//41 46//41 49//41
f 27//42 47//42 50//42
f 50//43 18//43 66//43
f 17//44 51//44 45//44
f 51//45 5//45 31//45
f 9//46 51//46 43//46
f 7//47 52//47 44//47
f 52//48 3//48 30//48
f 52//49 9//49 43//49
f 2//50 53//50 22//50
f 20//51 44//51 53//51
f 42//52 44//52 17//52
f 10//53 55//53 40//53
f 60//54 23//54 54//54
f 55//55 5//55 60//55
f 21//56 40//56 39//56
f 12//57 57//57 37//57
f 40//58 16//58 39//58
f 57//59 23//59 34//59
f 26//60 24//60 58//60
f 34//61 56//61 57//61
f 24//62 37//62 58//62
f 36//63 37//63 15//63
f 13//64 59//64 35//64
f 8//65 2//65 59//65
f 2//66 22//66 59//66
f 28//67 34//67 61//67
f 1//68 8//68 59//68
f 60//69 30//69 14//69
f 60//70 5//70 9//70
f 25//71 35//71 32//71
f 32//72 21//72 25//72
f 14//73 30//73 62//73
f 13//74 63//74 1//74
f 11//75 32//75 35//75
f 63//76 15//76 38//76
f 63//77 6//77 27//77
f 64//78 16//78 41//78
f 64//79 12//79 24//79
f 32//80 42//80 65//80
f 42//81 45//81 65//81
f 21//82 45//82 10//82
f 66//83 2//83 8//83
f 7//84 20//84 66//84
f 26//85 58//85 36//85
f 57//86 56//86 15//86
f 6//87 38//87 56//87
f 55//88 54//88 16//88
f 41//89 54//89 33//89
f 22//90 53//90 42//90
f 44//91 52//91 43//91
f 45//92 51//92 31//92
f 18//93 47//93 49//93
f 7//94 18//94 46//94
f 48//95 46//95 28//95
f 48//96 62//96 3//96
f 6//97 19//97 49//97
f 1//98 27//98 50//98
f 27//99 6//99 47//99
f 50//100 47//100 18//100
f 17//101 43//101 51//101
f 51//102 9//102 5//102
f 7//103 29//103 52//103
f 52//104 29//104 3//104
f 52//105 30//105 9//105
f 2//106 20//106 53//106
f 20//107 7//107 44//107
f 42//108 53//108 44//108
f 10//109 31//109 55//109
f 55//110 31//110 5//110
f 21//111 10//111 40//111
f 12//112 33//112 57//112
f 57//113 33//113 23//113
f 26//114 4//114 24//114
f 24//115 12//115 37//115
f 36//116 58//116 37//116
f 13//117 1//117 59//117
f 28//118 19//118 34//118
f 25//119 4//119 35//119
f 32//120 65//120 21//120
f 13//121 36//121 63//121
f 63//122 36//122 15//122
f 63//123 38//123 6//123
f 64//124 39//124 16//124
f 64//125 41//125 12//125
f 32//126 11//126 42//126
f 42//127 17//127 45//127
f 21//128 65//128 45//128
