# Blender 4.1.1
# www.blender.org
mtllib Cube.086_Cube.090.mtl
o Cube.086_Cube.090
v -3.617813 -8.482615 -1.202290
v -3.629155 -8.546635 -1.204370
v -3.207939 -8.627250 -0.964979
v -3.659814 -8.473845 -1.132115
v -3.245366 -8.622405 -0.891523
v -3.406646 -8.521872 -1.082097
v -3.397707 -8.588658 -1.081795
v -3.629678 -8.511182 -1.207922
v -3.229426 -8.625568 -0.906474
v -3.459234 -8.585136 -1.010215
v -3.657447 -8.540520 -1.172721
v -3.448730 -8.518788 -1.007079
v -3.639063 -8.475202 -1.168154
v -3.199316 -8.598161 -0.916662
v -3.425679 -8.512890 -1.045697
v -3.455225 -8.552329 -1.006581
v -3.438969 -8.600703 -1.050926
v -3.410105 -8.559198 -1.088170
v -3.186357 -8.569538 -0.957656
v -3.522618 -8.569591 -1.141261
v -3.563380 -8.570269 -1.069796
v -3.643942 -8.560465 -1.188215
v -3.229565 -8.562729 -0.886688
v -3.549413 -8.500929 -1.071774
v -3.676656 -8.538472 -1.136785
v -3.648191 -8.476274 -1.149495
v -3.508097 -8.505358 -1.145878
v -3.193327 -8.595637 -0.959329
v -3.308420 -8.608449 -1.034520
v -3.200716 -8.629222 -0.933557
v -3.355522 -8.605642 -0.951711
v -3.660999 -8.545774 -1.151496
v -3.344870 -8.541634 -0.949595
v -3.197949 -8.566724 -0.939077
v -3.653986 -8.501252 -1.151293
v -3.532472 -8.503448 -1.102388
v -3.435505 -8.519748 -1.030650
v -3.417356 -8.522103 -1.063335
v -3.564530 -8.541821 -1.076868
v -3.454644 -8.568333 -1.012815
v -3.451336 -8.540306 -1.009505
v -3.543283 -8.575435 -1.106821
v -3.332605 -8.609420 -0.992872
v -3.427791 -8.588772 -1.066699
v -3.446750 -8.582922 -1.031450
v -3.304971 -8.578382 -1.031095
v -3.409339 -8.537663 -1.082503
v -3.307099 -8.591481 -1.029558
v -3.305432 -8.562984 -1.025829
v -3.508312 -8.521898 -1.150887
v -3.344947 -8.619586 -0.974248
v -3.316710 -8.611708 -1.019290
v -3.530663 -8.571871 -1.127856
v -3.326969 -8.575493 -0.941160
v -3.350858 -8.593866 -0.956077
v -3.306275 -8.547491 -0.987005
v -3.334372 -8.545449 -0.969168
v -3.542887 -8.507217 -1.085299
v -3.633734 -8.514482 -1.185344
v -3.242212 -8.610384 -0.890538
v -3.211416 -8.578306 -0.928190
v -3.184797 -8.616484 -0.951438
v -3.523396 -8.506243 -1.119260
v -3.554069 -8.520163 -1.069850
v -3.552234 -8.579920 -1.092540
v -3.526600 -8.542768 -1.152395
vn 0.4416 -0.2873 -0.8500
vn -0.4337 0.1930 0.8801
vn 0.8044 0.5756 0.1469
vn 0.6573 -0.2071 0.7246
vn -0.7233 0.3788 -0.5774
vn 0.3885 -0.2770 -0.8788
vn -0.3801 0.3328 0.8630
vn -0.4839 -0.0381 0.8743
vn -0.5186 -0.0197 0.8548
vn -0.4575 0.1971 0.8671
vn 0.3899 0.8788 -0.2751
vn 0.1881 0.9817 -0.0313
vn -0.7951 0.2250 -0.5632
vn -0.8786 0.2338 -0.4164
vn 0.7612 -0.4229 0.4916
vn 0.8443 -0.2618 0.4675
vn 0.8937 0.4226 0.1504
vn -0.5163 -0.0280 0.8560
vn 0.4843 0.0145 -0.8748
vn 0.1719 0.9751 0.1401
vn 0.1443 0.9828 0.1156
vn 0.4946 -0.8529 -0.1672
vn 0.2817 0.6044 0.7453
vn -0.6115 0.1838 -0.7696
vn -0.0150 0.9135 0.4066
vn 0.1562 0.9827 0.0998
vn -0.5140 -0.3275 0.7928
vn -0.4691 0.0586 0.8812
vn -0.4904 -0.0388 0.8706
vn -0.4999 -0.7165 0.4865
vn 0.2015 -0.8446 -0.4961
vn -0.1024 -0.9814 -0.1625
vn 0.4969 0.2941 -0.8164
vn 0.4872 -0.1794 -0.8547
vn 0.4933 0.2085 -0.8445
vn 0.5193 -0.1084 -0.8477
vn 0.5825 0.1861 -0.7913
vn 0.4673 -0.0570 -0.8823
vn 0.4255 0.0017 -0.9050
vn 0.4923 -0.0759 -0.8671
vn 0.5491 0.2851 -0.7856
vn 0.5778 0.2297 -0.7832
vn 0.4249 -0.3109 -0.8502
vn -0.5169 -0.7249 0.4553
vn -0.3368 -0.8632 0.3760
vn 0.1756 -0.9084 -0.3795
vn -0.1065 -0.9698 -0.2196
vn -0.1249 -0.9916 -0.0335
vn -0.1505 -0.9886 -0.0050
vn 0.1975 -0.8267 -0.5269
vn -0.0457 -0.9799 -0.1941
vn 0.0976 -0.8258 -0.5555
vn -0.4167 0.2491 0.8743
vn -0.4933 0.0608 0.8678
vn -0.5084 0.0630 0.8588
vn -0.4578 0.1970 0.8669
vn 0.2030 0.9764 0.0742
vn -0.5335 -0.3238 0.7814
vn 0.1507 0.9885 0.0156
vn 0.3971 0.8904 -0.2223
vn 0.1327 0.9865 0.0960
vn 0.2603 0.9174 -0.3010
vn -0.1059 0.9291 0.3543
vn -0.8307 0.1247 -0.5426
vn -0.9829 -0.0327 -0.1813
vn -0.8047 0.2132 -0.5540
vn 0.7424 -0.3006 0.5987
vn -0.9108 0.3991 -0.1053
vn 0.5565 -0.4162 0.7191
vn 0.6416 -0.2283 0.7323
vn -0.6541 0.1064 -0.7489
vn -0.3302 -0.9370 0.1137
vn 0.8089 -0.3086 0.5004
vn 0.2740 0.9610 -0.0381
vn -0.9799 0.1549 -0.1257
vn 0.3048 0.8956 -0.3240
vn 0.1032 0.9904 0.0923
vn -0.4253 0.3415 0.8381
vn -0.5029 0.2057 0.8395
vn -0.0997 -0.9297 -0.3545
vn 0.1087 -0.9658 -0.2352
vn -0.0614 -0.9884 -0.1392
vn 0.4530 -0.0823 -0.8877
vn 0.3700 -0.3088 -0.8762
vn 0.1109 0.9541 0.2781
vn 0.1881 0.9644 0.1859
vn 0.1553 0.9827 0.1008
vn -0.4669 -0.1057 0.8780
vn -0.4904 -0.0424 0.8705
vn -0.0078 -0.9851 -0.1716
vn -0.1901 -0.9813 -0.0294
vn -0.4667 -0.8332 0.2965
vn 0.5065 0.2025 -0.8381
vn 0.4787 0.0115 -0.8779
vn 0.5117 -0.1817 -0.8397
vn 0.5272 -0.0678 -0.8471
vn 0.4981 0.0409 -0.8661
vn 0.4832 0.2480 -0.8397
vn 0.5232 -0.0674 -0.8496
vn 0.5784 0.1883 -0.7937
vn 0.1436 -0.9056 -0.3991
vn -0.1071 -0.9897 0.0952
vn -0.0811 -0.9647 -0.2506
vn -0.0277 -0.9743 -0.2235
vn -0.1392 -0.9902 -0.0140
vn -0.0824 -0.9731 -0.2150
vn -0.0753 -0.9846 -0.1575
vn -0.0459 -0.9800 -0.1936
vn -0.3703 0.4483 0.8136
vn -0.3748 0.4491 0.8110
vn -0.4523 0.2558 0.8544
vn 0.2447 0.9679 -0.0574
vn 0.2178 0.9733 -0.0729
vn 0.2293 0.9732 0.0173
vn 0.1478 0.9881 0.0427
vn 0.0032 0.9761 0.2173
vn -0.8298 0.1254 -0.5438
vn 0.8042 -0.2493 0.5395
vn -0.7743 0.2440 -0.5839
vn -0.3875 -0.9015 0.1927
vn 0.2658 0.9639 -0.0167
vn 0.1354 0.9866 -0.0906
vn 0.1090 0.9913 0.0745
vn -0.5416 -0.0108 0.8406
vn -0.5112 -0.0349 0.8587
vn -0.1420 -0.9551 -0.2602
vn -0.4472 -0.7423 0.4990
vn -0.1994 -0.9334 0.2984
s 0
usemtl Fence2
f 20//1 2//1 66//1
f 24//2 4//2 64//2
f 14//3 28//3 61//3
f 60//4 9//4 30//4
f 59//5 11//5 35//5
f 66//6 8//6 50//6
f 54//7 41//7 16//7
f 23//8 33//8 54//8
f 60//9 54//9 55//9
f 39//10 25//10 21//10
f 56//11 38//11 15//11
f 34//12 19//12 56//12
f 35//13 4//13 26//13
f 13//14 35//14 26//14
f 23//15 61//15 34//15
f 60//16 61//16 23//16
f 14//17 62//17 28//17
f 64//18 4//18 39//18
f 7//19 66//19 18//19
f 26//20 36//20 13//20
f 63//21 27//21 1//21
f 30//22 3//22 62//22
f 60//23 14//23 61//23
f 59//24 22//24 11//24
f 57//25 15//25 37//25
f 6//26 56//26 19//26
f 55//27 16//27 40//27
f 39//28 4//28 25//28
f 41//29 33//29 12//29
f 22//30 42//30 11//30
f 44//31 43//31 17//31
f 45//32 31//32 10//32
f 18//33 49//33 46//33
f 7//34 46//34 48//34
f 48//35 29//35 7//35
f 48//36 28//36 62//36
f 48//37 3//37 29//37
f 6//38 49//38 47//38
f 1//39 50//39 8//39
f 19//40 28//40 49//40
f 28//41 46//41 49//41
f 27//42 47//42 50//42
f 50//43 18//43 66//43
f 17//44 51//44 45//44
f 51//45 5//45 31//45
f 9//46 51//46 43//46
f 7//47 52//47 44//47
f 52//48 3//48 30//48
f 52//49 9//49 43//49
f 2//50 53//50 22//50
f 20//51 44//51 53//51
f 42//52 44//52 17//52
f 10//53 55//53 40//53
f 60//54 23//54 54//54
f 55//55 5//55 60//55
f 21//56 40//56 39//56
f 12//57 57//57 37//57
f 40//58 16//58 39//58
f 57//59 23//59 34//59
f 26//60 24//60 58//60
f 34//61 56//61 57//61
f 24//62 37//62 58//62
f 36//63 37//63 15//63
f 13//64 59//64 35//64
f 8//65 2//65 59//65
f 2//66 22//66 59//66
f 28//67 34//67 61//67
f 1//68 8//68 59//68
f 60//69 30//69 14//69
f 60//70 5//70 9//70
f 25//71 35//71 32//71
f 32//72 21//72 25//72
f 14//73 30//73 62//73
f 13//74 63//74 1//74
f 11//75 32//75 35//75
f 63//76 15//76 38//76
f 63//77 6//77 27//77
f 64//78 16//78 41//78
f 64//79 12//79 24//79
f 32//80 42//80 65//80
f 42//81 45//81 65//81
f 21//82 45//82 10//82
f 66//83 2//83 8//83
f 7//84 20//84 66//84
f 26//85 58//85 36//85
f 57//86 56//86 15//86
f 6//87 38//87 56//87
f 55//88 54//88 16//88
f 41//89 54//89 33//89
f 22//90 53//90 42//90
f 44//91 52//91 43//91
f 45//92 51//92 31//92
f 18//93 47//93 49//93
f 7//94 18//94 46//94
f 48//95 46//95 28//95
f 48//96 62//96 3//96
f 6//97 19//97 49//97
f 1//98 27//98 50//98
f 27//99 6//99 47//99
f 50//100 47//100 18//100
f 17//101 43//101 51//101
f 51//102 9//102 5//102
f 7//103 29//103 52//103
f 52//104 29//104 3//104
f 52//105 30//105 9//105
f 2//106 20//106 53//106
f 20//107 7//107 44//107
f 42//108 53//108 44//108
f 10//109 31//109 55//109
f 55//110 31//110 5//110
f 21//111 10//111 40//111
f 12//112 33//112 57//112
f 57//113 33//113 23//113
f 26//114 4//114 24//114
f 24//115 12//115 37//115
f 36//116 58//116 37//116
f 13//117 1//117 59//117
f 28//118 19//118 34//118
f 25//119 4//119 35//119
f 32//120 65//120 21//120
f 13//121 36//121 63//121
f 63//122 36//122 15//122
f 63//123 38//123 6//123
f 64//124 39//124 16//124
f 64//125 41//125 12//125
f 32//126 11//126 42//126
f 42//127 17//127 45//127
f 21//128 65//128 45//128
