# Blender 4.1.1
# www.blender.org
mtllib Cube.057_Cube.061.mtl
o Cube.057_Cube.061
v -1.622625 0.948752 -1.255071
v -1.687647 0.950545 -1.255597
v -1.699867 0.464908 -1.183224
v -1.619304 0.963996 -1.174311
v -1.699682 0.474190 -1.101164
v -1.627603 0.705395 -1.218574
v -1.692248 0.687207 -1.224121
v -1.652741 0.957501 -1.257309
v -1.700609 0.464294 -1.120883
v -1.697056 0.719217 -1.135387
v -1.685434 0.966373 -1.215797
v -1.629844 0.718166 -1.133485
v -1.618023 0.957387 -1.215372
v -1.669100 0.444122 -1.139907
v -1.621082 0.711412 -1.177475
v -1.663971 0.719054 -1.132081
v -1.709962 0.712619 -1.181216
v -1.665107 0.705249 -1.224536
v -1.639447 0.450873 -1.181654
v -1.693236 0.826431 -1.235001
v -1.699046 0.838684 -1.153850
v -1.703324 0.956450 -1.235840
v -1.638234 0.466664 -1.099807
v -1.628426 0.836685 -1.157830
v -1.685799 0.971697 -1.175347
v -1.620195 0.959055 -1.194753
v -1.627618 0.824103 -1.241848
v -1.666323 0.454063 -1.181814
v -1.697559 0.585095 -1.212135
v -1.700258 0.446825 -1.156462
v -1.700721 0.599702 -1.118004
v -1.690855 0.961368 -1.194909
v -1.635813 0.598531 -1.117203
v -1.638152 0.455418 -1.160087
v -1.645787 0.961369 -1.195399
v -1.628794 0.831504 -1.192522
v -1.629131 0.714153 -1.160221
v -1.629183 0.708613 -1.197269
v -1.671210 0.846435 -1.158916
v -1.679791 0.718370 -1.138758
v -1.651541 0.718266 -1.135701
v -1.701644 0.832468 -1.195755
v -1.701579 0.592549 -1.164714
v -1.696705 0.709633 -1.199420
v -1.693284 0.715528 -1.159550
v -1.667271 0.585120 -1.208938
v -1.643625 0.705704 -1.218641
v -1.680517 0.584615 -1.207277
v -1.652045 0.585948 -1.203232
v -1.644071 0.823641 -1.247121
v -1.713227 0.595860 -1.143362
v -1.701815 0.586881 -1.195105
v -1.696514 0.828781 -1.219725
v -1.666435 0.574031 -1.116976
v -1.688438 0.598672 -1.123255
v -1.636291 0.575264 -1.166006
v -1.638277 0.595202 -1.139355
v -1.633849 0.834520 -1.173028
v -1.656288 0.952770 -1.234901
v -1.687309 0.472697 -1.100870
v -1.651483 0.462299 -1.145631
v -1.685515 0.440325 -1.178275
v -1.630425 0.828682 -1.211607
v -1.648114 0.837475 -1.155165
v -1.707226 0.835020 -1.179430
v -1.667496 0.837996 -1.242933
vn -0.2293 -0.1493 -0.9618
vn 0.1378 0.1174 0.9835
vn 0.6931 -0.7103 -0.1226
vn -0.0943 -0.8940 0.4380
vn 0.2561 0.9281 -0.2701
vn -0.2276 -0.0885 -0.9697
vn 0.2839 0.0946 0.9542
vn -0.0982 0.1319 0.9864
vn -0.0856 0.1736 0.9811
vn 0.1381 0.1446 0.9798
vn 0.9237 -0.1334 -0.3592
vn 0.9983 -0.0183 -0.0561
vn 0.0934 0.9668 -0.2378
vn 0.0916 0.9933 -0.0707
vn -0.2952 -0.9393 0.1748
vn -0.1238 -0.9838 0.1295
vn 0.5556 -0.8165 -0.1569
vn -0.0935 0.1697 0.9810
vn 0.0750 -0.1356 -0.9879
vn 0.9918 -0.0649 0.1097
vn 0.9949 -0.0296 0.0968
vn -0.7703 -0.5231 -0.3647
vn 0.6510 -0.4350 0.6221
vn 0.0775 0.8642 -0.4971
vn 0.9065 0.0044 0.4222
vn 0.9963 -0.0351 0.0778
vn -0.3900 0.1459 0.9092
vn -0.0004 0.1300 0.9915
vn -0.1000 0.1391 0.9852
vn -0.7768 0.1842 0.6022
vn -0.8114 -0.1348 -0.5688
vn -0.9878 0.0077 -0.1554
vn 0.3541 -0.1267 -0.9266
vn -0.1160 -0.1738 -0.9779
vn 0.2687 -0.1261 -0.9549
vn -0.0407 -0.1955 -0.9799
vn 0.2607 -0.2305 -0.9375
vn 0.0017 -0.1277 -0.9918
vn 0.0530 -0.0724 -0.9960
vn -0.0130 -0.1589 -0.9872
vn 0.3536 -0.1871 -0.9165
vn 0.3032 -0.2226 -0.9266
vn -0.2552 -0.1372 -0.9571
vn -0.7882 0.2096 0.5786
vn -0.8987 0.0510 0.4355
vn -0.8767 -0.1615 -0.4532
vn -0.9778 0.0334 -0.2068
vn -0.9995 -0.0186 -0.0272
vn -1.0000 -0.0046 0.0086
vn -0.7947 -0.1176 -0.5955
vn -0.9782 -0.0333 -0.2048
vn -0.8094 -0.0150 -0.5870
vn 0.1957 0.1120 0.9742
vn -0.0020 0.1574 0.9875
vn -0.0023 0.1749 0.9846
vn 0.1379 0.1450 0.9798
vn 0.9968 -0.0701 0.0371
vn -0.3895 0.1686 0.9055
vn 1.0000 0.0007 0.0012
vn 0.9370 -0.1572 -0.3120
vn 0.9965 -0.0114 0.0828
vn 0.9418 0.0011 -0.3362
vn 0.9074 0.1091 0.4059
vn -0.0108 0.9777 -0.2099
vn -0.1841 0.9672 0.1750
vn 0.0805 0.9707 -0.2263
vn -0.1756 -0.9419 0.2864
vn 0.2546 0.9373 0.2382
vn -0.3163 -0.8298 0.4598
vn -0.1175 -0.8853 0.4498
vn -0.0051 0.8848 -0.4659
vn -0.9745 0.1269 0.1849
vn -0.1749 -0.9697 0.1708
vn 0.9908 -0.0982 -0.0935
vn 0.0025 0.9723 0.2336
vn 0.9266 -0.0351 -0.3743
vn 0.9958 0.0177 0.0898
vn 0.2851 0.1465 0.9472
vn 0.1393 0.1976 0.9703
vn -0.9392 0.0808 -0.3338
vn -0.9415 -0.1593 -0.2970
vn -0.9882 -0.0394 -0.1482
vn -0.0255 -0.1163 -0.9929
vn -0.2618 -0.0770 -0.9620
vn 0.9639 -0.0604 0.2593
vn 0.9844 -0.0976 0.1464
vn 0.9963 -0.0346 0.0791
vn -0.1625 0.1049 0.9811
vn -0.1036 0.1386 0.9849
vn -0.9773 -0.0770 -0.1973
vn -0.9991 0.0416 -0.0000
vn -0.8900 0.2035 0.4081
vn 0.2648 -0.1414 -0.9539
vn 0.0711 -0.1297 -0.9890
vn -0.1143 -0.2021 -0.9727
vn 0.0005 -0.1971 -0.9804
vn 0.1034 -0.1475 -0.9836
vn 0.3061 -0.1125 -0.9453
vn 0.0004 -0.1924 -0.9813
vn 0.2622 -0.2256 -0.9383
vn -0.8790 -0.1246 -0.4602
vn -0.9930 -0.0804 0.0870
vn -0.9694 0.0217 -0.2445
vn -0.9704 -0.0387 -0.2384
vn -0.9999 -0.0122 -0.0039
vn -0.9774 0.0090 -0.2111
vn -0.9869 -0.0195 -0.1603
vn -0.9784 -0.0332 -0.2043
vn 0.3987 0.1200 0.9092
vn 0.3989 0.1252 0.9084
vn 0.1966 0.1529 0.9685
vn 0.9929 -0.0633 -0.1009
vn 0.9939 -0.0322 -0.1057
vn 0.9969 -0.0747 -0.0254
vn 0.9996 -0.0063 0.0276
vn 0.9684 0.0636 0.2413
vn -0.0100 0.9773 -0.2114
vn -0.1164 -0.9704 0.2115
vn 0.1150 0.9577 -0.2638
vn -0.9470 0.1570 0.2803
vn 0.9927 -0.0977 -0.0704
vn 0.9943 0.0522 -0.0927
vn 0.9973 0.0188 0.0711
vn -0.0805 0.2011 0.9763
vn -0.0995 0.1631 0.9816
vn -0.9693 0.0826 -0.2318
vn -0.7942 0.1272 0.5942
vn -0.9484 -0.0588 0.3117
s 0
usemtl Fence2
f 20//1 2//1 66//1
f 24//2 4//2 64//2
f 14//3 28//3 61//3
f 60//4 9//4 30//4
f 59//5 11//5 35//5
f 66//6 8//6 50//6
f 54//7 41//7 16//7
f 23//8 33//8 54//8
f 60//9 54//9 55//9
f 39//10 25//10 21//10
f 56//11 38//11 15//11
f 34//12 19//12 56//12
f 35//13 4//13 26//13
f 13//14 35//14 26//14
f 23//15 61//15 34//15
f 60//16 61//16 23//16
f 14//17 62//17 28//17
f 64//18 4//18 39//18
f 7//19 66//19 18//19
f 26//20 36//20 13//20
f 63//21 27//21 1//21
f 30//22 3//22 62//22
f 60//23 14//23 61//23
f 59//24 22//24 11//24
f 57//25 15//25 37//25
f 6//26 56//26 19//26
f 55//27 16//27 40//27
f 39//28 4//28 25//28
f 41//29 33//29 12//29
f 22//30 42//30 11//30
f 44//31 43//31 17//31
f 45//32 31//32 10//32
f 18//33 49//33 46//33
f 7//34 46//34 48//34
f 48//35 29//35 7//35
f 48//36 28//36 62//36
f 48//37 3//37 29//37
f 6//38 49//38 47//38
f 1//39 50//39 8//39
f 19//40 28//40 49//40
f 28//41 46//41 49//41
f 27//42 47//42 50//42
f 50//43 18//43 66//43
f 17//44 51//44 45//44
f 51//45 5//45 31//45
f 9//46 51//46 43//46
f 7//47 52//47 44//47
f 52//48 3//48 30//48
f 52//49 9//49 43//49
f 2//50 53//50 22//50
f 20//51 44//51 53//51
f 42//52 44//52 17//52
f 10//53 55//53 40//53
f 60//54 23//54 54//54
f 55//55 5//55 60//55
f 21//56 40//56 39//56
f 12//57 57//57 37//57
f 40//58 16//58 39//58
f 57//59 23//59 34//59
f 26//60 24//60 58//60
f 34//61 56//61 57//61
f 24//62 37//62 58//62
f 36//63 37//63 15//63
f 13//64 59//64 35//64
f 8//65 2//65 59//65
f 2//66 22//66 59//66
f 28//67 34//67 61//67
f 1//68 8//68 59//68
f 60//69 30//69 14//69
f 60//70 5//70 9//70
f 25//71 35//71 32//71
f 32//72 21//72 25//72
f 14//73 30//73 62//73
f 13//74 63//74 1//74
f 11//75 32//75 35//75
f 63//76 15//76 38//76
f 63//77 6//77 27//77
f 64//78 16//78 41//78
f 64//79 12//79 24//79
f 32//80 42//80 65//80
f 42//81 45//81 65//81
f 21//82 45//82 10//82
f 66//83 2//83 8//83
f 7//84 20//84 66//84
f 26//85 58//85 36//85
f 57//86 56//86 15//86
f 6//87 38//87 56//87
f 55//88 54//88 16//88
f 41//89 54//89 33//89
f 22//90 53//90 42//90
f 44//91 52//91 43//91
f 45//92 51//92 31//92
f 18//93 47//93 49//93
f 7//94 18//94 46//94
f 48//95 46//95 28//95
f 48//96 62//96 3//96
f 6//97 19//97 49//97
f 1//98 27//98 50//98
f 27//99 6//99 47//99
f 50//100 47//100 18//100
f 17//101 43//101 51//101
f 51//102 9//102 5//102
f 7//103 29//103 52//103
f 52//104 29//104 3//104
f 52//105 30//105 9//105
f 2//106 20//106 53//106
f 20//107 7//107 44//107
f 42//108 53//108 44//108
f 10//109 31//109 55//109
f 55//110 31//110 5//110
f 21//111 10//111 40//111
f 12//112 33//112 57//112
f 57//113 33//113 23//113
f 26//114 4//114 24//114
f 24//115 12//115 37//115
f 36//116 58//116 37//116
f 13//117 1//117 59//117
f 28//118 19//118 34//118
f 25//119 4//119 35//119
f 32//120 65//120 21//120
f 13//121 36//121 63//121
f 63//122 36//122 15//122
f 63//123 38//123 6//123
f 64//124 39//124 16//124
f 64//125 41//125 12//125
f 32//126 11//126 42//126
f 42//127 17//127 45//127
f 21//128 65//128 45//128
