# Blender 4.1.1
# www.blender.org
mtllib Cube.074_Cube.078.mtl
o Cube.074_Cube.078
v -5.935019 -6.418585 -1.837089
v -5.978824 -6.465955 -1.845370
v -5.949367 -6.405731 -2.331924
v -5.872298 -6.471795 -1.836591
v -5.887975 -6.460638 -2.337941
v -5.919322 -6.387722 -2.080770
v -5.967268 -6.426824 -2.107465
v -5.956527 -6.441128 -1.832872
v -5.903572 -6.446259 -2.344073
v -5.903501 -6.495074 -2.093422
v -5.947252 -6.493741 -1.836963
v -5.857184 -6.447174 -2.084333
v -5.902164 -6.442854 -1.835275
v -5.897308 -6.406294 -2.355259
v -5.884230 -6.410872 -2.081454
v -5.878929 -6.473105 -2.089038
v -5.946393 -6.473382 -2.093426
v -5.948831 -6.411120 -2.085654
v -5.908270 -6.359463 -2.336434
v -5.971385 -6.453709 -1.970487
v -5.914577 -6.513098 -1.974386
v -5.974433 -6.491481 -1.845701
v -5.846133 -6.415036 -2.335933
v -5.870384 -6.458707 -1.964607
v -5.917271 -6.521316 -1.839273
v -5.888244 -6.458106 -1.837776
v -5.932676 -6.401031 -1.961280
v -5.926252 -6.379663 -2.337490
v -5.965308 -6.414075 -2.209603
v -5.930348 -6.418937 -2.354447
v -5.897008 -6.480455 -2.213187
v -5.935526 -6.509938 -1.846497
v -5.853055 -6.433494 -2.204370
v -5.891232 -6.373489 -2.335777
v -5.905757 -6.476851 -1.839394
v -5.896574 -6.435406 -1.963329
v -5.876702 -6.428487 -2.083212
v -5.904443 -6.403353 -2.081801
v -5.899471 -6.491442 -1.961602
v -5.894489 -6.480147 -2.090939
v -5.873334 -6.461548 -2.087205
v -5.947651 -6.486527 -1.973136
v -5.932519 -6.449303 -2.211694
v -5.951153 -6.451311 -2.090922
v -5.919051 -6.475896 -2.091982
v -5.942681 -6.394115 -2.205453
v -5.930073 -6.399403 -2.082951
v -5.950321 -6.404695 -2.208309
v -5.928235 -6.386914 -2.203327
v -5.947610 -6.409491 -1.963321
v -5.924335 -6.472308 -2.214210
v -5.955443 -6.428558 -2.211657
v -5.962151 -6.466487 -1.971519
v -5.874174 -6.450069 -2.232958
v -5.892732 -6.467897 -2.211312
v -5.890403 -6.396878 -2.218075
v -5.871270 -6.420231 -2.203921
v -5.885371 -6.452350 -1.964764
v -5.942409 -6.457006 -1.842127
v -5.879533 -6.451474 -2.337519
v -5.889178 -6.394129 -2.333825
v -5.936912 -6.392624 -2.354460
v -5.911936 -6.423632 -1.962821
v -5.881541 -6.474927 -1.967393
v -5.939171 -6.501704 -1.974521
v -5.959683 -6.432641 -1.953802
vn -0.8728 0.4880 -0.0041
vn 0.8267 -0.5609 -0.0450
vn 0.3487 0.7521 -0.5592
vn 0.2327 -0.1376 -0.9628
vn 0.0014 0.1390 0.9903
vn -0.8755 0.4798 0.0565
vn 0.9018 -0.4304 -0.0391
vn 0.6714 -0.7379 -0.0682
vn 0.6774 -0.7352 -0.0248
vn 0.8250 -0.5649 -0.0179
vn 0.3463 0.9347 0.0801
vn 0.6252 0.7663 0.1479
vn -0.0821 -0.0093 0.9966
vn 0.0417 -0.1245 0.9913
vn -0.0987 -0.1034 -0.9897
vn -0.0192 0.0610 -0.9979
vn 0.2278 0.6995 -0.6773
vn 0.6720 -0.7400 -0.0298
vn -0.6882 0.7229 0.0613
vn 0.7426 0.6660 0.0711
vn 0.7361 0.6681 0.1083
vn -0.8033 -0.2007 -0.5607
vn 0.8829 0.1765 -0.4351
vn -0.2887 0.1705 0.9421
vn 0.9199 0.3864 0.0678
vn 0.7228 0.6827 0.1067
vn 0.4195 -0.9037 -0.0858
vn 0.7406 -0.6696 -0.0557
vn 0.6696 -0.7401 -0.0613
vn -0.0659 -0.9964 -0.0526
vn -0.9695 -0.1917 -0.1528
vn -0.7757 -0.6201 -0.1177
vn -0.4558 0.8842 0.1021
vn -0.8097 0.5867 -0.0073
vn -0.5340 0.8402 0.0946
vn -0.7616 0.6478 -0.0164
vn -0.5298 0.8480 -0.0112
vn -0.7399 0.6701 0.0582
vn -0.7069 0.6970 0.1207
vn -0.7473 0.6640 0.0248
vn -0.4506 0.8917 0.0415
vn -0.4930 0.8700 0.0011
vn -0.8862 0.4633 0.0027
vn -0.0902 -0.9956 -0.0253
vn -0.2757 -0.9461 -0.1702
vn -0.9282 -0.3072 -0.2100
vn -0.8063 -0.5859 -0.0818
vn -0.6890 -0.7048 -0.1686
vn -0.6623 -0.7316 -0.1617
vn -0.9776 -0.1665 -0.1285
vn -0.8073 -0.5715 -0.1470
vn -0.9778 -0.2071 -0.0329
vn 0.8583 -0.5116 -0.0395
vn 0.7375 -0.6747 -0.0287
vn 0.7357 -0.6772 -0.0112
vn 0.8249 -0.5650 -0.0176
vn 0.6918 0.7177 0.0802
vn 0.4179 -0.9063 -0.0631
vn 0.6695 0.7262 0.1561
vn 0.3895 0.9196 0.0505
vn 0.7274 0.6740 0.1288
vn 0.3800 0.9010 0.2093
vn 0.9118 0.3725 0.1726
vn -0.1307 -0.1056 0.9858
vn 0.0390 -0.4771 0.8780
vn -0.0821 -0.0270 0.9963
vn 0.0641 -0.0876 -0.9941
vn 0.3783 -0.1915 0.9057
vn 0.1026 -0.3283 -0.9390
vn 0.2261 -0.1641 -0.9602
vn -0.3201 0.0855 0.9435
vn -0.5101 -0.8579 -0.0623
vn -0.0223 -0.0060 -0.9997
vn 0.5897 0.8040 0.0760
vn 0.2076 -0.3803 0.9013
vn 0.3403 0.9232 0.1788
vn 0.7331 0.6621 0.1557
vn 0.8992 -0.4373 0.0128
vn 0.8205 -0.5705 0.0355
vn -0.8732 -0.4873 -0.0065
vn -0.8554 -0.4555 -0.2466
vn -0.7721 -0.6137 -0.1648
vn -0.7585 0.6484 0.0653
vn -0.8923 0.4473 0.0610
vn 0.8351 0.5484 0.0438
vn 0.7637 0.6448 0.0315
vn 0.7237 0.6818 0.1070
vn 0.6237 -0.7748 -0.1034
vn 0.6670 -0.7424 -0.0623
vn -0.8026 -0.5653 -0.1906
vn -0.6666 -0.7365 -0.1151
vn -0.2851 -0.9584 -0.0158
vn -0.5363 0.8403 0.0790
vn -0.6915 0.7193 0.0666
vn -0.8056 0.5914 -0.0355
vn -0.7345 0.6785 -0.0114
vn -0.6665 0.7436 0.0534
vn -0.5013 0.8580 0.1118
vn -0.7352 0.6779 -0.0067
vn -0.5291 0.8485 -0.0060
vn -0.9337 -0.3132 -0.1733
vn -0.6019 -0.7589 -0.2485
vn -0.8291 -0.5527 -0.0849
vn -0.8272 -0.5429 -0.1448
vn -0.6718 -0.7217 -0.1667
vn -0.8101 -0.5769 -0.1046
vn -0.7796 -0.6097 -0.1431
vn -0.8070 -0.5720 -0.1470
vn 0.9460 -0.3238 0.0118
vn 0.9457 -0.3245 0.0169
vn 0.8560 -0.5170 0.0014
vn 0.5868 0.8020 0.1116
vn 0.5849 0.7984 0.1428
vn 0.6452 0.7591 0.0872
vn 0.6886 0.7106 0.1444
vn 0.8288 0.5337 0.1682
vn -0.1313 -0.1040 0.9859
vn 0.0470 0.0104 -0.9988
vn -0.0872 0.0253 0.9959
vn -0.4197 -0.9065 -0.0463
vn 0.6082 0.7905 0.0725
vn 0.5977 0.7703 0.2224
vn 0.7202 0.6750 0.1604
vn 0.6781 -0.7350 0.0035
vn 0.6681 -0.7432 -0.0372
vn -0.8174 -0.5753 -0.0281
vn -0.0853 -0.9904 -0.1091
vn -0.4045 -0.8763 -0.2618
s 0
usemtl Fence
f 20//1 2//1 66//1
f 24//2 4//2 64//2
f 14//3 28//3 61//3
f 60//4 9//4 30//4
f 59//5 11//5 35//5
f 66//6 8//6 50//6
f 54//7 41//7 16//7
f 23//8 33//8 54//8
f 60//9 54//9 55//9
f 39//10 25//10 21//10
f 56//11 38//11 15//11
f 34//12 19//12 56//12
f 35//13 4//13 26//13
f 13//14 35//14 26//14
f 23//15 61//15 34//15
f 60//16 61//16 23//16
f 14//17 62//17 28//17
f 64//18 4//18 39//18
f 7//19 66//19 18//19
f 26//20 36//20 13//20
f 63//21 27//21 1//21
f 30//22 3//22 62//22
f 60//23 14//23 61//23
f 59//24 22//24 11//24
f 57//25 15//25 37//25
f 6//26 56//26 19//26
f 55//27 16//27 40//27
f 39//28 4//28 25//28
f 41//29 33//29 12//29
f 22//30 42//30 11//30
f 44//31 43//31 17//31
f 45//32 31//32 10//32
f 18//33 49//33 46//33
f 7//34 46//34 48//34
f 48//35 29//35 7//35
f 48//36 28//36 62//36
f 48//37 3//37 29//37
f 6//38 49//38 47//38
f 1//39 50//39 8//39
f 19//40 28//40 49//40
f 28//41 46//41 49//41
f 27//42 47//42 50//42
f 50//43 18//43 66//43
f 17//44 51//44 45//44
f 51//45 5//45 31//45
f 9//46 51//46 43//46
f 7//47 52//47 44//47
f 52//48 3//48 30//48
f 52//49 9//49 43//49
f 2//50 53//50 22//50
f 20//51 44//51 53//51
f 42//52 44//52 17//52
f 10//53 55//53 40//53
f 60//54 23//54 54//54
f 55//55 5//55 60//55
f 21//56 40//56 39//56
f 12//57 57//57 37//57
f 40//58 16//58 39//58
f 57//59 23//59 34//59
f 26//60 24//60 58//60
f 34//61 56//61 57//61
f 24//62 37//62 58//62
f 36//63 37//63 15//63
f 13//64 59//64 35//64
f 8//65 2//65 59//65
f 2//66 22//66 59//66
f 28//67 34//67 61//67
f 1//68 8//68 59//68
f 60//69 30//69 14//69
f 60//70 5//70 9//70
f 25//71 35//71 32//71
f 32//72 21//72 25//72
f 14//73 30//73 62//73
f 13//74 63//74 1//74
f 11//75 32//75 35//75
f 63//76 15//76 38//76
f 63//77 6//77 27//77
f 64//78 16//78 41//78
f 64//79 12//79 24//79
f 32//80 42//80 65//80
f 42//81 45//81 65//81
f 21//82 45//82 10//82
f 66//83 2//83 8//83
f 7//84 20//84 66//84
f 26//85 58//85 36//85
f 57//86 56//86 15//86
f 6//87 38//87 56//87
f 55//88 54//88 16//88
f 41//89 54//89 33//89
f 22//90 53//90 42//90
f 44//91 52//91 43//91
f 45//92 51//92 31//92
f 18//93 47//93 49//93
f 7//94 18//94 46//94
f 48//95 46//95 28//95
f 48//96 62//96 3//96
f 6//97 19//97 49//97
f 1//98 27//98 50//98
f 27//99 6//99 47//99
f 50//100 47//100 18//100
f 17//101 43//101 51//101
f 51//102 9//102 5//102
f 7//103 29//103 52//103
f 52//104 29//104 3//104
f 52//105 30//105 9//105
f 2//106 20//106 53//106
f 20//107 7//107 44//107
f 42//108 53//108 44//108
f 10//109 31//109 55//109
f 55//110 31//110 5//110
f 21//111 10//111 40//111
f 12//112 33//112 57//112
f 57//113 33//113 23//113
f 26//114 4//114 24//114
f 24//115 12//115 37//115
f 36//116 58//116 37//116
f 13//117 1//117 59//117
f 28//118 19//118 34//118
f 25//119 4//119 35//119
f 32//120 65//120 21//120
f 13//121 36//121 63//121
f 63//122 36//122 15//122
f 63//123 38//123 6//123
f 64//124 39//124 16//124
f 64//125 41//125 12//125
f 32//126 11//126 42//126
f 42//127 17//127 45//127
f 21//128 65//128 45//128
