# Blender 4.1.1
# www.blender.org
mtllib Cube.074_Cube.078.mtl
o Cube.074_Cube.078
v -15.777966 7.512499 -7.956741
v -15.897520 7.535100 -8.086025
v -15.817125 8.863024 -7.921663
v -15.606785 7.511140 -8.101965
v -15.649572 8.879445 -8.071518
v -15.735125 8.177564 -7.872511
v -15.865982 8.250421 -7.979229
v -15.836666 7.500990 -8.018267
v -15.692141 8.896181 -8.032274
v -15.691946 8.212093 -8.165499
v -15.811352 7.512156 -8.161861
v -15.565536 8.187288 -8.034769
v -15.688297 7.507549 -8.022978
v -15.675043 8.926710 -7.923199
v -15.639351 8.179430 -7.935692
v -15.624884 8.200129 -8.105541
v -15.809008 8.212105 -8.106297
v -15.815662 8.190893 -7.936369
v -15.704962 8.875332 -7.795387
v -15.877218 7.876575 -8.052605
v -15.722176 7.887216 -8.214691
v -15.885536 7.536003 -8.155693
v -15.535376 8.873964 -7.947060
v -15.601562 7.860527 -8.066244
v -15.729528 7.518460 -8.237120
v -15.650307 7.514374 -8.064606
v -15.771570 7.851447 -7.908833
v -15.754038 8.878214 -7.850517
v -15.860632 8.529181 -7.944433
v -15.765217 8.924494 -7.957706
v -15.674225 8.538961 -8.125601
v -15.779348 7.538176 -8.206066
v -15.554266 8.514898 -7.997433
v -15.658461 8.873539 -7.833666
v -15.698103 7.518790 -8.115765
v -15.673040 7.857038 -8.002651
v -15.618805 8.184228 -7.983767
v -15.694515 8.180377 -7.915171
v -15.680946 7.852325 -8.155588
v -15.667349 8.205317 -8.124760
v -15.609613 8.195126 -8.073999
v -15.812441 7.883804 -8.142172
v -15.771143 8.534887 -8.040579
v -15.821999 8.205271 -8.046061
v -15.734386 8.208163 -8.113157
v -15.798878 8.517853 -7.889957
v -15.764467 8.183516 -7.904390
v -15.819729 8.525648 -7.918833
v -15.759451 8.512051 -7.870304
v -15.812330 7.857017 -7.931923
v -15.748806 8.541754 -8.103367
v -15.833708 8.534786 -7.983961
v -15.852016 7.879391 -8.087479
v -15.611906 8.592921 -8.042669
v -15.662556 8.533844 -8.091326
v -15.656197 8.552301 -7.897499
v -15.603979 8.513672 -7.961235
v -15.642466 7.860955 -8.048895
v -15.798136 7.526249 -8.061604
v -15.626532 8.878293 -8.046507
v -15.652855 8.868212 -7.889997
v -15.783133 8.924530 -7.885891
v -15.714966 7.855652 -7.970518
v -15.632011 7.868131 -8.110514
v -15.789297 7.887584 -8.183596
v -15.845280 7.831038 -7.995106
vn -0.8728 0.0041 0.4880
vn 0.8267 0.0450 -0.5608
vn 0.3487 0.5592 0.7521
vn 0.2327 0.9628 -0.1375
vn 0.0014 -0.9903 0.1390
vn -0.8755 -0.0565 0.4798
vn 0.9018 0.0391 -0.4304
vn 0.6714 0.0682 -0.7379
vn 0.6774 0.0248 -0.7352
vn 0.8250 0.0179 -0.5649
vn 0.3463 -0.0801 0.9347
vn 0.6252 -0.1479 0.7664
vn -0.0821 -0.9966 -0.0093
vn 0.0417 -0.9913 -0.1245
vn -0.0987 0.9897 -0.1034
vn -0.0192 0.9979 0.0611
vn 0.2278 0.6773 0.6995
vn 0.6720 0.0298 -0.7400
vn -0.6883 -0.0613 0.7229
vn 0.7425 -0.0711 0.6660
vn 0.7361 -0.1083 0.6681
vn -0.8033 0.5607 -0.2007
vn 0.8829 0.4351 0.1765
vn -0.2887 -0.9421 0.1705
vn 0.9198 -0.0678 0.3864
vn 0.7228 -0.1067 0.6828
vn 0.4195 0.0858 -0.9037
vn 0.7406 0.0557 -0.6696
vn 0.6696 0.0613 -0.7402
vn -0.0659 0.0526 -0.9964
vn -0.9695 0.1528 -0.1917
vn -0.7757 0.1177 -0.6201
vn -0.4558 -0.1021 0.8842
vn -0.8098 0.0073 0.5867
vn -0.5340 -0.0946 0.8402
vn -0.7616 0.0164 0.6479
vn -0.5298 0.0112 0.8480
vn -0.7399 -0.0582 0.6702
vn -0.7068 -0.1207 0.6970
vn -0.7473 -0.0248 0.6640
vn -0.4506 -0.0415 0.8917
vn -0.4930 -0.0011 0.8700
vn -0.8862 -0.0027 0.4633
vn -0.0902 0.0253 -0.9956
vn -0.2757 0.1702 -0.9461
vn -0.9282 0.2100 -0.3072
vn -0.8063 0.0818 -0.5859
vn -0.6890 0.1686 -0.7048
vn -0.6623 0.1616 -0.7316
vn -0.9776 0.1285 -0.1665
vn -0.8073 0.1470 -0.5715
vn -0.9778 0.0329 -0.2072
vn 0.8583 0.0395 -0.5117
vn 0.7375 0.0287 -0.6748
vn 0.7357 0.0112 -0.6772
vn 0.8249 0.0176 -0.5650
vn 0.6917 -0.0802 0.7177
vn 0.4179 0.0631 -0.9063
vn 0.6695 -0.1561 0.7262
vn 0.3895 -0.0505 0.9196
vn 0.7274 -0.1288 0.6740
vn 0.3800 -0.2093 0.9010
vn 0.9119 -0.1726 0.3725
vn -0.1307 -0.9858 -0.1056
vn 0.0390 -0.8780 -0.4770
vn -0.0821 -0.9963 -0.0270
vn 0.0641 0.9941 -0.0876
vn 0.3783 -0.9057 -0.1915
vn 0.1026 0.9390 -0.3283
vn 0.2262 0.9602 -0.1642
vn -0.3201 -0.9435 0.0855
vn -0.5100 0.0623 -0.8579
vn -0.0223 0.9997 -0.0061
vn 0.5897 -0.0760 0.8040
vn 0.2076 -0.9013 -0.3802
vn 0.3403 -0.1788 0.9231
vn 0.7331 -0.1557 0.6621
vn 0.8992 -0.0128 -0.4374
vn 0.8205 -0.0355 -0.5705
vn -0.8732 0.0065 -0.4873
vn -0.8554 0.2466 -0.4554
vn -0.7721 0.1648 -0.6137
vn -0.7585 -0.0653 0.6484
vn -0.8923 -0.0610 0.4473
vn 0.8351 -0.0438 0.5484
vn 0.7637 -0.0315 0.6448
vn 0.7236 -0.1069 0.6818
vn 0.6237 0.1034 -0.7748
vn 0.6670 0.0623 -0.7424
vn -0.8025 0.1906 -0.5653
vn -0.6666 0.1151 -0.7365
vn -0.2851 0.0158 -0.9584
vn -0.5363 -0.0790 0.8403
vn -0.6915 -0.0666 0.7193
vn -0.8056 0.0355 0.5913
vn -0.7346 0.0114 0.6785
vn -0.6665 -0.0534 0.7436
vn -0.5013 -0.1118 0.8580
vn -0.7352 0.0067 0.6779
vn -0.5292 0.0060 0.8485
vn -0.9337 0.1733 -0.3132
vn -0.6020 0.2485 -0.7589
vn -0.8291 0.0849 -0.5527
vn -0.8272 0.1448 -0.5429
vn -0.6718 0.1667 -0.7217
vn -0.8101 0.1046 -0.5769
vn -0.7796 0.1431 -0.6097
vn -0.8069 0.1470 -0.5720
vn 0.9460 -0.0118 -0.3239
vn 0.9457 -0.0169 -0.3245
vn 0.8560 -0.0014 -0.5170
vn 0.5867 -0.1116 0.8020
vn 0.5849 -0.1428 0.7984
vn 0.6451 -0.0873 0.7591
vn 0.6886 -0.1444 0.7106
vn 0.8288 -0.1682 0.5337
vn -0.1313 -0.9859 -0.1040
vn 0.0470 0.9988 0.0103
vn -0.0872 -0.9959 0.0253
vn -0.4197 0.0463 -0.9065
vn 0.6082 -0.0725 0.7904
vn 0.5977 -0.2224 0.7703
vn 0.7202 -0.1604 0.6750
vn 0.6781 -0.0036 -0.7349
vn 0.6681 0.0372 -0.7432
vn -0.8175 0.0281 -0.5753
vn -0.0853 0.1091 -0.9904
vn -0.4045 0.2618 -0.8763
s 0
usemtl Fence
f 20//1 2//1 66//1
f 24//2 4//2 64//2
f 14//3 28//3 61//3
f 60//4 9//4 30//4
f 59//5 11//5 35//5
f 66//6 8//6 50//6
f 54//7 41//7 16//7
f 23//8 33//8 54//8
f 60//9 54//9 55//9
f 39//10 25//10 21//10
f 56//11 38//11 15//11
f 34//12 19//12 56//12
f 35//13 4//13 26//13
f 13//14 35//14 26//14
f 23//15 61//15 34//15
f 60//16 61//16 23//16
f 14//17 62//17 28//17
f 64//18 4//18 39//18
f 7//19 66//19 18//19
f 26//20 36//20 13//20
f 63//21 27//21 1//21
f 30//22 3//22 62//22
f 60//23 14//23 61//23
f 59//24 22//24 11//24
f 57//25 15//25 37//25
f 6//26 56//26 19//26
f 55//27 16//27 40//27
f 39//28 4//28 25//28
f 41//29 33//29 12//29
f 22//30 42//30 11//30
f 44//31 43//31 17//31
f 45//32 31//32 10//32
f 18//33 49//33 46//33
f 7//34 46//34 48//34
f 48//35 29//35 7//35
f 48//36 28//36 62//36
f 48//37 3//37 29//37
f 6//38 49//38 47//38
f 1//39 50//39 8//39
f 19//40 28//40 49//40
f 28//41 46//41 49//41
f 27//42 47//42 50//42
f 50//43 18//43 66//43
f 17//44 51//44 45//44
f 51//45 5//45 31//45
f 9//46 51//46 43//46
f 7//47 52//47 44//47
f 52//48 3//48 30//48
f 52//49 9//49 43//49
f 2//50 53//50 22//50
f 20//51 44//51 53//51
f 42//52 44//52 17//52
f 10//53 55//53 40//53
f 60//54 23//54 54//54
f 55//55 5//55 60//55
f 21//56 40//56 39//56
f 12//57 57//57 37//57
f 40//58 16//58 39//58
f 57//59 23//59 34//59
f 26//60 24//60 58//60
f 34//61 56//61 57//61
f 24//62 37//62 58//62
f 36//63 37//63 15//63
f 13//64 59//64 35//64
f 8//65 2//65 59//65
f 2//66 22//66 59//66
f 28//67 34//67 61//67
f 1//68 8//68 59//68
f 60//69 30//69 14//69
f 60//70 5//70 9//70
f 25//71 35//71 32//71
f 32//72 21//72 25//72
f 14//73 30//73 62//73
f 13//74 63//74 1//74
f 11//75 32//75 35//75
f 63//76 15//76 38//76
f 63//77 6//77 27//77
f 64//78 16//78 41//78
f 64//79 12//79 24//79
f 32//80 42//80 65//80
f 42//81 45//81 65//81
f 21//82 45//82 10//82
f 66//83 2//83 8//83
f 7//84 20//84 66//84
f 26//85 58//85 36//85
f 57//86 56//86 15//86
f 6//87 38//87 56//87
f 55//88 54//88 16//88
f 41//89 54//89 33//89
f 22//90 53//90 42//90
f 44//91 52//91 43//91
f 45//92 51//92 31//92
f 18//93 47//93 49//93
f 7//94 18//94 46//94
f 48//95 46//95 28//95
f 48//96 62//96 3//96
f 6//97 19//97 49//97
f 1//98 27//98 50//98
f 27//99 6//99 47//99
f 50//100 47//100 18//100
f 17//101 43//101 51//101
f 51//102 9//102 5//102
f 7//103 29//103 52//103
f 52//104 29//104 3//104
f 52//105 30//105 9//105
f 2//106 20//106 53//106
f 20//107 7//107 44//107
f 42//108 53//108 44//108
f 10//109 31//109 55//109
f 55//110 31//110 5//110
f 21//111 10//111 40//111
f 12//112 33//112 57//112
f 57//113 33//113 23//113
f 26//114 4//114 24//114
f 24//115 12//115 37//115
f 36//116 58//116 37//116
f 13//117 1//117 59//117
f 28//118 19//118 34//118
f 25//119 4//119 35//119
f 32//120 65//120 21//120
f 13//121 36//121 63//121
f 63//122 36//122 15//122
f 63//123 38//123 6//123
f 64//124 39//124 16//124
f 64//125 41//125 12//125
f 32//126 11//126 42//126
f 42//127 17//127 45//127
f 21//128 65//128 45//128
