# Blender 4.1.1
# www.blender.org
mtllib Cube.055_Cube.059.mtl
o Cube.055_Cube.059
v -1.370809 1.300006 -1.258061
v -1.424475 1.336764 -1.258476
v -1.700050 0.931041 -1.284496
v -1.368927 1.297397 -1.175871
v -1.704108 0.924999 -1.202234
v -1.507965 1.096036 -1.270870
v -1.571339 1.116950 -1.280190
v -1.391249 1.323890 -1.258628
v -1.707935 0.920609 -1.223534
v -1.568298 1.131242 -1.186873
v -1.418658 1.342022 -1.216310
v -1.512551 1.093681 -1.184953
v -1.366783 1.298057 -1.217419
v -1.690010 0.890077 -1.246076
v -1.503867 1.090659 -1.229371
v -1.540933 1.112653 -1.183535
v -1.577546 1.140380 -1.233148
v -1.538915 1.117203 -1.276889
v -1.656856 0.886508 -1.285518
v -1.497211 1.234061 -1.263078
v -1.504634 1.233864 -1.181138
v -1.436726 1.346845 -1.238001
v -1.656577 0.885311 -1.202162
v -1.445869 1.194652 -1.185157
v -1.420645 1.339908 -1.175613
v -1.370019 1.297192 -1.196890
v -1.442508 1.197760 -1.269992
v -1.677746 0.903712 -1.285145
v -1.631229 1.033661 -1.288838
v -1.712936 0.911912 -1.261881
v -1.636622 1.031820 -1.193699
v -1.428191 1.337370 -1.196862
v -1.582753 0.995591 -1.192889
v -1.655759 0.885982 -1.263473
v -1.390240 1.313058 -1.197163
v -1.445064 1.196326 -1.220186
v -1.511103 1.094416 -1.211948
v -1.509959 1.096015 -1.249357
v -1.476559 1.226026 -1.184445
v -1.553854 1.121757 -1.190277
v -1.530496 1.105875 -1.187190
v -1.505449 1.237087 -1.223451
v -1.635936 1.034126 -1.240899
v -1.565956 1.133759 -1.251529
v -1.564392 1.130162 -1.211271
v -1.606103 1.016758 -1.285580
v -1.521267 1.104974 -1.270937
v -1.617693 1.023236 -1.284106
v -1.593497 1.008255 -1.279763
v -1.456000 1.207158 -1.275316
v -1.646352 1.039623 -1.219362
v -1.635756 1.034616 -1.271811
v -1.500422 1.235242 -1.247654
v -1.621505 0.991930 -1.197677
v -1.626256 1.025193 -1.199001
v -1.590051 0.984753 -1.245356
v -1.584125 0.997850 -1.215270
v -1.449885 1.198319 -1.200503
v -1.399230 1.318197 -1.237628
v -1.694527 0.917022 -1.202195
v -1.664931 0.896475 -1.247988
v -1.701555 0.902187 -1.284494
v -1.445806 1.198044 -1.239457
v -1.462302 1.205517 -1.182466
v -1.510607 1.239508 -1.206967
v -1.468559 1.230977 -1.268441
vn -0.1649 0.1604 -0.9732
vn 0.0687 -0.1407 0.9877
vn 0.2202 -0.9404 -0.2591
vn -0.6016 -0.7585 0.2505
vn 0.7370 0.6713 -0.0785
vn -0.1304 0.2108 -0.9688
vn 0.1826 -0.2338 0.9550
vn -0.1225 -0.0015 0.9925
vn -0.0892 0.0269 0.9957
vn 0.0837 -0.1178 0.9895
vn 0.7460 -0.5505 -0.3749
vn 0.8359 -0.5461 -0.0546
vn 0.6171 0.7859 -0.0397
vn 0.6110 0.7810 0.1292
vn -0.7653 -0.6435 -0.0173
vn -0.6396 -0.7655 -0.0699
vn 0.0521 -0.9478 -0.3144
vn -0.0978 0.0280 0.9948
vn 0.1012 0.0113 -0.9948
vn 0.7874 -0.6086 0.0985
vn 0.8101 -0.5789 0.0929
vn -0.8842 0.0461 -0.4648
vn 0.2477 -0.8140 0.5253
vn 0.5783 0.7528 -0.3143
vn 0.7176 -0.5570 0.4181
vn 0.8105 -0.5811 0.0732
vn -0.3518 0.1808 0.9184
vn -0.0418 -0.0569 0.9975
vn -0.1200 0.0056 0.9928
vn -0.6226 0.4725 0.6237
vn -0.6904 0.4222 -0.5874
vn -0.8093 0.5667 -0.1546
vn 0.3338 -0.1426 -0.9318
vn -0.0808 0.0815 -0.9934
vn 0.2654 -0.0911 -0.9598
vn -0.0288 0.0232 -0.9993
vn 0.2014 -0.1759 -0.9636
vn 0.0441 0.0581 -0.9973
vn 0.1170 0.0766 -0.9902
vn 0.0147 0.0396 -0.9991
vn 0.3002 -0.1939 -0.9340
vn 0.2401 -0.1941 -0.9511
vn -0.1808 0.1836 -0.9662
vn -0.6161 0.5036 0.6057
vn -0.7771 0.4563 0.4334
vn -0.7723 0.4164 -0.4798
vn -0.7815 0.5911 -0.1999
vn -0.8472 0.5301 -0.0343
vn -0.8442 0.5360 0.0036
vn -0.6643 0.4319 -0.6101
vn -0.8174 0.5359 -0.2112
vn -0.6233 0.5230 -0.5814
vn 0.1155 -0.1750 0.9778
vn -0.0282 -0.0327 0.9991
vn -0.0188 -0.0177 0.9997
vn 0.0838 -0.1174 0.9895
vn 0.7969 -0.6035 0.0263
vn -0.3389 0.1998 0.9194
vn 0.8411 -0.5409 0.0053
vn 0.7394 -0.5850 -0.3333
vn 0.8227 -0.5625 0.0828
vn 0.8299 -0.4531 -0.3255
vn 0.7756 -0.4684 0.4231
vn 0.5321 0.8466 -0.0107
vn 0.3380 0.8680 0.3638
vn 0.6070 0.7942 -0.0278
vn -0.6785 -0.7289 0.0920
vn 0.6840 0.5954 0.4214
vn -0.7566 -0.5890 0.2838
vn -0.6178 -0.7408 0.2637
vn 0.5163 0.8094 -0.2800
vn -0.7728 0.6015 0.2026
vn -0.6797 -0.7330 -0.0268
vn 0.7915 -0.6017 -0.1073
vn 0.4912 0.7615 0.4229
vn 0.8022 -0.4685 -0.3701
vn 0.8367 -0.5392 0.0954
vn 0.2120 -0.1905 0.9585
vn 0.1139 -0.0732 0.9908
vn -0.7098 0.6302 -0.3147
vn -0.8430 0.4275 -0.3266
vn -0.8353 0.5269 -0.1571
vn 0.0274 0.0824 -0.9962
vn -0.1539 0.2376 -0.9591
vn 0.7496 -0.6145 0.2458
vn 0.7597 -0.6375 0.1279
vn 0.8106 -0.5808 0.0746
vn -0.1902 0.0119 0.9817
vn -0.1233 0.0071 0.9923
vn -0.8406 0.4982 -0.2126
vn -0.8181 0.5751 0.0044
vn -0.6859 0.5819 0.4370
vn 0.2539 -0.1018 -0.9619
vn 0.1011 0.0184 -0.9947
vn -0.0949 0.0563 -0.9939
vn 0.0051 -0.0003 -1.0000
vn 0.1182 -0.0146 -0.9929
vn 0.3029 -0.1019 -0.9475
vn 0.0076 0.0038 -1.0000
vn 0.2054 -0.1725 -0.9634
vn -0.7539 0.4493 -0.4793
vn -0.8872 0.4568 0.0653
vn -0.7764 0.5831 -0.2391
vn -0.8099 0.5328 -0.2452
vn -0.8468 0.5318 -0.0102
vn -0.7936 0.5714 -0.2090
vn -0.8223 0.5446 -0.1650
vn -0.8175 0.5360 -0.2107
vn 0.2977 -0.2675 0.9164
vn 0.3006 -0.2632 0.9167
vn 0.1386 -0.1408 0.9803
vn 0.8126 -0.5728 -0.1076
vn 0.8304 -0.5470 -0.1061
vn 0.8015 -0.5970 -0.0358
vn 0.8341 -0.5508 0.0297
vn 0.8211 -0.5117 0.2529
vn 0.5328 0.8461 -0.0122
vn -0.6355 -0.7720 0.0132
vn 0.6334 0.7709 -0.0669
vn -0.7443 0.5956 0.3023
vn 0.7908 -0.6062 -0.0845
vn 0.8741 -0.4798 -0.0764
vn 0.8406 -0.5361 0.0774
vn -0.0698 0.0476 0.9964
vn -0.1064 0.0257 0.9940
vn -0.7454 0.6311 -0.2144
vn -0.6665 0.4363 0.6045
vn -0.8633 0.4132 0.2899
s 0
usemtl Fence2
f 20//1 2//1 66//1
f 24//2 4//2 64//2
f 14//3 28//3 61//3
f 60//4 9//4 30//4
f 59//5 11//5 35//5
f 66//6 8//6 50//6
f 54//7 41//7 16//7
f 23//8 33//8 54//8
f 60//9 54//9 55//9
f 39//10 25//10 21//10
f 56//11 38//11 15//11
f 34//12 19//12 56//12
f 35//13 4//13 26//13
f 13//14 35//14 26//14
f 23//15 61//15 34//15
f 60//16 61//16 23//16
f 14//17 62//17 28//17
f 64//18 4//18 39//18
f 7//19 66//19 18//19
f 26//20 36//20 13//20
f 63//21 27//21 1//21
f 30//22 3//22 62//22
f 60//23 14//23 61//23
f 59//24 22//24 11//24
f 57//25 15//25 37//25
f 6//26 56//26 19//26
f 55//27 16//27 40//27
f 39//28 4//28 25//28
f 41//29 33//29 12//29
f 22//30 42//30 11//30
f 44//31 43//31 17//31
f 45//32 31//32 10//32
f 18//33 49//33 46//33
f 7//34 46//34 48//34
f 48//35 29//35 7//35
f 48//36 28//36 62//36
f 48//37 3//37 29//37
f 6//38 49//38 47//38
f 1//39 50//39 8//39
f 19//40 28//40 49//40
f 28//41 46//41 49//41
f 27//42 47//42 50//42
f 50//43 18//43 66//43
f 17//44 51//44 45//44
f 51//45 5//45 31//45
f 9//46 51//46 43//46
f 7//47 52//47 44//47
f 52//48 3//48 30//48
f 52//49 9//49 43//49
f 2//50 53//50 22//50
f 20//51 44//51 53//51
f 42//52 44//52 17//52
f 10//53 55//53 40//53
f 60//54 23//54 54//54
f 55//55 5//55 60//55
f 21//56 40//56 39//56
f 12//57 57//57 37//57
f 40//58 16//58 39//58
f 57//59 23//59 34//59
f 26//60 24//60 58//60
f 34//61 56//61 57//61
f 24//62 37//62 58//62
f 36//63 37//63 15//63
f 13//64 59//64 35//64
f 8//65 2//65 59//65
f 2//66 22//66 59//66
f 28//67 34//67 61//67
f 1//68 8//68 59//68
f 60//69 30//69 14//69
f 60//70 5//70 9//70
f 25//71 35//71 32//71
f 32//72 21//72 25//72
f 14//73 30//73 62//73
f 13//74 63//74 1//74
f 11//75 32//75 35//75
f 63//76 15//76 38//76
f 63//77 6//77 27//77
f 64//78 16//78 41//78
f 64//79 12//79 24//79
f 32//80 42//80 65//80
f 42//81 45//81 65//81
f 21//82 45//82 10//82
f 66//83 2//83 8//83
f 7//84 20//84 66//84
f 26//85 58//85 36//85
f 57//86 56//86 15//86
f 6//87 38//87 56//87
f 55//88 54//88 16//88
f 41//89 54//89 33//89
f 22//90 53//90 42//90
f 44//91 52//91 43//91
f 45//92 51//92 31//92
f 18//93 47//93 49//93
f 7//94 18//94 46//94
f 48//95 46//95 28//95
f 48//96 62//96 3//96
f 6//97 19//97 49//97
f 1//98 27//98 50//98
f 27//99 6//99 47//99
f 50//100 47//100 18//100
f 17//101 43//101 51//101
f 51//102 9//102 5//102
f 7//103 29//103 52//103
f 52//104 29//104 3//104
f 52//105 30//105 9//105
f 2//106 20//106 53//106
f 20//107 7//107 44//107
f 42//108 53//108 44//108
f 10//109 31//109 55//109
f 55//110 31//110 5//110
f 21//111 10//111 40//111
f 12//112 33//112 57//112
f 57//113 33//113 23//113
f 26//114 4//114 24//114
f 24//115 12//115 37//115
f 36//116 58//116 37//116
f 13//117 1//117 59//117
f 28//118 19//118 34//118
f 25//119 4//119 35//119
f 32//120 65//120 21//120
f 13//121 36//121 63//121
f 63//122 36//122 15//122
f 63//123 38//123 6//123
f 64//124 39//124 16//124
f 64//125 41//125 12//125
f 32//126 11//126 42//126
f 42//127 17//127 45//127
f 21//128 65//128 45//128
