# Blender 4.1.1
# www.blender.org
mtllib Cube.035_Cube.038.mtl
o Cube.035_Cube.038
v 4.664221 -0.948053 -0.670947
v 4.606123 -0.918802 -0.670374
v 4.603939 -0.917424 -1.161519
v 4.630493 -1.023005 -0.667752
v 4.567331 -0.991391 -1.164473
v 4.664051 -0.948077 -0.917076
v 4.610159 -0.912072 -0.935510
v 4.637526 -0.933716 -0.662556
v 4.575978 -0.972275 -1.171361
v 4.564260 -0.992539 -0.917076
v 4.589323 -0.957025 -0.660565
v 4.623653 -1.024079 -0.917076
v 4.650203 -0.986363 -0.668190
v 4.614198 -0.966973 -1.187874
v 4.651354 -0.988161 -0.917076
v 4.592427 -1.010209 -0.917076
v 4.573368 -0.945344 -0.917076
v 4.633121 -0.926044 -0.917076
v 4.658482 -0.944033 -1.174442
v 4.602437 -0.919210 -0.796255
v 4.560616 -0.990065 -0.796255
v 4.582937 -0.930050 -0.667764
v 4.622344 -1.019076 -1.170908
v 4.625718 -1.017794 -0.796255
v 4.570807 -0.993375 -0.661290
v 4.639075 -1.003877 -0.669632
v 4.664347 -0.942126 -0.796255
v 4.634239 -0.932296 -1.171792
v 4.608664 -0.907695 -1.038356
v 4.593356 -0.938734 -1.183365
v 4.563323 -0.991528 -1.037896
v 4.575727 -0.972502 -0.668710
v 4.621146 -1.021050 -1.037896
v 4.649800 -0.964290 -1.173112
v 4.616267 -0.992174 -0.667751
v 4.641039 -0.986239 -0.796255
v 4.636354 -1.000203 -0.917076
v 4.653022 -0.966656 -0.917076
v 4.587099 -0.998952 -0.787294
v 4.581258 -0.997149 -0.917076
v 4.605203 -1.012448 -0.917076
v 4.577194 -0.950993 -0.796255
v 4.583642 -0.948857 -1.038078
v 4.593464 -0.934752 -0.917076
v 4.578544 -0.972348 -0.917076
v 4.634360 -0.924044 -1.038209
v 4.649718 -0.940909 -0.917076
v 4.621822 -0.919544 -1.039214
v 4.645411 -0.935996 -1.037935
v 4.651978 -0.930055 -0.796255
v 4.563578 -0.962997 -1.038190
v 4.597236 -0.921112 -1.039192
v 4.592607 -0.931579 -0.796255
v 4.595690 -1.004559 -1.062758
v 4.576702 -0.992225 -1.037896
v 4.644068 -0.974699 -1.053695
v 4.628936 -0.999903 -1.037961
v 4.627713 -1.001636 -0.796255
v 4.624918 -0.951411 -0.670618
v 4.578398 -0.996987 -1.165750
v 4.630957 -0.972007 -1.168708
v 4.616659 -0.925172 -1.186277
v 4.648188 -0.968246 -0.796255
v 4.606867 -1.011472 -0.796255
v 4.564825 -0.963289 -0.796255
v 4.627984 -0.925093 -0.783141
vn 0.2292 0.9733 -0.0099
vn -0.3179 -0.9478 -0.0266
vn 0.7332 -0.1127 -0.6706
vn -0.2019 -0.2356 -0.9506
vn 0.2703 0.0104 0.9627
vn 0.2291 0.9720 0.0514
vn -0.1724 -0.9841 -0.0420
vn -0.5316 -0.8468 -0.0174
vn -0.5215 -0.8529 0.0249
vn -0.3184 -0.9480 0.0008
vn 0.9952 -0.0772 -0.0607
vn 0.9193 -0.3934 0.0099
vn 0.1073 0.0495 0.9930
vn 0.0302 -0.1010 0.9944
vn -0.2625 0.0929 -0.9604
vn -0.0855 0.0621 -0.9944
vn 0.6340 -0.0078 -0.7733
vn -0.5282 -0.8489 0.0209
vn 0.5118 0.8590 0.0135
vn 0.8447 -0.5317 -0.0610
vn 0.8502 -0.5260 -0.0240
vn -0.4856 0.7316 -0.4785
vn 0.3458 -0.7880 -0.5094
vn 0.2154 0.2991 0.9296
vn 0.6255 -0.7792 -0.0403
vn 0.8603 -0.5092 -0.0266
vn -0.7600 -0.6499 0.0022
vn -0.4461 -0.8948 -0.0181
vn -0.5333 -0.8459 -0.0101
vn -0.9746 -0.2100 0.0778
vn -0.4653 0.8828 -0.0651
vn -0.8163 0.5775 0.0112
vn 0.7339 0.6790 0.0187
vn 0.3398 0.9400 -0.0295
vn 0.6698 0.7422 0.0219
vn 0.4097 0.9109 -0.0492
vn 0.6638 0.7432 -0.0842
vn 0.4472 0.8942 0.0204
vn 0.4904 0.8681 0.0768
vn 0.4347 0.9005 -0.0114
vn 0.7341 0.6778 -0.0425
vn 0.6963 0.7135 -0.0771
vn 0.2030 0.9792 0.0008
vn -0.9766 -0.1872 0.1062
vn -0.9995 0.0086 -0.0316
vn -0.5722 0.8127 -0.1099
vn -0.7870 0.6154 0.0444
vn -0.8808 0.4723 -0.0340
vn -0.8981 0.4390 -0.0255
vn -0.4400 0.8969 -0.0438
vn -0.7827 0.6220 -0.0219
vn -0.4655 0.8833 0.0560
vn -0.2616 -0.9647 -0.0295
vn -0.4482 -0.8939 0.0095
vn -0.4485 -0.8933 0.0273
vn -0.3185 -0.9479 0.0012
vn 0.8815 -0.4689 -0.0553
vn -0.7597 -0.6497 0.0252
vn 0.8942 -0.4473 0.0202
vn 0.9884 -0.1220 -0.0908
vn 0.8563 -0.5165 -0.0039
vn 0.9901 -0.1222 0.0694
vn 0.6247 -0.7781 0.0657
vn 0.0009 0.0700 0.9975
vn -0.3222 -0.1927 0.9268
vn 0.0903 0.0446 0.9949
vn -0.2042 -0.0590 -0.9771
vn 0.0452 -0.4407 0.8965
vn -0.4156 -0.1638 -0.8947
vn -0.2287 -0.2368 -0.9443
vn 0.1260 0.3058 0.9437
vn -0.9636 0.2552 0.0790
vn -0.1505 0.0466 -0.9875
vn 0.9357 -0.3470 -0.0638
vn -0.1813 -0.3285 0.9269
vn 0.9963 -0.0773 0.0388
vn 0.8502 -0.5260 0.0238
vn -0.1726 -0.9849 0.0103
vn -0.3175 -0.9467 0.0547
vn -0.7007 0.7048 0.1108
vn -0.6988 0.7030 -0.1321
vn -0.8158 0.5772 -0.0364
vn 0.4224 0.9059 0.0314
vn 0.1942 0.9791 0.0610
vn 0.7538 -0.6524 -0.0792
vn 0.8247 -0.5569 -0.0989
vn 0.8596 -0.5103 -0.0263
vn -0.5845 -0.8101 -0.0445
vn -0.5363 -0.8440 -0.0107
vn -0.7815 0.6204 -0.0662
vn -0.8975 0.4406 0.0215
vn -0.9923 0.0101 0.1234
vn 0.6672 0.7449 0.0065
vn 0.5083 0.8610 0.0194
vn 0.3414 0.9381 -0.0582
vn 0.4470 0.8932 -0.0499
vn 0.5363 0.8440 0.0017
vn 0.6980 0.7153 0.0345
vn 0.4468 0.8935 -0.0451
vn 0.6651 0.7426 -0.0792
vn -0.5743 0.8154 -0.0724
vn -0.9199 0.3758 -0.1118
vn -0.7619 0.6465 0.0386
vn -0.7604 0.6491 -0.0221
vn -0.8920 0.4510 -0.0311
vn -0.7827 0.6220 0.0209
vn -0.8110 0.5848 -0.0150
vn -0.7830 0.6216 -0.0219
vn -0.0520 -0.9986 -0.0080
vn -0.0520 -0.9986 -0.0027
vn -0.2617 -0.9651 0.0119
vn 0.9380 -0.3456 -0.0281
vn 0.9384 -0.3456 0.0033
vn 0.9094 -0.4129 -0.0505
vn 0.8828 -0.4696 0.0093
vn 0.7553 -0.6537 0.0463
vn 0.0023 0.0709 0.9975
vn -0.1160 -0.0155 -0.9931
vn 0.1388 0.0640 0.9883
vn -0.9834 0.1546 0.0952
vn 0.9273 -0.3684 -0.0667
vn 0.9260 -0.3679 0.0849
vn 0.8596 -0.5103 0.0277
vn -0.5171 -0.8543 0.0529
vn -0.5332 -0.8458 0.0142
vn -0.7725 0.6276 0.0969
vn -0.9819 -0.1882 0.0223
vn -0.9804 0.1541 -0.1229
s 0
usemtl Fence
f 20//1 2//1 66//1
f 24//2 4//2 64//2
f 14//3 28//3 61//3
f 60//4 9//4 30//4
f 59//5 11//5 35//5
f 66//6 8//6 50//6
f 54//7 41//7 16//7
f 23//8 33//8 54//8
f 60//9 54//9 55//9
f 39//10 25//10 21//10
f 56//11 38//11 15//11
f 34//12 19//12 56//12
f 35//13 4//13 26//13
f 13//14 35//14 26//14
f 23//15 61//15 34//15
f 60//16 61//16 23//16
f 14//17 62//17 28//17
f 64//18 4//18 39//18
f 7//19 66//19 18//19
f 26//20 36//20 13//20
f 63//21 27//21 1//21
f 30//22 3//22 62//22
f 60//23 14//23 61//23
f 59//24 22//24 11//24
f 57//25 15//25 37//25
f 6//26 56//26 19//26
f 55//27 16//27 40//27
f 39//28 4//28 25//28
f 41//29 33//29 12//29
f 22//30 42//30 11//30
f 44//31 43//31 17//31
f 45//32 31//32 10//32
f 18//33 49//33 46//33
f 7//34 46//34 48//34
f 48//35 29//35 7//35
f 48//36 28//36 62//36
f 48//37 3//37 29//37
f 6//38 49//38 47//38
f 1//39 50//39 8//39
f 19//40 28//40 49//40
f 28//41 46//41 49//41
f 27//42 47//42 50//42
f 50//43 18//43 66//43
f 17//44 51//44 45//44
f 51//45 5//45 31//45
f 9//46 51//46 43//46
f 7//47 52//47 44//47
f 52//48 3//48 30//48
f 52//49 9//49 43//49
f 2//50 53//50 22//50
f 20//51 44//51 53//51
f 42//52 44//52 17//52
f 10//53 55//53 40//53
f 60//54 23//54 54//54
f 55//55 5//55 60//55
f 21//56 40//56 39//56
f 12//57 57//57 37//57
f 40//58 16//58 39//58
f 57//59 23//59 34//59
f 26//60 24//60 58//60
f 34//61 56//61 57//61
f 24//62 37//62 58//62
f 36//63 37//63 15//63
f 13//64 59//64 35//64
f 8//65 2//65 59//65
f 2//66 22//66 59//66
f 28//67 34//67 61//67
f 1//68 8//68 59//68
f 60//69 30//69 14//69
f 60//70 5//70 9//70
f 25//71 35//71 32//71
f 32//72 21//72 25//72
f 14//73 30//73 62//73
f 13//74 63//74 1//74
f 11//75 32//75 35//75
f 63//76 15//76 38//76
f 63//77 6//77 27//77
f 64//78 16//78 41//78
f 64//79 12//79 24//79
f 32//80 42//80 65//80
f 42//81 45//81 65//81
f 21//82 45//82 10//82
f 66//83 2//83 8//83
f 7//84 20//84 66//84
f 26//85 58//85 36//85
f 57//86 56//86 15//86
f 6//87 38//87 56//87
f 55//88 54//88 16//88
f 41//89 54//89 33//89
f 22//90 53//90 42//90
f 44//91 52//91 43//91
f 45//92 51//92 31//92
f 18//93 47//93 49//93
f 7//94 18//94 46//94
f 48//95 46//95 28//95
f 48//96 62//96 3//96
f 6//97 19//97 49//97
f 1//98 27//98 50//98
f 27//99 6//99 47//99
f 50//100 47//100 18//100
f 17//101 43//101 51//101
f 51//102 9//102 5//102
f 7//103 29//103 52//103
f 52//104 29//104 3//104
f 52//105 30//105 9//105
f 2//106 20//106 53//106
f 20//107 7//107 44//107
f 42//108 53//108 44//108
f 10//109 31//109 55//109
f 55//110 31//110 5//110
f 21//111 10//111 40//111
f 12//112 33//112 57//112
f 57//113 33//113 23//113
f 26//114 4//114 24//114
f 24//115 12//115 37//115
f 36//116 58//116 37//116
f 13//117 1//117 59//117
f 28//118 19//118 34//118
f 25//119 4//119 35//119
f 32//120 65//120 21//120
f 13//121 36//121 63//121
f 63//122 36//122 15//122
f 63//123 38//123 6//123
f 64//124 39//124 16//124
f 64//125 41//125 12//125
f 32//126 11//126 42//126
f 42//127 17//127 45//127
f 21//128 65//128 45//128
