# Blender 4.1.1
# www.blender.org
mtllib Cube.031_Cube.034.mtl
o Cube.031_Cube.034
v 4.437592 -0.119118 -1.065800
v 4.374413 -0.134598 -1.066326
v 4.491161 -0.606151 -0.993953
v 4.436759 -0.103539 -0.985040
v 4.488883 -0.597152 -0.911893
v 4.497199 -0.355114 -1.029303
v 4.439673 -0.389763 -1.034850
v 4.406233 -0.118652 -1.068038
v 4.490608 -0.606940 -0.931612
v 4.426564 -0.360167 -0.946116
v 4.372358 -0.118749 -1.026526
v 4.491658 -0.343392 -0.944214
v 4.439744 -0.109573 -1.026101
v 4.526331 -0.618053 -0.950636
v 4.501895 -0.347586 -0.988204
v 4.458513 -0.351568 -0.942810
v 4.415865 -0.369945 -0.991945
v 4.461071 -0.365182 -1.035265
v 4.553141 -0.603695 -0.992383
v 4.401872 -0.255766 -1.045730
v 4.393026 -0.245488 -0.964579
v 4.357733 -0.133053 -1.046569
v 4.550131 -0.588146 -0.910536
v 4.461658 -0.228724 -0.968559
v 4.370597 -0.113711 -0.986076
v 4.437208 -0.108539 -1.005482
v 4.465766 -0.240644 -1.052577
v 4.526379 -0.607732 -0.992543
v 4.461577 -0.489639 -1.022864
v 4.495569 -0.623693 -0.967191
v 4.454662 -0.476391 -0.928733
v 4.368455 -0.125010 -1.005638
v 4.517565 -0.460340 -0.927931
v 4.553186 -0.598969 -0.970816
v 4.411916 -0.113081 -1.006128
v 4.462674 -0.233818 -1.003251
v 4.493408 -0.347073 -0.970949
v 4.494824 -0.352429 -1.007998
v 4.417819 -0.230646 -0.969644
v 4.443439 -0.356415 -0.949487
v 4.470708 -0.349038 -0.946430
v 4.392167 -0.252169 -1.006484
v 4.455728 -0.483516 -0.975443
v 4.429440 -0.369317 -1.010149
v 4.431179 -0.362726 -0.970279
v 4.490778 -0.481599 -1.019666
v 4.481667 -0.359058 -1.029370
v 4.478139 -0.485592 -1.018006
v 4.505242 -0.476771 -1.013961
v 4.450022 -0.245444 -1.057850
v 4.443619 -0.483405 -0.954091
v 4.457000 -0.489044 -1.005834
v 4.398089 -0.254367 -1.030454
v 4.494520 -0.492072 -0.927705
v 4.466779 -0.474133 -0.933984
v 4.523262 -0.482904 -0.976735
v 4.516070 -0.464203 -0.950084
v 4.457001 -0.232247 -0.983757
v 4.404066 -0.124152 -1.045630
v 4.501210 -0.595317 -0.911599
v 4.538509 -0.595862 -0.956360
v 4.511508 -0.626060 -0.989004
v 4.461848 -0.236971 -1.022336
v 4.442463 -0.233173 -0.965894
v 4.386108 -0.251185 -0.990159
v 4.423634 -0.237801 -1.053662
vn -0.1816 -0.2047 -0.9618
vn 0.1018 0.1497 0.9835
vn 0.8564 -0.5016 -0.1226
vn 0.1457 -0.8871 0.4380
vn 0.0013 0.9628 -0.2701
vn -0.1961 -0.1456 -0.9697
vn 0.2487 0.1663 0.9542
vn -0.1297 0.1012 0.9864
vn -0.1285 0.1447 0.9811
vn 0.0948 0.1760 0.9798
vn 0.9261 0.1158 -0.3592
vn 0.9675 0.2466 -0.0561
vn -0.1658 0.9571 -0.2377
vn -0.1746 0.9821 -0.0707
vn -0.0361 -0.9839 0.1748
vn 0.1411 -0.9815 0.1295
vn 0.7519 -0.6404 -0.1568
vn -0.1350 0.1389 0.9811
vn 0.1082 -0.1109 -0.9879
vn 0.9737 0.1999 0.1097
vn 0.9672 0.2348 0.0968
vn -0.6044 -0.7083 -0.3647
vn 0.7429 -0.2472 0.6221
vn -0.1540 0.8539 -0.4971
vn 0.8730 0.2441 0.4222
vn 0.9701 0.2299 0.0779
vn -0.4148 0.0375 0.9092
vn -0.0348 0.1253 0.9915
vn -0.1332 0.1077 0.9852
vn -0.7979 -0.0280 0.6022
vn -0.7468 -0.3448 -0.5687
vn -0.9546 -0.2540 -0.1555
vn 0.3750 -0.0285 -0.9266
vn -0.0658 -0.1983 -0.9779
vn 0.2924 -0.0505 -0.9550
vn 0.0125 -0.1993 -0.9799
vn 0.3124 -0.1533 -0.9375
vn 0.0354 -0.1227 -0.9918
vn 0.0703 -0.0558 -0.9960
vn 0.0295 -0.1567 -0.9872
vn 0.3905 -0.0869 -0.9165
vn 0.3513 -0.1344 -0.9266
vn -0.2098 -0.1999 -0.9571
vn -0.8156 -0.0065 0.5786
vn -0.8802 -0.1887 0.4355
vn -0.8026 -0.3878 -0.4532
vn -0.9518 -0.2265 -0.2068
vn -0.9589 -0.2825 -0.0272
vn -0.9631 -0.2691 0.0087
vn -0.7353 -0.3237 -0.5955
vn -0.9345 -0.2911 -0.2048
vn -0.7766 -0.2287 -0.5870
vn 0.1591 0.1598 0.9742
vn -0.0436 0.1512 0.9875
vn -0.0485 0.1681 0.9846
vn 0.0946 0.1763 0.9798
vn 0.9799 0.1962 0.0371
vn -0.4202 0.0595 0.9055
vn 0.9642 0.2653 0.0012
vn 0.9452 0.0964 -0.3121
vn 0.9640 0.2528 0.0828
vn 0.9079 0.2504 -0.3362
vn 0.8461 0.3454 0.4059
vn -0.2692 0.9399 -0.2099
vn -0.4336 0.8840 0.1750
vn -0.1793 0.9574 -0.2263
vn 0.0800 -0.9548 0.2864
vn -0.0026 0.9712 0.2381
vn -0.0854 -0.8839 0.4598
vn 0.1210 -0.8849 0.4498
vn -0.2391 0.8519 -0.4659
vn -0.9734 -0.1355 0.1849
vn 0.0880 -0.9814 0.1708
vn 0.9814 0.1675 -0.0935
vn -0.2549 0.9383 0.2336
vn 0.9029 0.2114 -0.3743
vn 0.9556 0.2807 0.0897
vn 0.2362 0.2167 0.9472
vn 0.0820 0.2275 0.9703
vn -0.9270 -0.1707 -0.3339
vn -0.8658 -0.4028 -0.2970
vn -0.9425 -0.2995 -0.1483
vn 0.0062 -0.1189 -0.9929
vn -0.2321 -0.1436 -0.9620
vn 0.9455 0.1968 0.2593
vn 0.9751 0.1664 0.1464
vn 0.9699 0.2303 0.0791
vn -0.1844 0.0582 0.9811
vn -0.1366 0.1062 0.9849
vn -0.9221 -0.3329 -0.1973
vn -0.9745 -0.2243 -0.0000
vn -0.9121 -0.0393 0.4081
vn 0.2927 -0.0662 -0.9539
vn 0.1029 -0.1063 -0.9890
vn -0.0566 -0.2252 -0.9727
vn 0.0526 -0.1899 -0.9804
vn 0.1387 -0.1149 -0.9836
vn 0.3250 -0.0275 -0.9453
vn 0.0513 -0.1854 -0.9813
vn 0.3126 -0.1481 -0.9383
vn -0.8147 -0.3528 -0.4602
vn -0.9363 -0.3403 0.0870
vn -0.9406 -0.2356 -0.2445
vn -0.9255 -0.2942 -0.2385
vn -0.9610 -0.2764 -0.0039
vn -0.9449 -0.2500 -0.2111
vn -0.9465 -0.2800 -0.1603
vn -0.9347 -0.2910 -0.2042
vn 0.3528 0.2213 0.9092
vn 0.3515 0.2263 0.9084
vn 0.1491 0.1995 0.9685
vn 0.9742 0.2018 -0.1009
vn 0.9670 0.2320 -0.1057
vn 0.9811 0.1918 -0.0253
vn 0.9656 0.2585 0.0276
vn 0.9170 0.3177 0.2413
vn -0.2683 0.9398 -0.2114
vn 0.1446 -0.9666 0.2115
vn -0.1425 0.9540 -0.2637
vn -0.9548 -0.0992 0.2803
vn 0.9832 0.1685 -0.0704
vn 0.9450 0.3135 -0.0927
vn 0.9567 0.2821 0.0711
vn -0.1309 0.1726 0.9763
vn -0.1391 0.1310 0.9816
vn -0.9566 -0.1768 -0.2317
vn -0.7995 -0.0875 0.5943
vn -0.8990 -0.3077 0.3117
s 0
usemtl Fence2
f 20//1 2//1 66//1
f 24//2 4//2 64//2
f 14//3 28//3 61//3
f 60//4 9//4 30//4
f 59//5 11//5 35//5
f 66//6 8//6 50//6
f 54//7 41//7 16//7
f 23//8 33//8 54//8
f 60//9 54//9 55//9
f 39//10 25//10 21//10
f 56//11 38//11 15//11
f 34//12 19//12 56//12
f 35//13 4//13 26//13
f 13//14 35//14 26//14
f 23//15 61//15 34//15
f 60//16 61//16 23//16
f 14//17 62//17 28//17
f 64//18 4//18 39//18
f 7//19 66//19 18//19
f 26//20 36//20 13//20
f 63//21 27//21 1//21
f 30//22 3//22 62//22
f 60//23 14//23 61//23
f 59//24 22//24 11//24
f 57//25 15//25 37//25
f 6//26 56//26 19//26
f 55//27 16//27 40//27
f 39//28 4//28 25//28
f 41//29 33//29 12//29
f 22//30 42//30 11//30
f 44//31 43//31 17//31
f 45//32 31//32 10//32
f 18//33 49//33 46//33
f 7//34 46//34 48//34
f 48//35 29//35 7//35
f 48//36 28//36 62//36
f 48//37 3//37 29//37
f 6//38 49//38 47//38
f 1//39 50//39 8//39
f 19//40 28//40 49//40
f 28//41 46//41 49//41
f 27//42 47//42 50//42
f 50//43 18//43 66//43
f 17//44 51//44 45//44
f 51//45 5//45 31//45
f 9//46 51//46 43//46
f 7//47 52//47 44//47
f 52//48 3//48 30//48
f 52//49 9//49 43//49
f 2//50 53//50 22//50
f 20//51 44//51 53//51
f 42//52 44//52 17//52
f 10//53 55//53 40//53
f 60//54 23//54 54//54
f 55//55 5//55 60//55
f 21//56 40//56 39//56
f 12//57 57//57 37//57
f 40//58 16//58 39//58
f 57//59 23//59 34//59
f 26//60 24//60 58//60
f 34//61 56//61 57//61
f 24//62 37//62 58//62
f 36//63 37//63 15//63
f 13//64 59//64 35//64
f 8//65 2//65 59//65
f 2//66 22//66 59//66
f 28//67 34//67 61//67
f 1//68 8//68 59//68
f 60//69 30//69 14//69
f 60//70 5//70 9//70
f 25//71 35//71 32//71
f 32//72 21//72 25//72
f 14//73 30//73 62//73
f 13//74 63//74 1//74
f 11//75 32//75 35//75
f 63//76 15//76 38//76
f 63//77 6//77 27//77
f 64//78 16//78 41//78
f 64//79 12//79 24//79
f 32//80 42//80 65//80
f 42//81 45//81 65//81
f 21//82 45//82 10//82
f 66//83 2//83 8//83
f 7//84 20//84 66//84
f 26//85 58//85 36//85
f 57//86 56//86 15//86
f 6//87 38//87 56//87
f 55//88 54//88 16//88
f 41//89 54//89 33//89
f 22//90 53//90 42//90
f 44//91 52//91 43//91
f 45//92 51//92 31//92
f 18//93 47//93 49//93
f 7//94 18//94 46//94
f 48//95 46//95 28//95
f 48//96 62//96 3//96
f 6//97 19//97 49//97
f 1//98 27//98 50//98
f 27//99 6//99 47//99
f 50//100 47//100 18//100
f 17//101 43//101 51//101
f 51//102 9//102 5//102
f 7//103 29//103 52//103
f 52//104 29//104 3//104
f 52//105 30//105 9//105
f 2//106 20//106 53//106
f 20//107 7//107 44//107
f 42//108 53//108 44//108
f 10//109 31//109 55//109
f 55//110 31//110 5//110
f 21//111 10//111 40//111
f 12//112 33//112 57//112
f 57//113 33//113 23//113
f 26//114 4//114 24//114
f 24//115 12//115 37//115
f 36//116 58//116 37//116
f 13//117 1//117 59//117
f 28//118 19//118 34//118
f 25//119 4//119 35//119
f 32//120 65//120 21//120
f 13//121 36//121 63//121
f 63//122 36//122 15//122
f 63//123 38//123 6//123
f 64//124 39//124 16//124
f 64//125 41//125 12//125
f 32//126 11//126 42//126
f 42//127 17//127 45//127
f 21//128 65//128 45//128
