# Blender 4.1.1
# www.blender.org
mtllib Plane.012_Plane.023.mtl
o Plane.012_Plane.023
v 6.615662 5.457414 21.399935
v 6.619720 4.924964 21.498295
v 6.678915 5.434851 21.275192
v 6.682973 4.902401 21.373554
v 6.646731 5.519319 21.324043
v 6.587417 5.161144 21.439198
v 6.651347 4.913681 21.435925
v 6.650673 5.138584 21.314455
v 6.600029 5.212910 21.355782
v 6.922549 5.285499 21.180569
v 6.981620 4.762255 21.306755
v 7.037638 5.316918 21.256977
v 7.096710 4.793674 21.383162
v 6.971975 5.373127 21.201429
v 6.974600 4.992843 21.222507
v 7.039164 4.777962 21.344959
v 7.089690 5.024261 21.298916
v 7.036806 5.069589 21.228592
v 7.146868 5.519968 21.622513
v 7.224575 5.017933 21.809910
v 7.046243 5.540798 21.720045
v 7.123950 5.038763 21.907442
v 7.085874 5.599386 21.645523
v 7.213144 5.255178 21.747446
v 7.174261 5.028348 21.858677
v 7.112523 5.276011 21.844978
v 7.167634 5.333881 21.786579
v 6.142560 5.564947 21.712400
v 6.164584 5.033277 21.812595
v 6.003775 5.564556 21.740845
v 6.025799 5.032889 21.841042
v 6.070141 5.637828 21.712849
v 6.161391 5.278548 21.800362
v 6.095190 5.033083 21.826817
v 6.022603 5.278161 21.828804
v 6.093384 5.347041 21.822289
v 7.026740 5.518140 21.605354
v 7.068896 4.998769 21.752571
v 6.984950 5.478096 21.476044
v 7.027105 4.958725 21.623264
v 7.000051 5.569504 21.520466
v 7.017521 5.232375 21.696831
v 7.048001 4.978746 21.687916
v 6.975728 5.192328 21.567524
v 6.971776 5.275808 21.620556
v 6.488539 5.610211 21.904545
v 6.480494 5.089227 22.051880
v 6.592665 5.582583 21.812542
v 6.584622 5.061599 21.959873
v 6.541708 5.668005 21.838293
v 6.461015 5.316761 21.961512
v 6.532559 5.075411 22.005875
v 6.565141 5.289135 21.869507
v 6.500024 5.362470 21.882862
v 6.570026 5.361347 20.952606
v 6.561981 4.840363 21.099941
v 6.440164 5.378604 21.006538
v 6.432120 4.857622 21.153875
v 6.506200 5.441584 20.959324
v 6.579202 5.082686 21.063866
v 6.497052 4.848992 21.126907
v 6.449339 5.099943 21.117800
v 6.523517 5.159822 21.091179
vn 0.8174 0.2757 0.5059
vn 0.7864 -0.0561 0.6152
vn 0.9486 -0.1140 0.2953
vn 0.9284 0.2361 0.2869
vn -0.6796 0.2671 0.6832
vn -0.6832 -0.0810 0.7257
vn -0.3882 -0.0004 0.9216
vn -0.4776 0.3223 0.8174
vn -0.6098 -0.1945 -0.7683
vn -0.5134 -0.5205 -0.6823
vn -0.7713 -0.4672 -0.4322
vn -0.7865 -0.1579 -0.5970
vn -0.0773 -0.0148 -0.9969
vn -0.0054 -0.3526 -0.9358
vn -0.3612 -0.3536 -0.8628
vn -0.3209 -0.0155 -0.9470
vn 0.9537 0.1922 -0.2315
vn 0.9889 -0.1233 -0.0824
vn 0.8818 -0.2260 -0.4140
vn 0.8803 0.1219 -0.4585
vn 0.5735 0.3767 0.7275
vn 0.5202 0.0534 0.8524
vn 0.7872 -0.0175 0.6165
vn 0.7563 0.3282 0.5659
vn -0.2737 -0.0868 -0.9579
vn -0.2227 -0.4244 -0.8776
vn -0.5557 -0.3802 -0.7394
vn -0.5017 -0.0565 -0.8632
vn 0.8851 0.2232 0.4084
vn 0.6629 0.0359 0.7478
vn 0.9917 -0.0814 0.0995
vn -0.5824 0.2632 0.7691
vn -0.8167 -0.0631 0.5735
vn -0.2186 0.1002 0.9707
vn -0.5825 0.2633 0.7691
vn -0.7024 -0.2127 -0.6793
vn -0.3600 -0.4703 -0.8057
vn -0.8830 -0.3620 -0.2988
vn -0.2004 -0.0514 -0.9784
vn 0.1833 -0.2776 -0.9430
vn -0.5380 -0.2796 -0.7952
vn 0.9323 0.1240 -0.3397
vn 0.9965 -0.0056 0.0831
vn 0.7793 -0.2137 -0.5891
vn 0.6734 0.3219 0.6655
vn 0.3540 0.1461 0.9238
vn 0.8953 0.0025 0.4455
vn 0.6734 0.3220 0.6655
vn -0.3935 -0.1080 -0.9130
vn -0.0331 -0.3715 -0.9278
vn -0.7080 -0.2818 -0.6475
vn -0.3935 -0.1079 -0.9130
s 0
usemtl Material.001
f 7//1 8//1 9//1
f 9//2 3//2 5//2
f 1//3 9//3 5//3
f 6//4 7//4 9//4
f 16//5 17//5 18//5
f 18//6 12//6 14//6
f 10//7 18//7 14//7
f 15//8 16//8 18//8
f 25//9 26//9 27//9
f 27//10 21//10 23//10
f 19//11 27//11 23//11
f 24//12 25//12 27//12
f 34//13 35//13 36//13
f 36//14 30//14 32//14
f 28//15 36//15 32//15
f 33//16 34//16 36//16
f 43//17 44//17 45//17
f 45//18 39//18 41//18
f 37//19 45//19 41//19
f 42//20 43//20 45//20
f 52//21 53//21 54//21
f 54//22 48//22 50//22
f 46//23 54//23 50//23
f 51//24 52//24 54//24
f 61//25 62//25 63//25
f 63//26 57//26 59//26
f 55//27 63//27 59//27
f 60//28 61//28 63//28
f 7//29 4//29 8//29
f 9//30 8//30 3//30
f 1//31 6//31 9//31
f 6//29 2//29 7//29
f 16//32 13//32 17//32
f 18//33 17//33 12//33
f 10//34 15//34 18//34
f 15//35 11//35 16//35
f 25//36 22//36 26//36
f 27//37 26//37 21//37
f 19//38 24//38 27//38
f 24//36 20//36 25//36
f 34//39 31//39 35//39
f 36//40 35//40 30//40
f 28//41 33//41 36//41
f 33//39 29//39 34//39
f 43//42 40//42 44//42
f 45//43 44//43 39//43
f 37//44 42//44 45//44
f 42//42 38//42 43//42
f 52//45 49//45 53//45
f 54//46 53//46 48//46
f 46//47 51//47 54//47
f 51//48 47//48 52//48
f 61//49 58//49 62//49
f 63//50 62//50 57//50
f 55//51 60//51 63//51
f 60//52 56//52 61//52
