# Blender 4.1.1
# www.blender.org
mtllib Plane.024_Plane.015.mtl
o Plane.024_Plane.015
v -6.841251 5.309296 7.931802
v -6.979689 4.788314 7.982880
v -6.851058 5.298089 7.790915
v -6.989495 4.777107 7.841994
v -6.827125 5.375302 7.854338
v -6.950353 5.031217 7.961515
v -6.984591 4.782711 7.912436
v -6.960158 5.020010 7.820629
v -6.958352 5.094472 7.885812
v -6.741994 5.111859 7.581057
v -6.819428 4.578217 7.630301
v -6.602202 5.092755 7.593857
v -6.679636 4.559112 7.643104
v -6.661454 5.175655 7.580688
v -6.782029 4.814424 7.574398
v -6.749532 4.568665 7.636703
v -6.642238 4.795320 7.587200
v -6.701113 4.867751 7.554269
v -6.281451 5.172482 7.872318
v -6.309325 4.640119 7.967242
v -6.315144 5.198344 8.007473
v -6.343018 4.665981 8.102397
v -6.294466 5.258584 7.926848
v -6.263763 4.878996 7.932889
v -6.326169 4.653050 8.034821
v -6.297458 4.904858 8.068043
v -6.257136 4.956624 7.993939
v -7.060144 5.471915 8.440390
v -7.182600 4.946305 8.484408
v -7.163047 5.503599 8.532466
v -7.285503 4.977991 8.576485
v -7.094765 5.559999 8.480379
v -7.105485 5.179407 8.490376
v -7.234051 4.962148 8.530445
v -7.208388 5.211091 8.582453
v -7.128585 5.257455 8.546694
v -6.389280 5.207672 7.915473
v -6.470224 4.677706 7.991508
v -6.494332 5.210085 7.820452
v -6.575276 4.680119 7.896486
v -6.430681 5.281720 7.857512
v -6.456147 4.922721 7.982162
v -6.522751 4.678912 7.943997
v -6.561198 4.925133 7.887141
v -6.512350 4.992715 7.940468
v -6.673369 5.376690 8.443089
v -6.796489 4.859037 8.543464
v -6.636714 5.342288 8.310637
v -6.759832 4.824638 8.411011
v -6.638119 5.430638 8.363068
v -6.773164 5.097167 8.488070
v -6.778159 4.841838 8.477239
v -6.736508 5.062767 8.355618
v -6.759273 5.146432 8.403355
v -7.107816 5.330087 7.557737
v -7.230934 4.812434 7.658112
v -7.186058 5.370234 7.668812
v -7.309177 4.852582 7.769186
v -7.130013 5.421312 7.599478
v -7.148310 5.042373 7.633207
v -7.270056 4.832508 7.713649
v -7.226551 5.082518 7.744279
v -7.155828 5.123931 7.688779
vn 0.9950 -0.0784 0.0620
vn 0.9019 -0.4044 0.1520
vn 0.8767 -0.4331 -0.2092
vn 0.9778 -0.0981 -0.1853
vn -0.1730 0.2876 0.9420
vn -0.2782 -0.0465 0.9594
vn 0.0802 -0.0955 0.9922
vn 0.0725 0.2541 0.9645
vn -0.9092 0.1547 -0.3867
vn -0.9047 -0.1959 -0.3784
vn -0.9911 -0.1296 -0.0319
vn -0.9683 0.2001 -0.1493
vn -0.5047 0.2261 -0.8332
vn -0.5355 -0.1233 -0.8355
vn -0.7993 -0.0420 -0.5994
vn -0.6853 0.2817 -0.6715
vn 0.7571 -0.0324 -0.6524
vn 0.7420 -0.3701 -0.5590
vn 0.4727 -0.3639 -0.8026
vn 0.5727 -0.0282 -0.8193
vn 0.9244 0.0348 0.3798
vn 0.8225 -0.2805 0.4947
vn 0.9165 -0.3687 0.1552
vn 0.9888 -0.0256 0.1472
vn -0.6756 0.2044 -0.7084
vn -0.7154 -0.1432 -0.6838
vn -0.9160 -0.0403 -0.3990
vn -0.8130 0.2748 -0.5134
vn 0.9904 -0.1248 -0.0590
vn 0.8893 -0.3133 0.3332
vn 0.8383 -0.3715 -0.3990
vn -0.0562 0.2384 0.9695
vn -0.4493 0.0405 0.8924
vn 0.2773 -0.0588 0.9590
vn -0.9534 0.1437 -0.2652
vn -0.8138 -0.1641 -0.5575
vn -0.9890 -0.0297 0.1451
vn -0.6114 0.2217 -0.7596
vn -0.3560 -0.1035 -0.9287
vn -0.8908 0.0612 -0.4502
vn 0.6685 -0.0667 -0.7407
vn 0.8614 -0.2983 -0.4110
vn 0.3154 -0.2858 -0.9049
vn 0.9613 -0.0304 0.2739
vn 0.7480 -0.1635 0.6433
vn 0.9385 -0.3423 -0.0452
vn 0.9613 -0.0304 0.2740
vn -0.7628 0.2078 -0.6124
vn -0.5615 -0.1351 -0.8164
vn -0.9682 0.0736 -0.2390
s 0
usemtl Material.001
f 7//1 8//1 9//1
f 9//2 3//2 5//2
f 1//3 9//3 5//3
f 6//4 7//4 9//4
f 16//5 17//5 18//5
f 18//6 12//6 14//6
f 10//7 18//7 14//7
f 15//8 16//8 18//8
f 25//9 26//9 27//9
f 27//10 21//10 23//10
f 19//11 27//11 23//11
f 24//12 25//12 27//12
f 34//13 35//13 36//13
f 36//14 30//14 32//14
f 28//15 36//15 32//15
f 33//16 34//16 36//16
f 43//17 44//17 45//17
f 45//18 39//18 41//18
f 37//19 45//19 41//19
f 42//20 43//20 45//20
f 52//21 53//21 54//21
f 54//22 48//22 50//22
f 46//23 54//23 50//23
f 51//24 52//24 54//24
f 61//25 62//25 63//25
f 63//26 57//26 59//26
f 55//27 63//27 59//27
f 60//28 61//28 63//28
f 7//29 4//29 8//29
f 9//30 8//30 3//30
f 1//31 6//31 9//31
f 6//29 2//29 7//29
f 16//32 13//32 17//32
f 18//33 17//33 12//33
f 10//34 15//34 18//34
f 15//32 11//32 16//32
f 25//35 22//35 26//35
f 27//36 26//36 21//36
f 19//37 24//37 27//37
f 24//35 20//35 25//35
f 34//38 31//38 35//38
f 36//39 35//39 30//39
f 28//40 33//40 36//40
f 33//38 29//38 34//38
f 43//41 40//41 44//41
f 45//42 44//42 39//42
f 37//43 42//43 45//43
f 42//41 38//41 43//41
f 52//44 49//44 53//44
f 54//45 53//45 48//45
f 46//46 51//46 54//46
f 51//47 47//47 52//47
f 61//48 58//48 62//48
f 63//49 62//49 57//49
f 55//50 60//50 63//50
f 60//48 56//48 61//48
