# Blender 4.1.1
# www.blender.org
mtllib Icosphere.012.mtl
o Icosphere.012
v 2.183819 -1.986067 -3.702309
v 2.177882 -1.933075 -3.839326
v 2.056811 -1.934967 -3.755928
v 2.058542 -2.058435 -3.676117
v 2.180684 -2.132849 -3.710191
v 2.254439 -2.055372 -3.811059
v 2.048936 -1.972692 -3.897816
v 1.975181 -2.050169 -3.796947
v 2.051738 -2.172466 -3.768680
v 2.172809 -2.170574 -3.852078
v 2.171078 -2.047106 -3.931890
v 2.045801 -2.119474 -3.905697
vn 0.2222 0.9126 0.3433
vn 0.8151 0.5514 0.1779
vn -0.1358 0.5365 0.8329
vn 0.2358 -0.0571 0.9701
vn 0.8235 -0.0479 0.5653
vn 0.7769 0.3683 -0.5108
vn -0.1824 0.9527 -0.2432
vn -0.7616 0.3442 0.5490
vn -0.1604 -0.6163 0.7710
vn 0.7905 -0.6014 0.1160
vn 0.1604 0.6163 -0.7710
vn -0.7905 0.6014 -0.1160
vn -0.7769 -0.3683 0.5108
vn 0.1824 -0.9527 0.2432
vn 0.7616 -0.3442 -0.5490
vn -0.2358 0.0571 -0.9701
vn -0.8235 0.0479 -0.5653
vn -0.8151 -0.5514 -0.1779
vn -0.2222 -0.9126 -0.3433
vn 0.1358 -0.5365 -0.8329
s 0
usemtl Smoke
f 1//1 2//1 3//1
f 2//2 1//2 6//2
f 1//3 3//3 4//3
f 1//4 4//4 5//4
f 1//5 5//5 6//5
f 2//6 6//6 11//6
f 3//7 2//7 7//7
f 4//8 3//8 8//8
f 5//9 4//9 9//9
f 6//10 5//10 10//10
f 2//11 11//11 7//11
f 3//12 7//12 8//12
f 4//13 8//13 9//13
f 5//14 9//14 10//14
f 6//15 10//15 11//15
f 7//16 11//16 12//16
f 8//17 7//17 12//17
f 9//18 8//18 12//18
f 10//19 9//19 12//19
f 11//20 10//20 12//20
