# Blender 4.1.1
# www.blender.org
mtllib Cube.087_Cube.091.mtl
o Cube.087_Cube.091
v -10.215613 6.740153 -13.045235
v -10.288094 6.756809 -13.206442
v -9.336877 5.958588 -13.711311
v -10.347067 6.565691 -12.993483
v -9.460350 5.773941 -13.673094
v -9.738024 6.339375 -13.295280
v -9.760337 6.342175 -13.477806
v -10.263880 6.762874 -13.112450
v -9.414960 5.808586 -13.692366
v -9.946947 6.171900 -13.426441
v -10.370337 6.681458 -13.170944
v -9.875484 6.152465 -13.258514
v -10.279551 6.655268 -13.011185
v -9.313569 5.821771 -13.640718
v -9.795992 6.247372 -13.258633
v -9.915530 6.157113 -13.342602
v -9.888552 6.275772 -13.481306
v -9.770124 6.361014 -13.391424
v -9.244009 5.924541 -13.573854
v -10.050267 6.548273 -13.340927
v -10.185435 6.370848 -13.314987
v -10.342542 6.720259 -13.232847
v -9.380266 5.748606 -13.526447
v -10.100865 6.363597 -13.141518
v -10.433313 6.591499 -13.152483
v -10.311497 6.608461 -13.007822
v -9.966690 6.548470 -13.181313
v -9.279364 5.934453 -13.637949
v -9.559178 6.182631 -13.591938
v -9.331745 5.871192 -13.721676
v -9.713013 5.976615 -13.552485
v -10.391575 6.626038 -13.182487
v -9.642355 5.960127 -13.390831
v -9.279710 5.878482 -13.558525
v -10.342965 6.618148 -13.069769
v -10.046239 6.440092 -13.159693
v -9.832283 6.211190 -13.270044
v -9.773568 6.292806 -13.288607
v -10.166249 6.387395 -13.239037
v -9.922468 6.175410 -13.385225
v -9.896010 6.162269 -13.313522
v -10.121839 6.463738 -13.342291
v -9.639467 6.079455 -13.578047
v -9.844982 6.312862 -13.457430
v -9.904438 6.224266 -13.429090
v -9.531011 6.168909 -13.514950
v -9.755671 6.343157 -13.335117
v -9.546111 6.166944 -13.548077
v -9.523791 6.153246 -13.474001
v -9.976559 6.563817 -13.224813
v -9.685998 6.034922 -13.596478
v -9.589069 6.144995 -13.594912
v -10.078130 6.515372 -13.341471
v -9.622004 5.934096 -13.492634
v -9.691072 5.985394 -13.524584
v -9.530743 6.047091 -13.432722
v -9.609803 6.009393 -13.408039
v -10.082765 6.398299 -13.162552
v -10.285637 6.703791 -13.118490
v -9.444299 5.768818 -13.643534
v -9.327095 5.855420 -13.579876
v -9.274405 5.912087 -13.698927
v -10.017773 6.482499 -13.173239
v -10.126910 6.362191 -13.189104
v -10.153921 6.429047 -13.348034
v -10.037986 6.577037 -13.267294
vn 0.4739 0.7906 -0.3879
vn -0.4942 -0.8179 0.2946
vn 0.8928 -0.2797 0.3531
vn 0.4728 -0.8006 -0.3681
vn -0.5143 0.6575 0.5506
vn 0.4298 0.8261 -0.3644
vn -0.4054 -0.8138 0.4164
vn -0.5992 -0.7962 0.0838
vn -0.6250 -0.7728 0.1104
vn -0.5141 -0.8018 0.3045
vn 0.6327 0.1840 0.7522
vn 0.4300 -0.0330 0.9022
vn -0.6236 0.6594 0.4199
vn -0.7226 0.5254 0.4492
vn 0.5520 -0.5763 -0.6027
vn 0.6754 -0.5702 -0.4678
vn 0.9395 -0.2897 0.1827
vn -0.6250 -0.7740 0.1018
vn 0.5938 0.7975 -0.1067
vn 0.3880 -0.2002 0.8996
vn 0.3670 -0.1723 0.9141
vn 0.2846 0.1293 -0.9499
vn 0.3130 -0.7999 0.5120
vn -0.4283 0.8397 0.3340
vn 0.1552 -0.4353 0.8868
vn 0.3807 -0.1584 0.9110
vn -0.6886 -0.7003 -0.1885
vn -0.5619 -0.8088 0.1735
vn -0.6051 -0.7917 0.0847
vn -0.7281 -0.3842 -0.5677
vn 0.0536 0.4953 -0.8671
vn -0.3198 0.2129 -0.9233
vn 0.6673 0.7273 0.1605
vn 0.5451 0.7847 -0.2950
vn 0.6465 0.7588 0.0788
vn 0.5926 0.7706 -0.2344
vn 0.7185 0.6946 0.0344
vn 0.5607 0.8100 -0.1715
vn 0.5386 0.8361 -0.1041
vn 0.5777 0.7923 -0.1961
vn 0.7105 0.6899 0.1386
vn 0.7238 0.6857 0.0777
vn 0.4520 0.7940 -0.4065
vn -0.7419 -0.3506 -0.5715
vn -0.5926 -0.2919 -0.7508
vn -0.0040 0.3860 -0.9225
vn -0.3126 0.2695 -0.9109
vn -0.3626 0.0887 -0.9277
vn -0.3905 0.0639 -0.9184
vn 0.0587 0.5257 -0.8487
vn -0.2605 0.2361 -0.9362
vn -0.0326 0.5678 -0.8225
vn -0.4631 -0.8166 0.3446
vn -0.5825 -0.7923 0.1818
vn -0.5952 -0.7813 0.1878
vn -0.5144 -0.8016 0.3046
vn 0.4277 -0.1392 0.8931
vn -0.7047 -0.6863 -0.1799
vn 0.3891 -0.0744 0.9182
vn 0.6349 0.1304 0.7615
vn 0.3597 -0.1515 0.9207
vn 0.5219 0.2262 0.8224
vn 0.0796 -0.3716 0.9250
vn -0.6857 0.6478 0.3318
vn -0.9230 0.3177 0.2173
vn -0.6371 0.6522 0.4109
vn 0.5492 -0.6842 -0.4798
vn -0.7571 0.2158 0.6166
vn 0.3249 -0.7731 -0.5448
vn 0.4513 -0.8052 -0.3846
vn -0.4913 0.8281 0.2698
vn -0.5668 -0.0303 -0.8233
vn 0.6251 -0.5960 -0.5041
vn 0.5080 -0.0374 0.8605
vn -0.8813 0.2549 0.3979
vn 0.5625 0.2436 0.7901
vn 0.3330 -0.1438 0.9319
vn -0.4430 -0.7832 0.4363
vn -0.5514 -0.7685 0.3245
vn -0.2766 0.4004 -0.8736
vn -0.1033 0.2547 -0.9615
vn -0.2857 0.1843 -0.9404
vn 0.5415 0.8184 -0.1923
vn 0.4037 0.8273 -0.3905
vn 0.3044 -0.3273 0.8945
vn 0.3942 -0.2473 0.8851
vn 0.3797 -0.1592 0.9113
vn -0.6004 -0.7996 0.0140
vn -0.6059 -0.7914 0.0812
vn -0.2288 0.2088 -0.9508
vn -0.4230 0.0933 -0.9013
vn -0.6979 -0.1963 -0.6887
vn 0.6567 0.7509 0.0696
vn 0.5881 0.8015 -0.1082
vn 0.5659 0.7666 -0.3034
vn 0.6102 0.7673 -0.1972
vn 0.6123 0.7861 -0.0846
vn 0.6459 0.7540 0.1195
vn 0.6069 0.7703 -0.1957
vn 0.7156 0.6975 0.0375
vn -0.0311 0.4098 -0.9117
vn -0.3637 -0.0412 -0.9306
vn -0.2825 0.2964 -0.9123
vn -0.2376 0.2626 -0.9352
vn -0.3787 0.0713 -0.9228
vn -0.2910 0.2616 -0.9203
vn -0.2954 0.2043 -0.9333
vn -0.2609 0.2357 -0.9361
vn -0.3601 -0.7707 0.5257
vn -0.3638 -0.7676 0.5277
vn -0.4926 -0.7922 0.3601
vn 0.4844 -0.0146 0.8747
vn 0.4623 0.0043 0.8867
vn 0.4602 -0.0866 0.8836
vn 0.3823 -0.1009 0.9185
vn 0.2157 -0.2530 0.9431
vn -0.6845 0.6489 0.3322
vn 0.6296 -0.6364 -0.4457
vn -0.5959 0.6763 0.4330
vn -0.6241 -0.1019 -0.7747
vn 0.4977 -0.0577 0.8654
vn 0.3892 0.0328 0.9206
vn 0.3413 -0.1270 0.9313
vn -0.6427 -0.7559 0.1248
vn -0.6223 -0.7771 0.0937
vn -0.3369 0.3140 -0.8876
vn -0.6858 -0.4029 -0.6061
vn -0.4673 -0.2315 -0.8533
s 0
usemtl Fence2
f 20//1 2//1 66//1
f 24//2 4//2 64//2
f 14//3 28//3 61//3
f 60//4 9//4 30//4
f 59//5 11//5 35//5
f 66//6 8//6 50//6
f 54//7 41//7 16//7
f 23//8 33//8 54//8
f 60//9 54//9 55//9
f 39//10 25//10 21//10
f 56//11 38//11 15//11
f 34//12 19//12 56//12
f 35//13 4//13 26//13
f 13//14 35//14 26//14
f 23//15 61//15 34//15
f 60//16 61//16 23//16
f 14//17 62//17 28//17
f 64//18 4//18 39//18
f 7//19 66//19 18//19
f 26//20 36//20 13//20
f 63//21 27//21 1//21
f 30//22 3//22 62//22
f 60//23 14//23 61//23
f 59//24 22//24 11//24
f 57//25 15//25 37//25
f 6//26 56//26 19//26
f 55//27 16//27 40//27
f 39//28 4//28 25//28
f 41//29 33//29 12//29
f 22//30 42//30 11//30
f 44//31 43//31 17//31
f 45//32 31//32 10//32
f 18//33 49//33 46//33
f 7//34 46//34 48//34
f 48//35 29//35 7//35
f 48//36 28//36 62//36
f 48//37 3//37 29//37
f 6//38 49//38 47//38
f 1//39 50//39 8//39
f 19//40 28//40 49//40
f 28//41 46//41 49//41
f 27//42 47//42 50//42
f 50//43 18//43 66//43
f 17//44 51//44 45//44
f 51//45 5//45 31//45
f 9//46 51//46 43//46
f 7//47 52//47 44//47
f 52//48 3//48 30//48
f 52//49 9//49 43//49
f 2//50 53//50 22//50
f 20//51 44//51 53//51
f 42//52 44//52 17//52
f 10//53 55//53 40//53
f 60//54 23//54 54//54
f 55//55 5//55 60//55
f 21//56 40//56 39//56
f 12//57 57//57 37//57
f 40//58 16//58 39//58
f 57//59 23//59 34//59
f 26//60 24//60 58//60
f 34//61 56//61 57//61
f 24//62 37//62 58//62
f 36//63 37//63 15//63
f 13//64 59//64 35//64
f 8//65 2//65 59//65
f 2//66 22//66 59//66
f 28//67 34//67 61//67
f 1//68 8//68 59//68
f 60//69 30//69 14//69
f 60//70 5//70 9//70
f 25//71 35//71 32//71
f 32//72 21//72 25//72
f 14//73 30//73 62//73
f 13//74 63//74 1//74
f 11//75 32//75 35//75
f 63//76 15//76 38//76
f 63//77 6//77 27//77
f 64//78 16//78 41//78
f 64//79 12//79 24//79
f 32//80 42//80 65//80
f 42//81 45//81 65//81
f 21//82 45//82 10//82
f 66//83 2//83 8//83
f 7//84 20//84 66//84
f 26//85 58//85 36//85
f 57//86 56//86 15//86
f 6//87 38//87 56//87
f 55//88 54//88 16//88
f 41//89 54//89 33//89
f 22//90 53//90 42//90
f 44//91 52//91 43//91
f 45//92 51//92 31//92
f 18//93 47//93 49//93
f 7//94 18//94 46//94
f 48//95 46//95 28//95
f 48//96 62//96 3//96
f 6//97 19//97 49//97
f 1//98 27//98 50//98
f 27//99 6//99 47//99
f 50//100 47//100 18//100
f 17//101 43//101 51//101
f 51//102 9//102 5//102
f 7//103 29//103 52//103
f 52//104 29//104 3//104
f 52//105 30//105 9//105
f 2//106 20//106 53//106
f 20//107 7//107 44//107
f 42//108 53//108 44//108
f 10//109 31//109 55//109
f 55//110 31//110 5//110
f 21//111 10//111 40//111
f 12//112 33//112 57//112
f 57//113 33//113 23//113
f 26//114 4//114 24//114
f 24//115 12//115 37//115
f 36//116 58//116 37//116
f 13//117 1//117 59//117
f 28//118 19//118 34//118
f 25//119 4//119 35//119
f 32//120 65//120 21//120
f 13//121 36//121 63//121
f 63//122 36//122 15//122
f 63//123 38//123 6//123
f 64//124 39//124 16//124
f 64//125 41//125 12//125
f 32//126 11//126 42//126
f 42//127 17//127 45//127
f 21//128 65//128 45//128
