# Blender 4.1.1
# www.blender.org
mtllib Cube.087_Cube.091.mtl
o Cube.087_Cube.091
v -3.896960 -8.283021 -1.554102
v -3.923517 -8.342088 -1.560205
v -3.574989 -8.527073 -1.267735
v -3.945125 -8.264059 -1.490179
v -3.620230 -8.513071 -1.200080
v -3.721970 -8.374639 -1.407256
v -3.730146 -8.441516 -1.408282
v -3.914645 -8.307649 -1.562427
v -3.603599 -8.520132 -1.212774
v -3.798520 -8.422696 -1.345893
v -3.953651 -8.329082 -1.532596
v -3.772336 -8.361167 -1.338772
v -3.920387 -8.270545 -1.523000
v -3.566449 -8.501208 -1.217605
v -3.743210 -8.361211 -1.373546
v -3.787009 -8.391977 -1.340475
v -3.777124 -8.442799 -1.383952
v -3.733732 -8.409865 -1.415185
v -3.540962 -8.476709 -1.255260
v -3.836377 -8.391363 -1.483797
v -3.885903 -8.381859 -1.418788
v -3.943467 -8.351763 -1.546813
v -3.590887 -8.459339 -1.190797
v -3.854916 -8.318299 -1.416131
v -3.976726 -8.322317 -1.499635
v -3.932092 -8.269313 -1.505850
v -3.805754 -8.332880 -1.483869
v -3.553916 -8.500194 -1.258892
v -3.656441 -8.483335 -1.349825
v -3.573109 -8.530871 -1.235713
v -3.712806 -8.468879 -1.274340
v -3.961433 -8.333311 -1.512290
v -3.686917 -8.409648 -1.268299
v -3.554043 -8.471092 -1.238384
v -3.943622 -8.292010 -1.509399
v -3.834901 -8.324959 -1.444159
v -3.756507 -8.365392 -1.360289
v -3.734994 -8.372193 -1.390193
v -3.878873 -8.354031 -1.424851
v -3.789551 -8.407595 -1.347179
v -3.779857 -8.381322 -1.342364
v -3.862601 -8.391863 -1.452823
v -3.685859 -8.478245 -1.312021
v -3.761160 -8.434051 -1.397542
v -3.782945 -8.423667 -1.365080
v -3.646120 -8.455126 -1.344797
v -3.728436 -8.389235 -1.408642
v -3.651653 -8.467263 -1.344077
v -3.643475 -8.440122 -1.339058
v -3.809370 -8.348819 -1.489492
v -3.702908 -8.484998 -1.295704
v -3.667393 -8.484424 -1.336035
v -3.846586 -8.391562 -1.471742
v -3.679460 -8.446950 -1.258761
v -3.704767 -8.458655 -1.277557
v -3.646022 -8.424997 -1.300163
v -3.674990 -8.415954 -1.286350
v -3.848284 -8.326006 -1.428846
v -3.922617 -8.309862 -1.540779
v -3.614349 -8.502240 -1.198203
v -3.571405 -8.478915 -1.229934
v -3.552099 -8.522536 -1.250697
v -3.824471 -8.329922 -1.459697
v -3.864459 -8.335735 -1.415616
v -3.874356 -8.393968 -1.440112
v -3.831877 -8.364384 -1.494336
vn 0.4739 -0.3879 -0.7906
vn -0.4942 0.2946 0.8179
vn 0.8928 0.3532 0.2797
vn 0.4727 -0.3680 0.8007
vn -0.5143 0.5506 -0.6575
vn 0.4298 -0.3644 -0.8261
vn -0.4055 0.4164 0.8137
vn -0.5992 0.0838 0.7962
vn -0.6250 0.1104 0.7728
vn -0.5141 0.3046 0.8018
vn 0.6327 0.7522 -0.1840
vn 0.4300 0.9022 0.0330
vn -0.6236 0.4199 -0.6594
vn -0.7226 0.4492 -0.5255
vn 0.5521 -0.6027 0.5762
vn 0.6753 -0.4678 0.5702
vn 0.9395 0.1827 0.2897
vn -0.6250 0.1017 0.7740
vn 0.5938 -0.1067 -0.7975
vn 0.3880 0.8996 0.2002
vn 0.3671 0.9141 0.1723
vn 0.2846 -0.9499 -0.1294
vn 0.3130 0.5120 0.7999
vn -0.4283 0.3340 -0.8396
vn 0.1552 0.8868 0.4353
vn 0.3807 0.9110 0.1584
vn -0.6886 -0.1885 0.7002
vn -0.5619 0.1735 0.8088
vn -0.6051 0.0847 0.7917
vn -0.7281 -0.5677 0.3842
vn 0.0536 -0.8671 -0.4953
vn -0.3198 -0.9233 -0.2129
vn 0.6673 0.1606 -0.7273
vn 0.5451 -0.2950 -0.7847
vn 0.6465 0.0788 -0.7588
vn 0.5927 -0.2345 -0.7706
vn 0.7185 0.0344 -0.6946
vn 0.5608 -0.1715 -0.8100
vn 0.5386 -0.1041 -0.8361
vn 0.5777 -0.1961 -0.7924
vn 0.7105 0.1386 -0.6899
vn 0.7237 0.0777 -0.6857
vn 0.4520 -0.4065 -0.7940
vn -0.7419 -0.5716 0.3506
vn -0.5926 -0.7507 0.2919
vn -0.0040 -0.9225 -0.3860
vn -0.3126 -0.9109 -0.2695
vn -0.3626 -0.9277 -0.0888
vn -0.3905 -0.9184 -0.0640
vn 0.0587 -0.8487 -0.5257
vn -0.2605 -0.9362 -0.2361
vn -0.0326 -0.8225 -0.5678
vn -0.4631 0.3446 0.8166
vn -0.5825 0.1818 0.7922
vn -0.5952 0.1878 0.7813
vn -0.5144 0.3046 0.8016
vn 0.4277 0.8931 0.1393
vn -0.7047 -0.1799 0.6863
vn 0.3891 0.9182 0.0745
vn 0.6349 0.7615 -0.1304
vn 0.3596 0.9207 0.1515
vn 0.5220 0.8224 -0.2262
vn 0.0796 0.9250 0.3715
vn -0.6857 0.3318 -0.6478
vn -0.9230 0.2173 -0.3177
vn -0.6370 0.4109 -0.6522
vn 0.5492 -0.4798 0.6842
vn -0.7571 0.6166 -0.2158
vn 0.3249 -0.5449 0.7730
vn 0.4513 -0.3846 0.8052
vn -0.4913 0.2698 -0.8281
vn -0.5668 -0.8233 0.0303
vn 0.6250 -0.5041 0.5960
vn 0.5080 0.8606 0.0375
vn -0.8813 0.3979 -0.2549
vn 0.5625 0.7901 -0.2436
vn 0.3330 0.9319 0.1438
vn -0.4431 0.4362 0.7832
vn -0.5515 0.3245 0.7685
vn -0.2766 -0.8736 -0.4004
vn -0.1032 -0.9615 -0.2547
vn -0.2858 -0.9404 -0.1843
vn 0.5415 -0.1923 -0.8184
vn 0.4037 -0.3905 -0.8273
vn 0.3045 0.8945 0.3272
vn 0.3943 0.8851 0.2473
vn 0.3797 0.9113 0.1592
vn -0.6003 0.0140 0.7996
vn -0.6059 0.0812 0.7914
vn -0.2288 -0.9508 -0.2088
vn -0.4230 -0.9013 -0.0933
vn -0.6979 -0.6887 0.1963
vn 0.6567 0.0696 -0.7509
vn 0.5881 -0.1082 -0.8015
vn 0.5659 -0.3034 -0.7666
vn 0.6102 -0.1972 -0.7673
vn 0.6123 -0.0846 -0.7861
vn 0.6459 0.1195 -0.7540
vn 0.6069 -0.1957 -0.7703
vn 0.7156 0.0375 -0.6975
vn -0.0311 -0.9116 -0.4098
vn -0.3636 -0.9306 0.0412
vn -0.2825 -0.9123 -0.2964
vn -0.2376 -0.9352 -0.2626
vn -0.3787 -0.9228 -0.0713
vn -0.2910 -0.9203 -0.2616
vn -0.2954 -0.9333 -0.2043
vn -0.2609 -0.9362 -0.2357
vn -0.3602 0.5257 0.7707
vn -0.3638 0.5277 0.7676
vn -0.4926 0.3601 0.7923
vn 0.4845 0.8747 0.0145
vn 0.4623 0.8867 -0.0043
vn 0.4602 0.8836 0.0865
vn 0.3823 0.9185 0.1009
vn 0.2157 0.9431 0.2530
vn -0.6845 0.3322 -0.6489
vn 0.6296 -0.4457 0.6363
vn -0.5959 0.4330 -0.6763
vn -0.6241 -0.7747 0.1019
vn 0.4977 0.8654 0.0577
vn 0.3892 0.9206 -0.0328
vn 0.3413 0.9313 0.1270
vn -0.6427 0.1248 0.7559
vn -0.6223 0.0937 0.7771
vn -0.3369 -0.8876 -0.3140
vn -0.6858 -0.6061 0.4029
vn -0.4673 -0.8533 0.2315
s 0
usemtl Fence2
f 20//1 2//1 66//1
f 24//2 4//2 64//2
f 14//3 28//3 61//3
f 60//4 9//4 30//4
f 59//5 11//5 35//5
f 66//6 8//6 50//6
f 54//7 41//7 16//7
f 23//8 33//8 54//8
f 60//9 54//9 55//9
f 39//10 25//10 21//10
f 56//11 38//11 15//11
f 34//12 19//12 56//12
f 35//13 4//13 26//13
f 13//14 35//14 26//14
f 23//15 61//15 34//15
f 60//16 61//16 23//16
f 14//17 62//17 28//17
f 64//18 4//18 39//18
f 7//19 66//19 18//19
f 26//20 36//20 13//20
f 63//21 27//21 1//21
f 30//22 3//22 62//22
f 60//23 14//23 61//23
f 59//24 22//24 11//24
f 57//25 15//25 37//25
f 6//26 56//26 19//26
f 55//27 16//27 40//27
f 39//28 4//28 25//28
f 41//29 33//29 12//29
f 22//30 42//30 11//30
f 44//31 43//31 17//31
f 45//32 31//32 10//32
f 18//33 49//33 46//33
f 7//34 46//34 48//34
f 48//35 29//35 7//35
f 48//36 28//36 62//36
f 48//37 3//37 29//37
f 6//38 49//38 47//38
f 1//39 50//39 8//39
f 19//40 28//40 49//40
f 28//41 46//41 49//41
f 27//42 47//42 50//42
f 50//43 18//43 66//43
f 17//44 51//44 45//44
f 51//45 5//45 31//45
f 9//46 51//46 43//46
f 7//47 52//47 44//47
f 52//48 3//48 30//48
f 52//49 9//49 43//49
f 2//50 53//50 22//50
f 20//51 44//51 53//51
f 42//52 44//52 17//52
f 10//53 55//53 40//53
f 60//54 23//54 54//54
f 55//55 5//55 60//55
f 21//56 40//56 39//56
f 12//57 57//57 37//57
f 40//58 16//58 39//58
f 57//59 23//59 34//59
f 26//60 24//60 58//60
f 34//61 56//61 57//61
f 24//62 37//62 58//62
f 36//63 37//63 15//63
f 13//64 59//64 35//64
f 8//65 2//65 59//65
f 2//66 22//66 59//66
f 28//67 34//67 61//67
f 1//68 8//68 59//68
f 60//69 30//69 14//69
f 60//70 5//70 9//70
f 25//71 35//71 32//71
f 32//72 21//72 25//72
f 14//73 30//73 62//73
f 13//74 63//74 1//74
f 11//75 32//75 35//75
f 63//76 15//76 38//76
f 63//77 6//77 27//77
f 64//78 16//78 41//78
f 64//79 12//79 24//79
f 32//80 42//80 65//80
f 42//81 45//81 65//81
f 21//82 45//82 10//82
f 66//83 2//83 8//83
f 7//84 20//84 66//84
f 26//85 58//85 36//85
f 57//86 56//86 15//86
f 6//87 38//87 56//87
f 55//88 54//88 16//88
f 41//89 54//89 33//89
f 22//90 53//90 42//90
f 44//91 52//91 43//91
f 45//92 51//92 31//92
f 18//93 47//93 49//93
f 7//94 18//94 46//94
f 48//95 46//95 28//95
f 48//96 62//96 3//96
f 6//97 19//97 49//97
f 1//98 27//98 50//98
f 27//99 6//99 47//99
f 50//100 47//100 18//100
f 17//101 43//101 51//101
f 51//102 9//102 5//102
f 7//103 29//103 52//103
f 52//104 29//104 3//104
f 52//105 30//105 9//105
f 2//106 20//106 53//106
f 20//107 7//107 44//107
f 42//108 53//108 44//108
f 10//109 31//109 55//109
f 55//110 31//110 5//110
f 21//111 10//111 40//111
f 12//112 33//112 57//112
f 57//113 33//113 23//113
f 26//114 4//114 24//114
f 24//115 12//115 37//115
f 36//116 58//116 37//116
f 13//117 1//117 59//117
f 28//118 19//118 34//118
f 25//119 4//119 35//119
f 32//120 65//120 21//120
f 13//121 36//121 63//121
f 63//122 36//122 15//122
f 63//123 38//123 6//123
f 64//124 39//124 16//124
f 64//125 41//125 12//125
f 32//126 11//126 42//126
f 42//127 17//127 45//127
f 21//128 65//128 45//128
