# Blender 4.1.1
# www.blender.org
mtllib Cube.101_Cube.109.mtl
o Cube.101_Cube.109
v 5.306601 4.962776 8.687344
v 5.347862 4.451941 8.657844
v 5.318601 4.445083 8.723984
v 5.230177 4.960768 8.652199
v 5.207107 4.960667 8.694756
v 5.243836 4.445632 8.675259
v 5.296835 4.962479 8.711077
v 5.306871 4.702491 8.723724
v 5.272035 4.445225 8.682941
v 5.265807 4.963726 8.667060
v 5.265228 4.700314 8.709142
v 5.293326 4.706520 8.645674
v 5.336909 4.447736 8.683744
v 5.288113 4.950951 8.732826
v 5.315812 4.576463 8.717188
v 5.261165 4.440244 8.634509
v 5.330637 4.455820 8.647808
v 5.210977 4.824366 8.693779
v 5.266850 4.452916 8.622033
v 5.268225 4.959056 8.728508
v 5.299977 4.808053 8.730026
v 5.330859 4.695848 8.673599
v 5.305389 4.445358 8.699535
v 5.256017 4.444753 8.649790
v 5.287480 4.451262 8.633265
v 5.236143 4.528598 8.680278
v 5.232756 4.828888 8.649019
v 5.225277 4.955132 8.709112
v 5.287701 4.959375 8.677529
v 5.287548 4.701735 8.713048
v 5.240046 4.698264 8.711702
v 5.272685 4.573835 8.707857
v 5.309941 4.706681 8.662464
v 5.279401 4.831617 8.660865
v 5.298484 4.579654 8.647699
v 5.248523 4.964703 8.718246
v 5.243411 4.734189 8.645993
v 5.237499 4.665278 8.666758
v 5.313088 4.714912 8.710253
v 5.315048 4.831019 8.711449
v 5.327561 4.585999 8.703839
v 5.319829 4.822155 8.688455
v 5.218482 4.840735 8.676640
v 5.244909 4.575791 8.645363
v 5.297272 4.831887 8.677406
v 5.255635 4.829848 8.660689
v 5.246309 4.571796 8.708817
v 5.235924 4.806912 8.721628
v 5.272805 4.826598 8.730897
v 5.288727 4.573679 8.728845
v 5.277381 4.614539 8.639347
v 5.222633 4.963619 8.668678
v 5.330264 4.579493 8.687038
vn -0.1516 0.9872 -0.0500
vn 0.9183 0.0365 0.3943
vn 0.0504 -0.1902 0.9804
vn -0.7397 -0.0043 -0.6729
vn 0.7882 -0.0196 0.6151
vn 0.9774 -0.0187 0.2105
vn 0.0548 -0.9977 -0.0408
vn 0.0395 -0.9967 -0.0713
vn -0.9076 -0.0228 -0.4192
vn -0.9014 -0.0576 -0.4291
vn -0.9546 -0.0078 -0.2978
vn -0.1199 0.9919 0.0409
vn -0.0090 0.9846 -0.1745
vn -0.0032 0.9998 -0.0202
vn 0.5046 0.0918 -0.8585
vn 0.5165 0.0910 -0.8514
vn -0.3832 0.0504 0.9223
vn 0.1455 0.0960 -0.9847
vn 0.3682 0.0001 -0.9298
vn 0.4531 0.0611 -0.8894
vn 0.9889 0.0464 0.1411
vn -0.8598 -0.2172 0.4622
vn 0.2782 -0.7343 -0.6192
vn -0.9097 -0.0078 -0.4151
vn 0.4811 0.0623 -0.8745
vn -0.4794 -0.0835 0.8736
vn 0.2301 0.1190 -0.9659
vn 0.1077 -0.0864 0.9904
vn 0.7006 0.1624 -0.6948
vn 0.1835 -0.9517 -0.2461
vn 0.3107 0.0799 -0.9471
vn -0.8590 -0.0041 -0.5119
vn 0.7441 0.0182 0.6679
vn 0.9053 0.0292 0.4238
vn 0.9084 0.0408 0.4160
vn 0.7453 0.0488 0.6650
vn 0.9813 0.0936 0.1680
vn 0.8959 0.0321 0.4430
vn 0.0373 -0.9949 0.0939
vn -0.8873 -0.0705 -0.4558
vn -0.0211 -0.9995 0.0244
vn -0.1020 -0.9742 -0.2014
vn -0.9964 -0.0842 0.0072
vn -0.8815 -0.0378 -0.4707
vn -0.8800 -0.0679 -0.4700
vn 0.3164 0.0813 -0.9451
vn 0.1138 0.8582 0.5005
vn 0.4174 0.8440 -0.3368
vn -0.4774 0.4260 0.7685
vn 0.6780 0.0516 -0.7333
vn 0.4519 0.0355 -0.8914
vn 0.4869 0.1519 -0.8602
vn 0.4532 0.0304 -0.8909
vn -0.1095 0.0871 -0.9902
vn 0.0039 0.0472 -0.9989
vn 0.0380 -0.0209 0.9991
vn -0.6927 -0.2769 0.6659
vn -0.9117 -0.0544 0.4072
vn -0.7439 0.0030 0.6683
vn -0.7685 -0.0871 0.6339
vn 0.0198 -0.0180 0.9996
vn -0.2644 0.0418 0.9635
vn -0.1604 -0.1582 0.9743
vn 0.3825 0.1166 0.9166
vn -0.7924 0.0675 0.6062
vn -0.4385 -0.1688 0.8827
vn 0.1760 0.9835 0.0407
vn -0.7962 -0.0123 -0.6049
vn -0.9437 -0.1161 0.3097
vn 0.9077 0.0436 0.4174
vn 0.9874 0.1050 0.1181
vn 0.9227 0.0396 0.3834
vn 0.3899 0.0558 0.9192
vn -0.0703 -0.1493 0.9863
vn 0.4503 0.0791 -0.8894
vn 0.6698 0.1545 -0.7263
vn 0.3394 -0.8550 -0.3921
vn 0.8773 0.0749 0.4740
vn 0.7646 -0.0418 0.6431
vn 0.8961 0.1253 0.4258
vn 0.9166 0.1281 0.3788
vn -0.3194 -0.9327 0.1676
vn -0.8348 -0.0460 -0.5487
vn -0.9516 -0.0906 -0.2938
vn 0.7106 0.0177 -0.7034
vn 0.4438 0.0875 -0.8918
vn 0.4556 0.0351 -0.8895
vn 0.5222 0.1444 -0.8405
vn 0.3839 0.0148 -0.9233
vn -0.0016 0.1204 -0.9927
vn 0.1015 -0.0041 0.9948
vn -0.2631 -0.0825 0.9612
vn -0.6241 -0.0233 0.7810
vn -0.7870 -0.0948 0.6096
vn -0.2081 0.0104 0.9781
vn -0.4620 -0.0000 0.8869
vn -0.4797 -0.0793 0.8738
vn -0.1711 -0.0201 0.9850
vn -0.7731 -0.2350 0.5892
vn 0.0309 0.9945 -0.1004
vn -0.8768 -0.0682 -0.4760
s 0
usemtl Bark
f 7//1 1//1 29//1
f 2//2 53//2 13//2
f 9//3 32//3 47//3
f 37//4 19//4 44//4
f 21//5 39//5 40//5
f 40//6 39//6 42//6
f 23//7 13//7 3//7
f 23//8 9//8 13//8
f 5//9 43//9 18//9
f 6//10 26//10 24//10
f 38//11 37//11 44//11
f 36//12 52//12 5//12
f 52//13 10//13 4//13
f 36//14 10//14 52//14
f 22//15 17//15 33//15
f 2//16 17//16 22//16
f 48//17 36//17 28//17
f 51//18 19//18 37//18
f 35//19 51//19 12//19
f 35//20 25//20 51//20
f 41//21 13//21 53//21
f 3//22 50//22 23//22
f 16//23 19//23 25//23
f 52//24 4//24 27//24
f 51//25 25//25 19//25
f 21//26 30//26 8//26
f 37//27 46//27 51//27
f 31//28 11//28 48//28
f 34//29 33//29 12//29
f 13//30 25//30 17//30
f 17//31 25//31 35//31
f 5//32 52//32 43//32
f 41//33 8//33 15//33
f 39//34 22//34 42//34
f 13//35 15//35 3//35
f 40//36 14//36 21//36
f 1//37 40//37 42//37
f 21//38 8//38 39//38
f 9//39 16//39 13//39
f 38//40 18//40 43//40
f 9//41 6//41 24//41
f 13//42 17//42 2//42
f 44//43 24//43 38//43
f 24//44 26//44 38//44
f 16//45 44//45 19//45
f 35//46 33//46 17//46
f 36//47 14//47 7//47
f 20//48 14//48 36//48
f 5//49 28//49 36//49
f 34//50 29//50 45//50
f 45//51 1//51 42//51
f 42//52 33//52 45//52
f 4//53 46//53 27//53
f 46//54 12//54 51//54
f 10//55 34//55 46//55
f 32//56 31//56 47//56
f 26//57 9//57 47//57
f 26//58 47//58 31//58
f 28//59 18//59 48//59
f 18//60 31//60 48//60
f 14//61 49//61 21//61
f 49//62 36//62 48//62
f 48//63 30//63 49//63
f 15//64 30//64 50//64
f 30//65 32//65 50//65
f 23//66 32//66 9//66
f 36//67 29//67 10//67
f 37//68 43//68 52//68
f 37//69 52//69 27//69
f 39//70 53//70 22//70
f 39//71 41//71 53//71
f 2//72 22//72 53//72
f 3//73 15//73 50//73
f 21//74 49//74 30//74
f 37//75 27//75 46//75
f 34//76 45//76 33//76
f 13//77 16//77 25//77
f 41//78 39//78 8//78
f 13//79 41//79 15//79
f 40//80 7//80 14//80
f 1//81 7//81 40//81
f 9//82 24//82 16//82
f 38//83 26//83 18//83
f 44//84 16//84 24//84
f 35//85 12//85 33//85
f 34//86 10//86 29//86
f 45//87 29//87 1//87
f 42//88 22//88 33//88
f 4//89 10//89 46//89
f 46//90 34//90 12//90
f 32//91 11//91 31//91
f 26//92 6//92 9//92
f 28//93 5//93 18//93
f 18//94 26//94 31//94
f 14//95 20//95 49//95
f 49//96 20//96 36//96
f 48//63 11//63 30//63
f 15//97 8//97 30//97
f 30//98 11//98 32//98
f 23//99 50//99 32//99
f 36//100 7//100 29//100
f 37//101 38//101 43//101
