# Blender 4.1.1
# www.blender.org
mtllib Cube.101_Cube.109.mtl
o Cube.101_Cube.109
v 1.790415 -0.320155 -0.902856
v 1.805533 -0.330964 -0.715685
v 1.794812 -0.306730 -0.713172
v 1.762413 -0.333032 -0.902120
v 1.753960 -0.317439 -0.902083
v 1.767418 -0.324583 -0.713373
v 1.786837 -0.311459 -0.902747
v 1.790514 -0.306825 -0.807487
v 1.777750 -0.321768 -0.713224
v 1.775468 -0.327587 -0.903204
v 1.775256 -0.312168 -0.806689
v 1.785551 -0.335423 -0.808963
v 1.801520 -0.321474 -0.714144
v 1.783641 -0.303490 -0.898523
v 1.793790 -0.309220 -0.761310
v 1.773767 -0.339514 -0.711399
v 1.799222 -0.334641 -0.717106
v 1.755378 -0.317797 -0.852142
v 1.775850 -0.344085 -0.716042
v 1.776354 -0.305072 -0.901493
v 1.787988 -0.304516 -0.846165
v 1.799303 -0.325191 -0.805053
v 1.789971 -0.315688 -0.713273
v 1.771881 -0.333915 -0.713051
v 1.783409 -0.339970 -0.715436
v 1.764599 -0.322744 -0.743772
v 1.763358 -0.334197 -0.853799
v 1.760618 -0.312179 -0.900055
v 1.783490 -0.323751 -0.901610
v 1.783434 -0.310737 -0.807210
v 1.766029 -0.311230 -0.805938
v 1.777988 -0.312639 -0.760347
v 1.791639 -0.329271 -0.809022
v 1.780449 -0.329857 -0.854799
v 1.787441 -0.334681 -0.762479
v 1.769135 -0.308832 -0.903562
v 1.767262 -0.335306 -0.819101
v 1.765096 -0.327698 -0.793852
v 1.792792 -0.311761 -0.812038
v 1.793510 -0.311323 -0.854580
v 1.798095 -0.314111 -0.764804
v 1.795262 -0.319748 -0.851332
v 1.758128 -0.324077 -0.858140
v 1.767811 -0.335537 -0.761064
v 1.786997 -0.323796 -0.854898
v 1.771741 -0.329921 -0.854151
v 1.768324 -0.312287 -0.759600
v 1.764519 -0.307593 -0.845747
v 1.778032 -0.304197 -0.852960
v 1.783866 -0.304949 -0.760290
v 1.779709 -0.337741 -0.775261
v 1.759649 -0.326994 -0.903165
v 1.799085 -0.320267 -0.762420
vn -0.1516 -0.0500 -0.9872
vn 0.9183 0.3942 -0.0365
vn 0.0504 0.9805 0.1902
vn -0.7397 -0.6729 0.0043
vn 0.7882 0.6151 0.0196
vn 0.9774 0.2105 0.0187
vn 0.0548 -0.0409 0.9977
vn 0.0395 -0.0713 0.9967
vn -0.9076 -0.4192 0.0228
vn -0.9014 -0.4291 0.0576
vn -0.9546 -0.2978 0.0078
vn -0.1199 0.0409 -0.9919
vn -0.0090 -0.1745 -0.9846
vn -0.0032 -0.0202 -0.9998
vn 0.5046 -0.8585 -0.0918
vn 0.5165 -0.8514 -0.0910
vn -0.3832 0.9223 -0.0504
vn 0.1455 -0.9847 -0.0960
vn 0.3682 -0.9298 -0.0001
vn 0.4531 -0.8894 -0.0612
vn 0.9889 0.1411 -0.0464
vn -0.8598 0.4622 0.2172
vn 0.2782 -0.6192 0.7343
vn -0.9097 -0.4151 0.0078
vn 0.4810 -0.8745 -0.0623
vn -0.4794 0.8736 0.0835
vn 0.2301 -0.9659 -0.1190
vn 0.1077 0.9904 0.0864
vn 0.7006 -0.6949 -0.1624
vn 0.1835 -0.2461 0.9517
vn 0.3108 -0.9471 -0.0799
vn -0.8590 -0.5119 0.0041
vn 0.7441 0.6679 -0.0181
vn 0.9053 0.4237 -0.0292
vn 0.9084 0.4160 -0.0408
vn 0.7453 0.6650 -0.0488
vn 0.9813 0.1680 -0.0936
vn 0.8959 0.4430 -0.0321
vn 0.0373 0.0939 0.9949
vn -0.8873 -0.4559 0.0705
vn -0.0211 0.0244 0.9995
vn -0.1020 -0.2013 0.9742
vn -0.9964 0.0072 0.0842
vn -0.8815 -0.4706 0.0378
vn -0.8800 -0.4700 0.0679
vn 0.3164 -0.9451 -0.0813
vn 0.1138 0.5005 -0.8582
vn 0.4172 -0.3368 -0.8441
vn -0.4774 0.7685 -0.4260
vn 0.6780 -0.7333 -0.0516
vn 0.4519 -0.8914 -0.0355
vn 0.4868 -0.8602 -0.1519
vn 0.4532 -0.8909 -0.0303
vn -0.1095 -0.9902 -0.0871
vn 0.0038 -0.9989 -0.0472
vn 0.0380 0.9991 0.0209
vn -0.6927 0.6659 0.2769
vn -0.9117 0.4072 0.0544
vn -0.7439 0.6683 -0.0030
vn -0.7685 0.6339 0.0871
vn 0.0198 0.9996 0.0179
vn -0.2644 0.9635 -0.0418
vn -0.1604 0.9743 0.1582
vn 0.3825 0.9166 -0.1166
vn -0.7924 0.6062 -0.0675
vn -0.4385 0.8827 0.1688
vn 0.1760 0.0407 -0.9836
vn -0.7962 -0.6049 0.0123
vn -0.9438 0.3096 0.1161
vn 0.9077 0.4174 -0.0436
vn 0.9874 0.1181 -0.1050
vn 0.9227 0.3834 -0.0396
vn 0.3899 0.9192 -0.0558
vn -0.0703 0.9863 0.1493
vn 0.4503 -0.8894 -0.0791
vn 0.6699 -0.7262 -0.1545
vn 0.3394 -0.3921 0.8550
vn 0.8773 0.4740 -0.0749
vn 0.7646 0.6431 0.0418
vn 0.8961 0.4258 -0.1253
vn 0.9166 0.3788 -0.1281
vn -0.3194 0.1676 0.9327
vn -0.8348 -0.5486 0.0460
vn -0.9516 -0.2938 0.0906
vn 0.7106 -0.7034 -0.0177
vn 0.4438 -0.8918 -0.0875
vn 0.4556 -0.8895 -0.0351
vn 0.5222 -0.8405 -0.1444
vn 0.3839 -0.9233 -0.0148
vn -0.0017 -0.9927 -0.1204
vn 0.1015 0.9948 0.0041
vn -0.2631 0.9612 0.0825
vn -0.6241 0.7810 0.0233
vn -0.7871 0.6096 0.0948
vn -0.2081 0.9781 -0.0104
vn -0.4619 0.8869 -0.0000
vn -0.4797 0.8738 0.0794
vn -0.1711 0.9851 0.0201
vn -0.7731 0.5892 0.2350
vn 0.0309 -0.1004 -0.9945
vn -0.8768 -0.4760 0.0682
s 0
usemtl Bark
f 7//1 1//1 29//1
f 2//2 53//2 13//2
f 9//3 32//3 47//3
f 37//4 19//4 44//4
f 21//5 39//5 40//5
f 40//6 39//6 42//6
f 23//7 13//7 3//7
f 23//8 9//8 13//8
f 5//9 43//9 18//9
f 6//10 26//10 24//10
f 38//11 37//11 44//11
f 36//12 52//12 5//12
f 52//13 10//13 4//13
f 36//14 10//14 52//14
f 22//15 17//15 33//15
f 2//16 17//16 22//16
f 48//17 36//17 28//17
f 51//18 19//18 37//18
f 35//19 51//19 12//19
f 35//20 25//20 51//20
f 41//21 13//21 53//21
f 3//22 50//22 23//22
f 16//23 19//23 25//23
f 52//24 4//24 27//24
f 51//25 25//25 19//25
f 21//26 30//26 8//26
f 37//27 46//27 51//27
f 31//28 11//28 48//28
f 34//29 33//29 12//29
f 13//30 25//30 17//30
f 17//31 25//31 35//31
f 5//32 52//32 43//32
f 41//33 8//33 15//33
f 39//34 22//34 42//34
f 13//35 15//35 3//35
f 40//36 14//36 21//36
f 1//37 40//37 42//37
f 21//38 8//38 39//38
f 9//39 16//39 13//39
f 38//40 18//40 43//40
f 9//41 6//41 24//41
f 13//42 17//42 2//42
f 44//43 24//43 38//43
f 24//44 26//44 38//44
f 16//45 44//45 19//45
f 35//46 33//46 17//46
f 36//47 14//47 7//47
f 20//48 14//48 36//48
f 5//49 28//49 36//49
f 34//50 29//50 45//50
f 45//51 1//51 42//51
f 42//52 33//52 45//52
f 4//53 46//53 27//53
f 46//54 12//54 51//54
f 10//55 34//55 46//55
f 32//56 31//56 47//56
f 26//57 9//57 47//57
f 26//58 47//58 31//58
f 28//59 18//59 48//59
f 18//60 31//60 48//60
f 14//61 49//61 21//61
f 49//62 36//62 48//62
f 48//63 30//63 49//63
f 15//64 30//64 50//64
f 30//65 32//65 50//65
f 23//66 32//66 9//66
f 36//67 29//67 10//67
f 37//68 43//68 52//68
f 37//69 52//69 27//69
f 39//70 53//70 22//70
f 39//71 41//71 53//71
f 2//72 22//72 53//72
f 3//73 15//73 50//73
f 21//74 49//74 30//74
f 37//75 27//75 46//75
f 34//76 45//76 33//76
f 13//77 16//77 25//77
f 41//78 39//78 8//78
f 13//79 41//79 15//79
f 40//80 7//80 14//80
f 1//81 7//81 40//81
f 9//82 24//82 16//82
f 38//83 26//83 18//83
f 44//84 16//84 24//84
f 35//85 12//85 33//85
f 34//86 10//86 29//86
f 45//87 29//87 1//87
f 42//88 22//88 33//88
f 4//89 10//89 46//89
f 46//90 34//90 12//90
f 32//91 11//91 31//91
f 26//92 6//92 9//92
f 28//93 5//93 18//93
f 18//94 26//94 31//94
f 14//95 20//95 49//95
f 49//96 20//96 36//96
f 48//63 11//63 30//63
f 15//97 8//97 30//97
f 30//98 11//98 32//98
f 23//99 50//99 32//99
f 36//100 7//100 29//100
f 37//101 38//101 43//101
