# Blender 4.1.1
# www.blender.org
mtllib Cube.026_Cube.029.mtl
o Cube.026_Cube.029
v 10.033555 4.329845 11.586384
v 9.888599 4.328280 11.483893
v 9.882481 5.668734 11.480395
v 10.170915 4.321125 11.409041
v 10.013779 5.676796 11.297375
v 10.033394 5.001590 11.585941
v 9.877560 5.051901 11.502243
v 9.964791 4.306944 11.540441
v 9.978804 5.695594 11.342713
v 10.012611 5.001590 11.288503
v 9.959165 4.301509 11.394418
v 10.164736 5.001590 11.391180
v 10.107894 4.322320 11.503500
v 10.015020 5.740663 11.441599
v 10.113700 5.001590 11.503968
v 10.091292 5.001590 11.333721
v 9.910567 5.001590 11.370945
v 9.940658 5.001590 11.539659
v 10.016514 5.704004 11.577706
v 9.884861 4.671840 11.474485
v 10.001978 4.671840 11.282895
v 9.885985 4.321157 11.413607
v 10.151002 5.694358 11.394441
v 10.152242 4.671840 11.404213
v 10.023015 4.303488 11.303209
v 10.135828 4.326256 11.454237
v 10.019437 4.671841 11.594282
v 9.957156 5.696771 11.534336
v 9.865098 5.332592 11.504250
v 9.920261 5.728356 11.427579
v 10.008970 5.331336 11.287539
v 9.979028 4.323739 11.341817
v 10.154223 5.331337 11.389023
v 10.054191 5.700374 11.530821
v 10.078394 4.321122 11.414284
v 10.095847 4.671840 11.481579
v 10.123489 5.001590 11.452389
v 10.064022 5.001590 11.535554
v 10.057338 4.647383 11.335313
v 10.045506 5.001590 11.323552
v 10.113061 5.001590 11.361633
v 9.929083 4.671840 11.372925
v 9.932202 5.331833 11.391199
v 9.910808 5.001590 11.432945
v 9.982270 5.001590 11.348801
v 9.937428 5.332191 11.545207
v 9.997750 5.001590 11.560595
v 9.910513 5.334934 11.520766
v 9.980392 5.331443 11.556514
v 9.974494 4.671841 11.579951
v 9.940554 5.332139 11.324728
v 9.882778 5.334874 11.459517
v 9.902061 4.671840 11.434946
v 10.081861 5.399191 11.348827
v 10.027802 5.331336 11.318885
v 10.071926 5.374455 11.503668
v 10.113257 5.331514 11.434899
v 10.115867 4.671840 11.429731
v 9.991265 4.328947 11.487375
v 10.041449 5.680281 11.316867
v 10.048632 5.688354 11.475526
v 9.917456 5.736304 11.501113
v 10.061659 4.671840 11.521868
v 10.112843 4.671840 11.366896
v 9.942857 4.671840 11.327360
v 9.931782 4.636049 11.528500
vn -0.7517 0.0099 0.6595
vn 0.6874 0.0266 -0.7258
vn 0.4438 0.6706 0.5944
vn 0.1132 0.9506 -0.2889
vn 0.1178 -0.9627 0.2435
vn -0.7506 -0.0514 0.6588
vn 0.7878 0.0420 -0.6145
vn 0.4979 0.0174 -0.8671
vn 0.5081 -0.0249 -0.8610
vn 0.6874 -0.0008 -0.7263
vn 0.5355 0.0607 0.8423
vn 0.7791 -0.0098 0.6268
vn 0.0067 -0.9930 0.1180
vn 0.1034 -0.9944 -0.0208
vn -0.2053 0.9604 -0.1881
vn -0.0950 0.9944 -0.0463
vn 0.3047 0.7733 0.5561
vn 0.5014 -0.0209 -0.8650
vn -0.5180 -0.0135 0.8553
vn 0.8662 0.0610 0.4960
vn 0.8636 0.0240 0.5036
vn -0.8740 0.4785 -0.0851
vn 0.8581 0.5094 -0.0648
vn -0.1629 -0.9296 0.3306
vn 0.9817 0.0403 0.1863
vn 0.8535 0.0266 0.5204
vn 0.2168 -0.0022 -0.9762
vn 0.5804 0.0181 -0.8141
vn 0.4964 0.0101 -0.8681
vn -0.2724 -0.0778 -0.9590
vn -0.9979 0.0651 0.0039
vn -0.8932 -0.0112 -0.4494
vn -0.2548 -0.0187 0.9668
vn -0.6703 0.0295 0.7415
vn -0.3407 -0.0218 0.9399
vn -0.6117 0.0492 0.7896
vn -0.3444 0.0842 0.9350
vn -0.5794 -0.0204 0.8148
vn -0.5361 -0.0768 0.8407
vn -0.5908 0.0114 0.8067
vn -0.2536 0.0425 0.9664
vn -0.3029 0.0771 0.9499
vn -0.7692 -0.0008 0.6391
vn -0.2934 -0.1062 -0.9501
vn -0.4770 0.0316 -0.8783
vn -0.9863 0.1099 -0.1234
vn -0.9129 -0.0444 -0.4057
vn -0.8306 0.0340 -0.5558
vn -0.8094 0.0255 -0.5867
vn -0.9985 0.0438 0.0327
vn -0.9168 0.0219 -0.3988
vn -0.9984 -0.0560 0.0039
vn 0.7289 0.0295 -0.6840
vn 0.5787 -0.0095 -0.8155
vn 0.5780 -0.0273 -0.8156
vn 0.6873 -0.0012 -0.7264
vn 0.8280 0.0553 0.5580
vn 0.2167 -0.0252 -0.9759
vn 0.8148 -0.0202 0.5793
vn 0.5719 0.0908 0.8153
vn 0.8582 0.0039 0.5133
vn 0.5729 -0.0694 0.8167
vn 0.9803 -0.0657 0.1861
vn -0.0613 -0.9975 0.0337
vn 0.0187 -0.9268 -0.3750
vn 0.0030 -0.9949 0.1007
vn -0.0438 0.9771 -0.2080
vn 0.4102 -0.8965 -0.1671
vn -0.0505 0.8947 -0.4438
vn 0.1016 0.9443 -0.3131
vn -0.2108 -0.9437 0.2549
vn -0.6779 -0.0790 -0.7309
vn -0.1118 0.9875 -0.1110
vn 0.7458 0.0638 0.6631
vn 0.2049 -0.9269 -0.3144
vn 0.5361 -0.0388 0.8432
vn 0.8636 -0.0238 0.5036
vn 0.7885 -0.0103 -0.6149
vn 0.6866 -0.0547 -0.7250
vn -0.9513 -0.1108 -0.2875
vn -0.9488 0.1321 -0.2868
vn -0.8927 0.0364 -0.4492
vn -0.6013 -0.0313 0.7984
vn -0.7732 -0.0610 0.6312
vn 0.9299 0.0792 0.3591
vn 0.8790 0.0988 0.4665
vn 0.8542 0.0263 0.5192
vn 0.4407 0.0445 -0.8965
vn 0.4932 0.0107 -0.8698
vn -0.9148 0.0662 -0.3985
vn -0.8105 -0.0215 -0.5854
vn -0.4750 -0.1234 -0.8713
vn -0.3443 -0.0065 0.9388
vn -0.5213 -0.0194 0.8531
vn -0.6678 0.0583 0.7420
vn -0.5786 0.0499 0.8141
vn -0.4933 -0.0017 0.8699
vn -0.3036 -0.0345 0.9522
vn -0.5789 0.0451 0.8141
vn -0.3432 0.0791 0.9359
vn -0.9896 0.0724 -0.1240
vn -0.7638 0.1118 -0.6356
vn -0.9286 -0.0386 -0.3690
vn -0.9301 0.0221 -0.3665
vn -0.8171 0.0311 -0.5757
vn -0.9168 -0.0209 -0.3988
vn -0.8972 0.0150 -0.4414
vn -0.9166 0.0219 -0.3993
vn 0.8572 0.0080 -0.5150
vn 0.8572 0.0027 -0.5150
vn 0.7291 -0.0119 -0.6843
vn 0.7457 0.0281 0.6657
vn 0.7459 -0.0033 0.6661
vn 0.7917 0.0505 0.6089
vn 0.8292 -0.0093 0.5588
vn 0.9319 -0.0463 0.3598
vn -0.0616 -0.9975 0.0353
vn -0.0408 0.9931 -0.1097
vn 0.0087 -0.9883 0.1526
vn -0.5983 -0.0952 -0.7956
vn 0.7608 0.0667 0.6456
vn 0.7597 -0.0849 0.6447
vn 0.8542 -0.0277 0.5192
vn 0.5113 -0.0529 -0.8577
vn 0.4963 -0.0142 -0.8680
vn -0.9169 -0.0969 -0.3872
vn -0.2950 -0.0223 -0.9552
vn -0.5965 0.1229 -0.7931
s 0
usemtl Fence
f 20//1 2//1 66//1
f 24//2 4//2 64//2
f 14//3 28//3 61//3
f 60//4 9//4 30//4
f 59//5 11//5 35//5
f 66//6 8//6 50//6
f 54//7 41//7 16//7
f 23//8 33//8 54//8
f 60//9 54//9 55//9
f 39//10 25//10 21//10
f 56//11 38//11 15//11
f 34//12 19//12 56//12
f 35//13 4//13 26//13
f 13//14 35//14 26//14
f 23//15 61//15 34//15
f 60//16 61//16 23//16
f 14//17 62//17 28//17
f 64//18 4//18 39//18
f 7//19 66//19 18//19
f 26//20 36//20 13//20
f 63//21 27//21 1//21
f 30//22 3//22 62//22
f 60//23 14//23 61//23
f 59//24 22//24 11//24
f 57//25 15//25 37//25
f 6//26 56//26 19//26
f 55//27 16//27 40//27
f 39//28 4//28 25//28
f 41//29 33//29 12//29
f 22//30 42//30 11//30
f 44//31 43//31 17//31
f 45//32 31//32 10//32
f 18//33 49//33 46//33
f 7//34 46//34 48//34
f 48//35 29//35 7//35
f 48//36 28//36 62//36
f 48//37 3//37 29//37
f 6//38 49//38 47//38
f 1//39 50//39 8//39
f 19//40 28//40 49//40
f 28//41 46//41 49//41
f 27//42 47//42 50//42
f 50//43 18//43 66//43
f 17//44 51//44 45//44
f 51//45 5//45 31//45
f 9//46 51//46 43//46
f 7//47 52//47 44//47
f 52//48 3//48 30//48
f 52//49 9//49 43//49
f 2//50 53//50 22//50
f 20//51 44//51 53//51
f 42//52 44//52 17//52
f 10//53 55//53 40//53
f 60//54 23//54 54//54
f 55//55 5//55 60//55
f 21//56 40//56 39//56
f 12//57 57//57 37//57
f 40//58 16//58 39//58
f 57//59 23//59 34//59
f 26//60 24//60 58//60
f 34//61 56//61 57//61
f 24//62 37//62 58//62
f 36//63 37//63 15//63
f 13//64 59//64 35//64
f 8//65 2//65 59//65
f 2//66 22//66 59//66
f 28//67 34//67 61//67
f 1//68 8//68 59//68
f 60//69 30//69 14//69
f 60//70 5//70 9//70
f 25//71 35//71 32//71
f 32//72 21//72 25//72
f 14//73 30//73 62//73
f 13//74 63//74 1//74
f 11//75 32//75 35//75
f 63//76 15//76 38//76
f 63//77 6//77 27//77
f 64//78 16//78 41//78
f 64//79 12//79 24//79
f 32//80 42//80 65//80
f 42//81 45//81 65//81
f 21//82 45//82 10//82
f 66//83 2//83 8//83
f 7//84 20//84 66//84
f 26//85 58//85 36//85
f 57//86 56//86 15//86
f 6//87 38//87 56//87
f 55//88 54//88 16//88
f 41//89 54//89 33//89
f 22//90 53//90 42//90
f 44//91 52//91 43//91
f 45//92 51//92 31//92
f 18//93 47//93 49//93
f 7//94 18//94 46//94
f 48//95 46//95 28//95
f 48//96 62//96 3//96
f 6//97 19//97 49//97
f 1//98 27//98 50//98
f 27//99 6//99 47//99
f 50//100 47//100 18//100
f 17//101 43//101 51//101
f 51//102 9//102 5//102
f 7//103 29//103 52//103
f 52//104 29//104 3//104
f 52//105 30//105 9//105
f 2//106 20//106 53//106
f 20//107 7//107 44//107
f 42//108 53//108 44//108
f 10//109 31//109 55//109
f 55//110 31//110 5//110
f 21//111 10//111 40//111
f 12//112 33//112 57//112
f 57//113 33//113 23//113
f 26//114 4//114 24//114
f 24//115 12//115 37//115
f 36//116 58//116 37//116
f 13//117 1//117 59//117
f 28//118 19//118 34//118
f 25//119 4//119 35//119
f 32//120 65//120 21//120
f 13//121 36//121 63//121
f 63//122 36//122 15//122
f 63//123 38//123 6//123
f 64//124 39//124 16//124
f 64//125 41//125 12//125
f 32//126 11//126 42//126
f 42//127 17//127 45//127
f 21//128 65//128 45//128
