# Blender 4.1.1
# www.blender.org
mtllib Plane.044.mtl
o Plane.044
v -13.937628 5.134092 -3.785760
v -14.267184 4.833581 -4.092810
v -13.847658 5.146524 -3.894491
v -14.177217 4.846009 -4.201541
v -13.847344 5.181614 -3.797922
v -14.135356 4.996743 -3.965076
v -14.222200 4.839795 -4.147176
v -14.045389 5.009174 -4.073805
v -14.060076 5.056691 -3.988229
v -13.712842 4.957265 -4.085863
v -14.011512 4.607157 -4.371201
v -13.650070 4.849255 -4.019041
v -13.948738 4.499150 -4.304380
v -13.640406 4.951380 -4.013235
v -13.853282 4.763513 -4.267114
v -13.980125 4.553154 -4.337790
v -13.790508 4.655503 -4.200293
v -13.770882 4.751602 -4.213581
v -13.632318 4.667987 -3.627117
v -13.934672 4.281406 -3.855885
v -13.736994 4.695815 -3.535796
v -14.039347 4.309231 -3.764563
v -13.643100 4.735037 -3.550013
v -13.786011 4.432159 -3.731423
v -13.987011 4.295321 -3.810222
v -13.890685 4.459984 -3.640098
v -13.793710 4.479249 -3.644704
v -14.357194 5.348259 -3.452419
v -14.674520 5.034448 -3.759053
v -14.468321 5.430578 -3.421667
v -14.785645 5.116765 -3.728299
v -14.369143 5.432551 -3.394898
v -14.538904 5.155943 -3.594234
v -14.730083 5.075605 -3.743675
v -14.650030 5.238260 -3.563480
v -14.560020 5.223500 -3.525045
v -13.710031 4.761126 -3.630952
v -14.028235 4.413360 -3.897413
v -13.701396 4.842067 -3.746901
v -14.019601 4.494301 -4.013362
v -13.661978 4.849395 -3.652303
v -13.912787 4.586978 -3.767618
v -14.023919 4.453832 -3.955387
v -13.904151 4.667919 -3.883571
v -13.886409 4.680389 -3.786993
v -14.177678 5.021269 -3.312701
v -14.532180 4.708099 -3.576236
v -14.076748 4.984866 -3.405214
v -14.431249 4.671697 -3.668749
v -14.078489 5.046110 -3.322734
v -14.381550 4.875145 -3.477626
v -14.481716 4.689898 -3.622491
v -14.280617 4.838742 -3.570139
v -14.293131 4.911119 -3.503792
v -13.815153 5.363836 -4.164748
v -14.169654 5.050667 -4.428284
v -13.922240 5.434194 -4.104306
v -14.276741 5.121024 -4.367842
v -13.819974 5.442060 -4.098306
v -14.010248 5.169291 -4.283940
v -14.223196 5.085844 -4.398063
v -14.117332 5.239651 -4.223497
v -14.020501 5.229222 -4.205837
vn 0.4911 -0.7231 0.4858
vn 0.2400 -0.9127 0.3309
vn 0.4706 -0.8808 0.0521
vn 0.6491 -0.7012 0.2948
vn -0.6501 0.2328 0.7233
vn -0.8599 0.0525 0.5077
vn -0.6990 -0.2244 0.6790
vn -0.5399 0.0431 0.8406
vn -0.1801 0.7558 -0.6296
vn -0.3275 0.4916 -0.8069
vn -0.5958 0.5629 -0.5728
vn -0.3638 0.8046 -0.4692
vn 0.3975 0.5863 -0.7058
vn 0.2379 0.3475 -0.9070
vn -0.0470 0.5585 -0.8282
vn 0.2024 0.7309 -0.6518
vn 0.8824 -0.4591 -0.1028
vn 0.6684 -0.7094 -0.2236
vn 0.6905 -0.5019 -0.5208
vn 0.8976 -0.3170 -0.3064
vn 0.2715 -0.6244 0.7324
vn 0.0020 -0.8028 0.5962
vn 0.2608 -0.8962 0.3590
vn 0.4487 -0.6883 0.5699
vn 0.2024 0.6707 -0.7136
vn 0.0192 0.4364 -0.8996
vn -0.2553 0.6167 -0.7446
vn 0.0144 0.7942 -0.6075
vn 0.5555 -0.7422 0.3748
vn 0.1414 -0.8550 0.4990
vn 0.6090 -0.7904 -0.0662
vn -0.6234 0.1161 0.7733
vn -0.8742 0.2371 0.4238
vn -0.5479 -0.3243 0.7712
vn -0.2961 0.7646 -0.5724
vn -0.1354 0.4732 -0.8705
vn -0.6794 0.6178 -0.3958
vn 0.2826 0.6463 -0.7089
vn 0.4147 0.2528 -0.8741
vn -0.1629 0.6806 -0.7143
vn 0.2825 0.6463 -0.7089
vn 0.8805 -0.4170 -0.2255
vn 0.6608 -0.7501 -0.0245
vn 0.7057 -0.3294 -0.6273
vn 0.8805 -0.4169 -0.2255
vn 0.3410 -0.6866 0.6422
vn -0.0980 -0.6816 0.7251
vn 0.4266 -0.8708 0.2442
vn 0.3410 -0.6865 0.6422
vn 0.0858 0.7212 -0.6874
vn 0.2046 0.3540 -0.9126
vn -0.3520 0.7197 -0.5985
s 0
usemtl Material.001
f 7//1 8//1 9//1
f 9//2 3//2 5//2
f 1//3 9//3 5//3
f 6//4 7//4 9//4
f 16//5 17//5 18//5
f 18//6 12//6 14//6
f 10//7 18//7 14//7
f 15//8 16//8 18//8
f 25//9 26//9 27//9
f 27//10 21//10 23//10
f 19//11 27//11 23//11
f 24//12 25//12 27//12
f 34//13 35//13 36//13
f 36//14 30//14 32//14
f 28//15 36//15 32//15
f 33//16 34//16 36//16
f 43//17 44//17 45//17
f 45//18 39//18 41//18
f 37//19 45//19 41//19
f 42//20 43//20 45//20
f 52//21 53//21 54//21
f 54//22 48//22 50//22
f 46//23 54//23 50//23
f 51//24 52//24 54//24
f 61//25 62//25 63//25
f 63//26 57//26 59//26
f 55//27 63//27 59//27
f 60//28 61//28 63//28
f 7//29 4//29 8//29
f 9//30 8//30 3//30
f 1//31 6//31 9//31
f 6//29 2//29 7//29
f 16//32 13//32 17//32
f 18//33 17//33 12//33
f 10//34 15//34 18//34
f 15//32 11//32 16//32
f 25//35 22//35 26//35
f 27//36 26//36 21//36
f 19//37 24//37 27//37
f 24//35 20//35 25//35
f 34//38 31//38 35//38
f 36//39 35//39 30//39
f 28//40 33//40 36//40
f 33//41 29//41 34//41
f 43//42 40//42 44//42
f 45//43 44//43 39//43
f 37//44 42//44 45//44
f 42//45 38//45 43//45
f 52//46 49//46 53//46
f 54//47 53//47 48//47
f 46//48 51//48 54//48
f 51//49 47//49 52//49
f 61//50 58//50 62//50
f 63//51 62//51 57//51
f 55//52 60//52 63//52
f 60//50 56//50 61//50
