# Blender 4.1.1
# www.blender.org
mtllib Cube.002_Cube.mtl
o Cube.002_Cube
v 2.040375 -0.864071 -1.165494
v 2.022010 -0.863943 -1.226638
v 2.070971 -0.967657 -1.166420
v 2.069556 -0.967528 -1.227564
v 3.100801 -0.550645 -1.189373
v 3.099386 -0.550516 -1.250517
v 3.131397 -0.654230 -1.190300
v 3.129982 -0.654101 -1.251444
v 2.022717 -0.864007 -1.196066
v 2.054258 -0.915735 -1.227101
v 2.070263 -0.967592 -1.196992
v 2.055673 -0.915864 -1.165957
v 2.599769 -0.810815 -1.239504
v 3.130689 -0.654166 -1.220871
v 2.601184 -0.810943 -1.178360
v 3.114684 -0.602309 -1.250980
v 3.100094 -0.550580 -1.219946
v 3.116099 -0.602437 -1.189837
v 2.569173 -0.707229 -1.238578
v 2.570588 -0.707358 -1.177434
v 2.584471 -0.759022 -1.239041
v 2.585886 -0.759151 -1.177897
v 2.569881 -0.707294 -1.208006
v 3.138232 -0.602373 -1.220409
v 2.600476 -0.810879 -1.208932
v 2.054965 -0.915800 -1.196529
v 2.039314 -0.863975 -1.211352
v 2.061907 -0.941632 -1.227332
v 2.070617 -0.967625 -1.181706
v 2.048024 -0.889968 -1.165725
v 2.864875 -0.732458 -1.245474
v 3.131043 -0.654198 -1.205585
v 2.336077 -0.889300 -1.172390
v 3.107035 -0.576412 -1.250749
v 3.100447 -0.550613 -1.204660
v 3.123748 -0.628334 -1.190068
v 2.304067 -0.785586 -1.232608
v 2.835695 -0.629001 -1.183404
v 2.040021 -0.864039 -1.180780
v 2.046609 -0.889839 -1.226869
v 2.069910 -0.967560 -1.212278
v 2.063322 -0.941760 -1.166188
v 2.334662 -0.889171 -1.233534
v 3.130335 -0.654133 -1.236158
v 2.866290 -0.732587 -1.184330
v 3.122333 -0.628205 -1.251212
v 3.099740 -0.550548 -1.235232
v 3.108450 -0.576541 -1.189605
v 2.834280 -0.628873 -1.244548
v 2.305482 -0.785715 -1.171464
v 2.319365 -0.837379 -1.233071
v 2.849577 -0.680665 -1.245011
v 2.576822 -0.733126 -1.238809
v 2.592120 -0.784918 -1.239272
v 2.850992 -0.680794 -1.183867
v 2.320779 -0.837507 -1.171927
v 2.578237 -0.733254 -1.177665
v 2.593535 -0.785047 -1.178128
v 2.570234 -0.707326 -1.192720
v 2.569527 -0.707262 -1.223292
v 2.834987 -0.628937 -1.213976
v 2.304774 -0.785650 -1.202036
v 3.138585 -0.602405 -1.205122
v 3.115037 -0.602341 -1.235695
v 3.123040 -0.628269 -1.220640
v 3.107742 -0.576477 -1.220177
v 2.600830 -0.810911 -1.193646
v 2.600122 -0.810847 -1.224218
v 2.335370 -0.889236 -1.202962
v 2.865582 -0.732522 -1.214902
v 2.055319 -0.915832 -1.181243
v 2.054612 -0.915768 -1.211815
v 2.047317 -0.889903 -1.196297
v 2.062614 -0.941696 -1.196760
v 2.062261 -0.941664 -1.212046
v 2.046963 -0.889871 -1.211583
v 2.047670 -0.889936 -1.181011
v 2.865229 -0.732490 -1.230188
v 2.335016 -0.889204 -1.218248
v 2.335723 -0.889268 -1.187676
v 3.130229 -0.576445 -1.235463
v 3.145527 -0.628237 -1.235926
v 3.123394 -0.628301 -1.205354
v 2.304420 -0.785618 -1.217322
v 2.834633 -0.628905 -1.229262
v 2.835341 -0.628969 -1.198690
v 2.328428 -0.863404 -1.172158
v 2.313130 -0.811611 -1.171695
v 2.843343 -0.654898 -1.183635
v 2.857226 -0.706562 -1.245242
v 2.841928 -0.654769 -1.244779
v 2.311716 -0.811482 -1.232839
v 2.327013 -0.863275 -1.233302
v 2.858641 -0.706690 -1.184098
v 2.305128 -0.785683 -1.186750
v 3.130936 -0.576509 -1.204891
v 2.865936 -0.732554 -1.199616
v 2.062968 -0.941728 -1.181474
vn -0.9588 -0.2834 0.0216
vn 0.2833 -0.9590 -0.0086
vn 0.4700 0.5472 0.6926
vn -0.2833 0.9590 0.0086
vn 0.0231 -0.0021 0.9997
vn -0.0231 0.0021 -0.9997
vn 0.9588 0.2834 -0.0215
vn 0.5330 -0.3197 0.7834
vn -0.9588 -0.2833 0.0216
vn -0.9588 -0.2834 0.0215
vn -0.5710 -0.5369 -0.6211
vn -0.5591 -0.5368 0.6318
vn 0.2833 -0.9590 -0.0085
vn 0.4606 0.5486 -0.6978
vn 0.9588 0.2834 -0.0216
vn 0.8624 -0.5058 -0.0211
vn -0.0187 -0.0088 -0.9998
vn 0.5551 0.1567 0.8169
vn -0.2623 0.9226 -0.2829
vn 0.4606 0.5485 -0.6978
vn 0.9588 0.2833 -0.0216
vn 0.5245 -0.3006 -0.7966
vn 0.5246 -0.3006 -0.7965
vn 0.8624 -0.5057 -0.0210
vn -0.2832 0.9590 0.0086
vn -0.2509 0.9248 0.2859
vn -0.2833 0.9590 0.0085
vn 0.5551 0.1566 0.8169
vn 0.9588 0.2833 -0.0215
s 0
usemtl CHIM
f 98//1 3//1 42//1
f 32//2 45//2 97//2
f 35//3 48//3 96//3
f 95//4 1//4 50//4
f 45//5 36//5 94//5
f 93//6 4//6 28//6
f 92//6 10//6 40//6
f 91//6 21//6 53//6
f 90//6 13//6 54//6
f 55//5 48//5 89//5
f 56//5 57//5 88//5
f 33//5 58//5 87//5
f 86//4 20//4 38//4
f 85//4 23//4 61//4
f 27//4 62//4 84//4
f 83//7 18//7 36//7
f 82//8 24//8 65//8
f 47//3 66//3 81//3
f 67//2 33//2 80//2
f 68//2 69//2 79//2
f 78//2 14//2 70//2
f 77//1 12//1 30//1
f 76//9 26//9 73//9
f 75//10 11//10 74//10
f 72//1 74//1 26//1
f 28//1 72//1 10//1
f 28//1 41//1 75//1
f 27//11 73//11 9//11
f 40//12 27//12 2//12
f 10//1 76//1 40//1
f 77//1 1//1 39//1
f 73//12 39//12 9//12
f 73//10 71//10 77//10
f 68//2 70//2 25//2
f 13//13 78//13 68//13
f 31//2 44//2 78//2
f 41//13 69//13 11//13
f 43//2 41//2 4//2
f 43//2 68//2 79//2
f 80//2 3//2 29//2
f 11//2 80//2 29//2
f 69//2 67//2 80//2
f 64//14 66//14 24//14
f 34//7 64//7 16//7
f 34//14 47//14 81//14
f 44//15 65//15 14//15
f 46//15 44//15 8//15
f 46//14 64//14 82//14
f 32//15 36//15 7//15
f 14//15 83//15 32//15
f 24//16 83//16 65//16
f 60//4 62//4 23//4
f 37//4 60//4 19//4
f 37//4 27//4 84//4
f 47//4 61//4 17//4
f 6//4 85//4 47//4
f 19//4 85//4 49//4
f 35//4 38//4 5//4
f 61//4 35//4 17//4
f 23//4 86//4 61//4
f 56//5 58//5 22//5
f 12//5 87//5 56//5
f 3//5 87//5 42//5
f 50//5 57//5 20//5
f 1//5 88//5 50//5
f 12//5 88//5 30//5
f 38//5 48//5 5//5
f 20//5 89//5 38//5
f 22//5 89//5 57//5
f 52//6 54//6 21//6
f 46//6 52//6 16//6
f 46//6 31//6 90//6
f 91//6 19//6 49//6
f 34//6 49//6 6//6
f 34//6 52//6 91//6
f 37//17 40//17 2//17
f 19//6 92//6 37//6
f 21//6 92//6 53//6
f 93//6 10//6 51//6
f 54//6 51//6 21//6
f 54//6 43//6 93//6
f 55//5 36//5 18//5
f 58//5 55//5 22//5
f 15//5 94//5 58//5
f 59//4 50//4 20//4
f 62//4 59//4 23//4
f 62//4 39//4 95//4
f 96//18 18//18 63//18
f 24//7 96//7 63//7
f 66//14 35//14 96//14
f 67//2 45//2 15//2
f 70//2 67//2 25//2
f 14//2 97//2 70//2
f 98//1 12//1 71//1
f 74//1 71//1 26//1
f 11//1 98//1 74//1
f 98//1 29//1 3//1
f 32//2 7//2 45//2
f 35//15 5//15 48//15
f 95//4 39//4 1//4
f 45//5 7//5 36//5
f 93//6 43//6 4//6
f 92//6 51//6 10//6
f 91//6 52//6 21//6
f 90//6 31//6 13//6
f 55//5 18//5 48//5
f 56//5 22//5 57//5
f 33//5 15//5 58//5
f 86//4 59//4 20//4
f 85//4 60//4 23//4
f 27//19 9//19 62//19
f 83//8 63//8 18//8
f 82//20 64//20 24//20
f 47//21 17//21 66//21
f 67//2 15//2 33//2
f 68//2 25//2 69//2
f 78//2 44//2 14//2
f 77//1 71//1 12//1
f 76//10 72//10 26//10
f 75//10 41//10 11//10
f 72//10 75//10 74//10
f 28//1 75//1 72//1
f 28//1 4//1 41//1
f 27//1 76//1 73//1
f 40//1 76//1 27//1
f 10//1 72//1 76//1
f 77//1 30//1 1//1
f 73//10 77//10 39//10
f 73//9 26//9 71//9
f 68//13 78//13 70//13
f 13//2 31//2 78//2
f 31//2 8//2 44//2
f 41//2 79//2 69//2
f 43//2 79//2 41//2
f 43//13 13//13 68//13
f 80//2 33//2 3//2
f 11//13 69//13 80//13
f 69//2 25//2 67//2
f 64//8 81//8 66//8
f 34//22 81//22 64//22
f 34//15 6//15 47//15
f 44//8 82//8 65//8
f 46//23 82//23 44//23
f 46//7 16//7 64//7
f 32//15 83//15 36//15
f 14//15 65//15 83//15
f 24//24 63//24 83//24
f 60//4 84//4 62//4
f 37//25 84//25 60//25
f 37//26 2//26 27//26
f 47//4 85//4 61//4
f 6//27 49//27 85//27
f 19//4 60//4 85//4
f 35//4 86//4 38//4
f 61//4 86//4 35//4
f 23//4 59//4 86//4
f 56//5 87//5 58//5
f 12//5 42//5 87//5
f 3//5 33//5 87//5
f 50//5 88//5 57//5
f 1//5 30//5 88//5
f 12//5 56//5 88//5
f 38//5 89//5 48//5
f 20//5 57//5 89//5
f 22//5 55//5 89//5
f 52//6 90//6 54//6
f 46//6 90//6 52//6
f 46//6 8//6 31//6
f 91//6 53//6 19//6
f 34//6 91//6 49//6
f 34//6 16//6 52//6
f 37//6 92//6 40//6
f 19//6 53//6 92//6
f 21//6 51//6 92//6
f 93//6 28//6 10//6
f 54//6 93//6 51//6
f 54//6 13//6 43//6
f 55//5 94//5 36//5
f 58//5 94//5 55//5
f 15//5 45//5 94//5
f 59//4 95//4 50//4
f 62//4 95//4 59//4
f 62//26 9//26 39//26
f 96//28 48//28 18//28
f 24//14 66//14 96//14
f 66//29 17//29 35//29
f 67//2 97//2 45//2
f 70//2 97//2 67//2
f 14//2 32//2 97//2
f 98//1 42//1 12//1
f 74//1 98//1 71//1
f 11//1 29//1 98//1
