# Blender 4.1.1
# www.blender.org
mtllib Cube.002_Cube.mtl
o Cube.002_Cube
v 5.988802 5.679576 7.202865
v 5.938680 5.846453 7.203214
v 6.072306 5.682103 6.920154
v 6.068444 5.848980 6.920506
v 8.882959 5.744749 8.058280
v 8.879097 5.911626 8.058632
v 8.966463 5.747279 7.775571
v 8.962602 5.914155 7.775923
v 5.940609 5.763015 7.203039
v 6.026692 5.847716 7.061861
v 6.070373 5.765542 6.920331
v 6.030553 5.680840 7.061509
v 7.515523 5.881567 7.348213
v 8.964531 5.830714 7.775746
v 7.519384 5.714691 7.347864
v 8.920850 5.912889 7.917276
v 8.881030 5.828190 8.058456
v 8.924711 5.746015 7.916927
v 7.432019 5.879041 7.630924
v 7.435881 5.712164 7.630572
v 7.473771 5.880304 7.489569
v 7.477633 5.713428 7.489217
v 7.433951 5.795603 7.630747
v 8.985118 5.829453 7.917101
v 7.517452 5.798129 7.348039
v 6.028622 5.764278 7.061684
v 5.985906 5.804734 7.203127
v 6.047568 5.848347 6.991182
v 6.071339 5.723823 6.920241
v 6.009677 5.680207 7.132186
v 8.239061 5.897861 7.562068
v 8.965497 5.788995 7.775659
v 6.795844 5.698397 7.134008
v 8.899973 5.912259 7.987955
v 8.881993 5.786471 8.058367
v 8.945587 5.746646 7.846248
v 6.708480 5.862747 7.417069
v 8.159422 5.728458 7.844427
v 5.987835 5.721295 7.202952
v 6.005816 5.847083 7.132538
v 6.069410 5.807261 6.920418
v 6.051430 5.681470 6.990833
v 6.791982 5.865273 7.134360
v 8.963565 5.872437 7.775836
v 8.242923 5.730985 7.561716
v 8.941726 5.913522 7.846600
v 8.880064 5.869909 8.058544
v 8.903835 5.745382 7.987603
v 8.155560 5.895334 7.844776
v 6.712342 5.695870 7.416717
v 6.750233 5.864010 7.275713
v 8.197309 5.896598 7.703424
v 7.452895 5.879671 7.560245
v 7.494647 5.880935 7.418892
v 8.201170 5.729721 7.703072
v 6.754092 5.697134 7.275364
v 7.456757 5.712794 7.559896
v 7.498508 5.714058 7.418540
v 7.434915 5.753883 7.630660
v 7.432984 5.837321 7.630834
v 8.157489 5.811896 7.844602
v 6.710410 5.779309 7.416894
v 8.986081 5.787732 7.917014
v 8.921813 5.871173 7.917189
v 8.943655 5.830084 7.846425
v 8.901903 5.828821 7.987778
v 7.518418 5.756410 7.347951
v 7.516486 5.839849 7.348126
v 6.793914 5.781836 7.134183
v 8.240990 5.814423 7.561893
v 6.029588 5.722559 7.061597
v 6.027658 5.805997 7.061771
v 6.007748 5.763645 7.132363
v 6.049497 5.764909 6.991007
v 6.048534 5.806628 6.991095
v 6.006782 5.805365 7.132450
v 6.008711 5.721926 7.132273
v 8.240026 5.856142 7.561981
v 6.792948 5.823555 7.134271
v 6.794877 5.740116 7.134096
v 8.963275 5.870540 7.987865
v 9.005027 5.871803 7.846512
v 8.944621 5.788364 7.846338
v 6.709444 5.821028 7.416982
v 8.156523 5.853616 7.844689
v 8.158455 5.770177 7.844514
v 6.774968 5.697764 7.204685
v 6.733215 5.696501 7.346041
v 8.180294 5.729088 7.773748
v 8.218184 5.897228 7.632744
v 8.176433 5.895965 7.774100
v 6.729357 5.863377 7.346393
v 6.771106 5.864641 7.205037
v 8.222046 5.730351 7.632395
v 6.711377 5.737590 7.416804
v 8.965204 5.787101 7.987690
v 8.241957 5.772704 7.561806
v 6.050464 5.723189 6.990920
vn -0.9588 -0.0216 -0.2834
vn 0.2833 0.0087 -0.9590
vn 0.4700 -0.6925 0.5472
vn -0.2833 -0.0086 0.9590
vn 0.0231 -0.9997 -0.0021
vn -0.0231 0.9997 0.0021
vn 0.9588 0.0216 0.2834
vn 0.5330 -0.7834 -0.3197
vn 0.4700 -0.6926 0.5472
vn 0.2833 0.0086 -0.9590
vn 0.2833 0.0085 -0.9590
vn -0.9588 -0.0215 -0.2834
vn -0.5710 0.6211 -0.5369
vn -0.5591 -0.6318 -0.5368
vn 0.4606 0.6978 0.5486
vn 0.9588 0.0215 0.2834
vn 0.4607 0.6978 0.5485
vn 0.8624 0.0210 -0.5058
vn -0.2833 -0.0085 0.9590
vn -0.0187 0.9998 -0.0088
vn -0.2832 -0.0086 0.9590
vn 0.5551 -0.8169 0.1567
vn -0.2623 0.2829 0.9226
vn -0.9588 -0.0216 -0.2833
vn 0.2832 0.0086 -0.9590
vn 0.5245 0.7966 -0.3006
vn 0.5246 0.7965 -0.3006
vn 0.9588 0.0216 0.2833
vn 0.8624 0.0210 -0.5057
vn -0.2509 -0.2859 0.9248
vn 0.5551 -0.8169 0.1566
vn 0.9588 0.0215 0.2833
s 0
usemtl CHIM
f 98//1 3//1 42//1
f 32//2 45//2 97//2
f 35//3 48//3 96//3
f 95//4 1//4 50//4
f 45//5 36//5 94//5
f 93//6 4//6 28//6
f 92//6 10//6 40//6
f 91//6 21//6 53//6
f 90//6 13//6 54//6
f 55//5 48//5 89//5
f 56//5 57//5 88//5
f 33//5 58//5 87//5
f 86//4 20//4 38//4
f 85//4 23//4 61//4
f 27//4 62//4 84//4
f 83//7 18//7 36//7
f 82//8 24//8 65//8
f 47//9 66//9 81//9
f 67//10 33//10 80//10
f 68//10 69//10 79//10
f 78//11 14//11 70//11
f 77//1 12//1 30//1
f 76//1 26//1 73//1
f 75//12 11//12 74//12
f 72//1 74//1 26//1
f 28//1 72//1 10//1
f 28//1 41//1 75//1
f 27//13 73//13 9//13
f 40//14 27//14 2//14
f 10//1 76//1 40//1
f 77//1 1//1 39//1
f 73//14 39//14 9//14
f 73//12 71//12 77//12
f 68//11 70//11 25//11
f 13//11 78//11 68//11
f 31//10 44//10 78//10
f 41//10 69//10 11//10
f 43//11 41//11 4//11
f 43//10 68//10 79//10
f 80//10 3//10 29//10
f 11//10 80//10 29//10
f 69//11 67//11 80//11
f 64//15 66//15 24//15
f 34//16 64//16 16//16
f 34//17 47//17 81//17
f 44//7 65//7 14//7
f 46//7 44//7 8//7
f 46//15 64//15 82//15
f 32//7 36//7 7//7
f 14//7 83//7 32//7
f 24//18 83//18 65//18
f 60//4 62//4 23//4
f 37//4 60//4 19//4
f 37//19 27//19 84//19
f 47//4 61//4 17//4
f 49//4 47//4 6//4
f 19//19 85//19 49//19
f 35//4 38//4 5//4
f 61//4 35//4 17//4
f 23//19 86//19 61//19
f 87//5 22//5 56//5
f 42//5 56//5 12//5
f 3//5 87//5 42//5
f 50//5 57//5 20//5
f 1//5 88//5 50//5
f 12//5 88//5 30//5
f 38//5 48//5 5//5
f 20//5 89//5 38//5
f 22//5 89//5 57//5
f 90//6 21//6 52//6
f 16//6 90//6 52//6
f 46//6 31//6 90//6
f 91//6 19//6 49//6
f 34//6 49//6 6//6
f 34//6 52//6 91//6
f 37//20 40//20 2//20
f 19//6 92//6 37//6
f 53//6 51//6 92//6
f 93//6 10//6 51//6
f 54//6 51//6 21//6
f 54//6 43//6 93//6
f 94//5 18//5 55//5
f 58//5 55//5 22//5
f 15//5 94//5 58//5
f 59//4 50//4 20//4
f 62//21 59//21 23//21
f 62//4 39//4 95//4
f 96//22 18//22 63//22
f 24//16 96//16 63//16
f 66//15 35//15 96//15
f 97//10 15//10 67//10
f 70//10 67//10 25//10
f 14//10 97//10 70//10
f 98//1 12//1 71//1
f 74//1 71//1 26//1
f 11//1 98//1 74//1
f 98//1 29//1 3//1
f 32//11 7//11 45//11
f 35//7 5//7 48//7
f 95//4 39//4 1//4
f 45//5 7//5 36//5
f 93//6 43//6 4//6
f 92//6 51//6 10//6
f 91//6 52//6 21//6
f 90//6 31//6 13//6
f 55//5 18//5 48//5
f 56//5 22//5 57//5
f 33//5 15//5 58//5
f 86//4 59//4 20//4
f 85//4 60//4 23//4
f 27//23 9//23 62//23
f 83//8 63//8 18//8
f 82//15 64//15 24//15
f 47//7 17//7 66//7
f 67//10 15//10 33//10
f 68//10 25//10 69//10
f 78//10 44//10 14//10
f 77//1 71//1 12//1
f 76//1 72//1 26//1
f 75//12 41//12 11//12
f 72//12 75//12 74//12
f 28//1 75//1 72//1
f 28//1 4//1 41//1
f 27//1 76//1 73//1
f 40//1 76//1 27//1
f 10//1 72//1 76//1
f 77//1 30//1 1//1
f 73//12 77//12 39//12
f 73//24 26//24 71//24
f 68//10 78//10 70//10
f 13//10 31//10 78//10
f 31//11 8//11 44//11
f 41//10 79//10 69//10
f 43//25 79//25 41//25
f 43//11 13//11 68//11
f 80//10 33//10 3//10
f 11//11 69//11 80//11
f 69//10 25//10 67//10
f 64//8 81//8 66//8
f 34//26 81//26 64//26
f 34//7 6//7 47//7
f 44//8 82//8 65//8
f 46//27 82//27 44//27
f 46//16 16//16 64//16
f 32//28 83//28 36//28
f 14//7 65//7 83//7
f 24//29 63//29 83//29
f 60//19 84//19 62//19
f 37//19 84//19 60//19
f 37//30 2//30 27//30
f 47//4 85//4 61//4
f 49//4 85//4 47//4
f 19//4 60//4 85//4
f 35//4 86//4 38//4
f 61//19 86//19 35//19
f 23//4 59//4 86//4
f 87//5 58//5 22//5
f 42//5 87//5 56//5
f 3//5 33//5 87//5
f 50//5 88//5 57//5
f 1//5 30//5 88//5
f 12//5 56//5 88//5
f 38//5 89//5 48//5
f 20//5 57//5 89//5
f 22//5 55//5 89//5
f 90//6 54//6 21//6
f 16//6 46//6 90//6
f 46//6 8//6 31//6
f 91//6 53//6 19//6
f 34//6 91//6 49//6
f 34//6 16//6 52//6
f 37//6 92//6 40//6
f 19//6 53//6 92//6
f 53//6 21//6 51//6
f 93//6 28//6 10//6
f 54//6 93//6 51//6
f 54//6 13//6 43//6
f 94//5 36//5 18//5
f 58//5 94//5 55//5
f 15//5 45//5 94//5
f 59//4 95//4 50//4
f 62//4 95//4 59//4
f 62//30 9//30 39//30
f 96//31 48//31 18//31
f 24//15 66//15 96//15
f 66//32 17//32 35//32
f 97//10 45//10 15//10
f 70//10 97//10 67//10
f 14//11 32//11 97//11
f 98//1 42//1 12//1
f 74//1 98//1 71//1
f 11//1 29//1 98//1
