# Blender 4.1.1
# www.blender.org
mtllib Cube.007.mtl
o Cube.007
v 3.229877 -1.164674 -1.161841
v 3.241866 -1.164006 -1.222962
v 3.208815 -1.067923 -1.176214
v 3.204856 -1.059451 -1.222746
v 2.159909 -1.442006 -1.201420
v 2.161997 -1.441339 -1.262541
v 2.132801 -1.337450 -1.201204
v 2.134889 -1.336783 -1.262325
v 3.230921 -1.164340 -1.192401
v 3.218410 -1.111729 -1.222854
v 3.206836 -1.063687 -1.199480
v 3.219346 -1.116298 -1.169027
v 3.218878 -1.114013 -1.195940
v 3.231443 -1.164173 -1.207681
v 3.211633 -1.085590 -1.222800
v 3.207825 -1.065805 -1.187847
v 3.224611 -1.140486 -1.165434
v 3.230399 -1.164507 -1.177121
v 3.235089 -1.137867 -1.222908
v 3.205846 -1.061569 -1.211113
v 3.214080 -1.092111 -1.172620
v 3.219112 -1.115156 -1.182484
v 3.218644 -1.112871 -1.209397
v 3.224899 -1.139177 -1.194171
v 3.212857 -1.088850 -1.197710
v 3.212245 -1.087220 -1.210255
v 3.234945 -1.138522 -1.208539
v 3.224755 -1.139831 -1.179802
v 3.213469 -1.090480 -1.185165
vn 0.9775 0.2098 -0.0203
vn -0.2529 0.9478 0.1941
vn -0.9674 -0.2507 -0.0358
vn 0.2510 -0.9680 -0.0020
vn -0.0567 0.1346 0.9893
vn 0.0329 0.0168 -0.9993
vn 0.9763 0.2154 0.0196
vn 0.7130 0.4705 0.5199
vn 0.9727 0.2315 -0.0174
vn 0.9725 0.2329 0.0028
vn 0.9702 0.2422 0.0037
vn 0.9703 0.2415 -0.0160
vn 0.9713 0.2350 0.0357
vn 0.8230 -0.0936 0.5603
vn 0.8430 0.5368 0.0329
vn 0.9754 0.2177 0.0357
vn 0.9734 0.2265 0.0357
vn 0.9742 0.2250 0.0200
vn 0.9771 0.2129 0.0011
vn 0.9748 0.2231 0.0020
vn 0.9751 0.2210 -0.0189
vn 0.9749 0.2183 -0.0432
vn -0.2430 0.9700 0.0023
vn -0.0000 0.9858 0.1678
vn 0.2488 -0.9685 -0.0021
vn -0.7288 -0.6832 -0.0455
vn 0.2487 -0.9554 0.1592
vn -0.0707 0.1315 0.9888
vn -0.2128 0.0912 0.9728
vn -0.0309 -0.0101 0.9995
vn 0.0338 0.0108 -0.9994
vn 0.0341 0.0109 -0.9994
vn -0.0000 0.0021 -1.0000
vn 0.9748 0.2231 0.0019
vn 0.9698 0.2406 -0.0387
vn 0.9679 0.2510 -0.0146
vn 0.9673 0.2509 -0.0367
vn 0.8180 -0.0927 0.5677
vn 0.9678 0.2509 0.0211
vn 0.8426 0.5376 0.0310
vn 0.9720 0.2341 0.0204
vn 0.9725 0.2329 0.0029
vn 0.9751 0.2209 -0.0188
vn 0.9724 0.2298 -0.0408
s 0
usemtl CHIM
f 29//1 3//1 21//1
f 8//2 16//2 20//2
f 8//3 5//3 7//3
f 14//4 18//4 5//4
f 17//5 21//5 7//5
f 8//6 10//6 2//6
f 28//7 12//7 17//7
f 23//8 24//8 27//8
f 26//9 11//9 25//9
f 23//10 25//10 13//10
f 10//11 26//11 23//11
f 15//12 20//12 26//12
f 14//13 24//13 9//13
f 2//14 27//14 14//14
f 19//15 23//15 27//15
f 18//16 17//16 1//16
f 9//17 28//17 18//17
f 24//18 22//18 28//18
f 22//19 21//19 12//19
f 13//20 29//20 22//20
f 25//21 16//21 29//21
f 29//22 16//22 3//22
f 20//2 4//2 8//2
f 8//23 7//23 3//23
f 16//24 11//24 20//24
f 8//2 3//2 16//2
f 8//3 6//3 5//3
f 5//25 6//25 2//25
f 14//26 9//26 18//26
f 5//27 2//27 14//27
f 18//4 1//4 5//4
f 5//28 1//28 17//28
f 17//29 12//29 21//29
f 21//5 3//5 7//5
f 7//30 5//30 17//30
f 2//31 6//31 8//31
f 8//32 4//32 15//32
f 10//33 19//33 2//33
f 8//32 15//32 10//32
f 28//34 22//34 12//34
f 23//10 13//10 24//10
f 26//35 20//35 11//35
f 23//12 26//12 25//12
f 10//36 15//36 26//36
f 15//37 4//37 20//37
f 14//38 27//38 24//38
f 2//39 19//39 27//39
f 19//40 10//40 23//40
f 18//18 28//18 17//18
f 9//41 24//41 28//41
f 24//42 13//42 22//42
f 22//43 29//43 21//43
f 13//9 25//9 29//9
f 25//44 11//44 16//44
