# Blender 4.1.1
# www.blender.org
mtllib Plane.038.mtl
o Plane.038
v -17.269022 10.097462 -9.548687
v -17.388641 9.592129 -9.702066
v -17.234283 10.129760 -9.682186
v -17.353903 9.624424 -9.835562
v -17.235209 10.183067 -9.594357
v -17.367064 9.828574 -9.639250
v -17.371271 9.608278 -9.768816
v -17.332325 9.860872 -9.772745
v -17.354664 9.912025 -9.691008
v -17.056097 10.010865 -9.893684
v -17.116541 9.491291 -10.033627
v -16.926264 9.982536 -9.844576
v -16.986708 9.462959 -9.984518
v -16.982872 10.068117 -9.849895
v -17.076300 9.731426 -10.001480
v -17.051622 9.477123 -10.009069
v -16.946466 9.703094 -9.952374
v -16.996063 9.784655 -9.978546
v -16.711740 9.960007 -9.470076
v -16.739273 9.425638 -9.553078
v -16.786798 9.945351 -9.350821
v -16.814331 9.410982 -9.433819
v -16.745487 10.026125 -9.399038
v -16.698071 9.661445 -9.498163
v -16.776802 9.418310 -9.493448
v -16.773129 9.646788 -9.378906
v -16.714720 9.716640 -9.417709
v -17.642410 10.108625 -9.108829
v -17.744429 9.600298 -9.265017
v -17.770224 10.115620 -9.048120
v -17.872240 9.607296 -9.204308
v -17.692297 10.181990 -9.057007
v -17.685387 9.817017 -9.165691
v -17.808332 9.603798 -9.234663
v -17.813200 9.824015 -9.104982
v -17.728832 9.875376 -9.098585
v -16.829332 9.985331 -9.453970
v -16.901566 9.461329 -9.569725
v -16.899923 10.021027 -9.571499
v -16.972160 9.497024 -9.687258
v -16.854698 10.075203 -9.496824
v -16.898302 9.696845 -9.500160
v -16.936865 9.479177 -9.628492
v -16.968895 9.732538 -9.617689
v -16.942533 9.778607 -9.534147
v -17.270849 9.999769 -9.015215
v -17.391302 9.482038 -9.118380
v -17.193356 10.005345 -9.133680
v -17.313808 9.487616 -9.236845
v -17.215548 10.073719 -9.060268
v -17.364687 9.724482 -9.089558
v -17.352554 9.484827 -9.177612
v -17.287195 9.730057 -9.208025
v -17.327974 9.796346 -9.146868
v -17.407917 10.242141 -9.962437
v -17.528370 9.724409 -10.065601
v -17.518616 10.250353 -9.874413
v -17.639067 9.732624 -9.977571
v -17.446711 10.317408 -9.904245
v -17.454403 9.947187 -9.993372
v -17.583719 9.728518 -10.021587
v -17.565100 9.955402 -9.905342
v -17.483009 10.008417 -9.921057
vn 0.9300 -0.1381 0.3406
vn 0.8311 -0.4714 0.2949
vn 0.9202 -0.3887 -0.0473
vn 0.9910 -0.0814 0.1062
vn -0.4701 -0.0027 0.8826
vn -0.5577 -0.3214 0.7653
vn -0.2249 -0.3940 0.8912
vn -0.2421 -0.0524 0.9688
vn -0.7524 0.3048 -0.5839
vn -0.7321 -0.0317 -0.6804
vn -0.9246 -0.0693 -0.3747
vn -0.8842 0.2791 -0.3745
vn -0.2343 0.4895 -0.8400
vn -0.2444 0.1588 -0.9566
vn -0.5720 0.1768 -0.8009
vn -0.4588 0.5018 -0.7333
vn 0.9221 0.1321 -0.3638
vn 0.8968 -0.2170 -0.3856
vn 0.7158 -0.1255 -0.6870
vn 0.7981 0.1948 -0.5702
vn 0.7590 -0.1230 0.6394
vn 0.6435 -0.4534 0.6168
vn 0.8422 -0.4391 0.3130
vn 0.8950 -0.1132 0.4314
vn -0.4340 0.4387 -0.7869
vn -0.4610 0.1021 -0.8815
vn -0.7448 0.1232 -0.6558
vn -0.6284 0.4532 -0.6323
vn 0.9655 -0.1455 0.2161
vn 0.7584 -0.4388 0.4819
vn 0.9390 -0.2710 -0.2120
vn -0.3651 -0.0632 0.9288
vn -0.7042 -0.2107 0.6780
vn -0.0293 -0.3579 0.9333
vn -0.3651 -0.0631 0.9288
vn -0.8314 0.2597 -0.4913
vn -0.5923 0.0485 -0.8042
vn -0.9825 -0.0276 -0.1843
vn -0.3582 0.4679 -0.8080
vn -0.0461 0.1977 -0.9792
vn -0.7105 0.2341 -0.6636
vn 0.8669 0.1301 -0.4812
vn 0.9607 -0.1987 -0.1936
vn 0.5938 -0.0132 -0.8045
vn 0.8301 -0.1548 0.5357
vn 0.5206 -0.3835 0.7628
vn 0.9234 -0.3545 0.1470
vn 0.8301 -0.1548 0.5358
vn -0.5466 0.4169 -0.7262
vn -0.2743 0.1430 -0.9509
vn -0.8498 0.1857 -0.4934
vn -0.5465 0.4169 -0.7263
s 0
usemtl Material.001
f 7//1 8//1 9//1
f 9//2 3//2 5//2
f 1//3 9//3 5//3
f 6//4 7//4 9//4
f 16//5 17//5 18//5
f 18//6 12//6 14//6
f 10//7 18//7 14//7
f 15//8 16//8 18//8
f 25//9 26//9 27//9
f 27//10 21//10 23//10
f 19//11 27//11 23//11
f 24//12 25//12 27//12
f 34//13 35//13 36//13
f 36//14 30//14 32//14
f 28//15 36//15 32//15
f 33//16 34//16 36//16
f 43//17 44//17 45//17
f 45//18 39//18 41//18
f 37//19 45//19 41//19
f 42//20 43//20 45//20
f 52//21 53//21 54//21
f 54//22 48//22 50//22
f 46//23 54//23 50//23
f 51//24 52//24 54//24
f 61//25 62//25 63//25
f 63//26 57//26 59//26
f 55//27 63//27 59//27
f 60//28 61//28 63//28
f 7//29 4//29 8//29
f 9//30 8//30 3//30
f 1//31 6//31 9//31
f 6//29 2//29 7//29
f 16//32 13//32 17//32
f 18//33 17//33 12//33
f 10//34 15//34 18//34
f 15//35 11//35 16//35
f 25//36 22//36 26//36
f 27//37 26//37 21//37
f 19//38 24//38 27//38
f 24//36 20//36 25//36
f 34//39 31//39 35//39
f 36//40 35//40 30//40
f 28//41 33//41 36//41
f 33//39 29//39 34//39
f 43//42 40//42 44//42
f 45//43 44//43 39//43
f 37//44 42//44 45//44
f 42//42 38//42 43//42
f 52//45 49//45 53//45
f 54//46 53//46 48//46
f 46//47 51//47 54//47
f 51//48 47//48 52//48
f 61//49 58//49 62//49
f 63//50 62//50 57//50
f 55//51 60//51 63//51
f 60//52 56//52 61//52
