# Blender 4.1.1
# www.blender.org
mtllib Plane.038.mtl
o Plane.038
v -6.481345 -7.001876 -2.784226
v -6.525174 -7.058075 -2.599071
v -6.468617 -7.050790 -2.796060
v -6.512446 -7.106988 -2.610904
v -6.468956 -7.018609 -2.815592
v -6.517268 -7.035059 -2.685705
v -6.518810 -7.082532 -2.604988
v -6.504540 -7.083972 -2.697539
v -6.512725 -7.054023 -2.716282
v -6.403329 -7.128284 -2.752497
v -6.425476 -7.179559 -2.562124
v -6.355758 -7.110291 -2.742117
v -6.377905 -7.161566 -2.551743
v -6.376499 -7.112239 -2.773474
v -6.410732 -7.167781 -2.650110
v -6.401690 -7.170562 -2.556933
v -6.363160 -7.149788 -2.639729
v -6.381333 -7.159378 -2.669613
v -6.277156 -6.973073 -2.733862
v -6.287244 -7.003485 -2.538068
v -6.304658 -6.929378 -2.728492
v -6.314746 -6.959789 -2.532698
v -6.289521 -6.947045 -2.758088
v -6.272147 -6.983364 -2.624468
v -6.300995 -6.981637 -2.535383
v -6.299649 -6.939668 -2.619098
v -6.278248 -6.953886 -2.644692
v -6.618156 -6.840711 -2.788316
v -6.655535 -6.897939 -2.602064
v -6.664987 -6.818467 -2.790879
v -6.702366 -6.875695 -2.604628
v -6.636434 -6.821723 -2.815197
v -6.633902 -6.861546 -2.681470
v -6.678950 -6.886817 -2.603346
v -6.680733 -6.839302 -2.684034
v -6.649821 -6.836958 -2.702853
v -6.320242 -6.967172 -2.743141
v -6.346709 -7.009585 -2.551145
v -6.346107 -7.010235 -2.756220
v -6.372575 -7.052649 -2.564224
v -6.329536 -6.982873 -2.776070
v -6.345513 -6.984096 -2.637439
v -6.359642 -7.031117 -2.557685
v -6.371378 -7.027159 -2.650517
v -6.361719 -6.996549 -2.667397
v -6.482015 -6.806411 -2.748431
v -6.526149 -6.844211 -2.558733
v -6.453621 -6.849817 -2.750474
v -6.497755 -6.887617 -2.560777
v -6.461752 -6.822918 -2.775526
v -6.516397 -6.833650 -2.647565
v -6.511952 -6.865914 -2.559755
v -6.488004 -6.877057 -2.649608
v -6.502946 -6.854649 -2.673896
v -6.532237 -7.153475 -2.837237
v -6.576371 -7.191275 -2.647539
v -6.572797 -7.121222 -2.840246
v -6.616931 -7.159021 -2.650549
v -6.546451 -7.132153 -2.864815
v -6.549269 -7.164810 -2.729165
v -6.596651 -7.175148 -2.649044
v -6.589829 -7.132556 -2.732175
v -6.559751 -7.138314 -2.751600
vn 0.9300 0.3406 0.1381
vn 0.8311 0.2949 0.4715
vn 0.9202 -0.0473 0.3887
vn 0.9910 0.1062 0.0814
vn -0.4701 0.8826 0.0027
vn -0.5577 0.7653 0.3214
vn -0.2249 0.8912 0.3940
vn -0.2421 0.9688 0.0524
vn -0.7524 -0.5839 -0.3048
vn -0.7321 -0.6805 0.0317
vn -0.9245 -0.3747 0.0693
vn -0.8842 -0.3745 -0.2791
vn -0.2343 -0.8400 -0.4895
vn -0.2444 -0.9566 -0.1588
vn -0.5721 -0.8009 -0.1768
vn -0.4588 -0.7333 -0.5017
vn 0.9221 -0.3638 -0.1321
vn 0.8968 -0.3856 0.2170
vn 0.7158 -0.6870 0.1255
vn 0.7981 -0.5702 -0.1948
vn 0.7590 0.6394 0.1230
vn 0.6435 0.6168 0.4534
vn 0.8421 0.3130 0.4391
vn 0.8950 0.4314 0.1132
vn -0.4339 -0.7869 -0.4388
vn -0.4610 -0.8815 -0.1021
vn -0.7448 -0.6559 -0.1232
vn -0.6284 -0.6323 -0.4532
vn 0.9655 0.2160 0.1455
vn 0.7584 0.4819 0.4388
vn 0.9390 -0.2120 0.2710
vn -0.3651 0.9288 0.0632
vn -0.7042 0.6780 0.2107
vn -0.0293 0.9333 0.3579
vn -0.8314 -0.4913 -0.2597
vn -0.5924 -0.8042 -0.0485
vn -0.9825 -0.1844 0.0276
vn -0.3582 -0.8080 -0.4679
vn -0.0461 -0.9792 -0.1977
vn -0.7105 -0.6636 -0.2341
vn 0.8669 -0.4812 -0.1301
vn 0.9608 -0.1936 0.1987
vn 0.5938 -0.8045 0.0132
vn 0.8301 0.5357 0.1548
vn 0.5206 0.7628 0.3835
vn 0.9234 0.1470 0.3545
vn -0.5466 -0.7262 -0.4169
vn -0.2744 -0.9509 -0.1430
vn -0.8498 -0.4934 -0.1857
s 0
usemtl Material.001
f 7//1 8//1 9//1
f 9//2 3//2 5//2
f 1//3 9//3 5//3
f 6//4 7//4 9//4
f 16//5 17//5 18//5
f 18//6 12//6 14//6
f 10//7 18//7 14//7
f 15//8 16//8 18//8
f 25//9 26//9 27//9
f 27//10 21//10 23//10
f 19//11 27//11 23//11
f 24//12 25//12 27//12
f 34//13 35//13 36//13
f 36//14 30//14 32//14
f 28//15 36//15 32//15
f 33//16 34//16 36//16
f 43//17 44//17 45//17
f 45//18 39//18 41//18
f 37//19 45//19 41//19
f 42//20 43//20 45//20
f 52//21 53//21 54//21
f 54//22 48//22 50//22
f 46//23 54//23 50//23
f 51//24 52//24 54//24
f 61//25 62//25 63//25
f 63//26 57//26 59//26
f 55//27 63//27 59//27
f 60//28 61//28 63//28
f 7//29 4//29 8//29
f 9//30 8//30 3//30
f 1//31 6//31 9//31
f 6//29 2//29 7//29
f 16//32 13//32 17//32
f 18//33 17//33 12//33
f 10//34 15//34 18//34
f 15//32 11//32 16//32
f 25//35 22//35 26//35
f 27//36 26//36 21//36
f 19//37 24//37 27//37
f 24//35 20//35 25//35
f 34//38 31//38 35//38
f 36//39 35//39 30//39
f 28//40 33//40 36//40
f 33//38 29//38 34//38
f 43//41 40//41 44//41
f 45//42 44//42 39//42
f 37//43 42//43 45//43
f 42//41 38//41 43//41
f 52//44 49//44 53//44
f 54//45 53//45 48//45
f 46//46 51//46 54//46
f 51//44 47//44 52//44
f 61//47 58//47 62//47
f 63//48 62//48 57//48
f 55//49 60//49 63//49
f 60//47 56//47 61//47
