# Blender 4.1.1
# www.blender.org
mtllib Cube.047_Cube.051.mtl
o Cube.047_Cube.051
v 0.015106 5.932226 16.023264
v -0.104487 5.933359 16.154470
v -1.090231 6.004373 15.248861
v 0.018476 5.707910 16.015160
v -1.104789 5.779860 15.235347
v -0.476780 5.967184 15.567123
v -0.632071 5.992621 15.662304
v -0.024266 5.933774 16.099495
v -1.117704 5.837993 15.226078
v -0.615057 5.737936 15.698371
v -0.085745 5.818278 16.164801
v -0.490434 5.732697 15.563735
v 0.024585 5.821304 16.015572
v -1.089167 5.899515 15.133759
v -0.469252 5.853924 15.550276
v -0.553976 5.728826 15.631878
v -0.633913 5.864232 15.728430
v -0.545772 5.983612 15.642705
v -1.003318 6.007162 15.103548
v -0.361928 5.945919 15.927089
v -0.381772 5.722285 15.931205
v -0.130734 5.877478 16.188911
v -1.003327 5.779663 15.100197
v -0.250163 5.733253 15.790295
v -0.092347 5.707206 16.160429
v 0.015447 5.765276 16.015297
v -0.239289 5.964788 15.796451
v -1.048064 6.006144 15.162312
v -0.843246 6.016223 15.478467
v -1.136423 5.942651 15.206097
v -0.858726 5.756566 15.476950
v -0.113982 5.765200 16.158403
v -0.738260 5.754355 15.347025
v -1.000731 5.946996 15.101466
v -0.028355 5.766021 16.070091
v -0.246978 5.828856 15.794241
v -0.486127 5.806372 15.564782
v -0.482091 5.908470 15.568314
v -0.312084 5.731310 15.892832
v -0.582614 5.747227 15.664144
v -0.530486 5.738802 15.607346
v -0.381919 5.837767 15.940279
v -0.855462 5.885386 15.482646
v -0.607262 5.914398 15.703590
v -0.605354 5.804524 15.693060
v -0.787062 6.007331 15.417856
v -0.506531 5.967367 15.599181
v -0.813803 6.003308 15.442310
v -0.758888 5.991455 15.387384
v -0.269259 5.979319 15.829855
v -0.879695 5.826607 15.503759
v -0.854676 5.969752 15.483833
v -0.369720 5.903823 15.932234
v -0.843502 5.767423 15.361522
v -0.835328 5.771036 15.452864
v -0.764423 5.897550 15.322794
v -0.740492 5.815438 15.353884
v -0.258539 5.775136 15.802551
v -0.049026 5.876460 16.089361
v -1.084325 5.779754 15.208166
v -1.018542 5.904733 15.135077
v -1.112270 6.004367 15.173147
v -0.247876 5.881451 15.799268
v -0.287027 5.725909 15.829434
v -0.394108 5.792778 15.949936
v -0.287736 5.960556 15.900984
vn -0.1238 0.9732 0.1939
vn 0.0346 -0.9877 -0.1527
vn -0.0011 0.2591 -0.9659
vn -0.7593 -0.2505 -0.6006
vn 0.8712 0.0785 0.4846
vn -0.0787 0.9688 0.2351
vn 0.1242 -0.9550 -0.2694
vn -0.1196 -0.9925 0.0266
vn -0.0807 -0.9957 0.0466
vn 0.0545 -0.9895 -0.1339
vn 0.6000 0.3749 -0.7067
vn 0.6886 0.0546 -0.7230
vn 0.7808 0.0397 0.6236
vn 0.7737 -0.1292 0.6202
vn -0.8923 0.0173 -0.4511
vn -0.7979 0.0699 -0.5987
vn -0.1664 0.3144 -0.9346
vn -0.0888 -0.9948 0.0497
vn 0.1011 0.9948 -0.0122
vn 0.6271 -0.0985 -0.7727
vn 0.6560 -0.0929 -0.7491
vn -0.8501 0.4648 0.2474
vn 0.0547 -0.5254 -0.8491
vn 0.7354 0.3143 0.6004
vn 0.5709 -0.4181 -0.7066
vn 0.6559 -0.0732 -0.7513
vn -0.3010 -0.9185 0.2566
vn -0.0537 -0.9975 -0.0458
vn -0.1155 -0.9928 0.0329
vn -0.4978 -0.6237 0.6026
vn -0.5753 0.5874 0.5692
vn -0.6579 0.1546 0.7370
vn 0.2922 0.9318 -0.2153
vn -0.0600 0.9934 0.0978
vn 0.2374 0.9598 -0.1495
vn -0.0227 0.9993 0.0291
vn 0.1558 0.9636 -0.2173
vn 0.0562 0.9973 0.0465
vn 0.1315 0.9902 0.0478
vn 0.0234 0.9991 0.0351
vn 0.2478 0.9340 -0.2575
vn 0.1893 0.9511 -0.2439
vn -0.1340 0.9662 0.2201
vn -0.4844 -0.6056 0.6313
vn -0.6520 -0.4334 0.6222
vn -0.6564 0.4797 0.5823
vn -0.6253 0.1998 0.7544
vn -0.7033 0.0343 0.7101
vn -0.6990 -0.0036 0.7151
vn -0.5477 0.6101 0.5725
vn -0.6729 0.2112 0.7089
vn -0.4869 0.5814 0.6518
vn 0.0724 -0.9778 -0.1968
vn -0.0350 -0.9991 -0.0254
vn -0.0223 -0.9997 -0.0129
vn 0.0546 -0.9895 -0.1335
vn 0.6375 -0.0263 -0.7700
vn -0.2841 -0.9194 0.2721
vn 0.6948 -0.0053 -0.7191
vn 0.5857 0.3334 -0.7388
vn 0.6720 -0.0828 -0.7359
vn 0.7041 0.3255 -0.6311
vn 0.6477 -0.4232 -0.6336
vn 0.7119 0.0107 0.7022
vn 0.5279 -0.3637 0.7675
vn 0.7728 0.0278 0.6340
vn -0.8273 -0.0920 -0.5541
vn 0.8023 -0.4213 0.4229
vn -0.8714 -0.2838 -0.4001
vn -0.7711 -0.2637 -0.5795
vn 0.6879 0.2801 0.6696
vn -0.6144 -0.2026 0.7625
vn -0.8295 0.0268 -0.5579
vn 0.6326 0.1073 -0.7670
vn 0.6525 -0.4230 0.6288
vn 0.6736 0.3701 -0.6398
vn 0.6910 -0.0954 -0.7166
vn 0.1627 -0.9585 -0.2340
vn 0.0941 -0.9908 -0.0973
vn -0.5466 0.3146 0.7761
vn -0.7226 0.3266 0.6092
vn -0.6924 0.1571 0.7043
vn 0.0455 0.9962 0.0740
vn -0.0954 0.9591 0.2665
vn 0.5889 -0.2459 -0.7699
vn 0.5935 -0.1279 -0.7946
vn 0.6560 -0.0745 -0.7511
vn -0.1824 -0.9817 0.0552
vn -0.1184 -0.9923 0.0352
vn -0.7042 0.2125 0.6775
vn -0.6646 -0.0043 0.7472
vn -0.5344 -0.4370 0.7235
vn 0.2238 0.9619 -0.1572
vn 0.1027 0.9947 -0.0052
vn -0.0795 0.9939 0.0766
vn 0.0049 1.0000 -0.0015
vn 0.1117 0.9929 -0.0413
vn 0.2715 0.9476 -0.1685
vn 0.0082 1.0000 0.0019
vn 0.1604 0.9634 -0.2149
vn -0.6310 0.4793 0.6100
vn -0.7590 -0.0653 0.6478
vn -0.6222 0.2392 0.7454
vn -0.6664 0.2452 0.7042
vn -0.7025 0.0102 0.7116
vn -0.6416 0.2090 0.7380
vn -0.6757 0.1649 0.7185
vn -0.6730 0.2106 0.7090
vn 0.2285 -0.9164 -0.3286
vn 0.2324 -0.9167 -0.3250
vn 0.1027 -0.9803 -0.1688
vn 0.6598 0.1076 -0.7437
vn 0.6830 0.1061 -0.7226
vn 0.6434 0.0358 -0.7647
vn 0.6858 -0.0298 -0.7272
vn 0.6821 -0.2529 -0.6861
vn 0.7125 0.0122 0.7016
vn -0.7954 -0.0132 -0.6059
vn 0.7931 0.0669 0.6054
vn -0.5881 -0.3022 0.7502
vn 0.6309 0.0845 -0.7712
vn 0.7409 0.0765 -0.6672
vn 0.6955 -0.0774 -0.7144
vn -0.0570 -0.9964 0.0623
vn -0.0977 -0.9940 0.0494
vn -0.5810 0.2145 0.7851
vn -0.5489 -0.6045 0.5773
vn -0.7457 -0.2899 0.6000
s 0
usemtl Fence2
f 20//1 2//1 66//1
f 24//2 4//2 64//2
f 14//3 28//3 61//3
f 60//4 9//4 30//4
f 59//5 11//5 35//5
f 66//6 8//6 50//6
f 54//7 41//7 16//7
f 23//8 33//8 54//8
f 60//9 54//9 55//9
f 39//10 25//10 21//10
f 56//11 38//11 15//11
f 34//12 19//12 56//12
f 35//13 4//13 26//13
f 13//14 35//14 26//14
f 23//15 61//15 34//15
f 60//16 61//16 23//16
f 14//17 62//17 28//17
f 64//18 4//18 39//18
f 7//19 66//19 18//19
f 26//20 36//20 13//20
f 63//21 27//21 1//21
f 30//22 3//22 62//22
f 60//23 14//23 61//23
f 59//24 22//24 11//24
f 57//25 15//25 37//25
f 6//26 56//26 19//26
f 55//27 16//27 40//27
f 39//28 4//28 25//28
f 41//29 33//29 12//29
f 22//30 42//30 11//30
f 44//31 43//31 17//31
f 45//32 31//32 10//32
f 18//33 49//33 46//33
f 7//34 46//34 48//34
f 48//35 29//35 7//35
f 48//36 28//36 62//36
f 48//37 3//37 29//37
f 6//38 49//38 47//38
f 1//39 50//39 8//39
f 19//40 28//40 49//40
f 28//41 46//41 49//41
f 27//42 47//42 50//42
f 50//43 18//43 66//43
f 17//44 51//44 45//44
f 51//45 5//45 31//45
f 9//46 51//46 43//46
f 7//47 52//47 44//47
f 52//48 3//48 30//48
f 52//49 9//49 43//49
f 2//50 53//50 22//50
f 20//51 44//51 53//51
f 42//52 44//52 17//52
f 10//53 55//53 40//53
f 60//54 23//54 54//54
f 55//55 5//55 60//55
f 21//56 40//56 39//56
f 12//57 57//57 37//57
f 40//58 16//58 39//58
f 57//59 23//59 34//59
f 26//60 24//60 58//60
f 34//61 56//61 57//61
f 24//62 37//62 58//62
f 36//63 37//63 15//63
f 13//64 59//64 35//64
f 8//65 2//65 59//65
f 2//66 22//66 59//66
f 28//67 34//67 61//67
f 1//68 8//68 59//68
f 60//69 30//69 14//69
f 60//70 5//70 9//70
f 25//71 35//71 32//71
f 32//72 21//72 25//72
f 14//73 30//73 62//73
f 13//74 63//74 1//74
f 11//75 32//75 35//75
f 63//76 15//76 38//76
f 63//77 6//77 27//77
f 64//78 16//78 41//78
f 64//79 12//79 24//79
f 32//80 42//80 65//80
f 42//81 45//81 65//81
f 21//82 45//82 10//82
f 66//83 2//83 8//83
f 7//84 20//84 66//84
f 26//85 58//85 36//85
f 57//86 56//86 15//86
f 6//87 38//87 56//87
f 55//88 54//88 16//88
f 41//89 54//89 33//89
f 22//90 53//90 42//90
f 44//91 52//91 43//91
f 45//92 51//92 31//92
f 18//93 47//93 49//93
f 7//94 18//94 46//94
f 48//95 46//95 28//95
f 48//96 62//96 3//96
f 6//97 19//97 49//97
f 1//98 27//98 50//98
f 27//99 6//99 47//99
f 50//100 47//100 18//100
f 17//101 43//101 51//101
f 51//102 9//102 5//102
f 7//103 29//103 52//103
f 52//104 29//104 3//104
f 52//105 30//105 9//105
f 2//106 20//106 53//106
f 20//107 7//107 44//107
f 42//108 53//108 44//108
f 10//109 31//109 55//109
f 55//110 31//110 5//110
f 21//111 10//111 40//111
f 12//112 33//112 57//112
f 57//113 33//113 23//113
f 26//114 4//114 24//114
f 24//115 12//115 37//115
f 36//116 58//116 37//116
f 13//117 1//117 59//117
f 28//118 19//118 34//118
f 25//119 4//119 35//119
f 32//120 65//120 21//120
f 13//121 36//121 63//121
f 63//122 36//122 15//122
f 63//123 38//123 6//123
f 64//124 39//124 16//124
f 64//125 41//125 12//125
f 32//126 11//126 42//126
f 42//127 17//127 45//127
f 21//128 65//128 45//128
