# Blender 4.1.1
# www.blender.org
mtllib Cube.041_Cube.045.mtl
o Cube.041_Cube.045
v 0.949499 2.956423 -1.191774
v 0.929387 3.018284 -1.191675
v 0.465742 2.865786 -1.246520
v 0.945005 2.951095 -1.109817
v 0.454452 2.861362 -1.164832
v 0.717493 2.878906 -1.219038
v 0.680530 2.934372 -1.228927
v 0.947873 2.987822 -1.191621
v 0.449890 2.860769 -1.186430
v 0.686639 2.941435 -1.134936
v 0.934936 3.017815 -1.149149
v 0.707832 2.877630 -1.133520
v 0.949328 2.951378 -1.151199
v 0.446717 2.826234 -1.210070
v 0.715246 2.871080 -1.177787
v 0.696822 2.909933 -1.131857
v 0.687351 2.955504 -1.180892
v 0.706183 2.914705 -1.224752
v 0.472910 2.804193 -1.248746
v 0.809557 2.981447 -1.203657
v 0.799174 2.983713 -1.122070
v 0.924722 3.033216 -1.171029
v 0.467943 2.800933 -1.165593
v 0.822070 2.916912 -1.126589
v 0.929899 3.016307 -1.108689
v 0.945140 2.952140 -1.130839
v 0.831162 2.919503 -1.211020
v 0.466813 2.830553 -1.248020
v 0.582900 2.905175 -1.243575
v 0.442692 2.857918 -1.225304
v 0.572418 2.904562 -1.148846
v 0.923516 3.019447 -1.130237
v 0.592993 2.842986 -1.148518
v 0.472279 2.802541 -1.226738
v 0.938794 2.977048 -1.130811
v 0.825601 2.918647 -1.161446
v 0.710870 2.878022 -1.160390
v 0.714749 2.879552 -1.197617
v 0.816815 2.960463 -1.125036
v 0.692489 2.925200 -1.138451
v 0.701159 2.898292 -1.135587
v 0.802754 2.987851 -1.164160
v 0.576890 2.907183 -1.195823
v 0.693485 2.943661 -1.199282
v 0.690381 2.938824 -1.159244
v 0.592339 2.876377 -1.240547
v 0.712400 2.894100 -1.218987
v 0.587023 2.888540 -1.239043
v 0.596837 2.861803 -1.234855
v 0.826480 2.935314 -1.216197
v 0.570834 2.917337 -1.174311
v 0.578985 2.908255 -1.226649
v 0.806908 2.983945 -1.188283
v 0.560335 2.863853 -1.154527
v 0.576880 2.893126 -1.154213
v 0.583428 2.840205 -1.201661
v 0.594478 2.846187 -1.170776
v 0.821942 2.922661 -1.141821
v 0.936967 2.987643 -1.171173
v 0.457184 2.849200 -1.164960
v 0.470571 2.816049 -1.210970
v 0.446997 2.843855 -1.248088
v 0.827089 2.920956 -1.180612
v 0.815523 2.935473 -1.123766
v 0.799261 2.992491 -1.147714
v 0.830657 2.961662 -1.208408
vn 0.0191 0.2526 -0.9674
vn -0.0840 -0.1787 0.9803
vn -0.3839 -0.8724 -0.3026
vn -0.9512 -0.2402 0.1937
vn 0.9962 0.0839 -0.0231
vn 0.0768 0.2714 -0.9594
vn -0.0487 -0.3212 0.9458
vn -0.1510 0.0480 0.9874
vn -0.1076 0.0501 0.9929
vn -0.0584 -0.1698 0.9838
vn 0.2759 -0.8814 -0.3835
vn 0.3327 -0.9411 -0.0611
vn 0.9689 0.2468 0.0185
vn 0.9520 0.2424 0.1868
vn -0.9965 -0.0422 -0.0718
vn -0.9684 -0.2142 -0.1274
vn -0.5185 -0.7743 -0.3627
vn -0.1136 0.0563 0.9919
vn 0.1402 -0.0272 -0.9897
vn 0.2480 -0.9648 0.0871
vn 0.2844 -0.9551 0.0837
vn -0.6473 0.5879 -0.4852
vn -0.3271 -0.8093 0.4879
vn 0.9327 0.2514 -0.2584
vn 0.2070 -0.8896 0.4071
vn 0.2844 -0.9566 0.0640
vn -0.2177 0.3343 0.9170
vn -0.1210 -0.0452 0.9916
vn -0.1448 0.0521 0.9881
vn -0.2390 0.7380 0.6310
vn -0.2584 0.7707 -0.5825
vn -0.2878 0.9465 -0.1460
vn 0.2274 -0.2926 -0.9288
vn 0.0388 0.1393 -0.9895
vn 0.2060 -0.2094 -0.9559
vn 0.0448 0.0616 -0.9971
vn 0.1041 -0.2373 -0.9658
vn 0.1236 0.0448 -0.9913
vn 0.1923 0.0147 -0.9812
vn 0.0892 0.0480 -0.9949
vn 0.1698 -0.3126 -0.9346
vn 0.1229 -0.2758 -0.9533
vn 0.0202 0.2805 -0.9596
vn -0.2139 0.7591 0.6148
vn -0.3610 0.8244 0.4360
vn -0.3325 0.8133 -0.4775
vn -0.2486 0.9500 -0.1890
vn -0.3466 0.9376 -0.0288
vn -0.3426 0.9394 0.0094
vn -0.2306 0.7630 -0.6039
vn -0.3100 0.9285 -0.2043
vn -0.1443 0.8093 -0.5693
vn -0.0673 -0.2342 0.9699
vn -0.0957 -0.0344 0.9948
vn -0.0791 -0.0283 0.9965
vn -0.0581 -0.1696 0.9838
vn 0.2625 -0.9648 0.0156
vn -0.1960 0.3414 0.9193
vn 0.3367 -0.9416 -0.0009
vn 0.2474 -0.9058 -0.3440
vn 0.3048 -0.9495 0.0748
vn 0.3990 -0.8568 -0.3267
vn 0.3066 -0.8550 0.4183
vn 0.9370 0.3460 0.0484
vn 0.7762 0.4718 0.4181
vn 0.9653 0.2593 0.0306
vn -0.9856 -0.1656 0.0351
vn 0.8814 0.0433 0.4705
vn -0.9727 -0.0121 0.2318
vn -0.9540 -0.2165 0.2075
vn 0.9162 0.3331 -0.2228
vn -0.2569 0.9426 0.2134
vn -0.9827 -0.1651 -0.0838
vn 0.2664 -0.9566 -0.1178
vn 0.8296 0.2925 0.4757
vn 0.3700 -0.8509 -0.3728
vn 0.3294 -0.9400 0.0890
vn 0.0007 -0.3049 0.9524
vn -0.0074 -0.1529 0.9882
vn -0.1618 0.9402 -0.2997
vn -0.3900 0.8612 -0.3258
vn -0.3325 0.9309 -0.1512
vn 0.1251 0.0742 -0.9894
vn 0.0739 0.3067 -0.9489
vn 0.2066 -0.9503 0.2329
vn 0.2069 -0.9717 0.1142
vn 0.2846 -0.9564 0.0653
vn -0.1959 0.1002 0.9755
vn -0.1464 0.0553 0.9877
vn -0.3512 0.9128 -0.2083
vn -0.2982 0.9544 0.0129
vn -0.2126 0.8680 0.4487
vn 0.1905 -0.2108 -0.9588
vn 0.1445 -0.0215 -0.9893
vn 0.0123 0.1280 -0.9917
vn 0.0573 0.0224 -0.9981
vn 0.1379 -0.0582 -0.9887
vn 0.2286 -0.2411 -0.9432
vn 0.0618 0.0240 -0.9978
vn 0.1093 -0.2371 -0.9653
vn -0.2981 0.8281 -0.4748
vn -0.4281 0.9013 0.0657
vn -0.2473 0.9416 -0.2285
vn -0.3041 0.9224 -0.2382
vn -0.3465 0.9380 -0.0046
vn -0.2696 0.9421 -0.1995
vn -0.3111 0.9372 -0.1577
vn -0.3101 0.9286 -0.2038
vn 0.0240 -0.4170 0.9086
vn 0.0289 -0.4154 0.9092
vn -0.0283 -0.2213 0.9748
vn 0.3007 -0.9466 -0.1161
vn 0.3305 -0.9370 -0.1127
vn 0.2734 -0.9608 -0.0460
vn 0.3239 -0.9458 0.0228
vn 0.3254 -0.9126 0.2473
vn 0.9373 0.3453 0.0469
vn -0.9736 -0.2240 -0.0447
vn 0.9741 0.2258 -0.0090
vn -0.2432 0.9179 0.3134
vn 0.2620 -0.9604 -0.0954
vn 0.4044 -0.9112 -0.0784
vn 0.3354 -0.9394 0.0713
vn -0.0796 0.0547 0.9953
vn -0.1218 0.0598 0.9907
vn -0.1949 0.9601 -0.2005
vn -0.2947 0.7366 0.6088
vn -0.4477 0.8464 0.2882
s 0
usemtl Fence2
f 20//1 2//1 66//1
f 24//2 4//2 64//2
f 14//3 28//3 61//3
f 60//4 9//4 30//4
f 59//5 11//5 35//5
f 66//6 8//6 50//6
f 54//7 41//7 16//7
f 23//8 33//8 54//8
f 60//9 54//9 55//9
f 39//10 25//10 21//10
f 56//11 38//11 15//11
f 34//12 19//12 56//12
f 35//13 4//13 26//13
f 13//14 35//14 26//14
f 23//15 61//15 34//15
f 60//16 61//16 23//16
f 14//17 62//17 28//17
f 64//18 4//18 39//18
f 7//19 66//19 18//19
f 26//20 36//20 13//20
f 63//21 27//21 1//21
f 30//22 3//22 62//22
f 60//23 14//23 61//23
f 59//24 22//24 11//24
f 57//25 15//25 37//25
f 6//26 56//26 19//26
f 55//27 16//27 40//27
f 39//28 4//28 25//28
f 41//29 33//29 12//29
f 22//30 42//30 11//30
f 44//31 43//31 17//31
f 45//32 31//32 10//32
f 18//33 49//33 46//33
f 7//34 46//34 48//34
f 48//35 29//35 7//35
f 48//36 28//36 62//36
f 48//37 3//37 29//37
f 6//38 49//38 47//38
f 1//39 50//39 8//39
f 19//40 28//40 49//40
f 28//41 46//41 49//41
f 27//42 47//42 50//42
f 50//43 18//43 66//43
f 17//44 51//44 45//44
f 51//45 5//45 31//45
f 9//46 51//46 43//46
f 7//47 52//47 44//47
f 52//48 3//48 30//48
f 52//49 9//49 43//49
f 2//50 53//50 22//50
f 20//51 44//51 53//51
f 42//52 44//52 17//52
f 10//53 55//53 40//53
f 60//54 23//54 54//54
f 55//55 5//55 60//55
f 21//56 40//56 39//56
f 12//57 57//57 37//57
f 40//58 16//58 39//58
f 57//59 23//59 34//59
f 26//60 24//60 58//60
f 34//61 56//61 57//61
f 24//62 37//62 58//62
f 36//63 37//63 15//63
f 13//64 59//64 35//64
f 8//65 2//65 59//65
f 2//66 22//66 59//66
f 28//67 34//67 61//67
f 1//68 8//68 59//68
f 60//69 30//69 14//69
f 60//70 5//70 9//70
f 25//71 35//71 32//71
f 32//72 21//72 25//72
f 14//73 30//73 62//73
f 13//74 63//74 1//74
f 11//75 32//75 35//75
f 63//76 15//76 38//76
f 63//77 6//77 27//77
f 64//78 16//78 41//78
f 64//79 12//79 24//79
f 32//80 42//80 65//80
f 42//81 45//81 65//81
f 21//82 45//82 10//82
f 66//83 2//83 8//83
f 7//84 20//84 66//84
f 26//85 58//85 36//85
f 57//86 56//86 15//86
f 6//87 38//87 56//87
f 55//88 54//88 16//88
f 41//89 54//89 33//89
f 22//90 53//90 42//90
f 44//91 52//91 43//91
f 45//92 51//92 31//92
f 18//93 47//93 49//93
f 7//94 18//94 46//94
f 48//95 46//95 28//95
f 48//96 62//96 3//96
f 6//97 19//97 49//97
f 1//98 27//98 50//98
f 27//99 6//99 47//99
f 50//100 47//100 18//100
f 17//101 43//101 51//101
f 51//102 9//102 5//102
f 7//103 29//103 52//103
f 52//104 29//104 3//104
f 52//105 30//105 9//105
f 2//106 20//106 53//106
f 20//107 7//107 44//107
f 42//108 53//108 44//108
f 10//109 31//109 55//109
f 55//110 31//110 5//110
f 21//111 10//111 40//111
f 12//112 33//112 57//112
f 57//113 33//113 23//113
f 26//114 4//114 24//114
f 24//115 12//115 37//115
f 36//116 58//116 37//116
f 13//117 1//117 59//117
f 28//118 19//118 34//118
f 25//119 4//119 35//119
f 32//120 65//120 21//120
f 13//121 36//121 63//121
f 63//122 36//122 15//122
f 63//123 38//123 6//123
f 64//124 39//124 16//124
f 64//125 41//125 12//125
f 32//126 11//126 42//126
f 42//127 17//127 45//127
f 21//128 65//128 45//128
