# Blender 4.1.1
# www.blender.org
mtllib Plane.030.mtl
o Plane.030
v -10.848813 6.324676 -6.953434
v -10.604877 5.847089 -7.028278
v -10.743757 6.389263 -7.023163
v -10.499819 5.911675 -7.098009
v -10.829812 6.422612 -6.978010
v -10.731381 6.057551 -7.023935
v -10.552346 5.879381 -7.063145
v -10.626328 6.122138 -7.093668
v -10.718860 6.145553 -7.067474
v -10.443163 6.391187 -7.007114
v -10.170952 5.923545 -7.027309
v -10.396739 6.412502 -6.874973
v -10.124527 5.944860 -6.895170
v -10.457366 6.466121 -6.938267
v -10.265975 6.149990 -7.030457
v -10.147739 5.934203 -6.961237
v -10.219551 6.171309 -6.898314
v -10.259363 6.227574 -6.969347
v -10.545881 6.422940 -6.469481
v -10.291756 5.946848 -6.425287
v -10.669545 6.359477 -6.442083
v -10.415421 5.883383 -6.397890
v -10.642640 6.456646 -6.461857
v -10.401360 6.166220 -6.411832
v -10.353587 5.915115 -6.411589
v -10.525021 6.102756 -6.384435
v -10.491384 6.195834 -6.383278
v -11.383574 6.108424 -6.936474
v -11.126691 5.635990 -6.999807
v -11.501582 6.051481 -6.990349
v -11.244697 5.579047 -7.053682
v -11.477886 6.144890 -6.954704
v -11.251781 5.838737 -6.940105
v -11.185691 5.607518 -7.026745
v -11.369786 5.781791 -6.993980
v -11.347970 5.862062 -6.940336
v -10.632485 6.393737 -6.549324
v -10.382894 5.913361 -6.561167
v -10.598630 6.414678 -6.685286
v -10.349037 5.934304 -6.697128
v -10.649862 6.470234 -6.615677
v -10.524117 6.114246 -6.565390
v -10.365964 5.923832 -6.629145
v -10.490264 6.135190 -6.701353
v -10.555286 6.174186 -6.637730
v -11.205288 6.152033 -6.582945
v -10.994022 5.655057 -6.622683
v -11.077330 6.208277 -6.606052
v -10.866064 5.711301 -6.645792
v -11.170348 6.248462 -6.589037
v -11.095012 5.878382 -6.638346
v -10.930043 5.683179 -6.634237
v -10.967052 5.934627 -6.661455
v -11.060472 5.967096 -6.665430
v -10.676568 6.461352 -7.357243
v -10.465302 5.964376 -7.396984
v -10.805762 6.408342 -7.381117
v -10.594494 5.911366 -7.420855
v -10.770203 6.503156 -7.363718
v -10.564535 6.183093 -7.345650
v -10.529899 5.937873 -7.408922
v -10.693727 6.130080 -7.369522
v -10.657498 6.214378 -7.332397
vn 0.3156 0.2125 0.9248
vn 0.4245 -0.1198 0.8975
vn 0.6938 0.0458 0.7187
vn 0.5000 0.3258 0.8024
vn -0.9093 -0.3393 0.2408
vn -0.7470 -0.6424 0.1714
vn -0.6280 -0.5877 0.5101
vn -0.8278 -0.3019 0.4729
vn -0.1031 0.0496 -0.9934
vn 0.1104 -0.2275 -0.9675
vn -0.2066 -0.3902 -0.8973
vn -0.3202 -0.0618 -0.9453
vn 0.2997 0.4724 -0.8288
vn 0.5090 0.1912 -0.8393
vn 0.2064 0.0452 -0.9774
vn 0.0925 0.3725 -0.9234
vn 0.7255 0.5623 0.3969
vn 0.8636 0.2430 0.4417
vn 0.9504 0.2967 0.0931
vn 0.7850 0.5990 0.1581
vn -0.0052 0.1069 0.9943
vn 0.0765 -0.2333 0.9694
vn 0.4046 -0.0891 0.9101
vn 0.2196 0.2057 0.9537
vn 0.1702 0.3350 -0.9267
vn 0.3562 0.0377 -0.9337
vn 0.0250 -0.0982 -0.9949
vn -0.0567 0.2419 -0.9686
vn 0.4298 0.2404 0.8703
vn 0.2338 -0.1508 0.9605
vn 0.7798 0.1850 0.5981
vn 0.4299 0.2404 0.8703
vn -0.8619 -0.3567 0.3604
vn -0.8065 -0.5910 -0.0161
vn -0.5653 -0.4802 0.6708
vn -0.8619 -0.3567 0.3603
vn -0.1973 -0.0385 -0.9796
vn 0.2476 -0.0775 -0.9658
vn -0.3952 -0.4073 -0.8234
vn 0.2162 0.3962 -0.8924
vn 0.6198 0.3126 -0.7198
vn 0.0064 0.0166 -0.9998
vn 0.7825 0.5560 0.2804
vn 0.7501 0.2558 0.6098
vn 0.9261 0.3646 -0.0969
vn 0.7824 0.5560 0.2805
vn 0.1230 0.1247 0.9845
vn -0.1262 -0.2454 0.9612
vn 0.5390 0.0469 0.8410
vn 0.0718 0.2587 -0.9633
vn 0.4944 0.1635 -0.8537
vn -0.1771 -0.1120 -0.9778
vn 0.0719 0.2587 -0.9633
s 0
usemtl Material.001
f 7//1 8//1 9//1
f 9//2 3//2 5//2
f 1//3 9//3 5//3
f 6//4 7//4 9//4
f 16//5 17//5 18//5
f 18//6 12//6 14//6
f 10//7 18//7 14//7
f 15//8 16//8 18//8
f 25//9 26//9 27//9
f 27//10 21//10 23//10
f 19//11 27//11 23//11
f 24//12 25//12 27//12
f 34//13 35//13 36//13
f 36//14 30//14 32//14
f 28//15 36//15 32//15
f 33//16 34//16 36//16
f 43//17 44//17 45//17
f 45//18 39//18 41//18
f 37//19 45//19 41//19
f 42//20 43//20 45//20
f 52//21 53//21 54//21
f 54//22 48//22 50//22
f 46//23 54//23 50//23
f 51//24 52//24 54//24
f 61//25 62//25 63//25
f 63//26 57//26 59//26
f 55//27 63//27 59//27
f 60//28 61//28 63//28
f 7//29 4//29 8//29
f 9//30 8//30 3//30
f 1//31 6//31 9//31
f 6//32 2//32 7//32
f 16//33 13//33 17//33
f 18//34 17//34 12//34
f 10//35 15//35 18//35
f 15//36 11//36 16//36
f 25//37 22//37 26//37
f 27//38 26//38 21//38
f 19//39 24//39 27//39
f 24//37 20//37 25//37
f 34//40 31//40 35//40
f 36//41 35//41 30//41
f 28//42 33//42 36//42
f 33//40 29//40 34//40
f 43//43 40//43 44//43
f 45//44 44//44 39//44
f 37//45 42//45 45//45
f 42//46 38//46 43//46
f 52//47 49//47 53//47
f 54//48 53//48 48//48
f 46//49 51//49 54//49
f 51//47 47//47 52//47
f 61//50 58//50 62//50
f 63//51 62//51 57//51
f 55//52 60//52 63//52
f 60//53 56//53 61//53
