# Blender 4.1.1
# www.blender.org
mtllib Plane.030.mtl
o Plane.030
v -4.128966 -6.050971 -1.401867
v -4.039587 -6.078395 -1.226878
v -4.090473 -6.076520 -1.425532
v -4.001094 -6.103945 -1.250543
v -4.122004 -6.059976 -1.437751
v -4.085939 -6.076803 -1.303992
v -4.020340 -6.091170 -1.238710
v -4.047447 -6.102353 -1.327657
v -4.081351 -6.092756 -1.336236
v -3.980335 -6.070640 -1.426237
v -3.880596 -6.078040 -1.254892
v -3.963325 -6.022223 -1.434047
v -3.863586 -6.029623 -1.262702
v -3.985539 -6.045414 -1.453693
v -3.915413 -6.079192 -1.337862
v -3.872091 -6.053831 -1.258797
v -3.898403 -6.030775 -1.345673
v -3.912990 -6.056802 -1.366289
v -4.017971 -5.873649 -1.437871
v -3.924859 -5.857457 -1.263430
v -4.063282 -5.863611 -1.414618
v -3.970170 -5.847419 -1.240176
v -4.053424 -5.870856 -1.450221
v -3.965018 -5.852527 -1.343808
v -3.947514 -5.852438 -1.251803
v -4.010328 -5.842489 -1.320555
v -3.998003 -5.842065 -1.354659
v -4.324904 -6.044757 -1.322632
v -4.230781 -6.067963 -1.149531
v -4.368142 -6.064497 -1.301768
v -4.274019 -6.087703 -1.128667
v -4.359460 -6.051437 -1.335993
v -4.276614 -6.046088 -1.223818
v -4.252399 -6.077833 -1.139099
v -4.319852 -6.065828 -1.202953
v -4.311858 -6.046173 -1.232364
v -4.049703 -5.902904 -1.427171
v -3.958252 -5.907244 -1.251160
v -4.037298 -5.952721 -1.434844
v -3.945847 -5.957061 -1.258834
v -4.056070 -5.927216 -1.455200
v -4.009997 -5.908791 -1.324765
v -3.952049 -5.932152 -1.254997
v -3.997593 -5.958608 -1.332439
v -4.021417 -5.935296 -1.346727
v -4.259579 -5.915223 -1.338610
v -4.182171 -5.929784 -1.156517
v -4.212695 -5.923690 -1.359218
v -4.135287 -5.938251 -1.177125
v -4.246777 -5.917455 -1.373942
v -4.219174 -5.935523 -1.238344
v -4.158729 -5.934017 -1.166821
v -4.172289 -5.943990 -1.258952
v -4.206518 -5.945446 -1.270849
v -4.065855 -6.198928 -1.451946
v -3.988447 -6.213489 -1.269853
v -4.113192 -6.207675 -1.432523
v -4.035783 -6.222236 -1.250430
v -4.100163 -6.201300 -1.467263
v -4.024806 -6.194680 -1.349991
v -4.012115 -6.217863 -1.260142
v -4.072142 -6.203427 -1.330567
v -4.058868 -6.189824 -1.361454
vn 0.3156 0.9248 -0.2124
vn 0.4245 0.8975 0.1198
vn 0.6938 0.7187 -0.0458
vn 0.5000 0.8024 -0.3258
vn -0.9093 0.2409 0.3393
vn -0.7470 0.1714 0.6424
vn -0.6280 0.5101 0.5877
vn -0.8278 0.4729 0.3019
vn -0.1031 -0.9934 -0.0496
vn 0.1104 -0.9675 0.2274
vn -0.2066 -0.8973 0.3901
vn -0.3202 -0.9453 0.0618
vn 0.2997 -0.8288 -0.4724
vn 0.5090 -0.8393 -0.1912
vn 0.2064 -0.9774 -0.0452
vn 0.0925 -0.9234 -0.3725
vn 0.7255 0.3968 -0.5623
vn 0.8636 0.4417 -0.2430
vn 0.9504 0.0931 -0.2967
vn 0.7850 0.1581 -0.5990
vn -0.0052 0.9943 -0.1069
vn 0.0765 0.9694 0.2333
vn 0.4046 0.9101 0.0891
vn 0.2196 0.9537 -0.2056
vn 0.1702 -0.9267 -0.3350
vn 0.3562 -0.9337 -0.0377
vn 0.0250 -0.9949 0.0982
vn -0.0566 -0.9686 -0.2419
vn 0.4298 0.8703 -0.2404
vn 0.2338 0.9605 0.1508
vn 0.7798 0.5981 -0.1849
vn -0.8619 0.3604 0.3567
vn -0.8065 -0.0161 0.5909
vn -0.5653 0.6708 0.4802
vn -0.8619 0.3603 0.3567
vn -0.1973 -0.9796 0.0385
vn 0.2476 -0.9658 0.0775
vn -0.3952 -0.8234 0.4073
vn -0.1972 -0.9796 0.0385
vn 0.2162 -0.8924 -0.3962
vn 0.6198 -0.7198 -0.3126
vn 0.0064 -0.9998 -0.0166
vn 0.2162 -0.8923 -0.3962
vn 0.7824 0.2805 -0.5560
vn 0.7501 0.6098 -0.2558
vn 0.9261 -0.0969 -0.3646
vn 0.1230 0.9845 -0.1247
vn -0.1262 0.9612 0.2455
vn 0.5389 0.8410 -0.0469
vn 0.0718 -0.9633 -0.2587
vn 0.4944 -0.8537 -0.1635
vn -0.1771 -0.9778 0.1120
vn 0.0719 -0.9633 -0.2587
s 0
usemtl Material.001
f 7//1 8//1 9//1
f 9//2 3//2 5//2
f 1//3 9//3 5//3
f 6//4 7//4 9//4
f 16//5 17//5 18//5
f 18//6 12//6 14//6
f 10//7 18//7 14//7
f 15//8 16//8 18//8
f 25//9 26//9 27//9
f 27//10 21//10 23//10
f 19//11 27//11 23//11
f 24//12 25//12 27//12
f 34//13 35//13 36//13
f 36//14 30//14 32//14
f 28//15 36//15 32//15
f 33//16 34//16 36//16
f 43//17 44//17 45//17
f 45//18 39//18 41//18
f 37//19 45//19 41//19
f 42//20 43//20 45//20
f 52//21 53//21 54//21
f 54//22 48//22 50//22
f 46//23 54//23 50//23
f 51//24 52//24 54//24
f 61//25 62//25 63//25
f 63//26 57//26 59//26
f 55//27 63//27 59//27
f 60//28 61//28 63//28
f 7//29 4//29 8//29
f 9//30 8//30 3//30
f 1//31 6//31 9//31
f 6//29 2//29 7//29
f 16//32 13//32 17//32
f 18//33 17//33 12//33
f 10//34 15//34 18//34
f 15//35 11//35 16//35
f 25//36 22//36 26//36
f 27//37 26//37 21//37
f 19//38 24//38 27//38
f 24//39 20//39 25//39
f 34//40 31//40 35//40
f 36//41 35//41 30//41
f 28//42 33//42 36//42
f 33//43 29//43 34//43
f 43//44 40//44 44//44
f 45//45 44//45 39//45
f 37//46 42//46 45//46
f 42//44 38//44 43//44
f 52//47 49//47 53//47
f 54//48 53//48 48//48
f 46//49 51//49 54//49
f 51//47 47//47 52//47
f 61//50 58//50 62//50
f 63//51 62//51 57//51
f 55//52 60//52 63//52
f 60//53 56//53 61//53
