# Blender 4.1.1
# www.blender.org
mtllib Icosphere.011.mtl
o Icosphere.011
v 2.231802 -2.104151 -3.527277
v 2.226324 -2.078422 -3.596398
v 2.166779 -2.079600 -3.552551
v 2.169705 -2.141169 -3.511682
v 2.231059 -2.178043 -3.530271
v 2.266051 -2.139263 -3.582628
v 2.160841 -2.099540 -3.623521
v 2.125849 -2.138319 -3.571165
v 2.165576 -2.199160 -3.557395
v 2.225121 -2.197983 -3.601241
v 2.222195 -2.136413 -3.642110
v 2.160098 -2.173432 -3.626515
vn 0.2210 0.9196 0.3248
vn 0.8130 0.5638 0.1454
vn -0.1167 0.5454 0.8300
vn 0.2667 -0.0417 0.9629
vn 0.8413 -0.0303 0.5398
vn 0.7557 0.3714 -0.5394
vn -0.2022 0.9471 -0.2492
vn -0.7486 0.3416 0.5683
vn -0.1283 -0.6083 0.7833
vn 0.8014 -0.5899 0.0987
vn 0.1283 0.6083 -0.7833
vn -0.8014 0.5899 -0.0987
vn -0.7557 -0.3714 0.5394
vn 0.2022 -0.9471 0.2492
vn 0.7486 -0.3416 -0.5683
vn -0.2667 0.0417 -0.9629
vn -0.8413 0.0303 -0.5398
vn -0.8130 -0.5638 -0.1454
vn -0.2210 -0.9196 -0.3248
vn 0.1167 -0.5454 -0.8300
s 0
usemtl Smoke
f 1//1 2//1 3//1
f 2//2 1//2 6//2
f 1//3 3//3 4//3
f 1//4 4//4 5//4
f 1//5 5//5 6//5
f 2//6 6//6 11//6
f 3//7 2//7 7//7
f 4//8 3//8 8//8
f 5//9 4//9 9//9
f 6//10 5//10 10//10
f 2//11 11//11 7//11
f 3//12 7//12 8//12
f 4//13 8//13 9//13
f 5//14 9//14 10//14
f 6//15 10//15 11//15
f 7//16 11//16 12//16
f 8//17 7//17 12//17
f 9//18 8//18 12//18
f 10//19 9//19 12//19
f 11//20 10//20 12//20
