# Blender 4.1.1
# www.blender.org
mtllib Plane.043.mtl
o Plane.043
v -5.670476 -5.081852 -1.312502
v -5.811869 -5.170928 -1.205566
v -5.646642 -5.127503 -1.319015
v -5.788035 -5.216579 -1.212079
v -5.639125 -5.092434 -1.330456
v -5.754977 -5.132889 -1.263996
v -5.799952 -5.193754 -1.208823
v -5.731143 -5.178541 -1.270509
v -5.729859 -5.146063 -1.286596
v -5.612897 -5.209233 -1.253083
v -5.741500 -5.293666 -1.127806
v -5.585148 -5.191782 -1.212835
v -5.713750 -5.276214 -1.087558
v -5.581347 -5.188902 -1.250178
v -5.676966 -5.266226 -1.184199
v -5.727625 -5.284940 -1.107682
v -5.649216 -5.248775 -1.143950
v -5.643312 -5.253588 -1.179408
v -5.548392 -5.055615 -1.140845
v -5.673915 -5.120068 -1.001376
v -5.578878 -5.014453 -1.149261
v -5.704401 -5.078906 -1.009792
v -5.546382 -5.026175 -1.164223
v -5.611232 -5.084683 -1.055380
v -5.689158 -5.099486 -1.005584
v -5.641718 -5.043521 -1.063796
v -5.607356 -5.052341 -1.071325
v -5.795305 -4.927018 -1.384284
v -5.932270 -5.017088 -1.272524
v -5.832829 -4.906214 -1.413502
v -5.969792 -4.996284 -1.301744
v -5.795241 -4.904236 -1.414254
v -5.871119 -4.966697 -1.315176
v -5.951031 -5.006686 -1.287134
v -5.908642 -4.945893 -1.344395
v -5.873422 -4.939288 -1.338811
v -5.576623 -5.049598 -1.174669
v -5.710771 -5.125735 -1.049893
v -5.582552 -5.090539 -1.206025
v -5.716700 -5.166676 -1.081249
v -5.561149 -5.059603 -1.207498
v -5.659598 -5.085541 -1.112050
v -5.713736 -5.146205 -1.065571
v -5.665527 -5.126482 -1.143406
v -5.651742 -5.093094 -1.146639
v -5.719886 -4.895770 -1.263299
v -5.866847 -4.967544 -1.150991
v -5.690824 -4.937199 -1.251745
v -5.837784 -5.008973 -1.139437
v -5.685155 -4.906620 -1.272959
v -5.805468 -4.941318 -1.211345
v -5.852315 -4.988258 -1.145214
v -5.776405 -4.982747 -1.199791
v -5.775851 -4.956944 -1.225269
v -5.656058 -5.223447 -1.402642
v -5.803019 -5.295220 -1.290334
v -5.689834 -5.192509 -1.427067
v -5.836794 -5.264283 -1.314759
v -5.652747 -5.198113 -1.430291
v -5.734920 -5.254034 -1.332333
v -5.819907 -5.279752 -1.302547
v -5.768696 -5.223096 -1.356758
v -5.732638 -5.224384 -1.353092
vn 0.5844 0.3415 0.7361
vn 0.3068 0.2351 0.9223
vn 0.4736 -0.0843 0.8767
vn 0.6986 0.1227 0.7049
vn -0.4841 0.8527 -0.1964
vn -0.7341 0.6787 -0.0224
vn -0.5399 0.8008 0.2592
vn -0.3511 0.9363 -0.0035
vn -0.3106 -0.5460 -0.7781
vn -0.4914 -0.6991 -0.5194
vn -0.7047 -0.4111 -0.5783
vn -0.4567 -0.3487 -0.8184
vn 0.2385 -0.7488 -0.6184
vn 0.0408 -0.9216 -0.3859
vn -0.2218 -0.7760 -0.5904
vn 0.0587 -0.6491 -0.7584
vn 0.8423 -0.3047 0.4445
vn 0.6085 -0.3880 0.6922
vn 0.5670 -0.6745 0.4728
vn 0.8139 -0.5009 0.2942
vn 0.4213 0.6326 0.6499
vn 0.1297 0.5488 0.8258
vn 0.3331 0.2589 0.9067
vn 0.5606 0.4341 0.7052
vn 0.0458 -0.7119 -0.7007
vn -0.1717 -0.8647 -0.4719
vn -0.4080 -0.6483 -0.6429
vn -0.1161 -0.5636 -0.8178
vn 0.6241 0.2188 0.7501
vn 0.2457 0.4224 0.8725
vn 0.5838 -0.2252 0.7801
vn -0.4471 0.8911 -0.0781
vn -0.7661 0.6074 -0.2100
vn -0.3724 0.8550 0.3610
vn -0.4471 0.8910 -0.0781
vn -0.4121 -0.4654 -0.7833
vn -0.3168 -0.8024 -0.5058
vn -0.7493 -0.2184 -0.6252
vn 0.1252 -0.7251 -0.6771
vn 0.2208 -0.9306 -0.2920
vn -0.3115 -0.6354 -0.7065
vn 0.8146 -0.4224 0.3975
vn 0.6431 -0.1938 0.7409
vn 0.5590 -0.7745 0.2961
vn 0.4704 0.5273 0.7076
vn 0.0587 0.7008 0.7110
vn 0.4710 0.1130 0.8749
vn 0.4704 0.5274 0.7075
vn -0.0628 -0.6598 -0.7488
vn 0.0070 -0.9198 -0.3923
vn -0.4721 -0.4809 -0.7388
s 0
usemtl Material.001
f 7//1 8//1 9//1
f 9//2 3//2 5//2
f 1//3 9//3 5//3
f 6//4 7//4 9//4
f 16//5 17//5 18//5
f 18//6 12//6 14//6
f 10//7 18//7 14//7
f 15//8 16//8 18//8
f 25//9 26//9 27//9
f 27//10 21//10 23//10
f 19//11 27//11 23//11
f 24//12 25//12 27//12
f 34//13 35//13 36//13
f 36//14 30//14 32//14
f 28//15 36//15 32//15
f 33//16 34//16 36//16
f 43//17 44//17 45//17
f 45//18 39//18 41//18
f 37//19 45//19 41//19
f 42//20 43//20 45//20
f 52//21 53//21 54//21
f 54//22 48//22 50//22
f 46//23 54//23 50//23
f 51//24 52//24 54//24
f 61//25 62//25 63//25
f 63//26 57//26 59//26
f 55//27 63//27 59//27
f 60//28 61//28 63//28
f 7//29 4//29 8//29
f 9//30 8//30 3//30
f 1//31 6//31 9//31
f 6//29 2//29 7//29
f 16//32 13//32 17//32
f 18//33 17//33 12//33
f 10//34 15//34 18//34
f 15//35 11//35 16//35
f 25//36 22//36 26//36
f 27//37 26//37 21//37
f 19//38 24//38 27//38
f 24//36 20//36 25//36
f 34//39 31//39 35//39
f 36//40 35//40 30//40
f 28//41 33//41 36//41
f 33//39 29//39 34//39
f 43//42 40//42 44//42
f 45//43 44//43 39//43
f 37//44 42//44 45//44
f 42//42 38//42 43//42
f 52//45 49//45 53//45
f 54//46 53//46 48//46
f 46//47 51//47 54//47
f 51//48 47//48 52//48
f 61//49 58//49 62//49
f 63//50 62//50 57//50
f 55//51 60//51 63//51
f 60//49 56//49 61//49
