# Blender 4.1.1
# www.blender.org
mtllib Plane.033.mtl
o Plane.033
v 10.482346 -1.302062 -43.309555
v 39.965065 13.239659 -43.309555
v 39.235897 14.696552 -28.278732
v 24.458702 7.519802 -43.320957
v 16.115389 21.138317 -25.985950
v 10.393808 -1.137661 -17.438253
v 32.311989 10.235685 -10.386130
v 39.787266 13.583663 -35.087250
v 17.478588 2.536393 -43.298550
v 19.218529 3.586694 -10.499633
v 39.813740 13.489261 -18.667450
v 20.084564 16.388184 -34.978241
v 27.158247 20.156462 -27.587679
v 14.344368 8.049913 -34.736244
v 28.898361 15.446767 -36.502567
v 10.525496 -1.392582 -10.444967
v 40.093403 12.963217 -40.502464
v 14.167684 0.515652 -43.309555
v 16.282036 19.669498 -22.652588
v 11.288192 6.231133 -26.872614
v 21.433210 23.391781 -26.872620
v 28.303642 9.029646 -10.409585
v 39.420113 14.756351 -33.080856
v 14.001042 0.070791 -10.451943
v 39.965057 13.239674 -14.544904
v 18.441469 19.783028 -33.596222
v 34.108383 16.573177 -27.840958
v 26.633308 19.017624 -22.772280
v 30.045166 11.895634 -14.422021
v 34.891319 15.233670 -18.054127
v 12.252392 2.517581 -18.412415
v 16.417843 5.247881 -39.197182
v 30.516251 12.509013 -39.447872
v 25.984713 17.561447 -34.572392
v 33.877487 16.374832 -30.994095
v 24.200098 12.722898 -39.066982
v 11.356997 4.472709 -29.495447
v 18.295649 10.637897 -16.694109
v 12.159952 5.020439 -22.827841
v 35.720375 11.792576 -14.753811
v 21.949245 21.674376 -23.175257
v 33.710388 17.608021 -22.796162
v 19.406513 7.031380 -40.280075
v 39.934475 13.363642 -10.457153
v 11.922521 0.405667 -43.317146
v 9.651613 0.319484 -27.333027
v 24.425381 7.529807 -10.407835
v 39.208710 15.026367 -24.803049
v 26.215813 8.637646 -43.427280
v 23.228283 9.901155 -41.651794
v 16.698895 22.095535 -24.773899
v 30.645496 8.734779 -10.631429
v 18.957363 4.591265 -43.474113
v 10.507628 -1.281009 -36.241116
v 15.360931 2.540369 -10.298973
v 39.663742 14.041260 -16.726536
v 32.671890 10.036619 -43.304718
v 12.893068 14.023841 -26.799793
v 27.132393 19.070446 -25.012772
v 21.320671 17.499710 -18.525694
v 28.956802 16.014309 -18.430807
v 14.535943 8.602135 -18.727722
v 14.903972 12.251793 -18.239130
v 15.626728 2.917540 -39.213882
v 15.441438 12.524053 -34.858173
v 28.554138 18.015951 -33.109741
v 22.416956 15.981641 -34.525364
v 32.350441 13.701831 -34.721722
v 34.623028 11.166182 -10.382724
v 39.730659 13.862830 -37.188229
v 9.886269 -0.141824 -31.303705
v 39.770584 12.965302 -21.211275
v 21.553766 13.023202 -37.313793
v 18.202654 17.427029 -20.507444
v 12.451546 9.167185 -27.072470
v 10.000751 -0.262036 -22.803406
v 26.280876 8.490074 -10.369866
v 23.306805 5.737239 -43.018425
v 10.514771 -1.323195 -38.512905
v 12.274702 -1.035265 -10.435839
v 40.417526 12.302343 -12.499119
v 38.479965 12.135806 -43.307999
v 17.859419 20.899570 -28.703745
v 23.377899 10.192281 -12.288623
v 36.499336 15.380784 -26.872614
v 29.134224 16.779324 -19.932190
v 37.458160 13.593457 -18.675488
v 13.502965 12.243669 -23.096313
v 16.541954 4.914282 -13.993162
v 14.120666 5.669301 -18.800756
v 17.261452 15.099292 -19.604746
v 14.996799 7.645060 -37.410156
v 12.170141 12.267329 -29.408777
v 16.977955 15.937592 -33.795700
v 37.403351 13.823295 -35.099888
v 34.617767 14.785288 -34.492790
v 30.610550 19.159494 -30.926985
v 37.733650 14.902892 -32.158016
v 23.125244 19.653671 -33.129501
v 21.939381 22.517817 -28.877144
v 19.645794 22.198059 -31.224192
v 27.451336 20.031328 -30.105253
v 26.431969 16.282017 -36.216251
v 15.988975 15.543305 -32.943230
v 14.931004 18.015202 -31.009062
v 14.625191 14.206679 -30.779289
v 16.065308 19.798458 -31.064373
v 12.572324 7.796086 -31.537926
v 12.859550 -0.310553 -39.424644
v 12.784881 0.923054 -37.990410
v 17.301136 7.810215 -14.292428
v 15.077434 2.838238 -15.816681
v 11.738466 1.597668 -22.865448
v 11.884464 9.095955 -22.639858
v 26.103851 11.057373 -12.267591
v 20.431999 21.091829 -22.049948
v 34.066185 16.512430 -20.084909
v 30.861900 18.449532 -22.640863
v 36.592293 15.470510 -23.539522
v 13.849172 19.261795 -24.802805
v 14.994752 17.915873 -22.651052
v 13.472569 16.903713 -24.558657
v 18.103842 6.420201 -40.317329
v 35.855927 10.767401 -41.009125
v 35.450157 13.696909 -37.049404
v 33.692848 11.781011 -39.072659
v 36.879173 14.107970 -37.498283
v 32.870197 13.648730 -37.127525
v 18.073727 12.430818 -36.482784
v 16.251928 9.854501 -37.417236
v 14.529357 13.509167 -20.616936
v 37.209915 13.639649 -20.811995
v 30.978313 18.469646 -24.837709
v 18.573338 23.708263 -26.014275
v 29.659130 10.933935 -12.466292
v 21.325750 13.586242 -16.500214
v 37.295155 12.617537 -12.589054
v 32.659607 10.946173 -11.450608
v 12.355252 7.774844 -20.820559
v 11.377679 1.636945 -20.729639
v 10.938841 2.725963 -26.545101
v 15.487236 2.406080 -12.441558
v 13.935385 1.308621 -15.897267
v 20.304815 7.505495 -12.279792
v 21.168016 5.186215 -10.512614
v 16.545065 9.493502 -16.499306
v 13.882265 4.538782 -36.033863
v 11.793249 8.920080 -28.904488
v 11.102032 0.974754 -33.990772
v 13.930468 15.431523 -28.852812
v 14.681686 13.350605 -33.061821
v 25.102886 10.972369 -41.604473
v 19.349171 22.463419 -28.900461
v 20.518206 20.433189 -33.404182
v 31.508545 16.032755 -32.925137
v 28.902821 9.680641 -43.458134
v 12.562513 8.358922 -25.025694
v 37.048225 12.721471 -15.544333
v 27.123032 14.160928 -17.152973
v 38.266109 12.017784 -41.245369
vn -0.5812 0.2438 -0.7763
vn -0.9074 0.1184 0.4033
vn -0.3732 0.1891 -0.9083
vn -0.1846 0.5573 -0.8095
vn -0.0198 0.9931 -0.1159
vn -0.2168 0.5344 -0.8169
vn 0.1770 0.7437 -0.6446
vn -0.9283 0.0523 -0.3680
vn -0.9498 0.0607 -0.3069
vn -0.0487 0.9802 0.1921
vn -0.4814 0.5529 0.6801
vn -0.6342 0.4400 0.6358
vn -0.5279 0.8268 0.1943
vn -0.8684 0.4674 0.1653
vn -0.7294 0.4498 0.5154
vn 0.0308 0.9396 0.3410
vn 0.2841 0.9013 0.3269
vn 0.2926 0.8233 0.4864
vn -0.9857 0.1622 0.0464
vn -0.8165 0.3108 0.4866
vn -0.5965 0.8025 -0.0159
vn 0.0074 0.7229 -0.6910
vn -0.1673 0.7843 -0.5974
vn -0.2808 0.5048 -0.8163
vn -0.6424 0.2233 -0.7331
vn -0.4788 0.4789 0.7358
vn -0.9853 0.0811 0.1505
vn -0.9755 0.0600 0.2115
vn 0.0622 0.8863 0.4589
vn 0.1251 0.9137 0.3866
vn 0.2844 0.9584 0.0238
vn 0.3015 0.8347 0.4609
vn -0.2940 0.5172 0.8038
vn -0.4518 0.5653 0.6901
vn -0.7102 0.6771 -0.1928
vn 0.0663 0.8468 0.5278
vn -0.0239 0.8461 0.5325
vn -0.4871 0.8731 0.0216
vn -0.3765 0.9149 0.1459
vn 0.0336 0.9602 0.2772
vn -0.2608 0.9208 0.2899
vn -0.0470 0.6855 0.7266
vn -0.4674 0.3757 0.8002
vn -0.8913 0.4359 0.1247
vn -0.5798 0.8138 0.0406
vn -0.3666 0.4737 0.8008
vn -0.3691 0.6736 0.6403
vn -0.9393 0.2207 -0.2626
vn -0.9328 0.1359 -0.3339
vn -0.9372 0.3357 -0.0944
vn -0.8723 0.4408 -0.2115
vn -0.8274 0.4650 -0.3149
vn -0.6923 0.6746 -0.2562
vn -0.8627 0.4967 -0.0954
vn -0.8267 0.2891 -0.4827
vn -0.3199 0.7035 -0.6346
vn 0.5587 0.8272 0.0600
vn 0.2358 0.9026 -0.3602
vn -0.0069 0.8185 -0.5745
vn -0.9265 0.1196 -0.3566
vn -0.6286 0.5732 -0.5257
vn -0.4514 0.4118 0.7916
vn -0.9648 -0.0533 -0.2577
vn 0.5642 0.7733 0.2892
vn -0.4603 0.8878 0.0031
vn -0.2071 0.8198 -0.5339
vn 0.1973 0.9761 -0.0911
vn 0.0435 0.9618 -0.2702
vn -0.1649 0.6652 0.7282
vn 0.2006 0.7907 -0.5784
vn -0.4527 0.4094 0.7921
vn -0.8638 0.1992 -0.4628
vn 0.0897 0.8669 -0.4903
vn -0.1801 0.3797 -0.9074
vn 0.6446 0.7586 -0.0949
vn 0.0953 0.9953 0.0160
vn -0.6749 0.4786 -0.5616
vn -0.2537 0.9361 -0.2438
vn -0.7806 0.0032 -0.6250
vn -0.1376 0.5186 0.8439
vn -0.3628 0.6741 0.6434
vn -0.9783 0.1223 -0.1675
vn -0.8799 0.1304 0.4569
vn 0.0876 0.5052 0.8585
vn -0.3580 0.9290 -0.0936
vn 0.0806 0.9128 0.4004
vn -0.1482 0.7958 -0.5871
vn -0.1437 0.8990 0.4137
vn 0.2153 0.8968 0.3865
vn 0.3999 0.9036 -0.1538
vn -0.2909 0.5013 -0.8149
vn -0.2251 0.9606 0.1632
vn -0.3349 0.9269 0.1695
vn 0.1098 0.9622 -0.2492
vn 0.0985 0.9868 0.1285
vn 0.2444 0.7490 -0.6158
vn -0.0053 0.9195 -0.3931
vn 0.4206 0.9045 0.0709
vn 0.0750 0.9154 -0.3954
vn -0.2796 0.4621 -0.8416
vn -0.5750 0.3242 -0.7512
vn -0.8566 0.1970 -0.4769
vn -0.4587 0.4457 -0.7687
vn -0.7314 0.4854 -0.4790
vn -0.9376 0.1238 0.3249
vn -0.4816 0.3543 0.8016
vn -0.4383 0.4735 0.7640
vn -0.9363 0.0996 0.3368
vn -0.5150 0.4035 0.7563
vn 0.6808 0.6702 0.2957
vn -0.8138 0.1869 0.5502
vn 0.5305 0.8466 -0.0433
vn 0.2202 0.9547 -0.2004
vn 0.0621 0.8314 0.5522
vn 0.1536 0.9880 0.0172
vn 0.0806 0.8579 0.5074
vn 0.3328 0.8607 0.3853
vn -0.2435 0.7531 0.6112
vn 0.1296 0.7106 0.6916
vn 0.1533 0.6727 0.7239
vn 0.0561 0.8915 0.4495
vn -0.1749 0.8443 0.5065
vn -0.1887 0.5753 0.7959
vn -0.6997 0.4587 0.5478
vn -0.1396 0.5824 0.8009
vn -0.2277 0.7010 0.6758
vn 0.1027 0.8924 -0.4395
vn -0.3351 0.8305 0.4449
vn 0.0475 0.7031 0.7095
vn 0.0544 0.6980 0.7141
vn -0.9773 -0.0752 0.1983
vn -0.8684 0.4754 0.1412
vn -0.7262 0.6741 -0.1351
vn -0.9578 0.2294 0.1730
vn -0.9423 0.1545 0.2970
vn -0.6797 0.6467 0.3460
vn -0.7938 0.5836 0.1711
vn -0.5108 0.5973 0.6183
vn -0.8709 0.4846 -0.0817
vn -0.7594 0.3651 0.5386
vn -0.1901 0.9218 0.3378
vn -0.6065 0.4778 0.6355
vn -0.5599 0.5338 0.6336
vn -0.3752 0.4318 0.8202
vn -0.5932 0.2351 0.7700
vn -0.4981 0.6121 0.6142
vn -0.7395 -0.0155 0.6730
vn -0.5024 0.6424 -0.5787
vn -0.6165 0.5112 -0.5988
vn -0.7310 0.6178 0.2897
vn -0.7753 0.5366 -0.3331
vn -0.8251 0.4413 -0.3528
vn -0.9729 0.0762 0.2183
vn -0.8889 0.3705 0.2694
vn -0.9889 0.1103 -0.0999
vn -0.8914 0.4340 0.1306
vn -0.9581 0.1984 -0.2068
vn -0.8917 0.3804 -0.2454
vn -0.8383 0.5292 -0.1313
vn -0.6846 0.4776 -0.5506
vn -0.8557 0.0376 -0.5161
vn -0.6852 0.6762 -0.2706
vn -0.3218 0.6974 -0.6403
vn -0.0251 0.6345 -0.7725
vn -0.3326 0.7078 -0.6233
vn -0.3222 0.4261 -0.8454
vn -0.3803 0.6925 -0.6130
vn 0.4117 0.9113 0.0026
vn 0.0034 0.8237 -0.5670
vn -0.7626 0.6050 -0.2288
vn -0.6780 0.5909 -0.4371
vn -0.0156 0.9151 -0.4029
vn 0.2351 0.3305 -0.9141
vn 0.2939 0.7970 -0.5276
vn -0.1682 0.7322 -0.6600
vn 0.3333 0.9391 -0.0835
vn 0.2617 0.9650 -0.0175
vn 0.3516 0.9036 0.2446
vn 0.5840 0.6173 -0.5272
vn 0.1753 0.9098 -0.3762
vn 0.4270 0.5708 -0.7013
vn 0.3057 0.7872 -0.5356
vn 0.2341 0.9039 -0.3580
vn 0.1433 0.8454 -0.5145
vn -0.6658 0.4040 -0.6273
vn -0.0552 0.8263 -0.5605
vn -0.6886 0.2964 -0.6618
vn -0.4961 0.8145 -0.3009
vn -0.8495 0.2776 -0.4486
vn -0.8493 0.1627 -0.5022
vn -0.9768 0.1757 0.1223
vn -0.6309 0.4517 0.6308
vn -0.8534 0.1689 0.4931
vn -0.9069 0.3727 0.1964
vn 0.5154 0.7877 0.3374
vn 0.0651 0.5911 0.8039
vn 0.1254 0.8254 0.5505
vn 0.4578 0.8883 -0.0367
vn 0.4810 0.8674 0.1276
vn -0.5892 0.5869 0.5554
vn 0.3473 0.8358 0.4253
vn -0.6873 0.6933 -0.2167
vn -0.4251 0.7144 -0.5558
vn -0.4946 0.2626 -0.8285
vn -0.6053 0.5167 -0.6055
vn -0.4910 0.8645 0.1076
vn 0.1528 0.9878 -0.0309
vn -0.3655 0.9080 0.2050
vn 0.1842 0.7993 -0.5720
vn -0.1006 0.9376 -0.3328
vn 0.1924 0.3160 -0.9290
vn -0.7227 0.4589 -0.5168
vn -0.2528 0.9361 -0.2445
vn -0.7801 0.2689 -0.5650
vn -0.1902 0.4403 0.8775
vn -0.4777 0.4130 0.7754
vn -0.9811 0.1545 -0.1166
vn 0.0543 0.4590 0.8868
vn -0.3452 0.7686 -0.5386
vn -0.2351 0.5500 -0.8014
vn 0.2495 0.9176 -0.3094
vn 0.0742 0.9921 0.1015
vn 0.2429 0.7503 -0.6149
vn -0.4194 0.9010 -0.1105
vn 0.2496 0.8726 -0.4199
vn -0.3714 0.4888 -0.7894
vn -0.6307 0.1875 -0.7530
vn -0.8362 0.4741 -0.2758
vn -0.4216 0.5575 -0.7151
vn -0.8019 0.4396 -0.4046
vn -0.9785 0.0729 0.1927
vn -0.5678 0.6873 0.4529
vn 0.6172 0.7543 0.2238
vn 0.6859 0.7082 0.1673
vn 0.0441 0.9989 0.0165
vn 0.0926 0.8201 0.5647
vn 0.1314 0.9899 0.0526
vn 0.2939 0.6275 0.7210
vn -0.3234 0.6538 0.6841
vn 0.0638 0.7110 0.7003
vn -0.4896 0.4186 0.7649
vn -0.2673 0.4836 0.8335
vn -0.7062 0.0825 0.7032
vn -0.8659 0.4789 0.1449
vn -0.9626 0.1159 0.2447
vn -0.7713 0.6186 0.1499
vn -0.2647 0.9613 -0.0759
vn -0.7963 0.2649 0.5438
vn -0.7015 0.7125 -0.0154
vn -0.3943 0.9190 0.0067
vn -0.9364 0.1530 0.3158
vn -0.9921 0.0908 -0.0869
vn -0.9209 0.2739 -0.2775
vn -0.8344 0.5089 -0.2115
vn 0.2524 0.6237 -0.7398
vn -0.2703 0.5091 -0.8171
vn -0.3399 0.6962 -0.6323
vn 0.4505 0.8544 -0.2588
vn -0.7242 0.6686 -0.1688
vn -0.6421 0.6090 -0.4656
vn -0.0187 0.9162 -0.4002
vn -0.0283 0.3651 -0.9305
vn 0.3504 0.8192 -0.4540
vn 0.3365 0.9382 -0.0804
vn 0.3510 0.9326 0.0845
vn 0.5076 0.7109 -0.4868
vn 0.4696 0.5672 -0.6766
vn 0.2671 0.8321 -0.4860
vn 0.0945 0.8425 -0.5304
vn -0.6558 0.2708 -0.7047
vn -0.7506 0.6509 -0.1143
vn -0.8498 0.3847 -0.3604
vn 0.4970 0.8114 0.3075
vn 0.5709 0.8120 -0.1215
vn -0.6294 0.4626 0.6244
vn -0.3877 0.7216 -0.5736
s 0
usemtl Snow
f 50//1 4//1 78//1
f 62//2 90//2 112//2
f 26//3 12//3 94//3
f 96//4 68//4 155//4
f 100//5 101//5 153//5
f 156//6 49//6 152//6
f 15//7 33//7 103//7
f 150//8 105//8 106//8
f 148//9 93//9 108//9
f 109//10 18//10 45//10
f 84//11 136//11 144//11
f 112//12 31//12 143//12
f 24//13 143//13 80//13
f 89//14 112//14 142//14
f 88//15 114//15 139//15
f 137//16 25//16 56//16
f 117//17 42//17 118//17
f 132//18 72//18 119//18
f 120//19 58//19 122//19
f 121//20 122//20 131//20
f 160//21 2//21 82//21
f 125//22 126//22 128//22
f 125//23 124//23 126//23
f 129//24 73//24 43//24
f 32//25 123//25 64//25
f 60//26 74//26 91//26
f 122//27 58//27 75//27
f 122//28 75//28 88//28
f 61//29 117//29 86//29
f 59//30 133//30 13//30
f 118//31 42//31 133//31
f 61//32 86//32 116//32
f 74//33 116//33 19//33
f 60//34 116//34 74//34
f 51//35 134//35 5//35
f 116//36 41//36 134//36
f 115//37 159//37 136//37
f 137//38 56//38 40//38
f 44//39 137//39 69//39
f 138//40 40//40 29//40
f 69//41 137//41 138//41
f 40//42 158//42 30//42
f 90//43 139//43 31//43
f 141//44 46//44 76//44
f 143//45 6//45 16//45
f 47//46 144//46 145//46
f 38//47 146//47 111//47
f 14//48 92//48 147//48
f 148//49 108//49 37//49
f 46//50 37//50 71//50
f 71//51 149//51 54//51
f 37//52 147//52 149//52
f 120//53 5//53 105//53
f 58//54 150//54 93//54
f 93//55 151//55 65//55
f 34//56 103//56 67//56
f 27//57 97//57 133//57
f 98//58 96//58 35//58
f 33//59 156//59 36//59
f 37//60 108//60 147//60
f 110//61 64//61 109//61
f 136//62 91//62 38//62
f 114//63 157//63 39//63
f 158//64 87//64 30//64
f 160//65 82//65 124//65
f 17//66 160//66 127//66
f 85//67 48//67 3//67
f 87//68 56//68 11//68
f 159//69 29//69 61//69
f 103//70 66//70 15//70
f 136//71 60//71 91//71
f 108//72 65//72 14//72
f 95//73 23//73 8//73
f 67//74 99//74 34//74
f 27//75 35//75 97//75
f 3//76 23//76 98//76
f 65//77 104//77 94//77
f 107//78 83//78 26//78
f 32//79 147//79 92//79
f 63//80 38//80 91//80
f 111//81 144//81 38//81
f 140//82 39//82 113//82
f 157//83 20//83 141//83
f 60//84 159//84 61//84
f 138//85 137//85 40//85
f 137//86 81//86 25//86
f 53//87 43//87 78//87
f 135//88 138//88 29//88
f 134//89 41//89 21//89
f 133//90 42//90 27//90
f 43//91 130//91 129//91
f 125//92 95//92 127//92
f 124//93 82//93 57//93
f 127//94 70//94 17//94
f 70//95 95//95 8//95
f 33//96 128//96 126//96
f 128//97 96//97 125//97
f 68//98 128//98 15//98
f 57//99 126//99 124//99
f 129//100 12//100 73//100
f 123//101 92//101 130//101
f 130//102 14//102 65//102
f 129//103 65//103 94//103
f 9//104 123//104 53//104
f 62//105 131//105 88//105
f 74//106 19//106 121//106
f 91//107 74//107 121//107
f 131//108 122//108 88//108
f 131//109 91//109 121//109
f 119//110 117//110 132//110
f 121//111 120//111 122//111
f 132//112 30//112 87//112
f 132//113 11//113 72//113
f 118//114 86//114 117//114
f 59//115 118//115 133//115
f 61//116 30//116 117//116
f 28//117 116//117 86//117
f 51//118 116//118 134//118
f 60//119 61//119 116//119
f 135//120 22//120 52//120
f 115//121 135//121 29//121
f 135//122 7//122 138//122
f 84//123 77//123 115//123
f 139//124 62//124 88//124
f 77//125 22//125 115//125
f 84//126 115//126 136//126
f 44//127 81//127 137//127
f 7//128 69//128 138//128
f 29//129 30//129 61//129
f 29//130 40//130 30//130
f 139//131 114//131 39//131
f 6//132 140//132 76//132
f 140//133 113//133 76//133
f 141//134 39//134 157//134
f 31//135 139//135 140//135
f 113//136 141//136 76//136
f 143//137 142//137 112//137
f 142//138 10//138 89//138
f 24//139 55//139 142//139
f 62//140 111//140 146//140
f 16//141 80//141 143//141
f 143//142 31//142 6//142
f 144//143 136//143 38//143
f 47//144 84//144 144//144
f 145//145 111//145 89//145
f 10//146 145//146 89//146
f 146//147 63//147 62//147
f 79//148 110//148 109//148
f 110//149 147//149 64//149
f 1//150 109//150 45//150
f 54//151 149//151 110//151
f 149//152 147//152 110//152
f 93//153 75//153 58//153
f 20//154 75//154 148//154
f 37//155 20//155 148//155
f 46//156 141//156 37//156
f 150//157 120//157 105//157
f 71//158 37//158 149//158
f 105//159 5//159 107//159
f 93//160 150//160 106//160
f 104//161 106//161 105//161
f 93//162 106//162 151//162
f 73//163 67//163 103//163
f 103//164 33//164 36//164
f 103//165 36//165 73//165
f 50//166 49//166 4//166
f 50//167 36//167 152//167
f 100//168 13//168 102//168
f 36//169 156//169 152//169
f 83//170 101//170 26//170
f 83//171 134//171 153//171
f 153//172 21//172 100//172
f 12//173 154//173 67//173
f 101//174 99//174 154//174
f 101//175 154//175 26//175
f 27//176 98//176 35//176
f 13//177 97//177 102//177
f 85//178 3//178 27//178
f 15//179 155//179 68//179
f 155//180 35//180 96//180
f 97//181 155//181 66//181
f 99//182 102//182 34//182
f 98//183 95//183 96//183
f 102//184 66//184 34//184
f 26//185 105//185 107//185
f 33//186 57//186 156//186
f 104//187 26//187 94//187
f 18//188 64//188 9//188
f 147//189 108//189 14//189
f 108//190 93//190 65//190
f 157//191 88//191 75//191
f 112//192 90//192 31//192
f 89//193 62//193 112//193
f 157//194 75//194 20//194
f 13//195 41//195 59//195
f 40//196 56//196 158//196
f 115//197 29//197 159//197
f 27//198 119//198 85//198
f 41//199 28//199 59//199
f 120//200 19//200 51//200
f 119//201 72//201 48//201
f 51//202 5//202 120//202
f 124//203 127//203 160//203
f 43//204 50//204 78//204
f 43//205 73//205 50//205
f 160//206 17//206 2//206
f 85//207 119//207 48//207
f 87//208 158//208 56//208
f 103//209 34//209 66//209
f 95//210 98//210 23//210
f 67//211 154//211 99//211
f 65//212 151//212 104//212
f 107//213 5//213 83//213
f 32//214 64//214 147//214
f 63//215 146//215 38//215
f 111//216 145//216 144//216
f 140//217 139//217 39//217
f 60//218 136//218 159//218
f 53//219 123//219 43//219
f 43//220 123//220 130//220
f 125//221 96//221 95//221
f 70//222 127//222 95//222
f 33//223 15//223 128//223
f 128//224 68//224 96//224
f 57//225 33//225 126//225
f 129//226 94//226 12//226
f 123//227 32//227 92//227
f 130//228 92//228 14//228
f 129//229 130//229 65//229
f 9//230 64//230 123//230
f 62//231 63//231 131//231
f 131//232 63//232 91//232
f 119//233 42//233 117//233
f 132//234 117//234 30//234
f 132//235 87//235 11//235
f 118//236 28//236 86//236
f 59//237 28//237 118//237
f 28//238 41//238 116//238
f 51//239 19//239 116//239
f 135//240 115//240 22//240
f 135//241 52//241 7//241
f 84//242 47//242 77//242
f 139//243 90//243 62//243
f 6//244 31//244 140//244
f 141//245 113//245 39//245
f 143//246 24//246 142//246
f 142//247 55//247 10//247
f 62//248 89//248 111//248
f 79//249 54//249 110//249
f 1//250 79//250 109//250
f 93//251 148//251 75//251
f 37//252 141//252 20//252
f 150//253 58//253 120//253
f 104//254 151//254 106//254
f 73//255 12//255 67//255
f 50//256 152//256 49//256
f 50//257 73//257 36//257
f 100//258 21//258 13//258
f 83//259 153//259 101//259
f 83//260 5//260 134//260
f 153//261 134//261 21//261
f 12//262 26//262 154//262
f 101//263 100//263 99//263
f 27//264 3//264 98//264
f 13//265 133//265 97//265
f 15//266 66//266 155//266
f 155//267 97//267 35//267
f 99//268 100//268 102//268
f 102//269 97//269 66//269
f 26//270 104//270 105//270
f 18//271 109//271 64//271
f 157//272 114//272 88//272
f 13//273 21//273 41//273
f 27//274 42//274 119//274
f 120//275 121//275 19//275
f 124//276 125//276 127//276
