# Blender 4.1.1
# www.blender.org
mtllib Cube.062_Cube.066.mtl
o Cube.062_Cube.066
v -1.434350 0.106916 -0.860218
v -1.496353 0.126580 -0.859645
v -1.498727 0.127594 -1.350790
v -1.455760 0.027563 -0.857023
v -1.523137 0.048756 -1.353745
v -1.434514 0.106864 -1.106347
v -1.493435 0.133865 -1.124781
v -1.462981 0.116836 -0.851828
v -1.517633 0.069002 -1.360632
v -1.525987 0.047135 -1.106347
v -1.506876 0.086176 -0.849836
v -1.462343 0.025416 -1.106347
v -1.442113 0.066867 -0.857461
v -1.480738 0.080300 -1.377145
v -1.440691 0.065275 -1.106347
v -1.495374 0.034157 -1.106347
v -1.524482 0.095177 -1.106347
v -1.468548 0.123712 -1.106347
v -1.440654 0.109974 -1.363713
v -1.499927 0.125592 -0.985526
v -1.529978 0.049000 -0.985526
v -1.517461 0.111795 -0.857036
v -1.464429 0.030149 -1.360179
v -1.461302 0.031949 -0.985526
v -1.519391 0.047349 -0.850561
v -1.450322 0.047810 -0.858903
v -1.435166 0.112787 -0.985526
v -1.466452 0.117717 -1.361063
v -1.495606 0.137949 -1.227627
v -1.505796 0.104875 -1.372637
v -1.527074 0.047985 -1.227167
v -1.517845 0.068737 -0.857981
v -1.465299 0.028010 -1.227167
v -1.446012 0.088597 -1.362383
v -1.474697 0.055746 -0.857022
v -1.451180 0.065536 -0.985526
v -1.453591 0.051005 -1.106347
v -1.442456 0.086772 -1.106347
v -1.502421 0.044427 -0.976565
v -1.508473 0.045280 -1.106347
v -1.482405 0.033973 -1.106347
v -1.519809 0.090207 -0.985526
v -1.513781 0.093339 -1.227349
v -1.506320 0.108823 -1.106347
v -1.515088 0.069336 -1.106347
v -1.467642 0.125883 -1.227480
v -1.449803 0.111669 -1.106347
v -1.480735 0.128337 -1.228485
v -1.454835 0.115836 -1.227206
v -1.449294 0.122743 -0.985526
v -1.531348 0.076195 -1.227462
v -1.504760 0.122889 -1.228463
v -1.507671 0.111821 -0.985526
v -1.493049 0.040254 -1.252029
v -1.513753 0.049419 -1.227167
v -1.450021 0.077410 -1.242966
v -1.460962 0.050125 -1.227232
v -1.461895 0.048219 -0.985526
v -1.472623 0.097365 -0.859889
v -1.511323 0.044987 -1.355021
v -1.463393 0.077988 -1.357979
v -1.484939 0.121962 -1.375548
v -1.446977 0.084435 -0.985526
v -1.480917 0.035202 -0.985526
v -1.530070 0.076105 -0.985526
v -1.473771 0.123836 -0.972412
vn 0.0719 0.9974 -0.0099
vn -0.1636 -0.9862 -0.0266
vn 0.7417 0.0051 -0.6707
vn -0.1620 -0.2647 -0.9506
vn 0.2652 0.0531 0.9627
vn 0.0720 0.9961 0.0514
vn -0.0142 -0.9990 -0.0420
vn -0.3906 -0.9204 -0.0174
vn -0.3796 -0.9248 0.0248
vn -0.1640 -0.9865 0.0008
vn 0.9948 0.0817 -0.0607
vn 0.9701 -0.2425 0.0098
vn 0.0981 0.0659 0.9930
vn 0.0458 -0.0950 0.9944
vn -0.2739 0.0501 -0.9604
vn -0.0943 0.0478 -0.9944
vn 0.6272 0.0929 -0.7733
vn -0.3868 -0.9219 0.0209
vn 0.3691 0.9293 0.0135
vn 0.9184 -0.3910 -0.0610
vn 0.9228 -0.3844 -0.0240
vn -0.5955 0.6454 -0.4784
vn 0.4665 -0.7231 -0.5094
vn 0.1652 0.3295 0.9296
vn 0.7412 -0.6701 -0.0403
vn 0.9301 -0.3662 -0.0266
vn -0.6473 -0.7623 0.0022
vn -0.2986 -0.9542 -0.0181
vn -0.3923 -0.9198 -0.0101
vn -0.9289 -0.3619 0.0778
vn -0.5994 0.7978 -0.0651
vn -0.8976 0.4407 0.0112
vn 0.6169 0.7868 0.0187
vn 0.1863 0.9820 -0.0295
vn 0.5436 0.8391 0.0218
vn 0.2600 0.9643 -0.0492
vn 0.5375 0.8391 -0.0842
vn 0.2998 0.9538 0.0204
vn 0.3464 0.9349 0.0768
vn 0.2864 0.9580 -0.0114
vn 0.6172 0.7856 -0.0425
vn 0.5743 0.8150 -0.0771
vn 0.0451 0.9990 0.0008
vn -0.9345 -0.3397 0.1062
vn -0.9882 -0.1500 -0.0317
vn -0.6938 0.7117 -0.1099
vn -0.8746 0.4827 0.0444
vn -0.9445 0.3266 -0.0340
vn -0.9564 0.2910 -0.0255
vn -0.5768 0.8157 -0.0438
vn -0.8714 0.4900 -0.0219
vn -0.5997 0.7982 0.0560
vn -0.1053 -0.9940 -0.0295
vn -0.3007 -0.9537 0.0095
vn -0.3011 -0.9532 0.0273
vn -0.1641 -0.9864 0.0012
vn 0.9447 -0.3231 -0.0553
vn -0.6471 -0.7620 0.0252
vn 0.9538 -0.2998 0.0202
vn 0.9952 0.0363 -0.0908
vn 0.9274 -0.3741 -0.0039
vn 0.9969 0.0363 0.0694
vn 0.7402 -0.6692 0.0657
vn -0.0102 0.0692 0.9975
vn -0.2876 -0.2413 0.9269
vn 0.0821 0.0584 0.9949
vn -0.1923 -0.0906 -0.9771
vn 0.1145 -0.4279 0.8966
vn -0.3843 -0.2277 -0.8947
vn -0.1881 -0.2701 -0.9443
vn 0.0759 0.3219 0.9437
vn -0.9919 0.0991 0.0790
vn -0.1560 0.0221 -0.9875
vn 0.9789 -0.1941 -0.0638
vn -0.1269 -0.3531 0.9269
vn 0.9959 0.0818 0.0388
vn 0.9228 -0.3844 0.0238
vn -0.0142 -0.9998 0.0103
vn -0.1634 -0.9851 0.0547
vn -0.8036 0.5847 0.1108
vn -0.8015 0.5832 -0.1321
vn -0.8971 0.4404 -0.0364
vn 0.2734 0.9614 0.0313
vn 0.0364 0.9975 0.0610
vn 0.8477 -0.5245 -0.0792
vn 0.9026 -0.4189 -0.0989
vn 0.9297 -0.3675 -0.0263
vn -0.4486 -0.8926 -0.0445
vn -0.3956 -0.9184 -0.0107
vn -0.8700 0.4886 -0.0662
vn -0.9560 0.2926 0.0215
vn -0.9813 -0.1474 0.1234
vn 0.5405 0.8413 0.0065
vn 0.3653 0.9307 0.0194
vn 0.1882 0.9804 -0.0583
vn 0.2996 0.9528 -0.0499
vn 0.3956 0.9184 0.0017
vn 0.5757 0.8169 0.0345
vn 0.2995 0.9530 -0.0451
vn 0.5388 0.8387 -0.0791
vn -0.6964 0.7140 -0.0724
vn -0.9679 0.2251 -0.1118
vn -0.8548 0.5175 0.0386
vn -0.8538 0.5202 -0.0221
vn -0.9522 0.3038 -0.0311
vn -0.8714 0.4900 0.0209
vn -0.8935 0.4487 -0.0150
vn -0.8717 0.4895 -0.0219
vn 0.1070 -0.9942 -0.0080
vn 0.1070 -0.9943 -0.0027
vn -0.1053 -0.9944 0.0119
vn 0.9809 -0.1924 -0.0281
vn 0.9813 -0.1924 0.0033
vn 0.9634 -0.2634 -0.0505
vn 0.9461 -0.3236 0.0093
vn 0.8495 -0.5256 0.0463
vn -0.0090 0.0704 0.9975
vn -0.1121 -0.0337 -0.9931
vn 0.1269 0.0852 0.9883
vn -0.9955 -0.0034 0.0952
vn 0.9740 -0.2166 -0.0667
vn 0.9726 -0.2163 0.0849
vn 0.9296 -0.3675 0.0277
vn -0.3750 -0.9255 0.0529
vn -0.3923 -0.9197 0.0142
vn -0.8623 0.4971 0.0970
vn -0.9396 -0.3416 0.0223
vn -0.9924 -0.0034 -0.1229
s 0
usemtl Fence
f 20//1 2//1 66//1
f 24//2 4//2 64//2
f 14//3 28//3 61//3
f 60//4 9//4 30//4
f 59//5 11//5 35//5
f 66//6 8//6 50//6
f 54//7 41//7 16//7
f 23//8 33//8 54//8
f 60//9 54//9 55//9
f 39//10 25//10 21//10
f 56//11 38//11 15//11
f 34//12 19//12 56//12
f 35//13 4//13 26//13
f 13//14 35//14 26//14
f 23//15 61//15 34//15
f 60//16 61//16 23//16
f 14//17 62//17 28//17
f 64//18 4//18 39//18
f 7//19 66//19 18//19
f 26//20 36//20 13//20
f 63//21 27//21 1//21
f 30//22 3//22 62//22
f 60//23 14//23 61//23
f 59//24 22//24 11//24
f 57//25 15//25 37//25
f 6//26 56//26 19//26
f 55//27 16//27 40//27
f 39//28 4//28 25//28
f 41//29 33//29 12//29
f 22//30 42//30 11//30
f 44//31 43//31 17//31
f 45//32 31//32 10//32
f 18//33 49//33 46//33
f 7//34 46//34 48//34
f 48//35 29//35 7//35
f 48//36 28//36 62//36
f 48//37 3//37 29//37
f 6//38 49//38 47//38
f 1//39 50//39 8//39
f 19//40 28//40 49//40
f 28//41 46//41 49//41
f 27//42 47//42 50//42
f 50//43 18//43 66//43
f 17//44 51//44 45//44
f 51//45 5//45 31//45
f 9//46 51//46 43//46
f 7//47 52//47 44//47
f 52//48 3//48 30//48
f 52//49 9//49 43//49
f 2//50 53//50 22//50
f 20//51 44//51 53//51
f 42//52 44//52 17//52
f 10//53 55//53 40//53
f 60//54 23//54 54//54
f 55//55 5//55 60//55
f 21//56 40//56 39//56
f 12//57 57//57 37//57
f 40//58 16//58 39//58
f 57//59 23//59 34//59
f 26//60 24//60 58//60
f 34//61 56//61 57//61
f 24//62 37//62 58//62
f 36//63 37//63 15//63
f 13//64 59//64 35//64
f 8//65 2//65 59//65
f 2//66 22//66 59//66
f 28//67 34//67 61//67
f 1//68 8//68 59//68
f 60//69 30//69 14//69
f 60//70 5//70 9//70
f 25//71 35//71 32//71
f 32//72 21//72 25//72
f 14//73 30//73 62//73
f 13//74 63//74 1//74
f 11//75 32//75 35//75
f 63//76 15//76 38//76
f 63//77 6//77 27//77
f 64//78 16//78 41//78
f 64//79 12//79 24//79
f 32//80 42//80 65//80
f 42//81 45//81 65//81
f 21//82 45//82 10//82
f 66//83 2//83 8//83
f 7//84 20//84 66//84
f 26//85 58//85 36//85
f 57//86 56//86 15//86
f 6//87 38//87 56//87
f 55//88 54//88 16//88
f 41//89 54//89 33//89
f 22//90 53//90 42//90
f 44//91 52//91 43//91
f 45//92 51//92 31//92
f 18//93 47//93 49//93
f 7//94 18//94 46//94
f 48//95 46//95 28//95
f 48//96 62//96 3//96
f 6//97 19//97 49//97
f 1//98 27//98 50//98
f 27//99 6//99 47//99
f 50//100 47//100 18//100
f 17//101 43//101 51//101
f 51//102 9//102 5//102
f 7//103 29//103 52//103
f 52//104 29//104 3//104
f 52//105 30//105 9//105
f 2//106 20//106 53//106
f 20//107 7//107 44//107
f 42//108 53//108 44//108
f 10//109 31//109 55//109
f 55//110 31//110 5//110
f 21//111 10//111 40//111
f 12//112 33//112 57//112
f 57//113 33//113 23//113
f 26//114 4//114 24//114
f 24//115 12//115 37//115
f 36//116 58//116 37//116
f 13//117 1//117 59//117
f 28//118 19//118 34//118
f 25//119 4//119 35//119
f 32//120 65//120 21//120
f 13//121 36//121 63//121
f 63//122 36//122 15//122
f 63//123 38//123 6//123
f 64//124 39//124 16//124
f 64//125 41//125 12//125
f 32//126 11//126 42//126
f 42//127 17//127 45//127
f 21//128 65//128 45//128
