# Blender 4.1.1
# www.blender.org
mtllib Cube.062_Cube.066.mtl
o Cube.062_Cube.066
v -3.494558 4.846408 9.852923
v -3.663779 4.844845 9.906590
v -3.670259 6.185297 9.909356
v -3.552991 4.837688 9.636350
v -3.736879 6.193362 9.694188
v -3.495006 5.518154 9.852780
v -3.655816 5.568464 9.926473
v -3.572699 4.823510 9.879997
v -3.721858 6.212158 9.749445
v -3.744658 5.518153 9.689765
v -3.692499 4.818073 9.796318
v -3.570958 5.518153 9.630489
v -3.515745 4.838883 9.743620
v -3.621162 6.257226 9.780279
v -3.511864 5.518153 9.739274
v -3.661107 5.518153 9.654346
v -3.740550 5.518154 9.820884
v -3.587893 5.518154 9.898763
v -3.511763 6.220568 9.861267
v -3.673533 5.188404 9.903893
v -3.755550 5.188404 9.694856
v -3.721388 4.837724 9.866239
v -3.576651 6.210921 9.643405
v -3.568117 5.188404 9.648319
v -3.726655 4.820052 9.690351
v -3.538150 4.842819 9.691608
v -3.496785 5.188404 9.868946
v -3.582172 6.213335 9.882400
v -3.661740 5.849156 9.937618
v -3.689551 6.244923 9.847351
v -3.747624 5.847900 9.692084
v -3.722436 4.840303 9.748723
v -3.579026 5.847900 9.637568
v -3.526386 6.216937 9.802924
v -3.604675 4.837686 9.713267
v -3.540491 5.188404 9.739986
v -3.547071 5.518153 9.700328
v -3.516681 5.518153 9.797944
v -3.680340 5.163947 9.682375
v -3.696858 5.518153 9.684703
v -3.625711 5.518153 9.653843
v -3.727796 5.188404 9.807320
v -3.711344 5.848397 9.815866
v -3.690981 5.518154 9.858127
v -3.714911 5.518153 9.750357
v -3.585420 5.848755 9.904687
v -3.536733 5.518154 9.865894
v -3.621154 5.851498 9.911385
v -3.550467 5.848007 9.877266
v -3.535344 5.188404 9.896118
v -3.759289 5.848705 9.769076
v -3.686724 5.851438 9.896516
v -3.694669 5.188404 9.866309
v -3.654762 5.915754 9.670985
v -3.711268 5.847900 9.695998
v -3.537328 5.891020 9.772392
v -3.567189 5.848078 9.697926
v -3.569735 5.188404 9.692724
v -3.599014 4.845510 9.826856
v -3.704636 6.196845 9.683902
v -3.573823 6.204918 9.773970
v -3.632627 6.252868 9.893985
v -3.529020 5.188404 9.791567
v -3.621651 5.188404 9.657198
v -3.755801 5.188404 9.768832
v -3.602148 5.152613 9.899101
vn 0.0719 0.0099 0.9974
vn -0.1636 0.0266 -0.9862
vn 0.7417 0.6707 0.0051
vn -0.1620 0.9506 -0.2647
vn 0.2652 -0.9627 0.0531
vn 0.0720 -0.0514 0.9961
vn -0.0142 0.0420 -0.9990
vn -0.3906 0.0174 -0.9204
vn -0.3796 -0.0248 -0.9248
vn -0.1640 -0.0008 -0.9865
vn 0.9948 0.0607 0.0817
vn 0.9701 -0.0098 -0.2425
vn 0.0981 -0.9930 0.0659
vn 0.0458 -0.9944 -0.0950
vn -0.2739 0.9604 0.0501
vn -0.0943 0.9944 0.0478
vn 0.6272 0.7733 0.0929
vn -0.3868 -0.0209 -0.9219
vn 0.3691 -0.0135 0.9293
vn 0.9184 0.0610 -0.3910
vn 0.9228 0.0240 -0.3844
vn -0.5955 0.4784 0.6454
vn 0.4665 0.5094 -0.7231
vn 0.1652 -0.9296 0.3295
vn 0.7412 0.0403 -0.6701
vn 0.9301 0.0266 -0.3662
vn -0.6473 -0.0022 -0.7623
vn -0.2986 0.0181 -0.9542
vn -0.3923 0.0102 -0.9198
vn -0.9289 -0.0778 -0.3620
vn -0.5994 0.0651 0.7978
vn -0.8976 -0.0112 0.4407
vn 0.6169 -0.0187 0.7868
vn 0.1863 0.0295 0.9820
vn 0.5436 -0.0218 0.8391
vn 0.2600 0.0492 0.9644
vn 0.5375 0.0842 0.8391
vn 0.2998 -0.0204 0.9538
vn 0.3464 -0.0768 0.9349
vn 0.2864 0.0114 0.9580
vn 0.6172 0.0425 0.7856
vn 0.5743 0.0771 0.8150
vn 0.0451 -0.0008 0.9990
vn -0.9345 -0.1062 -0.3397
vn -0.9882 0.0316 -0.1500
vn -0.6938 0.1099 0.7117
vn -0.8746 -0.0444 0.4827
vn -0.9445 0.0340 0.3266
vn -0.9564 0.0255 0.2910
vn -0.5768 0.0438 0.8157
vn -0.8714 0.0219 0.4900
vn -0.5997 -0.0560 0.7982
vn -0.1053 0.0294 -0.9940
vn -0.3007 -0.0095 -0.9537
vn -0.3011 -0.0273 -0.9532
vn -0.1641 -0.0012 -0.9864
vn 0.9447 0.0553 -0.3231
vn -0.6471 -0.0252 -0.7620
vn 0.9538 -0.0202 -0.2998
vn 0.9952 0.0908 0.0363
vn 0.9274 0.0039 -0.3741
vn 0.9969 -0.0694 0.0363
vn 0.7402 -0.0657 -0.6692
vn -0.0102 -0.9975 0.0692
vn -0.2876 -0.9269 -0.2413
vn 0.0821 -0.9949 0.0584
vn -0.1922 0.9772 -0.0907
vn 0.1145 -0.8966 -0.4278
vn -0.3843 0.8947 -0.2277
vn -0.1881 0.9443 -0.2701
vn 0.0759 -0.9437 0.3219
vn -0.9919 -0.0790 0.0991
vn -0.1559 0.9875 0.0221
vn 0.9789 0.0638 -0.1941
vn -0.1269 -0.9269 -0.3531
vn 0.9959 -0.0388 0.0818
vn 0.9228 -0.0238 -0.3844
vn -0.0142 -0.0103 -0.9998
vn -0.1634 -0.0547 -0.9850
vn -0.8036 -0.1108 0.5847
vn -0.8015 0.1321 0.5832
vn -0.8971 0.0364 0.4404
vn 0.2734 -0.0313 0.9614
vn 0.0364 -0.0610 0.9975
vn 0.8477 0.0792 -0.5245
vn 0.9026 0.0989 -0.4189
vn 0.9297 0.0263 -0.3675
vn -0.4486 0.0445 -0.8926
vn -0.3956 0.0107 -0.9184
vn -0.8700 0.0662 0.4886
vn -0.9560 -0.0215 0.2926
vn -0.9814 -0.1234 -0.1474
vn 0.5405 -0.0065 0.8413
vn 0.3653 -0.0194 0.9307
vn 0.1882 0.0583 0.9804
vn 0.2996 0.0499 0.9527
vn 0.3956 -0.0017 0.9184
vn 0.5757 -0.0345 0.8169
vn 0.2995 0.0451 0.9530
vn 0.5388 0.0791 0.8387
vn -0.6964 0.0724 0.7140
vn -0.9679 0.1118 0.2251
vn -0.8548 -0.0386 0.5175
vn -0.8538 0.0221 0.5202
vn -0.9522 0.0311 0.3038
vn -0.8714 -0.0209 0.4901
vn -0.8935 0.0150 0.4487
vn -0.8717 0.0219 0.4895
vn 0.1070 0.0080 -0.9942
vn 0.1070 0.0027 -0.9943
vn -0.1053 -0.0119 -0.9944
vn 0.9809 0.0281 -0.1924
vn 0.9813 -0.0033 -0.1924
vn 0.9633 0.0505 -0.2634
vn 0.9461 -0.0093 -0.3236
vn 0.8495 -0.0463 -0.5256
vn -0.0090 -0.9975 0.0704
vn -0.1121 0.9931 -0.0337
vn 0.1269 -0.9883 0.0852
vn -0.9955 -0.0952 -0.0034
vn 0.9740 0.0667 -0.2166
vn 0.9726 -0.0849 -0.2163
vn 0.9296 -0.0277 -0.3675
vn -0.3750 -0.0529 -0.9255
vn -0.3923 -0.0142 -0.9197
vn -0.8623 -0.0970 0.4971
vn -0.9396 -0.0223 -0.3416
vn -0.9924 0.1229 -0.0034
s 0
usemtl Fence
f 20//1 2//1 66//1
f 24//2 4//2 64//2
f 14//3 28//3 61//3
f 60//4 9//4 30//4
f 59//5 11//5 35//5
f 66//6 8//6 50//6
f 54//7 41//7 16//7
f 23//8 33//8 54//8
f 60//9 54//9 55//9
f 39//10 25//10 21//10
f 56//11 38//11 15//11
f 34//12 19//12 56//12
f 35//13 4//13 26//13
f 13//14 35//14 26//14
f 23//15 61//15 34//15
f 60//16 61//16 23//16
f 14//17 62//17 28//17
f 64//18 4//18 39//18
f 7//19 66//19 18//19
f 26//20 36//20 13//20
f 63//21 27//21 1//21
f 30//22 3//22 62//22
f 60//23 14//23 61//23
f 59//24 22//24 11//24
f 57//25 15//25 37//25
f 6//26 56//26 19//26
f 55//27 16//27 40//27
f 39//28 4//28 25//28
f 41//29 33//29 12//29
f 22//30 42//30 11//30
f 44//31 43//31 17//31
f 45//32 31//32 10//32
f 18//33 49//33 46//33
f 7//34 46//34 48//34
f 48//35 29//35 7//35
f 48//36 28//36 62//36
f 48//37 3//37 29//37
f 6//38 49//38 47//38
f 1//39 50//39 8//39
f 19//40 28//40 49//40
f 28//41 46//41 49//41
f 27//42 47//42 50//42
f 50//43 18//43 66//43
f 17//44 51//44 45//44
f 51//45 5//45 31//45
f 9//46 51//46 43//46
f 7//47 52//47 44//47
f 52//48 3//48 30//48
f 52//49 9//49 43//49
f 2//50 53//50 22//50
f 20//51 44//51 53//51
f 42//52 44//52 17//52
f 10//53 55//53 40//53
f 60//54 23//54 54//54
f 55//55 5//55 60//55
f 21//56 40//56 39//56
f 12//57 57//57 37//57
f 40//58 16//58 39//58
f 57//59 23//59 34//59
f 26//60 24//60 58//60
f 34//61 56//61 57//61
f 24//62 37//62 58//62
f 36//63 37//63 15//63
f 13//64 59//64 35//64
f 8//65 2//65 59//65
f 2//66 22//66 59//66
f 28//67 34//67 61//67
f 1//68 8//68 59//68
f 60//69 30//69 14//69
f 60//70 5//70 9//70
f 25//71 35//71 32//71
f 32//72 21//72 25//72
f 14//73 30//73 62//73
f 13//74 63//74 1//74
f 11//75 32//75 35//75
f 63//76 15//76 38//76
f 63//77 6//77 27//77
f 64//78 16//78 41//78
f 64//79 12//79 24//79
f 32//80 42//80 65//80
f 42//81 45//81 65//81
f 21//82 45//82 10//82
f 66//83 2//83 8//83
f 7//84 20//84 66//84
f 26//85 58//85 36//85
f 57//86 56//86 15//86
f 6//87 38//87 56//87
f 55//88 54//88 16//88
f 41//89 54//89 33//89
f 22//90 53//90 42//90
f 44//91 52//91 43//91
f 45//92 51//92 31//92
f 18//93 47//93 49//93
f 7//94 18//94 46//94
f 48//95 46//95 28//95
f 48//96 62//96 3//96
f 6//97 19//97 49//97
f 1//98 27//98 50//98
f 27//99 6//99 47//99
f 50//100 47//100 18//100
f 17//101 43//101 51//101
f 51//102 9//102 5//102
f 7//103 29//103 52//103
f 52//104 29//104 3//104
f 52//105 30//105 9//105
f 2//106 20//106 53//106
f 20//107 7//107 44//107
f 42//108 53//108 44//108
f 10//109 31//109 55//109
f 55//110 31//110 5//110
f 21//111 10//111 40//111
f 12//112 33//112 57//112
f 57//113 33//113 23//113
f 26//114 4//114 24//114
f 24//115 12//115 37//115
f 36//116 58//116 37//116
f 13//117 1//117 59//117
f 28//118 19//118 34//118
f 25//119 4//119 35//119
f 32//120 65//120 21//120
f 13//121 36//121 63//121
f 63//122 36//122 15//122
f 63//123 38//123 6//123
f 64//124 39//124 16//124
f 64//125 41//125 12//125
f 32//126 11//126 42//126
f 42//127 17//127 45//127
f 21//128 65//128 45//128
