# Blender 4.1.1
# www.blender.org
mtllib Cube.059_Cube.063.mtl
o Cube.059_Cube.063
v -4.008190 4.884395 12.161364
v -4.185654 4.882831 12.166104
v -4.192649 6.223283 12.166970
v -4.004410 4.875674 11.937075
v -4.197122 6.231348 11.941770
v -4.008583 5.556140 12.161103
v -4.183503 5.606450 12.187413
v -4.090772 4.861496 12.165755
v -4.197979 6.250144 11.999023
v -4.203372 5.556139 11.935366
v -4.182736 4.856062 12.052191
v -4.020054 5.556139 11.926474
v -3.998302 4.876870 12.050464
v -4.109748 6.295213 12.056520
v -3.993371 5.556139 12.047362
v -4.113285 5.556139 11.924451
v -4.235711 5.556140 12.062501
v -4.110567 5.556140 12.179583
v -4.027033 6.258556 12.164620
v -4.194283 5.226390 12.160811
v -4.215247 5.226390 11.937243
v -4.229848 4.875710 12.111388
v -4.029099 6.248911 11.937310
v -4.022257 5.226390 11.944394
v -4.186235 4.858038 11.940909
v -4.005439 4.880805 11.994285
v -4.014765 5.226390 12.176145
v -4.100542 6.251321 12.165442
v -4.192283 5.887142 12.196485
v -4.194027 6.282909 12.102047
v -4.206865 5.885889 11.936773
v -4.198334 4.878289 11.998171
v -4.029765 5.885889 11.931042
v -4.024942 6.254923 12.104509
v -4.075359 4.875671 11.996689
v -4.021078 5.226390 12.040125
v -4.016425 5.556139 12.000193
v -4.014235 5.556140 12.102408
v -4.139521 5.201936 11.946061
v -4.156039 5.556139 11.943730
v -4.079131 5.556139 11.933764
v -4.219698 5.226390 12.052996
v -4.206256 5.886383 12.065760
v -4.198386 5.556140 12.112007
v -4.191557 5.556139 12.001822
v -4.109830 5.886741 12.185961
v -4.052309 5.556140 12.162154
v -4.146019 5.889486 12.182508
v -4.068651 5.885993 12.169283
v -4.059336 5.226390 12.191584
v -4.239381 5.886691 12.007531
v -4.204917 5.889426 12.150074
v -4.204191 5.226390 12.118847
v -4.111790 5.953743 11.942196
v -4.173012 5.885889 11.950597
v -4.027006 5.929006 12.072141
v -4.035092 5.886064 11.992318
v -4.036099 5.226390 11.986615
v -4.101353 4.883496 12.107407
v -4.163293 6.234834 11.940806
v -4.062513 6.242904 12.063557
v -4.152231 6.290854 12.162611
v -4.024328 5.226390 12.092867
v -4.076157 5.226390 11.938108
v -4.235962 5.226390 12.008258
v -4.124358 5.190599 12.175964
vn -0.2069 0.0099 0.9783
vn 0.1158 0.0266 -0.9929
vn 0.7114 0.6706 0.2101
vn -0.0825 0.9506 -0.2992
vn 0.2401 -0.9627 0.1244
vn -0.2064 -0.0514 0.9771
vn 0.2628 0.0420 -0.9639
vn -0.1206 0.0174 -0.9925
vn -0.1088 -0.0248 -0.9938
vn 0.1154 -0.0008 -0.9933
vn 0.9334 0.0607 0.3538
vn 0.9993 -0.0098 0.0353
vn 0.0760 -0.9930 0.0904
vn 0.0703 -0.9944 -0.0786
vn -0.2771 0.9604 -0.0276
vn -0.1038 0.9944 0.0198
vn 0.5770 0.7733 0.2628
vn -0.1166 -0.0209 -0.9930
vn 0.0975 -0.0135 0.9951
vn 0.9907 0.0610 -0.1216
vn 0.9932 0.0240 -0.1141
vn -0.7508 0.4785 0.4554
vn 0.6484 0.5094 -0.5658
vn 0.0676 -0.9296 0.3623
vn 0.8977 0.0403 -0.4387
vn 0.9952 0.0266 -0.0945
vn -0.4111 -0.0022 -0.9116
vn -0.0228 0.0181 -0.9996
vn -0.1225 0.0101 -0.9924
vn -0.7925 -0.0778 -0.6049
vn -0.7968 0.0651 0.6007
vn -0.9845 -0.0112 0.1750
vn 0.3750 -0.0187 0.9268
vn -0.0927 0.0295 0.9953
vn 0.2901 -0.0218 0.9567
vn -0.0170 0.0492 0.9986
vn 0.2843 0.0842 0.9550
vn 0.0240 -0.0204 0.9995
vn 0.0742 -0.0768 0.9943
vn 0.0100 0.0114 0.9999
vn 0.3757 0.0425 0.9258
vn 0.3263 0.0771 0.9421
vn -0.2331 -0.0008 0.9724
vn -0.8040 -0.1062 -0.5850
vn -0.9081 0.0316 -0.4176
vn -0.8637 0.1099 0.4919
vn -0.9741 -0.0444 0.2219
vn -0.9980 0.0340 0.0524
vn -0.9996 0.0255 0.0150
vn -0.7800 0.0438 0.6243
vn -0.9730 0.0219 0.2297
vn -0.7972 -0.0560 0.6011
vn 0.1739 0.0294 -0.9843
vn -0.0250 -0.0095 -0.9996
vn -0.0256 -0.0273 -0.9993
vn 0.1153 -0.0012 -0.9933
vn 0.9973 0.0553 -0.0491
vn -0.4109 -0.0252 -0.9113
vn 0.9995 -0.0202 -0.0241
vn 0.9463 0.0908 0.3102
vn 0.9947 0.0039 -0.1029
vn 0.9479 -0.0694 0.3108
vn 0.8965 -0.0657 -0.4382
vn -0.0289 -0.9975 0.0637
vn -0.2095 -0.9269 -0.3115
vn 0.0627 -0.9949 0.0788
vn -0.1597 0.9771 -0.1403
vn 0.2284 -0.8966 -0.3795
vn -0.3062 0.8947 -0.3251
vn -0.1061 0.9443 -0.3116
vn -0.0161 -0.9437 0.3304
vn -0.9806 -0.0790 -0.1792
vn -0.1560 0.9875 -0.0219
vn 0.9944 0.0638 0.0843
vn -0.0242 -0.9269 -0.3744
vn 0.9344 -0.0388 0.3542
vn 0.9932 -0.0238 -0.1141
vn 0.2630 -0.0103 -0.9647
vn 0.1157 -0.0547 -0.9918
vn -0.9340 -0.1108 0.3396
vn -0.9316 0.1321 0.3387
vn -0.9839 0.0364 0.1749
vn -0.0034 -0.0314 0.9995
vn -0.2411 -0.0610 0.9686
vn 0.9598 0.0792 -0.2694
vn 0.9833 0.0989 -0.1528
vn 0.9951 0.0263 -0.0958
vn -0.1841 0.0445 -0.9819
vn -0.1261 0.0107 -0.9920
vn -0.9712 0.0662 0.2287
vn -0.9996 -0.0215 0.0167
vn -0.9022 -0.1234 -0.4132
vn 0.2866 -0.0065 0.9580
vn 0.0935 -0.0194 0.9954
vn -0.0904 0.0583 0.9942
vn 0.0243 0.0499 0.9985
vn 0.1260 -0.0017 0.9920
vn 0.3271 -0.0345 0.9444
vn 0.0240 0.0451 0.9987
vn 0.2857 0.0791 0.9550
vn -0.8667 0.0724 0.4935
vn -0.9924 0.1118 -0.0516
vn -0.9646 -0.0386 0.2607
vn -0.9644 0.0221 0.2636
vn -0.9991 0.0311 0.0284
vn -0.9730 -0.0209 0.2297
vn -0.9828 0.0150 0.1840
vn -0.9731 0.0219 0.2292
vn 0.3780 0.0080 -0.9258
vn 0.3780 0.0027 -0.9258
vn 0.1740 -0.0119 -0.9847
vn 0.9959 0.0281 0.0865
vn 0.9962 -0.0033 0.0866
vn 0.9986 0.0505 0.0134
vn 0.9987 -0.0093 -0.0492
vn 0.9617 -0.0463 -0.2700
vn -0.0281 -0.9975 0.0652
vn -0.0984 0.9931 -0.0634
vn 0.0983 -0.9883 0.1170
vn -0.9556 -0.0952 -0.2788
vn 0.9959 0.0667 0.0614
vn 0.9945 -0.0849 0.0613
vn 0.9950 -0.0277 -0.0958
vn -0.1042 -0.0529 -0.9931
vn -0.1225 -0.0142 -0.9924
vn -0.9661 -0.0969 0.2391
vn -0.8084 -0.0223 -0.5882
vn -0.9527 0.1229 -0.2779
s 0
usemtl Fence
f 20//1 2//1 66//1
f 24//2 4//2 64//2
f 14//3 28//3 61//3
f 60//4 9//4 30//4
f 59//5 11//5 35//5
f 66//6 8//6 50//6
f 54//7 41//7 16//7
f 23//8 33//8 54//8
f 60//9 54//9 55//9
f 39//10 25//10 21//10
f 56//11 38//11 15//11
f 34//12 19//12 56//12
f 35//13 4//13 26//13
f 13//14 35//14 26//14
f 23//15 61//15 34//15
f 60//16 61//16 23//16
f 14//17 62//17 28//17
f 64//18 4//18 39//18
f 7//19 66//19 18//19
f 26//20 36//20 13//20
f 63//21 27//21 1//21
f 30//22 3//22 62//22
f 60//23 14//23 61//23
f 59//24 22//24 11//24
f 57//25 15//25 37//25
f 6//26 56//26 19//26
f 55//27 16//27 40//27
f 39//28 4//28 25//28
f 41//29 33//29 12//29
f 22//30 42//30 11//30
f 44//31 43//31 17//31
f 45//32 31//32 10//32
f 18//33 49//33 46//33
f 7//34 46//34 48//34
f 48//35 29//35 7//35
f 48//36 28//36 62//36
f 48//37 3//37 29//37
f 6//38 49//38 47//38
f 1//39 50//39 8//39
f 19//40 28//40 49//40
f 28//41 46//41 49//41
f 27//42 47//42 50//42
f 50//43 18//43 66//43
f 17//44 51//44 45//44
f 51//45 5//45 31//45
f 9//46 51//46 43//46
f 7//47 52//47 44//47
f 52//48 3//48 30//48
f 52//49 9//49 43//49
f 2//50 53//50 22//50
f 20//51 44//51 53//51
f 42//52 44//52 17//52
f 10//53 55//53 40//53
f 60//54 23//54 54//54
f 55//55 5//55 60//55
f 21//56 40//56 39//56
f 12//57 57//57 37//57
f 40//58 16//58 39//58
f 57//59 23//59 34//59
f 26//60 24//60 58//60
f 34//61 56//61 57//61
f 24//62 37//62 58//62
f 36//63 37//63 15//63
f 13//64 59//64 35//64
f 8//65 2//65 59//65
f 2//66 22//66 59//66
f 28//67 34//67 61//67
f 1//68 8//68 59//68
f 60//69 30//69 14//69
f 60//70 5//70 9//70
f 25//71 35//71 32//71
f 32//72 21//72 25//72
f 14//73 30//73 62//73
f 13//74 63//74 1//74
f 11//75 32//75 35//75
f 63//76 15//76 38//76
f 63//77 6//77 27//77
f 64//78 16//78 41//78
f 64//79 12//79 24//79
f 32//80 42//80 65//80
f 42//81 45//81 65//81
f 21//82 45//82 10//82
f 66//83 2//83 8//83
f 7//84 20//84 66//84
f 26//85 58//85 36//85
f 57//86 56//86 15//86
f 6//87 38//87 56//87
f 55//88 54//88 16//88
f 41//89 54//89 33//89
f 22//90 53//90 42//90
f 44//91 52//91 43//91
f 45//92 51//92 31//92
f 18//93 47//93 49//93
f 7//94 18//94 46//94
f 48//95 46//95 28//95
f 48//96 62//96 3//96
f 6//97 19//97 49//97
f 1//98 27//98 50//98
f 27//99 6//99 47//99
f 50//100 47//100 18//100
f 17//101 43//101 51//101
f 51//102 9//102 5//102
f 7//103 29//103 52//103
f 52//104 29//104 3//104
f 52//105 30//105 9//105
f 2//106 20//106 53//106
f 20//107 7//107 44//107
f 42//108 53//108 44//108
f 10//109 31//109 55//109
f 55//110 31//110 5//110
f 21//111 10//111 40//111
f 12//112 33//112 57//112
f 57//113 33//113 23//113
f 26//114 4//114 24//114
f 24//115 12//115 37//115
f 36//116 58//116 37//116
f 13//117 1//117 59//117
f 28//118 19//118 34//118
f 25//119 4//119 35//119
f 32//120 65//120 21//120
f 13//121 36//121 63//121
f 63//122 36//122 15//122
f 63//123 38//123 6//123
f 64//124 39//124 16//124
f 64//125 41//125 12//125
f 32//126 11//126 42//126
f 42//127 17//127 45//127
f 21//128 65//128 45//128
