# Blender 4.1.1
# www.blender.org
mtllib Cube.059_Cube.063.mtl
o Cube.059_Cube.063
v -1.622546 0.952734 -0.874135
v -1.687569 0.954471 -0.873562
v -1.690132 0.954789 -1.364707
v -1.621161 0.870554 -0.870940
v -1.691771 0.872275 -1.367662
v -1.622690 0.952639 -1.120264
v -1.686781 0.962279 -1.138698
v -1.652804 0.954343 -0.865745
v -1.692085 0.893253 -1.374549
v -1.694061 0.869928 -1.120264
v -1.686500 0.912733 -0.863754
v -1.626893 0.866670 -1.120264
v -1.618923 0.912100 -0.871378
v -1.659757 0.914320 -1.391062
v -1.617116 0.910964 -1.120264
v -1.661053 0.865929 -1.120264
v -1.705910 0.916511 -1.120264
v -1.660057 0.959410 -1.120264
v -1.629450 0.953928 -1.377631
v -1.690731 0.952532 -0.999443
v -1.698412 0.870616 -0.999443
v -1.703762 0.934423 -0.870953
v -1.630207 0.870641 -1.374097
v -1.627700 0.873236 -0.999443
v -1.687782 0.871959 -0.864478
v -1.621538 0.891516 -0.872820
v -1.624955 0.958150 -0.999443
v -1.656384 0.954229 -1.374980
v -1.689998 0.965603 -1.241544
v -1.690637 0.931001 -1.386554
v -1.695341 0.870444 -1.241085
v -1.692215 0.892940 -0.871898
v -1.630451 0.868344 -1.241085
v -1.628684 0.931903 -1.376300
v -1.647157 0.892397 -0.870939
v -1.627268 0.908312 -0.999443
v -1.625563 0.893681 -1.120264
v -1.624761 0.931133 -1.120264
v -1.670666 0.873847 -0.990483
v -1.676718 0.872993 -1.120264
v -1.648539 0.869341 -1.120264
v -1.700043 0.913028 -0.999443
v -1.695118 0.917705 -1.241266
v -1.692234 0.934650 -1.120264
v -1.689732 0.894278 -1.120264
v -1.659787 0.961747 -1.241397
v -1.638711 0.953024 -1.120264
v -1.673047 0.960482 -1.242403
v -1.644699 0.955636 -1.241123
v -1.641286 0.963807 -0.999443
v -1.707255 0.896370 -1.241379
v -1.694627 0.948598 -1.242381
v -1.694361 0.937156 -0.999443
v -1.660505 0.872431 -1.265947
v -1.682937 0.875509 -1.241085
v -1.629440 0.920043 -1.256883
v -1.632403 0.890796 -1.241149
v -1.632772 0.888706 -0.999443
v -1.656681 0.932964 -0.873806
v -1.679376 0.871922 -1.368939
v -1.642450 0.916898 -1.371896
v -1.675323 0.953192 -1.389465
v -1.628459 0.927637 -0.999443
v -1.647449 0.870933 -0.999443
v -1.706002 0.896636 -0.999443
v -1.665110 0.958084 -0.986329
vn -0.2069 0.9783 -0.0099
vn 0.1158 -0.9929 -0.0266
vn 0.7114 0.2101 -0.6707
vn -0.0825 -0.2992 -0.9506
vn 0.2401 0.1244 0.9627
vn -0.2064 0.9771 0.0514
vn 0.2628 -0.9639 -0.0420
vn -0.1206 -0.9925 -0.0174
vn -0.1088 -0.9938 0.0248
vn 0.1154 -0.9933 0.0008
vn 0.9334 0.3538 -0.0607
vn 0.9993 0.0353 0.0098
vn 0.0760 0.0904 0.9930
vn 0.0703 -0.0786 0.9944
vn -0.2771 -0.0276 -0.9604
vn -0.1038 0.0198 -0.9944
vn 0.5770 0.2628 -0.7733
vn -0.1166 -0.9930 0.0209
vn 0.0975 0.9951 0.0135
vn 0.9907 -0.1216 -0.0610
vn 0.9932 -0.1141 -0.0240
vn -0.7508 0.4554 -0.4785
vn 0.6484 -0.5658 -0.5094
vn 0.0676 0.3623 0.9296
vn 0.8977 -0.4388 -0.0403
vn 0.9952 -0.0945 -0.0266
vn -0.4111 -0.9116 0.0022
vn -0.0228 -0.9996 -0.0181
vn -0.1225 -0.9924 -0.0101
vn -0.7925 -0.6049 0.0778
vn -0.7968 0.6007 -0.0651
vn -0.9845 0.1750 0.0112
vn 0.3750 0.9268 0.0187
vn -0.0927 0.9953 -0.0295
vn 0.2901 0.9567 0.0218
vn -0.0170 0.9986 -0.0492
vn 0.2843 0.9550 -0.0842
vn 0.0240 0.9995 0.0204
vn 0.0742 0.9943 0.0768
vn 0.0100 0.9999 -0.0114
vn 0.3757 0.9258 -0.0425
vn 0.3263 0.9421 -0.0771
vn -0.2331 0.9724 0.0008
vn -0.8040 -0.5850 0.1062
vn -0.9081 -0.4176 -0.0317
vn -0.8637 0.4919 -0.1099
vn -0.9741 0.2219 0.0444
vn -0.9980 0.0524 -0.0340
vn -0.9996 0.0150 -0.0255
vn -0.7800 0.6243 -0.0438
vn -0.9730 0.2297 -0.0219
vn -0.7972 0.6011 0.0560
vn 0.1740 -0.9843 -0.0295
vn -0.0250 -0.9996 0.0095
vn -0.0256 -0.9993 0.0273
vn 0.1153 -0.9933 0.0012
vn 0.9973 -0.0491 -0.0553
vn -0.4109 -0.9113 0.0252
vn 0.9995 -0.0241 0.0202
vn 0.9463 0.3103 -0.0908
vn 0.9947 -0.1029 -0.0039
vn 0.9479 0.3108 0.0694
vn 0.8965 -0.4382 0.0657
vn -0.0289 0.0637 0.9975
vn -0.2096 -0.3115 0.9269
vn 0.0627 0.0788 0.9949
vn -0.1597 -0.1403 -0.9771
vn 0.2284 -0.3795 0.8966
vn -0.3062 -0.3251 -0.8947
vn -0.1062 -0.3116 -0.9443
vn -0.0161 0.3303 0.9437
vn -0.9806 -0.1792 0.0790
vn -0.1560 -0.0219 -0.9875
vn 0.9944 0.0843 -0.0638
vn -0.0242 -0.3744 0.9269
vn 0.9344 0.3542 0.0388
vn 0.9932 -0.1141 0.0238
vn 0.2630 -0.9647 0.0103
vn 0.1157 -0.9918 0.0547
vn -0.9340 0.3396 0.1108
vn -0.9316 0.3387 -0.1321
vn -0.9839 0.1749 -0.0364
vn -0.0034 0.9995 0.0314
vn -0.2411 0.9686 0.0610
vn 0.9598 -0.2694 -0.0792
vn 0.9833 -0.1528 -0.0989
vn 0.9951 -0.0958 -0.0263
vn -0.1841 -0.9819 -0.0445
vn -0.1261 -0.9920 -0.0107
vn -0.9712 0.2287 -0.0662
vn -0.9996 0.0167 0.0215
vn -0.9022 -0.4132 0.1234
vn 0.2866 0.9580 0.0065
vn 0.0935 0.9954 0.0194
vn -0.0904 0.9942 -0.0583
vn 0.0243 0.9985 -0.0499
vn 0.1260 0.9920 0.0017
vn 0.3271 0.9444 0.0345
vn 0.0240 0.9987 -0.0451
vn 0.2857 0.9550 -0.0791
vn -0.8667 0.4935 -0.0724
vn -0.9924 -0.0516 -0.1118
vn -0.9647 0.2607 0.0386
vn -0.9644 0.2636 -0.0221
vn -0.9991 0.0284 -0.0311
vn -0.9730 0.2297 0.0209
vn -0.9828 0.1840 -0.0150
vn -0.9731 0.2292 -0.0219
vn 0.3780 -0.9258 -0.0080
vn 0.3780 -0.9258 -0.0027
vn 0.1740 -0.9847 0.0119
vn 0.9959 0.0865 -0.0281
vn 0.9962 0.0866 0.0033
vn 0.9986 0.0134 -0.0505
vn 0.9987 -0.0492 0.0093
vn 0.9618 -0.2700 0.0463
vn -0.0281 0.0652 0.9975
vn -0.0985 -0.0635 -0.9931
vn 0.0983 0.1170 0.9883
vn -0.9556 -0.2788 0.0952
vn 0.9959 0.0614 -0.0667
vn 0.9945 0.0613 0.0849
vn 0.9950 -0.0958 0.0277
vn -0.1043 -0.9931 0.0529
vn -0.1225 -0.9924 0.0142
vn -0.9661 0.2391 0.0969
vn -0.8084 -0.5882 0.0223
vn -0.9527 -0.2779 -0.1229
s 0
usemtl Fence
f 20//1 2//1 66//1
f 24//2 4//2 64//2
f 14//3 28//3 61//3
f 60//4 9//4 30//4
f 59//5 11//5 35//5
f 66//6 8//6 50//6
f 54//7 41//7 16//7
f 23//8 33//8 54//8
f 60//9 54//9 55//9
f 39//10 25//10 21//10
f 56//11 38//11 15//11
f 34//12 19//12 56//12
f 35//13 4//13 26//13
f 13//14 35//14 26//14
f 23//15 61//15 34//15
f 60//16 61//16 23//16
f 14//17 62//17 28//17
f 64//18 4//18 39//18
f 7//19 66//19 18//19
f 26//20 36//20 13//20
f 63//21 27//21 1//21
f 30//22 3//22 62//22
f 60//23 14//23 61//23
f 59//24 22//24 11//24
f 57//25 15//25 37//25
f 6//26 56//26 19//26
f 55//27 16//27 40//27
f 39//28 4//28 25//28
f 41//29 33//29 12//29
f 22//30 42//30 11//30
f 44//31 43//31 17//31
f 45//32 31//32 10//32
f 18//33 49//33 46//33
f 7//34 46//34 48//34
f 48//35 29//35 7//35
f 48//36 28//36 62//36
f 48//37 3//37 29//37
f 6//38 49//38 47//38
f 1//39 50//39 8//39
f 19//40 28//40 49//40
f 28//41 46//41 49//41
f 27//42 47//42 50//42
f 50//43 18//43 66//43
f 17//44 51//44 45//44
f 51//45 5//45 31//45
f 9//46 51//46 43//46
f 7//47 52//47 44//47
f 52//48 3//48 30//48
f 52//49 9//49 43//49
f 2//50 53//50 22//50
f 20//51 44//51 53//51
f 42//52 44//52 17//52
f 10//53 55//53 40//53
f 60//54 23//54 54//54
f 55//55 5//55 60//55
f 21//56 40//56 39//56
f 12//57 57//57 37//57
f 40//58 16//58 39//58
f 57//59 23//59 34//59
f 26//60 24//60 58//60
f 34//61 56//61 57//61
f 24//62 37//62 58//62
f 36//63 37//63 15//63
f 13//64 59//64 35//64
f 8//65 2//65 59//65
f 2//66 22//66 59//66
f 28//67 34//67 61//67
f 1//68 8//68 59//68
f 60//69 30//69 14//69
f 60//70 5//70 9//70
f 25//71 35//71 32//71
f 32//72 21//72 25//72
f 14//73 30//73 62//73
f 13//74 63//74 1//74
f 11//75 32//75 35//75
f 63//76 15//76 38//76
f 63//77 6//77 27//77
f 64//78 16//78 41//78
f 64//79 12//79 24//79
f 32//80 42//80 65//80
f 42//81 45//81 65//81
f 21//82 45//82 10//82
f 66//83 2//83 8//83
f 7//84 20//84 66//84
f 26//85 58//85 36//85
f 57//86 56//86 15//86
f 6//87 38//87 56//87
f 55//88 54//88 16//88
f 41//89 54//89 33//89
f 22//90 53//90 42//90
f 44//91 52//91 43//91
f 45//92 51//92 31//92
f 18//93 47//93 49//93
f 7//94 18//94 46//94
f 48//95 46//95 28//95
f 48//96 62//96 3//96
f 6//97 19//97 49//97
f 1//98 27//98 50//98
f 27//99 6//99 47//99
f 50//100 47//100 18//100
f 17//101 43//101 51//101
f 51//102 9//102 5//102
f 7//103 29//103 52//103
f 52//104 29//104 3//104
f 52//105 30//105 9//105
f 2//106 20//106 53//106
f 20//107 7//107 44//107
f 42//108 53//108 44//108
f 10//109 31//109 55//109
f 55//110 31//110 5//110
f 21//111 10//111 40//111
f 12//112 33//112 57//112
f 57//113 33//113 23//113
f 26//114 4//114 24//114
f 24//115 12//115 37//115
f 36//116 58//116 37//116
f 13//117 1//117 59//117
f 28//118 19//118 34//118
f 25//119 4//119 35//119
f 32//120 65//120 21//120
f 13//121 36//121 63//121
f 63//122 36//122 15//122
f 63//123 38//123 6//123
f 64//124 39//124 16//124
f 64//125 41//125 12//125
f 32//126 11//126 42//126
f 42//127 17//127 45//127
f 21//128 65//128 45//128
