# Blender 4.1.1
# www.blender.org
mtllib Cube.042_Cube.046.mtl
o Cube.042_Cube.046
v 0.567508 2.812618 -1.258061
v 0.541825 2.872381 -1.258476
v 0.091974 2.676966 -1.284496
v 0.567703 2.809407 -1.175871
v 0.085314 2.674031 -1.202234
v 0.342524 2.713637 -1.270870
v 0.300163 2.765204 -1.280190
v 0.563012 2.843732 -1.258628
v 0.079732 2.672369 -1.223534
v 0.310377 2.775654 -1.186873
v 0.549552 2.873712 -1.216310
v 0.337390 2.714100 -1.184953
v 0.569868 2.808818 -1.217419
v 0.078547 2.636984 -1.246076
v 0.343110 2.706901 -1.229371
v 0.323556 2.745310 -1.183535
v 0.307450 2.788321 -1.233148
v 0.327694 2.748075 -1.276889
v 0.104651 2.616235 -1.285518
v 0.425435 2.824507 -1.263078
v 0.419057 2.828311 -1.181138
v 0.536865 2.887452 -1.238001
v 0.104246 2.615075 -1.202162
v 0.447737 2.763748 -1.185157
v 0.546743 2.872989 -1.175613
v 0.566670 2.809819 -1.196890
v 0.452240 2.764576 -1.269992
v 0.096202 2.641945 -1.285145
v 0.205012 2.726863 -1.288838
v 0.070855 2.667696 -1.261881
v 0.199470 2.728192 -1.193699
v 0.539009 2.874881 -1.196862
v 0.225608 2.668769 -1.192889
v 0.105297 2.615204 -1.263473
v 0.558071 2.834040 -1.197163
v 0.449313 2.764732 -1.220186
v 0.339006 2.713946 -1.211948
v 0.340827 2.714685 -1.249357
v 0.438587 2.806672 -1.184445
v 0.317508 2.759914 -1.190277
v 0.328749 2.734001 -1.187190
v 0.420093 2.831470 -1.223451
v 0.201282 2.729774 -1.240899
v 0.313702 2.776527 -1.251529
v 0.313100 2.772652 -1.211271
v 0.217200 2.699143 -1.285580
v 0.336065 2.728303 -1.270937
v 0.210872 2.710815 -1.284106
v 0.223303 2.685215 -1.279763
v 0.445866 2.779734 -1.275316
v 0.195422 2.739989 -1.219362
v 0.201697 2.730091 -1.271811
v 0.423353 2.827223 -1.247654
v 0.190906 2.686402 -1.197677
v 0.204684 2.717049 -1.199001
v 0.213645 2.663515 -1.245356
v 0.225657 2.671411 -1.215270
v 0.446305 2.768995 -1.200503
v 0.553224 2.843190 -1.237628
v 0.089142 2.662167 -1.202195
v 0.103159 2.628976 -1.247988
v 0.075269 2.653391 -1.284494
v 0.449604 2.766581 -1.239457
v 0.439664 2.781718 -1.182466
v 0.417030 2.836275 -1.206967
v 0.447994 2.806576 -1.268441
vn -0.0535 0.2237 -0.9732
vn -0.0172 -0.1556 0.9877
vn -0.3170 -0.9124 -0.2591
vn -0.9140 -0.3192 0.2505
vn 0.9818 0.1729 -0.0785
vn 0.0026 0.2479 -0.9688
vn 0.0293 -0.2952 0.9550
vn -0.1043 0.0643 0.9925
vn -0.0610 0.0704 0.9957
vn 0.0077 -0.1443 0.9895
vn 0.3359 -0.8641 -0.3749
vn 0.4142 -0.9085 -0.0546
vn 0.9418 0.3339 -0.0397
vn 0.9340 0.3331 0.1293
vn -0.9908 -0.1344 -0.0173
vn -0.9499 -0.3047 -0.0699
vn -0.4629 -0.8288 -0.3144
vn -0.0677 0.0760 0.9948
vn 0.0915 -0.0446 -0.9948
vn 0.3398 -0.9353 0.0985
vn 0.3748 -0.9224 0.0929
vn -0.7224 0.5119 -0.4648
vn -0.2261 -0.8203 0.5254
vn 0.8913 0.3268 -0.3143
vn 0.3084 -0.8544 0.4181
vn 0.3741 -0.9245 0.0732
vn -0.2006 0.3410 0.9184
vn -0.0657 -0.0257 0.9975
vn -0.0984 0.0689 0.9928
vn -0.2733 0.7323 0.6237
vn -0.3575 0.7260 -0.5874
vn -0.3806 0.9117 -0.1547
vn 0.2057 -0.2990 -0.9318
vn -0.0247 0.1121 -0.9934
vn 0.1755 -0.2189 -0.9598
vn -0.0120 0.0350 -0.9993
vn 0.0761 -0.2563 -0.9636
vn 0.0683 0.0255 -0.9973
vn 0.1399 0.0022 -0.9902
vn 0.0336 0.0255 -0.9991
vn 0.1500 -0.3243 -0.9340
vn 0.0990 -0.2924 -0.9511
vn -0.0546 0.2518 -0.9662
vn -0.2512 0.7550 0.6057
vn -0.4126 0.8012 0.4334
vn -0.4298 0.7649 -0.4798
vn -0.3442 0.9174 -0.1999
vn -0.4323 0.9011 -0.0344
vn -0.4266 0.9044 0.0036
vn -0.3302 0.7202 -0.6101
vn -0.4040 0.8900 -0.2113
vn -0.2469 0.7752 -0.5814
vn 0.0040 -0.2096 0.9778
vn -0.0414 -0.0126 0.9991
vn -0.0253 -0.0049 0.9997
vn 0.0080 -0.1440 0.9895
vn 0.3505 -0.9362 0.0263
vn -0.1795 0.3501 0.9194
vn 0.4214 -0.9069 0.0053
vn 0.3118 -0.8898 -0.3333
vn 0.3943 -0.9153 0.0828
vn 0.4589 -0.8267 -0.3255
vn 0.4048 -0.8106 0.4231
vn 0.9024 0.4307 -0.0107
vn 0.7499 0.5526 0.3638
vn 0.9377 0.3463 -0.0278
vn -0.9631 -0.2530 0.0920
vn 0.8964 0.1372 0.4214
vn -0.9544 -0.0930 0.2838
vn -0.9183 -0.2954 0.2637
vn 0.8691 0.4077 -0.2800
vn -0.3312 0.9215 0.2026
vn -0.9664 -0.2558 -0.0268
vn 0.3469 -0.9318 -0.1073
vn 0.8223 0.3807 0.4229
vn 0.4272 -0.8249 -0.3701
vn 0.4186 -0.9032 0.0954
vn 0.0772 -0.2743 0.9585
vn 0.0571 -0.1227 0.9908
vn -0.2626 0.9121 -0.3147
vn -0.4836 0.8121 -0.3266
vn -0.4239 0.8920 -0.1571
vn 0.0672 0.0550 -0.9962
vn -0.0030 0.2831 -0.9591
vn 0.3047 -0.9202 0.2459
vn 0.3009 -0.9450 0.1279
vn 0.3742 -0.9243 0.0745
vn -0.1543 0.1118 0.9817
vn -0.1003 0.0720 0.9923
vn -0.4438 0.8705 -0.2125
vn -0.3836 0.9235 0.0043
vn -0.2683 0.8585 0.4370
vn 0.1600 -0.2218 -0.9619
vn 0.0953 -0.0385 -0.9947
vn -0.0501 0.0983 -0.9939
vn 0.0041 -0.0030 -1.0000
vn 0.0921 -0.0755 -0.9929
vn 0.2015 -0.2481 -0.9476
vn 0.0084 -0.0008 -1.0000
vn 0.0813 -0.2556 -0.9634
vn -0.3967 0.7829 -0.4793
vn -0.5053 0.8605 0.0653
vn -0.3441 0.9080 -0.2391
vn -0.3994 0.8834 -0.2452
vn -0.4310 0.9023 -0.0102
vn -0.3649 0.9073 -0.2090
vn -0.4035 0.9000 -0.1649
vn -0.4041 0.8901 -0.2106
vn 0.1085 -0.3853 0.9164
vn 0.1133 -0.3832 0.9167
vn 0.0418 -0.1931 0.9803
vn 0.3802 -0.9186 -0.1076
vn 0.4091 -0.9063 -0.1061
vn 0.3579 -0.9331 -0.0359
vn 0.4102 -0.9115 0.0297
vn 0.4201 -0.8715 0.2530
vn 0.9028 0.4300 -0.0122
vn -0.9499 -0.3123 0.0132
vn 0.9475 0.3126 -0.0669
vn -0.3103 0.9013 0.3023
vn 0.3439 -0.9352 -0.0845
vn 0.4819 -0.8729 -0.0765
vn 0.4236 -0.9026 0.0774
vn -0.0335 0.0776 0.9964
vn -0.0762 0.0787 0.9940
vn -0.2923 0.9320 -0.2145
vn -0.3298 0.7251 0.6045
vn -0.5084 0.8109 0.2899
s 0
usemtl Fence2
f 20//1 2//1 66//1
f 24//2 4//2 64//2
f 14//3 28//3 61//3
f 60//4 9//4 30//4
f 59//5 11//5 35//5
f 66//6 8//6 50//6
f 54//7 41//7 16//7
f 23//8 33//8 54//8
f 60//9 54//9 55//9
f 39//10 25//10 21//10
f 56//11 38//11 15//11
f 34//12 19//12 56//12
f 35//13 4//13 26//13
f 13//14 35//14 26//14
f 23//15 61//15 34//15
f 60//16 61//16 23//16
f 14//17 62//17 28//17
f 64//18 4//18 39//18
f 7//19 66//19 18//19
f 26//20 36//20 13//20
f 63//21 27//21 1//21
f 30//22 3//22 62//22
f 60//23 14//23 61//23
f 59//24 22//24 11//24
f 57//25 15//25 37//25
f 6//26 56//26 19//26
f 55//27 16//27 40//27
f 39//28 4//28 25//28
f 41//29 33//29 12//29
f 22//30 42//30 11//30
f 44//31 43//31 17//31
f 45//32 31//32 10//32
f 18//33 49//33 46//33
f 7//34 46//34 48//34
f 48//35 29//35 7//35
f 48//36 28//36 62//36
f 48//37 3//37 29//37
f 6//38 49//38 47//38
f 1//39 50//39 8//39
f 19//40 28//40 49//40
f 28//41 46//41 49//41
f 27//42 47//42 50//42
f 50//43 18//43 66//43
f 17//44 51//44 45//44
f 51//45 5//45 31//45
f 9//46 51//46 43//46
f 7//47 52//47 44//47
f 52//48 3//48 30//48
f 52//49 9//49 43//49
f 2//50 53//50 22//50
f 20//51 44//51 53//51
f 42//52 44//52 17//52
f 10//53 55//53 40//53
f 60//54 23//54 54//54
f 55//55 5//55 60//55
f 21//56 40//56 39//56
f 12//57 57//57 37//57
f 40//58 16//58 39//58
f 57//59 23//59 34//59
f 26//60 24//60 58//60
f 34//61 56//61 57//61
f 24//62 37//62 58//62
f 36//63 37//63 15//63
f 13//64 59//64 35//64
f 8//65 2//65 59//65
f 2//66 22//66 59//66
f 28//67 34//67 61//67
f 1//68 8//68 59//68
f 60//69 30//69 14//69
f 60//70 5//70 9//70
f 25//71 35//71 32//71
f 32//72 21//72 25//72
f 14//73 30//73 62//73
f 13//74 63//74 1//74
f 11//75 32//75 35//75
f 63//76 15//76 38//76
f 63//77 6//77 27//77
f 64//78 16//78 41//78
f 64//79 12//79 24//79
f 32//80 42//80 65//80
f 42//81 45//81 65//81
f 21//82 45//82 10//82
f 66//83 2//83 8//83
f 7//84 20//84 66//84
f 26//85 58//85 36//85
f 57//86 56//86 15//86
f 6//87 38//87 56//87
f 55//88 54//88 16//88
f 41//89 54//89 33//89
f 22//90 53//90 42//90
f 44//91 52//91 43//91
f 45//92 51//92 31//92
f 18//93 47//93 49//93
f 7//94 18//94 46//94
f 48//95 46//95 28//95
f 48//96 62//96 3//96
f 6//97 19//97 49//97
f 1//98 27//98 50//98
f 27//99 6//99 47//99
f 50//100 47//100 18//100
f 17//101 43//101 51//101
f 51//102 9//102 5//102
f 7//103 29//103 52//103
f 52//104 29//104 3//104
f 52//105 30//105 9//105
f 2//106 20//106 53//106
f 20//107 7//107 44//107
f 42//108 53//108 44//108
f 10//109 31//109 55//109
f 55//110 31//110 5//110
f 21//111 10//111 40//111
f 12//112 33//112 57//112
f 57//113 33//113 23//113
f 26//114 4//114 24//114
f 24//115 12//115 37//115
f 36//116 58//116 37//116
f 13//117 1//117 59//117
f 28//118 19//118 34//118
f 25//119 4//119 35//119
f 32//120 65//120 21//120
f 13//121 36//121 63//121
f 63//122 36//122 15//122
f 63//123 38//123 6//123
f 64//124 39//124 16//124
f 64//125 41//125 12//125
f 32//126 11//126 42//126
f 42//127 17//127 45//127
f 21//128 65//128 45//128
