# Blender 4.1.1
# www.blender.org
mtllib arrows.mtl
o arrows
v -0.135871 0.064841 -0.265109
v -0.173014 0.064841 -0.475760
v 0.143964 0.064841 -0.338343
v 0.114992 0.064841 -0.502651
v 0.155317 0.064841 -0.273958
v 0.294335 0.048227 -0.449566
v 0.103639 0.064841 -0.567036
v 0.180748 0.015000 -0.592380
v -0.101472 0.015000 -0.655804
v 0.180748 0.064841 -0.592380
v -0.101472 0.064841 -0.655804
v -0.110571 0.064841 -0.591061
v -0.255633 0.048227 -0.761711
v -0.078252 0.064841 -0.821022
v -0.069153 0.064841 -0.885765
v -0.110571 0.015000 -0.591061
v -0.255633 0.031613 -0.761711
v -0.078252 0.015000 -0.821022
v -0.069153 0.015000 -0.885765
v 0.210517 0.015000 -0.804199
v 0.210517 0.064841 -0.804199
v -0.135871 0.015000 -0.265109
v 0.143964 0.015000 -0.338343
v -0.173014 0.015000 -0.475760
v 0.114992 0.015000 -0.502651
v 0.155317 0.015000 -0.273958
v 0.294335 0.031613 -0.449566
v 0.103639 0.015000 -0.567036
v 0.035000 -0.035000 0.000000
v 0.035000 0.035000 0.000000
v 0.025550 -0.025550 -0.900000
v 0.025550 0.025550 -0.900000
v -0.035000 0.035000 0.000000
v -0.035000 -0.035000 0.000000
v -0.025550 0.025550 -0.900000
v -0.025550 -0.025550 -0.900000
vn 0.0638 0.9979 -0.0112
vn -0.0000 1.0000 -0.0000
vn 0.0973 0.9951 -0.0171
vn 0.0638 0.9979 -0.0113
vn -0.2193 -0.0000 0.9757
vn -0.0642 0.9979 -0.0090
vn -0.0978 0.9951 -0.0137
vn 0.9903 -0.0000 0.1392
vn -0.7619 -0.0000 0.6477
vn -0.0978 -0.9951 -0.0137
vn -0.0642 -0.9979 -0.0090
vn 0.0582 -0.0000 -0.9983
vn -0.0000 -1.0000 -0.0000
vn 0.0638 -0.9979 -0.0112
vn -0.0641 -0.9979 -0.0090
vn -0.9848 -0.0000 0.1736
vn -0.0930 -0.0000 -0.9957
vn -0.5539 -0.0000 -0.8326
vn 0.0638 -0.9979 -0.0113
vn 0.0973 -0.9951 -0.0171
vn 0.7841 -0.0000 0.6207
vn 0.5245 -0.0000 -0.8514
vn 0.2532 -0.0000 0.9674
vn -0.0641 0.9979 -0.0090
vn 0.9999 -0.0000 -0.0105
vn -0.0000 -0.0000 1.0000
vn -0.0000 -0.0000 -1.0000
vn -0.9999 -0.0000 -0.0105
vn -0.0000 0.9999 -0.0105
vn -0.0000 -0.9999 -0.0105
vt 5.667862 13.320610
vt -6.811575 18.730690
vt -5.349236 10.437370
vt 4.527240 19.789400
vt 11.348330 17.645100
vt 5.392665 13.265620
vt 5.837514 10.730380
vt 4.257452 19.735359
vt 3.812604 22.270611
vt 2.552779 -1.829243
vt 0.590551 9.558889
vt 0.590551 -1.829243
vt 2.552779 9.558889
vt -3.726112 25.776320
vt -9.830313 29.946270
vt -4.082623 23.227150
vt -2.816322 32.281590
vt -2.459816 34.830761
vt -2.552779 25.011789
vt -0.590551 22.437811
vt -0.590551 25.011789
vt -2.552779 22.437811
vt 2.552779 20.549360
vt 1.244626 29.367220
vt 0.590551 20.549360
vt 1.898701 29.367220
vt 10.137750 29.989269
vt 4.033555 25.819321
vt 4.390066 23.270149
vt 3.123765 32.324589
vt 2.767258 34.873760
vt -0.590551 4.955544
vt -2.552779 -6.432589
vt -0.590551 -6.432589
vt -2.552779 4.955544
vt 6.811575 18.730690
vt -5.667862 13.320610
vt 5.349236 10.437370
vt -4.527240 19.789400
vt -0.590551 32.506710
vt -2.552779 24.085461
vt -0.590551 24.085461
vt -2.552779 32.506710
vt 3.994949 25.819050
vt -8.288078 31.661360
vt -7.116063 23.322060
vt 3.080775 32.323711
vt 2.552779 9.560040
vt 0.590551 12.134020
vt 0.590551 9.560040
vt 2.552779 12.134020
vt -2.552779 34.154369
vt -0.590551 31.580391
vt -0.590551 34.154369
vt -2.552779 31.580391
vt 0.590551 -5.040760
vt 2.552779 6.347374
vt 0.590551 6.347374
vt 2.552779 -5.040760
vt 1.244626 8.230585
vt 2.552779 17.048450
vt 0.590551 17.048450
vt 1.898701 8.230585
vt -5.698429 13.319270
vt -11.654100 17.698750
vt -6.143277 10.784030
vt -4.563215 19.789009
vt -4.118367 22.324261
vt -1.244626 21.069901
vt -2.552779 12.252040
vt -0.590551 12.252040
vt -1.898701 21.069901
vt 2.552779 18.702600
vt 0.590551 21.276569
vt 0.590551 18.702600
vt 2.552779 21.276569
vt 0.590551 11.207690
vt 2.552779 19.628950
vt 0.590551 19.628950
vt 2.552779 11.207690
vt -0.590551 8.234691
vt -1.898701 -0.583172
vt -1.244626 -0.583172
vt -2.552779 8.234691
vt -2.552779 -2.532429
vt -0.590551 8.855702
vt -2.552779 8.855702
vt -0.590551 -2.532429
vt 8.288078 31.661360
vt -3.994949 25.819050
vt 7.116063 23.322060
vt -3.080775 32.323711
vt 1.005906 35.420559
vt -1.377953 -0.014468
vt 1.377953 -0.014468
vt -1.005906 35.420559
vt -1.377953 1.377953
vt 1.377953 -1.377953
vt 1.377953 1.377953
vt -1.377953 -1.377953
vt -1.005906 -1.005906
vt 1.005906 1.005906
vt -1.005906 1.005906
vt 1.005906 -1.005906
s 0
usemtl wood.001
f 3/1/1 2/2/2 1/3/2
f 2/2/2 3/1/1 4/4/1
f 6/5/3 3/6/4 5/7/3
f 3/6/1 6/5/3 4/8/1
f 4/8/1 6/5/3 7/9/3
f 10/10/5 9/11/5 8/12/5
f 9/11/5 10/10/5 11/13/5
f 11/14/6 13/15/7 12/16/7
f 13/15/7 11/14/6 14/17/6
f 13/15/7 14/17/6 15/18/7
f 11/19/8 16/20/8 9/21/8
f 16/20/8 11/19/8 12/22/8
f 12/23/9 17/24/9 16/25/9
f 17/24/9 12/23/9 13/26/9
f 17/27/10 9/28/11 16/29/10
f 9/28/11 17/27/10 18/30/11
f 18/30/11 17/27/10 19/31/10
f 18/32/12 21/33/12 20/34/12
f 21/33/12 18/32/12 14/35/12
f 24/36/13 23/37/14 22/38/13
f 23/37/14 24/36/13 25/39/14
f 20/40/8 10/41/8 8/42/8
f 10/41/8 20/40/8 21/43/8
f 9/44/15 20/45/13 8/46/13
f 20/45/13 9/44/15 18/47/15
f 5/48/16 23/49/16 26/50/16
f 23/49/16 5/48/16 3/51/16
f 15/52/8 18/53/8 19/54/8
f 18/53/8 15/52/8 14/55/8
f 24/56/17 4/57/17 25/58/17
f 4/57/17 24/56/17 2/59/17
f 17/60/18 15/61/18 19/62/18
f 15/61/18 17/60/18 13/63/18
f 23/64/19 27/65/20 26/66/20
f 27/65/20 23/64/19 25/67/19
f 27/65/20 25/67/19 28/68/20
f 27/69/21 5/70/21 26/71/21
f 5/70/21 27/69/21 6/72/21
f 4/73/16 28/74/16 25/75/16
f 28/74/16 4/73/16 7/76/16
f 22/77/16 2/78/16 24/79/16
f 2/78/16 22/77/16 1/80/16
f 28/81/22 6/82/22 27/83/22
f 6/82/22 28/81/22 7/84/22
f 1/85/23 23/86/23 3/87/23
f 23/86/23 1/85/23 22/88/23
f 21/89/2 11/90/24 10/91/2
f 11/90/24 21/89/2 14/92/24
usemtl woodDark.001
f 31/93/25 30/94/25 29/95/25
f 30/94/25 31/93/25 32/96/25
f 33/97/26 29/98/26 30/99/26
f 29/98/26 33/97/26 34/100/26
f 31/101/27 35/102/27 32/103/27
f 35/102/27 31/101/27 36/104/27
f 33/95/28 36/96/28 34/94/28
f 36/96/28 33/95/28 35/93/28
f 32/93/29 33/94/29 30/95/29
f 33/94/29 32/93/29 35/96/29
f 36/93/30 29/94/30 34/95/30
f 29/94/30 36/93/30 31/96/30
usemtl _defaultMat
f 30/99/27 29/98/27 33/97/27
f 34/100/27 33/97/27 29/98/27
