# Blender 4.1.1
# www.blender.org
mtllib Plane.010_Plane.021.mtl
o Plane.010_Plane.021
v 9.103444 4.977489 9.817014
v 9.086179 4.438482 9.768314
v 9.087554 4.990660 9.676854
v 9.070289 4.451656 9.628154
v 9.097871 5.058159 9.753628
v 9.060101 4.681328 9.794094
v 9.078234 4.445068 9.698233
v 9.044211 4.694499 9.653934
v 9.033701 4.754015 9.732318
v 9.221495 4.876323 9.432715
v 9.266286 4.339424 9.378590
v 9.362591 4.887472 9.438887
v 9.407386 4.350573 9.384764
v 9.285886 4.955692 9.443239
v 9.247371 4.584106 9.369042
v 9.336835 4.344997 9.381677
v 9.388469 4.595255 9.375214
v 9.313194 4.657217 9.358142
v 9.674786 4.985002 9.721376
v 9.770405 4.452128 9.711355
v 9.644748 4.977014 9.859598
v 9.740367 4.444140 9.849575
v 9.646623 5.054251 9.791864
v 9.760194 4.697223 9.723303
v 9.755385 4.448136 9.780465
v 9.730159 4.689234 9.861523
v 9.753427 4.761624 9.798161
v 8.886415 4.988903 10.351606
v 8.885284 4.450418 10.294777
v 8.785026 4.978725 10.450034
v 8.783895 4.440244 10.393204
v 8.835875 5.057827 10.408631
v 8.909583 4.689688 10.344543
v 8.834592 4.445331 10.343990
v 8.808194 4.679513 10.442968
v 8.873487 4.748612 10.415409
v 9.564773 4.986129 9.772604
v 9.607016 4.446981 9.745536
v 9.456023 4.982161 9.681890
v 9.498269 4.443016 9.654821
v 9.504593 5.058249 9.730967
v 9.566369 4.686150 9.783805
v 9.552641 4.444997 9.700179
v 9.457623 4.682181 9.693088
v 9.493681 4.748013 9.757609
v 9.284051 4.985311 10.328345
v 9.284051 4.443835 10.328346
v 9.319016 4.985311 10.191056
v 9.319016 4.443835 10.191057
v 9.301535 5.059734 10.259703
v 9.251041 4.687057 10.319940
v 9.301535 4.443835 10.259703
v 9.286005 4.687057 10.182651
v 9.248462 4.753017 10.246187
v 8.815975 5.006093 9.459304
v 8.815975 4.464617 9.459304
v 8.737927 5.006093 9.577537
v 8.737927 4.464617 9.577538
v 8.776953 5.080517 9.518421
v 8.844403 4.707839 9.478070
v 8.776953 4.464617 9.518422
v 8.766358 4.707839 9.596304
v 8.822657 4.773799 9.548591
vn 0.9898 0.1397 0.0266
vn 0.9763 -0.2097 0.0532
vn 0.9356 -0.1759 -0.3062
vn 0.9619 0.1629 -0.2195
vn -0.1727 0.0610 0.9831
vn -0.2008 -0.2855 0.9371
vn 0.1610 -0.2570 0.9529
vn 0.0751 0.0806 0.9939
vn -0.9433 0.0128 -0.3317
vn -0.8615 -0.3229 -0.3920
vn -0.9385 -0.3433 -0.0376
vn -0.9960 -0.0012 -0.0890
vn -0.5930 0.2558 -0.7635
vn -0.5465 -0.0847 -0.8331
vn -0.8065 -0.1108 -0.5808
vn -0.7711 0.2380 -0.5906
vn 0.7035 0.2621 -0.6606
vn 0.7687 -0.0815 -0.6344
vn 0.4899 -0.0917 -0.8669
vn 0.5126 0.2551 -0.8199
vn 0.9161 0.1731 0.3617
vn 0.8933 -0.1729 0.4149
vn 0.9829 -0.1729 0.0630
vn 0.9775 0.1731 0.1206
vn -0.7469 0.1731 -0.6420
vn -0.7079 -0.1728 -0.6849
vn -0.9080 -0.1728 -0.3817
vn -0.8839 0.1731 -0.4344
vn 0.9880 0.1168 -0.1010
vn 0.9554 -0.1591 0.2489
vn 0.8728 -0.0906 -0.4796
vn -0.0465 0.0354 0.9983
vn -0.3906 -0.2289 0.8916
vn 0.3428 -0.1709 0.9237
vn -0.9764 -0.0302 -0.2139
vn -0.7912 -0.2386 -0.5631
vn -0.9473 -0.2801 0.1554
vn -0.6914 0.2138 -0.6901
vn -0.3819 -0.0077 -0.9242
vn -0.9089 -0.0606 -0.4126
vn -0.6914 0.2137 -0.6901
vn 0.6192 0.2256 -0.7521
vn 0.8785 -0.0131 -0.4775
vn 0.3133 -0.0338 -0.9491
vn 0.6192 0.2256 -0.7522
vn 0.9597 0.1387 0.2444
vn 0.8043 -0.1055 0.5848
vn 0.9860 -0.1055 -0.1288
vn 0.9597 0.1387 0.2445
vn -0.8265 0.1387 -0.5456
vn -0.5681 -0.1055 -0.8162
vn -0.9738 -0.1055 -0.2016
s 0
usemtl Material.001
f 7//1 8//1 9//1
f 9//2 3//2 5//2
f 1//3 9//3 5//3
f 6//4 7//4 9//4
f 16//5 17//5 18//5
f 18//6 12//6 14//6
f 10//7 18//7 14//7
f 15//8 16//8 18//8
f 25//9 26//9 27//9
f 27//10 21//10 23//10
f 19//11 27//11 23//11
f 24//12 25//12 27//12
f 34//13 35//13 36//13
f 36//14 30//14 32//14
f 28//15 36//15 32//15
f 33//16 34//16 36//16
f 43//17 44//17 45//17
f 45//18 39//18 41//18
f 37//19 45//19 41//19
f 42//20 43//20 45//20
f 52//21 53//21 54//21
f 54//22 48//22 50//22
f 46//23 54//23 50//23
f 51//24 52//24 54//24
f 61//25 62//25 63//25
f 63//26 57//26 59//26
f 55//27 63//27 59//27
f 60//28 61//28 63//28
f 7//29 4//29 8//29
f 9//30 8//30 3//30
f 1//31 6//31 9//31
f 6//29 2//29 7//29
f 16//32 13//32 17//32
f 18//33 17//33 12//33
f 10//34 15//34 18//34
f 15//32 11//32 16//32
f 25//35 22//35 26//35
f 27//36 26//36 21//36
f 19//37 24//37 27//37
f 24//35 20//35 25//35
f 34//38 31//38 35//38
f 36//39 35//39 30//39
f 28//40 33//40 36//40
f 33//41 29//41 34//41
f 43//42 40//42 44//42
f 45//43 44//43 39//43
f 37//44 42//44 45//44
f 42//45 38//45 43//45
f 52//46 49//46 53//46
f 54//47 53//47 48//47
f 46//48 51//48 54//48
f 51//49 47//49 52//49
f 61//50 58//50 62//50
f 63//51 62//51 57//51
f 55//52 60//52 63//52
f 60//50 56//50 61//50
