# Blender 4.1.1
# www.blender.org
mtllib Cube.069_Cube.073.mtl
o Cube.069_Cube.073
v -6.190431 -5.831578 -1.678153
v -6.251442 -5.851629 -1.688497
v -6.237959 -5.654906 -2.138329
v -6.158767 -5.902682 -1.704746
v -6.208778 -5.724818 -2.171205
v -6.182522 -5.732837 -1.903469
v -6.244981 -5.738190 -1.928182
v -6.219384 -5.843487 -1.675242
v -6.216626 -5.704215 -2.169966
v -6.218082 -5.826954 -1.946043
v -6.235287 -5.890912 -1.694447
v -6.154535 -5.807729 -1.935346
v -6.172087 -5.866245 -1.689705
v -6.193900 -5.668972 -2.171734
v -6.161891 -5.766649 -1.917576
v -6.185963 -5.819557 -1.941654
v -6.246358 -5.791002 -1.931268
v -6.219714 -5.739291 -1.907624
v -6.180902 -5.630567 -2.139738
v -6.249562 -5.803758 -1.804964
v -6.226305 -5.876325 -1.835988
v -6.259119 -5.875128 -1.696233
v -6.150826 -5.703456 -2.166800
v -6.161650 -5.850913 -1.822536
v -6.221329 -5.925907 -1.710103
v -6.166831 -5.884125 -1.698942
v -6.190599 -5.777400 -1.791299
v -6.206096 -5.640200 -2.141966
v -6.245853 -5.695089 -2.021671
v -6.228894 -5.666638 -2.167027
v -6.215530 -5.778398 -2.056656
v -6.232985 -5.906438 -1.710080
v -6.154528 -5.758930 -2.045943
v -6.172064 -5.649684 -2.146361
v -6.190996 -5.892523 -1.701432
v -6.174260 -5.820776 -1.809757
v -6.163320 -5.784195 -1.925328
v -6.176467 -5.751906 -1.911623
v -6.202044 -5.868068 -1.821711
v -6.203123 -5.818650 -1.941866
v -6.175615 -5.812539 -1.938206
v -6.243552 -5.840591 -1.820917
v -6.232848 -5.737837 -2.039668
v -6.240393 -5.771009 -1.922280
v -6.223096 -5.804712 -1.936459
v -6.216389 -5.688546 -2.017590
v -6.197534 -5.737757 -1.906162
v -6.228195 -5.693569 -2.021313
v -6.200129 -5.688937 -2.016885
v -6.207855 -5.777914 -1.792138
v -6.236195 -5.760015 -2.049644
v -6.243814 -5.710812 -2.029413
v -6.247228 -5.818096 -1.811174
v -6.183127 -5.755297 -2.072531
v -6.205897 -5.770003 -2.052629
v -6.172252 -5.708043 -2.041501
v -6.164665 -5.740345 -2.038217
v -6.172096 -5.839345 -1.817830
v -6.214790 -5.859802 -1.691048
v -6.197102 -5.720545 -2.170310
v -6.179418 -5.668796 -2.150199
v -6.222818 -5.641474 -2.158947
v -6.182533 -5.804641 -1.802969
v -6.179125 -5.859353 -1.826862
v -6.243001 -5.856560 -1.827907
v -6.228269 -5.795883 -1.786421
vn -0.5546 0.7728 0.3087
vn 0.4766 -0.8005 -0.3635
vn 0.6041 0.6822 -0.4118
vn 0.0653 0.0990 -0.9929
vn 0.1454 -0.2016 0.9686
vn -0.5557 0.7473 0.3644
vn 0.6028 -0.7213 -0.3411
vn 0.2568 -0.8813 -0.3967
vn 0.2668 -0.8954 -0.3564
vn 0.4756 -0.8119 -0.3386
vn 0.7370 0.6327 0.2376
vn 0.9140 0.3538 0.1985
vn 0.0047 -0.2967 0.9550
vn 0.0620 -0.4436 0.8941
vn -0.2157 0.2713 -0.9380
vn -0.0713 0.3824 -0.9212
vn 0.4632 0.7245 -0.5104
vn 0.2594 -0.8957 -0.3611
vn -0.2791 0.8775 0.3900
vn 0.9665 0.2452 0.0754
vn 0.9649 0.2376 0.1123
vn -0.8502 0.3355 -0.4057
vn 0.8282 -0.0668 -0.5564
vn -0.1019 -0.0414 0.9939
vn 0.9972 -0.0648 -0.0371
vn 0.9595 0.2559 0.1174
vn -0.0434 -0.9151 -0.4008
vn 0.3502 -0.8550 -0.3826
vn 0.2548 -0.8847 -0.3903
vn -0.5137 -0.8082 -0.2880
vn -0.9602 0.2788 0.0171
vn -0.9790 -0.1774 -0.1004
vn 0.0037 0.9079 0.4191
vn -0.4542 0.8326 0.3170
vn -0.0863 0.9045 0.4178
vn -0.3846 0.8682 0.3136
vn -0.0877 0.9436 0.3191
vn -0.3491 0.8544 0.3849
vn -0.3025 0.8437 0.4434
vn -0.3612 0.8629 0.3535
vn 0.0067 0.9319 0.3628
vn -0.0440 0.9435 0.3283
vn -0.5771 0.7548 0.3117
vn -0.5326 -0.8065 -0.2568
vn -0.6868 -0.6420 -0.3408
vn -0.9805 0.1818 -0.0752
vn -0.9878 -0.1473 -0.0512
vn -0.9446 -0.2685 -0.1886
vn -0.9324 -0.3045 -0.1947
vn -0.9540 0.2959 0.0481
vn -0.9875 -0.1136 -0.1089
vn -0.9647 0.2303 0.1280
vn 0.5275 -0.7729 -0.3527
vn 0.3472 -0.8669 -0.3577
vn 0.3461 -0.8739 -0.3414
vn 0.4755 -0.8121 -0.3383
vn 0.9456 0.3070 0.1080
vn -0.0442 -0.9241 -0.3797
vn 0.9359 0.2988 0.1865
vn 0.7662 0.6119 0.1965
vn 0.9614 0.2395 0.1351
vn 0.7623 0.5485 0.3436
vn 0.9924 -0.1073 0.0600
vn -0.0829 -0.3557 0.9309
vn -0.1091 -0.7073 0.6984
vn -0.0034 -0.3117 0.9502
vn -0.0643 0.2202 -0.9733
vn 0.3236 -0.6098 0.7235
vn -0.1345 -0.0190 -0.9907
vn 0.0478 0.0781 -0.9958
vn -0.1682 -0.1019 0.9805
vn -0.8462 -0.5064 -0.1660
vn -0.1045 0.3269 -0.9393
vn 0.8937 0.4236 0.1480
vn 0.0862 -0.7005 0.7084
vn 0.7346 0.5934 0.3290
vn 0.9633 0.2184 0.1561
vn 0.6016 -0.7429 -0.2934
vn 0.4734 -0.8322 -0.2887
vn -0.9964 -0.0603 0.0591
vn -0.9859 0.0373 -0.1630
vn -0.9769 -0.1582 -0.1440
vn -0.3749 0.8410 0.3901
vn -0.5850 0.7248 0.3640
vn 0.9933 0.1159 -0.0003
vn 0.9725 0.2313 0.0280
vn 0.9599 0.2547 0.1172
vn 0.1948 -0.8821 -0.4289
vn 0.2514 -0.8853 -0.3913
vn -0.9841 -0.0961 -0.1495
vn -0.9346 -0.3219 -0.1510
vn -0.6881 -0.6986 -0.1963
vn -0.0896 0.9105 0.4036
vn -0.2831 0.8741 0.3948
vn -0.4507 0.8440 0.2908
vn -0.3461 0.8818 0.3202
vn -0.2510 0.8890 0.3831
vn -0.0477 0.9009 0.4315
vn -0.3467 0.8800 0.3246
vn -0.0865 0.9421 0.3240
vn -0.9851 0.1670 -0.0408
vn -0.8983 -0.3243 -0.2965
vn -0.9932 -0.1087 -0.0408
vn -0.9921 -0.0817 -0.0953
vn -0.9368 -0.2906 -0.1948
vn -0.9890 -0.1308 -0.0697
vn -0.9799 -0.1587 -0.1209
vn -0.9875 -0.1141 -0.1091
vn 0.6945 -0.6646 -0.2757
vn 0.6943 -0.6668 -0.2710
vn 0.5264 -0.7898 -0.3150
vn 0.8931 0.4116 0.1817
vn 0.8924 0.3992 0.2106
vn 0.9235 0.3590 0.1352
vn 0.9449 0.2815 0.1673
vn 0.9912 0.0657 0.1146
vn -0.0827 -0.3542 0.9315
vn -0.0355 0.3125 -0.9493
vn 0.0157 -0.2647 0.9642
vn -0.7866 -0.5898 -0.1828
vn 0.9037 0.4056 0.1372
vn 0.8975 0.3442 0.2757
vn 0.9581 0.2330 0.1666
vn 0.2699 -0.9047 -0.3297
vn 0.2540 -0.8944 -0.3681
vn -0.9885 -0.1511 0.0045
vn -0.5328 -0.7769 -0.3356
vn -0.7771 -0.5005 -0.3815
s 0
usemtl Fence
f 20//1 2//1 66//1
f 24//2 4//2 64//2
f 14//3 28//3 61//3
f 60//4 9//4 30//4
f 59//5 11//5 35//5
f 66//6 8//6 50//6
f 54//7 41//7 16//7
f 23//8 33//8 54//8
f 60//9 54//9 55//9
f 39//10 25//10 21//10
f 56//11 38//11 15//11
f 34//12 19//12 56//12
f 35//13 4//13 26//13
f 13//14 35//14 26//14
f 23//15 61//15 34//15
f 60//16 61//16 23//16
f 14//17 62//17 28//17
f 64//18 4//18 39//18
f 7//19 66//19 18//19
f 26//20 36//20 13//20
f 63//21 27//21 1//21
f 30//22 3//22 62//22
f 60//23 14//23 61//23
f 59//24 22//24 11//24
f 57//25 15//25 37//25
f 6//26 56//26 19//26
f 55//27 16//27 40//27
f 39//28 4//28 25//28
f 41//29 33//29 12//29
f 22//30 42//30 11//30
f 44//31 43//31 17//31
f 45//32 31//32 10//32
f 18//33 49//33 46//33
f 7//34 46//34 48//34
f 48//35 29//35 7//35
f 48//36 28//36 62//36
f 48//37 3//37 29//37
f 6//38 49//38 47//38
f 1//39 50//39 8//39
f 19//40 28//40 49//40
f 28//41 46//41 49//41
f 27//42 47//42 50//42
f 50//43 18//43 66//43
f 17//44 51//44 45//44
f 51//45 5//45 31//45
f 9//46 51//46 43//46
f 7//47 52//47 44//47
f 52//48 3//48 30//48
f 52//49 9//49 43//49
f 2//50 53//50 22//50
f 20//51 44//51 53//51
f 42//52 44//52 17//52
f 10//53 55//53 40//53
f 60//54 23//54 54//54
f 55//55 5//55 60//55
f 21//56 40//56 39//56
f 12//57 57//57 37//57
f 40//58 16//58 39//58
f 57//59 23//59 34//59
f 26//60 24//60 58//60
f 34//61 56//61 57//61
f 24//62 37//62 58//62
f 36//63 37//63 15//63
f 13//64 59//64 35//64
f 8//65 2//65 59//65
f 2//66 22//66 59//66
f 28//67 34//67 61//67
f 1//68 8//68 59//68
f 60//69 30//69 14//69
f 60//70 5//70 9//70
f 25//71 35//71 32//71
f 32//72 21//72 25//72
f 14//73 30//73 62//73
f 13//74 63//74 1//74
f 11//75 32//75 35//75
f 63//76 15//76 38//76
f 63//77 6//77 27//77
f 64//78 16//78 41//78
f 64//79 12//79 24//79
f 32//80 42//80 65//80
f 42//81 45//81 65//81
f 21//82 45//82 10//82
f 66//83 2//83 8//83
f 7//84 20//84 66//84
f 26//85 58//85 36//85
f 57//86 56//86 15//86
f 6//87 38//87 56//87
f 55//88 54//88 16//88
f 41//89 54//89 33//89
f 22//90 53//90 42//90
f 44//91 52//91 43//91
f 45//92 51//92 31//92
f 18//93 47//93 49//93
f 7//94 18//94 46//94
f 48//95 46//95 28//95
f 48//96 62//96 3//96
f 6//97 19//97 49//97
f 1//98 27//98 50//98
f 27//99 6//99 47//99
f 50//100 47//100 18//100
f 17//101 43//101 51//101
f 51//102 9//102 5//102
f 7//103 29//103 52//103
f 52//104 29//104 3//104
f 52//105 30//105 9//105
f 2//106 20//106 53//106
f 20//107 7//107 44//107
f 42//108 53//108 44//108
f 10//109 31//109 55//109
f 55//110 31//110 5//110
f 21//111 10//111 40//111
f 12//112 33//112 57//112
f 57//113 33//113 23//113
f 26//114 4//114 24//114
f 24//115 12//115 37//115
f 36//116 58//116 37//116
f 13//117 1//117 59//117
f 28//118 19//118 34//118
f 25//119 4//119 35//119
f 32//120 65//120 21//120
f 13//121 36//121 63//121
f 63//122 36//122 15//122
f 63//123 38//123 6//123
f 64//124 39//124 16//124
f 64//125 41//125 12//125
f 32//126 11//126 42//126
f 42//127 17//127 45//127
f 21//128 65//128 45//128
