# Blender 4.1.1
# www.blender.org
mtllib Cube.053_Cube.057.mtl
o Cube.053_Cube.057
v -1.381919 1.252063 -0.860218
v -1.398954 1.314839 -0.859645
v -1.399387 1.317385 -1.350790
v -1.460228 1.227104 -0.857023
v -1.478887 1.295226 -1.353745
v -1.382051 1.252174 -1.106347
v -1.391249 1.316330 -1.124781
v -1.389079 1.281506 -0.851828
v -1.458885 1.301559 -1.360632
v -1.481793 1.296744 -1.106347
v -1.438622 1.301813 -0.849836
v -1.465597 1.231476 -1.106347
v -1.419794 1.236908 -0.857461
v -1.429411 1.276655 -1.377145
v -1.420363 1.234851 -1.106347
v -1.476131 1.263980 -1.106347
v -1.440585 1.321489 -1.106347
v -1.386311 1.289909 -1.106347
v -1.382761 1.259019 -1.363713
v -1.401720 1.317310 -0.985526
v -1.482385 1.301109 -0.985526
v -1.422812 1.324582 -0.857036
v -1.462747 1.235792 -1.360179
v -1.459540 1.234138 -0.985526
v -1.478041 1.291314 -0.850561
v -1.440261 1.233492 -0.858903
v -1.377424 1.255928 -0.985526
v -1.390218 1.284901 -1.361063
v -1.388991 1.320367 -1.227627
v -1.422315 1.311028 -1.372637
v -1.481666 1.298118 -1.227167
v -1.459222 1.301594 -0.857981
v -1.465016 1.235366 -1.227167
v -1.403635 1.251951 -1.362383
v -1.446785 1.258283 -0.857022
v -1.425822 1.243811 -0.985526
v -1.439344 1.237971 -1.106347
v -1.403244 1.247973 -1.106347
v -1.471311 1.275464 -0.976565
v -1.473870 1.281015 -1.106347
v -1.469264 1.252976 -1.106347
v -1.442234 1.314868 -0.985526
v -1.436337 1.311496 -1.227349
v -1.419280 1.313607 -1.106347
v -1.457226 1.299600 -1.106347
v -1.383996 1.290323 -1.227480
v -1.386289 1.267629 -1.106347
v -1.389021 1.302660 -1.228485
v -1.385510 1.274115 -1.227206
v -1.376702 1.273196 -0.985526
v -1.460262 1.316985 -1.227462
v -1.406609 1.319910 -1.228463
v -1.417491 1.316365 -0.985526
v -1.469746 1.265325 -1.252029
v -1.473249 1.287695 -1.227167
v -1.415211 1.249265 -1.242966
v -1.444075 1.243692 -1.227232
v -1.446182 1.243445 -0.985526
v -1.410670 1.279071 -0.859889
v -1.475660 1.283252 -1.355021
v -1.421965 1.260821 -1.357979
v -1.396657 1.302743 -1.375548
v -1.407656 1.250509 -0.985526
v -1.467425 1.252390 -0.985526
v -1.459646 1.315861 -0.985526
v -1.389035 1.294368 -0.972412
vn 0.8775 0.4795 -0.0099
vn -0.9177 -0.3964 -0.0266
vn 0.4058 -0.6209 -0.6706
vn -0.3102 -0.0071 -0.9506
vn 0.1882 -0.1942 0.9627
vn 0.8765 0.4787 0.0514
vn -0.8476 -0.5289 -0.0420
vn -0.9853 -0.1700 -0.0174
vn -0.9831 -0.1816 0.0248
vn -0.9182 -0.3962 0.0008
vn 0.6072 -0.7922 -0.0607
vn 0.3213 -0.9469 0.0098
vn 0.1085 -0.0468 0.9930
vn -0.0551 -0.0899 0.9944
vn -0.1062 0.2574 -0.9604
vn -0.0109 0.1051 -0.9944
vn 0.4177 -0.4771 -0.7733
vn -0.9845 -0.1739 0.0209
vn 0.9811 0.1928 0.0135
vn 0.1685 -0.9838 -0.0610
vn 0.1764 -0.9840 -0.0240
vn 0.2202 0.8501 -0.4784
vn -0.3555 -0.7837 -0.5094
vn 0.3665 0.0395 0.9296
vn -0.1621 -0.9860 -0.0403
vn 0.1956 -0.9803 -0.0266
vn -0.9913 0.1316 0.0022
vn -0.9639 -0.2656 -0.0181
vn -0.9857 -0.1681 -0.0102
vn -0.8072 0.5851 0.0778
vn 0.3462 0.9359 -0.0651
vn -0.1155 0.9932 0.0112
vn 0.9955 -0.0927 0.0187
vn 0.9266 0.3750 -0.0295
vn 0.9998 -0.0028 0.0218
vn 0.9516 0.3034 -0.0492
vn 0.9964 0.0024 -0.0842
vn 0.9642 0.2644 0.0204
vn 0.9736 0.2149 0.0768
vn 0.9605 0.2779 -0.0114
vn 0.9947 -0.0936 -0.0425
vn 0.9962 -0.0417 -0.0771
vn 0.8643 0.5030 0.0008
vn -0.7916 0.6018 0.1062
vn -0.6612 0.7496 -0.0316
vn 0.2228 0.9687 -0.1099
vn -0.0676 0.9967 0.0444
vn -0.2368 0.9710 -0.0340
vn -0.2731 0.9616 -0.0255
vn 0.3736 0.9266 -0.0438
vn -0.0598 0.9980 -0.0219
vn 0.3464 0.9364 0.0560
vn -0.8927 -0.4497 -0.0295
vn -0.9646 -0.2635 0.0095
vn -0.9645 -0.2628 0.0273
vn -0.9182 -0.3961 0.0012
vn 0.2398 -0.9693 -0.0553
vn -0.9910 0.1315 0.0252
vn 0.2643 -0.9642 0.0202
vn 0.5693 -0.8171 -0.0908
vn 0.1875 -0.9823 -0.0039
vn 0.5703 -0.8185 0.0694
vn -0.1619 -0.9846 0.0657
vn 0.0527 0.0460 0.9975
vn -0.3586 0.1111 0.9269
vn 0.0935 -0.0374 0.9949
vn -0.1803 0.1126 -0.9771
vn -0.2978 -0.3279 0.8966
vn -0.3995 0.1998 -0.8947
vn -0.3291 0.0123 -0.9442
vn 0.3118 0.1104 0.9437
vn -0.4537 0.8876 0.0790
vn -0.0658 0.1431 -0.9875
vn 0.3667 -0.9281 -0.0638
vn -0.3656 -0.0845 0.9269
vn 0.6079 -0.7931 0.0388
vn 0.1764 -0.9840 0.0238
vn -0.8483 -0.5294 0.0103
vn -0.9166 -0.3960 0.0547
vn 0.0566 0.9922 0.1108
vn 0.0564 0.9896 -0.1321
vn -0.1154 0.9927 -0.0364
vn 0.9563 0.2907 0.0314
vn 0.8583 0.5094 0.0610
vn 0.0179 -0.9967 -0.0792
vn 0.1364 -0.9857 -0.0989
vn 0.1944 -0.9806 -0.0263
vn -0.9934 -0.1061 -0.0445
vn -0.9863 -0.1646 -0.0107
vn -0.0603 0.9960 -0.0662
vn -0.2715 0.9622 0.0215
vn -0.6552 0.7453 0.1234
vn 1.0000 0.0010 0.0065
vn 0.9803 0.1967 0.0194
vn 0.9262 0.3725 -0.0583
vn 0.9633 0.2639 -0.0499
vn 0.9864 0.1646 0.0017
vn 0.9985 -0.0418 0.0345
vn 0.9634 0.2642 -0.0451
vn 0.9969 0.0010 -0.0791
vn 0.2234 0.9720 -0.0724
vn -0.3348 0.9356 -0.1118
vn -0.0277 0.9989 0.0386
vn -0.0249 0.9994 -0.0221
vn -0.2601 0.9651 -0.0311
vn -0.0598 0.9980 0.0209
vn -0.1064 0.9942 -0.0150
vn -0.0604 0.9979 -0.0219
vn -0.7780 -0.6282 -0.0080
vn -0.7780 -0.6283 -0.0027
vn -0.8930 -0.4498 0.0119
vn 0.3692 -0.9289 -0.0281
vn 0.3695 -0.9292 0.0033
vn 0.3000 -0.9526 -0.0505
vn 0.2401 -0.9707 0.0093
vn 0.0180 -0.9988 0.0463
vn 0.0543 0.0457 0.9975
vn -0.0890 0.0760 -0.9931
vn 0.1403 -0.0605 0.9883
vn -0.5418 0.8351 0.0952
vn 0.3452 -0.9362 -0.0667
vn 0.3447 -0.9349 0.0849
vn 0.1944 -0.9805 0.0277
vn -0.9812 -0.1858 0.0529
vn -0.9857 -0.1681 0.0142
vn -0.0489 0.9941 0.0969
vn -0.7959 0.6051 0.0223
vn -0.5401 0.8326 -0.1229
s 0
usemtl Fence
f 20//1 2//1 66//1
f 24//2 4//2 64//2
f 14//3 28//3 61//3
f 60//4 9//4 30//4
f 59//5 11//5 35//5
f 66//6 8//6 50//6
f 54//7 41//7 16//7
f 23//8 33//8 54//8
f 60//9 54//9 55//9
f 39//10 25//10 21//10
f 56//11 38//11 15//11
f 34//12 19//12 56//12
f 35//13 4//13 26//13
f 13//14 35//14 26//14
f 23//15 61//15 34//15
f 60//16 61//16 23//16
f 14//17 62//17 28//17
f 64//18 4//18 39//18
f 7//19 66//19 18//19
f 26//20 36//20 13//20
f 63//21 27//21 1//21
f 30//22 3//22 62//22
f 60//23 14//23 61//23
f 59//24 22//24 11//24
f 57//25 15//25 37//25
f 6//26 56//26 19//26
f 55//27 16//27 40//27
f 39//28 4//28 25//28
f 41//29 33//29 12//29
f 22//30 42//30 11//30
f 44//31 43//31 17//31
f 45//32 31//32 10//32
f 18//33 49//33 46//33
f 7//34 46//34 48//34
f 48//35 29//35 7//35
f 48//36 28//36 62//36
f 48//37 3//37 29//37
f 6//38 49//38 47//38
f 1//39 50//39 8//39
f 19//40 28//40 49//40
f 28//41 46//41 49//41
f 27//42 47//42 50//42
f 50//43 18//43 66//43
f 17//44 51//44 45//44
f 51//45 5//45 31//45
f 9//46 51//46 43//46
f 7//47 52//47 44//47
f 52//48 3//48 30//48
f 52//49 9//49 43//49
f 2//50 53//50 22//50
f 20//51 44//51 53//51
f 42//52 44//52 17//52
f 10//53 55//53 40//53
f 60//54 23//54 54//54
f 55//55 5//55 60//55
f 21//56 40//56 39//56
f 12//57 57//57 37//57
f 40//58 16//58 39//58
f 57//59 23//59 34//59
f 26//60 24//60 58//60
f 34//61 56//61 57//61
f 24//62 37//62 58//62
f 36//63 37//63 15//63
f 13//64 59//64 35//64
f 8//65 2//65 59//65
f 2//66 22//66 59//66
f 28//67 34//67 61//67
f 1//68 8//68 59//68
f 60//69 30//69 14//69
f 60//70 5//70 9//70
f 25//71 35//71 32//71
f 32//72 21//72 25//72
f 14//73 30//73 62//73
f 13//74 63//74 1//74
f 11//75 32//75 35//75
f 63//76 15//76 38//76
f 63//77 6//77 27//77
f 64//78 16//78 41//78
f 64//79 12//79 24//79
f 32//80 42//80 65//80
f 42//81 45//81 65//81
f 21//82 45//82 10//82
f 66//83 2//83 8//83
f 7//84 20//84 66//84
f 26//85 58//85 36//85
f 57//86 56//86 15//86
f 6//87 38//87 56//87
f 55//88 54//88 16//88
f 41//89 54//89 33//89
f 22//90 53//90 42//90
f 44//91 52//91 43//91
f 45//92 51//92 31//92
f 18//93 47//93 49//93
f 7//94 18//94 46//94
f 48//95 46//95 28//95
f 48//96 62//96 3//96
f 6//97 19//97 49//97
f 1//98 27//98 50//98
f 27//99 6//99 47//99
f 50//100 47//100 18//100
f 17//101 43//101 51//101
f 51//102 9//102 5//102
f 7//103 29//103 52//103
f 52//104 29//104 3//104
f 52//105 30//105 9//105
f 2//106 20//106 53//106
f 20//107 7//107 44//107
f 42//108 53//108 44//108
f 10//109 31//109 55//109
f 55//110 31//110 5//110
f 21//111 10//111 40//111
f 12//112 33//112 57//112
f 57//113 33//113 23//113
f 26//114 4//114 24//114
f 24//115 12//115 37//115
f 36//116 58//116 37//116
f 13//117 1//117 59//117
f 28//118 19//118 34//118
f 25//119 4//119 35//119
f 32//120 65//120 21//120
f 13//121 36//121 63//121
f 63//122 36//122 15//122
f 63//123 38//123 6//123
f 64//124 39//124 16//124
f 64//125 41//125 12//125
f 32//126 11//126 42//126
f 42//127 17//127 45//127
f 21//128 65//128 45//128
