# Blender 4.1.1
# www.blender.org
mtllib Cube.064_Cube.068.mtl
o Cube.064_Cube.068
v -17.247179 7.336663 -3.780657
v -17.409666 7.401330 -3.811225
v -17.019196 7.792006 -5.032605
v -17.304007 7.132393 -3.854412
v -17.078882 7.594602 -5.123545
v -17.048815 7.530757 -4.392391
v -17.188065 7.628822 -4.461780
v -17.328791 7.362299 -3.773894
v -17.059372 7.651498 -5.119781
v -17.286098 7.395829 -4.512364
v -17.444223 7.290779 -3.828154
v -17.119753 7.324997 -4.480786
v -17.268852 7.231983 -3.812674
v -16.950073 7.685647 -5.122914
v -17.064096 7.423886 -4.431294
v -17.206036 7.355169 -4.499249
v -17.283127 7.520547 -4.471797
v -17.137873 7.582258 -4.404987
v -16.857016 7.743286 -5.034098
v -17.317295 7.498875 -4.127590
v -17.394121 7.306256 -4.213722
v -17.466513 7.365528 -3.833246
v -16.920271 7.538054 -5.109232
v -17.214750 7.246445 -4.174413
v -17.475496 7.193097 -3.871511
v -17.288710 7.185359 -3.838258
v -17.148212 7.450996 -4.087833
v -16.926563 7.767147 -5.041183
v -17.110739 7.721083 -4.715660
v -17.019527 7.751688 -5.111004
v -17.191362 7.493612 -4.812720
v -17.465899 7.254278 -3.871208
v -17.029926 7.427736 -4.781161
v -16.871635 7.687794 -5.052481
v -17.353930 7.210010 -3.845992
v -17.189030 7.331597 -4.139012
v -17.097443 7.389639 -4.453009
v -17.069122 7.480239 -4.415033
v -17.329428 7.281092 -4.173826
v -17.240404 7.387068 -4.500292
v -17.172222 7.351779 -4.489337
v -17.368425 7.411236 -4.172035
v -17.157459 7.608827 -4.765658
v -17.236050 7.551988 -4.446513
v -17.258123 7.451173 -4.485700
v -17.037718 7.683278 -4.703487
v -17.088766 7.546696 -4.400317
v -17.071085 7.693401 -4.714134
v -17.004353 7.654029 -4.701111
v -17.185242 7.480084 -4.090631
v -17.202826 7.568235 -4.793631
v -17.133629 7.684599 -4.737194
v -17.337212 7.464770 -4.144894
v -17.082428 7.485457 -4.854430
v -17.156664 7.494352 -4.801206
v -16.978313 7.565358 -4.768046
v -17.019007 7.484379 -4.759818
v -17.216619 7.288928 -4.161528
v -17.347031 7.320140 -3.817373
v -17.046978 7.583141 -5.120637
v -16.920292 7.660608 -5.063729
v -16.963140 7.793779 -5.088040
v -17.178442 7.379848 -4.120251
v -17.265949 7.259316 -4.186968
v -17.394896 7.376832 -4.191566
v -17.259668 7.478084 -4.076147
vn 0.0644 0.9482 0.3111
vn -0.1411 -0.9194 -0.3671
vn 0.9069 0.1376 -0.3982
vn 0.1285 0.0357 -0.9911
vn -0.0320 -0.2495 0.9678
vn 0.0464 0.9292 0.3666
vn 0.0062 -0.9395 -0.3425
vn -0.3612 -0.8407 -0.4034
vn -0.3632 -0.8580 -0.3632
vn -0.1497 -0.9276 -0.3423
vn 0.9676 0.0135 0.2521
vn 0.9255 -0.3140 0.2119
vn -0.2007 -0.2323 0.9517
vn -0.2499 -0.3819 0.8898
vn 0.0222 0.3480 -0.9372
vn 0.2039 0.3408 -0.9178
vn 0.8273 0.2605 -0.4977
vn -0.3690 -0.8535 -0.3680
vn 0.3418 0.8520 0.3965
vn 0.8981 -0.4309 0.0882
vn 0.8914 -0.4357 0.1250
vn -0.4319 0.8028 -0.4110
vn 0.6015 -0.5809 -0.5484
vn -0.1197 0.0319 0.9923
vn 0.7248 -0.6884 -0.0273
vn 0.8990 -0.4182 0.1302
vn -0.6134 -0.6743 -0.4111
vn -0.2729 -0.8803 -0.3881
vn -0.3651 -0.8420 -0.3972
vn -0.9077 -0.2912 -0.3021
vn -0.5591 0.8291 0.0100
vn -0.8639 0.4909 -0.1126
vn 0.5780 0.6942 0.4289
vn 0.1796 0.9298 0.3212
vn 0.5066 0.7492 0.4266
vn 0.2559 0.9126 0.3189
vn 0.5321 0.7804 0.3284
vn 0.2733 0.8791 0.3904
vn 0.3014 0.8410 0.4493
vn 0.2700 0.8935 0.3590
vn 0.5965 0.7107 0.3728
vn 0.5655 0.7523 0.3380
vn 0.0356 0.9488 0.3138
vn -0.9216 -0.2778 -0.2711
vn -0.9334 -0.0526 -0.3549
vn -0.6354 0.7677 -0.0835
vn -0.8521 0.5196 -0.0632
vn -0.8945 0.3990 -0.2014
vn -0.9081 0.3636 -0.2077
vn -0.5439 0.8382 0.0413
vn -0.8294 0.5455 -0.1205
vn -0.5952 0.7945 0.1203
vn -0.0846 -0.9309 -0.3554
vn -0.2831 -0.8876 -0.3634
vn -0.2888 -0.8922 -0.3472
vn -0.1499 -0.9277 -0.3420
vn 0.9211 -0.3700 0.1212
vn -0.6200 -0.6808 -0.3901
vn 0.9072 -0.3703 0.1995
vn 0.9772 -0.0211 0.2112
vn 0.8897 -0.4321 0.1477
vn 0.9315 -0.0675 0.3575
vn 0.6924 -0.7181 0.0692
vn -0.3055 -0.2215 0.9261
vn -0.5472 -0.4744 0.6896
vn -0.2164 -0.2387 0.9467
vn 0.1062 0.2119 -0.9715
vn -0.1529 -0.6767 0.7203
vn -0.1006 0.0731 -0.9922
vn 0.1017 0.0309 -0.9943
vn -0.2091 0.0280 0.9775
vn -0.9716 0.1533 -0.1803
vn 0.1431 0.3194 -0.9367
vn 0.9553 -0.2473 0.1619
vn -0.3930 -0.5943 0.7017
vn 0.9392 -0.0152 0.3431
vn 0.8772 -0.4495 0.1686
vn -0.0093 -0.9554 -0.2950
vn -0.1650 -0.9419 -0.2927
vn -0.8046 0.5918 0.0481
vn -0.7308 0.6604 -0.1729
vn -0.8493 0.5044 -0.1559
vn 0.2449 0.8854 0.3952
vn 0.0095 0.9307 0.3656
vn 0.8370 -0.5472 0.0113
vn 0.8944 -0.4453 0.0408
vn 0.8984 -0.4194 0.1300
vn -0.4089 -0.8015 -0.4363
vn -0.3681 -0.8402 -0.3982
vn -0.8150 0.5567 -0.1609
vn -0.9216 0.3516 -0.1643
vn -0.9728 -0.0955 -0.2110
vn 0.5083 0.7560 0.4124
vn 0.3364 0.8520 0.4012
vn 0.1899 0.9364 0.2951
vn 0.2941 0.8984 0.3261
vn 0.3707 0.8429 0.3900
vn 0.5337 0.7218 0.4406
vn 0.2925 0.8974 0.3304
vn 0.5320 0.7784 0.3332
vn -0.6489 0.7593 -0.0494
vn -0.8930 0.3267 -0.3094
vn -0.8317 0.5528 -0.0524
vn -0.8127 0.5728 -0.1066
vn -0.9025 0.3771 -0.2078
vn -0.8421 0.5331 -0.0815
vn -0.8523 0.5059 -0.1329
vn -0.8297 0.5450 -0.1207
vn 0.1118 -0.9548 -0.2756
vn 0.1103 -0.9563 -0.2708
vn -0.0969 -0.9432 -0.3179
vn 0.9467 -0.2562 0.1955
vn 0.9377 -0.2653 0.2243
vn 0.9370 -0.3160 0.1487
vn 0.9033 -0.3892 0.1803
vn 0.8015 -0.5846 0.1257
vn -0.3043 -0.2204 0.9267
vn 0.1870 0.2642 -0.9462
vn -0.1719 -0.2149 0.9614
vn -0.9790 0.0512 -0.1974
vn 0.9516 -0.2676 0.1511
vn 0.9055 -0.3110 0.2888
vn 0.8824 -0.4350 0.1791
vn -0.3672 -0.8671 -0.3366
vn -0.3723 -0.8490 -0.3750
vn -0.8559 0.5171 -0.0075
vn -0.9016 -0.2549 -0.3495
vn -0.9116 0.1140 -0.3950
s 0
usemtl Fence2
f 20//1 2//1 66//1
f 24//2 4//2 64//2
f 14//3 28//3 61//3
f 60//4 9//4 30//4
f 59//5 11//5 35//5
f 66//6 8//6 50//6
f 54//7 41//7 16//7
f 23//8 33//8 54//8
f 60//9 54//9 55//9
f 39//10 25//10 21//10
f 56//11 38//11 15//11
f 34//12 19//12 56//12
f 35//13 4//13 26//13
f 13//14 35//14 26//14
f 23//15 61//15 34//15
f 60//16 61//16 23//16
f 14//17 62//17 28//17
f 64//18 4//18 39//18
f 7//19 66//19 18//19
f 26//20 36//20 13//20
f 63//21 27//21 1//21
f 30//22 3//22 62//22
f 60//23 14//23 61//23
f 59//24 22//24 11//24
f 57//25 15//25 37//25
f 6//26 56//26 19//26
f 55//27 16//27 40//27
f 39//28 4//28 25//28
f 41//29 33//29 12//29
f 22//30 42//30 11//30
f 44//31 43//31 17//31
f 45//32 31//32 10//32
f 18//33 49//33 46//33
f 7//34 46//34 48//34
f 48//35 29//35 7//35
f 48//36 28//36 62//36
f 48//37 3//37 29//37
f 6//38 49//38 47//38
f 1//39 50//39 8//39
f 19//40 28//40 49//40
f 28//41 46//41 49//41
f 27//42 47//42 50//42
f 50//43 18//43 66//43
f 17//44 51//44 45//44
f 51//45 5//45 31//45
f 9//46 51//46 43//46
f 7//47 52//47 44//47
f 52//48 3//48 30//48
f 52//49 9//49 43//49
f 2//50 53//50 22//50
f 20//51 44//51 53//51
f 42//52 44//52 17//52
f 10//53 55//53 40//53
f 60//54 23//54 54//54
f 55//55 5//55 60//55
f 21//56 40//56 39//56
f 12//57 57//57 37//57
f 40//58 16//58 39//58
f 57//59 23//59 34//59
f 26//60 24//60 58//60
f 34//61 56//61 57//61
f 24//62 37//62 58//62
f 36//63 37//63 15//63
f 13//64 59//64 35//64
f 8//65 2//65 59//65
f 2//66 22//66 59//66
f 28//67 34//67 61//67
f 1//68 8//68 59//68
f 60//69 30//69 14//69
f 60//70 5//70 9//70
f 25//71 35//71 32//71
f 32//72 21//72 25//72
f 14//73 30//73 62//73
f 13//74 63//74 1//74
f 11//75 32//75 35//75
f 63//76 15//76 38//76
f 63//77 6//77 27//77
f 64//78 16//78 41//78
f 64//79 12//79 24//79
f 32//80 42//80 65//80
f 42//81 45//81 65//81
f 21//82 45//82 10//82
f 66//83 2//83 8//83
f 7//84 20//84 66//84
f 26//85 58//85 36//85
f 57//86 56//86 15//86
f 6//87 38//87 56//87
f 55//88 54//88 16//88
f 41//89 54//89 33//89
f 22//90 53//90 42//90
f 44//91 52//91 43//91
f 45//92 51//92 31//92
f 18//93 47//93 49//93
f 7//94 18//94 46//94
f 48//95 46//95 28//95
f 48//96 62//96 3//96
f 6//97 19//97 49//97
f 1//98 27//98 50//98
f 27//99 6//99 47//99
f 50//100 47//100 18//100
f 17//101 43//101 51//101
f 51//102 9//102 5//102
f 7//103 29//103 52//103
f 52//104 29//104 3//104
f 52//105 30//105 9//105
f 2//106 20//106 53//106
f 20//107 7//107 44//107
f 42//108 53//108 44//108
f 10//109 31//109 55//109
f 55//110 31//110 5//110
f 21//111 10//111 40//111
f 12//112 33//112 57//112
f 57//113 33//113 23//113
f 26//114 4//114 24//114
f 24//115 12//115 37//115
f 36//116 58//116 37//116
f 13//117 1//117 59//117
f 28//118 19//118 34//118
f 25//119 4//119 35//119
f 32//120 65//120 21//120
f 13//121 36//121 63//121
f 63//122 36//122 15//122
f 63//123 38//123 6//123
f 64//124 39//124 16//124
f 64//125 41//125 12//125
f 32//126 11//126 42//126
f 42//127 17//127 45//127
f 21//128 65//128 45//128
