# Blender 4.1.1
# www.blender.org
mtllib Cube_Cube.006.mtl
o Cube_Cube.006
v 5.352488 8.924309 4.410124
v 5.366792 11.872469 3.881595
v 5.491796 8.815103 3.824156
v 5.501815 11.924030 3.286784
v 5.948543 8.949830 4.547074
v 5.938521 11.685617 3.995180
v 6.087852 8.840624 3.961107
v 6.073545 11.737181 3.400369
v 5.497645 11.847420 3.792498
v 5.582669 11.879889 3.417940
v 5.942694 11.762226 3.489465
v 5.857667 11.729761 3.864024
v 5.369463 11.414721 3.725892
v 5.454490 11.447193 3.351334
v 5.814515 11.329531 3.422859
v 5.729488 11.297060 3.797417
vn -0.9737 -0.0356 -0.2249
vn 0.1386 -0.1691 -0.9758
vn 0.9731 0.0484 0.2251
vn -0.2276 0.1918 0.9547
vn -0.0000 -0.9831 0.1832
vn 0.2810 0.9485 0.1460
vn -0.9340 0.3052 -0.1856
vn 0.9340 -0.3053 0.1856
vn 0.2206 0.0842 -0.9717
vn -0.2206 -0.0842 0.9717
vn -0.9739 -0.0356 -0.2242
vn 0.2276 -0.1840 -0.9562
vn 0.9737 0.0484 0.2225
vn -0.1364 0.1755 0.9750
vn -0.9340 0.3053 -0.1856
s 0
usemtl CHIM
f 2//1 3//1 1//1
f 8//2 3//2 4//2
f 6//3 7//3 8//3
f 6//4 1//4 5//4
f 1//5 7//5 5//5
f 6//6 11//6 12//6
f 11//7 16//7 12//7
f 2//6 10//6 4//6
f 6//6 9//6 2//6
f 8//6 10//6 11//6
f 16//6 14//6 13//6
f 9//8 14//8 10//8
f 9//9 16//9 13//9
f 11//10 14//10 15//10
f 2//11 4//11 3//11
f 8//12 7//12 3//12
f 6//13 5//13 7//13
f 6//14 2//14 1//14
f 1//5 3//5 7//5
f 6//6 8//6 11//6
f 11//15 15//15 16//15
f 2//6 9//6 10//6
f 6//6 12//6 9//6
f 8//6 4//6 10//6
f 16//6 15//6 14//6
f 9//8 13//8 14//8
f 9//9 12//9 16//9
f 11//10 10//10 14//10
