# Blender 4.1.1
# www.blender.org
mtllib Cube.076_Cube.080.mtl
o Cube.076_Cube.080
v -5.086647 -7.523417 -1.439223
v -5.140954 -7.558935 -1.443756
v -5.142868 -7.490712 -1.930143
v -5.038464 -7.589789 -1.445434
v -5.096968 -7.558202 -1.942728
v -5.086525 -7.488788 -1.682903
v -5.144578 -7.514677 -1.705265
v -5.112383 -7.540442 -1.433197
v -5.109231 -7.540378 -1.947150
v -5.097688 -7.596371 -1.698271
v -5.116189 -7.593595 -1.438777
v -5.040752 -7.560952 -1.693171
v -5.060415 -7.554736 -1.440889
v -5.094774 -7.502624 -1.958429
v -5.058096 -7.519458 -1.687260
v -5.068335 -7.580912 -1.696042
v -5.134073 -7.565274 -1.693859
v -5.121039 -7.504467 -1.685168
v -5.092612 -7.455197 -1.938089
v -5.142341 -7.544508 -1.568855
v -5.101740 -7.615355 -1.578938
v -5.142754 -7.584753 -1.444808
v -5.045552 -7.523731 -1.944268
v -5.045264 -7.573156 -1.572871
v -5.093895 -7.627316 -1.444307
v -5.050772 -7.572722 -1.444906
v -5.091628 -7.502674 -1.562843
v -5.114869 -7.470590 -1.937626
v -5.149041 -7.499266 -1.806957
v -5.129646 -7.507220 -1.954558
v -5.098942 -7.579600 -1.817924
v -5.109536 -7.611749 -1.449592
v -5.044538 -7.544533 -1.812876
v -5.079375 -7.472829 -1.939252
v -5.072283 -7.586792 -1.445032
v -5.064991 -7.544440 -1.568786
v -5.055127 -7.538273 -1.689944
v -5.075911 -7.507418 -1.685555
v -5.080848 -7.598274 -1.567433
v -5.085223 -7.584055 -1.696503
v -5.060029 -7.571051 -1.694628
v -5.127359 -7.581852 -1.574175
v -5.125817 -7.541086 -1.812629
v -5.133245 -7.542799 -1.690650
v -5.108079 -7.574152 -1.695107
v -5.122064 -7.485296 -1.804793
v -5.099881 -7.497553 -1.684165
v -5.132212 -7.493695 -1.807016
v -5.106195 -7.481745 -1.803998
v -5.108257 -7.507337 -1.563522
v -5.123553 -7.565266 -1.816193
v -5.143100 -7.515574 -1.810125
v -5.136515 -7.559047 -1.570926
v -5.071499 -7.554733 -1.839467
v -5.091672 -7.568461 -1.816328
v -5.073295 -7.499762 -1.822465
v -5.058992 -7.527406 -1.810507
v -5.058280 -7.563473 -1.571498
v -5.103315 -7.558854 -1.443962
v -5.086602 -7.551283 -1.943022
v -5.082075 -7.493432 -1.937747
v -5.129793 -7.480117 -1.953629
v -5.077032 -7.529428 -1.566652
v -5.060138 -7.586217 -1.574747
v -5.122860 -7.598534 -1.576553
v -5.124523 -7.527337 -1.553142
vn -0.7297 0.6783 0.0863
vn 0.6634 -0.7366 -0.1315
vn 0.4635 0.6685 -0.5817
vn 0.1044 -0.1552 -0.9824
vn 0.1250 0.1010 0.9870
vn -0.7287 0.6689 0.1468
vn 0.7674 -0.6276 -0.1315
vn 0.4694 -0.8715 -0.1416
vn 0.4797 -0.8718 -0.0990
vn 0.6634 -0.7410 -0.1045
vn 0.5628 0.8247 0.0569
vn 0.7991 0.5936 0.0953
vn 0.0098 -0.0239 0.9997
vn 0.1019 -0.1645 0.9811
vn -0.2106 -0.0437 -0.9766
vn -0.0957 0.0978 -0.9906
vn 0.3232 0.6496 -0.6882
vn 0.4729 -0.8750 -0.1034
vn -0.4898 0.8611 0.1362
vn 0.8819 0.4714 0.0064
vn 0.8796 0.4736 0.0440
vn -0.8759 0.0118 -0.4823
vn 0.8559 -0.0199 -0.5167
vn -0.1528 0.2010 0.9676
vn 0.9872 0.1583 -0.0174
vn 0.8701 0.4910 0.0439
vn 0.1848 -0.9732 -0.1366
vn 0.5536 -0.8218 -0.1352
vn 0.4677 -0.8736 -0.1346
vn -0.3035 -0.9511 -0.0575
vn -0.9972 0.0453 -0.0601
vn -0.9074 -0.4174 -0.0490
vn -0.2232 0.9622 0.1561
vn -0.6457 0.7596 0.0782
vn -0.3100 0.9379 0.1557
vn -0.5857 0.8079 0.0652
vn -0.3137 0.9482 0.0501
vn -0.5524 0.8221 0.1376
vn -0.5085 0.8383 0.1968
vn -0.5642 0.8189 0.1050
vn -0.2219 0.9704 0.0954
vn -0.2718 0.9605 0.0590
vn -0.7479 0.6571 0.0941
vn -0.3243 -0.9455 -0.0279
vn -0.5053 -0.8491 -0.1536
vn -0.9897 -0.0746 -0.1224
vn -0.9257 -0.3781 -0.0098
vn -0.8483 -0.5183 -0.1090
vn -0.8281 -0.5507 -0.1050
vn -0.9969 0.0709 -0.0349
vn -0.9293 -0.3618 -0.0745
vn -0.9978 0.0282 0.0599
vn 0.7062 -0.6962 -0.1286
vn 0.5518 -0.8270 -0.1080
vn 0.5512 -0.8295 -0.0904
vn 0.6632 -0.7411 -0.1041
vn 0.8458 0.5331 0.0209
vn 0.1848 -0.9762 -0.1138
vn 0.8333 0.5440 0.0987
vn 0.5982 0.8010 0.0230
vn 0.8744 0.4807 0.0653
vn 0.5992 0.7797 0.1818
vn 0.9858 0.1431 0.0875
vn -0.0609 -0.1057 0.9925
vn 0.0058 -0.5026 0.8645
vn 0.0056 -0.0411 0.9991
vn -0.0498 -0.0663 -0.9966
vn 0.4039 -0.3053 0.8624
vn -0.0643 -0.3110 -0.9482
vn 0.0921 -0.1796 -0.9794
vn -0.2030 0.1257 0.9711
vn -0.7014 -0.7124 -0.0224
vn -0.1146 0.0334 -0.9928
vn 0.7670 0.6410 0.0276
vn 0.1938 -0.4487 0.8724
vn 0.5633 0.8115 0.1555
vn 0.8796 0.4669 0.0914
vn 0.7680 -0.6355 -0.0797
vn 0.6626 -0.7472 -0.0510
vn -0.9603 -0.2694 0.0728
vn -0.9576 -0.2344 -0.1676
vn -0.9068 -0.4104 -0.0961
vn -0.5750 0.8050 0.1462
vn -0.7522 0.6410 0.1525
vn 0.9412 0.3363 -0.0313
vn 0.8938 0.4471 -0.0353
vn 0.8707 0.4898 0.0440
vn 0.4113 -0.8950 -0.1725
vn 0.4646 -0.8751 -0.1354
vn -0.9272 -0.3554 -0.1183
vn -0.8292 -0.5560 -0.0583
vn -0.5032 -0.8642 0.0009
vn -0.3136 0.9391 0.1404
vn -0.4933 0.8582 0.1418
vn -0.6432 0.7640 0.0497
vn -0.5517 0.8313 0.0679
vn -0.4646 0.8764 0.1265
vn -0.2725 0.9470 0.1699
vn -0.5520 0.8307 0.0726
vn -0.3125 0.9483 0.0552
vn -0.9931 -0.0804 -0.0854
vn -0.7840 -0.5884 -0.1976
vn -0.9402 -0.3405 -0.0103
vn -0.9416 -0.3294 -0.0701
vn -0.8354 -0.5387 -0.1090
vn -0.9293 -0.3678 -0.0321
vn -0.9111 -0.4055 -0.0737
vn -0.9290 -0.3624 -0.0746
vn 0.8399 -0.5362 -0.0840
vn 0.8399 -0.5369 -0.0788
vn 0.7064 -0.7023 -0.0877
vn 0.7670 0.6385 0.0633
vn 0.7672 0.6344 0.0945
vn 0.8111 0.5839 0.0329
vn 0.8470 0.5248 0.0850
vn 0.9431 0.3193 0.0930
vn -0.0611 -0.1040 0.9927
vn -0.0437 0.0331 -0.9985
vn 0.0129 0.0110 0.9999
vn -0.6240 -0.7812 -0.0158
vn 0.7814 0.6236 0.0223
vn 0.7802 0.6013 0.1722
vn 0.8706 0.4822 0.0975
vn 0.4831 -0.8727 -0.0708
vn 0.4678 -0.8769 -0.1105
vn -0.9291 -0.3671 0.0448
vn -0.3260 -0.9387 -0.1117
vn -0.6219 -0.7481 -0.2314
s 0
usemtl Fence
f 20//1 2//1 66//1
f 24//2 4//2 64//2
f 14//3 28//3 61//3
f 60//4 9//4 30//4
f 59//5 11//5 35//5
f 66//6 8//6 50//6
f 54//7 41//7 16//7
f 23//8 33//8 54//8
f 60//9 54//9 55//9
f 39//10 25//10 21//10
f 56//11 38//11 15//11
f 34//12 19//12 56//12
f 35//13 4//13 26//13
f 13//14 35//14 26//14
f 23//15 61//15 34//15
f 60//16 61//16 23//16
f 14//17 62//17 28//17
f 64//18 4//18 39//18
f 7//19 66//19 18//19
f 26//20 36//20 13//20
f 63//21 27//21 1//21
f 30//22 3//22 62//22
f 60//23 14//23 61//23
f 59//24 22//24 11//24
f 57//25 15//25 37//25
f 6//26 56//26 19//26
f 55//27 16//27 40//27
f 39//28 4//28 25//28
f 41//29 33//29 12//29
f 22//30 42//30 11//30
f 44//31 43//31 17//31
f 45//32 31//32 10//32
f 18//33 49//33 46//33
f 7//34 46//34 48//34
f 48//35 29//35 7//35
f 48//36 28//36 62//36
f 48//37 3//37 29//37
f 6//38 49//38 47//38
f 1//39 50//39 8//39
f 19//40 28//40 49//40
f 28//41 46//41 49//41
f 27//42 47//42 50//42
f 50//43 18//43 66//43
f 17//44 51//44 45//44
f 51//45 5//45 31//45
f 9//46 51//46 43//46
f 7//47 52//47 44//47
f 52//48 3//48 30//48
f 52//49 9//49 43//49
f 2//50 53//50 22//50
f 20//51 44//51 53//51
f 42//52 44//52 17//52
f 10//53 55//53 40//53
f 60//54 23//54 54//54
f 55//55 5//55 60//55
f 21//56 40//56 39//56
f 12//57 57//57 37//57
f 40//58 16//58 39//58
f 57//59 23//59 34//59
f 26//60 24//60 58//60
f 34//61 56//61 57//61
f 24//62 37//62 58//62
f 36//63 37//63 15//63
f 13//64 59//64 35//64
f 8//65 2//65 59//65
f 2//66 22//66 59//66
f 28//67 34//67 61//67
f 1//68 8//68 59//68
f 60//69 30//69 14//69
f 60//70 5//70 9//70
f 25//71 35//71 32//71
f 32//72 21//72 25//72
f 14//73 30//73 62//73
f 13//74 63//74 1//74
f 11//75 32//75 35//75
f 63//76 15//76 38//76
f 63//77 6//77 27//77
f 64//78 16//78 41//78
f 64//79 12//79 24//79
f 32//80 42//80 65//80
f 42//81 45//81 65//81
f 21//82 45//82 10//82
f 66//83 2//83 8//83
f 7//84 20//84 66//84
f 26//85 58//85 36//85
f 57//86 56//86 15//86
f 6//87 38//87 56//87
f 55//88 54//88 16//88
f 41//89 54//89 33//89
f 22//90 53//90 42//90
f 44//91 52//91 43//91
f 45//92 51//92 31//92
f 18//93 47//93 49//93
f 7//94 18//94 46//94
f 48//95 46//95 28//95
f 48//96 62//96 3//96
f 6//97 19//97 49//97
f 1//98 27//98 50//98
f 27//99 6//99 47//99
f 50//100 47//100 18//100
f 17//101 43//101 51//101
f 51//102 9//102 5//102
f 7//103 29//103 52//103
f 52//104 29//104 3//104
f 52//105 30//105 9//105
f 2//106 20//106 53//106
f 20//107 7//107 44//107
f 42//108 53//108 44//108
f 10//109 31//109 55//109
f 55//110 31//110 5//110
f 21//111 10//111 40//111
f 12//112 33//112 57//112
f 57//113 33//113 23//113
f 26//114 4//114 24//114
f 24//115 12//115 37//115
f 36//116 58//116 37//116
f 13//117 1//117 59//117
f 28//118 19//118 34//118
f 25//119 4//119 35//119
f 32//120 65//120 21//120
f 13//121 36//121 63//121
f 63//122 36//122 15//122
f 63//123 38//123 6//123
f 64//124 39//124 16//124
f 64//125 41//125 12//125
f 32//126 11//126 42//126
f 42//127 17//127 45//127
f 21//128 65//128 45//128
