# Blender 4.1.1
# www.blender.org
mtllib Plane.039.mtl
o Plane.039
v -13.678102 8.216040 -12.478895
v -14.082500 7.890255 -12.632275
v -13.630858 8.220245 -12.612391
v -14.035253 7.894461 -12.765770
v -13.598896 8.262920 -12.524561
v -13.920447 8.063784 -12.569460
v -14.058875 7.892359 -12.699022
v -13.873205 8.067988 -12.702955
v -13.859476 8.122093 -12.621216
v -13.563032 8.017057 -12.823889
v -13.929421 7.643733 -12.963831
v -13.477856 7.915056 -12.774784
v -13.844245 7.541731 -12.914726
v -13.470085 8.017370 -12.780102
v -13.750364 7.808730 -12.931686
v -13.886834 7.592732 -12.939280
v -13.665187 7.706728 -12.882582
v -13.654346 7.801566 -12.908752
v -13.322231 7.765699 -12.400284
v -13.671694 7.360505 -12.483286
v -13.390505 7.800155 -12.281027
v -13.739971 7.394961 -12.364027
v -13.308333 7.838618 -12.329247
v -13.494533 7.521489 -12.428370
v -13.705834 7.377731 -12.423655
v -13.562808 7.555946 -12.309113
v -13.473831 7.575299 -12.347916
v -13.966187 8.453850 -12.039038
v -14.358512 8.114908 -12.195225
v -14.062852 8.537763 -11.978325
v -14.455176 8.198818 -12.134514
v -13.960595 8.542392 -11.987213
v -14.178969 8.249874 -12.095901
v -14.406845 8.156862 -12.164871
v -14.275631 8.333788 -12.035191
v -14.177492 8.322617 -12.028793
v -13.399577 7.857816 -12.384176
v -13.777998 7.488227 -12.499935
v -13.433445 7.929306 -12.501709
v -13.811865 7.559714 -12.617466
v -13.364498 7.944360 -12.427031
v -13.630979 7.672249 -12.430368
v -13.794930 7.523973 -12.558699
v -13.664849 7.743739 -12.547897
v -13.615771 7.763960 -12.464352
v -13.739464 8.139997 -11.945421
v -14.152119 7.804932 -12.048586
v -13.674832 8.096876 -12.063889
v -14.087488 7.761810 -12.167055
v -13.650431 8.164491 -11.990475
v -13.982409 7.980106 -12.019764
v -14.119805 7.783371 -12.107819
v -13.917781 7.936986 -12.138231
v -13.909340 8.014353 -12.077078
v -13.699085 8.415498 -12.892645
v -14.111740 8.080431 -12.995810
v -13.781486 8.489875 -12.804615
v -14.194141 8.154812 -12.907778
v -13.683565 8.498739 -12.834452
v -13.916693 8.211033 -12.923578
v -14.152940 8.117622 -12.951796
v -13.999091 8.285411 -12.835552
v -13.901735 8.276942 -12.851265
vn 0.6499 -0.6794 0.3406
vn 0.3673 -0.8821 0.2949
vn 0.4884 -0.8713 -0.0473
vn 0.7328 -0.6721 0.1062
vn -0.3730 0.2862 0.8826
vn -0.6376 0.0882 0.7653
vn -0.4193 -0.1733 0.8912
vn -0.2234 0.1071 0.9688
vn -0.4074 0.7022 -0.5839
vn -0.5977 0.4239 -0.6805
vn -0.7728 0.5123 -0.3747
vn -0.5273 0.7627 -0.3744
vn 0.1151 0.5303 -0.8400
vn -0.0956 0.2753 -0.9566
vn -0.3434 0.4905 -0.8009
vn -0.0546 0.6777 -0.7333
vn 0.8093 -0.4611 -0.3638
vn 0.5752 -0.7214 -0.3856
vn 0.4884 -0.5381 -0.6870
vn 0.7498 -0.3356 -0.5702
vn 0.5241 -0.5626 0.6394
vn 0.2302 -0.7527 0.6168
vn 0.3959 -0.8633 0.3130
vn 0.6375 -0.6383 0.4314
vn -0.0737 0.6127 -0.7869
vn -0.3015 0.3634 -0.8815
vn -0.5127 0.5541 -0.6558
vn -0.2184 0.7433 -0.6323
vn 0.6734 -0.7070 0.2160
vn 0.3299 -0.8117 0.4819
vn 0.5755 -0.7899 -0.2120
vn -0.3271 0.1740 0.9288
vn -0.6854 0.2655 0.6781
vn -0.2427 -0.2647 0.9333
vn -0.4974 0.7150 -0.4914
vn -0.4381 0.4016 -0.8042
vn -0.7930 0.5807 -0.1843
vn -0.4974 0.7150 -0.4913
vn 0.0040 0.5892 -0.8080
vn 0.0848 0.1845 -0.9792
vn -0.4176 0.6207 -0.6636
vn 0.7645 -0.4289 -0.4812
vn 0.6370 -0.7462 -0.1936
vn 0.4609 -0.3746 -0.8045
vn 0.5607 -0.6314 0.5357
vn 0.1760 -0.6222 0.7628
vn 0.5120 -0.8463 0.1471
vn -0.1760 0.6645 -0.7262
vn -0.1290 0.2812 -0.9509
vn -0.5573 0.6678 -0.4934
vn -0.1760 0.6645 -0.7263
s 0
usemtl Material.001
f 7//1 8//1 9//1
f 9//2 3//2 5//2
f 1//3 9//3 5//3
f 6//4 7//4 9//4
f 16//5 17//5 18//5
f 18//6 12//6 14//6
f 10//7 18//7 14//7
f 15//8 16//8 18//8
f 25//9 26//9 27//9
f 27//10 21//10 23//10
f 19//11 27//11 23//11
f 24//12 25//12 27//12
f 34//13 35//13 36//13
f 36//14 30//14 32//14
f 28//15 36//15 32//15
f 33//16 34//16 36//16
f 43//17 44//17 45//17
f 45//18 39//18 41//18
f 37//19 45//19 41//19
f 42//20 43//20 45//20
f 52//21 53//21 54//21
f 54//22 48//22 50//22
f 46//23 54//23 50//23
f 51//24 52//24 54//24
f 61//25 62//25 63//25
f 63//26 57//26 59//26
f 55//27 63//27 59//27
f 60//28 61//28 63//28
f 7//29 4//29 8//29
f 9//30 8//30 3//30
f 1//31 6//31 9//31
f 6//29 2//29 7//29
f 16//32 13//32 17//32
f 18//33 17//33 12//33
f 10//34 15//34 18//34
f 15//32 11//32 16//32
f 25//35 22//35 26//35
f 27//36 26//36 21//36
f 19//37 24//37 27//37
f 24//38 20//38 25//38
f 34//39 31//39 35//39
f 36//40 35//40 30//40
f 28//41 33//41 36//41
f 33//39 29//39 34//39
f 43//42 40//42 44//42
f 45//43 44//43 39//43
f 37//44 42//44 45//44
f 42//42 38//42 43//42
f 52//45 49//45 53//45
f 54//46 53//46 48//46
f 46//47 51//47 54//47
f 51//45 47//45 52//45
f 61//48 58//48 62//48
f 63//49 62//49 57//49
f 55//50 60//50 63//50
f 60//51 56//51 61//51
