# Blender 4.1.1
# www.blender.org
mtllib Icosphere.016.mtl
o Icosphere.016
v 6.418452 14.072979 3.541954
v 6.403502 14.261623 3.612172
v 6.240986 14.141956 3.608959
v 6.248972 14.030416 3.440920
v 6.416425 14.081150 3.340284
v 6.511926 14.224043 3.446122
v 6.224780 14.335651 3.554538
v 6.129279 14.192757 3.448698
v 6.237706 14.155176 3.282649
v 6.400218 14.274845 3.285864
v 6.392233 14.386385 3.453900
v 6.222755 14.343822 3.352869
vn 0.2210 -0.3248 0.9196
vn 0.8130 -0.1454 0.5638
vn -0.1167 -0.8300 0.5454
vn 0.2667 -0.9629 -0.0417
vn 0.8413 -0.5398 -0.0303
vn 0.7557 0.5394 0.3714
vn -0.2022 0.2492 0.9471
vn -0.7486 -0.5683 0.3416
vn -0.1283 -0.7833 -0.6083
vn 0.8014 -0.0987 -0.5899
vn 0.1283 0.7833 0.6083
vn -0.8014 0.0987 0.5899
vn -0.7557 -0.5394 -0.3714
vn 0.2022 -0.2492 -0.9471
vn 0.7486 0.5683 -0.3416
vn -0.2667 0.9629 0.0417
vn -0.8413 0.5398 0.0303
vn -0.8130 0.1454 -0.5638
vn -0.2210 0.3248 -0.9196
vn 0.1167 0.8300 -0.5454
s 0
usemtl Smoke
f 1//1 2//1 3//1
f 2//2 1//2 6//2
f 1//3 3//3 4//3
f 1//4 4//4 5//4
f 1//5 5//5 6//5
f 2//6 6//6 11//6
f 3//7 2//7 7//7
f 4//8 3//8 8//8
f 5//9 4//9 9//9
f 6//10 5//10 10//10
f 2//11 11//11 7//11
f 3//12 7//12 8//12
f 4//13 8//13 9//13
f 5//14 9//14 10//14
f 6//15 10//15 11//15
f 7//16 11//16 12//16
f 8//17 7//17 12//17
f 9//18 8//18 12//18
f 10//19 9//19 12//19
f 11//20 10//20 12//20
