# Blender 4.1.1
# www.blender.org
mtllib Cube.003_Cube.001.mtl
o Cube.003_Cube.001
v 2.064160 -0.990347 -1.161841
v 2.062094 -0.991080 -1.222962
v 2.094563 -1.093993 -1.161625
v 2.092497 -1.094726 -1.222746
v 3.124817 -0.679300 -1.201420
v 3.122751 -0.680033 -1.262541
v 3.155220 -0.782945 -1.201204
v 3.167315 -0.783678 -1.262325
v 3.161267 -0.783312 -1.231765
v 3.145033 -0.731856 -1.262433
v 3.123784 -0.679666 -1.231980
v 3.140018 -0.731122 -1.201312
v 3.152503 -0.731489 -1.231873
vn -0.9590 -0.2812 0.0358
vn 0.2831 -0.9567 0.0675
vn 0.8249 0.4578 0.3315
vn -0.2815 0.9596 -0.0020
vn 0.0338 0.0120 0.9994
vn -0.0336 -0.0119 -0.9994
vn 0.9681 0.1641 0.1896
vn 0.9045 0.3893 0.1743
vn 0.8545 0.4731 -0.2145
vn 0.2781 -0.9606 0.0021
vn 0.9590 0.2812 -0.0358
vn -0.0326 -0.0161 -0.9993
vn -0.0322 -0.0159 -0.9994
vn 0.8942 0.2631 0.3622
vn 0.9582 0.1616 -0.2362
vn 0.9181 0.3947 -0.0358
s 0
usemtl CHIM
f 4//1 1//1 2//1
f 8//2 9//2 3//2
f 11//3 12//3 13//3
f 2//4 5//4 11//4
f 3//5 12//5 5//5
f 10//6 4//6 2//6
f 13//7 7//7 9//7
f 10//8 9//8 8//8
f 10//9 11//9 13//9
f 4//1 3//1 1//1
f 3//10 4//10 8//10
f 9//2 7//2 3//2
f 11//11 5//11 12//11
f 11//4 6//4 2//4
f 2//4 1//4 5//4
f 5//5 1//5 3//5
f 3//5 7//5 12//5
f 2//12 6//12 10//12
f 10//13 8//13 4//13
f 13//14 12//14 7//14
f 10//15 13//15 9//15
f 10//16 6//16 11//16
