# Blender 4.1.1
# www.blender.org
mtllib Cube.106_Cube.114.mtl
o Cube.106_Cube.114
v 1.702960 -0.259654 -0.882016
v 2.579353 0.214762 -0.918047
v 2.577220 0.217540 -0.955433
v 1.658597 -0.183727 -0.873261
v 1.647484 -0.182801 -0.897332
v 2.528778 0.295185 -0.939371
v 1.699018 -0.261330 -0.895113
v 2.140130 -0.022489 -0.928628
v 2.546754 0.270418 -0.940067
v 1.675812 -0.220469 -0.876355
v 2.118035 0.018085 -0.926275
v 2.120719 0.015769 -0.890437
v 2.581358 0.216927 -0.932794
v 1.714349 -0.252138 -0.908314
v 2.355650 0.095226 -0.938032
v 2.545730 0.303331 -0.917462
v 2.561990 0.228536 -0.914537
v 1.877467 -0.053418 -0.911230
v 2.527222 0.291658 -0.909155
v 1.688669 -0.242689 -0.907526
v 1.960016 -0.121885 -0.921100
v 2.162611 -0.014541 -0.901377
v 2.567428 0.237492 -0.944602
v 2.536021 0.296809 -0.925254
v 2.542972 0.272584 -0.912635
v 2.385859 0.218817 -0.933748
v 1.880288 -0.056731 -0.885718
v 1.668432 -0.197456 -0.903087
v 1.696772 -0.237614 -0.879602
v 2.129226 -0.002326 -0.925540
v 2.106570 0.038731 -0.930661
v 2.333730 0.135273 -0.938542
v 2.131365 -0.004171 -0.896978
v 1.904289 -0.100644 -0.886061
v 2.335881 0.133790 -0.904675
v 1.666864 -0.228600 -0.903994
v 2.044692 0.027879 -0.893282
v 2.157514 0.090846 -0.911912
v 2.122303 -0.033932 -0.919784
v 1.929555 -0.148400 -0.907527
v 2.345952 0.082197 -0.928933
v 1.945867 -0.134256 -0.896369
v 1.853589 -0.068214 -0.899963
v 2.310193 0.180375 -0.910032
v 1.915485 -0.121571 -0.892321
v 1.893036 -0.080272 -0.888877
v 2.321435 0.157486 -0.942256
v 1.923168 -0.067288 -0.924306
v 1.912852 -0.118948 -0.922622
v 2.344805 0.114387 -0.947294
v 2.264501 0.119886 -0.899082
v 1.650292 -0.187255 -0.882108
v 2.357447 0.093182 -0.920873
vn -0.9061 -0.2883 0.3096
vn 0.4802 -0.8749 -0.0632
vn 0.0724 -0.1253 -0.9895
vn -0.3556 0.6886 0.6320
vn 0.4056 -0.7404 -0.5361
vn 0.5015 -0.8126 0.2970
vn 0.8556 0.4975 -0.1429
vn 0.8418 0.5366 -0.0584
vn -0.4812 0.8683 0.1204
vn -0.4627 0.8759 0.1366
vn -0.4999 0.8553 -0.1363
vn -0.9168 -0.3957 0.0533
vn -0.6111 -0.3463 0.7118
vn -0.7596 -0.5148 0.3974
vn 0.1015 -0.1133 0.9884
vn 0.1051 -0.1192 0.9873
vn -0.1002 0.0340 -0.9944
vn 0.0051 0.0508 0.9987
vn 0.0847 -0.0343 0.9958
vn 0.0940 -0.0833 0.9921
vn 0.4561 -0.7849 0.4193
vn -0.2037 0.3880 -0.8989
vn 0.3453 0.1152 0.9314
vn -0.4890 0.8648 0.1142
vn 0.1014 -0.0970 0.9901
vn -0.0963 0.0996 -0.9904
vn 0.0226 0.0090 0.9997
vn 0.0656 -0.1724 -0.9828
vn 0.1360 -0.2164 0.9668
vn 0.7431 0.2949 0.6008
vn 0.0522 -0.0206 0.9984
vn -0.4561 0.8279 0.3263
vn 0.3542 -0.6981 -0.6222
vn 0.4771 -0.8693 -0.1291
vn 0.4737 -0.8738 -0.1102
vn 0.3446 -0.7101 -0.6140
vn 0.4415 -0.8114 0.3831
vn 0.4705 -0.8656 -0.1715
vn 0.7338 0.4000 -0.5492
vn -0.4489 0.8722 0.1942
vn 0.7236 0.5374 -0.4331
vn 0.6334 0.7486 0.1960
vn -0.3952 0.6868 -0.6100
vn -0.4587 0.8579 0.2314
vn -0.4452 0.8665 0.2256
vn 0.0533 -0.0234 0.9983
vn -0.3383 -0.5412 -0.7698
vn -0.1282 -0.4233 0.8969
vn -0.2384 0.0403 -0.9703
vn 0.1631 -0.2016 0.9658
vn 0.0993 -0.0788 0.9919
vn 0.0839 -0.1150 0.9898
vn 0.1007 -0.0785 0.9918
vn -0.0663 0.1732 0.9827
vn -0.0231 0.1244 0.9920
vn 0.0291 -0.1491 -0.9884
vn -0.1210 0.2600 -0.9580
vn -0.2717 0.4064 -0.8724
vn -0.2002 0.2368 -0.9507
vn -0.1885 0.2694 -0.9444
vn 0.0232 -0.1409 -0.9898
vn -0.0670 -0.0191 -0.9976
vn 0.0046 -0.0335 -0.9994
vn 0.1130 -0.3799 -0.9181
vn -0.2379 0.2654 -0.9343
vn -0.0672 0.0946 -0.9932
vn -0.5446 -0.7404 0.3941
vn -0.4001 0.7601 0.5120
vn -0.2838 0.4770 -0.8318
vn 0.4721 -0.8743 -0.1128
vn 0.4241 -0.7806 0.4591
vn 0.4805 -0.8761 -0.0389
vn 0.1320 -0.3699 -0.9197
vn 0.0274 -0.0758 -0.9967
vn 0.0893 -0.0848 0.9924
vn 0.1488 -0.2356 0.9604
vn 0.5526 0.0807 0.8295
vn 0.4405 -0.8668 -0.2335
vn 0.3938 -0.7050 -0.5898
vn 0.4314 -0.8940 -0.1215
vn 0.4391 -0.8983 -0.0172
vn 0.2644 0.5516 -0.7911
vn -0.4196 0.8164 0.3967
vn -0.4609 0.8735 -0.1568
vn 0.1825 -0.2171 0.9589
vn 0.0858 -0.0832 0.9928
vn 0.1004 -0.0804 0.9917
vn 0.0953 -0.1313 0.9867
vn 0.0856 -0.0437 0.9954
vn -0.0414 0.1143 0.9926
vn 0.0442 -0.1841 -0.9819
vn -0.0391 -0.0003 -0.9992
vn -0.1520 0.1654 -0.9744
vn -0.1944 0.2854 -0.9385
vn -0.0453 -0.0398 -0.9982
vn -0.1099 0.0783 -0.9909
vn -0.0973 0.0990 -0.9903
vn -0.0287 -0.0517 -0.9983
vn -0.1593 0.3085 -0.9378
vn -0.6400 -0.4621 0.6139
vn -0.4429 0.8642 0.2387
s 0
usemtl Bark
f 7//1 1//1 29//1
f 2//2 53//2 13//2
f 9//3 32//3 47//3
f 37//4 19//4 44//4
f 21//5 39//5 40//5
f 40//6 39//6 42//6
f 23//7 13//7 3//7
f 23//8 9//8 13//8
f 5//9 43//9 18//9
f 6//10 26//10 24//10
f 38//11 37//11 44//11
f 36//12 52//12 5//12
f 52//13 10//13 4//13
f 36//14 10//14 52//14
f 22//15 17//15 33//15
f 2//16 17//16 22//16
f 48//17 36//17 28//17
f 51//18 19//18 37//18
f 35//19 51//19 12//19
f 35//20 25//20 51//20
f 41//21 13//21 53//21
f 3//22 50//22 23//22
f 16//23 19//23 25//23
f 52//24 4//24 27//24
f 51//25 25//25 19//25
f 21//26 30//26 8//26
f 37//27 46//27 51//27
f 31//28 11//28 48//28
f 45//29 12//29 34//29
f 13//30 25//30 17//30
f 17//31 25//31 35//31
f 5//32 52//32 43//32
f 41//33 8//33 15//33
f 39//34 22//34 42//34
f 13//35 15//35 3//35
f 40//36 14//36 21//36
f 1//37 40//37 42//37
f 21//38 8//38 39//38
f 9//39 16//39 13//39
f 38//40 18//40 43//40
f 9//41 6//41 24//41
f 13//42 17//42 2//42
f 44//43 24//43 38//43
f 24//44 26//44 38//44
f 16//45 44//45 19//45
f 35//46 33//46 17//46
f 36//47 14//47 7//47
f 20//48 14//48 36//48
f 5//49 28//49 36//49
f 34//50 29//50 45//50
f 45//51 1//51 42//51
f 42//52 33//52 45//52
f 4//53 46//53 27//53
f 46//54 12//54 51//54
f 10//55 34//55 46//55
f 32//56 31//56 47//56
f 26//57 9//57 47//57
f 26//58 47//58 31//58
f 28//59 18//59 48//59
f 18//60 31//60 48//60
f 14//61 49//61 21//61
f 49//62 36//62 48//62
f 48//63 30//63 49//63
f 15//64 30//64 50//64
f 30//65 32//65 50//65
f 23//66 32//66 9//66
f 36//67 29//67 10//67
f 37//68 43//68 52//68
f 37//69 52//69 27//69
f 39//70 53//70 22//70
f 39//71 41//71 53//71
f 2//72 22//72 53//72
f 3//73 15//73 50//73
f 21//74 49//74 30//74
f 37//75 27//75 46//75
f 45//76 33//76 12//76
f 13//77 16//77 25//77
f 41//78 39//78 8//78
f 13//79 41//79 15//79
f 40//80 7//80 14//80
f 1//81 7//81 40//81
f 9//82 24//82 16//82
f 38//83 26//83 18//83
f 44//84 16//84 24//84
f 35//85 12//85 33//85
f 34//86 10//86 29//86
f 45//87 29//87 1//87
f 42//88 22//88 33//88
f 4//89 10//89 46//89
f 46//90 34//90 12//90
f 32//91 11//91 31//91
f 26//92 6//92 9//92
f 28//93 5//93 18//93
f 18//94 26//94 31//94
f 14//95 20//95 49//95
f 49//96 20//96 36//96
f 48//63 11//63 30//63
f 15//97 8//97 30//97
f 30//98 11//98 32//98
f 23//99 50//99 32//99
f 36//100 7//100 29//100
f 37//101 38//101 43//101
