# Blender 4.1.1
# www.blender.org
mtllib Cube.106_Cube.114.mtl
o Cube.106_Cube.114
v 5.067915 4.905899 8.852466
v 7.459803 5.004238 10.147261
v 7.453981 5.106274 10.154842
v 4.946838 4.882005 9.059689
v 4.916508 4.947701 9.062216
v 7.321771 5.062437 10.366754
v 5.057157 4.941644 8.847891
v 6.261057 5.033115 9.499745
v 7.370831 5.064336 10.299159
v 4.993822 4.890449 8.959411
v 6.200755 5.026693 9.610481
v 6.208080 4.928883 9.604160
v 7.465274 5.044486 10.153170
v 5.098999 4.977673 8.872978
v 6.849263 5.058782 9.821018
v 7.368037 5.002642 10.388987
v 7.412415 4.994658 10.184853
v 5.544187 4.985632 9.415333
v 7.317524 4.979970 10.357128
v 5.028912 4.975522 8.898767
v 5.769483 5.012569 9.228470
v 6.322413 4.958741 9.521438
v 7.427257 5.076714 10.209296
v 7.341539 5.023908 10.371186
v 7.360510 4.989468 10.305071
v 6.931711 5.047090 10.158327
v 5.551886 4.916003 9.406291
v 4.973680 4.963408 9.022219
v 5.051026 4.899311 8.912618
v 6.231297 5.024687 9.554775
v 6.169464 5.038664 9.666829
v 6.789438 5.060174 9.930316
v 6.237135 4.946735 9.549740
v 5.617390 4.916939 9.286442
v 6.795309 4.967742 9.926269
v 4.969400 4.965882 8.937219
v 6.000584 4.936647 9.637212
v 6.308503 4.987494 9.809064
v 6.212403 5.008978 9.468514
v 5.686347 4.975525 9.156104
v 6.822795 5.033948 9.785459
v 5.730866 4.945072 9.194706
v 5.479018 4.954882 9.374950
v 6.725200 4.982363 10.053410
v 5.647947 4.934024 9.229327
v 5.586678 4.924625 9.342042
v 6.755882 5.070310 9.990940
v 5.668916 5.021319 9.377478
v 5.640761 5.016723 9.236485
v 6.819664 5.084060 9.873313
v 6.600496 4.952477 9.888321
v 4.924171 4.906150 9.050059
v 6.854167 5.011950 9.815439
vn -0.9061 -0.3096 -0.2883
vn 0.4802 0.0632 -0.8749
vn 0.0724 0.9895 -0.1253
vn -0.3556 -0.6320 0.6885
vn 0.4056 0.5361 -0.7404
vn 0.5015 -0.2969 -0.8126
vn 0.8556 0.1429 0.4975
vn 0.8418 0.0585 0.5366
vn -0.4812 -0.1205 0.8683
vn -0.4627 -0.1366 0.8759
vn -0.4999 0.1363 0.8553
vn -0.9168 -0.0533 -0.3957
vn -0.6111 -0.7118 -0.3463
vn -0.7596 -0.3974 -0.5148
vn 0.1015 -0.9884 -0.1133
vn 0.1051 -0.9873 -0.1192
vn -0.1002 0.9944 0.0340
vn 0.0051 -0.9987 0.0508
vn 0.0847 -0.9958 -0.0343
vn 0.0940 -0.9921 -0.0833
vn 0.4561 -0.4193 -0.7850
vn -0.2037 0.8989 0.3880
vn 0.3453 -0.9314 0.1152
vn -0.4890 -0.1142 0.8648
vn 0.1014 -0.9901 -0.0970
vn -0.0963 0.9904 0.0996
vn 0.0226 -0.9997 0.0090
vn 0.0656 0.9828 -0.1724
vn 0.1360 -0.9668 -0.2165
vn 0.7431 -0.6008 0.2949
vn 0.0522 -0.9984 -0.0206
vn -0.4561 -0.3263 0.8279
vn 0.3542 0.6222 -0.6982
vn 0.4772 0.1291 -0.8693
vn 0.4737 0.1102 -0.8738
vn 0.3446 0.6140 -0.7102
vn 0.4415 -0.3831 -0.8114
vn 0.4705 0.1716 -0.8656
vn 0.7338 0.5492 0.4000
vn -0.4489 -0.1942 0.8722
vn 0.7236 0.4331 0.5374
vn 0.6334 -0.1960 0.7486
vn -0.3952 0.6100 0.6868
vn -0.4587 -0.2314 0.8579
vn -0.4452 -0.2257 0.8665
vn 0.0533 -0.9983 -0.0234
vn -0.3383 0.7698 -0.5413
vn -0.1282 -0.8968 -0.4234
vn -0.2384 0.9703 0.0403
vn 0.1631 -0.9658 -0.2016
vn 0.0993 -0.9919 -0.0788
vn 0.0839 -0.9898 -0.1150
vn 0.1007 -0.9918 -0.0785
vn -0.0663 -0.9827 0.1732
vn -0.0231 -0.9920 0.1244
vn 0.0291 0.9884 -0.1492
vn -0.1210 0.9580 0.2600
vn -0.2717 0.8724 0.4064
vn -0.2002 0.9507 0.2367
vn -0.1885 0.9444 0.2694
vn 0.0232 0.9898 -0.1409
vn -0.0670 0.9976 -0.0191
vn 0.0046 0.9994 -0.0335
vn 0.1130 0.9181 -0.3798
vn -0.2379 0.9343 0.2653
vn -0.0671 0.9932 0.0946
vn -0.5446 -0.3941 -0.7404
vn -0.4001 -0.5120 0.7601
vn -0.2838 0.8318 0.4770
vn 0.4721 0.1128 -0.8743
vn 0.4241 -0.4591 -0.7806
vn 0.4805 0.0388 -0.8761
vn 0.1319 0.9197 -0.3699
vn 0.0274 0.9967 -0.0759
vn 0.0893 -0.9924 -0.0848
vn 0.1488 -0.9604 -0.2356
vn 0.5526 -0.8295 0.0807
vn 0.4405 0.2336 -0.8668
vn 0.3938 0.5898 -0.7050
vn 0.4314 0.1216 -0.8940
vn 0.4391 0.0172 -0.8983
vn 0.2644 0.7911 0.5516
vn -0.4196 -0.3967 0.8164
vn -0.4609 0.1568 0.8735
vn 0.1825 -0.9589 -0.2171
vn 0.0858 -0.9928 -0.0831
vn 0.1004 -0.9917 -0.0804
vn 0.0953 -0.9867 -0.1313
vn 0.0856 -0.9954 -0.0437
vn -0.0414 -0.9926 0.1143
vn 0.0442 0.9819 -0.1841
vn -0.0391 0.9992 -0.0003
vn -0.1520 0.9744 0.1654
vn -0.1944 0.9385 0.2854
vn -0.0453 0.9982 -0.0398
vn -0.1099 0.9909 0.0783
vn -0.0973 0.9903 0.0990
vn -0.0287 0.9983 -0.0517
vn -0.1593 0.9378 0.3085
vn -0.6400 -0.6139 -0.4621
vn -0.4429 -0.2387 0.8642
s 0
usemtl Bark
f 7//1 1//1 29//1
f 2//2 53//2 13//2
f 9//3 32//3 47//3
f 37//4 19//4 44//4
f 21//5 39//5 40//5
f 40//6 39//6 42//6
f 23//7 13//7 3//7
f 23//8 9//8 13//8
f 5//9 43//9 18//9
f 6//10 26//10 24//10
f 38//11 37//11 44//11
f 36//12 52//12 5//12
f 52//13 10//13 4//13
f 36//14 10//14 52//14
f 22//15 17//15 33//15
f 2//16 17//16 22//16
f 48//17 36//17 28//17
f 51//18 19//18 37//18
f 35//19 51//19 12//19
f 35//20 25//20 51//20
f 41//21 13//21 53//21
f 3//22 50//22 23//22
f 16//23 19//23 25//23
f 52//24 4//24 27//24
f 51//25 25//25 19//25
f 21//26 30//26 8//26
f 37//27 46//27 51//27
f 31//28 11//28 48//28
f 45//29 12//29 34//29
f 13//30 25//30 17//30
f 17//31 25//31 35//31
f 5//32 52//32 43//32
f 41//33 8//33 15//33
f 39//34 22//34 42//34
f 13//35 15//35 3//35
f 40//36 14//36 21//36
f 1//37 40//37 42//37
f 21//38 8//38 39//38
f 9//39 16//39 13//39
f 38//40 18//40 43//40
f 9//41 6//41 24//41
f 13//42 17//42 2//42
f 44//43 24//43 38//43
f 24//44 26//44 38//44
f 16//45 44//45 19//45
f 35//46 33//46 17//46
f 36//47 14//47 7//47
f 20//48 14//48 36//48
f 5//49 28//49 36//49
f 34//50 29//50 45//50
f 45//51 1//51 42//51
f 42//52 33//52 45//52
f 4//53 46//53 27//53
f 46//54 12//54 51//54
f 10//55 34//55 46//55
f 32//56 31//56 47//56
f 26//57 9//57 47//57
f 26//58 47//58 31//58
f 28//59 18//59 48//59
f 18//60 31//60 48//60
f 14//61 49//61 21//61
f 49//62 36//62 48//62
f 48//63 30//63 49//63
f 15//64 30//64 50//64
f 30//65 32//65 50//65
f 23//66 32//66 9//66
f 36//67 29//67 10//67
f 37//68 43//68 52//68
f 37//69 52//69 27//69
f 39//70 53//70 22//70
f 39//71 41//71 53//71
f 2//72 22//72 53//72
f 3//73 15//73 50//73
f 21//74 49//74 30//74
f 37//75 27//75 46//75
f 45//76 33//76 12//76
f 13//77 16//77 25//77
f 41//78 39//78 8//78
f 13//79 41//79 15//79
f 40//80 7//80 14//80
f 1//81 7//81 40//81
f 9//82 24//82 16//82
f 38//83 26//83 18//83
f 44//84 16//84 24//84
f 35//85 12//85 33//85
f 34//86 10//86 29//86
f 45//87 29//87 1//87
f 42//88 22//88 33//88
f 4//89 10//89 46//89
f 46//90 34//90 12//90
f 32//91 11//91 31//91
f 26//92 6//92 9//92
f 28//93 5//93 18//93
f 18//94 26//94 31//94
f 14//95 20//95 49//95
f 49//96 20//96 36//96
f 48//63 11//63 30//63
f 15//97 8//97 30//97
f 30//98 11//98 32//98
f 23//99 50//99 32//99
f 36//100 7//100 29//100
f 37//101 38//101 43//101
