# Blender 4.1.1
# www.blender.org
mtllib Cube.099_Cube.107.mtl
o Cube.099_Cube.107
v 2.528742 0.243796 -0.921729
v 2.543861 0.232987 -0.734558
v 2.533139 0.257221 -0.732045
v 2.500741 0.230919 -0.920993
v 2.492287 0.246512 -0.920957
v 2.505746 0.239368 -0.732246
v 2.525164 0.252492 -0.921620
v 2.528841 0.257126 -0.826360
v 2.516078 0.242183 -0.732097
v 2.513796 0.236364 -0.922077
v 2.513583 0.251783 -0.825563
v 2.523879 0.228528 -0.827836
v 2.539847 0.242476 -0.733017
v 2.521969 0.260461 -0.917396
v 2.532117 0.254731 -0.780183
v 2.512094 0.224436 -0.730273
v 2.537549 0.229310 -0.735979
v 2.493705 0.246153 -0.871015
v 2.514177 0.219866 -0.734915
v 2.514681 0.258878 -0.920366
v 2.526315 0.259435 -0.865038
v 2.537630 0.238760 -0.823926
v 2.528298 0.248263 -0.732146
v 2.510208 0.230036 -0.731925
v 2.521736 0.223981 -0.734309
v 2.502926 0.241207 -0.762645
v 2.501685 0.229754 -0.872672
v 2.498945 0.251771 -0.918928
v 2.521818 0.240200 -0.920484
v 2.521761 0.253214 -0.826083
v 2.504356 0.252721 -0.824811
v 2.516315 0.251312 -0.779220
v 2.529966 0.234680 -0.827895
v 2.518776 0.234094 -0.873672
v 2.525768 0.229270 -0.781352
v 2.507463 0.255119 -0.922435
v 2.505589 0.228645 -0.837975
v 2.503423 0.236253 -0.812725
v 2.531120 0.252190 -0.830911
v 2.531837 0.252628 -0.873453
v 2.536423 0.249840 -0.783677
v 2.533589 0.244203 -0.870206
v 2.496456 0.239874 -0.877014
v 2.506138 0.228413 -0.779937
v 2.525324 0.240155 -0.873771
v 2.510068 0.234030 -0.873024
v 2.506651 0.251664 -0.778473
v 2.502846 0.256358 -0.864620
v 2.516359 0.259754 -0.871833
v 2.522193 0.259002 -0.779164
v 2.518036 0.226210 -0.794134
v 2.497976 0.236957 -0.922038
v 2.537412 0.243684 -0.781293
vn -0.1515 -0.0500 -0.9872
vn 0.9182 0.3944 -0.0364
vn 0.0504 0.9805 0.1902
vn -0.7396 -0.6730 0.0043
vn 0.7882 0.6151 0.0196
vn 0.9774 0.2104 0.0186
vn 0.0548 -0.0408 0.9977
vn 0.0395 -0.0713 0.9967
vn -0.9075 -0.4193 0.0228
vn -0.9014 -0.4290 0.0577
vn -0.9546 -0.2978 0.0078
vn -0.1198 0.0409 -0.9920
vn -0.0090 -0.1745 -0.9846
vn -0.0032 -0.0202 -0.9998
vn 0.5046 -0.8585 -0.0918
vn 0.5165 -0.8514 -0.0910
vn -0.3832 0.9223 -0.0504
vn 0.1455 -0.9847 -0.0960
vn 0.3682 -0.9298 -0.0001
vn 0.4531 -0.8894 -0.0612
vn 0.9889 0.1409 -0.0464
vn -0.8598 0.4622 0.2172
vn 0.2782 -0.6191 0.7344
vn -0.9097 -0.4152 0.0077
vn 0.4811 -0.8745 -0.0623
vn -0.4794 0.8736 0.0835
vn 0.2301 -0.9659 -0.1190
vn 0.1077 0.9904 0.0864
vn 0.7006 -0.6948 -0.1624
vn 0.1835 -0.2461 0.9517
vn 0.3108 -0.9471 -0.0799
vn -0.8590 -0.5119 0.0042
vn 0.7440 0.6680 -0.0181
vn 0.9054 0.4237 -0.0292
vn 0.9085 0.4160 -0.0408
vn 0.7453 0.6650 -0.0488
vn 0.9813 0.1680 -0.0936
vn 0.8959 0.4432 -0.0320
vn 0.0374 0.0939 0.9949
vn -0.8872 -0.4560 0.0705
vn -0.0210 0.0243 0.9995
vn -0.1020 -0.2014 0.9742
vn -0.9964 0.0072 0.0842
vn -0.8815 -0.4706 0.0378
vn -0.8800 -0.4701 0.0679
vn 0.3164 -0.9451 -0.0813
vn 0.1138 0.5005 -0.8582
vn 0.4172 -0.3365 -0.8442
vn -0.4774 0.7686 -0.4258
vn 0.6780 -0.7333 -0.0516
vn 0.4519 -0.8914 -0.0355
vn 0.4868 -0.8602 -0.1519
vn 0.4532 -0.8909 -0.0303
vn -0.1095 -0.9902 -0.0871
vn 0.0038 -0.9989 -0.0472
vn 0.0380 0.9991 0.0209
vn -0.6927 0.6659 0.2770
vn -0.9117 0.4072 0.0544
vn -0.7439 0.6682 -0.0030
vn -0.7685 0.6339 0.0871
vn 0.0198 0.9996 0.0179
vn -0.2644 0.9635 -0.0418
vn -0.1604 0.9743 0.1582
vn 0.3825 0.9166 -0.1166
vn -0.7924 0.6062 -0.0675
vn -0.4385 0.8827 0.1688
vn 0.1759 0.0406 -0.9836
vn -0.7962 -0.6049 0.0123
vn -0.9437 0.3097 0.1161
vn 0.9077 0.4173 -0.0435
vn 0.9875 0.1180 -0.1050
vn 0.9227 0.3834 -0.0396
vn 0.3899 0.9192 -0.0558
vn -0.0703 0.9863 0.1493
vn 0.4503 -0.8894 -0.0791
vn 0.6699 -0.7262 -0.1545
vn 0.3394 -0.3921 0.8550
vn 0.8773 0.4741 -0.0749
vn 0.7645 0.6432 0.0418
vn 0.8961 0.4257 -0.1254
vn 0.9166 0.3788 -0.1281
vn -0.3194 0.1676 0.9327
vn -0.8348 -0.5486 0.0460
vn -0.9516 -0.2938 0.0906
vn 0.7107 -0.7033 -0.0177
vn 0.4438 -0.8918 -0.0875
vn 0.4556 -0.8895 -0.0351
vn 0.5222 -0.8405 -0.1445
vn 0.3839 -0.9233 -0.0148
vn -0.0017 -0.9927 -0.1204
vn 0.1015 0.9948 0.0041
vn -0.2631 0.9612 0.0826
vn -0.6240 0.7810 0.0233
vn -0.7871 0.6095 0.0948
vn -0.2082 0.9780 -0.0105
vn -0.4619 0.8869 -0.0000
vn -0.4797 0.8738 0.0794
vn -0.1711 0.9851 0.0201
vn -0.7731 0.5892 0.2349
vn 0.0309 -0.1003 -0.9945
vn -0.8768 -0.4760 0.0682
s 0
usemtl Bark
f 7//1 1//1 29//1
f 2//2 53//2 13//2
f 9//3 32//3 47//3
f 37//4 19//4 44//4
f 21//5 39//5 40//5
f 40//6 39//6 42//6
f 23//7 13//7 3//7
f 23//8 9//8 13//8
f 5//9 43//9 18//9
f 6//10 26//10 24//10
f 38//11 37//11 44//11
f 36//12 52//12 5//12
f 52//13 10//13 4//13
f 36//14 10//14 52//14
f 22//15 17//15 33//15
f 2//16 17//16 22//16
f 48//17 36//17 28//17
f 51//18 19//18 37//18
f 35//19 51//19 12//19
f 35//20 25//20 51//20
f 41//21 13//21 53//21
f 3//22 50//22 23//22
f 16//23 19//23 25//23
f 52//24 4//24 27//24
f 51//25 25//25 19//25
f 21//26 30//26 8//26
f 37//27 46//27 51//27
f 31//28 11//28 48//28
f 34//29 33//29 12//29
f 13//30 25//30 17//30
f 17//31 25//31 35//31
f 5//32 52//32 43//32
f 41//33 8//33 15//33
f 39//34 22//34 42//34
f 13//35 15//35 3//35
f 40//36 14//36 21//36
f 1//37 40//37 42//37
f 21//38 8//38 39//38
f 9//39 16//39 13//39
f 38//40 18//40 43//40
f 9//41 6//41 24//41
f 13//42 17//42 2//42
f 44//43 24//43 38//43
f 24//44 26//44 38//44
f 16//45 44//45 19//45
f 35//46 33//46 17//46
f 36//47 14//47 7//47
f 20//48 14//48 36//48
f 5//49 28//49 36//49
f 34//50 29//50 45//50
f 45//51 1//51 42//51
f 42//52 33//52 45//52
f 4//53 46//53 27//53
f 46//54 12//54 51//54
f 10//55 34//55 46//55
f 32//56 31//56 47//56
f 26//57 9//57 47//57
f 26//58 47//58 31//58
f 28//59 18//59 48//59
f 18//60 31//60 48//60
f 14//61 49//61 21//61
f 49//62 36//62 48//62
f 48//63 30//63 49//63
f 15//64 30//64 50//64
f 30//65 32//65 50//65
f 23//66 32//66 9//66
f 36//67 29//67 10//67
f 37//68 43//68 52//68
f 37//69 52//69 27//69
f 39//70 53//70 22//70
f 39//71 41//71 53//71
f 2//72 22//72 53//72
f 3//73 15//73 50//73
f 21//74 49//74 30//74
f 37//75 27//75 46//75
f 34//76 45//76 33//76
f 13//77 16//77 25//77
f 41//78 39//78 8//78
f 13//79 41//79 15//79
f 40//80 7//80 14//80
f 1//81 7//81 40//81
f 9//82 24//82 16//82
f 38//83 26//83 18//83
f 44//84 16//84 24//84
f 35//85 12//85 33//85
f 34//86 10//86 29//86
f 45//87 29//87 1//87
f 42//88 22//88 33//88
f 4//89 10//89 46//89
f 46//90 34//90 12//90
f 32//91 11//91 31//91
f 26//92 6//92 9//92
f 28//93 5//93 18//93
f 18//94 26//94 31//94
f 14//95 20//95 49//95
f 49//96 20//96 36//96
f 48//63 11//63 30//63
f 15//97 8//97 30//97
f 30//98 11//98 32//98
f 23//99 50//99 32//99
f 36//100 7//100 29//100
f 37//101 38//101 43//101
