# Blender 4.1.1
# www.blender.org
mtllib Plane.019_Plane.mtl
o Plane.019_Plane
v 6.001848 5.763566 7.207450
v 8.875763 5.798807 8.106224
v 6.900609 5.758632 1.823472
v 9.774524 5.793874 2.722246
v 6.901733 5.659850 1.823750
v 6.002972 5.664783 7.207728
v 8.876887 5.700022 8.106503
v 9.775648 5.695088 2.722525
vn 0.0114 -0.9999 0.0028
vn -0.0114 0.9999 -0.0028
vn -0.2985 -0.0007 0.9544
vn 0.2985 0.0007 -0.9544
vn -0.9863 -0.0117 -0.1646
vn 0.9863 0.0117 0.1646
s 0
usemtl Bark
f 1//1 4//1 2//1
f 6//2 8//2 5//2
f 4//3 5//3 8//3
f 1//4 7//4 6//4
f 4//5 7//5 2//5
f 1//6 5//6 3//6
f 1//1 3//1 4//1
f 6//2 7//2 8//2
f 4//3 3//3 5//3
f 1//4 2//4 7//4
f 4//5 8//5 7//5
f 1//6 6//6 5//6
