# Blender 4.1.1
# www.blender.org
mtllib Plane.019_Plane.mtl
o Plane.019_Plane
v 2.045155 -0.862391 -1.196268
v 3.098164 -0.533078 -1.209180
v 2.374463 -2.835093 -1.194463
v 3.427472 -2.505780 -1.207375
v 2.374875 -2.834991 -1.158269
v 2.045567 -0.862289 -1.160074
v 3.098576 -0.532976 -1.172985
v 3.427884 -2.505678 -1.171180
vn 0.0114 0.0028 0.9999
vn -0.0114 -0.0028 -0.9999
vn -0.2985 0.9544 0.0007
vn 0.2985 -0.9544 -0.0007
vn -0.9863 -0.1646 0.0117
vn 0.9863 0.1646 -0.0117
s 0
usemtl Bark
f 1//1 4//1 2//1
f 6//2 8//2 5//2
f 3//3 8//3 4//3
f 2//4 6//4 1//4
f 2//5 8//5 7//5
f 1//6 5//6 3//6
f 1//1 3//1 4//1
f 6//2 7//2 8//2
f 3//3 5//3 8//3
f 2//4 7//4 6//4
f 2//5 4//5 8//5
f 1//6 6//6 5//6
