# Blender 4.1.1
# www.blender.org
mtllib Plane.011_Plane.022.mtl
o Plane.011_Plane.022
v 1.251889 5.309307 15.819183
v 1.113451 4.788325 15.870262
v 1.242085 5.298100 15.678298
v 1.103647 4.777119 15.729376
v 1.266015 5.375311 15.741720
v 1.142790 5.031227 15.848898
v 1.108549 4.782722 15.799818
v 1.132984 5.020018 15.708012
v 1.134788 5.094482 15.773193
v 1.351146 5.111870 15.468438
v 1.273711 4.578228 15.517685
v 1.490937 5.092766 15.481241
v 1.413503 4.559123 15.530485
v 1.431685 5.175666 15.468070
v 1.311110 4.814435 15.461780
v 1.343607 4.568675 15.524086
v 1.450902 4.795330 15.474582
v 1.392030 4.867762 15.441654
v 1.811691 5.172493 15.759700
v 1.783815 4.640130 15.854627
v 1.777996 5.198355 15.894855
v 1.750122 4.665992 15.989779
v 1.798675 5.258595 15.814230
v 1.829377 4.879006 15.820271
v 1.766970 4.653061 15.922203
v 1.795684 4.904869 15.955425
v 1.836003 4.956635 15.881321
v 1.032995 5.471924 16.327774
v 0.910540 4.946316 16.371790
v 0.930092 5.503611 16.419847
v 0.807639 4.978003 16.463867
v 0.998375 5.560010 16.367760
v 0.987654 5.179418 16.377758
v 0.859091 4.962159 16.417828
v 0.884751 5.211102 16.469835
v 0.964557 5.257465 16.434076
v 1.703859 5.207684 15.802855
v 1.622915 4.677717 15.878893
v 1.598808 5.210096 15.707833
v 1.517864 4.680130 15.783869
v 1.662459 5.281731 15.744894
v 1.636995 4.922732 15.869547
v 1.570391 4.678923 15.831379
v 1.531941 4.925144 15.774523
v 1.580789 4.992725 15.827850
v 1.419772 5.376700 16.330471
v 1.296654 4.859048 16.430845
v 1.456429 5.342299 16.198021
v 1.333310 4.824646 16.298395
v 1.455020 5.430650 16.250450
v 1.319975 5.097178 16.375452
v 1.314980 4.841849 16.364620
v 1.356634 5.062778 16.243000
v 1.333867 5.146443 16.290737
v 0.985324 5.330097 15.445122
v 0.862208 4.812446 15.545496
v 0.907082 5.370245 15.556194
v 0.783966 4.852592 15.656569
v 0.963127 5.421319 15.486863
v 0.944830 5.042381 15.520590
v 0.823087 4.832519 15.601033
v 0.866588 5.082528 15.631663
v 0.937311 5.123942 15.576161
vn 0.9950 -0.0784 0.0621
vn 0.9019 -0.4044 0.1520
vn 0.8767 -0.4331 -0.2092
vn 0.9778 -0.0981 -0.1853
vn -0.1730 0.2876 0.9420
vn -0.2783 -0.0465 0.9594
vn 0.0801 -0.0954 0.9922
vn 0.0724 0.2541 0.9645
vn -0.9092 0.1547 -0.3866
vn -0.9047 -0.1959 -0.3784
vn -0.9911 -0.1296 -0.0319
vn -0.9683 0.2001 -0.1493
vn -0.5047 0.2261 -0.8332
vn -0.5355 -0.1233 -0.8355
vn -0.7993 -0.0420 -0.5994
vn -0.6854 0.2817 -0.6715
vn 0.7571 -0.0324 -0.6524
vn 0.7420 -0.3701 -0.5590
vn 0.4727 -0.3640 -0.8026
vn 0.5727 -0.0282 -0.8193
vn 0.9244 0.0348 0.3798
vn 0.8225 -0.2805 0.4948
vn 0.9165 -0.3687 0.1551
vn 0.9888 -0.0256 0.1473
vn -0.6756 0.2043 -0.7084
vn -0.7154 -0.1432 -0.6838
vn -0.9160 -0.0403 -0.3990
vn -0.8130 0.2748 -0.5134
vn 0.9904 -0.1248 -0.0590
vn 0.8893 -0.3133 0.3333
vn 0.8383 -0.3715 -0.3990
vn -0.0562 0.2383 0.9696
vn -0.4493 0.0405 0.8924
vn 0.2773 -0.0588 0.9590
vn -0.0562 0.2384 0.9695
vn -0.9534 0.1437 -0.2652
vn -0.8138 -0.1641 -0.5574
vn -0.9890 -0.0297 0.1451
vn -0.6114 0.2217 -0.7596
vn -0.3560 -0.1035 -0.9287
vn -0.8909 0.0612 -0.4501
vn 0.6685 -0.0667 -0.7407
vn 0.8614 -0.2983 -0.4110
vn 0.3154 -0.2858 -0.9049
vn 0.9613 -0.0304 0.2740
vn 0.7479 -0.1635 0.6433
vn 0.9385 -0.3423 -0.0452
vn 0.9613 -0.0304 0.2739
vn -0.7628 0.2078 -0.6124
vn -0.5615 -0.1351 -0.8163
vn -0.9682 0.0736 -0.2390
s 0
usemtl Material.001
f 7//1 8//1 9//1
f 9//2 3//2 5//2
f 1//3 9//3 5//3
f 6//4 7//4 9//4
f 16//5 17//5 18//5
f 18//6 12//6 14//6
f 10//7 18//7 14//7
f 15//8 16//8 18//8
f 25//9 26//9 27//9
f 27//10 21//10 23//10
f 19//11 27//11 23//11
f 24//12 25//12 27//12
f 34//13 35//13 36//13
f 36//14 30//14 32//14
f 28//15 36//15 32//15
f 33//16 34//16 36//16
f 43//17 44//17 45//17
f 45//18 39//18 41//18
f 37//19 45//19 41//19
f 42//20 43//20 45//20
f 52//21 53//21 54//21
f 54//22 48//22 50//22
f 46//23 54//23 50//23
f 51//24 52//24 54//24
f 61//25 62//25 63//25
f 63//26 57//26 59//26
f 55//27 63//27 59//27
f 60//28 61//28 63//28
f 7//29 4//29 8//29
f 9//30 8//30 3//30
f 1//31 6//31 9//31
f 6//29 2//29 7//29
f 16//32 13//32 17//32
f 18//33 17//33 12//33
f 10//34 15//34 18//34
f 15//35 11//35 16//35
f 25//36 22//36 26//36
f 27//37 26//37 21//37
f 19//38 24//38 27//38
f 24//36 20//36 25//36
f 34//39 31//39 35//39
f 36//40 35//40 30//40
f 28//41 33//41 36//41
f 33//39 29//39 34//39
f 43//42 40//42 44//42
f 45//43 44//43 39//43
f 37//44 42//44 45//44
f 42//42 38//42 43//42
f 52//45 49//45 53//45
f 54//46 53//46 48//46
f 46//47 51//47 54//47
f 51//48 47//48 52//48
f 61//49 58//49 62//49
f 63//50 62//50 57//50
f 55//51 60//51 63//51
f 60//49 56//49 61//49
