# Blender 4.1.1
# www.blender.org
mtllib Plane.011_Plane.022.mtl
o Plane.011_Plane.022
v 0.304759 2.292968 -1.029822
v 0.254035 2.311683 -0.838933
v 0.301167 2.241347 -1.025716
v 0.250443 2.260062 -0.834827
v 0.309935 2.264585 -1.054006
v 0.264785 2.303855 -0.927933
v 0.252239 2.285872 -0.836880
v 0.261192 2.252234 -0.923826
v 0.261853 2.276117 -0.951110
v 0.341127 2.164454 -0.957481
v 0.312755 2.182498 -0.761953
v 0.392347 2.169145 -0.950481
v 0.363975 2.187188 -0.754953
v 0.370637 2.164319 -0.980856
v 0.326458 2.162014 -0.848500
v 0.338365 2.184843 -0.758453
v 0.377678 2.166705 -0.841500
v 0.356107 2.154640 -0.868039
v 0.509872 2.271173 -0.979693
v 0.499658 2.305954 -0.784634
v 0.497526 2.320694 -0.989169
v 0.487313 2.355474 -0.794110
v 0.505103 2.291153 -1.011241
v 0.516352 2.293366 -0.872159
v 0.493486 2.330714 -0.789372
v 0.504007 2.342887 -0.881635
v 0.518780 2.315735 -0.900602
v 0.224556 2.479317 -1.089405
v 0.179688 2.495444 -0.896821
v 0.186852 2.513053 -1.101015
v 0.141985 2.529181 -0.908431
v 0.211871 2.493968 -1.121680
v 0.207943 2.497631 -0.982230
v 0.160837 2.512312 -0.902626
v 0.170239 2.531368 -0.993839
v 0.199480 2.518266 -1.010827
v 0.470362 2.286985 -0.992587
v 0.440704 2.314845 -0.798406
v 0.431871 2.252169 -0.993471
v 0.402213 2.280028 -0.799290
v 0.455193 2.265748 -1.019718
v 0.445863 2.311421 -0.888180
v 0.421459 2.297436 -0.798848
v 0.407371 2.276604 -0.889064
v 0.425269 2.296143 -0.913826
v 0.366272 2.480305 -1.054515
v 0.321161 2.517082 -0.864846
v 0.379703 2.431775 -1.041910
v 0.334592 2.468552 -0.852241
v 0.379187 2.450985 -1.074282
v 0.329706 2.496786 -0.952097
v 0.327876 2.492817 -0.858544
v 0.343138 2.448255 -0.939493
v 0.334796 2.465746 -0.970148
v 0.207089 2.155911 -1.037440
v 0.161979 2.192688 -0.847771
v 0.178421 2.196608 -1.052150
v 0.133311 2.233385 -0.862481
v 0.198956 2.171205 -1.070864
v 0.192252 2.183562 -0.932020
v 0.147645 2.213037 -0.855126
v 0.163584 2.224260 -0.946730
v 0.189497 2.203924 -0.961904
vn 0.9950 0.0621 0.0784
vn 0.9019 0.1520 0.4044
vn 0.8767 -0.2092 0.4331
vn 0.9778 -0.1853 0.0981
vn -0.1730 0.9420 -0.2876
vn -0.2783 0.9594 0.0465
vn 0.0801 0.9922 0.0954
vn 0.0724 0.9645 -0.2541
vn -0.9092 -0.3866 -0.1547
vn -0.9047 -0.3784 0.1959
vn -0.9911 -0.0319 0.1296
vn -0.9683 -0.1493 -0.2001
vn -0.5047 -0.8332 -0.2261
vn -0.5355 -0.8355 0.1233
vn -0.7993 -0.5994 0.0420
vn -0.6854 -0.6715 -0.2817
vn 0.7571 -0.6524 0.0324
vn 0.7420 -0.5590 0.3701
vn 0.4727 -0.8026 0.3639
vn 0.5727 -0.8193 0.0282
vn 0.9244 0.3798 -0.0348
vn 0.8225 0.4948 0.2805
vn 0.9165 0.1551 0.3687
vn 0.9888 0.1473 0.0256
vn -0.6756 -0.7084 -0.2043
vn -0.7154 -0.6838 0.1432
vn -0.9160 -0.3991 0.0403
vn -0.8130 -0.5134 -0.2748
vn 0.9904 -0.0590 0.1248
vn 0.8893 0.3333 0.3133
vn 0.8383 -0.3990 0.3715
vn -0.0562 0.9695 -0.2384
vn -0.4493 0.8924 -0.0405
vn 0.2773 0.9590 0.0588
vn -0.9534 -0.2652 -0.1437
vn -0.8138 -0.5574 0.1641
vn -0.9890 0.1451 0.0297
vn -0.6114 -0.7596 -0.2217
vn -0.3560 -0.9287 0.1035
vn -0.8909 -0.4501 -0.0612
vn 0.6685 -0.7407 0.0667
vn 0.8614 -0.4110 0.2983
vn 0.3154 -0.9049 0.2858
vn 0.9613 0.2740 0.0304
vn 0.7479 0.6433 0.1635
vn 0.9385 -0.0452 0.3423
vn 0.9613 0.2739 0.0304
vn -0.7628 -0.6124 -0.2077
vn -0.5615 -0.8163 0.1351
vn -0.9682 -0.2390 -0.0736
vn -0.7628 -0.6124 -0.2078
s 0
usemtl Material.001
f 7//1 8//1 9//1
f 9//2 3//2 5//2
f 1//3 9//3 5//3
f 6//4 7//4 9//4
f 16//5 17//5 18//5
f 18//6 12//6 14//6
f 10//7 18//7 14//7
f 15//8 16//8 18//8
f 25//9 26//9 27//9
f 27//10 21//10 23//10
f 19//11 27//11 23//11
f 24//12 25//12 27//12
f 34//13 35//13 36//13
f 36//14 30//14 32//14
f 28//15 36//15 32//15
f 33//16 34//16 36//16
f 43//17 44//17 45//17
f 45//18 39//18 41//18
f 37//19 45//19 41//19
f 42//20 43//20 45//20
f 52//21 53//21 54//21
f 54//22 48//22 50//22
f 46//23 54//23 50//23
f 51//24 52//24 54//24
f 61//25 62//25 63//25
f 63//26 57//26 59//26
f 55//27 63//27 59//27
f 60//28 61//28 63//28
f 7//29 4//29 8//29
f 9//30 8//30 3//30
f 1//31 6//31 9//31
f 6//29 2//29 7//29
f 16//32 13//32 17//32
f 18//33 17//33 12//33
f 10//34 15//34 18//34
f 15//32 11//32 16//32
f 25//35 22//35 26//35
f 27//36 26//36 21//36
f 19//37 24//37 27//37
f 24//35 20//35 25//35
f 34//38 31//38 35//38
f 36//39 35//39 30//39
f 28//40 33//40 36//40
f 33//38 29//38 34//38
f 43//41 40//41 44//41
f 45//42 44//42 39//42
f 37//43 42//43 45//43
f 42//41 38//41 43//41
f 52//44 49//44 53//44
f 54//45 53//45 48//45
f 46//46 51//46 54//46
f 51//47 47//47 52//47
f 61//48 58//48 62//48
f 63//49 62//49 57//49
f 55//50 60//50 63//50
f 60//51 56//51 61//51
