# Blender 4.1.1
# www.blender.org
mtllib Plane.013_Plane.024.mtl
o Plane.013_Plane.024
v 17.388659 5.038378 21.686096
v 17.498688 4.512598 21.754242
v 17.448410 5.067111 21.811295
v 17.558443 4.541329 21.879444
v 17.403410 5.125012 21.739326
v 17.479366 4.753079 21.708279
v 17.528563 4.526965 21.816843
v 17.539120 4.781813 21.833479
v 17.514130 4.834110 21.753242
v 17.421743 4.962524 22.092308
v 17.475483 4.432075 22.186811
v 17.286655 4.956365 22.134548
v 17.340395 4.425915 22.229052
v 17.346813 5.032355 22.100437
v 17.461033 4.677022 22.176329
v 17.407938 4.428994 22.207932
v 17.325947 4.670862 22.218567
v 17.392836 4.742616 22.205360
v 16.887398 4.988168 21.972191
v 16.878473 4.451370 22.042660
v 16.870325 4.970144 21.832712
v 16.861399 4.433346 21.903181
v 16.880087 5.052938 21.892767
v 16.848673 4.693580 22.015005
v 16.869936 4.442358 21.972918
v 16.831596 4.675553 21.875525
v 16.820675 4.750618 21.939114
v 17.410458 5.022315 21.109650
v 17.508099 4.495957 21.190952
v 17.473454 5.014441 20.982998
v 17.571098 4.488083 21.064301
v 17.428532 5.090724 21.035151
v 17.434353 4.724624 21.140049
v 17.539600 4.492022 21.127625
v 17.497351 4.716749 21.013397
v 17.435795 4.780085 21.058083
v 16.972578 4.997137 21.886215
v 17.019972 4.462091 21.954599
v 17.104757 5.014950 21.933979
v 17.152151 4.479905 22.002363
v 17.032156 5.079584 21.900696
v 17.010571 4.699417 21.892101
v 17.086063 4.470996 21.978479
v 17.142756 4.717231 21.939867
v 17.078115 4.771671 21.888340
v 17.048388 4.974377 21.268646
v 17.126415 4.439314 21.297230
v 17.061718 4.983836 21.409372
v 17.139740 4.448774 21.437954
v 17.044331 5.052649 21.335083
v 17.124924 4.684362 21.280895
v 17.133080 4.444044 21.367592
v 17.138250 4.693822 21.421623
v 17.142473 4.757129 21.345654
v 17.771852 5.135746 21.920813
v 17.849882 4.600684 21.949398
v 17.805023 5.133227 21.783104
v 17.883053 4.598165 21.811686
v 17.777714 5.208027 21.848030
v 17.782078 4.835833 21.928764
v 17.866465 4.599423 21.880543
v 17.815250 4.833314 21.791052
v 17.769257 4.896597 21.851690
vn -0.9510 0.0192 0.3087
vn -0.8969 -0.3271 0.2976
vn -0.7437 -0.2535 0.6186
vn -0.8460 0.0697 0.5286
vn -0.1765 -0.0166 -0.9842
vn -0.0851 -0.3512 -0.9324
vn -0.4314 -0.3670 -0.8242
vn -0.4137 -0.0274 -0.9100
vn 0.9876 0.1562 -0.0148
vn 0.9799 -0.1791 0.0877
vn 0.9361 -0.2254 -0.2700
vn 0.9576 0.1245 -0.2597
vn 0.7707 0.3979 0.4977
vn 0.7997 0.0628 0.5971
vn 0.9613 0.0426 0.2723
vn 0.8813 0.3841 0.2754
vn -0.4722 0.2416 0.8477
vn -0.4922 -0.1081 0.8637
vn -0.1533 -0.0625 0.9862
vn -0.2401 0.2729 0.9316
vn -0.9991 0.0277 -0.0324
vn -0.9458 -0.3167 -0.0720
vn -0.9116 -0.2924 0.2889
vn -0.9757 0.0443 0.2146
vn 0.8853 0.3222 0.3353
vn 0.9131 -0.0200 0.4071
vn 0.9982 -0.0265 0.0541
vn 0.9436 0.3177 0.0935
vn -0.9032 0.0094 0.4290
vn -0.9501 -0.2940 0.1043
vn -0.6395 -0.1446 0.7550
vn -0.9033 0.0094 0.4289
vn -0.2955 -0.0582 -0.9536
vn 0.0987 -0.2684 -0.9582
vn -0.6034 -0.3004 -0.7387
vn 0.9853 0.1059 -0.1343
vn 0.9595 -0.0872 0.2678
vn 0.8708 -0.1809 -0.4572
vn 0.8438 0.3606 0.3974
vn 0.6658 0.1285 0.7350
vn 0.9932 0.0876 0.0767
vn 0.8439 0.3606 0.3973
vn -0.3578 0.2245 0.9064
vn -0.6567 -0.0690 0.7510
vn 0.0304 0.0236 0.9993
vn -0.3577 0.2245 0.9064
vn -0.9956 0.0002 0.0942
vn -0.9294 -0.2565 -0.2654
vn -0.8601 -0.2073 0.4660
vn -0.9955 0.0002 0.0943
vn 0.9322 0.2880 0.2193
vn 0.8171 0.0431 0.5748
vn 0.9896 0.0300 -0.1410
s 0
usemtl Material.001
f 7//1 8//1 9//1
f 9//2 3//2 5//2
f 1//3 9//3 5//3
f 6//4 7//4 9//4
f 16//5 17//5 18//5
f 18//6 12//6 14//6
f 10//7 18//7 14//7
f 15//8 16//8 18//8
f 25//9 26//9 27//9
f 27//10 21//10 23//10
f 19//11 27//11 23//11
f 24//12 25//12 27//12
f 34//13 35//13 36//13
f 36//14 30//14 32//14
f 28//15 36//15 32//15
f 33//16 34//16 36//16
f 43//17 44//17 45//17
f 45//18 39//18 41//18
f 37//19 45//19 41//19
f 42//20 43//20 45//20
f 52//21 53//21 54//21
f 54//22 48//22 50//22
f 46//23 54//23 50//23
f 51//24 52//24 54//24
f 61//25 62//25 63//25
f 63//26 57//26 59//26
f 55//27 63//27 59//27
f 60//28 61//28 63//28
f 7//29 4//29 8//29
f 9//30 8//30 3//30
f 1//31 6//31 9//31
f 6//32 2//32 7//32
f 16//33 13//33 17//33
f 18//34 17//34 12//34
f 10//35 15//35 18//35
f 15//33 11//33 16//33
f 25//36 22//36 26//36
f 27//37 26//37 21//37
f 19//38 24//38 27//38
f 24//36 20//36 25//36
f 34//39 31//39 35//39
f 36//40 35//40 30//40
f 28//41 33//41 36//41
f 33//42 29//42 34//42
f 43//43 40//43 44//43
f 45//44 44//44 39//44
f 37//45 42//45 45//45
f 42//46 38//46 43//46
f 52//47 49//47 53//47
f 54//48 53//48 48//48
f 46//49 51//49 54//49
f 51//50 47//50 52//50
f 61//51 58//51 62//51
f 63//52 62//52 57//52
f 55//53 60//53 63//53
f 60//51 56//51 61//51
