# Blender 4.1.1
# www.blender.org
mtllib Cube.061_Cube.065.mtl
o Cube.061_Cube.065
v -4.282905 4.343359 8.564395
v -4.199011 4.483456 8.494731
v -3.351778 4.486577 9.533504
v -4.155891 4.198018 8.449772
v -3.209563 4.346995 9.428180
v -3.859452 4.342079 9.085859
v -3.757062 4.493800 9.068018
v -4.259139 4.409987 8.515822
v -3.231604 4.383976 9.470355
v -3.627923 4.349183 8.898127
v -4.149065 4.408915 8.419559
v -3.713211 4.201932 8.966887
v -4.226090 4.265307 8.508421
v -3.281276 4.352243 9.568575
v -3.798828 4.258095 9.036469
v -3.665914 4.272661 8.928726
v -3.688108 4.454903 8.947220
v -3.820113 4.432591 9.054206
v -3.410017 4.357082 9.625791
v -3.975180 4.486035 8.755553
v -3.830874 4.360242 8.638187
v -4.148869 4.482858 8.444898
v -3.278885 4.214337 9.506646
v -3.930554 4.215709 8.718627
v -4.079418 4.340938 8.365444
v -4.186426 4.235133 8.481240
v -4.073102 4.357103 8.834611
v -3.378732 4.414399 9.591260
v -3.581362 4.505747 9.286955
v -3.274644 4.446285 9.547608
v -3.419346 4.352077 9.153540
v -4.094988 4.386609 8.404267
v -3.503453 4.211638 9.221361
v -3.377324 4.317298 9.594495
v -4.156536 4.290681 8.450544
v -3.988491 4.275598 8.765775
v -3.759171 4.245947 9.004280
v -3.821494 4.309170 9.054989
v -3.888991 4.307401 8.653690
v -3.656331 4.317931 8.921079
v -3.688375 4.252194 8.946884
v -3.898022 4.437196 8.692849
v -3.496614 4.433523 9.217057
v -3.736218 4.457510 8.986239
v -3.673580 4.382262 8.935241
v -3.616066 4.435376 9.314390
v -3.838470 4.376522 9.068938
v -3.594380 4.461134 9.300407
v -3.626899 4.392977 9.322097
v -4.060321 4.401339 8.824366
v -3.445159 4.422131 9.175695
v -3.545873 4.486028 9.261063
v -3.945142 4.467037 8.731143
v -3.426851 4.281938 9.246795
v -3.444359 4.334705 9.173777
v -3.562194 4.299026 9.324750
v -3.537421 4.254670 9.249251
v -3.949007 4.253217 8.733695
v -4.205094 4.381058 8.500241
v -3.223515 4.320243 9.443906
v -3.341789 4.320336 9.550210
v -3.326584 4.452448 9.599977
v -4.018482 4.311602 8.790193
v -3.900145 4.253354 8.694072
v -3.863183 4.421344 8.664555
v -4.041367 4.441718 8.763023
vn -0.4776 0.7811 0.4022
vn 0.5544 -0.7201 -0.4173
vn -0.0551 -0.4175 0.9070
vn 0.8187 -0.1283 0.5596
vn -0.7996 -0.1045 -0.5914
vn -0.5157 0.7801 0.3542
vn 0.4741 -0.8153 -0.3325
vn 0.6652 -0.5372 -0.5185
vn 0.6335 -0.5470 -0.5472
vn 0.5376 -0.7200 -0.4389
vn -0.6351 -0.4964 0.5918
vn -0.5214 -0.7494 0.4081
vn -0.7172 0.0008 -0.6969
vn -0.6140 -0.1021 -0.7827
vn 0.7585 0.1945 0.6220
vn 0.6658 0.0907 0.7406
vn 0.0443 -0.2804 0.9588
vn 0.6393 -0.5405 -0.5469
vn -0.6529 0.5567 0.5136
vn -0.3785 -0.8426 0.3831
vn -0.4075 -0.8397 0.3591
vn 0.3997 0.8681 0.2942
vn 0.3393 -0.8613 0.3783
vn -0.8360 0.1799 -0.5184
vn -0.1555 -0.9722 0.1754
vn -0.4185 -0.8288 0.3714
vn 0.7480 -0.2614 -0.6101
vn 0.6215 -0.6172 -0.4824
vn 0.6615 -0.5357 -0.5248
vn 0.7051 0.2282 -0.6713
vn 0.0749 0.9969 0.0258
vn 0.3747 0.8717 -0.3159
vn -0.7524 0.2989 0.5869
vn -0.5319 0.7036 0.4712
vn -0.7304 0.3836 0.5652
vn -0.5589 0.6472 0.5184
vn -0.6597 0.3868 0.6444
vn -0.6236 0.6162 0.4811
vn -0.6807 0.5743 0.4547
vn -0.5969 0.6272 0.5004
vn -0.7136 0.2976 0.6342
vn -0.6772 0.3461 0.6494
vn -0.4679 0.7977 0.3805
vn 0.6810 0.2497 -0.6884
vn 0.7190 0.4361 -0.5412
vn 0.2014 0.9793 -0.0192
vn 0.3206 0.8934 -0.3147
vn 0.4833 0.8042 -0.3460
vn 0.5012 0.7816 -0.3715
vn 0.0391 0.9989 0.0274
vn 0.3571 0.8974 -0.2590
vn -0.0014 0.9977 -0.0683
vn 0.5223 -0.7595 -0.3877
vn 0.6053 -0.6155 -0.5048
vn 0.5941 -0.6148 -0.5187
vn 0.5374 -0.7199 -0.4392
vn -0.4287 -0.8016 0.4166
vn 0.7333 -0.2612 -0.6277
vn -0.4923 -0.7873 0.3711
vn -0.5964 -0.5341 0.5992
vn -0.4276 -0.8337 0.3495
vn -0.6985 -0.5347 0.4757
vn -0.2220 -0.9706 0.0928
vn -0.6522 0.0649 -0.7553
vn -0.2936 -0.0340 -0.9553
vn -0.7049 0.0037 -0.7093
vn 0.7785 0.0322 0.6269
vn -0.4503 -0.4155 -0.7903
vn 0.9097 0.0282 0.4143
vn 0.8339 -0.1179 0.5392
vn -0.7844 0.2242 -0.5784
vn 0.5424 0.6438 -0.5398
vn 0.7122 0.1045 0.6941
vn -0.5019 -0.7147 0.4872
vn -0.3475 -0.2171 -0.9122
vn -0.6985 -0.4968 0.5151
vn -0.4376 -0.8396 0.3219
vn 0.4414 -0.8158 -0.3735
vn 0.5026 -0.7191 -0.4799
vn 0.1885 0.9373 -0.2930
vn 0.3408 0.9344 -0.1038
vn 0.4045 0.8710 -0.2787
vn -0.6169 0.6374 0.4616
vn -0.4995 0.8015 0.3288
vn -0.2631 -0.9126 0.3128
vn -0.3322 -0.8568 0.3944
vn -0.4179 -0.8295 0.3705
vn 0.7073 -0.4815 -0.5176
vn 0.6633 -0.5326 -0.5256
vn 0.3847 0.8954 -0.2243
vn 0.4706 0.7828 -0.4072
vn 0.6158 0.4347 -0.6571
vn -0.7197 0.3871 0.5763
vn -0.6548 0.5600 0.5075
vn -0.5142 0.7011 0.4939
vn -0.5788 0.6152 0.5352
vn -0.6576 0.5327 0.5326
vn -0.7492 0.3471 0.5641
vn -0.5818 0.6156 0.5316
vn -0.6636 0.3857 0.6411
vn 0.1784 0.9827 -0.0487
vn 0.5918 0.7336 -0.3339
vn 0.2963 0.9108 -0.2875
vn 0.3327 0.9123 -0.2388
vn 0.4965 0.7897 -0.3604
vn 0.3302 0.8975 -0.2922
vn 0.3851 0.8759 -0.2906
vn 0.3575 0.8972 -0.2593
vn 0.3728 -0.8799 -0.2945
vn 0.3696 -0.8799 -0.2986
vn 0.4965 -0.7597 -0.4200
vn -0.5264 -0.7144 0.4611
vn -0.5464 -0.7145 0.4369
vn -0.4698 -0.7630 0.4440
vn -0.4701 -0.8027 0.3670
vn -0.3428 -0.9143 0.2159
vn -0.6534 0.0652 -0.7542
vn 0.7122 0.0337 0.7012
vn -0.7411 0.0004 -0.6714
vn 0.5794 0.5614 -0.5909
vn -0.4870 -0.7304 0.4788
vn -0.5818 -0.7291 0.3605
vn -0.4519 -0.8294 0.3285
vn 0.6132 -0.5501 -0.5669
vn 0.6461 -0.5356 -0.5437
vn 0.2733 0.8983 -0.3440
vn 0.7380 0.2509 -0.6265
vn 0.7148 0.5592 -0.4200
s 0
usemtl Fence
f 20//1 2//1 66//1
f 24//2 4//2 64//2
f 14//3 28//3 61//3
f 60//4 9//4 30//4
f 59//5 11//5 35//5
f 66//6 8//6 50//6
f 54//7 41//7 16//7
f 23//8 33//8 54//8
f 60//9 54//9 55//9
f 39//10 25//10 21//10
f 56//11 38//11 15//11
f 34//12 19//12 56//12
f 35//13 4//13 26//13
f 13//14 35//14 26//14
f 23//15 61//15 34//15
f 60//16 61//16 23//16
f 14//17 62//17 28//17
f 64//18 4//18 39//18
f 7//19 66//19 18//19
f 26//20 36//20 13//20
f 63//21 27//21 1//21
f 30//22 3//22 62//22
f 60//23 14//23 61//23
f 59//24 22//24 11//24
f 57//25 15//25 37//25
f 6//26 56//26 19//26
f 55//27 16//27 40//27
f 39//28 4//28 25//28
f 41//29 33//29 12//29
f 22//30 42//30 11//30
f 44//31 43//31 17//31
f 45//32 31//32 10//32
f 18//33 49//33 46//33
f 7//34 46//34 48//34
f 48//35 29//35 7//35
f 48//36 28//36 62//36
f 48//37 3//37 29//37
f 6//38 49//38 47//38
f 1//39 50//39 8//39
f 19//40 28//40 49//40
f 28//41 46//41 49//41
f 27//42 47//42 50//42
f 50//43 18//43 66//43
f 17//44 51//44 45//44
f 51//45 5//45 31//45
f 9//46 51//46 43//46
f 7//47 52//47 44//47
f 52//48 3//48 30//48
f 52//49 9//49 43//49
f 2//50 53//50 22//50
f 20//51 44//51 53//51
f 42//52 44//52 17//52
f 10//53 55//53 40//53
f 60//54 23//54 54//54
f 55//55 5//55 60//55
f 21//56 40//56 39//56
f 12//57 57//57 37//57
f 40//58 16//58 39//58
f 57//59 23//59 34//59
f 26//60 24//60 58//60
f 34//61 56//61 57//61
f 24//62 37//62 58//62
f 36//63 37//63 15//63
f 13//64 59//64 35//64
f 8//65 2//65 59//65
f 2//66 22//66 59//66
f 28//67 34//67 61//67
f 1//68 8//68 59//68
f 60//69 30//69 14//69
f 60//70 5//70 9//70
f 25//71 35//71 32//71
f 32//72 21//72 25//72
f 14//73 30//73 62//73
f 13//74 63//74 1//74
f 11//75 32//75 35//75
f 63//76 15//76 38//76
f 63//77 6//77 27//77
f 64//78 16//78 41//78
f 64//79 12//79 24//79
f 32//80 42//80 65//80
f 42//81 45//81 65//81
f 21//82 45//82 10//82
f 66//83 2//83 8//83
f 7//84 20//84 66//84
f 26//85 58//85 36//85
f 57//86 56//86 15//86
f 6//87 38//87 56//87
f 55//88 54//88 16//88
f 41//89 54//89 33//89
f 22//90 53//90 42//90
f 44//91 52//91 43//91
f 45//92 51//92 31//92
f 18//93 47//93 49//93
f 7//94 18//94 46//94
f 48//95 46//95 28//95
f 48//96 62//96 3//96
f 6//97 19//97 49//97
f 1//98 27//98 50//98
f 27//99 6//99 47//99
f 50//100 47//100 18//100
f 17//101 43//101 51//101
f 51//102 9//102 5//102
f 7//103 29//103 52//103
f 52//104 29//104 3//104
f 52//105 30//105 9//105
f 2//106 20//106 53//106
f 20//107 7//107 44//107
f 42//108 53//108 44//108
f 10//109 31//109 55//109
f 55//110 31//110 5//110
f 21//111 10//111 40//111
f 12//112 33//112 57//112
f 57//113 33//113 23//113
f 26//114 4//114 24//114
f 24//115 12//115 37//115
f 36//116 58//116 37//116
f 13//117 1//117 59//117
f 28//118 19//118 34//118
f 25//119 4//119 35//119
f 32//120 65//120 21//120
f 13//121 36//121 63//121
f 63//122 36//122 15//122
f 63//123 38//123 6//123
f 64//124 39//124 16//124
f 64//125 41//125 12//125
f 32//126 11//126 42//126
f 42//127 17//127 45//127
f 21//128 65//128 45//128
