# Blender 4.1.1
# www.blender.org
mtllib Cube.032_Cube.035.mtl
o Cube.032_Cube.035
v 4.535833 -0.507117 -1.068790
v 4.472631 -0.522506 -1.069205
v 4.590526 -0.998587 -1.095225
v 4.539032 -0.507459 -0.986600
v 4.592312 -1.005643 -1.012963
v 4.596026 -0.745428 -1.081599
v 4.538133 -0.778624 -1.090919
v 4.504405 -0.506377 -1.069357
v 4.593023 -1.011424 -1.034263
v 4.529528 -0.766815 -0.997602
v 4.472604 -0.514664 -1.027039
v 4.594716 -0.750414 -0.995682
v 4.539973 -0.505422 -1.028148
v 4.627718 -1.018476 -1.056805
v 4.602766 -0.745970 -1.040100
v 4.561641 -0.758865 -0.994264
v 4.516550 -0.767595 -1.043877
v 4.559602 -0.754325 -1.087618
v 4.652520 -0.996185 -1.096247
v 4.500486 -0.645236 -1.073807
v 4.495675 -0.650892 -0.991867
v 4.456946 -0.524891 -1.048730
v 4.653596 -0.996777 -1.012891
v 4.564108 -0.633347 -0.995886
v 4.472850 -0.517555 -0.986342
v 4.538455 -0.508409 -1.007620
v 4.564040 -0.628769 -1.080721
v 4.625762 -1.000242 -1.095874
v 4.560119 -0.878827 -1.099567
v 4.596156 -1.020954 -1.072610
v 4.557887 -0.884071 -1.004428
v 4.469699 -0.524867 -1.007591
v 4.620830 -0.868177 -1.003618
v 4.653644 -0.995720 -1.074202
v 4.513141 -0.512861 -1.007892
v 4.563400 -0.631629 -1.030915
v 4.595137 -0.748845 -1.022677
v 4.594711 -0.746927 -1.060086
v 4.520260 -0.635232 -0.995174
v 4.546234 -0.762401 -1.001006
v 4.573656 -0.755625 -0.997919
v 4.492732 -0.649346 -1.034180
v 4.556629 -0.882020 -1.051628
v 4.529219 -0.763391 -1.062258
v 4.532941 -0.764630 -1.022000
v 4.589480 -0.871417 -1.096309
v 4.580491 -0.749358 -1.081666
v 4.576918 -0.875716 -1.094835
v 4.604229 -0.867715 -1.090492
v 4.548034 -0.632534 -1.086045
v 4.545581 -0.886100 -1.030091
v 4.556385 -0.881558 -1.082540
v 4.497462 -0.646837 -1.058383
v 4.597672 -0.899463 -1.008406
v 4.569743 -0.880781 -1.009730
v 4.624021 -0.880847 -1.056085
v 4.618232 -0.867689 -1.025999
v 4.558696 -0.633886 -1.011232
v 4.503312 -0.516119 -1.048357
v 4.604648 -1.003841 -1.012924
v 4.639708 -0.995538 -1.058717
v 4.610995 -1.018980 -1.095223
v 4.561625 -0.631035 -1.050186
v 4.545046 -0.638320 -0.993195
v 4.487485 -0.651567 -1.017696
v 4.521919 -0.625972 -1.079170
vn -0.2295 -0.0156 -0.9732
vn 0.1506 -0.0429 0.9877
vn 0.8469 -0.4643 -0.2591
vn 0.1627 -0.9544 0.2504
vn -0.0073 0.9969 -0.0785
vn -0.2440 0.0438 -0.9688
vn 0.2960 -0.0202 0.9550
vn -0.0807 -0.0921 0.9925
vn -0.0796 -0.0484 0.9957
vn 0.1436 -0.0164 0.9895
vn 0.9079 0.1875 -0.3749
vn 0.9648 0.2574 -0.0546
vn -0.1727 0.9842 -0.0397
vn -0.1731 0.9764 0.1293
vn -0.0322 -0.9993 -0.0173
vn 0.1425 -0.9873 -0.0699
vn 0.7402 -0.5943 -0.3144
vn -0.0862 -0.0541 0.9948
vn 0.0592 0.0829 -0.9948
vn 0.9788 0.1795 0.0985
vn 0.9719 0.2162 0.0929
vn -0.6249 -0.6273 -0.4648
vn 0.7713 -0.3594 0.5253
vn -0.1740 0.9332 -0.3144
vn 0.8939 0.1620 0.4181
vn 0.9738 0.2151 0.0733
vn -0.3695 -0.1411 0.9184
vn 0.0144 -0.0691 0.9975
vn -0.0843 -0.0856 0.9928
vn -0.7676 -0.1478 0.6237
vn -0.7754 -0.2318 -0.5874
vn -0.9623 -0.2237 -0.1546
vn 0.3291 0.1531 -0.9318
vn -0.1146 -0.0057 -0.9934
vn 0.2451 0.1366 -0.9598
vn -0.0365 -0.0060 -0.9993
vn 0.2654 0.0325 -0.9636
vn -0.0138 0.0716 -0.9973
vn 0.0211 0.1383 -0.9902
vn -0.0196 0.0374 -0.9991
vn 0.3448 0.0940 -0.9340
vn 0.3048 0.0490 -0.9511
vn -0.2574 -0.0120 -0.9662
vn -0.7863 -0.1222 0.6057
vn -0.8587 -0.2736 0.4334
vn -0.8257 -0.2966 -0.4798
vn -0.9618 -0.1868 -0.1999
vn -0.9604 -0.2765 -0.0343
vn -0.9628 -0.2703 0.0036
vn -0.7651 -0.2059 -0.6101
vn -0.9448 -0.2504 -0.2112
vn -0.8055 -0.1146 -0.5814
vn 0.2074 -0.0309 0.9778
vn 0.0055 -0.0429 0.9991
vn 0.0006 -0.0258 0.9997
vn 0.1434 -0.0161 0.9895
vn 0.9814 0.1900 0.0264
vn -0.3750 -0.1188 0.9194
vn 0.9643 0.2647 0.0053
vn 0.9292 0.1595 -0.3333
vn 0.9681 0.2366 0.0828
vn 0.8916 0.3150 -0.3254
vn 0.8666 0.2644 0.4231
vn -0.2746 0.9615 -0.0107
vn -0.4202 0.8313 0.3638
vn -0.1856 0.9822 -0.0278
vn 0.0893 -0.9917 0.0920
vn 0.0137 0.9068 0.4214
vn -0.0670 -0.9565 0.2838
vn 0.1386 -0.9546 0.2637
vn -0.2575 0.9248 -0.2800
vn -0.9638 -0.1734 0.2026
vn 0.0916 -0.9954 -0.0268
vn 0.9765 0.1871 -0.1073
vn -0.2387 0.8742 0.4229
vn 0.8845 0.2841 -0.3701
vn 0.9602 0.2625 0.0954
vn 0.2834 0.0305 0.9585
vn 0.1305 0.0359 0.9908
vn -0.9431 -0.1073 -0.3147
vn -0.8812 -0.3418 -0.3266
vn -0.9501 -0.2697 -0.1570
vn -0.0431 0.0754 -0.9962
vn -0.2796 0.0441 -0.9591
vn 0.9580 0.1475 0.2458
vn 0.9819 0.1396 0.1279
vn 0.9737 0.2153 0.0745
vn -0.1359 -0.1336 0.9817
vn -0.0877 -0.0870 0.9923
vn -0.9322 -0.2929 -0.2125
vn -0.9744 -0.2248 0.0043
vn -0.8912 -0.1218 0.4370
vn 0.2453 0.1209 -0.9619
vn 0.0538 0.0876 -0.9947
vn -0.1053 -0.0330 -0.9939
vn 0.0037 0.0036 -1.0000
vn 0.0898 0.0782 -0.9929
vn 0.2782 0.1574 -0.9475
vn 0.0023 0.0081 -1.0000
vn 0.2655 0.0377 -0.9634
vn -0.8379 -0.2610 -0.4793
vn -0.9325 -0.3552 0.0653
vn -0.9526 -0.1884 -0.2391
vn -0.9375 -0.2469 -0.2452
vn -0.9614 -0.2750 -0.0102
vn -0.9553 -0.2090 -0.2090
vn -0.9545 -0.2483 -0.1650
vn -0.9449 -0.2505 -0.2106
vn 0.3979 0.0429 0.9164
vn 0.3966 0.0480 0.9167
vn 0.1973 0.0091 0.9803
vn 0.9691 0.2221 -0.1076
vn 0.9617 0.2527 -0.1061
vn 0.9796 0.1978 -0.0358
vn 0.9670 0.2529 0.0298
vn 0.9292 0.2694 0.2529
vn -0.2739 0.9617 -0.0122
vn 0.1501 -0.9886 0.0132
vn -0.1507 0.9863 -0.0670
vn -0.9404 -0.1561 0.3023
vn 0.9793 0.1836 -0.0846
vn 0.9409 0.3301 -0.0765
vn 0.9604 0.2676 0.0774
vn -0.0821 -0.0201 0.9964
vn -0.0902 -0.0620 0.9940
vn -0.9676 -0.1332 -0.2144
vn -0.7699 -0.2046 0.6045
vn -0.8841 -0.3665 0.2899
s 0
usemtl Fence2
f 20//1 2//1 66//1
f 24//2 4//2 64//2
f 14//3 28//3 61//3
f 60//4 9//4 30//4
f 59//5 11//5 35//5
f 66//6 8//6 50//6
f 54//7 41//7 16//7
f 23//8 33//8 54//8
f 60//9 54//9 55//9
f 39//10 25//10 21//10
f 56//11 38//11 15//11
f 34//12 19//12 56//12
f 35//13 4//13 26//13
f 13//14 35//14 26//14
f 23//15 61//15 34//15
f 60//16 61//16 23//16
f 14//17 62//17 28//17
f 64//18 4//18 39//18
f 7//19 66//19 18//19
f 26//20 36//20 13//20
f 63//21 27//21 1//21
f 30//22 3//22 62//22
f 60//23 14//23 61//23
f 59//24 22//24 11//24
f 57//25 15//25 37//25
f 6//26 56//26 19//26
f 55//27 16//27 40//27
f 39//28 4//28 25//28
f 41//29 33//29 12//29
f 22//30 42//30 11//30
f 44//31 43//31 17//31
f 45//32 31//32 10//32
f 18//33 49//33 46//33
f 7//34 46//34 48//34
f 48//35 29//35 7//35
f 48//36 28//36 62//36
f 48//37 3//37 29//37
f 6//38 49//38 47//38
f 1//39 50//39 8//39
f 19//40 28//40 49//40
f 28//41 46//41 49//41
f 27//42 47//42 50//42
f 50//43 18//43 66//43
f 17//44 51//44 45//44
f 51//45 5//45 31//45
f 9//46 51//46 43//46
f 7//47 52//47 44//47
f 52//48 3//48 30//48
f 52//49 9//49 43//49
f 2//50 53//50 22//50
f 20//51 44//51 53//51
f 42//52 44//52 17//52
f 10//53 55//53 40//53
f 60//54 23//54 54//54
f 55//55 5//55 60//55
f 21//56 40//56 39//56
f 12//57 57//57 37//57
f 40//58 16//58 39//58
f 57//59 23//59 34//59
f 26//60 24//60 58//60
f 34//61 56//61 57//61
f 24//62 37//62 58//62
f 36//63 37//63 15//63
f 13//64 59//64 35//64
f 8//65 2//65 59//65
f 2//66 22//66 59//66
f 28//67 34//67 61//67
f 1//68 8//68 59//68
f 60//69 30//69 14//69
f 60//70 5//70 9//70
f 25//71 35//71 32//71
f 32//72 21//72 25//72
f 14//73 30//73 62//73
f 13//74 63//74 1//74
f 11//75 32//75 35//75
f 63//76 15//76 38//76
f 63//77 6//77 27//77
f 64//78 16//78 41//78
f 64//79 12//79 24//79
f 32//80 42//80 65//80
f 42//81 45//81 65//81
f 21//82 45//82 10//82
f 66//83 2//83 8//83
f 7//84 20//84 66//84
f 26//85 58//85 36//85
f 57//86 56//86 15//86
f 6//87 38//87 56//87
f 55//88 54//88 16//88
f 41//89 54//89 33//89
f 22//90 53//90 42//90
f 44//91 52//91 43//91
f 45//92 51//92 31//92
f 18//93 47//93 49//93
f 7//94 18//94 46//94
f 48//95 46//95 28//95
f 48//96 62//96 3//96
f 6//97 19//97 49//97
f 1//98 27//98 50//98
f 27//99 6//99 47//99
f 50//100 47//100 18//100
f 17//101 43//101 51//101
f 51//102 9//102 5//102
f 7//103 29//103 52//103
f 52//104 29//104 3//104
f 52//105 30//105 9//105
f 2//106 20//106 53//106
f 20//107 7//107 44//107
f 42//108 53//108 44//108
f 10//109 31//109 55//109
f 55//110 31//110 5//110
f 21//111 10//111 40//111
f 12//112 33//112 57//112
f 57//113 33//113 23//113
f 26//114 4//114 24//114
f 24//115 12//115 37//115
f 36//116 58//116 37//116
f 13//117 1//117 59//117
f 28//118 19//118 34//118
f 25//119 4//119 35//119
f 32//120 65//120 21//120
f 13//121 36//121 63//121
f 63//122 36//122 15//122
f 63//123 38//123 6//123
f 64//124 39//124 16//124
f 64//125 41//125 12//125
f 32//126 11//126 42//126
f 42//127 17//127 45//127
f 21//128 65//128 45//128
