# Blender 4.1.1
# www.blender.org
mtllib Plane.018_Plane.028.mtl
o Plane.018_Plane.028
v 6.818873 5.498760 22.138172
v 6.924407 4.990958 22.293726
v 6.947499 5.538899 22.181938
v 7.053031 5.031097 22.337494
v 6.868682 5.588626 22.138676
v 6.889645 5.212223 22.192966
v 6.988719 5.011029 22.315611
v 7.018269 5.252362 22.236736
v 6.948785 5.289995 22.177135
v 7.108461 5.509530 22.434616
v 7.188936 5.017179 22.645111
v 7.034688 5.546681 22.549717
v 7.115162 5.054329 22.760212
v 7.060514 5.595777 22.463234
v 7.181425 5.249344 22.565361
v 7.152050 5.035753 22.702662
v 7.107651 5.286494 22.680462
v 7.152138 5.334583 22.606266
v 6.629300 5.639642 22.667179
v 6.646631 5.151515 22.900898
v 6.523733 5.595819 22.583473
v 6.541067 5.107688 22.817200
v 6.574137 5.684821 22.593201
v 6.616156 5.381087 22.819134
v 6.593847 5.129601 22.859051
v 6.510589 5.337261 22.735434
v 6.547472 5.424900 22.762926
v 6.454348 5.349787 21.716333
v 6.559235 4.847449 21.889107
v 6.417759 5.298501 21.589436
v 6.522646 4.796164 21.762213
v 6.421638 5.393190 21.629137
v 6.479880 5.069988 21.822048
v 6.540941 4.821807 21.825659
v 6.443294 5.018705 21.695154
v 6.429217 5.103653 21.743965
v 6.636890 5.607789 22.550320
v 6.695187 5.106861 22.747473
v 6.768338 5.602398 22.497755
v 6.826632 5.101471 22.694908
v 6.694602 5.673945 22.496939
v 6.656836 5.319002 22.629816
v 6.760910 5.104168 22.721189
v 6.788284 5.313612 22.577250
v 6.708066 5.369507 22.561832
v 6.285495 5.429926 22.068092
v 6.340524 4.912509 22.217918
v 6.388712 5.466886 22.157822
v 6.443742 4.949468 22.307648
v 6.329539 5.519525 22.092365
v 6.338881 5.140253 22.126003
v 6.392135 4.930988 22.262781
v 6.442099 5.177213 22.215729
v 6.397809 5.218918 22.137653
v 7.265338 5.547677 22.039742
v 7.320368 5.030259 22.189564
v 7.199296 5.506389 21.921398
v 7.254326 4.988968 22.071224
v 7.224755 5.598151 21.959976
v 7.265713 5.264179 22.138447
v 7.287347 5.009615 22.130398
v 7.199670 5.222888 22.020107
v 7.207795 5.307476 22.070864
vn -0.5093 0.3231 0.7977
vn -0.4904 -0.0193 0.8713
vn -0.1607 0.0835 0.9835
vn -0.2834 0.3935 0.8745
vn -0.7823 -0.1910 -0.5929
vn -0.6936 -0.5176 -0.5010
vn -0.8827 -0.4224 -0.2059
vn -0.9119 -0.1258 -0.3908
vn 0.7380 -0.1013 -0.6672
vn 0.7857 -0.3927 -0.4780
vn 0.5151 -0.5051 -0.6925
vn 0.5526 -0.1782 -0.8142
vn 0.9233 0.2946 -0.2464
vn 0.9966 -0.0064 -0.0820
vn 0.9028 -0.1379 -0.4073
vn 0.8591 0.2045 -0.4692
vn 0.2149 0.5339 0.8178
vn 0.1958 0.2127 0.9573
vn 0.5328 0.1989 0.8225
vn 0.4457 0.5245 0.7255
vn -0.7701 0.2670 0.5794
vn -0.7705 -0.0797 0.6324
vn -0.5059 0.0150 0.8625
vn -0.5888 0.3319 0.7370
vn 0.8991 0.1586 -0.4081
vn 0.9530 -0.1549 -0.2604
vn 0.7837 -0.2608 -0.5637
vn 0.7830 0.0860 -0.6160
vn -0.3946 0.3288 0.8581
vn -0.6565 -0.0179 0.7541
vn 0.0120 0.1907 0.9816
vn -0.3946 0.3288 0.8580
vn -0.8532 -0.1939 -0.4843
vn -0.5692 -0.4910 -0.6595
vn -0.9526 -0.2979 -0.0612
vn -0.8532 -0.1939 -0.4842
vn 0.6553 -0.1748 -0.7349
vn 0.8931 -0.2608 -0.3666
vn 0.3443 -0.4886 -0.8017
vn 0.6552 -0.1748 -0.7349
vn 0.9104 0.2189 -0.3510
vn 0.9898 0.1196 0.0774
vn 0.7996 -0.1470 -0.5822
vn 0.3387 0.5024 0.7955
vn -0.0004 0.2654 0.9641
vn 0.6829 0.2374 0.6909
vn -0.6850 0.2684 0.6773
vn -0.8833 -0.0701 0.4636
vn -0.3467 0.1220 0.9300
vn -0.6849 0.2684 0.6774
vn 0.8563 0.0889 -0.5088
vn 0.9942 -0.0342 -0.1021
vn 0.6509 -0.2489 -0.7172
vn 0.8562 0.0889 -0.5089
s 0
usemtl Material.001
f 7//1 8//1 9//1
f 9//2 3//2 5//2
f 1//3 9//3 5//3
f 6//4 7//4 9//4
f 16//5 17//5 18//5
f 18//6 12//6 14//6
f 10//7 18//7 14//7
f 15//8 16//8 18//8
f 25//9 26//9 27//9
f 27//10 21//10 23//10
f 19//11 27//11 23//11
f 24//12 25//12 27//12
f 34//13 35//13 36//13
f 36//14 30//14 32//14
f 28//15 36//15 32//15
f 33//16 34//16 36//16
f 43//17 44//17 45//17
f 45//18 39//18 41//18
f 37//19 45//19 41//19
f 42//20 43//20 45//20
f 52//21 53//21 54//21
f 54//22 48//22 50//22
f 46//23 54//23 50//23
f 51//24 52//24 54//24
f 61//25 62//25 63//25
f 63//26 57//26 59//26
f 55//27 63//27 59//27
f 60//28 61//28 63//28
f 7//29 4//29 8//29
f 9//30 8//30 3//30
f 1//31 6//31 9//31
f 6//32 2//32 7//32
f 16//33 13//33 17//33
f 18//34 17//34 12//34
f 10//35 15//35 18//35
f 15//36 11//36 16//36
f 25//37 22//37 26//37
f 27//38 26//38 21//38
f 19//39 24//39 27//39
f 24//40 20//40 25//40
f 34//41 31//41 35//41
f 36//42 35//42 30//42
f 28//43 33//43 36//43
f 33//41 29//41 34//41
f 43//44 40//44 44//44
f 45//45 44//45 39//45
f 37//46 42//46 45//46
f 42//44 38//44 43//44
f 52//47 49//47 53//47
f 54//48 53//48 48//48
f 46//49 51//49 54//49
f 51//50 47//50 52//50
f 61//51 58//51 62//51
f 63//52 62//52 57//52
f 55//53 60//53 63//53
f 60//54 56//54 61//54
