# Blender 4.1.1
# www.blender.org
mtllib Cube.084_Cube.088.mtl
o Cube.084_Cube.088
v -3.739718 -8.488188 -0.767204
v -3.773955 -8.542437 -0.777987
v -3.646240 -8.526714 -1.251983
v -3.672170 -8.530568 -0.747036
v -3.578317 -8.571615 -1.238186
v -3.674934 -8.479476 -1.004494
v -3.710211 -8.528071 -1.035065
v -3.758448 -8.513302 -0.764554
v -3.593942 -8.560543 -1.249181
v -3.642646 -8.583727 -0.999583
v -3.741619 -8.563947 -0.759791
v -3.606230 -8.528483 -0.987573
v -3.705154 -8.506693 -0.755601
v -3.590714 -8.521394 -1.263963
v -3.637807 -8.496778 -0.995006
v -3.622775 -8.557846 -0.993189
v -3.686968 -8.569153 -1.011137
v -3.699278 -8.507587 -1.012192
v -3.611655 -8.475239 -1.254019
v -3.740816 -8.541599 -0.899481
v -3.677196 -8.591414 -0.883978
v -3.766260 -8.566861 -0.774094
v -3.544360 -8.520033 -1.233659
v -3.643843 -8.530058 -0.872576
v -3.708485 -8.586560 -0.752344
v -3.689131 -8.519739 -0.753211
v -3.712410 -8.482844 -0.889527
v -3.626127 -8.498017 -1.256073
v -3.687496 -8.525331 -1.135440
v -3.621150 -8.538929 -1.268251
v -3.611915 -8.580178 -1.116384
v -3.726041 -8.578962 -0.764549
v -3.577598 -8.526256 -1.104997
v -3.593478 -8.486279 -1.248090
v -3.703218 -8.541070 -0.755905
v -3.672519 -8.511150 -0.879697
v -3.627813 -8.513078 -0.992888
v -3.658260 -8.492600 -1.000433
v -3.668282 -8.566498 -0.871318
v -3.636461 -8.567398 -0.997283
v -3.619302 -8.545429 -0.991776
v -3.712952 -8.570379 -0.892952
v -3.650686 -8.555000 -1.126214
v -3.695041 -8.547966 -1.012547
v -3.660530 -8.567183 -1.003845
v -3.669187 -8.501751 -1.129407
v -3.683298 -8.492860 -1.007278
v -3.674540 -8.513630 -1.132356
v -3.656648 -8.492195 -1.125342
v -3.725272 -8.493705 -0.893445
v -3.639177 -8.576569 -1.123996
v -3.675593 -8.538215 -1.133541
v -3.729973 -8.552806 -0.896941
v -3.589514 -8.548687 -1.134878
v -3.609858 -8.566982 -1.115328
v -3.615518 -8.497499 -1.130660
v -3.597055 -8.516041 -1.109993
v -3.659134 -8.526182 -0.876605
v -3.740663 -8.527600 -0.768596
v -3.571465 -8.561242 -1.237251
v -3.589191 -8.506044 -1.243091
v -3.630972 -8.514106 -1.273024
v -3.689035 -8.501945 -0.883861
v -3.651864 -8.548024 -0.875438
v -3.702442 -8.584097 -0.890596
v -3.735973 -8.517408 -0.883651
vn -0.9072 0.3420 -0.2451
vn 0.8830 -0.4257 0.1975
vn 0.3607 0.7386 -0.5695
vn 0.4552 -0.1937 -0.8691
vn -0.2352 0.2347 0.9432
vn -0.9221 0.3395 -0.1857
vn 0.9371 -0.2850 0.2015
vn 0.7616 -0.6263 0.1665
vn 0.7574 -0.6185 0.2094
vn 0.8760 -0.4272 0.2240
vn 0.1933 0.9808 0.0265
vn 0.4701 0.8659 0.1710
vn -0.2977 0.0764 0.9516
vn -0.1617 -0.0178 0.9867
vn 0.1364 -0.2150 -0.9670
vn 0.1932 -0.0417 -0.9803
vn 0.2768 0.6562 -0.7020
vn 0.7539 -0.6245 0.2041
vn -0.7743 0.6083 -0.1746
vn 0.6137 0.7782 0.1334
vn 0.5990 0.7829 0.1679
vn -0.6262 -0.3788 -0.6814
vn 0.9258 0.2692 -0.2655
vn -0.5092 0.2153 0.8333
vn 0.8229 0.5308 0.2027
vn 0.5846 0.7950 0.1618
vn 0.5439 -0.8306 0.1197
vn 0.8167 -0.5471 0.1837
vn 0.7586 -0.6281 0.1730
vn 0.0797 -0.9947 0.0652
vn -0.8779 -0.3558 -0.3205
vn -0.6415 -0.7428 -0.1914
vn -0.5800 0.8073 -0.1087
vn -0.8586 0.4485 -0.2482
vn -0.6481 0.7510 -0.1262
vn -0.8182 0.5152 -0.2551
vn -0.6218 0.7489 -0.2290
vn -0.8165 0.5481 -0.1813
vn -0.8020 0.5857 -0.1174
vn -0.8156 0.5375 -0.2144
vn -0.5627 0.8095 -0.1674
vn -0.5919 0.7775 -0.2125
vn -0.9183 0.3162 -0.2380
vn 0.0503 -0.9950 0.0867
vn -0.1037 -0.9898 -0.0982
vn -0.8100 -0.4685 -0.3527
vn -0.6836 -0.7105 -0.1671
vn -0.5355 -0.8175 -0.2121
vn -0.5076 -0.8389 -0.1964
vn -0.8944 -0.3299 -0.3019
vn -0.6721 -0.7030 -0.2325
vn -0.9102 -0.3604 -0.2039
vn 0.9059 -0.3717 0.2028
vn 0.8083 -0.5500 0.2100
vn 0.8031 -0.5509 0.2269
vn 0.8759 -0.4273 0.2243
vn 0.5558 0.8218 0.1252
vn 0.5377 -0.8312 0.1418
vn 0.5165 0.8342 0.1932
vn 0.2436 0.9698 0.0086
vn 0.5853 0.7894 0.1853
vn 0.2018 0.9657 0.1632
vn 0.7939 0.5263 0.3046
vn -0.3295 -0.0269 0.9438
vn -0.0926 -0.3758 0.9220
vn -0.2953 0.0590 0.9536
vn 0.2926 -0.1743 -0.9402
vn 0.1913 -0.0392 0.9807
vn 0.3495 -0.3993 -0.8476
vn 0.4520 -0.2206 -0.8643
vn -0.5286 0.1269 0.8393
vn -0.3656 -0.9293 -0.0526
vn 0.1996 -0.1083 -0.9739
vn 0.4467 0.8902 0.0891
vn 0.0523 -0.2519 0.9663
vn 0.1673 0.9783 0.1226
vn 0.5865 0.7812 0.2140
vn 0.9241 -0.2872 0.2522
vn 0.8607 -0.4281 0.2756
vn -0.7779 -0.6167 -0.1205
vn -0.7120 -0.6064 -0.3541
vn -0.6287 -0.7406 -0.2371
vn -0.8333 0.5244 -0.1753
vn -0.9350 0.3053 -0.1806
vn 0.7248 0.6744 0.1410
vn 0.6457 0.7568 0.1021
vn 0.5857 0.7941 0.1623
vn 0.7281 -0.6735 0.1274
vn 0.7566 -0.6309 0.1719
vn -0.6588 -0.7004 -0.2747
vn -0.5214 -0.8398 -0.1515
vn -0.1452 -0.9881 0.0514
vn -0.6470 0.7492 -0.1418
vn -0.7782 0.6047 -0.1696
vn -0.8490 0.4510 -0.2753
vn -0.7971 0.5502 -0.2488
vn -0.7543 0.6312 -0.1806
vn -0.6227 0.7754 -0.1051
vn -0.7987 0.5499 -0.2442
vn -0.6224 0.7500 -0.2239
vn -0.8227 -0.4716 -0.3174
vn -0.4265 -0.8648 -0.2648
vn -0.7093 -0.6817 -0.1791
vn -0.6957 -0.6777 -0.2382
vn -0.5170 -0.8312 -0.2045
vn -0.6833 -0.7046 -0.1913
vn -0.6411 -0.7358 -0.2181
vn -0.6717 -0.7034 -0.2324
vn 0.9545 -0.1685 0.2460
vn 0.9532 -0.1687 0.2511
vn 0.8953 -0.3734 0.2428
vn 0.4363 0.8913 0.1233
vn 0.4280 0.8906 0.1537
vn 0.5038 0.8558 0.1171
vn 0.5395 0.8208 0.1877
vn 0.6933 0.6712 0.2623
vn -0.3303 -0.0254 0.9435
vn 0.2642 -0.0812 -0.9611
vn -0.3071 0.1096 0.9454
vn -0.2753 -0.9613 -0.0124
vn 0.4672 0.8794 0.0913
vn 0.4266 0.8728 0.2372
vn 0.5713 0.7922 0.2143
vn 0.7518 -0.6153 0.2370
vn 0.7522 -0.6290 0.1965
vn -0.7076 -0.6966 -0.1187
vn 0.0727 -0.9973 0.0056
vn -0.2172 -0.9505 -0.2223
s 0
usemtl Fence
f 20//1 2//1 66//1
f 24//2 4//2 64//2
f 14//3 28//3 61//3
f 60//4 9//4 30//4
f 59//5 11//5 35//5
f 66//6 8//6 50//6
f 54//7 41//7 16//7
f 23//8 33//8 54//8
f 60//9 54//9 55//9
f 39//10 25//10 21//10
f 56//11 38//11 15//11
f 34//12 19//12 56//12
f 35//13 4//13 26//13
f 13//14 35//14 26//14
f 23//15 61//15 34//15
f 60//16 61//16 23//16
f 14//17 62//17 28//17
f 64//18 4//18 39//18
f 7//19 66//19 18//19
f 26//20 36//20 13//20
f 63//21 27//21 1//21
f 30//22 3//22 62//22
f 60//23 14//23 61//23
f 59//24 22//24 11//24
f 57//25 15//25 37//25
f 6//26 56//26 19//26
f 55//27 16//27 40//27
f 39//28 4//28 25//28
f 41//29 33//29 12//29
f 22//30 42//30 11//30
f 44//31 43//31 17//31
f 45//32 31//32 10//32
f 18//33 49//33 46//33
f 7//34 46//34 48//34
f 48//35 29//35 7//35
f 48//36 28//36 62//36
f 48//37 3//37 29//37
f 6//38 49//38 47//38
f 1//39 50//39 8//39
f 19//40 28//40 49//40
f 28//41 46//41 49//41
f 27//42 47//42 50//42
f 50//43 18//43 66//43
f 17//44 51//44 45//44
f 51//45 5//45 31//45
f 9//46 51//46 43//46
f 7//47 52//47 44//47
f 52//48 3//48 30//48
f 52//49 9//49 43//49
f 2//50 53//50 22//50
f 20//51 44//51 53//51
f 42//52 44//52 17//52
f 10//53 55//53 40//53
f 60//54 23//54 54//54
f 55//55 5//55 60//55
f 21//56 40//56 39//56
f 12//57 57//57 37//57
f 40//58 16//58 39//58
f 57//59 23//59 34//59
f 26//60 24//60 58//60
f 34//61 56//61 57//61
f 24//62 37//62 58//62
f 36//63 37//63 15//63
f 13//64 59//64 35//64
f 8//65 2//65 59//65
f 2//66 22//66 59//66
f 28//67 34//67 61//67
f 1//68 8//68 59//68
f 60//69 30//69 14//69
f 60//70 5//70 9//70
f 25//71 35//71 32//71
f 32//72 21//72 25//72
f 14//73 30//73 62//73
f 13//74 63//74 1//74
f 11//75 32//75 35//75
f 63//76 15//76 38//76
f 63//77 6//77 27//77
f 64//78 16//78 41//78
f 64//79 12//79 24//79
f 32//80 42//80 65//80
f 42//81 45//81 65//81
f 21//82 45//82 10//82
f 66//83 2//83 8//83
f 7//84 20//84 66//84
f 26//85 58//85 36//85
f 57//86 56//86 15//86
f 6//87 38//87 56//87
f 55//88 54//88 16//88
f 41//89 54//89 33//89
f 22//90 53//90 42//90
f 44//91 52//91 43//91
f 45//92 51//92 31//92
f 18//93 47//93 49//93
f 7//94 18//94 46//94
f 48//95 46//95 28//95
f 48//96 62//96 3//96
f 6//97 19//97 49//97
f 1//98 27//98 50//98
f 27//99 6//99 47//99
f 50//100 47//100 18//100
f 17//101 43//101 51//101
f 51//102 9//102 5//102
f 7//103 29//103 52//103
f 52//104 29//104 3//104
f 52//105 30//105 9//105
f 2//106 20//106 53//106
f 20//107 7//107 44//107
f 42//108 53//108 44//108
f 10//109 31//109 55//109
f 55//110 31//110 5//110
f 21//111 10//111 40//111
f 12//112 33//112 57//112
f 57//113 33//113 23//113
f 26//114 4//114 24//114
f 24//115 12//115 37//115
f 36//116 58//116 37//116
f 13//117 1//117 59//117
f 28//118 19//118 34//118
f 25//119 4//119 35//119
f 32//120 65//120 21//120
f 13//121 36//121 63//121
f 63//122 36//122 15//122
f 63//123 38//123 6//123
f 64//124 39//124 16//124
f 64//125 41//125 12//125
f 32//126 11//126 42//126
f 42//127 17//127 45//127
f 21//128 65//128 45//128
