# Blender 4.1.1
# www.blender.org
mtllib Cube.071_Cube.075.mtl
o Cube.071_Cube.075
v -6.176181 -5.676397 -2.040977
v -6.237176 -5.695960 -2.052306
v -6.070735 -6.144321 -2.164105
v -6.181381 -5.694714 -1.960958
v -6.076676 -6.169287 -2.085610
v -6.091721 -5.900792 -2.096587
v -6.144790 -5.935301 -2.119681
v -6.207305 -5.677885 -2.045182
v -6.073224 -6.170133 -2.107405
v -6.164013 -5.945148 -2.027730
v -6.242289 -5.697687 -2.009758
v -6.101306 -5.924786 -2.014485
v -6.176405 -5.683452 -2.000703
v -6.035880 -6.169415 -2.126549
v -6.089238 -5.910019 -2.055641
v -6.133355 -5.935773 -2.018913
v -6.172053 -5.936610 -2.074343
v -6.126280 -5.910812 -2.108728
v -6.009505 -6.137156 -2.157067
v -6.196996 -5.812199 -2.079393
v -6.209573 -5.836223 -2.001714
v -6.254559 -5.703983 -2.034858
v -6.016900 -6.156132 -2.076228
v -6.143160 -5.813192 -1.993593
v -6.245918 -5.709502 -1.970875
v -6.179711 -5.691020 -1.981613
v -6.135010 -5.789937 -2.074899
v -6.035626 -6.143170 -2.160811
v -6.112234 -6.029176 -2.146630
v -6.065262 -6.170664 -2.146230
v -6.123648 -6.055533 -2.055751
v -6.246142 -5.712134 -1.993412
v -6.063000 -6.035586 -2.043965
v -6.010691 -6.141508 -2.135454
v -6.204299 -5.697168 -1.985891
v -6.140451 -5.803808 -2.027285
v -6.098286 -5.917244 -2.040280
v -6.095074 -5.907116 -2.076202
v -6.186449 -5.818439 -1.998621
v -6.147565 -5.938860 -2.028069
v -6.121408 -5.930920 -2.020314
v -6.208315 -5.825557 -2.042776
v -6.120272 -6.043169 -2.101242
v -6.158050 -5.927506 -2.089741
v -6.158358 -5.937360 -2.050512
v -6.084237 -6.020514 -2.138339
v -6.106703 -5.905752 -2.099369
v -6.096396 -6.025953 -2.139345
v -6.070599 -6.017108 -2.130125
v -6.149937 -5.793605 -2.082802
v -6.133005 -6.052731 -2.082561
v -6.117400 -6.035884 -2.131150
v -6.201407 -5.817400 -2.065141
v -6.082339 -6.066663 -2.058045
v -6.111696 -6.050280 -2.058758
v -6.053226 -6.036036 -2.097141
v -6.063332 -6.030343 -2.065880
v -6.146896 -5.810716 -2.009245
v -6.209570 -5.692094 -2.027014
v -6.064649 -6.166628 -2.083694
v -6.026086 -6.145799 -2.122090
v -6.048458 -6.162629 -2.165941
v -6.140297 -5.799089 -2.046061
v -6.161812 -5.820038 -1.994349
v -6.214973 -5.831761 -2.027898
v -6.177138 -5.790689 -2.077913
vn -0.1262 0.1836 -0.9749
vn 0.0524 -0.2495 0.9670
vn 0.9107 -0.3311 -0.2469
vn 0.2300 -0.9713 0.0604
vn -0.0978 0.9861 0.1342
vn -0.1469 0.2392 -0.9598
vn 0.1974 -0.2094 0.9577
vn -0.1722 -0.3156 0.9331
vn -0.1757 -0.2737 0.9456
vn 0.0426 -0.2247 0.9735
vn 0.9184 0.3328 -0.2137
vn 0.9351 0.3340 0.1186
vn -0.2642 0.9529 0.1491
vn -0.2811 0.9078 0.3112
vn 0.0688 -0.9702 -0.2323
vn 0.2459 -0.9339 -0.2597
vn 0.8236 -0.4532 -0.3410
vn -0.1816 -0.2795 0.9428
vn 0.1520 0.3055 -0.9400
vn 0.9410 0.2254 0.2523
vn 0.9312 0.2618 0.2538
vn -0.5090 -0.5532 -0.6594
vn 0.7453 -0.4086 0.5269
vn -0.2324 0.9641 -0.1282
vn 0.8260 0.1312 0.5482
vn 0.9352 0.2652 0.2348
vn -0.4458 -0.3682 0.8159
vn -0.0808 -0.2872 0.9544
vn -0.1765 -0.3096 0.9343
vn -0.8089 -0.3390 0.4804
vn -0.6845 -0.1527 -0.7128
vn -0.9146 -0.2547 -0.3141
vn 0.4058 0.3799 -0.8313
vn -0.0113 0.2062 -0.9784
vn 0.3271 0.3638 -0.8721
vn 0.0666 0.2131 -0.9748
vn 0.3579 0.2649 -0.8954
vn 0.0812 0.2897 -0.9537
vn 0.1084 0.3556 -0.9283
vn 0.0790 0.2564 -0.9633
vn 0.4274 0.3240 -0.8440
vn 0.3942 0.2812 -0.8750
vn -0.1548 0.1835 -0.9708
vn -0.8281 -0.3115 0.4661
vn -0.8672 -0.4258 0.2582
vn -0.7390 -0.2433 -0.6282
vn -0.9132 -0.2087 -0.3501
vn -0.9198 -0.3325 -0.2084
vn -0.9266 -0.3351 -0.1706
vn -0.6746 -0.1217 -0.7281
vn -0.8889 -0.2668 -0.3725
vn -0.7266 -0.0423 -0.6858
vn 0.1084 -0.2314 0.9668
vn -0.0924 -0.2628 0.9604
vn -0.0990 -0.2467 0.9640
vn 0.0424 -0.2244 0.9736
vn 0.9500 0.2518 0.1848
vn -0.4535 -0.3472 0.8209
vn 0.9278 0.3278 0.1782
vn 0.9381 0.2980 -0.1768
vn 0.9264 0.2836 0.2478
vn 0.8846 0.4447 -0.1409
vn 0.7884 0.2276 0.5715
vn -0.3658 0.9168 0.1600
vn -0.5354 0.6964 0.4779
vn -0.2780 0.9474 0.1587
vn 0.1771 -0.9780 -0.1100
vn -0.1191 0.7893 0.6024
vn -0.0007 -0.9979 0.0644
vn 0.2046 -0.9763 0.0703
vn -0.3178 0.9421 -0.1068
vn -0.9576 -0.2851 0.0429
vn 0.1918 -0.9551 -0.2258
vn 0.9590 0.2782 0.0541
vn -0.3659 0.7385 0.5664
vn 0.8852 0.4240 -0.1914
vn 0.9147 0.3054 0.2646
vn 0.1795 -0.1618 0.9704
vn 0.0244 -0.1751 0.9842
vn -0.8908 -0.1046 -0.4423
vn -0.8050 -0.3254 -0.4960
vn -0.8977 -0.2979 -0.3247
vn 0.0517 0.2910 -0.9553
vn -0.1831 0.2348 -0.9546
vn 0.9086 0.1600 0.3859
vn 0.9451 0.1803 0.2727
vn 0.9349 0.2651 0.2360
vn -0.2216 -0.3576 0.9072
vn -0.1796 -0.3111 0.9333
vn -0.8720 -0.3069 -0.3813
vn -0.9427 -0.2918 -0.1616
vn -0.9147 -0.2815 0.2898
vn 0.3292 0.3491 -0.8774
vn 0.1463 0.3097 -0.9395
vn 0.0007 0.1805 -0.9836
vn 0.1055 0.2254 -0.9685
vn 0.1826 0.3029 -0.9354
vn 0.3566 0.3838 -0.8518
vn 0.1036 0.2298 -0.9677
vn 0.3576 0.2699 -0.8940
vn -0.7546 -0.2098 -0.6217
vn -0.8946 -0.4291 -0.1250
vn -0.8998 -0.2009 -0.3873
vn -0.8785 -0.2553 -0.4038
vn -0.9234 -0.3365 -0.1848
vn -0.9036 -0.2278 -0.3628
vn -0.9034 -0.2757 -0.3283
vn -0.8890 -0.2670 -0.3720
vn 0.2960 -0.1319 0.9460
vn 0.2942 -0.1272 0.9472
vn 0.0942 -0.1938 0.9765
vn 0.9482 0.3118 0.0603
vn 0.9378 0.3406 0.0673
vn 0.9537 0.2730 0.1260
vn 0.9292 0.3111 0.1997
vn 0.8673 0.2748 0.4151
vn -0.3649 0.9174 0.1587
vn 0.2450 -0.9530 -0.1784
vn -0.2399 0.9626 0.1258
vn -0.9463 -0.2886 0.1460
vn 0.9599 0.2700 0.0758
vn 0.9065 0.4077 0.1099
vn 0.9163 0.3143 0.2482
vn -0.1811 -0.2466 0.9520
vn -0.1848 -0.2874 0.9398
vn -0.9227 -0.1539 -0.3535
vn -0.8036 -0.3901 0.4495
vn -0.8685 -0.4862 0.0962
s 0
usemtl Fence2
f 20//1 2//1 66//1
f 24//2 4//2 64//2
f 14//3 28//3 61//3
f 60//4 9//4 30//4
f 59//5 11//5 35//5
f 66//6 8//6 50//6
f 54//7 41//7 16//7
f 23//8 33//8 54//8
f 60//9 54//9 55//9
f 39//10 25//10 21//10
f 56//11 38//11 15//11
f 34//12 19//12 56//12
f 35//13 4//13 26//13
f 13//14 35//14 26//14
f 23//15 61//15 34//15
f 60//16 61//16 23//16
f 14//17 62//17 28//17
f 64//18 4//18 39//18
f 7//19 66//19 18//19
f 26//20 36//20 13//20
f 63//21 27//21 1//21
f 30//22 3//22 62//22
f 60//23 14//23 61//23
f 59//24 22//24 11//24
f 57//25 15//25 37//25
f 6//26 56//26 19//26
f 55//27 16//27 40//27
f 39//28 4//28 25//28
f 41//29 33//29 12//29
f 22//30 42//30 11//30
f 44//31 43//31 17//31
f 45//32 31//32 10//32
f 18//33 49//33 46//33
f 7//34 46//34 48//34
f 48//35 29//35 7//35
f 48//36 28//36 62//36
f 48//37 3//37 29//37
f 6//38 49//38 47//38
f 1//39 50//39 8//39
f 19//40 28//40 49//40
f 28//41 46//41 49//41
f 27//42 47//42 50//42
f 50//43 18//43 66//43
f 17//44 51//44 45//44
f 51//45 5//45 31//45
f 9//46 51//46 43//46
f 7//47 52//47 44//47
f 52//48 3//48 30//48
f 52//49 9//49 43//49
f 2//50 53//50 22//50
f 20//51 44//51 53//51
f 42//52 44//52 17//52
f 10//53 55//53 40//53
f 60//54 23//54 54//54
f 55//55 5//55 60//55
f 21//56 40//56 39//56
f 12//57 57//57 37//57
f 40//58 16//58 39//58
f 57//59 23//59 34//59
f 26//60 24//60 58//60
f 34//61 56//61 57//61
f 24//62 37//62 58//62
f 36//63 37//63 15//63
f 13//64 59//64 35//64
f 8//65 2//65 59//65
f 2//66 22//66 59//66
f 28//67 34//67 61//67
f 1//68 8//68 59//68
f 60//69 30//69 14//69
f 60//70 5//70 9//70
f 25//71 35//71 32//71
f 32//72 21//72 25//72
f 14//73 30//73 62//73
f 13//74 63//74 1//74
f 11//75 32//75 35//75
f 63//76 15//76 38//76
f 63//77 6//77 27//77
f 64//78 16//78 41//78
f 64//79 12//79 24//79
f 32//80 42//80 65//80
f 42//81 45//81 65//81
f 21//82 45//82 10//82
f 66//83 2//83 8//83
f 7//84 20//84 66//84
f 26//85 58//85 36//85
f 57//86 56//86 15//86
f 6//87 38//87 56//87
f 55//88 54//88 16//88
f 41//89 54//89 33//89
f 22//90 53//90 42//90
f 44//91 52//91 43//91
f 45//92 51//92 31//92
f 18//93 47//93 49//93
f 7//94 18//94 46//94
f 48//95 46//95 28//95
f 48//96 62//96 3//96
f 6//97 19//97 49//97
f 1//98 27//98 50//98
f 27//99 6//99 47//99
f 50//100 47//100 18//100
f 17//101 43//101 51//101
f 51//102 9//102 5//102
f 7//103 29//103 52//103
f 52//104 29//104 3//104
f 52//105 30//105 9//105
f 2//106 20//106 53//106
f 20//107 7//107 44//107
f 42//108 53//108 44//108
f 10//109 31//109 55//109
f 55//110 31//110 5//110
f 21//111 10//111 40//111
f 12//112 33//112 57//112
f 57//113 33//113 23//113
f 26//114 4//114 24//114
f 24//115 12//115 37//115
f 36//116 58//116 37//116
f 13//117 1//117 59//117
f 28//118 19//118 34//118
f 25//119 4//119 35//119
f 32//120 65//120 21//120
f 13//121 36//121 63//121
f 63//122 36//122 15//122
f 63//123 38//123 6//123
f 64//124 39//124 16//124
f 64//125 41//125 12//125
f 32//126 11//126 42//126
f 42//127 17//127 45//127
f 21//128 65//128 45//128
