# Blender 4.1.1
# www.blender.org
mtllib Cube.071_Cube.075.mtl
o Cube.071_Cube.075
v -16.436155 8.068962 -5.931132
v -16.602625 8.099881 -5.984526
v -16.148367 8.405005 -7.208210
v -16.450348 7.850571 -5.981125
v -16.164581 8.190774 -7.276348
v -16.205643 8.220734 -6.543562
v -16.350481 8.283762 -6.637743
v -16.521099 8.080439 -5.935194
v -16.155161 8.250257 -7.278658
v -16.402945 8.032806 -6.664619
v -16.616579 7.983757 -5.989239
v -16.231804 7.996657 -6.609047
v -16.436766 7.959044 -5.950388
v -16.053240 8.302506 -7.276697
v -16.198868 8.108982 -6.568743
v -16.319273 8.008743 -6.639032
v -16.424889 8.160025 -6.641317
v -16.299963 8.253870 -6.570908
v -15.981255 8.385798 -7.188656
v -16.492964 8.173807 -6.301769
v -16.527288 7.961803 -6.367337
v -16.650068 8.052261 -6.006421
v -16.001438 8.165168 -7.240446
v -16.346033 7.939639 -6.304480
v -16.626484 7.877636 -6.021485
v -16.445789 7.906943 -5.971043
v -16.323790 8.161543 -6.241011
v -16.052546 8.396015 -7.205069
v -16.261629 8.357313 -6.893953
v -16.133430 8.356220 -7.280106
v -16.292780 8.109282 -6.965887
v -16.627094 7.939146 -6.028667
v -16.127256 8.077116 -6.911446
v -15.984493 8.326811 -7.200533
v -16.512896 7.918619 -5.987822
v -16.338638 8.031593 -6.278869
v -16.223560 8.067059 -6.588463
v -16.214794 8.165098 -6.560820
v -16.464178 7.953362 -6.318800
v -16.358055 8.033731 -6.647457
v -16.286667 8.012567 -6.625788
v -16.523855 8.073872 -6.338227
v -16.283566 8.233438 -6.932142
v -16.386671 8.202049 -6.616470
v -16.387512 8.094984 -6.643364
v -16.185219 8.334684 -6.870312
v -16.246532 8.228327 -6.557098
v -16.218403 8.337430 -6.885155
v -16.147997 8.312267 -6.861015
v -16.364529 8.183112 -6.251021
v -16.318317 8.182453 -6.958239
v -16.275728 8.315063 -6.912260
v -16.505003 8.134911 -6.315964
v -16.180037 8.115543 -6.996262
v -16.260159 8.117489 -6.951550
v -16.100582 8.222245 -6.912674
v -16.128162 8.136927 -6.897137
v -16.356228 7.982357 -6.297722
v -16.527281 8.030853 -5.973973
v -16.131758 8.185545 -7.269091
v -16.026508 8.290337 -7.212244
v -16.087568 8.410017 -7.258177
v -16.338219 8.082836 -6.265989
v -16.396938 7.941702 -6.323163
v -16.542028 8.033266 -6.355159
v -16.438766 8.169769 -6.243063
vn -0.1262 0.9749 0.1836
vn 0.0524 -0.9670 -0.2495
vn 0.9107 0.2469 -0.3311
vn 0.2300 -0.0604 -0.9713
vn -0.0978 -0.1342 0.9861
vn -0.1468 0.9598 0.2392
vn 0.1973 -0.9577 -0.2094
vn -0.1722 -0.9331 -0.3156
vn -0.1757 -0.9456 -0.2737
vn 0.0426 -0.9735 -0.2247
vn 0.9185 0.2137 0.3328
vn 0.9351 -0.1186 0.3340
vn -0.2642 -0.1491 0.9529
vn -0.2811 -0.3112 0.9078
vn 0.0687 0.2324 -0.9702
vn 0.2459 0.2597 -0.9339
vn 0.8236 0.3410 -0.4532
vn -0.1816 -0.9428 -0.2796
vn 0.1520 0.9400 0.3055
vn 0.9410 -0.2523 0.2254
vn 0.9312 -0.2538 0.2618
vn -0.5090 0.6594 -0.5532
vn 0.7453 -0.5269 -0.4086
vn -0.2324 0.1282 0.9641
vn 0.8260 -0.5482 0.1312
vn 0.9352 -0.2348 0.2652
vn -0.4457 -0.8159 -0.3682
vn -0.0809 -0.9544 -0.2872
vn -0.1765 -0.9343 -0.3096
vn -0.8089 -0.4804 -0.3390
vn -0.6845 0.7128 -0.1527
vn -0.9146 0.3141 -0.2547
vn 0.4058 0.8313 0.3799
vn -0.0113 0.9784 0.2062
vn 0.3271 0.8721 0.3638
vn 0.0667 0.9748 0.2130
vn 0.3579 0.8954 0.2649
vn 0.0812 0.9537 0.2897
vn 0.1084 0.9283 0.3555
vn 0.0790 0.9633 0.2564
vn 0.4274 0.8440 0.3240
vn 0.3942 0.8750 0.2812
vn -0.1548 0.9708 0.1835
vn -0.8281 -0.4661 -0.3115
vn -0.8672 -0.2581 -0.4259
vn -0.7390 0.6282 -0.2433
vn -0.9132 0.3501 -0.2087
vn -0.9198 0.2084 -0.3325
vn -0.9266 0.1706 -0.3351
vn -0.6746 0.7281 -0.1218
vn -0.8889 0.3725 -0.2668
vn -0.7266 0.6858 -0.0423
vn 0.1084 -0.9668 -0.2314
vn -0.0924 -0.9604 -0.2628
vn -0.0990 -0.9640 -0.2467
vn 0.0423 -0.9736 -0.2244
vn 0.9500 -0.1848 0.2518
vn -0.4535 -0.8209 -0.3472
vn 0.9278 -0.1782 0.3278
vn 0.9381 0.1767 0.2980
vn 0.9264 -0.2478 0.2836
vn 0.8846 0.1408 0.4447
vn 0.7884 -0.5714 0.2276
vn -0.3658 -0.1600 0.9168
vn -0.5354 -0.4779 0.6964
vn -0.2780 -0.1586 0.9474
vn 0.1771 0.1100 -0.9780
vn -0.1191 -0.6024 0.7892
vn -0.0007 -0.0644 -0.9979
vn 0.2047 -0.0703 -0.9763
vn -0.3178 0.1069 0.9421
vn -0.9576 -0.0428 -0.2851
vn 0.1918 0.2258 -0.9551
vn 0.9590 -0.0541 0.2782
vn -0.3659 -0.5664 0.7385
vn 0.8852 0.1914 0.4240
vn 0.9147 -0.2646 0.3054
vn 0.1795 -0.9704 -0.1618
vn 0.0244 -0.9842 -0.1751
vn -0.8908 0.4423 -0.1046
vn -0.8051 0.4960 -0.3254
vn -0.8977 0.3247 -0.2979
vn 0.0517 0.9553 0.2910
vn -0.1832 0.9546 0.2348
vn 0.9086 -0.3859 0.1600
vn 0.9451 -0.2727 0.1803
vn 0.9349 -0.2360 0.2651
vn -0.2216 -0.9072 -0.3576
vn -0.1795 -0.9333 -0.3111
vn -0.8720 0.3813 -0.3069
vn -0.9427 0.1616 -0.2918
vn -0.9147 -0.2898 -0.2815
vn 0.3292 0.8774 0.3491
vn 0.1463 0.9395 0.3096
vn 0.0007 0.9836 0.1805
vn 0.1054 0.9685 0.2255
vn 0.1826 0.9354 0.3029
vn 0.3567 0.8518 0.3838
vn 0.1036 0.9677 0.2298
vn 0.3576 0.8940 0.2699
vn -0.7546 0.6217 -0.2098
vn -0.8946 0.1250 -0.4291
vn -0.8998 0.3873 -0.2009
vn -0.8785 0.4038 -0.2554
vn -0.9234 0.1848 -0.3365
vn -0.9036 0.3628 -0.2278
vn -0.9034 0.3284 -0.2757
vn -0.8890 0.3720 -0.2670
vn 0.2959 -0.9461 -0.1319
vn 0.2941 -0.9473 -0.1271
vn 0.0942 -0.9765 -0.1938
vn 0.9482 -0.0602 0.3118
vn 0.9378 -0.0673 0.3406
vn 0.9537 -0.1259 0.2730
vn 0.9291 -0.1998 0.3111
vn 0.8673 -0.4151 0.2748
vn -0.3649 -0.1587 0.9174
vn 0.2450 0.1784 -0.9530
vn -0.2399 -0.1258 0.9626
vn -0.9463 -0.1460 -0.2886
vn 0.9599 -0.0757 0.2700
vn 0.9065 -0.1099 0.4077
vn 0.9163 -0.2482 0.3143
vn -0.1811 -0.9521 -0.2466
vn -0.1848 -0.9398 -0.2874
vn -0.9227 0.3535 -0.1539
vn -0.8036 -0.4495 -0.3902
vn -0.8685 -0.0963 -0.4863
s 0
usemtl Fence2
f 20//1 2//1 66//1
f 24//2 4//2 64//2
f 14//3 28//3 61//3
f 60//4 9//4 30//4
f 59//5 11//5 35//5
f 66//6 8//6 50//6
f 54//7 41//7 16//7
f 23//8 33//8 54//8
f 60//9 54//9 55//9
f 39//10 25//10 21//10
f 56//11 38//11 15//11
f 34//12 19//12 56//12
f 35//13 4//13 26//13
f 13//14 35//14 26//14
f 23//15 61//15 34//15
f 60//16 61//16 23//16
f 14//17 62//17 28//17
f 64//18 4//18 39//18
f 7//19 66//19 18//19
f 26//20 36//20 13//20
f 63//21 27//21 1//21
f 30//22 3//22 62//22
f 60//23 14//23 61//23
f 59//24 22//24 11//24
f 57//25 15//25 37//25
f 6//26 56//26 19//26
f 55//27 16//27 40//27
f 39//28 4//28 25//28
f 41//29 33//29 12//29
f 22//30 42//30 11//30
f 44//31 43//31 17//31
f 45//32 31//32 10//32
f 18//33 49//33 46//33
f 7//34 46//34 48//34
f 48//35 29//35 7//35
f 48//36 28//36 62//36
f 48//37 3//37 29//37
f 6//38 49//38 47//38
f 1//39 50//39 8//39
f 19//40 28//40 49//40
f 28//41 46//41 49//41
f 27//42 47//42 50//42
f 50//43 18//43 66//43
f 17//44 51//44 45//44
f 51//45 5//45 31//45
f 9//46 51//46 43//46
f 7//47 52//47 44//47
f 52//48 3//48 30//48
f 52//49 9//49 43//49
f 2//50 53//50 22//50
f 20//51 44//51 53//51
f 42//52 44//52 17//52
f 10//53 55//53 40//53
f 60//54 23//54 54//54
f 55//55 5//55 60//55
f 21//56 40//56 39//56
f 12//57 57//57 37//57
f 40//58 16//58 39//58
f 57//59 23//59 34//59
f 26//60 24//60 58//60
f 34//61 56//61 57//61
f 24//62 37//62 58//62
f 36//63 37//63 15//63
f 13//64 59//64 35//64
f 8//65 2//65 59//65
f 2//66 22//66 59//66
f 28//67 34//67 61//67
f 1//68 8//68 59//68
f 60//69 30//69 14//69
f 60//70 5//70 9//70
f 25//71 35//71 32//71
f 32//72 21//72 25//72
f 14//73 30//73 62//73
f 13//74 63//74 1//74
f 11//75 32//75 35//75
f 63//76 15//76 38//76
f 63//77 6//77 27//77
f 64//78 16//78 41//78
f 64//79 12//79 24//79
f 32//80 42//80 65//80
f 42//81 45//81 65//81
f 21//82 45//82 10//82
f 66//83 2//83 8//83
f 7//84 20//84 66//84
f 26//85 58//85 36//85
f 57//86 56//86 15//86
f 6//87 38//87 56//87
f 55//88 54//88 16//88
f 41//89 54//89 33//89
f 22//90 53//90 42//90
f 44//91 52//91 43//91
f 45//92 51//92 31//92
f 18//93 47//93 49//93
f 7//94 18//94 46//94
f 48//95 46//95 28//95
f 48//96 62//96 3//96
f 6//97 19//97 49//97
f 1//98 27//98 50//98
f 27//99 6//99 47//99
f 50//100 47//100 18//100
f 17//101 43//101 51//101
f 51//102 9//102 5//102
f 7//103 29//103 52//103
f 52//104 29//104 3//104
f 52//105 30//105 9//105
f 2//106 20//106 53//106
f 20//107 7//107 44//107
f 42//108 53//108 44//108
f 10//109 31//109 55//109
f 55//110 31//110 5//110
f 21//111 10//111 40//111
f 12//112 33//112 57//112
f 57//113 33//113 23//113
f 26//114 4//114 24//114
f 24//115 12//115 37//115
f 36//116 58//116 37//116
f 13//117 1//117 59//117
f 28//118 19//118 34//118
f 25//119 4//119 35//119
f 32//120 65//120 21//120
f 13//121 36//121 63//121
f 63//122 36//122 15//122
f 63//123 38//123 6//123
f 64//124 39//124 16//124
f 64//125 41//125 12//125
f 32//126 11//126 42//126
f 42//127 17//127 45//127
f 21//128 65//128 45//128
