# Blender 4.1.1
# www.blender.org
mtllib Cube.014.mtl
o Cube.014
v 3.418554 -2.300467 -1.165494
v 3.419966 -2.300620 -1.226638
v 3.389761 -2.196366 -1.166420
v 3.391174 -2.196519 -1.227564
v 2.352845 -2.595433 -1.189373
v 2.354258 -2.595586 -1.250517
v 2.324053 -2.491332 -1.190300
v 2.325465 -2.491485 -1.251444
v 3.419260 -2.300544 -1.196066
v 3.405570 -2.248570 -1.227101
v 3.390468 -2.196443 -1.196992
v 3.404157 -2.248416 -1.165957
v 2.858320 -2.344002 -1.239504
v 2.324759 -2.491409 -1.220871
v 2.856907 -2.343849 -1.178360
v 2.339862 -2.543536 -1.250980
v 2.353551 -2.595510 -1.219946
v 2.338449 -2.543382 -1.189837
v 2.887112 -2.448103 -1.238578
v 2.885699 -2.447950 -1.177434
v 2.872716 -2.396053 -1.239041
v 2.871303 -2.395900 -1.177897
v 2.886406 -2.448026 -1.208006
v 2.339155 -2.543459 -1.220409
v 2.857613 -2.343926 -1.208932
v 3.423654 -2.248493 -1.196529
v 3.419613 -2.300582 -1.211352
v 3.398372 -2.222544 -1.227332
v 3.390115 -2.196404 -1.181706
v 3.411355 -2.274442 -1.165725
v 2.591892 -2.417744 -1.245474
v 2.324406 -2.491370 -1.205585
v 3.123334 -2.270108 -1.172390
v 2.347060 -2.569561 -1.250749
v 2.353198 -2.595471 -1.204660
v 2.331251 -2.517357 -1.190068
v 3.153539 -2.374362 -1.232608
v 2.619272 -2.521691 -1.183404
v 3.418907 -2.300505 -1.180780
v 3.412768 -2.274595 -1.226869
v 3.390821 -2.196481 -1.212278
v 3.396959 -2.222391 -1.166188
v 3.124747 -2.270261 -1.233534
v 2.325112 -2.491447 -1.236158
v 2.590480 -2.417591 -1.184330
v 2.332664 -2.517510 -1.251212
v 2.353904 -2.595548 -1.235232
v 2.345647 -2.569408 -1.189605
v 2.620685 -2.521845 -1.244548
v 3.152127 -2.374208 -1.171464
v 3.139143 -2.322311 -1.233071
v 2.606289 -2.469794 -1.245011
v 2.879914 -2.422078 -1.238809
v 2.865518 -2.370028 -1.239272
v 2.604876 -2.469641 -1.183867
v 3.137730 -2.322158 -1.171927
v 2.878501 -2.421925 -1.177665
v 2.864105 -2.369874 -1.178128
v 2.886053 -2.447988 -1.192720
v 2.886759 -2.448065 -1.223292
v 2.619978 -2.521768 -1.213976
v 3.152833 -2.374285 -1.202036
v 2.338802 -2.543421 -1.205122
v 2.339509 -2.543497 -1.235695
v 2.331957 -2.517434 -1.220640
v 2.346353 -2.569484 -1.220177
v 2.857260 -2.343887 -1.193646
v 2.857966 -2.343964 -1.224218
v 3.124041 -2.270184 -1.202962
v 2.591186 -2.417667 -1.214902
v 3.423301 -2.248455 -1.181243
v 3.424007 -2.248531 -1.211815
v 3.412062 -2.274518 -1.196297
v 3.416456 -2.222468 -1.196760
v 3.398019 -2.222506 -1.212046
v 3.412415 -2.274557 -1.211583
v 3.411709 -2.274480 -1.181011
v 2.591539 -2.417706 -1.230188
v 3.124394 -2.270222 -1.218248
v 3.123687 -2.270146 -1.187676
v 2.346706 -2.569523 -1.235463
v 2.332310 -2.517472 -1.235926
v 2.331604 -2.517395 -1.205354
v 3.153186 -2.374323 -1.217322
v 2.620332 -2.521806 -1.229262
v 2.619625 -2.521730 -1.198690
v 3.130532 -2.296133 -1.172158
v 3.144928 -2.348183 -1.171695
v 2.612074 -2.495666 -1.183635
v 2.599091 -2.443769 -1.245242
v 2.613487 -2.495819 -1.244779
v 3.146341 -2.348336 -1.232839
v 3.131945 -2.296286 -1.233302
v 2.597678 -2.443616 -1.184098
v 3.152480 -2.374247 -1.186750
v 2.346000 -2.569446 -1.204891
v 2.590833 -2.417629 -1.199616
v 3.416103 -2.222430 -1.181474
vn 0.5284 0.5335 0.6604
vn -0.2666 0.9638 -0.0085
vn -0.9635 -0.2667 -0.0216
vn 0.2666 -0.9638 0.0086
vn -0.0231 0.0025 0.9997
vn 0.0231 -0.0025 -0.9997
vn 0.2666 -0.9638 0.0085
vn -0.2666 0.9638 -0.0086
vn 0.9635 0.2667 0.0217
vn 0.9133 -0.4066 0.0222
vn 0.5394 0.5329 -0.6520
vn 0.9635 0.2667 0.0216
vn 0.9133 -0.4066 0.0221
vn -0.9635 -0.2667 -0.0217
vn -0.9636 -0.2666 -0.0216
vn 0.6144 0.1768 0.7690
vn 0.7075 0.7066 0.0146
vn 0.6019 -0.2614 0.7545
vn 0.9635 0.2667 0.0215
vn 0.6131 -0.2797 -0.7388
vn 0.6144 0.1767 0.7690
vn 0.7075 0.7066 0.0145
s 0
usemtl CHIM
f 29//1 42//1 98//1
f 32//2 45//2 97//2
f 35//3 48//3 96//3
f 39//4 50//4 95//4
f 94//5 7//5 36//5
f 43//6 28//6 93//6
f 51//6 40//6 92//6
f 91//6 21//6 53//6
f 90//6 13//6 54//6
f 89//5 18//5 48//5
f 88//5 22//5 57//5
f 33//5 58//5 87//5
f 86//4 20//4 38//4
f 85//4 23//4 61//4
f 27//7 62//7 84//7
f 83//3 18//3 36//3
f 82//3 24//3 65//3
f 81//3 17//3 66//3
f 67//8 33//8 80//8
f 79//2 25//2 69//2
f 78//8 14//8 70//8
f 77//9 12//9 30//9
f 76//10 26//10 73//10
f 75//11 11//11 74//11
f 72//12 74//12 26//12
f 10//11 75//11 72//11
f 28//12 41//12 75//12
f 76//12 9//12 27//12
f 40//12 27//12 2//12
f 10//12 76//12 40//12
f 77//12 1//12 39//12
f 73//12 39//12 9//12
f 73//13 71//13 77//13
f 68//8 70//8 25//8
f 31//8 68//8 13//8
f 8//8 78//8 31//8
f 41//2 69//2 11//2
f 43//8 41//8 4//8
f 13//8 79//8 43//8
f 80//8 3//8 29//8
f 69//8 29//8 11//8
f 25//8 80//8 69//8
f 64//14 66//14 24//14
f 16//15 81//15 64//15
f 34//3 47//3 81//3
f 82//3 14//3 44//3
f 46//3 44//3 8//3
f 46//14 64//14 82//14
f 83//3 7//3 32//3
f 14//3 83//3 32//3
f 24//3 83//3 65//3
f 84//4 23//4 60//4
f 37//7 60//7 19//7
f 2//4 84//4 37//4
f 47//7 61//7 17//7
f 6//4 85//4 47//4
f 19//4 85//4 49//4
f 35//7 38//7 5//7
f 61//4 35//4 17//4
f 23//4 86//4 61//4
f 56//5 58//5 22//5
f 12//5 87//5 56//5
f 3//5 87//5 42//5
f 88//5 20//5 50//5
f 30//5 50//5 1//5
f 30//5 56//5 88//5
f 38//5 48//5 5//5
f 57//5 38//5 20//5
f 57//5 55//5 89//5
f 90//6 21//6 52//6
f 46//6 52//6 16//6
f 46//6 31//6 90//6
f 91//6 19//6 49//6
f 6//6 91//6 49//6
f 16//6 91//6 34//6
f 92//6 2//6 37//6
f 53//6 37//6 19//6
f 53//6 51//6 92//6
f 93//6 10//6 51//6
f 54//6 51//6 21//6
f 13//6 93//6 54//6
f 94//5 18//5 55//5
f 58//5 55//5 22//5
f 58//5 45//5 94//5
f 59//4 50//4 20//4
f 62//7 59//7 23//7
f 9//7 95//7 62//7
f 63//3 48//3 18//3
f 66//3 63//3 24//3
f 66//3 35//3 96//3
f 97//8 15//8 67//8
f 70//8 67//8 25//8
f 14//2 97//2 70//2
f 98//16 12//16 71//16
f 26//12 98//12 71//12
f 11//17 98//17 74//17
f 29//12 3//12 42//12
f 32//2 7//2 45//2
f 35//3 5//3 48//3
f 39//7 1//7 50//7
f 94//5 45//5 7//5
f 43//6 4//6 28//6
f 51//6 10//6 40//6
f 91//6 52//6 21//6
f 90//6 31//6 13//6
f 89//5 55//5 18//5
f 88//5 56//5 22//5
f 33//5 15//5 58//5
f 86//4 59//4 20//4
f 85//4 60//4 23//4
f 27//7 9//7 62//7
f 83//3 63//3 18//3
f 82//3 64//3 24//3
f 81//3 47//3 17//3
f 67//8 15//8 33//8
f 79//8 68//8 25//8
f 78//2 44//2 14//2
f 77//18 71//18 12//18
f 76//13 72//13 26//13
f 75//12 41//12 11//12
f 72//11 75//11 74//11
f 10//12 28//12 75//12
f 28//12 4//12 41//12
f 76//19 73//19 9//19
f 40//12 76//12 27//12
f 10//20 72//20 76//20
f 77//12 30//12 1//12
f 73//12 77//12 39//12
f 73//13 26//13 71//13
f 68//8 78//8 70//8
f 31//8 78//8 68//8
f 8//8 44//8 78//8
f 41//2 79//2 69//2
f 43//8 79//8 41//8
f 13//8 68//8 79//8
f 80//2 33//2 3//2
f 69//8 80//8 29//8
f 25//8 67//8 80//8
f 64//15 81//15 66//15
f 16//3 34//3 81//3
f 34//3 6//3 47//3
f 82//3 65//3 14//3
f 46//14 82//14 44//14
f 46//3 16//3 64//3
f 83//3 36//3 7//3
f 14//3 65//3 83//3
f 24//3 63//3 83//3
f 84//7 62//7 23//7
f 37//4 84//4 60//4
f 2//4 27//4 84//4
f 47//4 85//4 61//4
f 6//4 49//4 85//4
f 19//7 60//7 85//7
f 35//4 86//4 38//4
f 61//4 86//4 35//4
f 23//7 59//7 86//7
f 56//5 87//5 58//5
f 12//5 42//5 87//5
f 3//5 33//5 87//5
f 88//5 57//5 20//5
f 30//5 88//5 50//5
f 30//5 12//5 56//5
f 38//5 89//5 48//5
f 57//5 89//5 38//5
f 57//5 22//5 55//5
f 90//6 54//6 21//6
f 46//6 90//6 52//6
f 46//6 8//6 31//6
f 91//6 53//6 19//6
f 6//6 34//6 91//6
f 16//6 52//6 91//6
f 92//6 40//6 2//6
f 53//6 92//6 37//6
f 53//6 21//6 51//6
f 93//6 28//6 10//6
f 54//6 93//6 51//6
f 13//6 43//6 93//6
f 94//5 36//5 18//5
f 58//5 94//5 55//5
f 58//5 15//5 45//5
f 59//4 95//4 50//4
f 62//7 95//7 59//7
f 9//4 39//4 95//4
f 63//3 96//3 48//3
f 66//3 96//3 63//3
f 66//3 17//3 35//3
f 97//2 45//2 15//2
f 70//8 97//8 67//8
f 14//8 32//8 97//8
f 98//21 42//21 12//21
f 26//12 74//12 98//12
f 11//22 29//22 98//22
