# Blender 4.1.1
# www.blender.org
mtllib Cube.014.mtl
o Cube.014
v 9.750184 5.679571 3.282595
v 9.754037 5.846447 3.282176
v 9.671600 5.682098 3.566711
v 9.675457 5.848975 3.566294
v 6.841608 5.744741 2.477562
v 6.845464 5.911618 2.477144
v 6.763027 5.747272 2.761678
v 6.766881 5.914148 2.761260
v 9.752110 5.763009 3.282385
v 9.714747 5.847712 3.424234
v 9.673530 5.765537 3.566501
v 9.710891 5.680835 3.424655
v 8.221170 5.881562 3.163777
v 6.764954 5.830707 2.761467
v 8.217314 5.714685 3.164195
v 6.806174 5.912882 2.619201
v 6.843534 5.828182 2.477351
v 6.802318 5.746008 2.619622
v 8.299750 5.879034 2.879661
v 8.295895 5.712157 2.880079
v 8.260460 5.880298 3.021717
v 8.256604 5.713421 3.022135
v 8.297823 5.795596 2.879870
v 6.804244 5.829446 2.619411
v 8.219241 5.798123 3.163984
v 9.764103 5.764273 3.424445
v 9.753074 5.804729 3.282281
v 9.695102 5.848342 3.495265
v 9.672566 5.723818 3.566608
v 9.730536 5.680202 3.353623
v 7.494024 5.897855 2.962518
v 6.763990 5.788988 2.761574
v 8.944457 5.698392 3.365452
v 6.825819 5.912251 2.548172
v 6.842571 5.786464 2.477458
v 6.782672 5.746638 2.690650
v 9.026894 5.862741 3.080917
v 7.568751 5.728451 2.678821
v 9.751147 5.721290 3.282491
v 9.734392 5.847078 3.353205
v 9.674494 5.807256 3.566397
v 9.691246 5.681465 3.495683
v 8.948314 5.865269 3.365034
v 6.765918 5.872429 2.761364
v 7.490171 5.730978 2.962935
v 6.786529 5.913515 2.690232
v 6.844498 5.869902 2.477248
v 6.821963 5.745375 2.548590
v 7.572608 5.895328 2.678401
v 9.023041 5.695864 3.081338
v 8.987604 5.864005 3.222977
v 7.533317 5.896591 2.820460
v 8.280106 5.879665 2.950689
v 8.240816 5.880929 3.092746
v 7.529461 5.729714 2.820879
v 8.983747 5.697128 3.223395
v 8.276249 5.712788 2.951107
v 8.236959 5.714052 3.093166
v 8.296861 5.753877 2.879974
v 8.298787 5.837315 2.879764
v 7.570678 5.811889 2.678610
v 9.024967 5.779303 3.081127
v 6.803281 5.787724 2.619514
v 6.805211 5.871165 2.619307
v 6.784599 5.830077 2.690440
v 6.823889 5.828813 2.548382
v 8.218277 5.756404 3.164091
v 8.220203 5.839843 3.163880
v 8.946387 5.781830 3.365244
v 7.492097 5.814417 2.962728
v 9.763140 5.722554 3.424548
v 9.765066 5.805992 3.424340
v 9.732465 5.763640 3.353416
v 9.744457 5.764904 3.495473
v 9.694139 5.806623 3.495368
v 9.733429 5.805359 3.353309
v 9.731503 5.721920 3.353519
v 7.493061 5.856136 2.962621
v 8.947351 5.823549 3.365140
v 8.945421 5.740111 3.365348
v 6.824852 5.870532 2.548275
v 6.785563 5.871796 2.690336
v 6.783636 5.788358 2.690546
v 9.025930 5.821022 3.081024
v 7.571644 5.853608 2.678507
v 7.569715 5.770170 2.678715
v 8.964103 5.697759 3.294423
v 9.003392 5.696495 3.152367
v 7.549106 5.729081 2.749850
v 7.513672 5.897222 2.891489
v 7.552962 5.895958 2.749432
v 9.007249 5.863371 3.151948
v 8.967958 5.864635 3.294005
v 7.509816 5.730345 2.891907
v 9.024003 5.737583 3.081231
v 6.822926 5.787094 2.548486
v 7.491134 5.772697 2.962831
v 9.743494 5.723185 3.495577
vn 0.5284 -0.6604 0.5335
vn -0.2666 0.0086 0.9638
vn -0.9635 0.0216 -0.2667
vn 0.2666 -0.0086 -0.9638
vn -0.0231 -0.9997 0.0025
vn 0.0231 0.9997 -0.0025
vn 0.2666 -0.0085 -0.9638
vn -0.2666 0.0085 0.9638
vn 0.9635 -0.0217 0.2667
vn 0.9133 -0.0222 -0.4066
vn 0.5394 0.6520 0.5329
vn 0.9635 -0.0216 0.2667
vn 0.9133 -0.0221 -0.4066
vn -0.9635 0.0217 -0.2667
vn -0.9636 0.0216 -0.2666
vn 0.6144 -0.7690 0.1768
vn 0.7075 -0.0146 0.7066
vn 0.6019 -0.7545 -0.2614
vn 0.6131 0.7388 -0.2797
vn 0.6144 -0.7690 0.1767
vn 0.7075 -0.0145 0.7066
s 0
usemtl CHIM
f 29//1 42//1 98//1
f 97//2 7//2 45//2
f 35//3 48//3 96//3
f 39//4 50//4 95//4
f 45//5 36//5 94//5
f 43//6 28//6 93//6
f 92//6 10//6 40//6
f 91//6 21//6 53//6
f 90//6 13//6 54//6
f 89//5 18//5 48//5
f 88//5 22//5 57//5
f 33//5 58//5 87//5
f 86//4 20//4 38//4
f 85//4 23//4 61//4
f 27//7 62//7 84//7
f 83//3 18//3 36//3
f 82//3 24//3 65//3
f 81//3 17//3 66//3
f 67//2 33//2 80//2
f 79//8 25//8 69//8
f 78//2 14//2 70//2
f 77//9 12//9 30//9
f 76//10 26//10 73//10
f 75//11 11//11 74//11
f 72//12 74//12 26//12
f 10//11 75//11 72//11
f 28//12 41//12 75//12
f 76//12 9//12 27//12
f 2//12 76//12 27//12
f 10//12 76//12 40//12
f 77//12 1//12 39//12
f 73//12 39//12 9//12
f 73//13 71//13 77//13
f 68//2 70//2 25//2
f 31//2 68//2 13//2
f 8//2 78//2 31//2
f 79//2 11//2 41//2
f 4//2 79//2 41//2
f 13//2 79//2 43//2
f 80//2 3//2 29//2
f 69//2 29//2 11//2
f 25//2 80//2 69//2
f 64//14 66//14 24//14
f 16//15 81//15 64//15
f 6//14 81//14 34//14
f 82//3 14//3 44//3
f 46//3 44//3 8//3
f 46//14 64//14 82//14
f 83//3 7//3 32//3
f 14//3 83//3 32//3
f 24//3 83//3 65//3
f 84//4 23//4 60//4
f 37//4 60//4 19//4
f 2//4 84//4 37//4
f 47//7 61//7 17//7
f 6//4 85//4 47//4
f 49//4 60//4 85//4
f 86//4 5//4 35//4
f 61//4 35//4 17//4
f 23//4 86//4 61//4
f 56//5 58//5 22//5
f 42//5 56//5 12//5
f 3//5 87//5 42//5
f 88//5 20//5 50//5
f 30//5 50//5 1//5
f 30//5 56//5 88//5
f 38//5 48//5 5//5
f 57//5 38//5 20//5
f 57//5 55//5 89//5
f 90//6 21//6 52//6
f 46//6 52//6 16//6
f 46//6 31//6 90//6
f 91//6 19//6 49//6
f 34//6 49//6 6//6
f 16//6 91//6 34//6
f 92//6 2//6 37//6
f 19//6 92//6 37//6
f 21//6 92//6 53//6
f 51//6 28//6 10//6
f 54//6 51//6 21//6
f 13//6 93//6 54//6
f 94//5 18//5 55//5
f 22//5 94//5 55//5
f 58//5 45//5 94//5
f 95//4 20//4 59//4
f 62//7 59//7 23//7
f 9//4 95//4 62//4
f 63//3 48//3 18//3
f 66//3 63//3 24//3
f 66//3 35//3 96//3
f 67//2 45//2 15//2
f 70//2 67//2 25//2
f 70//2 32//2 97//2
f 98//16 12//16 71//16
f 26//12 98//12 71//12
f 11//17 98//17 74//17
f 29//12 3//12 42//12
f 97//2 32//2 7//2
f 35//3 5//3 48//3
f 39//7 1//7 50//7
f 45//5 7//5 36//5
f 43//6 4//6 28//6
f 92//6 51//6 10//6
f 91//6 52//6 21//6
f 90//6 31//6 13//6
f 89//5 55//5 18//5
f 88//5 56//5 22//5
f 33//5 15//5 58//5
f 86//4 59//4 20//4
f 85//4 60//4 23//4
f 27//4 9//4 62//4
f 83//3 63//3 18//3
f 82//14 64//14 24//14
f 81//3 47//3 17//3
f 67//2 15//2 33//2
f 79//8 68//8 25//8
f 78//8 44//8 14//8
f 77//18 71//18 12//18
f 76//13 72//13 26//13
f 75//12 41//12 11//12
f 72//11 75//11 74//11
f 10//12 28//12 75//12
f 28//12 4//12 41//12
f 76//12 73//12 9//12
f 2//12 40//12 76//12
f 10//19 72//19 76//19
f 77//9 30//9 1//9
f 73//12 77//12 39//12
f 73//13 26//13 71//13
f 68//2 78//2 70//2
f 31//8 78//8 68//8
f 8//8 44//8 78//8
f 79//8 69//8 11//8
f 4//2 43//2 79//2
f 13//2 68//2 79//2
f 80//2 33//2 3//2
f 69//2 80//2 29//2
f 25//2 67//2 80//2
f 64//15 81//15 66//15
f 16//14 34//14 81//14
f 6//14 47//14 81//14
f 82//3 65//3 14//3
f 46//14 82//14 44//14
f 46//3 16//3 64//3
f 83//3 36//3 7//3
f 14//3 65//3 83//3
f 24//3 63//3 83//3
f 84//7 62//7 23//7
f 37//4 84//4 60//4
f 2//4 27//4 84//4
f 47//4 85//4 61//4
f 6//4 49//4 85//4
f 49//7 19//7 60//7
f 86//4 38//4 5//4
f 61//4 86//4 35//4
f 23//7 59//7 86//7
f 56//5 87//5 58//5
f 42//5 87//5 56//5
f 3//5 33//5 87//5
f 88//5 57//5 20//5
f 30//5 88//5 50//5
f 30//5 12//5 56//5
f 38//5 89//5 48//5
f 57//5 89//5 38//5
f 57//5 22//5 55//5
f 90//6 54//6 21//6
f 46//6 90//6 52//6
f 46//6 8//6 31//6
f 91//6 53//6 19//6
f 34//6 91//6 49//6
f 16//6 52//6 91//6
f 92//6 40//6 2//6
f 19//6 53//6 92//6
f 21//6 51//6 92//6
f 51//6 93//6 28//6
f 54//6 93//6 51//6
f 13//6 43//6 93//6
f 94//5 36//5 18//5
f 22//5 58//5 94//5
f 58//5 15//5 45//5
f 95//4 50//4 20//4
f 62//4 95//4 59//4
f 9//4 39//4 95//4
f 63//3 96//3 48//3
f 66//3 96//3 63//3
f 66//3 17//3 35//3
f 67//2 97//2 45//2
f 70//8 97//8 67//8
f 70//2 14//2 32//2
f 98//20 42//20 12//20
f 26//12 74//12 98//12
f 11//21 29//21 98//21
