# Blender 4.1.1
# www.blender.org
mtllib Cube.044_Cube.048.mtl
o Cube.044_Cube.048
v 1.873388 4.908397 17.143095
v 1.925746 4.906833 17.312729
v 1.928462 6.247286 17.319227
v 1.656370 4.899677 17.199852
v 1.712786 6.255351 17.384180
v 1.873246 5.580142 17.143541
v 1.945689 5.630453 17.304916
v 1.899859 4.885499 17.221443
v 1.768154 6.274147 17.369585
v 1.708299 5.580142 17.391926
v 1.815253 4.880062 17.340593
v 1.650371 5.580142 17.217772
v 1.763924 4.900872 17.163437
v 1.799770 6.319215 17.269133
v 1.759609 5.580142 17.159521
v 1.673529 5.580142 17.308104
v 1.839447 5.580142 17.388832
v 1.918505 5.580142 17.236780
v 1.881601 6.282556 17.160364
v 1.922970 5.250393 17.322460
v 1.713305 5.250393 17.402855
v 1.884949 4.899713 17.370024
v 1.663245 6.272911 17.223562
v 1.668223 5.250393 17.215069
v 1.709025 4.882041 17.373926
v 1.711741 4.904808 17.185436
v 1.889395 5.250392 17.145445
v 1.902187 6.275324 17.230934
v 1.956789 5.911145 17.310928
v 1.866309 6.306912 17.338037
v 1.710597 5.909889 17.394907
v 1.767428 4.902292 17.370159
v 1.657388 5.909889 17.225893
v 1.823146 6.278926 17.174534
v 1.732887 4.899674 17.252129
v 1.760100 5.250392 17.188154
v 1.720393 5.580142 17.194426
v 1.818241 5.580142 17.164791
v 1.701408 5.225936 17.327551
v 1.703610 5.580142 17.344086
v 1.673302 5.580142 17.272703
v 1.825981 5.250393 17.375973
v 1.834655 5.910386 17.359589
v 1.877073 5.580142 17.339556
v 1.769120 5.580142 17.362648
v 1.924450 5.910743 17.234354
v 1.886033 5.580142 17.185368
v 1.930872 5.913486 17.270140
v 1.897299 5.909995 17.199188
v 1.916267 5.250392 17.184214
v 1.787496 5.910694 17.407169
v 1.915492 5.913426 17.335592
v 1.885225 5.250393 17.343304
v 1.690215 5.977743 17.301884
v 1.714792 5.909889 17.358583
v 1.792532 5.953008 17.185238
v 1.717835 5.910067 17.214523
v 1.712614 5.250393 17.217030
v 1.846514 4.907499 17.247347
v 1.702748 6.258833 17.351858
v 1.793826 6.266906 17.221746
v 1.913383 6.314857 17.281479
v 1.811767 5.250392 17.177082
v 1.676687 5.250393 17.268669
v 1.787278 5.250393 17.403681
v 1.918735 5.214602 17.251040
vn 0.9979 0.0099 -0.0641
vn -0.9874 0.0266 0.1559
vn 0.0108 0.6707 -0.7417
vn -0.2659 0.9506 0.1599
vn 0.0552 -0.9627 -0.2648
vn 0.9966 -0.0514 -0.0643
vn -0.9991 0.0420 0.0064
vn -0.9234 0.0174 0.3834
vn -0.9277 -0.0248 0.3724
vn -0.9877 -0.0008 0.1563
vn 0.0894 0.0607 -0.9941
vn -0.2350 -0.0098 -0.9719
vn 0.0666 -0.9930 -0.0976
vn -0.0946 -0.9944 -0.0465
vn 0.0480 0.9604 0.2743
vn 0.0470 0.9944 0.0946
vn 0.0977 0.7733 -0.6265
vn -0.9249 -0.0209 0.3796
vn 0.9321 -0.0135 -0.3619
vn -0.3838 0.0610 -0.9214
vn -0.3773 0.0240 -0.9258
vn 0.6407 0.4784 0.6005
vn -0.7195 0.5094 -0.4721
vn 0.3308 -0.9296 -0.1626
vn -0.6643 0.0403 -0.7464
vn -0.3590 0.0266 -0.9330
vn -0.7672 -0.0022 0.6414
vn -0.9565 0.0181 0.2912
vn -0.9228 0.0101 0.3852
vn -0.3691 -0.0778 0.9261
vn 0.7931 0.0651 0.6056
vn 0.4337 -0.0112 0.9010
vn 0.7916 -0.0187 -0.6108
vn 0.9835 0.0295 -0.1787
vn 0.8433 -0.0218 -0.5371
vn 0.9663 0.0492 -0.2526
vn 0.8432 0.0842 -0.5309
vn 0.9561 -0.0204 -0.2923
vn 0.9376 -0.0768 -0.3392
vn 0.9602 0.0114 -0.2790
vn 0.7904 0.0425 -0.6111
vn 0.8194 0.0771 -0.5680
vn 0.9993 -0.0008 -0.0373
vn -0.3469 -0.1062 0.9319
vn -0.1577 0.0316 0.9870
vn 0.7063 0.1099 0.6993
vn 0.4760 -0.0444 0.8783
vn 0.3193 0.0340 0.9471
vn 0.2836 0.0255 0.9586
vn 0.8112 0.0438 0.5831
vn 0.4833 0.0219 0.8752
vn 0.7935 -0.0560 0.6059
vn -0.9948 0.0294 0.0975
vn -0.9560 -0.0095 0.2933
vn -0.9555 -0.0273 0.2938
vn -0.9877 -0.0012 0.1564
vn -0.3158 0.0553 -0.9472
vn -0.7670 -0.0252 0.6412
vn -0.2924 -0.0202 -0.9561
vn 0.0439 0.0908 -0.9949
vn -0.3670 0.0039 -0.9302
vn 0.0440 -0.0694 -0.9966
vn -0.6634 -0.0657 -0.7454
vn 0.0691 -0.9975 0.0107
vn -0.2435 -0.9269 0.2857
vn 0.0590 -0.9949 -0.0816
vn -0.0921 0.9772 0.1915
vn -0.4270 -0.8966 -0.1178
vn -0.2307 0.8947 0.3825
vn -0.2715 0.9443 0.1861
vn 0.3225 -0.9437 -0.0734
vn 0.0914 -0.0790 0.9927
vn 0.0209 0.9875 0.1561
vn -0.1866 0.0638 -0.9804
vn -0.3541 -0.9269 0.1242
vn 0.0895 -0.0389 -0.9952
vn -0.3773 -0.0238 -0.9258
vn -0.9999 -0.0103 0.0064
vn -0.9863 -0.0547 0.1557
vn 0.5785 -0.1108 0.8081
vn 0.5770 0.1321 0.8060
vn 0.4334 0.0364 0.9004
vn 0.9635 -0.0313 -0.2659
vn 0.9977 -0.0610 -0.0286
vn -0.5179 0.0792 -0.8518
vn -0.4120 0.0988 -0.9058
vn -0.3602 0.0263 -0.9325
vn -0.8961 0.0445 0.4417
vn -0.9214 0.0107 0.3885
vn 0.4818 0.0662 0.8738
vn 0.2853 -0.0215 0.9582
vn -0.1550 -0.1234 0.9802
vn 0.8455 -0.0065 -0.5340
vn 0.9335 -0.0194 -0.3581
vn 0.9818 0.0583 -0.1807
vn 0.9550 0.0499 -0.2922
vn 0.9215 -0.0017 -0.3885
vn 0.8214 -0.0345 -0.5693
vn 0.9553 0.0451 -0.2920
vn 0.8428 0.0791 -0.5323
vn 0.7086 0.0724 0.7019
vn 0.2176 0.1119 0.9696
vn 0.5108 -0.0386 0.8588
vn 0.5135 0.0221 0.8578
vn 0.2964 0.0311 0.9546
vn 0.4833 -0.0209 0.8752
vn 0.4418 0.0150 0.8970
vn 0.4828 0.0219 0.8755
vn -0.9934 0.0080 -0.1147
vn -0.9934 0.0027 -0.1147
vn -0.9952 -0.0119 0.0975
vn -0.1849 0.0281 -0.9824
vn -0.1848 -0.0033 -0.9828
vn -0.2560 0.0505 -0.9654
vn -0.3163 -0.0093 -0.9486
vn -0.5190 -0.0463 -0.8535
vn 0.0703 -0.9975 0.0095
vn -0.0346 0.9931 0.1119
vn 0.0862 -0.9883 -0.1262
vn -0.0111 -0.0952 0.9954
vn -0.2091 0.0667 -0.9756
vn -0.2088 -0.0849 -0.9743
vn -0.3602 -0.0277 -0.9325
vn -0.9284 -0.0529 0.3678
vn -0.9227 -0.0142 0.3852
vn 0.4904 -0.0969 0.8661
vn -0.3488 -0.0223 0.9369
vn -0.0111 0.1229 0.9924
s 0
usemtl Fence
f 20//1 2//1 66//1
f 24//2 4//2 64//2
f 14//3 28//3 61//3
f 60//4 9//4 30//4
f 59//5 11//5 35//5
f 66//6 8//6 50//6
f 54//7 41//7 16//7
f 23//8 33//8 54//8
f 60//9 54//9 55//9
f 39//10 25//10 21//10
f 56//11 38//11 15//11
f 34//12 19//12 56//12
f 35//13 4//13 26//13
f 13//14 35//14 26//14
f 23//15 61//15 34//15
f 60//16 61//16 23//16
f 14//17 62//17 28//17
f 64//18 4//18 39//18
f 7//19 66//19 18//19
f 26//20 36//20 13//20
f 63//21 27//21 1//21
f 30//22 3//22 62//22
f 60//23 14//23 61//23
f 59//24 22//24 11//24
f 57//25 15//25 37//25
f 6//26 56//26 19//26
f 55//27 16//27 40//27
f 39//28 4//28 25//28
f 41//29 33//29 12//29
f 22//30 42//30 11//30
f 44//31 43//31 17//31
f 45//32 31//32 10//32
f 18//33 49//33 46//33
f 7//34 46//34 48//34
f 48//35 29//35 7//35
f 48//36 28//36 62//36
f 48//37 3//37 29//37
f 6//38 49//38 47//38
f 1//39 50//39 8//39
f 19//40 28//40 49//40
f 28//41 46//41 49//41
f 27//42 47//42 50//42
f 50//43 18//43 66//43
f 17//44 51//44 45//44
f 51//45 5//45 31//45
f 9//46 51//46 43//46
f 7//47 52//47 44//47
f 52//48 3//48 30//48
f 52//49 9//49 43//49
f 2//50 53//50 22//50
f 20//51 44//51 53//51
f 42//52 44//52 17//52
f 10//53 55//53 40//53
f 60//54 23//54 54//54
f 55//55 5//55 60//55
f 21//56 40//56 39//56
f 12//57 57//57 37//57
f 40//58 16//58 39//58
f 57//59 23//59 34//59
f 26//60 24//60 58//60
f 34//61 56//61 57//61
f 24//62 37//62 58//62
f 36//63 37//63 15//63
f 13//64 59//64 35//64
f 8//65 2//65 59//65
f 2//66 22//66 59//66
f 28//67 34//67 61//67
f 1//68 8//68 59//68
f 60//69 30//69 14//69
f 60//70 5//70 9//70
f 25//71 35//71 32//71
f 32//72 21//72 25//72
f 14//73 30//73 62//73
f 13//74 63//74 1//74
f 11//75 32//75 35//75
f 63//76 15//76 38//76
f 63//77 6//77 27//77
f 64//78 16//78 41//78
f 64//79 12//79 24//79
f 32//80 42//80 65//80
f 42//81 45//81 65//81
f 21//82 45//82 10//82
f 66//83 2//83 8//83
f 7//84 20//84 66//84
f 26//85 58//85 36//85
f 57//86 56//86 15//86
f 6//87 38//87 56//87
f 55//88 54//88 16//88
f 41//89 54//89 33//89
f 22//90 53//90 42//90
f 44//91 52//91 43//91
f 45//92 51//92 31//92
f 18//93 47//93 49//93
f 7//94 18//94 46//94
f 48//95 46//95 28//95
f 48//96 62//96 3//96
f 6//97 19//97 49//97
f 1//98 27//98 50//98
f 27//99 6//99 47//99
f 50//100 47//100 18//100
f 17//101 43//101 51//101
f 51//102 9//102 5//102
f 7//103 29//103 52//103
f 52//104 29//104 3//104
f 52//105 30//105 9//105
f 2//106 20//106 53//106
f 20//107 7//107 44//107
f 42//108 53//108 44//108
f 10//109 31//109 55//109
f 55//110 31//110 5//110
f 21//111 10//111 40//111
f 12//112 33//112 57//112
f 57//113 33//113 23//113
f 26//114 4//114 24//114
f 24//115 12//115 37//115
f 36//116 58//116 37//116
f 13//117 1//117 59//117
f 28//118 19//118 34//118
f 25//119 4//119 35//119
f 32//120 65//120 21//120
f 13//121 36//121 63//121
f 63//122 36//122 15//122
f 63//123 38//123 6//123
f 64//124 39//124 16//124
f 64//125 41//125 12//125
f 32//126 11//126 42//126
f 42//127 17//127 45//127
f 21//128 65//128 45//128
