# Blender 4.1.1
# www.blender.org
mtllib Cube.044_Cube.048.mtl
o Cube.044_Cube.048
v 0.532478 2.778052 -0.882927
v 0.551662 2.840206 -0.882354
v 0.552657 2.842588 -1.373499
v 0.452962 2.798848 -0.879732
v 0.473633 2.866387 -1.376454
v 0.532426 2.778216 -1.129056
v 0.558969 2.837344 -1.147490
v 0.542177 2.806759 -0.874537
v 0.493920 2.861039 -1.383341
v 0.471989 2.869224 -1.129056
v 0.511177 2.850416 -0.872545
v 0.450764 2.805414 -1.129056
v 0.492370 2.785505 -0.880170
v 0.505504 2.824233 -1.399854
v 0.490789 2.784071 -1.129056
v 0.459249 2.838512 -1.129056
v 0.520042 2.868091 -1.129056
v 0.549009 2.812379 -1.129056
v 0.535487 2.784380 -1.386422
v 0.550645 2.843772 -1.008235
v 0.473823 2.873229 -1.008235
v 0.536714 2.861199 -0.879745
v 0.455481 2.807536 -1.382888
v 0.457305 2.804423 -1.008235
v 0.472255 2.862629 -0.873270
v 0.473250 2.793566 -0.881612
v 0.538343 2.778913 -1.008235
v 0.543030 2.810237 -1.383772
v 0.563036 2.839547 -1.250336
v 0.529884 2.849480 -1.395346
v 0.472831 2.870317 -1.249876
v 0.493654 2.861249 -0.880690
v 0.453335 2.808390 -1.249876
v 0.514069 2.789572 -1.385092
v 0.480998 2.818002 -0.879731
v 0.490969 2.794562 -1.008235
v 0.476420 2.796860 -1.129056
v 0.512272 2.786002 -1.129056
v 0.469464 2.845637 -0.999274
v 0.470271 2.851696 -1.129056
v 0.459166 2.825541 -1.129056
v 0.515108 2.863379 -1.008235
v 0.518286 2.857376 -1.250058
v 0.533828 2.850036 -1.129056
v 0.494274 2.858497 -1.129056
v 0.551187 2.811490 -1.250189
v 0.537111 2.793541 -1.129056
v 0.553540 2.824602 -1.251194
v 0.541239 2.798605 -1.249915
v 0.548189 2.793118 -1.008235
v 0.501007 2.874810 -1.250171
v 0.547905 2.848584 -1.251172
v 0.536815 2.851409 -1.008235
v 0.465363 2.836233 -1.274738
v 0.474368 2.857008 -1.249876
v 0.502852 2.793494 -1.265675
v 0.475483 2.804224 -1.249941
v 0.473570 2.805142 -1.008235
v 0.522631 2.816250 -0.882598
v 0.469955 2.854544 -1.377730
v 0.503326 2.806871 -1.380688
v 0.547132 2.828757 -1.398257
v 0.509900 2.790505 -1.008235
v 0.460406 2.824063 -1.008235
v 0.500927 2.873531 -1.008235
v 0.549093 2.817603 -0.995121
vn 0.9979 -0.0641 -0.0099
vn -0.9874 0.1559 -0.0266
vn 0.0108 -0.7417 -0.6707
vn -0.2659 0.1600 -0.9506
vn 0.0552 -0.2648 0.9627
vn 0.9966 -0.0643 0.0514
vn -0.9991 0.0064 -0.0420
vn -0.9234 0.3834 -0.0174
vn -0.9277 0.3724 0.0248
vn -0.9877 0.1563 0.0008
vn 0.0893 -0.9942 -0.0607
vn -0.2350 -0.9719 0.0098
vn 0.0666 -0.0976 0.9930
vn -0.0946 -0.0465 0.9944
vn 0.0480 0.2743 -0.9604
vn 0.0470 0.0946 -0.9944
vn 0.0977 -0.6265 -0.7733
vn -0.9249 0.3796 0.0209
vn 0.9321 -0.3619 0.0135
vn -0.3838 -0.9214 -0.0610
vn -0.3773 -0.9258 -0.0240
vn 0.6407 0.6005 -0.4784
vn -0.7195 -0.4721 -0.5094
vn 0.3308 -0.1626 0.9296
vn -0.6643 -0.7464 -0.0403
vn -0.3590 -0.9329 -0.0266
vn -0.7672 0.6414 0.0022
vn -0.9565 0.2912 -0.0181
vn -0.9228 0.3852 -0.0101
vn -0.3691 0.9261 0.0778
vn 0.7931 0.6056 -0.0651
vn 0.4337 0.9010 0.0112
vn 0.7916 -0.6108 0.0187
vn 0.9835 -0.1788 -0.0295
vn 0.8433 -0.5371 0.0218
vn 0.9663 -0.2525 -0.0492
vn 0.8432 -0.5309 -0.0842
vn 0.9561 -0.2923 0.0204
vn 0.9376 -0.3392 0.0768
vn 0.9602 -0.2790 -0.0114
vn 0.7904 -0.6111 -0.0425
vn 0.8194 -0.5680 -0.0771
vn 0.9993 -0.0373 0.0008
vn -0.3470 0.9318 0.1062
vn -0.1577 0.9870 -0.0316
vn 0.7063 0.6993 -0.1099
vn 0.4760 0.8783 0.0444
vn 0.3193 0.9471 -0.0340
vn 0.2836 0.9586 -0.0255
vn 0.8112 0.5831 -0.0438
vn 0.4833 0.8752 -0.0219
vn 0.7935 0.6059 0.0560
vn -0.9948 0.0975 -0.0294
vn -0.9560 0.2933 0.0095
vn -0.9555 0.2938 0.0273
vn -0.9877 0.1564 0.0012
vn -0.3158 -0.9472 -0.0553
vn -0.7670 0.6412 0.0252
vn -0.2924 -0.9561 0.0202
vn 0.0440 -0.9949 -0.0908
vn -0.3669 -0.9302 -0.0039
vn 0.0440 -0.9966 0.0694
vn -0.6634 -0.7454 0.0657
vn 0.0691 0.0107 0.9975
vn -0.2435 0.2857 0.9269
vn 0.0590 -0.0816 0.9949
vn -0.0921 0.1915 -0.9772
vn -0.4269 -0.1178 0.8966
vn -0.2307 0.3825 -0.8947
vn -0.2715 0.1861 -0.9443
vn 0.3225 -0.0734 0.9437
vn 0.0914 0.9927 0.0790
vn 0.0209 0.1561 -0.9875
vn -0.1866 -0.9804 -0.0638
vn -0.3541 0.1242 0.9269
vn 0.0895 -0.9952 0.0388
vn -0.3773 -0.9258 0.0238
vn -0.9999 0.0064 0.0103
vn -0.9863 0.1557 0.0547
vn 0.5785 0.8081 0.1108
vn 0.5770 0.8060 -0.1321
vn 0.4335 0.9004 -0.0364
vn 0.9635 -0.2659 0.0313
vn 0.9977 -0.0286 0.0610
vn -0.5179 -0.8517 -0.0792
vn -0.4119 -0.9058 -0.0989
vn -0.3602 -0.9325 -0.0263
vn -0.8961 0.4417 -0.0445
vn -0.9214 0.3885 -0.0107
vn 0.4818 0.8738 -0.0662
vn 0.2852 0.9582 0.0215
vn -0.1550 0.9802 0.1234
vn 0.8455 -0.5340 0.0065
vn 0.9335 -0.3581 0.0194
vn 0.9818 -0.1807 -0.0583
vn 0.9550 -0.2922 -0.0499
vn 0.9215 -0.3885 0.0017
vn 0.8214 -0.5693 0.0345
vn 0.9553 -0.2921 -0.0451
vn 0.8428 -0.5323 -0.0791
vn 0.7086 0.7019 -0.0724
vn 0.2176 0.9696 -0.1118
vn 0.5108 0.8588 0.0386
vn 0.5135 0.8578 -0.0221
vn 0.2964 0.9546 -0.0311
vn 0.4833 0.8752 0.0209
vn 0.4418 0.8970 -0.0150
vn 0.4828 0.8755 -0.0219
vn -0.9934 -0.1147 -0.0080
vn -0.9934 -0.1147 -0.0027
vn -0.9952 0.0975 0.0119
vn -0.1848 -0.9824 -0.0281
vn -0.1848 -0.9828 0.0033
vn -0.2560 -0.9654 -0.0505
vn -0.3163 -0.9486 0.0093
vn -0.5190 -0.8535 0.0463
vn 0.0703 0.0095 0.9975
vn -0.0346 0.1119 -0.9931
vn 0.0862 -0.1262 0.9883
vn -0.0111 0.9954 0.0952
vn -0.2091 -0.9756 -0.0667
vn -0.2088 -0.9743 0.0849
vn -0.3602 -0.9325 0.0277
vn -0.9284 0.3678 0.0529
vn -0.9227 0.3852 0.0142
vn 0.4904 0.8661 0.0969
vn -0.3488 0.9369 0.0223
vn -0.0111 0.9924 -0.1229
s 0
usemtl Fence
f 20//1 2//1 66//1
f 24//2 4//2 64//2
f 14//3 28//3 61//3
f 60//4 9//4 30//4
f 59//5 11//5 35//5
f 66//6 8//6 50//6
f 54//7 41//7 16//7
f 23//8 33//8 54//8
f 60//9 54//9 55//9
f 39//10 25//10 21//10
f 56//11 38//11 15//11
f 34//12 19//12 56//12
f 35//13 4//13 26//13
f 13//14 35//14 26//14
f 23//15 61//15 34//15
f 60//16 61//16 23//16
f 14//17 62//17 28//17
f 64//18 4//18 39//18
f 7//19 66//19 18//19
f 26//20 36//20 13//20
f 63//21 27//21 1//21
f 30//22 3//22 62//22
f 60//23 14//23 61//23
f 59//24 22//24 11//24
f 57//25 15//25 37//25
f 6//26 56//26 19//26
f 55//27 16//27 40//27
f 39//28 4//28 25//28
f 41//29 33//29 12//29
f 22//30 42//30 11//30
f 44//31 43//31 17//31
f 45//32 31//32 10//32
f 18//33 49//33 46//33
f 7//34 46//34 48//34
f 48//35 29//35 7//35
f 48//36 28//36 62//36
f 48//37 3//37 29//37
f 6//38 49//38 47//38
f 1//39 50//39 8//39
f 19//40 28//40 49//40
f 28//41 46//41 49//41
f 27//42 47//42 50//42
f 50//43 18//43 66//43
f 17//44 51//44 45//44
f 51//45 5//45 31//45
f 9//46 51//46 43//46
f 7//47 52//47 44//47
f 52//48 3//48 30//48
f 52//49 9//49 43//49
f 2//50 53//50 22//50
f 20//51 44//51 53//51
f 42//52 44//52 17//52
f 10//53 55//53 40//53
f 60//54 23//54 54//54
f 55//55 5//55 60//55
f 21//56 40//56 39//56
f 12//57 57//57 37//57
f 40//58 16//58 39//58
f 57//59 23//59 34//59
f 26//60 24//60 58//60
f 34//61 56//61 57//61
f 24//62 37//62 58//62
f 36//63 37//63 15//63
f 13//64 59//64 35//64
f 8//65 2//65 59//65
f 2//66 22//66 59//66
f 28//67 34//67 61//67
f 1//68 8//68 59//68
f 60//69 30//69 14//69
f 60//70 5//70 9//70
f 25//71 35//71 32//71
f 32//72 21//72 25//72
f 14//73 30//73 62//73
f 13//74 63//74 1//74
f 11//75 32//75 35//75
f 63//76 15//76 38//76
f 63//77 6//77 27//77
f 64//78 16//78 41//78
f 64//79 12//79 24//79
f 32//80 42//80 65//80
f 42//81 45//81 65//81
f 21//82 45//82 10//82
f 66//83 2//83 8//83
f 7//84 20//84 66//84
f 26//85 58//85 36//85
f 57//86 56//86 15//86
f 6//87 38//87 56//87
f 55//88 54//88 16//88
f 41//89 54//89 33//89
f 22//90 53//90 42//90
f 44//91 52//91 43//91
f 45//92 51//92 31//92
f 18//93 47//93 49//93
f 7//94 18//94 46//94
f 48//95 46//95 28//95
f 48//96 62//96 3//96
f 6//97 19//97 49//97
f 1//98 27//98 50//98
f 27//99 6//99 47//99
f 50//100 47//100 18//100
f 17//101 43//101 51//101
f 51//102 9//102 5//102
f 7//103 29//103 52//103
f 52//104 29//104 3//104
f 52//105 30//105 9//105
f 2//106 20//106 53//106
f 20//107 7//107 44//107
f 42//108 53//108 44//108
f 10//109 31//109 55//109
f 55//110 31//110 5//110
f 21//111 10//111 40//111
f 12//112 33//112 57//112
f 57//113 33//113 23//113
f 26//114 4//114 24//114
f 24//115 12//115 37//115
f 36//116 58//116 37//116
f 13//117 1//117 59//117
f 28//118 19//118 34//118
f 25//119 4//119 35//119
f 32//120 65//120 21//120
f 13//121 36//121 63//121
f 63//122 36//122 15//122
f 63//123 38//123 6//123
f 64//124 39//124 16//124
f 64//125 41//125 12//125
f 32//126 11//126 42//126
f 42//127 17//127 45//127
f 21//128 65//128 45//128
