# Blender 4.1.1
# www.blender.org
mtllib Cube.068_Cube.072.mtl
o Cube.068_Cube.072
v -16.000942 7.418181 -7.442989
v -16.167419 7.396972 -7.385080
v -16.130154 8.622702 -6.843735
v -16.069725 7.498084 -7.641180
v -16.206495 8.717491 -7.033438
v -15.979542 8.033018 -7.173258
v -16.134995 8.051126 -7.076679
v -16.078432 7.387166 -7.423061
v -16.188293 8.712269 -6.976221
v -16.236435 8.101410 -7.308271
v -16.202137 7.417209 -7.495022
v -16.065800 8.123400 -7.372185
v -16.027468 7.455557 -7.544737
v -16.084850 8.739999 -6.935574
v -16.001698 8.078930 -7.276064
v -16.154682 8.114770 -7.345329
v -16.226183 8.048542 -7.188652
v -16.070120 8.015505 -7.126020
v -15.973022 8.672630 -6.882401
v -16.166111 7.712586 -7.248993
v -16.257795 7.797695 -7.435471
v -16.227058 7.407338 -7.421597
v -16.048338 8.752277 -7.081781
v -16.072853 7.814400 -7.488508
v -16.241146 7.462083 -7.589170
v -16.052149 7.480358 -7.589441
v -15.991285 7.724740 -7.290840
v -16.042561 8.658264 -6.862047
v -16.131258 8.303591 -6.953405
v -16.150381 8.702461 -6.875378
v -16.228559 8.402292 -7.173527
v -16.233536 7.457053 -7.527916
v -16.062796 8.422419 -7.232807
v -15.990479 8.692968 -6.936371
v -16.117716 7.467659 -7.567976
v -16.040972 7.777171 -7.406267
v -16.038673 8.095002 -7.309690
v -16.003754 8.055346 -7.222168
v -16.184092 7.779523 -7.460917
v -16.188951 8.102930 -7.315578
v -16.119368 8.114587 -7.347773
v -16.224810 7.752084 -7.334227
v -16.186514 8.352485 -7.062218
v -16.174948 8.032999 -7.157389
v -16.203894 8.076675 -7.254555
v -16.056618 8.315657 -6.987942
v -16.020584 8.028191 -7.158934
v -16.091892 8.315859 -6.978716
v -16.023033 8.325640 -7.015268
v -16.028507 7.714213 -7.263842
v -16.236568 8.372138 -7.102177
v -16.158054 8.322510 -6.988659
v -16.188972 7.727960 -7.282166
v -16.134628 8.471883 -7.170763
v -16.192080 8.400320 -7.171988
v -16.013437 8.407110 -7.094584
v -16.048138 8.398136 -7.178230
v -16.072386 7.796527 -7.447830
v -16.106480 7.428996 -7.461325
v -16.174671 8.724474 -7.043249
v -16.039585 8.694150 -6.965010
v -16.091106 8.690327 -6.832754
v -16.027100 7.756265 -7.359764
v -16.125885 7.811407 -7.477394
v -16.254580 7.767895 -7.367838
v -16.096228 7.680984 -7.271751
vn 0.1189 -0.3935 0.9116
vn -0.2087 0.4234 -0.8816
vn 0.7626 0.6037 0.2324
vn -0.1433 0.9784 0.1490
vn 0.2359 -0.9054 -0.3531
vn 0.1169 -0.4491 0.8858
vn -0.0597 0.4411 -0.8955
vn -0.4325 0.3909 -0.8125
vn -0.4231 0.3540 -0.8341
vn -0.2100 0.3985 -0.8928
vn 0.9990 0.0118 0.0432
vn 0.9568 0.0781 -0.2800
vn 0.0687 -0.9364 -0.3441
vn 0.0089 -0.8723 -0.4888
vn -0.2400 0.8618 0.4469
vn -0.0595 0.8918 0.4484
vn 0.6557 0.6635 0.3604
vn -0.4301 0.3565 -0.8294
vn 0.4116 -0.3908 0.8233
vn 0.9005 0.2033 -0.3844
vn 0.9041 0.1668 -0.3935
vn -0.5487 0.1844 0.8155
vn 0.4484 0.7524 -0.4825
vn 0.1501 -0.9853 -0.0815
vn 0.7099 0.2988 -0.6378
vn 0.9123 0.1618 -0.3762
vn -0.6820 0.3122 -0.6613
vn -0.3422 0.4042 -0.8482
vn -0.4344 0.3841 -0.8147
vn -0.9470 0.0847 -0.3100
vn -0.5589 -0.2553 0.7890
vn -0.8758 -0.1780 0.4486
vn 0.6522 -0.3408 0.6771
vn 0.2330 -0.3706 0.8991
vn 0.5813 -0.3639 0.7277
vn 0.3064 -0.3463 0.8867
vn 0.5787 -0.2669 0.7707
vn 0.3433 -0.4062 0.8468
vn 0.3872 -0.4507 0.8043
vn 0.3312 -0.3787 0.8642
vn 0.6545 -0.2843 0.7006
vn 0.6141 -0.2640 0.7437
vn 0.0918 -0.4037 0.9103
vn -0.9524 0.0498 -0.3009
vn -0.9926 0.1002 -0.0691
vn -0.6558 -0.1786 0.7335
vn -0.8520 -0.2256 0.4724
vn -0.9266 -0.0901 0.3651
vn -0.9403 -0.0835 0.3298
vn -0.5362 -0.2823 0.7955
vn -0.8463 -0.1678 0.5056
vn -0.5631 -0.3663 0.7407
vn -0.1508 0.4286 -0.8908
vn -0.3453 0.3788 -0.8587
vn -0.3463 0.3623 -0.8653
vn -0.2101 0.3981 -0.8929
vn 0.9298 0.1705 -0.3261
vn -0.6826 0.2910 -0.6704
vn 0.9375 0.0919 -0.3355
vn 0.9982 0.0577 0.0139
vn 0.9084 0.1442 -0.3923
vn 0.9948 -0.0890 -0.0505
vn 0.7055 0.2014 -0.6795
vn -0.0394 -0.9407 -0.3369
vn -0.3286 -0.7479 -0.5768
vn 0.0523 -0.9350 -0.3509
vn -0.1644 0.9329 0.3204
vn 0.0651 -0.6494 -0.7577
vn -0.3652 0.9147 0.1728
vn -0.1698 0.9750 0.1430
vn 0.0602 -0.9942 -0.0891
vn -0.9882 -0.1014 0.1144
vn -0.1225 0.8966 0.4257
vn 0.9703 0.1259 -0.2067
vn -0.1735 -0.7047 -0.6880
vn 0.9968 -0.0793 0.0033
vn 0.9025 0.1230 -0.4127
vn -0.0614 0.3935 -0.9173
vn -0.2111 0.3486 -0.9132
vn -0.7785 -0.3283 0.5350
vn -0.7685 -0.1054 0.6311
vn -0.8737 -0.1343 0.4675
vn 0.3170 -0.4190 0.8509
vn 0.0812 -0.4580 0.8852
vn 0.8243 0.2745 -0.4952
vn 0.8847 0.2494 -0.3937
vn 0.9118 0.1620 -0.3774
vn -0.4883 0.4052 -0.7729
vn -0.4377 0.3841 -0.8130
vn -0.8435 -0.1268 0.5219
vn -0.9414 -0.1271 0.3124
vn -0.9907 -0.0429 -0.1293
vn 0.5789 -0.3508 0.7361
vn 0.4077 -0.3967 0.8224
vn 0.2358 -0.3437 0.9090
vn 0.3455 -0.3414 0.8741
vn 0.4380 -0.3758 0.8167
vn 0.6120 -0.3670 0.7006
vn 0.3452 -0.3459 0.8725
vn 0.5799 -0.2713 0.7682
vn -0.6593 -0.2138 0.7208
vn -0.9521 0.0222 0.3049
vn -0.8304 -0.2345 0.5054
vn -0.8273 -0.1800 0.5321
vn -0.9354 -0.0835 0.3436
vn -0.8478 -0.2070 0.4883
vn -0.8706 -0.1573 0.4662
vn -0.8466 -0.1677 0.5051
vn 0.0604 0.4066 -0.9116
vn 0.0603 0.4019 -0.9137
vn -0.1522 0.3909 -0.9078
vn 0.9712 0.0926 -0.2196
vn 0.9705 0.0638 -0.2323
vn 0.9511 0.1419 -0.2745
vn 0.9291 0.1115 -0.3526
vn 0.8219 0.1602 -0.5467
vn -0.0381 -0.9412 -0.3358
vn -0.0812 0.9237 0.3744
vn 0.0985 -0.9402 -0.3262
vn -0.9971 -0.0749 0.0145
vn 0.9644 0.1377 -0.2258
vn 0.9581 -0.0012 -0.2864
vn 0.9100 0.1126 -0.3991
vn -0.4195 0.3285 -0.8462
vn -0.4352 0.3618 -0.8244
vn -0.8407 -0.2796 0.4637
vn -0.9548 0.1274 -0.2685
vn -0.9870 0.1246 0.1019
s 0
usemtl Fence
f 20//1 2//1 66//1
f 24//2 4//2 64//2
f 14//3 28//3 61//3
f 60//4 9//4 30//4
f 59//5 11//5 35//5
f 66//6 8//6 50//6
f 54//7 41//7 16//7
f 23//8 33//8 54//8
f 60//9 54//9 55//9
f 39//10 25//10 21//10
f 56//11 38//11 15//11
f 34//12 19//12 56//12
f 35//13 4//13 26//13
f 13//14 35//14 26//14
f 23//15 61//15 34//15
f 60//16 61//16 23//16
f 14//17 62//17 28//17
f 64//18 4//18 39//18
f 7//19 66//19 18//19
f 26//20 36//20 13//20
f 63//21 27//21 1//21
f 30//22 3//22 62//22
f 60//23 14//23 61//23
f 59//24 22//24 11//24
f 57//25 15//25 37//25
f 6//26 56//26 19//26
f 55//27 16//27 40//27
f 39//28 4//28 25//28
f 41//29 33//29 12//29
f 22//30 42//30 11//30
f 44//31 43//31 17//31
f 45//32 31//32 10//32
f 18//33 49//33 46//33
f 7//34 46//34 48//34
f 48//35 29//35 7//35
f 48//36 28//36 62//36
f 48//37 3//37 29//37
f 6//38 49//38 47//38
f 1//39 50//39 8//39
f 19//40 28//40 49//40
f 28//41 46//41 49//41
f 27//42 47//42 50//42
f 50//43 18//43 66//43
f 17//44 51//44 45//44
f 51//45 5//45 31//45
f 9//46 51//46 43//46
f 7//47 52//47 44//47
f 52//48 3//48 30//48
f 52//49 9//49 43//49
f 2//50 53//50 22//50
f 20//51 44//51 53//51
f 42//52 44//52 17//52
f 10//53 55//53 40//53
f 60//54 23//54 54//54
f 55//55 5//55 60//55
f 21//56 40//56 39//56
f 12//57 57//57 37//57
f 40//58 16//58 39//58
f 57//59 23//59 34//59
f 26//60 24//60 58//60
f 34//61 56//61 57//61
f 24//62 37//62 58//62
f 36//63 37//63 15//63
f 13//64 59//64 35//64
f 8//65 2//65 59//65
f 2//66 22//66 59//66
f 28//67 34//67 61//67
f 1//68 8//68 59//68
f 60//69 30//69 14//69
f 60//70 5//70 9//70
f 25//71 35//71 32//71
f 32//72 21//72 25//72
f 14//73 30//73 62//73
f 13//74 63//74 1//74
f 11//75 32//75 35//75
f 63//76 15//76 38//76
f 63//77 6//77 27//77
f 64//78 16//78 41//78
f 64//79 12//79 24//79
f 32//80 42//80 65//80
f 42//81 45//81 65//81
f 21//82 45//82 10//82
f 66//83 2//83 8//83
f 7//84 20//84 66//84
f 26//85 58//85 36//85
f 57//86 56//86 15//86
f 6//87 38//87 56//87
f 55//88 54//88 16//88
f 41//89 54//89 33//89
f 22//90 53//90 42//90
f 44//91 52//91 43//91
f 45//92 51//92 31//92
f 18//93 47//93 49//93
f 7//94 18//94 46//94
f 48//95 46//95 28//95
f 48//96 62//96 3//96
f 6//97 19//97 49//97
f 1//98 27//98 50//98
f 27//99 6//99 47//99
f 50//100 47//100 18//100
f 17//101 43//101 51//101
f 51//102 9//102 5//102
f 7//103 29//103 52//103
f 52//104 29//104 3//104
f 52//105 30//105 9//105
f 2//106 20//106 53//106
f 20//107 7//107 44//107
f 42//108 53//108 44//108
f 10//109 31//109 55//109
f 55//110 31//110 5//110
f 21//111 10//111 40//111
f 12//112 33//112 57//112
f 57//113 33//113 23//113
f 26//114 4//114 24//114
f 24//115 12//115 37//115
f 36//116 58//116 37//116
f 13//117 1//117 59//117
f 28//118 19//118 34//118
f 25//119 4//119 35//119
f 32//120 65//120 21//120
f 13//121 36//121 63//121
f 63//122 36//122 15//122
f 63//123 38//123 6//123
f 64//124 39//124 16//124
f 64//125 41//125 12//125
f 32//126 11//126 42//126
f 42//127 17//127 45//127
f 21//128 65//128 45//128
