# Blender 4.1.1
# www.blender.org
mtllib Plane.037.mtl
o Plane.037
v -18.813173 10.032931 -9.726305
v -18.965927 9.518871 -9.801178
v -18.803741 10.050556 -9.866556
v -18.956491 9.536495 -9.941433
v -18.787460 10.112402 -9.786142
v -18.929914 9.759606 -9.768505
v -18.961210 9.527683 -9.871304
v -18.920479 9.777231 -9.908758
v -18.926401 9.837010 -9.830091
v -18.670015 9.905413 -10.093868
v -18.762312 9.376637 -10.165110
v -18.533640 9.877992 -10.067034
v -18.625931 9.349218 -10.138275
v -18.589144 9.964380 -10.070660
v -18.713684 9.617369 -10.166254
v -18.694122 9.362926 -10.151691
v -18.577307 9.589951 -10.139418
v -18.629896 9.670027 -10.164301
v -18.252851 9.886232 -9.738600
v -18.302303 9.347395 -9.758776
v -18.304337 9.886014 -9.606617
v -18.353790 9.347179 -9.626787
v -18.271795 9.960184 -9.669838
v -18.248507 9.586073 -9.737400
v -18.328049 9.347286 -9.692781
v -18.299994 9.585857 -9.605413
v -18.249037 9.649561 -9.661467
v -19.097055 10.100088 -9.228388
v -19.233084 9.582209 -9.308960
v -19.211077 10.117233 -9.146072
v -19.347109 9.599352 -9.226646
v -19.135368 10.179842 -9.176155
v -19.153666 9.805780 -9.245508
v -19.290094 9.590782 -9.267803
v -19.267689 9.822926 -9.163195
v -19.182974 9.871937 -9.177973
v -18.364983 9.916801 -9.703676
v -18.464369 9.386429 -9.748640
v -18.455950 9.942787 -9.809132
v -18.555334 9.412415 -9.854095
v -18.396805 10.002694 -9.750225
v -18.445080 9.627502 -9.705873
v -18.509851 9.399420 -9.801367
v -18.536047 9.653488 -9.811329
v -18.493866 9.706825 -9.739407
v -18.715939 9.989294 -9.194532
v -18.860226 9.467966 -9.218893
v -18.662031 9.980484 -9.325251
v -18.806316 9.459156 -9.349613
v -18.669151 10.056545 -9.256542
v -18.825581 9.711098 -9.220995
v -18.833271 9.463561 -9.284252
v -18.771669 9.702288 -9.351715
v -18.799379 9.775641 -9.291313
v -19.025511 10.139803 -10.119884
v -19.169800 9.618475 -10.144243
v -19.117577 10.160345 -10.014181
v -19.261866 9.639017 -10.038544
v -19.051712 10.221729 -10.063684
v -19.080740 9.844878 -10.110672
v -19.215832 9.628744 -10.091393
v -19.172806 9.865421 -10.004972
v -19.094461 9.913933 -10.041103
vn 0.9756 -0.1330 0.1745
vn 0.8656 -0.4660 0.1831
vn 0.8898 -0.4208 -0.1765
vn 0.9922 -0.1021 -0.0717
vn -0.2959 0.1009 0.9499
vn -0.4080 -0.2250 0.8848
vn -0.0584 -0.2953 0.9536
vn -0.0564 0.0527 0.9970
vn -0.8448 0.2688 -0.4626
vn -0.8473 -0.0762 -0.5256
vn -0.9793 -0.0768 -0.1872
vn -0.9352 0.2684 -0.2309
vn -0.3817 0.4101 -0.8283
vn -0.4178 0.0699 -0.9059
vn -0.7101 0.1139 -0.6948
vn -0.5820 0.4402 -0.6838
vn 0.8389 0.0653 -0.5404
vn 0.8054 -0.2833 -0.5206
vn 0.5722 -0.2166 -0.7910
vn 0.6791 0.1109 -0.7256
vn 0.8640 -0.0826 0.4967
vn 0.7421 -0.4097 0.5304
vn 0.8803 -0.4323 0.1954
vn 0.9586 -0.0981 0.2672
vn -0.5685 0.3714 -0.7341
vn -0.6171 0.0280 -0.7863
vn -0.8532 0.0807 -0.5154
vn -0.7302 0.4075 -0.5485
vn 0.9869 -0.1540 0.0471
vn 0.8298 -0.4125 0.3759
vn 0.8788 -0.3208 -0.3531
vn 0.9869 -0.1540 0.0470
vn -0.1847 0.0420 0.9819
vn -0.5668 -0.1189 0.8152
vn 0.1421 -0.2615 0.9547
vn -0.1848 0.0420 0.9819
vn -0.9055 0.2357 -0.3528
vn -0.7323 -0.0133 -0.6809
vn -0.9999 -0.0145 0.0051
vn -0.4976 0.3958 -0.7718
vn -0.2268 0.1000 -0.9688
vn -0.8195 0.1891 -0.5409
vn 0.7626 0.0534 -0.6447
vn 0.9046 -0.2478 -0.3468
vn 0.4318 -0.1128 -0.8949
vn 0.7626 0.0533 -0.6447
vn 0.9140 -0.1269 0.3855
vn 0.6498 -0.3216 0.6887
vn 0.9300 -0.3674 0.0093
vn 0.9139 -0.1269 0.3855
vn -0.6680 0.3594 -0.6516
vn -0.4464 0.0557 -0.8931
vn -0.9249 0.1625 -0.3437
s 0
usemtl Material.001
f 7//1 8//1 9//1
f 9//2 3//2 5//2
f 1//3 9//3 5//3
f 6//4 7//4 9//4
f 16//5 17//5 18//5
f 18//6 12//6 14//6
f 10//7 18//7 14//7
f 15//8 16//8 18//8
f 25//9 26//9 27//9
f 27//10 21//10 23//10
f 19//11 27//11 23//11
f 24//12 25//12 27//12
f 34//13 35//13 36//13
f 36//14 30//14 32//14
f 28//15 36//15 32//15
f 33//16 34//16 36//16
f 43//17 44//17 45//17
f 45//18 39//18 41//18
f 37//19 45//19 41//19
f 42//20 43//20 45//20
f 52//21 53//21 54//21
f 54//22 48//22 50//22
f 46//23 54//23 50//23
f 51//24 52//24 54//24
f 61//25 62//25 63//25
f 63//26 57//26 59//26
f 55//27 63//27 59//27
f 60//28 61//28 63//28
f 7//29 4//29 8//29
f 9//30 8//30 3//30
f 1//31 6//31 9//31
f 6//32 2//32 7//32
f 16//33 13//33 17//33
f 18//34 17//34 12//34
f 10//35 15//35 18//35
f 15//36 11//36 16//36
f 25//37 22//37 26//37
f 27//38 26//38 21//38
f 19//39 24//39 27//39
f 24//37 20//37 25//37
f 34//40 31//40 35//40
f 36//41 35//41 30//41
f 28//42 33//42 36//42
f 33//40 29//40 34//40
f 43//43 40//43 44//43
f 45//44 44//44 39//44
f 37//45 42//45 45//45
f 42//46 38//46 43//46
f 52//47 49//47 53//47
f 54//48 53//48 48//48
f 46//49 51//49 54//49
f 51//50 47//50 52//50
f 61//51 58//51 62//51
f 63//52 62//52 57//52
f 55//53 60//53 63//53
f 60//51 56//51 61//51
