# Blender 4.1.1
# www.blender.org
mtllib Cube.037_Cube.041.mtl
o Cube.037_Cube.041
v 1.339723 3.001191 -0.819514
v 1.377328 3.054266 -0.818941
v 1.379017 3.056219 -1.310086
v 1.270653 3.045742 -0.816319
v 1.311351 3.103470 -1.313041
v 1.339724 3.001364 -1.065643
v 1.383379 3.049269 -1.084077
v 1.357888 3.025444 -0.811124
v 1.328960 3.092063 -1.319928
v 1.310674 3.106678 -1.065643
v 1.342044 3.076589 -0.809133
v 1.270612 3.052666 -1.065643
v 1.303938 3.020777 -0.816757
v 1.328490 3.053480 -1.336441
v 1.301988 3.019908 -1.065643
v 1.288993 3.081468 -1.065643
v 1.355978 3.090620 -1.065643
v 1.366132 3.028654 -1.065643
v 1.344555 3.006265 -1.323010
v 1.377474 3.057972 -0.944822
v 1.313665 3.109911 -0.944822
v 1.369670 3.078873 -0.816332
v 1.275756 3.053212 -1.319476
v 1.276518 3.049685 -0.944822
v 1.308870 3.100329 -0.809857
v 1.288283 3.034398 -0.818199
v 1.345564 3.000181 -0.944822
v 1.359783 3.028482 -1.320359
v 1.387929 3.050094 -1.186923
v 1.359527 3.069868 -1.331933
v 1.311814 3.107454 -1.186464
v 1.328772 3.092346 -0.817277
v 1.273983 3.054692 -1.186464
v 1.325823 3.017877 -1.321679
v 1.303263 3.055201 -0.816318
v 1.305430 3.029820 -0.944822
v 1.292322 3.036539 -1.065643
v 1.323002 3.015045 -1.065643
v 1.300920 3.085054 -0.935862
v 1.303576 3.090559 -1.065643
v 1.284870 3.069170 -1.065643
v 1.349821 3.087681 -0.944822
v 1.350969 3.080986 -1.186646
v 1.363448 3.069166 -1.065643
v 1.328504 3.089538 -1.065643
v 1.367924 3.027130 -1.186776
v 1.348954 3.014464 -1.065643
v 1.374247 3.038854 -1.187782
v 1.354455 3.017989 -1.186502
v 1.359348 3.010608 -0.944822
v 1.339987 3.102938 -1.186758
v 1.376371 3.063398 -1.187760
v 1.366714 3.069540 -0.944822
v 1.294092 3.077397 -1.211326
v 1.309125 3.094329 -1.186464
v 1.316387 3.025101 -1.202262
v 1.293728 3.043829 -1.186528
v 1.292197 3.045297 -0.944822
v 1.342275 3.040556 -0.819185
v 1.304164 3.093364 -1.314318
v 1.321008 3.037662 -1.317275
v 1.369454 3.044800 -1.334844
v 1.322152 3.020062 -0.944822
v 1.285587 3.067379 -0.944822
v 1.339512 3.101748 -0.944822
v 1.367840 3.033591 -0.931708
vn 0.9282 -0.3721 -0.0099
vn -0.8896 0.4560 -0.0266
vn -0.2210 -0.7081 -0.6707
vn -0.2028 0.2350 -0.9506
vn -0.0301 -0.2688 0.9627
vn 0.9269 -0.3718 0.0514
vn -0.9473 0.3176 -0.0420
vn -0.7579 0.6522 -0.0174
vn -0.7654 0.6431 0.0248
vn -0.8897 0.4565 0.0008
vn -0.2250 -0.9725 -0.0607
vn -0.5264 -0.8502 0.0098
vn 0.0329 -0.1135 0.9930
vn -0.1044 -0.0147 0.9944
vn 0.1311 0.2457 -0.9604
vn 0.0742 0.0752 -0.9944
vn -0.1024 -0.6257 -0.7733
vn -0.7604 0.6491 0.0209
vn 0.7728 -0.6345 0.0135
vn -0.6520 -0.7558 -0.0610
vn -0.6471 -0.7620 -0.0240
vn 0.7960 0.3708 -0.4785
vn -0.8308 -0.2242 -0.5094
vn 0.2635 -0.2576 0.9296
vn -0.8639 -0.5021 -0.0403
vn -0.6320 -0.7745 -0.0266
vn -0.5290 0.8486 0.0022
vn -0.8180 0.5749 -0.0181
vn -0.7567 0.6537 -0.0102
vn -0.0620 0.9950 0.0778
vn 0.9424 0.3281 -0.0651
vn 0.6930 0.7209 0.0112
vn 0.5617 -0.8271 0.0187
vn 0.8787 -0.4765 -0.0295
vn 0.6338 -0.7732 0.0218
vn 0.8394 -0.5412 -0.0492
vn 0.6357 -0.7674 -0.0842
vn 0.8173 -0.5759 0.0204
vn 0.7851 -0.6146 0.0768
vn 0.8254 -0.5644 -0.0114
vn 0.5605 -0.8271 -0.0425
vn 0.6015 -0.7951 -0.0771
vn 0.9379 -0.3470 0.0008
vn -0.0391 0.9936 0.1062
vn 0.1579 0.9870 -0.0316
vn 0.8891 0.4443 -0.1099
vn 0.7261 0.6862 0.0444
vn 0.5986 0.8003 -0.0340
vn 0.5683 0.8224 -0.0255
vn 0.9526 0.3011 -0.0438
vn 0.7320 0.6809 -0.0219
vn 0.9429 0.3283 0.0560
vn -0.9148 0.4028 -0.0294
vn -0.8169 0.5767 0.0095
vn -0.8163 0.5770 0.0273
vn -0.8897 0.4566 0.0012
vn -0.5954 -0.8015 -0.0553
vn -0.5288 0.8483 0.0252
vn -0.5759 -0.8173 0.0202
vn -0.2684 -0.9590 -0.0908
vn -0.6387 -0.7695 -0.0039
vn -0.2689 -0.9607 0.0694
vn -0.8627 -0.5014 0.0657
vn 0.0690 -0.0114 0.9975
vn -0.1423 0.3474 0.9269
vn 0.0306 -0.0960 0.9949
vn -0.0278 0.2107 -0.9771
vn -0.4424 0.0212 0.8966
vn -0.0999 0.4353 -0.8947
vn -0.1999 0.2615 -0.9443
vn 0.2835 -0.1703 0.9437
vn 0.3963 0.9147 0.0790
vn 0.0686 0.1418 -0.9875
vn -0.4829 -0.8733 -0.0638
vn -0.2977 0.2284 0.9270
vn -0.2253 -0.9735 0.0388
vn -0.6471 -0.7620 0.0238
vn -0.9481 0.3178 0.0103
vn -0.8886 0.4555 0.0547
vn 0.8016 0.5875 0.1108
vn 0.7995 0.5860 -0.1321
vn 0.6926 0.7204 -0.0364
vn 0.8326 -0.5530 0.0313
vn 0.9391 -0.3383 0.0610
vn -0.7577 -0.6478 -0.0792
vn -0.6738 -0.7322 -0.0989
vn -0.6330 -0.7737 -0.0263
vn -0.7137 0.6990 -0.0445
vn -0.7543 0.6564 -0.0107
vn 0.7302 0.6800 -0.0662
vn 0.5698 0.8215 0.0215
vn 0.1583 0.9796 0.1234
vn 0.6369 -0.7709 0.0065
vn 0.7753 -0.6313 0.0194
vn 0.8766 -0.4777 -0.0583
vn 0.8163 -0.5755 -0.0499
vn 0.7544 -0.6564 0.0017
vn 0.6029 -0.7970 0.0345
vn 0.8166 -0.5754 -0.0451
vn 0.6349 -0.7686 -0.0791
vn 0.8921 0.4459 -0.0724
vn 0.5091 0.8534 -0.1118
vn 0.7531 0.6567 0.0386
vn 0.7554 0.6549 -0.0221
vn 0.5792 0.8146 -0.0311
vn 0.7321 0.6809 0.0209
vn 0.6994 0.7145 -0.0150
vn 0.7317 0.6813 -0.0219
vn -0.9796 0.2007 -0.0080
vn -0.9796 0.2007 -0.0027
vn -0.9151 0.4030 0.0119
vn -0.4819 -0.8758 -0.0281
vn -0.4820 -0.8762 0.0033
vn -0.5442 -0.8374 -0.0505
vn -0.5963 -0.8027 0.0093
vn -0.7592 -0.6492 0.0463
vn 0.0698 -0.0129 0.9975
vn 0.0020 0.1171 -0.9931
vn 0.0425 -0.1468 0.9883
vn 0.2998 0.9492 0.0952
vn -0.5029 -0.8618 -0.0667
vn -0.5022 -0.8606 0.0849
vn -0.6330 -0.7737 0.0277
vn -0.7674 0.6389 0.0529
vn -0.7567 0.6537 0.0142
vn 0.7360 0.6700 0.0970
vn -0.0393 0.9990 0.0223
vn 0.2989 0.9463 -0.1229
s 0
usemtl Fence
f 20//1 2//1 66//1
f 24//2 4//2 64//2
f 14//3 28//3 61//3
f 60//4 9//4 30//4
f 59//5 11//5 35//5
f 66//6 8//6 50//6
f 54//7 41//7 16//7
f 23//8 33//8 54//8
f 60//9 54//9 55//9
f 39//10 25//10 21//10
f 56//11 38//11 15//11
f 34//12 19//12 56//12
f 35//13 4//13 26//13
f 13//14 35//14 26//14
f 23//15 61//15 34//15
f 60//16 61//16 23//16
f 14//17 62//17 28//17
f 64//18 4//18 39//18
f 7//19 66//19 18//19
f 26//20 36//20 13//20
f 63//21 27//21 1//21
f 30//22 3//22 62//22
f 60//23 14//23 61//23
f 59//24 22//24 11//24
f 57//25 15//25 37//25
f 6//26 56//26 19//26
f 55//27 16//27 40//27
f 39//28 4//28 25//28
f 41//29 33//29 12//29
f 22//30 42//30 11//30
f 44//31 43//31 17//31
f 45//32 31//32 10//32
f 18//33 49//33 46//33
f 7//34 46//34 48//34
f 48//35 29//35 7//35
f 48//36 28//36 62//36
f 48//37 3//37 29//37
f 6//38 49//38 47//38
f 1//39 50//39 8//39
f 19//40 28//40 49//40
f 28//41 46//41 49//41
f 27//42 47//42 50//42
f 50//43 18//43 66//43
f 17//44 51//44 45//44
f 51//45 5//45 31//45
f 9//46 51//46 43//46
f 7//47 52//47 44//47
f 52//48 3//48 30//48
f 52//49 9//49 43//49
f 2//50 53//50 22//50
f 20//51 44//51 53//51
f 42//52 44//52 17//52
f 10//53 55//53 40//53
f 60//54 23//54 54//54
f 55//55 5//55 60//55
f 21//56 40//56 39//56
f 12//57 57//57 37//57
f 40//58 16//58 39//58
f 57//59 23//59 34//59
f 26//60 24//60 58//60
f 34//61 56//61 57//61
f 24//62 37//62 58//62
f 36//63 37//63 15//63
f 13//64 59//64 35//64
f 8//65 2//65 59//65
f 2//66 22//66 59//66
f 28//67 34//67 61//67
f 1//68 8//68 59//68
f 60//69 30//69 14//69
f 60//70 5//70 9//70
f 25//71 35//71 32//71
f 32//72 21//72 25//72
f 14//73 30//73 62//73
f 13//74 63//74 1//74
f 11//75 32//75 35//75
f 63//76 15//76 38//76
f 63//77 6//77 27//77
f 64//78 16//78 41//78
f 64//79 12//79 24//79
f 32//80 42//80 65//80
f 42//81 45//81 65//81
f 21//82 45//82 10//82
f 66//83 2//83 8//83
f 7//84 20//84 66//84
f 26//85 58//85 36//85
f 57//86 56//86 15//86
f 6//87 38//87 56//87
f 55//88 54//88 16//88
f 41//89 54//89 33//89
f 22//90 53//90 42//90
f 44//91 52//91 43//91
f 45//92 51//92 31//92
f 18//93 47//93 49//93
f 7//94 18//94 46//94
f 48//95 46//95 28//95
f 48//96 62//96 3//96
f 6//97 19//97 49//97
f 1//98 27//98 50//98
f 27//99 6//99 47//99
f 50//100 47//100 18//100
f 17//101 43//101 51//101
f 51//102 9//102 5//102
f 7//103 29//103 52//103
f 52//104 29//104 3//104
f 52//105 30//105 9//105
f 2//106 20//106 53//106
f 20//107 7//107 44//107
f 42//108 53//108 44//108
f 10//109 31//109 55//109
f 55//110 31//110 5//110
f 21//111 10//111 40//111
f 12//112 33//112 57//112
f 57//113 33//113 23//113
f 26//114 4//114 24//114
f 24//115 12//115 37//115
f 36//116 58//116 37//116
f 13//117 1//117 59//117
f 28//118 19//118 34//118
f 25//119 4//119 35//119
f 32//120 65//120 21//120
f 13//121 36//121 63//121
f 63//122 36//122 15//122
f 63//123 38//123 6//123
f 64//124 39//124 16//124
f 64//125 41//125 12//125
f 32//126 11//126 42//126
f 42//127 17//127 45//127
f 21//128 65//128 45//128
