# Blender 4.1.1
# www.blender.org
mtllib Cube.037_Cube.041.mtl
o Cube.037_Cube.041
v 4.076554 4.735329 17.752094
v 4.179187 4.733765 17.896950
v 4.183797 6.074218 17.902279
v 3.888045 4.726608 17.873686
v 3.999120 6.082283 18.031239
v 4.076557 5.407073 17.752567
v 4.195702 5.457385 17.883312
v 4.126131 4.712430 17.818287
v 4.047179 6.101079 18.000105
v 3.997272 5.407074 18.039993
v 4.082889 4.706996 17.957874
v 3.887933 5.407073 17.892582
v 3.978888 4.727804 17.805550
v 4.045897 6.146147 17.894802
v 3.973566 5.407073 17.803177
v 3.938100 5.407074 17.971191
v 4.120918 5.407074 17.996168
v 4.148631 5.407073 17.827049
v 4.089742 6.109490 17.765942
v 4.179585 5.077324 17.907063
v 4.005435 5.077324 18.048817
v 4.158287 4.726645 17.964108
v 3.901973 6.099845 17.894072
v 3.904052 5.077324 17.884445
v 3.992349 4.708972 18.022667
v 3.936162 4.731740 17.842726
v 4.092495 5.077324 17.749338
v 4.131303 6.102255 17.826576
v 4.208119 5.738076 17.885561
v 4.130604 6.133843 17.939529
v 4.000383 5.736823 18.042110
v 4.046666 4.729223 18.000879
v 3.897134 5.736823 17.898111
v 4.038617 6.105857 17.797634
v 3.977046 4.726606 17.899502
v 3.982960 5.077324 17.830231
v 3.947186 5.407073 17.848568
v 4.030918 5.407073 17.789906
v 3.970651 5.052870 17.980976
v 3.977900 5.407074 17.996002
v 3.926847 5.407074 17.937626
v 4.104114 5.077324 17.988148
v 4.107247 5.737320 17.969873
v 4.141305 5.407074 17.937614
v 4.045935 5.407074 17.993216
v 4.153522 5.737675 17.822887
v 4.101748 5.407073 17.788319
v 4.170778 5.740420 17.854885
v 4.116761 5.736927 17.797939
v 4.130116 5.077324 17.777796
v 4.077274 5.737626 18.029785
v 4.176575 5.740360 17.921871
v 4.150219 5.077324 17.938637
v 3.952016 5.804678 17.960079
v 3.993045 5.736823 18.006290
v 4.012865 5.779940 17.817348
v 3.951023 5.736998 17.868462
v 3.946844 5.077324 17.872471
v 4.083519 4.734430 17.859531
v 3.979505 6.085768 18.003656
v 4.025476 6.093838 17.851631
v 4.157697 6.141788 17.871113
v 4.028599 5.077324 17.803598
v 3.928804 5.077324 17.932737
v 4.075978 5.077324 18.026539
v 4.153292 5.041533 17.840523
vn 0.9281 0.0099 -0.3721
vn -0.8896 0.0266 0.4559
vn -0.2210 0.6706 -0.7081
vn -0.2027 0.9506 0.2349
vn -0.0301 -0.9627 -0.2688
vn 0.9269 -0.0514 -0.3718
vn -0.9473 0.0420 0.3176
vn -0.7579 0.0174 0.6522
vn -0.7654 -0.0248 0.6431
vn -0.8897 -0.0008 0.4565
vn -0.2250 0.0607 -0.9725
vn -0.5264 -0.0098 -0.8502
vn 0.0329 -0.9930 -0.1135
vn -0.1044 -0.9944 -0.0147
vn 0.1311 0.9604 0.2457
vn 0.0742 0.9944 0.0752
vn -0.1024 0.7733 -0.6257
vn -0.7604 -0.0209 0.6491
vn 0.7728 -0.0135 -0.6345
vn -0.6520 0.0610 -0.7558
vn -0.6471 0.0240 -0.7620
vn 0.7960 0.4785 0.3708
vn -0.8308 0.5094 -0.2242
vn 0.2635 -0.9296 -0.2576
vn -0.8639 0.0403 -0.5021
vn -0.6320 0.0266 -0.7745
vn -0.5290 -0.0022 0.8486
vn -0.8180 0.0181 0.5749
vn -0.7567 0.0101 0.6537
vn -0.0620 -0.0778 0.9950
vn 0.9424 0.0651 0.3281
vn 0.6930 -0.0112 0.7209
vn 0.5617 -0.0187 -0.8271
vn 0.8787 0.0295 -0.4764
vn 0.6338 -0.0218 -0.7732
vn 0.8394 0.0492 -0.5412
vn 0.6357 0.0842 -0.7674
vn 0.8173 -0.0204 -0.5759
vn 0.7851 -0.0768 -0.6146
vn 0.8254 0.0114 -0.5644
vn 0.5605 0.0425 -0.8271
vn 0.6015 0.0771 -0.7952
vn 0.9379 -0.0008 -0.3470
vn -0.0391 -0.1062 0.9936
vn 0.1579 0.0316 0.9870
vn 0.8891 0.1099 0.4443
vn 0.7261 -0.0444 0.6862
vn 0.5986 0.0340 0.8003
vn 0.5683 0.0255 0.8224
vn 0.9526 0.0438 0.3011
vn 0.7321 0.0219 0.6809
vn 0.9429 -0.0560 0.3283
vn -0.9148 0.0294 0.4028
vn -0.8169 -0.0095 0.5767
vn -0.8163 -0.0273 0.5770
vn -0.8897 -0.0012 0.4566
vn -0.5954 0.0553 -0.8015
vn -0.5288 -0.0252 0.8483
vn -0.5759 -0.0202 -0.8173
vn -0.2684 0.0908 -0.9590
vn -0.6387 0.0039 -0.7695
vn -0.2688 -0.0694 -0.9607
vn -0.8627 -0.0657 -0.5014
vn 0.0690 -0.9975 -0.0114
vn -0.1423 -0.9269 0.3474
vn 0.0306 -0.9949 -0.0960
vn -0.0278 0.9771 0.2107
vn -0.4424 -0.8966 0.0212
vn -0.0999 0.8947 0.4354
vn -0.1999 0.9443 0.2615
vn 0.2835 -0.9437 -0.1703
vn 0.3964 -0.0790 0.9147
vn 0.0686 0.9875 0.1418
vn -0.4829 0.0638 -0.8733
vn -0.2977 -0.9270 0.2284
vn -0.2253 -0.0388 -0.9735
vn -0.6471 -0.0238 -0.7620
vn -0.9481 -0.0103 0.3178
vn -0.8886 -0.0547 0.4554
vn 0.8016 -0.1108 0.5875
vn 0.7995 0.1321 0.5859
vn 0.6925 0.0364 0.7205
vn 0.8326 -0.0313 -0.5530
vn 0.9391 -0.0610 -0.3383
vn -0.7577 0.0792 -0.6478
vn -0.6738 0.0989 -0.7322
vn -0.6330 0.0263 -0.7737
vn -0.7137 0.0445 0.6990
vn -0.7543 0.0107 0.6564
vn 0.7302 0.0662 0.6800
vn 0.5698 -0.0215 0.8215
vn 0.1583 -0.1234 0.9796
vn 0.6369 -0.0065 -0.7709
vn 0.7753 -0.0194 -0.6313
vn 0.8766 0.0583 -0.4778
vn 0.8163 0.0499 -0.5755
vn 0.7544 -0.0017 -0.6564
vn 0.6029 -0.0345 -0.7970
vn 0.8166 0.0451 -0.5754
vn 0.6349 0.0791 -0.7685
vn 0.8921 0.0724 0.4459
vn 0.5091 0.1119 0.8534
vn 0.7531 -0.0386 0.6567
vn 0.7554 0.0221 0.6549
vn 0.5792 0.0311 0.8146
vn 0.7321 -0.0209 0.6809
vn 0.6994 0.0150 0.7145
vn 0.7317 0.0219 0.6813
vn -0.9796 0.0080 0.2007
vn -0.9796 0.0027 0.2007
vn -0.9151 -0.0119 0.4030
vn -0.4819 0.0281 -0.8758
vn -0.4820 -0.0033 -0.8761
vn -0.5442 0.0505 -0.8374
vn -0.5963 -0.0093 -0.8027
vn -0.7592 -0.0463 -0.6492
vn 0.0698 -0.9975 -0.0129
vn 0.0020 0.9931 0.1171
vn 0.0425 -0.9883 -0.1468
vn 0.2998 -0.0952 0.9492
vn -0.5029 0.0667 -0.8618
vn -0.5022 -0.0849 -0.8606
vn -0.6330 -0.0277 -0.7737
vn -0.7674 -0.0529 0.6390
vn -0.7566 -0.0142 0.6537
vn 0.7360 -0.0969 0.6700
vn -0.0393 -0.0223 0.9990
vn 0.2989 0.1229 0.9464
s 0
usemtl Fence
f 20//1 2//1 66//1
f 24//2 4//2 64//2
f 14//3 28//3 61//3
f 60//4 9//4 30//4
f 59//5 11//5 35//5
f 66//6 8//6 50//6
f 54//7 41//7 16//7
f 23//8 33//8 54//8
f 60//9 54//9 55//9
f 39//10 25//10 21//10
f 56//11 38//11 15//11
f 34//12 19//12 56//12
f 35//13 4//13 26//13
f 13//14 35//14 26//14
f 23//15 61//15 34//15
f 60//16 61//16 23//16
f 14//17 62//17 28//17
f 64//18 4//18 39//18
f 7//19 66//19 18//19
f 26//20 36//20 13//20
f 63//21 27//21 1//21
f 30//22 3//22 62//22
f 60//23 14//23 61//23
f 59//24 22//24 11//24
f 57//25 15//25 37//25
f 6//26 56//26 19//26
f 55//27 16//27 40//27
f 39//28 4//28 25//28
f 41//29 33//29 12//29
f 22//30 42//30 11//30
f 44//31 43//31 17//31
f 45//32 31//32 10//32
f 18//33 49//33 46//33
f 7//34 46//34 48//34
f 48//35 29//35 7//35
f 48//36 28//36 62//36
f 48//37 3//37 29//37
f 6//38 49//38 47//38
f 1//39 50//39 8//39
f 19//40 28//40 49//40
f 28//41 46//41 49//41
f 27//42 47//42 50//42
f 50//43 18//43 66//43
f 17//44 51//44 45//44
f 51//45 5//45 31//45
f 9//46 51//46 43//46
f 7//47 52//47 44//47
f 52//48 3//48 30//48
f 52//49 9//49 43//49
f 2//50 53//50 22//50
f 20//51 44//51 53//51
f 42//52 44//52 17//52
f 10//53 55//53 40//53
f 60//54 23//54 54//54
f 55//55 5//55 60//55
f 21//56 40//56 39//56
f 12//57 57//57 37//57
f 40//58 16//58 39//58
f 57//59 23//59 34//59
f 26//60 24//60 58//60
f 34//61 56//61 57//61
f 24//62 37//62 58//62
f 36//63 37//63 15//63
f 13//64 59//64 35//64
f 8//65 2//65 59//65
f 2//66 22//66 59//66
f 28//67 34//67 61//67
f 1//68 8//68 59//68
f 60//69 30//69 14//69
f 60//70 5//70 9//70
f 25//71 35//71 32//71
f 32//72 21//72 25//72
f 14//73 30//73 62//73
f 13//74 63//74 1//74
f 11//75 32//75 35//75
f 63//76 15//76 38//76
f 63//77 6//77 27//77
f 64//78 16//78 41//78
f 64//79 12//79 24//79
f 32//80 42//80 65//80
f 42//81 45//81 65//81
f 21//82 45//82 10//82
f 66//83 2//83 8//83
f 7//84 20//84 66//84
f 26//85 58//85 36//85
f 57//86 56//86 15//86
f 6//87 38//87 56//87
f 55//88 54//88 16//88
f 41//89 54//89 33//89
f 22//90 53//90 42//90
f 44//91 52//91 43//91
f 45//92 51//92 31//92
f 18//93 47//93 49//93
f 7//94 18//94 46//94
f 48//95 46//95 28//95
f 48//96 62//96 3//96
f 6//97 19//97 49//97
f 1//98 27//98 50//98
f 27//99 6//99 47//99
f 50//100 47//100 18//100
f 17//101 43//101 51//101
f 51//102 9//102 5//102
f 7//103 29//103 52//103
f 52//104 29//104 3//104
f 52//105 30//105 9//105
f 2//106 20//106 53//106
f 20//107 7//107 44//107
f 42//108 53//108 44//108
f 10//109 31//109 55//109
f 55//110 31//110 5//110
f 21//111 10//111 40//111
f 12//112 33//112 57//112
f 57//113 33//113 23//113
f 26//114 4//114 24//114
f 24//115 12//115 37//115
f 36//116 58//116 37//116
f 13//117 1//117 59//117
f 28//118 19//118 34//118
f 25//119 4//119 35//119
f 32//120 65//120 21//120
f 13//121 36//121 63//121
f 63//122 36//122 15//122
f 63//123 38//123 6//123
f 64//124 39//124 16//124
f 64//125 41//125 12//125
f 32//126 11//126 42//126
f 42//127 17//127 45//127
f 21//128 65//128 45//128
