# Blender 4.1.1
# www.blender.org
mtllib Cube.078_Cube.082.mtl
o Cube.078_Cube.082
v -5.091556 -7.475130 -1.920972
v -5.129333 -7.527729 -1.927105
v -4.734263 -7.815167 -1.876823
v -5.103443 -7.471680 -1.839656
v -4.742972 -7.817751 -1.794741
v -4.892946 -7.618245 -1.895446
v -4.913869 -7.681174 -1.907394
v -5.115595 -7.494891 -1.925461
v -4.735013 -7.822126 -1.814869
v -4.944311 -7.675865 -1.818138
v -5.141768 -7.520923 -1.886626
v -4.905945 -7.621179 -1.810413
v -5.096688 -7.470349 -1.880691
v -4.700432 -7.805529 -1.831907
v -4.894855 -7.613473 -1.853716
v -4.925751 -7.648977 -1.811962
v -4.945421 -7.685773 -1.865159
v -4.913680 -7.648696 -1.904666
v -4.688912 -7.773283 -1.870575
v -5.029770 -7.603426 -1.912380
v -5.044278 -7.609214 -1.831601
v -5.143251 -7.539278 -1.908561
v -4.702445 -7.771374 -1.788338
v -5.003144 -7.551677 -1.829472
v -5.146937 -7.522156 -1.846174
v -5.099564 -7.473198 -1.860289
v -4.991117 -7.549924 -1.913556
v -4.706560 -7.793665 -1.872949
v -4.832287 -7.743563 -1.900277
v -4.719843 -7.828136 -1.850992
v -4.847445 -7.747105 -1.806247
v -5.140925 -7.530194 -1.866524
v -4.810252 -7.694280 -1.799824
v -4.692253 -7.771761 -1.848804
v -5.115761 -7.492962 -1.863071
v -4.998581 -7.551524 -1.864252
v -4.901855 -7.620250 -1.837130
v -4.896786 -7.619809 -1.874243
v -5.035100 -7.581443 -1.833878
v -4.933924 -7.661767 -1.820020
v -4.918109 -7.638812 -1.814511
v -5.040004 -7.610782 -1.873799
v -4.841357 -7.747297 -1.853115
v -4.935297 -7.674744 -1.882245
v -4.938818 -7.672479 -1.842014
v -4.815444 -7.718867 -1.894446
v -4.902145 -7.631287 -1.896901
v -4.822441 -7.730237 -1.893973
v -4.807708 -7.706394 -1.887400
v -4.999846 -7.563248 -1.920262
v -4.850895 -7.757120 -1.832742
v -4.836375 -7.747720 -1.883624
v -5.033757 -7.606294 -1.897364
v -4.807024 -7.733209 -1.803319
v -4.839663 -7.737039 -1.810443
v -4.790555 -7.702929 -1.849429
v -4.808565 -7.696034 -1.822228
v -5.004169 -7.555893 -1.845164
v -5.113954 -7.502609 -1.903670
v -4.734830 -7.808402 -1.793430
v -4.705599 -7.780322 -1.835289
v -4.705925 -7.817491 -1.871689
v -4.996891 -7.552602 -1.883509
v -5.014825 -7.567737 -1.828507
v -5.045458 -7.615538 -1.857931
v -5.024888 -7.574986 -1.917531
vn 0.0089 -0.1797 -0.9837
vn -0.0338 0.0844 0.9959
vn 0.9779 0.1881 -0.0916
vn 0.6831 -0.6178 0.3896
vn -0.6233 0.7541 -0.2069
vn -0.0405 -0.1437 -0.9888
vn 0.0671 0.1949 0.9785
vn -0.1776 -0.1026 0.9787
vn -0.2051 -0.0685 0.9764
vn -0.0562 0.1000 0.9934
vn 0.6312 0.7224 -0.2824
vn 0.5732 0.8189 0.0307
vn -0.7467 0.6383 -0.1873
vn -0.7719 0.6354 -0.0201
vn 0.6121 -0.7833 0.1082
vn 0.7453 -0.6623 0.0762
vn 0.9896 0.0189 -0.1423
vn -0.2063 -0.0771 0.9754
vn 0.1677 0.0815 -0.9825
vn 0.6061 0.7716 0.1932
vn 0.5786 0.7950 0.1821
vn 0.0089 -0.8917 -0.4526
vn 0.7159 0.2350 0.6575
vn -0.6669 0.5930 -0.4511
vn 0.4967 0.7097 0.4996
vn 0.5842 0.7950 0.1631
vn -0.3511 -0.3281 0.8769
vn -0.1215 -0.0234 0.9923
vn -0.1845 -0.0999 0.9777
vn -0.5946 -0.5964 0.5392
vn -0.3334 -0.6897 -0.6428
vn -0.5557 -0.7958 -0.2407
vn 0.3154 0.3109 -0.8966
vn 0.0927 -0.0983 -0.9908
vn 0.2675 0.2434 -0.9323
vn 0.1527 -0.0481 -0.9871
vn 0.3495 0.1771 -0.9201
vn 0.1204 0.0258 -0.9924
vn 0.1031 0.0994 -0.9897
vn 0.1380 -0.0041 -0.9904
vn 0.3651 0.2759 -0.8892
vn 0.3665 0.2155 -0.9051
vn -0.0157 -0.1948 -0.9807
vn -0.6217 -0.5893 0.5159
vn -0.5499 -0.7551 0.3570
vn -0.3493 -0.7696 -0.5346
vn -0.5708 -0.7682 -0.2899
vn -0.5421 -0.8324 -0.1153
vn -0.5545 -0.8284 -0.0791
vn -0.3381 -0.6638 -0.6671
vn -0.5156 -0.8059 -0.2909
vn -0.4314 -0.6197 -0.6556
vn 0.0031 0.1301 0.9915
vn -0.1451 -0.0092 0.9894
vn -0.1598 0.0007 0.9872
vn -0.0566 0.1001 0.9934
vn 0.6141 0.7798 0.1211
vn -0.3696 -0.3147 0.8743
vn 0.5576 0.8253 0.0887
vn 0.6577 0.7156 -0.2352
vn 0.5646 0.8079 0.1690
vn 0.5293 0.8101 -0.2522
vn 0.4105 0.7703 0.4880
vn -0.8142 0.5556 -0.1683
vn -0.9075 0.3697 0.1993
vn -0.7573 0.6286 -0.1769
vn 0.6795 -0.6969 0.2296
vn -0.6387 0.7089 0.2992
vn 0.5055 -0.7673 0.3947
vn 0.6628 -0.6332 0.3997
vn -0.7305 0.5333 -0.4265
vn -0.6518 -0.7512 0.1041
vn 0.7045 -0.7006 0.1134
vn 0.6358 0.7718 -0.0106
vn -0.8084 0.5209 0.2741
vn 0.5515 0.7810 -0.2930
vn 0.5400 0.8228 0.1771
vn 0.0248 0.2255 0.9739
vn -0.0994 0.1315 0.9863
vn -0.5868 -0.6978 -0.4108
vn -0.3894 -0.8369 -0.3847
vn -0.5170 -0.8229 -0.2356
vn 0.0957 0.0098 -0.9954
vn -0.0692 -0.1663 -0.9836
vn 0.5847 0.7367 0.3398
vn 0.6285 0.7437 0.2277
vn 0.5837 0.7951 0.1644
vn -0.1910 -0.1701 0.9667
vn -0.1861 -0.1031 0.9771
vn -0.4790 -0.8302 -0.2851
vn -0.5922 -0.8012 -0.0856
vn -0.6712 -0.6603 0.3370
vn 0.2780 0.2316 -0.9322
vn 0.1607 0.0817 -0.9836
vn 0.1171 -0.1131 -0.9867
vn 0.1771 -0.0149 -0.9841
vn 0.1934 0.0979 -0.9762
vn 0.2771 0.2809 -0.9189
vn 0.1732 -0.0122 -0.9848
vn 0.3462 0.1811 -0.9205
vn -0.3811 -0.7503 -0.5402
vn -0.4888 -0.8724 -0.0036
vn -0.5558 -0.7642 -0.3272
vn -0.5063 -0.7992 -0.3238
vn -0.5480 -0.8314 -0.0918
vn -0.5502 -0.7811 -0.2952
vn -0.5325 -0.8097 -0.2467
vn -0.5158 -0.8060 -0.2902
vn 0.1107 0.3083 0.9448
vn 0.1065 0.3113 0.9443
vn -0.0302 0.1541 0.9876
vn 0.6081 0.7937 -0.0163
vn 0.5830 0.8123 -0.0197
vn 0.6188 0.7833 0.0587
vn 0.5629 0.8186 0.1146
vn 0.4845 0.8112 0.3275
vn -0.8135 0.5563 -0.1697
vn 0.7371 -0.6568 0.1591
vn -0.7267 0.6535 -0.2117
vn -0.6627 -0.7209 0.2028
vn 0.6362 0.7714 0.0126
vn 0.5130 0.8584 -0.0030
vn 0.5401 0.8265 0.1588
vn -0.2250 -0.0485 0.9732
vn -0.2042 -0.0858 0.9752
vn -0.6065 -0.7314 -0.3119
vn -0.5569 -0.6416 0.5274
vn -0.4849 -0.8452 0.2247
s 0
usemtl Fence2
f 20//1 2//1 66//1
f 24//2 4//2 64//2
f 14//3 28//3 61//3
f 60//4 9//4 30//4
f 59//5 11//5 35//5
f 66//6 8//6 50//6
f 54//7 41//7 16//7
f 23//8 33//8 54//8
f 60//9 54//9 55//9
f 39//10 25//10 21//10
f 56//11 38//11 15//11
f 34//12 19//12 56//12
f 35//13 4//13 26//13
f 13//14 35//14 26//14
f 23//15 61//15 34//15
f 60//16 61//16 23//16
f 14//17 62//17 28//17
f 64//18 4//18 39//18
f 7//19 66//19 18//19
f 26//20 36//20 13//20
f 63//21 27//21 1//21
f 30//22 3//22 62//22
f 60//23 14//23 61//23
f 59//24 22//24 11//24
f 57//25 15//25 37//25
f 6//26 56//26 19//26
f 55//27 16//27 40//27
f 39//28 4//28 25//28
f 41//29 33//29 12//29
f 22//30 42//30 11//30
f 44//31 43//31 17//31
f 45//32 31//32 10//32
f 18//33 49//33 46//33
f 7//34 46//34 48//34
f 48//35 29//35 7//35
f 48//36 28//36 62//36
f 48//37 3//37 29//37
f 6//38 49//38 47//38
f 1//39 50//39 8//39
f 19//40 28//40 49//40
f 28//41 46//41 49//41
f 27//42 47//42 50//42
f 50//43 18//43 66//43
f 17//44 51//44 45//44
f 51//45 5//45 31//45
f 9//46 51//46 43//46
f 7//47 52//47 44//47
f 52//48 3//48 30//48
f 52//49 9//49 43//49
f 2//50 53//50 22//50
f 20//51 44//51 53//51
f 42//52 44//52 17//52
f 10//53 55//53 40//53
f 60//54 23//54 54//54
f 55//55 5//55 60//55
f 21//56 40//56 39//56
f 12//57 57//57 37//57
f 40//58 16//58 39//58
f 57//59 23//59 34//59
f 26//60 24//60 58//60
f 34//61 56//61 57//61
f 24//62 37//62 58//62
f 36//63 37//63 15//63
f 13//64 59//64 35//64
f 8//65 2//65 59//65
f 2//66 22//66 59//66
f 28//67 34//67 61//67
f 1//68 8//68 59//68
f 60//69 30//69 14//69
f 60//70 5//70 9//70
f 25//71 35//71 32//71
f 32//72 21//72 25//72
f 14//73 30//73 62//73
f 13//74 63//74 1//74
f 11//75 32//75 35//75
f 63//76 15//76 38//76
f 63//77 6//77 27//77
f 64//78 16//78 41//78
f 64//79 12//79 24//79
f 32//80 42//80 65//80
f 42//81 45//81 65//81
f 21//82 45//82 10//82
f 66//83 2//83 8//83
f 7//84 20//84 66//84
f 26//85 58//85 36//85
f 57//86 56//86 15//86
f 6//87 38//87 56//87
f 55//88 54//88 16//88
f 41//89 54//89 33//89
f 22//90 53//90 42//90
f 44//91 52//91 43//91
f 45//92 51//92 31//92
f 18//93 47//93 49//93
f 7//94 18//94 46//94
f 48//95 46//95 28//95
f 48//96 62//96 3//96
f 6//97 19//97 49//97
f 1//98 27//98 50//98
f 27//99 6//99 47//99
f 50//100 47//100 18//100
f 17//101 43//101 51//101
f 51//102 9//102 5//102
f 7//103 29//103 52//103
f 52//104 29//104 3//104
f 52//105 30//105 9//105
f 2//106 20//106 53//106
f 20//107 7//107 44//107
f 42//108 53//108 44//108
f 10//109 31//109 55//109
f 55//110 31//110 5//110
f 21//111 10//111 40//111
f 12//112 33//112 57//112
f 57//113 33//113 23//113
f 26//114 4//114 24//114
f 24//115 12//115 37//115
f 36//116 58//116 37//116
f 13//117 1//117 59//117
f 28//118 19//118 34//118
f 25//119 4//119 35//119
f 32//120 65//120 21//120
f 13//121 36//121 63//121
f 63//122 36//122 15//122
f 63//123 38//123 6//123
f 64//124 39//124 16//124
f 64//125 41//125 12//125
f 32//126 11//126 42//126
f 42//127 17//127 45//127
f 21//128 65//128 45//128
