# Blender 4.1.1
# www.blender.org
mtllib Cube.078_Cube.082.mtl
o Cube.078_Cube.082
v -13.475953 7.741433 -10.840307
v -13.579055 7.758171 -10.983864
v -12.500813 7.620938 -11.768351
v -13.508395 7.519502 -10.830893
v -12.524583 7.396916 -11.775402
v -12.933897 7.671765 -11.230904
v -12.991002 7.704374 -11.402651
v -13.541560 7.753685 -10.894241
v -12.502861 7.451851 -11.787344
v -13.074086 7.460773 -11.388163
v -13.612993 7.647694 -10.965288
v -12.969375 7.439690 -11.238911
v -13.489959 7.631496 -10.827259
v -12.408481 7.498352 -11.742046
v -12.939108 7.557874 -11.217878
v -13.023432 7.443917 -11.314777
v -13.077116 7.589105 -11.415203
v -12.990486 7.696929 -11.314011
v -12.377040 7.603886 -11.654039
v -13.307323 7.717982 -11.190458
v -13.346920 7.497517 -11.206255
v -13.617041 7.707560 -11.015383
v -12.413975 7.379441 -11.648830
v -13.234654 7.491706 -11.049223
v -13.627100 7.537291 -10.968653
v -13.497808 7.575814 -10.835035
v -13.201830 7.721192 -11.044439
v -12.425206 7.610365 -11.709667
v -12.768345 7.684950 -11.572926
v -12.461458 7.550439 -11.803745
v -12.809715 7.428319 -11.582594
v -13.610692 7.592830 -10.990591
v -12.708207 7.410789 -11.438421
v -12.386159 7.544467 -11.649885
v -13.542013 7.583407 -10.888975
v -13.222201 7.586629 -11.048805
v -12.958213 7.512607 -11.236376
v -12.944379 7.613897 -11.235172
v -13.321871 7.503732 -11.130461
v -13.045737 7.465909 -11.349686
v -13.002574 7.450874 -11.287035
v -13.335254 7.612686 -11.210535
v -12.793100 7.556233 -11.583117
v -13.049484 7.635736 -11.385103
v -13.059093 7.525936 -11.378922
v -12.722377 7.669036 -11.505524
v -12.959004 7.675736 -11.266499
v -12.741473 7.667745 -11.536556
v -12.701262 7.649806 -11.471483
v -13.225654 7.739494 -11.080803
v -12.819131 7.500630 -11.609926
v -12.779503 7.639500 -11.584270
v -13.318206 7.677000 -11.198286
v -12.699396 7.420328 -11.544668
v -12.788476 7.439772 -11.555120
v -12.654449 7.546174 -11.462027
v -12.703603 7.471935 -11.443209
v -13.237453 7.534534 -11.060730
v -13.537083 7.694211 -10.915304
v -12.502361 7.393338 -11.749887
v -12.422583 7.507582 -11.673250
v -12.423472 7.606926 -11.774693
v -13.217589 7.639187 -11.051746
v -13.266535 7.489073 -11.093056
v -13.350140 7.569378 -11.223515
v -13.294000 7.732041 -11.112839
vn 0.0089 0.9837 -0.1797
vn -0.0338 -0.9959 0.0844
vn 0.9779 0.0916 0.1882
vn 0.6830 -0.3896 -0.6178
vn -0.6233 0.2069 0.7541
vn -0.0405 0.9888 -0.1437
vn 0.0671 -0.9785 0.1949
vn -0.1776 -0.9787 -0.1026
vn -0.2051 -0.9763 -0.0685
vn -0.0562 -0.9934 0.1000
vn 0.6312 0.2824 0.7224
vn 0.5732 -0.0307 0.8189
vn -0.7467 0.1873 0.6383
vn -0.7719 0.0201 0.6354
vn 0.6121 -0.1082 -0.7834
vn 0.7453 -0.0762 -0.6623
vn 0.9896 0.1423 0.0189
vn -0.2063 -0.9755 -0.0771
vn 0.1677 0.9825 0.0816
vn 0.6061 -0.1932 0.7716
vn 0.5786 -0.1820 0.7950
vn 0.0089 0.4526 -0.8917
vn 0.7159 -0.6575 0.2349
vn -0.6669 0.4511 0.5930
vn 0.4967 -0.4996 0.7097
vn 0.5842 -0.1631 0.7950
vn -0.3511 -0.8770 -0.3281
vn -0.1215 -0.9923 -0.0234
vn -0.1845 -0.9777 -0.0999
vn -0.5946 -0.5392 -0.5964
vn -0.3334 0.6428 -0.6897
vn -0.5557 0.2407 -0.7958
vn 0.3154 0.8966 0.3109
vn 0.0927 0.9908 -0.0983
vn 0.2675 0.9323 0.2434
vn 0.1527 0.9871 -0.0481
vn 0.3495 0.9201 0.1770
vn 0.1203 0.9924 0.0258
vn 0.1032 0.9897 0.0994
vn 0.1380 0.9904 -0.0041
vn 0.3651 0.8892 0.2759
vn 0.3665 0.9051 0.2155
vn -0.0156 0.9807 -0.1948
vn -0.6217 -0.5159 -0.5893
vn -0.5499 -0.3570 -0.7551
vn -0.3493 0.5346 -0.7696
vn -0.5708 0.2899 -0.7682
vn -0.5421 0.1153 -0.8324
vn -0.5545 0.0791 -0.8284
vn -0.3381 0.6671 -0.6638
vn -0.5156 0.2909 -0.8059
vn -0.4314 0.6556 -0.6197
vn 0.0031 -0.9915 0.1300
vn -0.1451 -0.9894 -0.0092
vn -0.1598 -0.9872 0.0007
vn -0.0566 -0.9934 0.1001
vn 0.6142 -0.1211 0.7798
vn -0.3696 -0.8743 -0.3147
vn 0.5576 -0.0887 0.8253
vn 0.6577 0.2352 0.7156
vn 0.5646 -0.1691 0.8079
vn 0.5293 0.2523 0.8100
vn 0.4105 -0.4880 0.7703
vn -0.8142 0.1683 0.5556
vn -0.9075 -0.1993 0.3697
vn -0.7573 0.1769 0.6286
vn 0.6795 -0.2296 -0.6969
vn -0.6387 -0.2991 0.7090
vn 0.5055 -0.3946 -0.7673
vn 0.6627 -0.3997 -0.6332
vn -0.7305 0.4265 0.5333
vn -0.6518 -0.1042 -0.7512
vn 0.7045 -0.1134 -0.7006
vn 0.6358 0.0106 0.7718
vn -0.8084 -0.2742 0.5209
vn 0.5515 0.2930 0.7810
vn 0.5400 -0.1771 0.8228
vn 0.0248 -0.9739 0.2256
vn -0.0994 -0.9863 0.1315
vn -0.5868 0.4108 -0.6978
vn -0.3894 0.3847 -0.8369
vn -0.5169 0.2356 -0.8229
vn 0.0957 0.9954 0.0098
vn -0.0692 0.9836 -0.1663
vn 0.5847 -0.3398 0.7367
vn 0.6285 -0.2276 0.7437
vn 0.5837 -0.1644 0.7951
vn -0.1910 -0.9667 -0.1701
vn -0.1861 -0.9771 -0.1032
vn -0.4790 0.2851 -0.8302
vn -0.5922 0.0856 -0.8012
vn -0.6712 -0.3370 -0.6603
vn 0.2780 0.9322 0.2316
vn 0.1607 0.9836 0.0817
vn 0.1171 0.9867 -0.1131
vn 0.1771 0.9841 -0.0149
vn 0.1934 0.9762 0.0979
vn 0.2771 0.9189 0.2810
vn 0.1731 0.9848 -0.0123
vn 0.3462 0.9205 0.1811
vn -0.3811 0.5402 -0.7503
vn -0.4888 0.0036 -0.8724
vn -0.5559 0.3272 -0.7642
vn -0.5063 0.3238 -0.7992
vn -0.5480 0.0918 -0.8314
vn -0.5502 0.2953 -0.7811
vn -0.5325 0.2467 -0.8097
vn -0.5158 0.2902 -0.8060
vn 0.1107 -0.9448 0.3082
vn 0.1065 -0.9443 0.3113
vn -0.0302 -0.9876 0.1541
vn 0.6081 0.0164 0.7937
vn 0.5830 0.0197 0.8123
vn 0.6188 -0.0587 0.7833
vn 0.5628 -0.1146 0.8186
vn 0.4845 -0.3275 0.8112
vn -0.8135 0.1697 0.5563
vn 0.7371 -0.1591 -0.6568
vn -0.7267 0.2117 0.6535
vn -0.6627 -0.2028 -0.7209
vn 0.6362 -0.0127 0.7714
vn 0.5130 0.0031 0.8584
vn 0.5402 -0.1588 0.8264
vn -0.2250 -0.9732 -0.0485
vn -0.2042 -0.9752 -0.0858
vn -0.6065 0.3119 -0.7314
vn -0.5569 -0.5274 -0.6416
vn -0.4849 -0.2247 -0.8452
s 0
usemtl Fence2
f 20//1 2//1 66//1
f 24//2 4//2 64//2
f 14//3 28//3 61//3
f 60//4 9//4 30//4
f 59//5 11//5 35//5
f 66//6 8//6 50//6
f 54//7 41//7 16//7
f 23//8 33//8 54//8
f 60//9 54//9 55//9
f 39//10 25//10 21//10
f 56//11 38//11 15//11
f 34//12 19//12 56//12
f 35//13 4//13 26//13
f 13//14 35//14 26//14
f 23//15 61//15 34//15
f 60//16 61//16 23//16
f 14//17 62//17 28//17
f 64//18 4//18 39//18
f 7//19 66//19 18//19
f 26//20 36//20 13//20
f 63//21 27//21 1//21
f 30//22 3//22 62//22
f 60//23 14//23 61//23
f 59//24 22//24 11//24
f 57//25 15//25 37//25
f 6//26 56//26 19//26
f 55//27 16//27 40//27
f 39//28 4//28 25//28
f 41//29 33//29 12//29
f 22//30 42//30 11//30
f 44//31 43//31 17//31
f 45//32 31//32 10//32
f 18//33 49//33 46//33
f 7//34 46//34 48//34
f 48//35 29//35 7//35
f 48//36 28//36 62//36
f 48//37 3//37 29//37
f 6//38 49//38 47//38
f 1//39 50//39 8//39
f 19//40 28//40 49//40
f 28//41 46//41 49//41
f 27//42 47//42 50//42
f 50//43 18//43 66//43
f 17//44 51//44 45//44
f 51//45 5//45 31//45
f 9//46 51//46 43//46
f 7//47 52//47 44//47
f 52//48 3//48 30//48
f 52//49 9//49 43//49
f 2//50 53//50 22//50
f 20//51 44//51 53//51
f 42//52 44//52 17//52
f 10//53 55//53 40//53
f 60//54 23//54 54//54
f 55//55 5//55 60//55
f 21//56 40//56 39//56
f 12//57 57//57 37//57
f 40//58 16//58 39//58
f 57//59 23//59 34//59
f 26//60 24//60 58//60
f 34//61 56//61 57//61
f 24//62 37//62 58//62
f 36//63 37//63 15//63
f 13//64 59//64 35//64
f 8//65 2//65 59//65
f 2//66 22//66 59//66
f 28//67 34//67 61//67
f 1//68 8//68 59//68
f 60//69 30//69 14//69
f 60//70 5//70 9//70
f 25//71 35//71 32//71
f 32//72 21//72 25//72
f 14//73 30//73 62//73
f 13//74 63//74 1//74
f 11//75 32//75 35//75
f 63//76 15//76 38//76
f 63//77 6//77 27//77
f 64//78 16//78 41//78
f 64//79 12//79 24//79
f 32//80 42//80 65//80
f 42//81 45//81 65//81
f 21//82 45//82 10//82
f 66//83 2//83 8//83
f 7//84 20//84 66//84
f 26//85 58//85 36//85
f 57//86 56//86 15//86
f 6//87 38//87 56//87
f 55//88 54//88 16//88
f 41//89 54//89 33//89
f 22//90 53//90 42//90
f 44//91 52//91 43//91
f 45//92 51//92 31//92
f 18//93 47//93 49//93
f 7//94 18//94 46//94
f 48//95 46//95 28//95
f 48//96 62//96 3//96
f 6//97 19//97 49//97
f 1//98 27//98 50//98
f 27//99 6//99 47//99
f 50//100 47//100 18//100
f 17//101 43//101 51//101
f 51//102 9//102 5//102
f 7//103 29//103 52//103
f 52//104 29//104 3//104
f 52//105 30//105 9//105
f 2//106 20//106 53//106
f 20//107 7//107 44//107
f 42//108 53//108 44//108
f 10//109 31//109 55//109
f 55//110 31//110 5//110
f 21//111 10//111 40//111
f 12//112 33//112 57//112
f 57//113 33//113 23//113
f 26//114 4//114 24//114
f 24//115 12//115 37//115
f 36//116 58//116 37//116
f 13//117 1//117 59//117
f 28//118 19//118 34//118
f 25//119 4//119 35//119
f 32//120 65//120 21//120
f 13//121 36//121 63//121
f 63//122 36//122 15//122
f 63//123 38//123 6//123
f 64//124 39//124 16//124
f 64//125 41//125 12//125
f 32//126 11//126 42//126
f 42//127 17//127 45//127
f 21//128 65//128 45//128
