# Blender 4.1.1
# www.blender.org
mtllib Cube.075_Cube.079.mtl
o Cube.075_Cube.079
v -5.705583 -6.848707 -1.811274
v -5.770041 -6.856193 -1.815808
v -5.741247 -6.794315 -2.302194
v -5.692165 -6.929620 -1.817486
v -5.730370 -6.875206 -2.314780
v -5.689991 -6.817788 -2.054955
v -5.753493 -6.814986 -2.077317
v -5.736217 -6.852428 -1.805249
v -5.733368 -6.853780 -2.319201
v -5.748081 -6.909025 -2.070323
v -5.763388 -6.898270 -1.810829
v -5.681317 -6.902802 -2.065223
v -5.696125 -6.888450 -1.812941
v -5.703556 -6.826474 -2.330481
v -5.678276 -6.857933 -2.059312
v -5.714913 -6.908322 -2.068094
v -5.766721 -6.864940 -2.065911
v -5.727872 -6.816379 -2.057220
v -5.680415 -6.785020 -2.310140
v -5.764831 -6.842669 -1.940906
v -5.760194 -6.924193 -1.950990
v -5.783195 -6.878482 -1.816859
v -5.668967 -6.867363 -2.316319
v -5.690810 -6.911701 -1.944923
v -5.758525 -6.938399 -1.816359
v -5.695543 -6.908851 -1.816958
v -5.700765 -6.827927 -1.934895
v -5.707206 -6.788836 -2.309678
v -5.750594 -6.799205 -2.179008
v -5.736803 -6.814992 -2.326609
v -5.741704 -6.893464 -2.189976
v -5.765555 -6.917481 -1.821644
v -5.677361 -6.886424 -2.184928
v -5.676459 -6.806710 -2.311303
v -5.721075 -6.911816 -1.817083
v -5.695614 -6.877194 -1.940838
v -5.684033 -6.876090 -2.061996
v -5.688827 -6.839197 -2.057607
v -5.733869 -6.918257 -1.939485
v -5.731425 -6.903583 -2.068555
v -5.703075 -6.903216 -2.066679
v -5.768129 -6.882771 -1.946227
v -5.748520 -6.846996 -2.184681
v -5.755930 -6.845208 -2.062702
v -5.747441 -6.884504 -2.067159
v -5.720218 -6.798773 -2.176845
v -5.705857 -6.819656 -2.056216
v -5.733050 -6.801748 -2.179068
v -5.704436 -6.802692 -2.176049
v -5.717723 -6.824661 -1.935574
v -5.757308 -6.869637 -2.188245
v -5.752572 -6.816449 -2.182177
v -5.766120 -6.858279 -1.942978
v -5.706038 -6.883492 -2.211519
v -5.730220 -6.886750 -2.188380
v -5.683064 -6.833519 -2.194517
v -5.682631 -6.864641 -2.182559
v -5.698122 -6.897220 -1.943550
v -5.736339 -6.872951 -1.816014
v -5.718004 -6.873653 -2.315074
v -5.688087 -6.823932 -2.309798
v -5.724815 -6.790685 -2.325681
v -5.699671 -6.858384 -1.938704
v -5.709954 -6.916733 -1.946799
v -5.771564 -6.899704 -1.948605
v -5.741215 -6.835277 -1.925194
vn -0.3494 0.9330 0.0863
vn 0.2640 -0.9555 -0.1316
vn 0.7135 0.3907 -0.5817
vn 0.0240 -0.1855 -0.9824
vn 0.1569 0.0345 0.9870
vn -0.3527 0.9241 0.1468
vn 0.4058 -0.9044 -0.1315
vn 0.0301 -0.9895 -0.1416
vn 0.0392 -0.9943 -0.0990
vn 0.2620 -0.9594 -0.1045
vn 0.8721 0.4860 0.0569
vn 0.9802 0.1737 0.0953
vn -0.0019 -0.0257 0.9997
vn 0.0176 -0.1927 0.9811
vn -0.2080 0.0551 -0.9766
vn -0.0419 0.1303 -0.9906
vn 0.5796 0.4365 -0.6882
vn 0.0318 -0.9941 -0.1034
vn -0.0531 0.9893 0.1362
vn 0.9996 0.0273 0.0064
vn 0.9986 0.0304 0.0440
vn -0.7782 0.4022 -0.4823
vn 0.7567 -0.4005 -0.5167
vn -0.0467 0.2481 0.9676
vn 0.9538 -0.2999 -0.0174
vn 0.9978 0.0501 0.0439
vn -0.2698 -0.9532 -0.1366
vn 0.1277 -0.9826 -0.1352
vn 0.0279 -0.9905 -0.1346
vn -0.6968 -0.7150 -0.0574
vn -0.8716 0.4864 -0.0601
vn -0.9983 0.0324 -0.0490
vn 0.2306 0.9604 0.1561
vn -0.2379 0.9681 0.0781
vn 0.1422 0.9775 0.1558
vn -0.1626 0.9845 0.0652
vn 0.1435 0.9884 0.0501
vn -0.1266 0.9824 0.1376
vn -0.0800 0.9772 0.1968
vn -0.1385 0.9848 0.1050
vn 0.2354 0.9672 0.0954
vn 0.1860 0.9808 0.0592
vn 0.1860 0.9808 0.0591
vn 0.1861 0.9807 0.0592
vn -0.3752 0.9222 0.0941
vn -0.7129 -0.7007 -0.0279
vn -0.8317 -0.5335 -0.1536
vn -0.9186 0.3758 -0.1224
vn -0.9971 0.0757 -0.0098
vn -0.9905 -0.0842 -0.1090
vn -0.9869 -0.1223 -0.1050
vn -0.8600 0.5092 -0.0349
vn -0.9930 0.0919 -0.0745
vn -0.8799 0.4714 0.0599
vn 0.3203 -0.9385 -0.1286
vn 0.1238 -0.9864 -0.1080
vn 0.1220 -0.9884 -0.0904
vn 0.2619 -0.9595 -0.1041
vn 0.9949 0.0986 0.0209
vn -0.2711 -0.9558 -0.1138
vn 0.9886 0.1139 0.0987
vn 0.8933 0.4488 0.0230
vn 0.9971 0.0390 0.0654
vn 0.8846 0.4294 0.1818
vn 0.9458 -0.3128 0.0876
vn -0.1018 -0.0673 0.9925
vn -0.2195 -0.4522 0.8645
vn -0.0134 -0.0392 0.9991
vn -0.0742 -0.0370 -0.9966
vn 0.2247 -0.4537 0.8624
vn -0.1966 -0.2495 -0.9482
vn 0.0021 -0.2018 -0.9794
vn -0.1254 0.2032 0.9711
vn -0.9459 -0.3236 -0.0224
vn -0.0876 0.0811 -0.9928
vn 0.9727 0.2303 0.0276
vn -0.0273 -0.4880 0.8724
vn 0.8667 0.4740 0.1555
vn 0.9955 0.0243 0.0914
vn 0.4028 -0.9118 -0.0797
vn 0.2585 -0.9647 -0.0510
vn -0.9794 0.1885 0.0727
vn -0.9613 0.2185 -0.1676
vn -0.9946 0.0384 -0.0961
vn -0.1544 0.9771 0.1462
vn -0.3863 0.9097 0.1525
vn 0.9923 -0.1200 -0.0312
vn 0.9994 0.0003 -0.0353
vn 0.9978 0.0488 0.0440
vn -0.0323 -0.9845 -0.1724
vn 0.0243 -0.9905 -0.1354
vn -0.9883 0.0967 -0.1183
vn -0.9902 -0.1266 -0.0583
vn -0.8365 -0.5479 0.0009
vn 0.1395 0.9802 0.1404
vn -0.0575 0.9882 0.1418
vn -0.2338 0.9710 0.0497
vn -0.1217 0.9902 0.0679
vn -0.0237 0.9917 0.1265
vn 0.1798 0.9689 0.1699
vn -0.1225 0.9898 0.0722
vn -0.1227 0.9898 0.0728
vn -0.1227 0.9898 0.0729
vn 0.1445 0.9880 0.0552
vn -0.9242 0.3722 -0.0854
vn -0.9644 -0.1757 -0.1976
vn -0.9932 0.1158 -0.0103
vn -0.9895 0.1264 -0.0701
vn -0.9881 -0.1083 -0.1090
vn -0.9957 0.0865 -0.0321
vn -0.9963 0.0447 -0.0737
vn -0.9930 0.0913 -0.0745
vn 0.5116 -0.8551 -0.0839
vn 0.5113 -0.8558 -0.0788
vn 0.3178 -0.9441 -0.0877
vn 0.9716 0.2282 0.0633
vn 0.9699 0.2244 0.0945
vn 0.9866 0.1596 0.0329
vn 0.9922 0.0906 0.0850
vn 0.9863 -0.1361 0.0930
vn -0.1012 -0.0657 0.9927
vn -0.0242 0.0492 -0.9985
vn 0.0164 0.0041 0.9999
vn -0.9075 -0.4198 -0.0158
vn 0.9778 0.2084 0.0223
vn 0.9668 0.1890 0.1722
vn 0.9944 0.0420 0.0974
vn 0.0419 -0.9966 -0.0708
vn 0.0263 -0.9935 -0.1105
vn -0.9952 0.0870 0.0448
vn -0.7114 -0.6939 -0.1117
vn -0.8908 -0.3911 -0.2314
s 0
usemtl Fence
f 20//1 2//1 66//1
f 24//2 4//2 64//2
f 14//3 28//3 61//3
f 60//4 9//4 30//4
f 59//5 11//5 35//5
f 66//6 8//6 50//6
f 54//7 41//7 16//7
f 23//8 33//8 54//8
f 60//9 54//9 55//9
f 39//10 25//10 21//10
f 56//11 38//11 15//11
f 34//12 19//12 56//12
f 35//13 4//13 26//13
f 13//14 35//14 26//14
f 23//15 61//15 34//15
f 60//16 61//16 23//16
f 14//17 62//17 28//17
f 64//18 4//18 39//18
f 7//19 66//19 18//19
f 26//20 36//20 13//20
f 63//21 27//21 1//21
f 30//22 3//22 62//22
f 60//23 14//23 61//23
f 59//24 22//24 11//24
f 57//25 15//25 37//25
f 6//26 56//26 19//26
f 55//27 16//27 40//27
f 39//28 4//28 25//28
f 41//29 33//29 12//29
f 22//30 42//30 11//30
f 44//31 43//31 17//31
f 45//32 31//32 10//32
f 18//33 49//33 46//33
f 7//34 46//34 48//34
f 48//35 29//35 7//35
f 48//36 28//36 62//36
f 48//37 3//37 29//37
f 6//38 49//38 47//38
f 1//39 50//39 8//39
f 19//40 28//40 49//40
f 28//41 46//41 49//41
f 27//42 47//43 50//44
f 50//45 18//45 66//45
f 17//46 51//46 45//46
f 51//47 5//47 31//47
f 9//48 51//48 43//48
f 7//49 52//49 44//49
f 52//50 3//50 30//50
f 52//51 9//51 43//51
f 2//52 53//52 22//52
f 20//53 44//53 53//53
f 42//54 44//54 17//54
f 10//55 55//55 40//55
f 60//56 23//56 54//56
f 55//57 5//57 60//57
f 21//58 40//58 39//58
f 12//59 57//59 37//59
f 40//60 16//60 39//60
f 57//61 23//61 34//61
f 26//62 24//62 58//62
f 34//63 56//63 57//63
f 24//64 37//64 58//64
f 36//65 37//65 15//65
f 13//66 59//66 35//66
f 8//67 2//67 59//67
f 2//68 22//68 59//68
f 28//69 34//69 61//69
f 1//70 8//70 59//70
f 60//71 30//71 14//71
f 60//72 5//72 9//72
f 25//73 35//73 32//73
f 32//74 21//74 25//74
f 14//75 30//75 62//75
f 13//76 63//76 1//76
f 11//77 32//77 35//77
f 63//78 15//78 38//78
f 63//79 6//79 27//79
f 64//80 16//80 41//80
f 64//81 12//81 24//81
f 32//82 42//82 65//82
f 42//83 45//83 65//83
f 21//84 45//84 10//84
f 66//85 2//85 8//85
f 7//86 20//86 66//86
f 26//87 58//87 36//87
f 57//88 56//88 15//88
f 6//89 38//89 56//89
f 55//90 54//90 16//90
f 41//91 54//91 33//91
f 22//92 53//92 42//92
f 44//93 52//93 43//93
f 45//94 51//94 31//94
f 18//95 47//95 49//95
f 7//96 18//96 46//96
f 48//97 46//97 28//97
f 48//98 62//98 3//98
f 6//99 19//99 49//99
f 1//100 27//100 50//100
f 27//101 6//102 47//103
f 50//104 47//104 18//104
f 17//105 43//105 51//105
f 51//106 9//106 5//106
f 7//107 29//107 52//107
f 52//108 29//108 3//108
f 52//109 30//109 9//109
f 2//110 20//110 53//110
f 20//111 7//111 44//111
f 42//112 53//112 44//112
f 10//113 31//113 55//113
f 55//114 31//114 5//114
f 21//115 10//115 40//115
f 12//116 33//116 57//116
f 57//117 33//117 23//117
f 26//118 4//118 24//118
f 24//119 12//119 37//119
f 36//120 58//120 37//120
f 13//121 1//121 59//121
f 28//122 19//122 34//122
f 25//123 4//123 35//123
f 32//124 65//124 21//124
f 13//125 36//125 63//125
f 63//126 36//126 15//126
f 63//127 38//127 6//127
f 64//128 39//128 16//128
f 64//129 41//129 12//129
f 32//130 11//130 42//130
f 42//131 17//131 45//131
f 21//132 65//132 45//132
