# Blender 4.1.1
# www.blender.org
mtllib Cube.008.mtl
o Cube.008
v 2.210899 -1.713427 -1.161841
v 2.208800 -1.714060 -1.222962
v 2.236271 -1.818418 -1.161625
v 2.234172 -1.819051 -1.222746
v 3.285316 -1.453865 -1.201420
v 3.283217 -1.454497 -1.262541
v 3.310688 -1.558855 -1.201204
v 3.318289 -1.559488 -1.262325
v 2.209850 -1.713744 -1.192401
v 2.221486 -1.766555 -1.222854
v 2.235222 -1.818734 -1.192186
v 2.223585 -1.765923 -1.161733
v 2.771381 -1.689269 -1.242536
v 3.309638 -1.559172 -1.231765
v 2.773479 -1.688637 -1.181415
v 3.295903 -1.506993 -1.262433
v 3.284266 -1.454181 -1.231980
v 3.298002 -1.506360 -1.201312
v 2.746009 -1.584279 -1.242751
v 2.748107 -1.583646 -1.181630
v 2.758695 -1.636774 -1.242644
v 2.760793 -1.636141 -1.181522
v 2.747058 -1.583962 -1.212191
v 3.303117 -1.506676 -1.231873
v 2.772430 -1.688953 -1.211975
v 2.222536 -1.766239 -1.192293
vn -0.9714 -0.2347 0.0358
vn 0.2349 -0.9720 0.0020
vn 0.9301 0.3343 0.1522
vn -0.2349 0.9720 -0.0020
vn 0.0343 0.0103 0.9994
vn -0.0343 -0.0103 -0.9994
vn 0.9918 0.1231 -0.0353
vn 0.8909 0.3804 0.2483
vn 0.9182 0.3293 -0.2202
vn 0.9714 0.2347 -0.0358
vn -0.0343 -0.0104 -0.9994
vn -0.0324 -0.0159 -0.9993
vn 0.9597 0.2322 0.1582
vn 0.9660 0.1195 -0.2293
vn 0.2328 -0.9696 0.0759
s 0
usemtl CHIM
f 26//1 3//1 12//1
f 14//2 15//2 25//2
f 17//3 18//3 24//3
f 9//4 20//4 23//4
f 15//5 18//5 22//5
f 13//6 10//6 21//6
f 21//6 2//6 19//6
f 16//6 19//6 6//6
f 16//6 13//6 21//6
f 22//5 5//5 20//5
f 1//5 22//5 20//5
f 12//5 15//5 22//5
f 23//4 5//4 17//4
f 19//4 17//4 6//4
f 19//4 9//4 23//4
f 24//7 7//7 14//7
f 16//8 14//8 8//8
f 16//9 17//9 24//9
f 11//2 15//2 3//2
f 13//2 11//2 4//2
f 13//2 14//2 25//2
f 9//1 12//1 1//1
f 10//1 9//1 2//1
f 10//1 11//1 26//1
f 26//1 11//1 3//1
f 14//2 7//2 15//2
f 17//10 5//10 18//10
f 9//4 1//4 20//4
f 15//5 7//5 18//5
f 13//11 4//11 10//11
f 21//6 10//6 2//6
f 16//6 21//6 19//6
f 16//12 8//12 13//12
f 22//5 18//5 5//5
f 1//5 12//5 22//5
f 12//5 3//5 15//5
f 23//4 20//4 5//4
f 19//4 23//4 17//4
f 19//4 2//4 9//4
f 24//13 18//13 7//13
f 16//14 24//14 14//14
f 16//10 6//10 17//10
f 11//2 25//2 15//2
f 13//2 25//2 11//2
f 13//15 8//15 14//15
f 9//1 26//1 12//1
f 10//1 26//1 9//1
f 10//1 4//1 11//1
