# Blender 4.1.1
# www.blender.org
mtllib Plane.031.mtl
o Plane.031
v -0.169096 -5.019966 -0.890044
v -0.209820 -5.020145 -0.695871
v -0.166868 -5.071825 -0.889625
v -0.207591 -5.072004 -0.695451
v -0.162385 -5.045870 -0.916523
v -0.203731 -5.020610 -0.785650
v -0.208705 -5.046075 -0.695661
v -0.201502 -5.072469 -0.785231
v -0.205072 -5.046849 -0.810649
v -0.114800 -5.148276 -0.829544
v -0.132987 -5.146946 -0.631986
v -0.064049 -5.138393 -0.824939
v -0.082236 -5.137064 -0.627380
v -0.086924 -5.143517 -0.854396
v -0.122459 -5.159796 -0.720427
v -0.107612 -5.142005 -0.629683
v -0.071708 -5.149914 -0.715821
v -0.093435 -5.162463 -0.742007
v 0.039840 -5.022137 -0.852627
v 0.037846 -5.002158 -0.655248
v 0.021693 -4.973770 -0.857706
v 0.019699 -4.953790 -0.660327
v 0.031040 -5.000700 -0.882296
v 0.050434 -5.006779 -0.744230
v 0.028773 -4.977974 -0.657787
v 0.032288 -4.958412 -0.749309
v 0.048710 -4.982384 -0.771009
v -0.272328 -4.840081 -0.931191
v -0.306859 -4.842289 -0.735834
v -0.314074 -4.810043 -0.938230
v -0.348604 -4.812251 -0.742873
v -0.288455 -4.824759 -0.961562
v -0.284255 -4.831119 -0.822217
v -0.327732 -4.827270 -0.739353
v -0.326001 -4.801081 -0.829256
v -0.296611 -4.809646 -0.848702
v -0.001851 -5.009983 -0.862191
v -0.022451 -4.998973 -0.665172
v -0.036362 -5.048731 -0.863634
v -0.056962 -5.037722 -0.666615
v -0.016275 -5.030870 -0.889992
v -0.022430 -4.995642 -0.755098
v -0.039707 -5.018347 -0.665894
v -0.056942 -5.034390 -0.756541
v -0.042787 -5.011328 -0.780687
v -0.129679 -4.825689 -0.903885
v -0.166846 -4.807252 -0.709874
v -0.110371 -4.873168 -0.895675
v -0.147538 -4.854732 -0.701663
v -0.114916 -4.851963 -0.926447
v -0.161498 -4.820444 -0.798728
v -0.157192 -4.830992 -0.705768
v -0.142190 -4.867923 -0.790518
v -0.154212 -4.849413 -0.819294
v -0.251763 -5.166213 -0.902701
v -0.288930 -5.147777 -0.708690
v -0.285478 -5.128054 -0.912786
v -0.322645 -5.109618 -0.718775
v -0.263512 -5.149668 -0.934410
v -0.263037 -5.147676 -0.794871
v -0.305788 -5.128697 -0.713732
v -0.296753 -5.109517 -0.804956
v -0.269778 -5.125749 -0.822960
vn 0.9855 0.1671 0.0300
vn 0.9033 0.2235 0.3662
vn 0.9189 -0.1393 0.3692
vn 0.9962 -0.0814 0.0320
vn -0.2904 0.9343 -0.2068
vn -0.3764 0.9169 0.1328
vn -0.0212 0.9861 0.1650
vn -0.0472 0.9817 -0.1847
vn -0.8701 -0.4741 -0.1347
vn -0.8452 -0.4894 0.2147
vn -0.9721 -0.1510 0.1792
vn -0.9571 -0.2423 -0.1591
vn -0.4251 -0.8668 -0.2607
vn -0.4342 -0.8965 0.0887
vn -0.7263 -0.6863 0.0394
vn -0.6252 -0.7228 -0.2944
vn 0.8234 -0.5646 -0.0566
vn 0.8189 -0.4968 0.2874
vn 0.5774 -0.7679 0.2773
vn 0.6580 -0.7503 -0.0635
vn 0.8744 0.4820 -0.0553
vn 0.7802 0.5630 0.2727
vn 0.9153 0.2308 0.3302
vn 0.9669 0.2545 -0.0159
vn -0.6068 -0.7636 -0.2206
vn -0.6278 -0.7675 0.1294
vn -0.8637 -0.5005 0.0589
vn -0.7683 -0.5808 -0.2690
vn 0.9968 0.0434 0.0674
vn 0.8658 0.4081 0.2897
vn 0.8974 -0.3276 0.2957
vn -0.1744 0.9713 -0.1619
vn -0.5442 0.8374 0.0502
vn 0.1757 0.9776 0.1156
vn -0.9264 -0.3594 -0.1124
vn -0.7378 -0.6546 0.1649
vn -0.9952 0.0315 0.0928
vn -0.9264 -0.3593 -0.1124
vn -0.5387 -0.8061 -0.2452
vn -0.2472 -0.9675 0.0525
vn -0.8394 -0.5414 -0.0473
vn 0.7470 -0.6644 -0.0245
vn 0.9171 -0.3319 0.2207
vn 0.4276 -0.8815 0.2002
vn 0.7470 -0.6644 -0.0244
vn 0.9263 0.3767 -0.0002
vn 0.6831 0.7099 0.1713
vn 0.9570 0.0364 0.2878
vn -0.7038 -0.6779 -0.2122
vn -0.4613 -0.8812 0.1032
vn -0.9396 -0.3399 -0.0398
vn -0.7038 -0.6779 -0.2123
s 0
usemtl Material.001
f 7//1 8//1 9//1
f 9//2 3//2 5//2
f 1//3 9//3 5//3
f 6//4 7//4 9//4
f 16//5 17//5 18//5
f 18//6 12//6 14//6
f 10//7 18//7 14//7
f 15//8 16//8 18//8
f 25//9 26//9 27//9
f 27//10 21//10 23//10
f 19//11 27//11 23//11
f 24//12 25//12 27//12
f 34//13 35//13 36//13
f 36//14 30//14 32//14
f 28//15 36//15 32//15
f 33//16 34//16 36//16
f 43//17 44//17 45//17
f 45//18 39//18 41//18
f 37//19 45//19 41//19
f 42//20 43//20 45//20
f 52//21 53//21 54//21
f 54//22 48//22 50//22
f 46//23 54//23 50//23
f 51//24 52//24 54//24
f 61//25 62//25 63//25
f 63//26 57//26 59//26
f 55//27 63//27 59//27
f 60//28 61//28 63//28
f 7//29 4//29 8//29
f 9//30 8//30 3//30
f 1//31 6//31 9//31
f 6//29 2//29 7//29
f 16//32 13//32 17//32
f 18//33 17//33 12//33
f 10//34 15//34 18//34
f 15//32 11//32 16//32
f 25//35 22//35 26//35
f 27//36 26//36 21//36
f 19//37 24//37 27//37
f 24//38 20//38 25//38
f 34//39 31//39 35//39
f 36//40 35//40 30//40
f 28//41 33//41 36//41
f 33//39 29//39 34//39
f 43//42 40//42 44//42
f 45//43 44//43 39//43
f 37//44 42//44 45//44
f 42//45 38//45 43//45
f 52//46 49//46 53//46
f 54//47 53//47 48//47
f 46//48 51//48 54//48
f 51//46 47//46 52//46
f 61//49 58//49 62//49
f 63//50 62//50 57//50
f 55//51 60//51 63//51
f 60//52 56//52 61//52
