# Blender 4.1.1
# www.blender.org
mtllib Plane.031.mtl
o Plane.031
v -0.041376 4.927791 -4.139571
v -0.152521 4.397847 -4.140059
v -0.035295 4.926647 -4.281107
v -0.146438 4.396700 -4.281594
v -0.023060 5.000059 -4.210269
v -0.135903 4.642875 -4.141328
v -0.149478 4.397273 -4.210828
v -0.129820 4.641731 -4.282865
v -0.139563 4.711103 -4.212940
v 0.106811 4.762671 -4.489758
v 0.057174 4.223489 -4.486129
v 0.245323 4.750104 -4.462786
v 0.195686 4.210917 -4.459158
v 0.182891 4.830499 -4.476770
v 0.085908 4.464865 -4.521200
v 0.126429 4.217203 -4.472643
v 0.224419 4.452294 -4.494229
v 0.165121 4.523762 -4.528480
v 0.528861 4.825671 -4.145495
v 0.523419 4.286977 -4.090968
v 0.479333 4.839533 -4.013491
v 0.473891 4.300838 -3.958961
v 0.504843 4.906646 -4.086989
v 0.557774 4.529830 -4.103580
v 0.498656 4.293906 -4.024963
v 0.508250 4.543692 -3.971575
v 0.553069 4.602917 -4.037001
v -0.323121 5.040092 -3.648623
v -0.417364 4.506916 -3.654647
v -0.437056 5.059303 -3.566641
v -0.531296 4.526127 -3.572666
v -0.367135 5.122982 -3.606805
v -0.355672 4.742676 -3.624162
v -0.474332 4.516520 -3.613657
v -0.469607 4.761887 -3.542181
v -0.389395 4.814960 -3.565557
v 0.415076 4.851774 -4.112325
v 0.358854 4.314062 -4.082275
v 0.320887 4.855712 -4.218077
v 0.264665 4.318000 -4.188031
v 0.375709 4.927649 -4.169331
v 0.358911 4.559491 -4.073185
v 0.311758 4.316032 -4.135151
v 0.264719 4.563430 -4.178937
v 0.303352 4.629330 -4.115995
v 0.066203 4.965568 -3.609343
v -0.035235 4.436065 -3.559022
v 0.118899 4.943160 -3.738924
v 0.017461 4.413655 -3.688607
v 0.106494 5.027144 -3.681050
v -0.020639 4.678569 -3.595027
v -0.008887 4.424859 -3.623816
v 0.032057 4.656161 -3.724607
v -0.000754 4.734698 -3.674089
v -0.266994 4.962335 -4.538714
v -0.368432 4.432832 -4.488398
v -0.359010 4.989860 -4.434569
v -0.460448 4.460357 -4.384253
v -0.299060 5.048876 -4.493560
v -0.297763 4.668041 -4.488122
v -0.414441 4.446593 -4.436323
v -0.389782 4.695565 -4.383977
v -0.316161 4.744703 -4.428278
vn 0.9855 -0.0300 0.1671
vn 0.9033 -0.3663 0.2235
vn 0.9189 -0.3692 -0.1393
vn 0.9962 -0.0320 -0.0814
vn -0.2904 0.2068 0.9343
vn -0.3764 -0.1328 0.9169
vn -0.0212 -0.1650 0.9861
vn -0.0472 0.1848 0.9817
vn -0.8701 0.1347 -0.4741
vn -0.8452 -0.2148 -0.4894
vn -0.9721 -0.1792 -0.1510
vn -0.9571 0.1591 -0.2423
vn -0.4251 0.2607 -0.8668
vn -0.4342 -0.0887 -0.8964
vn -0.7263 -0.0394 -0.6863
vn -0.6251 0.2944 -0.7229
vn 0.8234 0.0566 -0.5647
vn 0.8189 -0.2874 -0.4968
vn 0.5774 -0.2773 -0.7679
vn 0.6580 0.0635 -0.7503
vn 0.8744 0.0553 0.4820
vn 0.7802 -0.2727 0.5630
vn 0.9153 -0.3302 0.2308
vn 0.9669 0.0159 0.2545
vn -0.6068 0.2207 -0.7636
vn -0.6278 -0.1294 -0.7675
vn -0.8637 -0.0589 -0.5005
vn -0.7683 0.2690 -0.5808
vn 0.9968 -0.0674 0.0434
vn 0.8657 -0.2897 0.4081
vn 0.8974 -0.2957 -0.3276
vn -0.1744 0.1619 0.9713
vn -0.5442 -0.0502 0.8374
vn 0.1758 -0.1156 0.9776
vn -0.9264 0.1124 -0.3594
vn -0.7378 -0.1649 -0.6546
vn -0.9952 -0.0928 0.0315
vn -0.5387 0.2452 -0.8061
vn -0.2472 -0.0525 -0.9675
vn -0.8394 0.0473 -0.5414
vn 0.7470 0.0245 -0.6644
vn 0.9171 -0.2207 -0.3319
vn 0.4276 -0.2002 -0.8815
vn 0.7470 0.0244 -0.6644
vn 0.9263 0.0002 0.3767
vn 0.6831 -0.1713 0.7100
vn 0.9570 -0.2878 0.0364
vn -0.7038 0.2122 -0.6779
vn -0.4613 -0.1032 -0.8812
vn -0.9396 0.0398 -0.3399
vn -0.7038 0.2123 -0.6779
s 0
usemtl Material.001
f 7//1 8//1 9//1
f 9//2 3//2 5//2
f 1//3 9//3 5//3
f 6//4 7//4 9//4
f 16//5 17//5 18//5
f 18//6 12//6 14//6
f 10//7 18//7 14//7
f 15//8 16//8 18//8
f 25//9 26//9 27//9
f 27//10 21//10 23//10
f 19//11 27//11 23//11
f 24//12 25//12 27//12
f 34//13 35//13 36//13
f 36//14 30//14 32//14
f 28//15 36//15 32//15
f 33//16 34//16 36//16
f 43//17 44//17 45//17
f 45//18 39//18 41//18
f 37//19 45//19 41//19
f 42//20 43//20 45//20
f 52//21 53//21 54//21
f 54//22 48//22 50//22
f 46//23 54//23 50//23
f 51//24 52//24 54//24
f 61//25 62//25 63//25
f 63//26 57//26 59//26
f 55//27 63//27 59//27
f 60//28 61//28 63//28
f 7//29 4//29 8//29
f 9//30 8//30 3//30
f 1//31 6//31 9//31
f 6//29 2//29 7//29
f 16//32 13//32 17//32
f 18//33 17//33 12//33
f 10//34 15//34 18//34
f 15//32 11//32 16//32
f 25//35 22//35 26//35
f 27//36 26//36 21//36
f 19//37 24//37 27//37
f 24//35 20//35 25//35
f 34//38 31//38 35//38
f 36//39 35//39 30//39
f 28//40 33//40 36//40
f 33//38 29//38 34//38
f 43//41 40//41 44//41
f 45//42 44//42 39//42
f 37//43 42//43 45//43
f 42//44 38//44 43//44
f 52//45 49//45 53//45
f 54//46 53//46 48//46
f 46//47 51//47 54//47
f 51//45 47//45 52//45
f 61//48 58//48 62//48
f 63//49 62//49 57//49
f 55//50 60//50 63//50
f 60//51 56//51 61//51
