# Blender 4.1.1
# www.blender.org
mtllib Cube.013.mtl
o Cube.013
v 9.656210 5.679572 4.257818
v 9.660045 5.846449 4.257234
v 9.590029 5.682100 4.545076
v 9.593863 5.848977 4.544492
v 6.715451 5.744743 3.579725
v 6.719283 5.911619 3.579140
v 6.649270 5.747273 3.866983
v 6.653102 5.914150 3.866398
v 9.658129 5.763011 4.257526
v 9.626953 5.847713 4.400863
v 9.591948 5.765538 4.544784
v 9.623121 5.680836 4.401447
v 8.123482 5.881563 4.205443
v 6.651186 5.830709 3.866690
v 8.119650 5.714686 4.206030
v 6.686194 5.912884 3.722769
v 6.717367 5.828184 3.579432
v 6.682359 5.746009 3.723353
v 8.189664 5.879035 3.918185
v 8.185829 5.712159 3.918773
v 8.156572 5.880300 4.061814
v 8.152740 5.713423 4.062399
v 8.187748 5.795597 3.918480
v 6.684275 5.829448 3.723061
v 8.121567 5.798125 4.205735
v 9.625037 5.764275 4.401155
v 9.659087 5.804729 4.257378
v 9.610409 5.848343 4.472677
v 9.590987 5.723819 4.544929
v 9.639666 5.680203 4.329633
v 7.388294 5.897857 4.035922
v 6.650228 5.788990 3.866835
v 8.854840 5.698393 4.375552
v 6.702739 5.912253 3.650955
v 6.716409 5.786465 3.579579
v 6.665814 5.746640 3.795168
v 8.924853 5.862742 4.087709
v 7.450640 5.728452 3.749249
v 9.657168 5.721292 4.257670
v 9.643500 5.847079 4.329048
v 9.592906 5.807258 4.544636
v 9.606577 5.681467 4.473261
v 8.858672 5.865270 4.374968
v 6.652144 5.872431 3.866542
v 7.384459 5.730980 4.036507
v 6.669649 5.913517 3.794583
v 6.718325 5.869903 3.579284
v 6.698906 5.745376 3.651539
v 7.454474 5.895329 3.748662
v 8.921021 5.695866 4.088294
v 8.891764 5.864006 4.231339
v 7.421382 5.896593 3.892293
v 8.173119 5.879666 3.990000
v 8.140027 5.880930 4.133629
v 7.417551 5.729716 3.892878
v 8.887932 5.697129 4.231923
v 8.169285 5.712790 3.990587
v 8.136195 5.714053 4.134216
v 8.186790 5.753878 3.918625
v 8.188706 5.837317 3.918333
v 7.452556 5.811891 3.748956
v 8.922937 5.779304 4.088002
v 6.683317 5.787726 3.723208
v 6.685236 5.871167 3.722917
v 6.667730 5.830078 3.794876
v 6.700822 5.828815 3.651247
v 8.120609 5.756406 4.205883
v 8.122524 5.839844 4.205591
v 8.856756 5.781832 4.375259
v 7.386375 5.814418 4.036214
v 9.696683 5.722555 4.401299
v 9.625995 5.805994 4.401007
v 9.714185 5.763641 4.329340
v 9.681095 5.764905 4.472970
v 9.682054 5.806624 4.472822
v 9.642540 5.805361 4.329193
v 9.713227 5.721922 4.329488
v 7.387335 5.856137 4.036067
v 8.857714 5.823551 4.375115
v 8.855798 5.740112 4.375407
v 6.701780 5.870534 3.651099
v 6.668688 5.871798 3.794728
v 6.666772 5.788359 3.795023
v 8.923895 5.821023 4.087856
v 7.453514 5.853610 3.748808
v 7.451599 5.770172 3.749101
v 8.871385 5.697760 4.303737
v 8.904477 5.696496 4.160109
v 7.434095 5.729083 3.821063
v 7.404839 5.897223 3.964105
v 7.437927 5.895960 3.820478
v 8.908309 5.863373 4.159524
v 8.875219 5.864636 4.303153
v 7.401004 5.730347 3.964692
v 8.921979 5.737585 4.088149
v 6.699864 5.787095 3.651391
v 7.385417 5.772699 4.036359
v 9.607534 5.723186 4.473114
vn 0.9742 -0.0216 0.2247
vn -0.2245 0.0086 0.9744
vn -0.9742 0.0216 -0.2246
vn 0.2245 -0.0085 -0.9744
vn -0.0230 -0.9997 0.0035
vn 0.0230 0.9997 -0.0035
vn 0.2245 -0.0086 -0.9744
vn -0.2245 0.0085 0.9744
vn 0.4899 -0.8634 0.1205
vn 0.4277 0.7363 0.5244
vn 0.6273 -0.0117 0.7787
vn 0.7882 -0.0203 -0.6151
vn 0.9742 -0.0216 0.2246
vn -0.9742 0.0217 -0.2246
vn -0.9742 0.0217 -0.2247
vn -0.9742 0.0216 -0.2247
vn 0.4199 -0.7384 0.5277
vn 0.4198 -0.7384 0.5277
vn 0.6272 -0.0117 0.7787
vn 0.4676 0.8018 -0.3721
vn 0.4677 0.8018 -0.3721
vn 0.4611 -0.8142 -0.3528
s 0
usemtl CHIM
f 98//1 3//1 42//1
f 97//2 7//2 45//2
f 96//3 5//3 48//3
f 39//4 50//4 95//4
f 94//5 7//5 36//5
f 93//6 4//6 28//6
f 92//6 10//6 40//6
f 91//6 21//6 53//6
f 31//6 54//6 90//6
f 55//5 48//5 89//5
f 88//5 22//5 57//5
f 33//5 58//5 87//5
f 86//7 20//7 38//7
f 60//7 61//7 85//7
f 27//7 62//7 84//7
f 63//3 36//3 83//3
f 82//3 24//3 65//3
f 81//3 17//3 66//3
f 67//8 33//8 80//8
f 79//8 25//8 69//8
f 44//2 70//2 78//2
f 71//9 30//9 77//9
f 76//10 26//10 73//10
f 41//11 74//11 75//11
f 72//12 74//12 26//12
f 28//13 72//13 10//13
f 28//10 41//10 75//10
f 76//13 9//13 27//13
f 2//13 76//13 27//13
f 40//1 72//1 76//1
f 39//13 30//13 1//13
f 9//12 77//12 39//12
f 73//13 71//13 77//13
f 78//8 25//8 68//8
f 13//2 78//2 68//2
f 8//8 78//8 31//8
f 41//2 69//2 11//2
f 4//8 79//8 41//8
f 43//2 68//2 79//2
f 29//2 33//2 3//2
f 69//8 29//8 11//8
f 69//2 67//2 80//2
f 81//14 24//14 64//14
f 34//3 64//3 16//3
f 6//3 81//3 34//3
f 44//3 65//3 14//3
f 46//3 44//3 8//3
f 46//15 64//15 82//15
f 83//3 7//3 32//3
f 14//3 83//3 32//3
f 65//3 63//3 83//3
f 84//7 23//7 60//7
f 37//7 60//7 19//7
f 2//7 84//7 37//7
f 85//7 17//7 47//7
f 6//4 85//4 47//4
f 49//7 60//7 85//7
f 35//7 38//7 5//7
f 61//7 35//7 17//7
f 23//4 86//4 61//4
f 87//5 22//5 56//5
f 42//5 56//5 12//5
f 3//5 87//5 42//5
f 88//5 20//5 50//5
f 1//5 88//5 50//5
f 12//5 88//5 30//5
f 38//5 48//5 5//5
f 20//5 89//5 38//5
f 57//5 55//5 89//5
f 90//6 21//6 52//6
f 46//6 52//6 16//6
f 46//6 31//6 90//6
f 49//6 53//6 19//6
f 34//6 49//6 6//6
f 16//6 91//6 34//6
f 92//6 2//6 37//6
f 53//6 37//6 19//6
f 53//6 51//6 92//6
f 93//6 10//6 51//6
f 54//6 51//6 21//6
f 54//6 43//6 93//6
f 94//5 18//5 55//5
f 58//5 55//5 22//5
f 15//5 94//5 58//5
f 59//7 50//7 20//7
f 23//4 95//4 59//4
f 62//7 39//7 95//7
f 96//3 18//3 63//3
f 66//16 63//16 24//16
f 66//3 35//3 96//3
f 97//2 15//2 67//2
f 25//2 97//2 67//2
f 70//8 32//8 97//8
f 98//17 12//17 71//17
f 26//10 98//10 71//10
f 11//18 98//18 74//18
f 98//1 29//1 3//1
f 97//2 32//2 7//2
f 96//16 35//16 5//16
f 39//7 1//7 50//7
f 94//5 45//5 7//5
f 93//6 43//6 4//6
f 92//6 51//6 10//6
f 91//6 52//6 21//6
f 31//6 13//6 54//6
f 55//5 18//5 48//5
f 88//5 56//5 22//5
f 33//5 15//5 58//5
f 86//7 59//7 20//7
f 60//7 23//7 61//7
f 27//7 9//7 62//7
f 63//3 18//3 36//3
f 82//15 64//15 24//15
f 81//3 47//3 17//3
f 67//2 15//2 33//2
f 79//8 68//8 25//8
f 44//2 14//2 70//2
f 71//9 12//9 30//9
f 76//1 72//1 26//1
f 41//19 11//19 74//19
f 72//12 75//12 74//12
f 28//20 75//20 72//20
f 28//1 4//1 41//1
f 76//21 73//21 9//21
f 2//13 40//13 76//13
f 40//13 10//13 72//13
f 39//22 77//22 30//22
f 9//12 73//12 77//12
f 73//10 26//10 71//10
f 78//2 70//2 25//2
f 13//8 31//8 78//8
f 8//8 44//8 78//8
f 41//8 79//8 69//8
f 4//2 43//2 79//2
f 43//2 13//2 68//2
f 29//8 80//8 33//8
f 69//2 80//2 29//2
f 69//2 25//2 67//2
f 81//16 66//16 24//16
f 34//3 81//3 64//3
f 6//3 47//3 81//3
f 44//3 82//3 65//3
f 46//14 82//14 44//14
f 46//3 16//3 64//3
f 83//3 36//3 7//3
f 14//3 65//3 83//3
f 65//3 24//3 63//3
f 84//7 62//7 23//7
f 37//7 84//7 60//7
f 2//4 27//4 84//4
f 85//7 61//7 17//7
f 6//7 49//7 85//7
f 49//7 19//7 60//7
f 35//7 86//7 38//7
f 61//4 86//4 35//4
f 23//4 59//4 86//4
f 87//5 58//5 22//5
f 42//5 87//5 56//5
f 3//5 33//5 87//5
f 88//5 57//5 20//5
f 1//5 30//5 88//5
f 12//5 56//5 88//5
f 38//5 89//5 48//5
f 20//5 57//5 89//5
f 57//5 22//5 55//5
f 90//6 54//6 21//6
f 46//6 90//6 52//6
f 46//6 8//6 31//6
f 49//6 91//6 53//6
f 34//6 91//6 49//6
f 16//6 52//6 91//6
f 92//6 40//6 2//6
f 53//6 92//6 37//6
f 53//6 21//6 51//6
f 93//6 28//6 10//6
f 54//6 93//6 51//6
f 54//6 13//6 43//6
f 94//5 36//5 18//5
f 58//5 94//5 55//5
f 15//5 45//5 94//5
f 59//4 95//4 50//4
f 23//7 62//7 95//7
f 62//7 9//7 39//7
f 96//16 48//16 18//16
f 66//3 96//3 63//3
f 66//3 17//3 35//3
f 97//2 45//2 15//2
f 25//8 70//8 97//8
f 70//8 14//8 32//8
f 98//13 42//13 12//13
f 26//22 74//22 98//22
f 11//1 29//1 98//1
