# Blender 4.1.1
# www.blender.org
mtllib Plane.036.mtl
o Plane.036
v -17.252356 10.325897 -10.599775
v -17.363764 9.823292 -10.767622
v -17.213104 10.361111 -10.731268
v -17.324512 9.858503 -10.899115
v -17.217419 10.412586 -10.642452
v -17.345694 10.058487 -10.699245
v -17.344139 9.840899 -10.833370
v -17.306438 10.093699 -10.830740
v -17.331924 10.143047 -10.748814
v -17.026926 10.247448 -10.938721
v -17.079594 9.730603 -11.091341
v -16.898756 10.218716 -10.885639
v -16.951422 9.701870 -11.038260
v -16.955603 10.304121 -10.891203
v -17.041807 9.970209 -11.052872
v -17.015507 9.716237 -11.064798
v -16.913635 9.941473 -10.999792
v -16.962717 10.023323 -11.026026
v -16.697468 10.189445 -10.504320
v -16.719172 9.656784 -10.599184
v -16.776611 10.171972 -10.388123
v -16.798315 9.639315 -10.482986
v -16.734056 10.253920 -10.433182
v -16.681202 9.891594 -10.538021
v -16.758743 9.648047 -10.541084
v -16.760344 9.874122 -10.421822
v -16.700981 9.945036 -10.457092
v -17.641094 10.326216 -10.173273
v -17.734793 9.820759 -10.343367
v -17.771009 10.331360 -10.116995
v -17.864704 9.825904 -10.287090
v -17.693174 10.398262 -10.121758
v -17.680466 10.035649 -10.237589
v -17.799751 9.823333 -10.315229
v -17.810377 10.040794 -10.181313
v -17.726568 10.092406 -10.170883
v -16.815687 10.213882 -10.491873
v -16.880966 9.692053 -10.620832
v -16.882282 10.251671 -10.611071
v -16.947561 9.729842 -10.740032
v -16.840012 10.304501 -10.533745
v -16.881432 9.926094 -10.546379
v -16.914263 9.710948 -10.680433
v -16.948021 9.963882 -10.665579
v -16.924875 10.008334 -10.580227
v -17.272490 10.217182 -10.068817
v -17.386433 9.701140 -10.186773
v -17.190895 10.225569 -10.184328
v -17.304838 9.709526 -10.302286
v -17.216030 10.292305 -10.110359
v -17.362160 9.943058 -10.152063
v -17.345636 9.705332 -10.244530
v -17.280565 9.951444 -10.267572
v -17.323835 10.016260 -10.206553
v -17.377340 10.478455 -11.015127
v -17.491283 9.962412 -11.133087
v -17.491121 10.484329 -10.930925
v -17.605064 9.968287 -11.048883
v -17.418570 10.552320 -10.956816
v -17.421116 10.183990 -11.053734
v -17.548176 9.965348 -11.090984
v -17.534895 10.189863 -10.969526
v -17.452587 10.243578 -10.981236
vn 0.9181 -0.1408 0.3704
vn 0.8227 -0.4736 0.3145
vn 0.9233 -0.3833 -0.0227
vn 0.9871 -0.0789 0.1395
vn -0.5009 -0.0231 0.8652
vn -0.5827 -0.3397 0.7383
vn -0.2541 -0.4134 0.8744
vn -0.2759 -0.0736 0.9584
vn -0.7330 0.3133 -0.6038
vn -0.7074 -0.0211 -0.7065
vn -0.9104 -0.0659 -0.4085
vn -0.8720 0.2826 -0.3997
vn -0.2072 0.5056 -0.8375
vn -0.2113 0.1775 -0.9612
vn -0.5443 0.1906 -0.8169
vn -0.4352 0.5147 -0.7387
vn 0.9336 0.1439 -0.3281
vn 0.9109 -0.2048 -0.3581
vn 0.7402 -0.1080 -0.6636
vn 0.8167 0.2102 -0.5374
vn 0.7366 -0.1327 0.6632
vn 0.6238 -0.4630 0.6297
vn 0.8329 -0.4415 0.3336
vn 0.8798 -0.1179 0.4604
vn -0.4083 0.4529 -0.7925
vn -0.4301 0.1182 -0.8950
vn -0.7218 0.1332 -0.6791
vn -0.6081 0.4632 -0.6447
vn 0.9580 -0.1454 0.2471
vn 0.7433 -0.4452 0.4994
vn 0.9473 -0.2622 -0.1841
vn 0.9581 -0.1454 0.2470
vn -0.3973 -0.0841 0.9138
vn -0.7266 -0.2279 0.6482
vn -0.0603 -0.3773 0.9241
vn -0.8149 0.2659 -0.5150
vn -0.5638 0.0624 -0.8235
vn -0.9752 -0.0284 -0.2196
vn -0.3320 0.4828 -0.8104
vn -0.0126 0.2177 -0.9759
vn -0.6879 0.2445 -0.6834
vn -0.3319 0.4828 -0.8104
vn 0.8826 0.1441 -0.4475
vn 0.9680 -0.1902 -0.1635
vn 0.6219 0.0062 -0.7830
vn 0.8826 0.1441 -0.4474
vn 0.8115 -0.1620 0.5614
vn 0.4954 -0.3967 0.7728
vn 0.9196 -0.3531 0.1724
vn 0.8115 -0.1620 0.5615
vn -0.5228 0.4293 -0.7365
vn -0.2414 0.1613 -0.9569
vn -0.8328 0.1919 -0.5192
vn -0.5228 0.4293 -0.7364
s 0
usemtl Material.001
f 7//1 8//1 9//1
f 9//2 3//2 5//2
f 1//3 9//3 5//3
f 6//4 7//4 9//4
f 16//5 17//5 18//5
f 18//6 12//6 14//6
f 10//7 18//7 14//7
f 15//8 16//8 18//8
f 25//9 26//9 27//9
f 27//10 21//10 23//10
f 19//11 27//11 23//11
f 24//12 25//12 27//12
f 34//13 35//13 36//13
f 36//14 30//14 32//14
f 28//15 36//15 32//15
f 33//16 34//16 36//16
f 43//17 44//17 45//17
f 45//18 39//18 41//18
f 37//19 45//19 41//19
f 42//20 43//20 45//20
f 52//21 53//21 54//21
f 54//22 48//22 50//22
f 46//23 54//23 50//23
f 51//24 52//24 54//24
f 61//25 62//25 63//25
f 63//26 57//26 59//26
f 55//27 63//27 59//27
f 60//28 61//28 63//28
f 7//29 4//29 8//29
f 9//30 8//30 3//30
f 1//31 6//31 9//31
f 6//32 2//32 7//32
f 16//33 13//33 17//33
f 18//34 17//34 12//34
f 10//35 15//35 18//35
f 15//33 11//33 16//33
f 25//36 22//36 26//36
f 27//37 26//37 21//37
f 19//38 24//38 27//38
f 24//36 20//36 25//36
f 34//39 31//39 35//39
f 36//40 35//40 30//40
f 28//41 33//41 36//41
f 33//42 29//42 34//42
f 43//43 40//43 44//43
f 45//44 44//44 39//44
f 37//45 42//45 45//45
f 42//46 38//46 43//46
f 52//47 49//47 53//47
f 54//48 53//48 48//48
f 46//49 51//49 54//49
f 51//50 47//50 52//50
f 61//51 58//51 62//51
f 63//52 62//52 57//52
f 55//53 60//53 63//53
f 60//54 56//54 61//54
