# Blender 4.1.1
# www.blender.org
mtllib Plane.046.mtl
o Plane.046
v 5.355165 11.316292 -7.079266
v 5.291738 10.917631 -7.440159
v 5.352010 11.411623 -7.184017
v 5.288582 11.012960 -7.544909
v 5.362305 11.418751 -7.082037
v 5.286407 11.099150 -7.274809
v 5.290160 10.965298 -7.492535
v 5.283252 11.194481 -7.379559
v 5.272002 11.196861 -7.281252
v 5.494097 11.448338 -7.446850
v 5.492888 11.046913 -7.810238
v 5.634650 11.436178 -7.433884
v 5.633441 11.034754 -7.797277
v 5.564539 11.497435 -7.390423
v 5.497705 11.249901 -7.672070
v 5.563166 11.040833 -7.803759
v 5.638256 11.237741 -7.659105
v 5.570723 11.306496 -7.636551
v 5.930590 11.308392 -7.146017
v 5.976610 10.877832 -7.471130
v 5.888811 11.224001 -7.040171
v 5.934831 10.793442 -7.365284
v 5.903374 11.325375 -7.048409
v 5.988360 11.067366 -7.315384
v 5.955721 10.835640 -7.418207
v 5.946580 10.982975 -7.209536
v 5.981566 11.075268 -7.216953
v 5.097435 11.036055 -6.645599
v 5.050729 10.640629 -7.012548
v 4.987880 10.982248 -6.573675
v 4.941175 10.586821 -6.940626
v 5.049078 11.063503 -6.559200
v 5.093106 10.798904 -6.829601
v 4.995953 10.613724 -6.976589
v 4.983552 10.745098 -6.757673
v 5.057020 10.808413 -6.737926
v 5.817365 11.292562 -7.105303
v 5.811218 10.873663 -7.448351
v 5.716451 11.356445 -7.181503
v 5.710307 10.937548 -7.524553
v 5.767753 11.382080 -7.096251
v 5.790075 11.046663 -7.275312
v 5.760763 10.905603 -7.486452
v 5.689161 11.110544 -7.351513
v 5.725840 11.120419 -7.260111
v 5.493576 10.997923 -6.662580
v 5.443096 10.566370 -6.985708
v 5.539424 11.074787 -6.772402
v 5.488944 10.643234 -7.095530
v 5.523439 11.095671 -6.673079
v 5.433696 10.769257 -6.847626
v 5.466019 10.604803 -7.040617
v 5.479545 10.846123 -6.957449
v 5.443279 10.865751 -6.867468
v 5.101629 11.586033 -7.351978
v 5.051147 11.154480 -7.675102
v 5.014575 11.525749 -7.257860
v 4.964095 11.094194 -7.580984
v 5.065042 11.615208 -7.260506
v 5.100511 11.333729 -7.514626
v 5.007621 11.124338 -7.628042
v 5.013456 11.273439 -7.420511
v 5.079348 11.347279 -7.418892
vn 0.9931 -0.0264 0.1143
vn 0.9450 -0.3189 -0.0731
vn 0.9369 -0.0745 -0.3417
vn 0.9876 0.1410 -0.0697
vn -0.2456 -0.5113 0.8235
vn -0.3020 -0.7569 0.5796
vn 0.0584 -0.7881 0.6128
vn 0.0012 -0.5327 0.8463
vn -0.9079 0.3227 -0.2676
vn -0.8531 0.0807 -0.5155
vn -0.9602 -0.1357 -0.2441
vn -0.9813 0.1745 -0.0817
vn -0.5026 0.7284 -0.4656
vn -0.4825 0.4925 -0.7243
vn -0.7634 0.3545 -0.5399
vn -0.6950 0.6339 -0.3393
vn 0.7762 0.5127 -0.3669
vn 0.8068 0.2153 -0.5502
vn 0.5480 0.3791 -0.7456
vn 0.5990 0.6249 -0.5007
vn 0.8958 -0.1888 0.4022
vn 0.8366 -0.4932 0.2384
vn 0.9542 -0.2962 -0.0432
vn 0.9763 -0.0539 0.2095
vn -0.6729 0.6096 -0.4191
vn -0.6629 0.3545 -0.6595
vn -0.8861 0.1999 -0.4182
vn -0.8257 0.5038 -0.2538
vn 0.9995 0.0310 -0.0018
vn 0.9130 -0.3917 0.1140
vn 0.8966 0.1038 -0.4305
vn -0.1239 -0.5564 0.8217
vn -0.4814 -0.6615 0.5751
vn 0.2492 -0.7247 0.6425
vn -0.1239 -0.5563 0.8217
vn -0.9543 0.2228 -0.1991
vn -0.7616 0.2403 -0.6018
vn -0.9788 -0.1983 -0.0516
vn -0.6101 0.6637 -0.4328
vn -0.3046 0.5873 -0.7498
vn -0.8741 0.3077 -0.3760
vn -0.6101 0.6636 -0.4328
vn 0.6966 0.5482 -0.4629
vn 0.9093 0.1636 -0.3826
vn 0.3848 0.4956 -0.7786
vn 0.9454 -0.1523 0.2881
vn 0.7408 -0.5290 0.4140
vn 0.9791 -0.1295 -0.1568
vn -0.7629 0.5350 -0.3629
vn -0.5073 0.4685 -0.7233
vn -0.9597 0.1552 -0.2341
s 0
usemtl Material.001
f 7//1 8//1 9//1
f 9//2 3//2 5//2
f 1//3 9//3 5//3
f 6//4 7//4 9//4
f 16//5 17//5 18//5
f 18//6 12//6 14//6
f 10//7 18//7 14//7
f 15//8 16//8 18//8
f 25//9 26//9 27//9
f 27//10 21//10 23//10
f 19//11 27//11 23//11
f 24//12 25//12 27//12
f 34//13 35//13 36//13
f 36//14 30//14 32//14
f 28//15 36//15 32//15
f 33//16 34//16 36//16
f 43//17 44//17 45//17
f 45//18 39//18 41//18
f 37//19 45//19 41//19
f 42//20 43//20 45//20
f 52//21 53//21 54//21
f 54//22 48//22 50//22
f 46//23 54//23 50//23
f 51//24 52//24 54//24
f 61//25 62//25 63//25
f 63//26 57//26 59//26
f 55//27 63//27 59//27
f 60//28 61//28 63//28
f 7//29 4//29 8//29
f 9//30 8//30 3//30
f 1//31 6//31 9//31
f 6//29 2//29 7//29
f 16//32 13//32 17//32
f 18//33 17//33 12//33
f 10//34 15//34 18//34
f 15//35 11//35 16//35
f 25//36 22//36 26//36
f 27//37 26//37 21//37
f 19//38 24//38 27//38
f 24//36 20//36 25//36
f 34//39 31//39 35//39
f 36//40 35//40 30//40
f 28//41 33//41 36//41
f 33//42 29//42 34//42
f 43//43 40//43 44//43
f 45//44 44//44 39//44
f 37//45 42//45 45//45
f 42//43 38//43 43//43
f 52//46 49//46 53//46
f 54//47 53//47 48//47
f 46//48 51//48 54//48
f 51//46 47//46 52//46
f 61//49 58//49 62//49
f 63//50 62//50 57//50
f 55//51 60//51 63//51
f 60//49 56//49 61//49
