# Blender 4.1.1
# www.blender.org
mtllib Plane.046.mtl
o Plane.046
v 1.808209 -6.097074 -3.230807
v 1.784969 -6.229306 -3.084737
v 1.807053 -6.135455 -3.265736
v 1.783813 -6.267687 -3.119666
v 1.810825 -6.098089 -3.268348
v 1.783016 -6.168721 -3.151245
v 1.784391 -6.248497 -3.102202
v 1.781860 -6.207102 -3.186175
v 1.777738 -6.171082 -3.187047
v 1.859114 -6.231757 -3.279189
v 1.858671 -6.364904 -3.132106
v 1.910613 -6.227007 -3.274734
v 1.910170 -6.360155 -3.127651
v 1.884924 -6.211082 -3.297178
v 1.860436 -6.314279 -3.206481
v 1.884421 -6.362530 -3.129878
v 1.911934 -6.309529 -3.202026
v 1.887190 -6.301265 -3.227218
v 2.019046 -6.121532 -3.227912
v 2.035908 -6.240654 -3.070155
v 2.003738 -6.082750 -3.196991
v 2.020600 -6.201872 -3.039234
v 2.009074 -6.085768 -3.234135
v 2.040213 -6.183588 -3.139600
v 2.028254 -6.221263 -3.054695
v 2.024905 -6.144805 -3.108679
v 2.037724 -6.147523 -3.142495
v 1.713776 -5.938178 -3.128127
v 1.696663 -6.072629 -2.983242
v 1.673635 -5.911824 -3.108412
v 1.656522 -6.046276 -2.963527
v 1.696058 -5.906521 -3.138184
v 1.712190 -6.005596 -3.041235
v 1.676593 -6.059453 -2.973384
v 1.672049 -5.979242 -3.021520
v 1.698968 -5.972007 -3.044719
v 1.977560 -6.106614 -3.222112
v 1.975308 -6.232308 -3.068627
v 1.940585 -6.134534 -3.245519
v 1.938334 -6.260228 -3.092034
v 1.959382 -6.103297 -3.254912
v 1.967561 -6.168906 -3.132014
v 1.956821 -6.246268 -3.080330
v 1.930586 -6.196826 -3.155421
v 1.944025 -6.163336 -3.159038
v 1.858923 -5.944400 -3.114156
v 1.840427 -6.062794 -2.956034
v 1.875722 -5.984638 -3.142319
v 1.857226 -6.103033 -2.984197
v 1.869865 -5.948246 -3.149971
v 1.836983 -6.012201 -3.030372
v 1.848826 -6.082913 -2.970116
v 1.853782 -6.052440 -3.058536
v 1.840494 -6.019471 -3.065728
v 1.715313 -6.196996 -3.329641
v 1.696816 -6.315390 -3.171519
v 1.683416 -6.162511 -3.307552
v 1.664920 -6.280905 -3.149430
v 1.701907 -6.163480 -3.340330
v 1.714903 -6.256591 -3.237196
v 1.680868 -6.298147 -3.160475
v 1.683006 -6.222107 -3.215106
v 1.707149 -6.221514 -3.242161
vn 0.9931 0.1143 0.0264
vn 0.9450 -0.0731 0.3189
vn 0.9369 -0.3417 0.0745
vn 0.9876 -0.0697 -0.1410
vn -0.2456 0.8235 0.5113
vn -0.3020 0.5796 0.7569
vn 0.0583 0.6128 0.7881
vn 0.0013 0.8463 0.5327
vn -0.9079 -0.2676 -0.3227
vn -0.8531 -0.5155 -0.0807
vn -0.9602 -0.2441 0.1357
vn -0.9813 -0.0817 -0.1745
vn -0.5026 -0.4656 -0.7284
vn -0.4826 -0.7243 -0.4925
vn -0.7634 -0.5399 -0.3545
vn -0.6950 -0.3393 -0.6339
vn 0.7762 -0.3669 -0.5127
vn 0.8068 -0.5502 -0.2153
vn 0.5480 -0.7456 -0.3791
vn 0.5990 -0.5007 -0.6249
vn 0.8958 0.4023 0.1889
vn 0.8366 0.2384 0.4932
vn 0.9542 -0.0432 0.2961
vn 0.9763 0.2094 0.0539
vn -0.6729 -0.4191 -0.6096
vn -0.6629 -0.6595 -0.3545
vn -0.8861 -0.4182 -0.1999
vn -0.8257 -0.2538 -0.5038
vn 0.9995 -0.0019 -0.0310
vn 0.9130 0.1140 0.3917
vn 0.8966 -0.4305 -0.1038
vn -0.1239 0.8217 0.5564
vn -0.4814 0.5751 0.6615
vn 0.2492 0.6425 0.7247
vn -0.1239 0.8217 0.5563
vn -0.9543 -0.1991 -0.2228
vn -0.7616 -0.6018 -0.2403
vn -0.9788 -0.0516 0.1983
vn -0.6101 -0.4328 -0.6637
vn -0.3047 -0.7498 -0.5873
vn -0.8741 -0.3760 -0.3077
vn -0.6101 -0.4328 -0.6636
vn 0.6966 -0.4629 -0.5482
vn 0.9093 -0.3826 -0.1636
vn 0.3848 -0.7786 -0.4956
vn 0.9454 0.2881 0.1523
vn 0.7408 0.4140 0.5290
vn 0.9791 -0.1568 0.1295
vn -0.7629 -0.3629 -0.5350
vn -0.5073 -0.7233 -0.4685
vn -0.9597 -0.2341 -0.1552
s 0
usemtl Material.001
f 7//1 8//1 9//1
f 9//2 3//2 5//2
f 1//3 9//3 5//3
f 6//4 7//4 9//4
f 16//5 17//5 18//5
f 18//6 12//6 14//6
f 10//7 18//7 14//7
f 15//8 16//8 18//8
f 25//9 26//9 27//9
f 27//10 21//10 23//10
f 19//11 27//11 23//11
f 24//12 25//12 27//12
f 34//13 35//13 36//13
f 36//14 30//14 32//14
f 28//15 36//15 32//15
f 33//16 34//16 36//16
f 43//17 44//17 45//17
f 45//18 39//18 41//18
f 37//19 45//19 41//19
f 42//20 43//20 45//20
f 52//21 53//21 54//21
f 54//22 48//22 50//22
f 46//23 54//23 50//23
f 51//24 52//24 54//24
f 61//25 62//25 63//25
f 63//26 57//26 59//26
f 55//27 63//27 59//27
f 60//28 61//28 63//28
f 7//29 4//29 8//29
f 9//30 8//30 3//30
f 1//31 6//31 9//31
f 6//29 2//29 7//29
f 16//32 13//32 17//32
f 18//33 17//33 12//33
f 10//34 15//34 18//34
f 15//35 11//35 16//35
f 25//36 22//36 26//36
f 27//37 26//37 21//37
f 19//38 24//38 27//38
f 24//36 20//36 25//36
f 34//39 31//39 35//39
f 36//40 35//40 30//40
f 28//41 33//41 36//41
f 33//42 29//42 34//42
f 43//43 40//43 44//43
f 45//44 44//44 39//44
f 37//45 42//45 45//45
f 42//43 38//43 43//43
f 52//46 49//46 53//46
f 54//47 53//47 48//47
f 46//48 51//48 54//48
f 51//46 47//46 52//46
f 61//49 58//49 62//49
f 63//50 62//50 57//50
f 55//51 60//51 63//51
f 60//49 56//49 61//49
