# Blender 4.1.1
# www.blender.org
mtllib Plane.047.mtl
o Plane.047
v 7.714080 4.911074 10.960402
v 7.663649 4.491076 10.877546
v 7.688862 4.935258 10.853168
v 7.638431 4.515257 10.770314
v 7.708403 4.980893 10.918173
v 7.660060 4.681583 10.921352
v 7.651040 4.503167 10.823930
v 7.634845 4.705767 10.814117
v 7.637650 4.745963 10.881833
v 7.764107 4.861221 10.638030
v 7.762180 4.440386 10.544753
v 7.876546 4.862621 10.629400
v 7.874622 4.441786 10.536123
v 7.820591 4.919763 10.646537
v 7.760947 4.635281 10.560258
v 7.818400 4.441084 10.540439
v 7.873389 4.636678 10.551628
v 7.816127 4.690802 10.551268
v 8.155537 4.898243 10.827545
v 8.198144 4.474030 10.764023
v 8.144689 4.880555 10.938402
v 8.187295 4.456341 10.874880
v 8.144255 4.947706 10.891705
v 8.205864 4.666831 10.795546
v 8.192718 4.465187 10.819451
v 8.195013 4.649143 10.906402
v 8.211572 4.711029 10.860526
v 7.595161 4.880930 11.403115
v 7.556696 4.461317 11.312276
v 7.524127 4.868665 11.489853
v 7.485662 4.449049 11.399011
v 7.564932 4.932472 11.458972
v 7.594897 4.644341 11.369442
v 7.521177 4.455185 11.355643
v 7.523863 4.632075 11.456180
v 7.576780 4.686005 11.433820
v 8.073843 4.899698 10.879098
v 8.072378 4.474698 10.807120
v 7.979191 4.910255 10.818692
v 7.977725 4.485255 10.746715
v 8.026717 4.963390 10.858789
v 8.058292 4.661851 10.861898
v 8.025050 4.479977 10.776916
v 7.963639 4.672407 10.801493
v 8.002184 4.716621 10.854107
v 7.906044 4.861017 11.343872
v 7.873754 4.433708 11.297256
v 7.920389 4.872076 11.232556
v 7.888100 4.444770 11.185939
v 7.917655 4.925280 11.294622
v 7.861437 4.628027 11.314975
v 7.880927 4.439240 11.241599
v 7.875785 4.639087 11.203660
v 7.856246 4.687056 11.263040
v 7.454860 4.980781 10.711555
v 7.422570 4.553474 10.664941
v 7.404732 4.973576 10.812325
v 7.372442 4.546269 10.765710
v 7.434232 5.035912 10.768348
v 7.461282 4.742294 10.697697
v 7.397504 4.549872 10.715325
v 7.411151 4.735089 10.798469
v 7.454860 4.788850 10.760944
vn 0.9935 0.0753 -0.0858
vn 0.9571 -0.2734 -0.0958
vn 0.8759 -0.1956 -0.4411
vn 0.9379 0.1286 -0.3223
vn -0.0476 -0.0437 0.9979
vn -0.1069 -0.3802 0.9187
vn 0.2552 -0.3757 0.8909
vn 0.2004 -0.0406 0.9789
vn -0.9728 0.1088 -0.2044
vn -0.9243 -0.2220 -0.3106
vn -0.9592 -0.2789 0.0464
vn -0.9968 0.0697 0.0401
vn -0.6601 0.3787 -0.6487
vn -0.6480 0.0464 -0.7602
vn -0.8768 0.0069 -0.4809
vn -0.8168 0.3517 -0.4574
vn 0.6362 0.2941 -0.7132
vn 0.6782 -0.0535 -0.7329
vn 0.3733 -0.0195 -0.9275
vn 0.4274 0.3174 -0.8465
vn 0.9635 0.0737 0.2575
vn 0.9214 -0.2740 0.2755
vn 0.9676 -0.2384 -0.0830
vn 0.9951 0.0981 0.0120
vn -0.8039 0.2919 -0.5182
vn -0.7964 -0.0484 -0.6029
vn -0.9578 -0.0716 -0.2784
vn -0.9145 0.2760 -0.2960
vn 0.9745 0.0675 -0.2140
vn 0.9638 -0.2448 0.1054
vn 0.7992 -0.0869 -0.5948
vn 0.9745 0.0675 -0.2139
vn 0.0773 -0.0786 0.9939
vn -0.2960 -0.3072 0.9044
vn 0.4381 -0.2980 0.8481
vn -0.9946 0.0543 -0.0886
vn -0.8691 -0.1227 -0.4792
vn -0.9399 -0.2382 0.2446
vn -0.7518 0.3344 -0.5683
vn -0.4903 0.1233 -0.8628
vn -0.9541 0.0433 -0.2965
vn -0.7517 0.3344 -0.5684
vn 0.5389 0.2737 -0.7966
vn 0.8109 -0.0107 -0.5851
vn 0.1929 0.0582 -0.9795
vn 0.9899 0.0506 0.1326
vn 0.8589 -0.2217 0.4617
vn 0.9526 -0.1495 -0.2651
vn 0.9899 0.0507 0.1326
vn -0.8736 0.2514 -0.4166
vn -0.6688 0.0252 -0.7430
vn -0.9961 -0.0219 -0.0850
vn -0.8736 0.2514 -0.4167
s 0
usemtl Material.001
f 7//1 8//1 9//1
f 9//2 3//2 5//2
f 1//3 9//3 5//3
f 6//4 7//4 9//4
f 16//5 17//5 18//5
f 18//6 12//6 14//6
f 10//7 18//7 14//7
f 15//8 16//8 18//8
f 25//9 26//9 27//9
f 27//10 21//10 23//10
f 19//11 27//11 23//11
f 24//12 25//12 27//12
f 34//13 35//13 36//13
f 36//14 30//14 32//14
f 28//15 36//15 32//15
f 33//16 34//16 36//16
f 43//17 44//17 45//17
f 45//18 39//18 41//18
f 37//19 45//19 41//19
f 42//20 43//20 45//20
f 52//21 53//21 54//21
f 54//22 48//22 50//22
f 46//23 54//23 50//23
f 51//24 52//24 54//24
f 61//25 62//25 63//25
f 63//26 57//26 59//26
f 55//27 63//27 59//27
f 60//28 61//28 63//28
f 7//29 4//29 8//29
f 9//30 8//30 3//30
f 1//31 6//31 9//31
f 6//32 2//32 7//32
f 16//33 13//33 17//33
f 18//34 17//34 12//34
f 10//35 15//35 18//35
f 15//33 11//33 16//33
f 25//36 22//36 26//36
f 27//37 26//37 21//37
f 19//38 24//38 27//38
f 24//36 20//36 25//36
f 34//39 31//39 35//39
f 36//40 35//40 30//40
f 28//41 33//41 36//41
f 33//42 29//42 34//42
f 43//43 40//43 44//43
f 45//44 44//44 39//44
f 37//45 42//45 45//45
f 42//43 38//43 43//43
f 52//46 49//46 53//46
f 54//47 53//47 48//47
f 46//48 51//48 54//48
f 51//49 47//49 52//49
f 61//50 58//50 62//50
f 63//51 62//51 57//51
f 55//52 60//52 63//52
f 60//53 56//53 61//53
