# Blender 4.1.1
# www.blender.org
mtllib Cube.063_Cube.067.mtl
o Cube.063_Cube.067
v -4.020873 5.924059 10.952251
v -4.184414 5.925494 10.883183
v -3.665651 5.727969 9.663049
v -4.029860 5.703646 10.993873
v -3.675690 5.504008 9.686313
v -3.758072 5.824449 10.342124
v -3.898085 5.839588 10.223852
v -4.105575 5.930167 10.939932
v -3.666800 5.557826 9.660683
v -3.946223 5.597411 10.297927
v -4.196816 5.816871 10.925003
v -3.778077 5.592220 10.371314
v -4.019206 5.815711 10.978903
v -3.565726 5.609746 9.646204
v -3.748678 5.712280 10.364447
v -3.863854 5.588388 10.334933
v -3.970819 5.722489 10.266945
v -3.851068 5.840720 10.299355
v -3.499700 5.723684 9.696501
v -4.057963 5.869282 10.568563
v -4.086249 5.647801 10.592431
v -4.230034 5.871572 10.880126
v -3.514544 5.500304 9.737099
v -3.908567 5.658664 10.667318
v -4.203743 5.706472 10.937814
v -4.026490 5.759437 10.980592
v -3.892334 5.887969 10.636978
v -3.570068 5.724121 9.674036
v -3.795817 5.806874 9.964201
v -3.646178 5.654929 9.617686
v -3.820187 5.549969 9.996908
v -4.204622 5.759862 10.906441
v -3.657633 5.547783 10.067394
v -3.501624 5.664823 9.709257
v -4.092674 5.761199 10.957401
v -3.903625 5.753347 10.654033
v -3.771770 5.665190 10.362152
v -3.765635 5.766302 10.348333
v -4.025867 5.661628 10.643160
v -3.902378 5.606611 10.315346
v -3.832086 5.598269 10.347029
v -4.085673 5.762171 10.574053
v -3.814231 5.677451 9.978169
v -3.934515 5.772173 10.274518
v -3.932681 5.663358 10.293031
v -3.720610 5.798149 9.998510
v -3.798219 5.824632 10.324775
v -3.752941 5.793616 9.982277
v -3.683727 5.782577 10.017781
v -3.932683 5.902361 10.617226
v -3.846909 5.619177 9.973224
v -3.808407 5.760396 9.963824
v -4.068763 5.827590 10.570696
v -3.705995 5.547163 9.971909
v -3.788514 5.564300 10.008238
v -3.632513 5.680978 10.009056
v -3.659991 5.608241 10.056337
v -3.919591 5.700143 10.655807
v -4.109035 5.869010 10.924170
v -3.643266 5.503205 9.696594
v -3.542519 5.625369 9.711274
v -3.602205 5.714462 9.618210
v -3.904485 5.805434 10.645176
v -3.958365 5.651391 10.647018
v -4.102423 5.717616 10.574082
v -4.007099 5.890931 10.626396
vn -0.1469 0.9618 -0.2309
vn 0.0768 -0.9835 0.1640
vn 0.9251 0.1226 -0.3594
vn 0.2846 -0.4380 -0.8527
vn -0.1514 0.2701 0.9508
vn -0.1705 0.9697 -0.1749
vn 0.2192 -0.9542 0.2037
vn -0.1441 -0.9864 0.0794
vn -0.1498 -0.9811 0.1225
vn 0.0657 -0.9798 0.1888
vn 0.8960 0.3592 0.2612
vn 0.9161 0.0561 0.3969
vn -0.3155 0.2378 0.9186
vn -0.3282 0.0708 0.9420
vn 0.1205 -0.1748 -0.9772
vn 0.2950 -0.1295 -0.9467
vn 0.8440 0.1569 -0.5130
vn -0.1554 -0.9810 0.1158
vn 0.1244 0.9879 -0.0923
vn 0.9296 -0.1098 0.3518
vn 0.9177 -0.0968 0.3852
vn -0.4844 0.3647 -0.7952
vn 0.7727 -0.6221 -0.1262
vn -0.2875 0.4971 0.8187
vn 0.8232 -0.4222 0.3795
vn 0.9213 -0.0779 0.3809
vn -0.4154 -0.9092 -0.0288
vn -0.0542 -0.9915 0.1182
vn -0.1486 -0.9852 0.0852
vn -0.7833 -0.6022 -0.1542
vn -0.6826 0.5687 -0.4589
vn -0.9022 0.1554 -0.4023
vn 0.3748 0.9266 0.0314
vn -0.0336 0.9779 -0.2063
vn 0.2967 0.9550 -0.0034
vn 0.0440 0.9799 -0.1948
vn 0.3328 0.9375 -0.1018
vn 0.0545 0.9918 -0.1156
vn 0.0782 0.9960 -0.0439
vn 0.0540 0.9872 -0.1500
vn 0.3994 0.9165 -0.0238
vn 0.3682 0.9266 -0.0770
vn -0.1754 0.9571 -0.2306
vn -0.8042 -0.5786 -0.1358
vn -0.8391 -0.4355 -0.3259
vn -0.7310 0.4532 -0.5102
vn -0.9038 0.2068 -0.3747
vn -0.9019 0.0272 -0.4310
vn -0.9082 -0.0086 -0.4185
vn -0.6746 0.5955 -0.4362
vn -0.8765 0.2048 -0.4356
vn -0.7305 0.5870 -0.3490
vn 0.1317 -0.9742 0.1831
vn -0.0671 -0.9875 0.1424
vn -0.0746 -0.9846 0.1583
vn 0.0655 -0.9798 0.1891
vn 0.9363 -0.0371 0.3491
vn -0.4243 -0.9055 -0.0079
vn 0.9098 -0.0012 0.4149
vn 0.9179 0.3120 0.2452
vn 0.9117 -0.0828 0.4025
vn 0.8567 0.3362 0.3912
vn 0.7806 -0.4059 0.4752
vn -0.4149 0.2099 0.8853
vn -0.5683 -0.1750 0.8040
vn -0.3289 0.2263 0.9168
vn 0.2304 -0.2864 -0.9300
vn -0.1566 -0.2382 0.9585
vn 0.0559 -0.4598 -0.8862
vn 0.2598 -0.4499 -0.8545
vn -0.3712 0.4659 0.8032
vn -0.9396 -0.1848 -0.2882
vn 0.2426 -0.1708 -0.9550
vn 0.9424 0.0935 0.3211
vn -0.4005 -0.2337 0.8860
vn 0.8579 0.3743 0.3520
vn 0.8990 -0.0898 0.4287
vn 0.1989 -0.9472 0.2514
vn 0.0449 -0.9703 0.2376
vn -0.8883 0.3337 -0.3156
vn -0.7909 0.2970 -0.5350
vn -0.8831 0.1483 -0.4452
vn 0.0249 0.9929 -0.1164
vn -0.2064 0.9620 -0.1786
vn 0.9023 -0.2593 0.3443
vn 0.9364 -0.1464 0.3190
vn 0.9211 -0.0791 0.3813
vn -0.1913 -0.9811 0.0282
vn -0.1517 -0.9849 0.0832
vn -0.8576 0.1973 -0.4750
vn -0.9266 -0.0000 -0.3761
vn -0.8943 -0.4081 -0.1835
vn 0.2995 0.9539 -0.0190
vn 0.1184 0.9890 -0.0886
vn -0.0202 0.9727 -0.2313
vn 0.0821 0.9804 -0.1792
vn 0.1552 0.9836 -0.0914
vn 0.3252 0.9453 0.0244
vn 0.0801 0.9813 -0.1749
vn 0.3321 0.9383 -0.0967
vn -0.7484 0.4602 -0.4776
vn -0.8704 -0.0870 -0.4845
vn -0.8913 0.2445 -0.3819
vn -0.8671 0.2384 -0.4373
vn -0.9050 0.0039 -0.4253
vn -0.8933 0.2111 -0.3967
vn -0.8901 0.1603 -0.4266
vn -0.8767 0.2043 -0.4356
vn 0.3132 -0.9092 0.2744
vn 0.3112 -0.9084 0.2792
vn 0.1156 -0.9685 0.2207
vn 0.9299 0.1010 0.3538
vn 0.9179 0.1057 0.3824
vn 0.9383 0.0254 0.3450
vn 0.9124 -0.0276 0.4084
vn 0.8550 -0.2413 0.4591
vn -0.4140 0.2114 0.8854
vn 0.2960 -0.2115 -0.9315
vn -0.2921 0.2638 0.9193
vn -0.9270 -0.2803 -0.2494
vn 0.9440 0.0704 0.3223
vn 0.8833 0.0927 0.4595
vn 0.8999 -0.0711 0.4303
vn -0.1566 -0.9763 0.1497
vn -0.1581 -0.9816 0.1072
vn -0.9164 0.2317 -0.3263
vn -0.7755 -0.5942 -0.2132
vn -0.8388 -0.3116 -0.4464
s 0
usemtl Fence2
f 20//1 2//1 66//1
f 24//2 4//2 64//2
f 14//3 28//3 61//3
f 60//4 9//4 30//4
f 59//5 11//5 35//5
f 66//6 8//6 50//6
f 54//7 41//7 16//7
f 23//8 33//8 54//8
f 60//9 54//9 55//9
f 39//10 25//10 21//10
f 56//11 38//11 15//11
f 34//12 19//12 56//12
f 35//13 4//13 26//13
f 13//14 35//14 26//14
f 23//15 61//15 34//15
f 60//16 61//16 23//16
f 14//17 62//17 28//17
f 64//18 4//18 39//18
f 7//19 66//19 18//19
f 26//20 36//20 13//20
f 63//21 27//21 1//21
f 30//22 3//22 62//22
f 60//23 14//23 61//23
f 59//24 22//24 11//24
f 57//25 15//25 37//25
f 6//26 56//26 19//26
f 55//27 16//27 40//27
f 39//28 4//28 25//28
f 41//29 33//29 12//29
f 22//30 42//30 11//30
f 44//31 43//31 17//31
f 45//32 31//32 10//32
f 18//33 49//33 46//33
f 7//34 46//34 48//34
f 48//35 29//35 7//35
f 48//36 28//36 62//36
f 48//37 3//37 29//37
f 6//38 49//38 47//38
f 1//39 50//39 8//39
f 19//40 28//40 49//40
f 28//41 46//41 49//41
f 27//42 47//42 50//42
f 50//43 18//43 66//43
f 17//44 51//44 45//44
f 51//45 5//45 31//45
f 9//46 51//46 43//46
f 7//47 52//47 44//47
f 52//48 3//48 30//48
f 52//49 9//49 43//49
f 2//50 53//50 22//50
f 20//51 44//51 53//51
f 42//52 44//52 17//52
f 10//53 55//53 40//53
f 60//54 23//54 54//54
f 55//55 5//55 60//55
f 21//56 40//56 39//56
f 12//57 57//57 37//57
f 40//58 16//58 39//58
f 57//59 23//59 34//59
f 26//60 24//60 58//60
f 34//61 56//61 57//61
f 24//62 37//62 58//62
f 36//63 37//63 15//63
f 13//64 59//64 35//64
f 8//65 2//65 59//65
f 2//66 22//66 59//66
f 28//67 34//67 61//67
f 1//68 8//68 59//68
f 60//69 30//69 14//69
f 60//70 5//70 9//70
f 25//71 35//71 32//71
f 32//72 21//72 25//72
f 14//73 30//73 62//73
f 13//74 63//74 1//74
f 11//75 32//75 35//75
f 63//76 15//76 38//76
f 63//77 6//77 27//77
f 64//78 16//78 41//78
f 64//79 12//79 24//79
f 32//80 42//80 65//80
f 42//81 45//81 65//81
f 21//82 45//82 10//82
f 66//83 2//83 8//83
f 7//84 20//84 66//84
f 26//85 58//85 36//85
f 57//86 56//86 15//86
f 6//87 38//87 56//87
f 55//88 54//88 16//88
f 41//89 54//89 33//89
f 22//90 53//90 42//90
f 44//91 52//91 43//91
f 45//92 51//92 31//92
f 18//93 47//93 49//93
f 7//94 18//94 46//94
f 48//95 46//95 28//95
f 48//96 62//96 3//96
f 6//97 19//97 49//97
f 1//98 27//98 50//98
f 27//99 6//99 47//99
f 50//100 47//100 18//100
f 17//101 43//101 51//101
f 51//102 9//102 5//102
f 7//103 29//103 52//103
f 52//104 29//104 3//104
f 52//105 30//105 9//105
f 2//106 20//106 53//106
f 20//107 7//107 44//107
f 42//108 53//108 44//108
f 10//109 31//109 55//109
f 55//110 31//110 5//110
f 21//111 10//111 40//111
f 12//112 33//112 57//112
f 57//113 33//113 23//113
f 26//114 4//114 24//114
f 24//115 12//115 37//115
f 36//116 58//116 37//116
f 13//117 1//117 59//117
f 28//118 19//118 34//118
f 25//119 4//119 35//119
f 32//120 65//120 21//120
f 13//121 36//121 63//121
f 63//122 36//122 15//122
f 63//123 38//123 6//123
f 64//124 39//124 16//124
f 64//125 41//125 12//125
f 32//126 11//126 42//126
f 42//127 17//127 45//127
f 21//128 65//128 45//128
