# Blender 4.1.1
# www.blender.org
mtllib Cube.063_Cube.067.mtl
o Cube.063_Cube.067
v -1.627193 0.509713 -1.255071
v -1.687115 0.484406 -1.255597
v -1.497039 0.037346 -1.183224
v -1.630486 0.524963 -1.174311
v -1.500717 0.045870 -1.101164
v -1.530902 0.286161 -1.218574
v -1.582203 0.242826 -1.224121
v -1.658228 0.505199 -1.257309
v -1.497460 0.036479 -1.120883
v -1.599841 0.269967 -1.135387
v -1.691659 0.499729 -1.215797
v -1.538232 0.296856 -1.133485
v -1.626582 0.519478 -1.215372
v -1.460426 0.031174 -1.139907
v -1.527460 0.294340 -1.177475
v -1.569661 0.283526 -1.132081
v -1.608853 0.258615 -1.181216
v -1.564976 0.270490 -1.224536
v -1.436234 0.049603 -1.181654
v -1.640783 0.369129 -1.235001
v -1.651147 0.377874 -1.153850
v -1.703830 0.483286 -1.235840
v -1.441673 0.064478 -1.099807
v -1.586044 0.405313 -1.157830
v -1.694197 0.504423 -1.175347
v -1.629251 0.520097 -1.194753
v -1.580096 0.394196 -1.241848
v -1.462017 0.041372 -1.181814
v -1.544732 0.147689 -1.212135
v -1.489904 0.020725 -1.156462
v -1.553661 0.159673 -1.118004
v -1.694519 0.492928 -1.194909
v -1.494101 0.185499 -1.117203
v -1.436939 0.054277 -1.160087
v -1.653501 0.511600 -1.195399
v -1.584233 0.400445 -1.192522
v -1.535921 0.293499 -1.160221
v -1.533673 0.288436 -1.197269
v -1.629023 0.396461 -1.158916
v -1.583776 0.276349 -1.138758
v -1.558021 0.287958 -1.135701
v -1.650936 0.371140 -1.195755
v -1.551479 0.152807 -1.164714
v -1.595551 0.261390 -1.199420
v -1.594879 0.268173 -1.159550
v -1.517176 0.160260 -1.208938
v -1.545612 0.279804 -1.218641
v -1.529022 0.154312 -1.207277
v -1.503662 0.167321 -1.203232
v -1.594880 0.386959 -1.247121
v -1.563452 0.150995 -1.143362
v -1.549345 0.147551 -1.195105
v -1.644740 0.369910 -1.219725
v -1.511821 0.150513 -1.116976
v -1.542056 0.163824 -1.123255
v -1.484897 0.164124 -1.166006
v -1.494965 0.181448 -1.139355
v -1.590083 0.401095 -1.173028
v -1.659496 0.499424 -1.234901
v -1.488837 0.049637 -1.100870
v -1.451923 0.055016 -1.145631
v -1.473792 0.020917 -1.178275
v -1.584548 0.397200 -1.211607
v -1.604290 0.397875 -1.155165
v -1.657073 0.371151 -1.179430
v -1.622146 0.390319 -1.242933
vn -0.1469 -0.2309 -0.9618
vn 0.0768 0.1640 0.9835
vn 0.9251 -0.3594 -0.1226
vn 0.2846 -0.8527 0.4380
vn -0.1514 0.9508 -0.2701
vn -0.1705 -0.1749 -0.9697
vn 0.2192 0.2037 0.9542
vn -0.1441 0.0794 0.9864
vn -0.1498 0.1225 0.9811
vn 0.0657 0.1888 0.9798
vn 0.8960 0.2612 -0.3592
vn 0.9161 0.3970 -0.0561
vn -0.3156 0.9186 -0.2377
vn -0.3282 0.9420 -0.0708
vn 0.1205 -0.9772 0.1748
vn 0.2950 -0.9467 0.1295
vn 0.8440 -0.5130 -0.1569
vn -0.1554 0.1158 0.9810
vn 0.1244 -0.0923 -0.9879
vn 0.9296 0.3518 0.1098
vn 0.9177 0.3852 0.0968
vn -0.4843 -0.7952 -0.3648
vn 0.7727 -0.1262 0.6221
vn -0.2875 0.8187 -0.4971
vn 0.8232 0.3795 0.4222
vn 0.9213 0.3809 0.0779
vn -0.4154 -0.0288 0.9092
vn -0.0542 0.1182 0.9915
vn -0.1486 0.0852 0.9852
vn -0.7833 -0.1542 0.6022
vn -0.6826 -0.4588 -0.5688
vn -0.9022 -0.4023 -0.1554
vn 0.3748 0.0314 -0.9266
vn -0.0336 -0.2063 -0.9779
vn 0.2967 -0.0034 -0.9550
vn 0.0440 -0.1948 -0.9799
vn 0.3328 -0.1018 -0.9375
vn 0.0545 -0.1156 -0.9918
vn 0.0782 -0.0439 -0.9960
vn 0.0540 -0.1500 -0.9872
vn 0.3994 -0.0238 -0.9165
vn 0.3682 -0.0770 -0.9266
vn -0.1754 -0.2306 -0.9571
vn -0.8042 -0.1358 0.5786
vn -0.8391 -0.3259 0.4355
vn -0.7310 -0.5102 -0.4532
vn -0.9038 -0.3747 -0.2068
vn -0.9019 -0.4310 -0.0272
vn -0.9082 -0.4185 0.0086
vn -0.6746 -0.4362 -0.5955
vn -0.8765 -0.4356 -0.2048
vn -0.7305 -0.3490 -0.5870
vn 0.1317 0.1831 0.9742
vn -0.0671 0.1424 0.9875
vn -0.0745 0.1583 0.9846
vn 0.0655 0.1891 0.9798
vn 0.9363 0.3491 0.0371
vn -0.4243 -0.0079 0.9055
vn 0.9098 0.4149 0.0012
vn 0.9179 0.2452 -0.3120
vn 0.9117 0.4025 0.0828
vn 0.8567 0.3912 -0.3362
vn 0.7806 0.4752 0.4060
vn -0.4149 0.8853 -0.2099
vn -0.5683 0.8040 0.1750
vn -0.3289 0.9168 -0.2263
vn 0.2304 -0.9300 0.2864
vn -0.1566 0.9585 0.2382
vn 0.0559 -0.8862 0.4598
vn 0.2598 -0.8545 0.4498
vn -0.3712 0.8032 -0.4659
vn -0.9396 -0.2882 0.1848
vn 0.2426 -0.9550 0.1708
vn 0.9424 0.3211 -0.0935
vn -0.4005 0.8860 0.2336
vn 0.8579 0.3520 -0.3743
vn 0.8990 0.4287 0.0898
vn 0.1988 0.2514 0.9472
vn 0.0449 0.2376 0.9703
vn -0.8883 -0.3156 -0.3337
vn -0.7909 -0.5350 -0.2970
vn -0.8831 -0.4452 -0.1483
vn 0.0250 -0.1164 -0.9929
vn -0.2064 -0.1786 -0.9620
vn 0.9023 0.3443 0.2593
vn 0.9364 0.3190 0.1464
vn 0.9211 0.3813 0.0791
vn -0.1913 0.0282 0.9811
vn -0.1517 0.0832 0.9849
vn -0.8576 -0.4750 -0.1973
vn -0.9266 -0.3761 -0.0000
vn -0.8943 -0.1835 0.4081
vn 0.2995 -0.0190 -0.9539
vn 0.1184 -0.0886 -0.9890
vn -0.0202 -0.2313 -0.9727
vn 0.0821 -0.1792 -0.9804
vn 0.1552 -0.0914 -0.9836
vn 0.3252 0.0244 -0.9453
vn 0.0801 -0.1749 -0.9813
vn 0.3321 -0.0967 -0.9383
vn -0.7484 -0.4776 -0.4602
vn -0.8704 -0.4845 0.0870
vn -0.8913 -0.3819 -0.2445
vn -0.8671 -0.4373 -0.2384
vn -0.9050 -0.4253 -0.0039
vn -0.8933 -0.3968 -0.2111
vn -0.8901 -0.4266 -0.1603
vn -0.8767 -0.4356 -0.2043
vn 0.3132 0.2744 0.9092
vn 0.3112 0.2792 0.9084
vn 0.1156 0.2206 0.9685
vn 0.9299 0.3537 -0.1010
vn 0.9179 0.3825 -0.1057
vn 0.9383 0.3450 -0.0254
vn 0.9124 0.4084 0.0276
vn 0.8550 0.4591 0.2413
vn -0.4140 0.8854 -0.2114
vn 0.2960 -0.9315 0.2115
vn -0.2921 0.9193 -0.2638
vn -0.9269 -0.2494 0.2803
vn 0.9440 0.3223 -0.0704
vn 0.8833 0.4595 -0.0927
vn 0.8999 0.4303 0.0711
vn -0.1566 0.1497 0.9763
vn -0.1581 0.1073 0.9816
vn -0.9164 -0.3263 -0.2317
vn -0.7755 -0.2132 0.5942
vn -0.8388 -0.4464 0.3116
s 0
usemtl Fence2
f 20//1 2//1 66//1
f 24//2 4//2 64//2
f 14//3 28//3 61//3
f 60//4 9//4 30//4
f 59//5 11//5 35//5
f 66//6 8//6 50//6
f 54//7 41//7 16//7
f 23//8 33//8 54//8
f 60//9 54//9 55//9
f 39//10 25//10 21//10
f 56//11 38//11 15//11
f 34//12 19//12 56//12
f 35//13 4//13 26//13
f 13//14 35//14 26//14
f 23//15 61//15 34//15
f 60//16 61//16 23//16
f 14//17 62//17 28//17
f 64//18 4//18 39//18
f 7//19 66//19 18//19
f 26//20 36//20 13//20
f 63//21 27//21 1//21
f 30//22 3//22 62//22
f 60//23 14//23 61//23
f 59//24 22//24 11//24
f 57//25 15//25 37//25
f 6//26 56//26 19//26
f 55//27 16//27 40//27
f 39//28 4//28 25//28
f 41//29 33//29 12//29
f 22//30 42//30 11//30
f 44//31 43//31 17//31
f 45//32 31//32 10//32
f 18//33 49//33 46//33
f 7//34 46//34 48//34
f 48//35 29//35 7//35
f 48//36 28//36 62//36
f 48//37 3//37 29//37
f 6//38 49//38 47//38
f 1//39 50//39 8//39
f 19//40 28//40 49//40
f 28//41 46//41 49//41
f 27//42 47//42 50//42
f 50//43 18//43 66//43
f 17//44 51//44 45//44
f 51//45 5//45 31//45
f 9//46 51//46 43//46
f 7//47 52//47 44//47
f 52//48 3//48 30//48
f 52//49 9//49 43//49
f 2//50 53//50 22//50
f 20//51 44//51 53//51
f 42//52 44//52 17//52
f 10//53 55//53 40//53
f 60//54 23//54 54//54
f 55//55 5//55 60//55
f 21//56 40//56 39//56
f 12//57 57//57 37//57
f 40//58 16//58 39//58
f 57//59 23//59 34//59
f 26//60 24//60 58//60
f 34//61 56//61 57//61
f 24//62 37//62 58//62
f 36//63 37//63 15//63
f 13//64 59//64 35//64
f 8//65 2//65 59//65
f 2//66 22//66 59//66
f 28//67 34//67 61//67
f 1//68 8//68 59//68
f 60//69 30//69 14//69
f 60//70 5//70 9//70
f 25//71 35//71 32//71
f 32//72 21//72 25//72
f 14//73 30//73 62//73
f 13//74 63//74 1//74
f 11//75 32//75 35//75
f 63//76 15//76 38//76
f 63//77 6//77 27//77
f 64//78 16//78 41//78
f 64//79 12//79 24//79
f 32//80 42//80 65//80
f 42//81 45//81 65//81
f 21//82 45//82 10//82
f 66//83 2//83 8//83
f 7//84 20//84 66//84
f 26//85 58//85 36//85
f 57//86 56//86 15//86
f 6//87 38//87 56//87
f 55//88 54//88 16//88
f 41//89 54//89 33//89
f 22//90 53//90 42//90
f 44//91 52//91 43//91
f 45//92 51//92 31//92
f 18//93 47//93 49//93
f 7//94 18//94 46//94
f 48//95 46//95 28//95
f 48//96 62//96 3//96
f 6//97 19//97 49//97
f 1//98 27//98 50//98
f 27//99 6//99 47//99
f 50//100 47//100 18//100
f 17//101 43//101 51//101
f 51//102 9//102 5//102
f 7//103 29//103 52//103
f 52//104 29//104 3//104
f 52//105 30//105 9//105
f 2//106 20//106 53//106
f 20//107 7//107 44//107
f 42//108 53//108 44//108
f 10//109 31//109 55//109
f 55//110 31//110 5//110
f 21//111 10//111 40//111
f 12//112 33//112 57//112
f 57//113 33//113 23//113
f 26//114 4//114 24//114
f 24//115 12//115 37//115
f 36//116 58//116 37//116
f 13//117 1//117 59//117
f 28//118 19//118 34//118
f 25//119 4//119 35//119
f 32//120 65//120 21//120
f 13//121 36//121 63//121
f 63//122 36//122 15//122
f 63//123 38//123 6//123
f 64//124 39//124 16//124
f 64//125 41//125 12//125
f 32//126 11//126 42//126
f 42//127 17//127 45//127
f 21//128 65//128 45//128
