# Blender 4.1.1
# www.blender.org
mtllib Plane.045.mtl
o Plane.045
v 16.730011 5.038380 22.966360
v 16.840040 4.512599 23.034508
v 16.789764 5.067113 23.091558
v 16.899794 4.541330 23.159710
v 16.744766 5.125014 23.019592
v 16.820717 4.753081 22.988541
v 16.869919 4.526967 23.097109
v 16.880472 4.781815 23.113743
v 16.855486 4.834112 23.033512
v 16.763098 4.962526 23.372572
v 16.816837 4.432077 23.467075
v 16.628012 4.956367 23.414814
v 16.681747 4.425917 23.509315
v 16.688169 5.032356 23.380707
v 16.802389 4.677023 23.456593
v 16.749294 4.428996 23.488194
v 16.667301 4.670863 23.498833
v 16.734186 4.742618 23.485630
v 16.228752 4.988170 23.252459
v 16.219830 4.451372 23.322926
v 16.211678 4.970146 23.112978
v 16.202755 4.433348 23.183445
v 16.221443 5.052940 23.173031
v 16.190029 4.693582 23.295271
v 16.211292 4.442360 23.253185
v 16.172951 4.675554 23.155792
v 16.162029 4.750620 23.219379
v 16.751810 5.022317 22.389915
v 16.849453 4.495959 22.471218
v 16.814810 5.014443 22.263268
v 16.912453 4.488085 22.344566
v 16.769888 5.090725 22.315418
v 16.775707 4.724626 22.420315
v 16.880951 4.492023 22.407894
v 16.838705 4.716751 22.293667
v 16.777151 4.780086 22.338346
v 16.313932 4.997138 23.166479
v 16.361326 4.462092 23.234863
v 16.446112 5.014952 23.214245
v 16.493507 4.479907 23.282631
v 16.373508 5.079586 23.180964
v 16.351927 4.699419 23.172367
v 16.427418 4.470998 23.258747
v 16.484110 4.717233 23.220135
v 16.419470 4.771673 23.168610
v 16.389744 4.974379 22.548916
v 16.467770 4.439316 22.577494
v 16.403069 4.983838 22.689636
v 16.481096 4.448776 22.718220
v 16.385681 5.052650 22.615349
v 16.466276 4.684364 22.561161
v 16.474434 4.444046 22.647860
v 16.479607 4.693823 22.701887
v 16.483828 4.757131 22.625921
v 17.113207 5.135748 23.201080
v 17.191233 4.600686 23.229662
v 17.146379 5.133229 23.063372
v 17.224405 4.598167 23.091949
v 17.119070 5.208029 23.128296
v 17.123434 4.835835 23.209030
v 17.207819 4.599425 23.160805
v 17.156605 4.833316 23.071320
v 17.110611 4.896599 23.131954
vn -0.9510 0.0192 0.3087
vn -0.8969 -0.3271 0.2976
vn -0.7437 -0.2535 0.6186
vn -0.8460 0.0697 0.5285
vn -0.1765 -0.0165 -0.9842
vn -0.0851 -0.3512 -0.9324
vn -0.4315 -0.3670 -0.8241
vn -0.4138 -0.0274 -0.9100
vn 0.9876 0.1562 -0.0148
vn 0.9799 -0.1791 0.0876
vn 0.9361 -0.2254 -0.2699
vn 0.9576 0.1246 -0.2597
vn 0.7707 0.3979 0.4978
vn 0.7997 0.0628 0.5971
vn 0.9613 0.0426 0.2723
vn 0.8813 0.3841 0.2754
vn -0.4722 0.2416 0.8477
vn -0.4922 -0.1081 0.8638
vn -0.1533 -0.0624 0.9862
vn -0.2401 0.2729 0.9316
vn -0.9991 0.0277 -0.0324
vn -0.9458 -0.3167 -0.0720
vn -0.9116 -0.2925 0.2887
vn -0.9757 0.0443 0.2146
vn 0.8853 0.3221 0.3354
vn 0.9132 -0.0200 0.4071
vn 0.9982 -0.0265 0.0542
vn 0.9436 0.3177 0.0935
vn -0.9033 0.0094 0.4290
vn -0.9501 -0.2940 0.1042
vn -0.6395 -0.1446 0.7550
vn -0.9033 0.0094 0.4289
vn -0.2955 -0.0582 -0.9536
vn 0.0988 -0.2684 -0.9582
vn -0.6034 -0.3004 -0.7387
vn 0.9853 0.1059 -0.1343
vn 0.9595 -0.0872 0.2678
vn 0.8708 -0.1809 -0.4572
vn 0.8439 0.3606 0.3973
vn 0.6657 0.1285 0.7350
vn 0.9932 0.0876 0.0767
vn -0.3578 0.2245 0.9064
vn -0.6567 -0.0690 0.7510
vn 0.0303 0.0236 0.9993
vn -0.9955 0.0002 0.0942
vn -0.9294 -0.2565 -0.2654
vn -0.8601 -0.2073 0.4661
vn -0.9955 0.0002 0.0943
vn 0.9322 0.2880 0.2193
vn 0.8171 0.0431 0.5749
vn 0.9896 0.0300 -0.1410
vn 0.9322 0.2880 0.2192
s 0
usemtl Material.001
f 7//1 8//1 9//1
f 9//2 3//2 5//2
f 1//3 9//3 5//3
f 6//4 7//4 9//4
f 16//5 17//5 18//5
f 18//6 12//6 14//6
f 10//7 18//7 14//7
f 15//8 16//8 18//8
f 25//9 26//9 27//9
f 27//10 21//10 23//10
f 19//11 27//11 23//11
f 24//12 25//12 27//12
f 34//13 35//13 36//13
f 36//14 30//14 32//14
f 28//15 36//15 32//15
f 33//16 34//16 36//16
f 43//17 44//17 45//17
f 45//18 39//18 41//18
f 37//19 45//19 41//19
f 42//20 43//20 45//20
f 52//21 53//21 54//21
f 54//22 48//22 50//22
f 46//23 54//23 50//23
f 51//24 52//24 54//24
f 61//25 62//25 63//25
f 63//26 57//26 59//26
f 55//27 63//27 59//27
f 60//28 61//28 63//28
f 7//29 4//29 8//29
f 9//30 8//30 3//30
f 1//31 6//31 9//31
f 6//32 2//32 7//32
f 16//33 13//33 17//33
f 18//34 17//34 12//34
f 10//35 15//35 18//35
f 15//33 11//33 16//33
f 25//36 22//36 26//36
f 27//37 26//37 21//37
f 19//38 24//38 27//38
f 24//36 20//36 25//36
f 34//39 31//39 35//39
f 36//40 35//40 30//40
f 28//41 33//41 36//41
f 33//39 29//39 34//39
f 43//42 40//42 44//42
f 45//43 44//43 39//43
f 37//44 42//44 45//44
f 42//42 38//42 43//42
f 52//45 49//45 53//45
f 54//46 53//46 48//46
f 46//47 51//47 54//47
f 51//48 47//48 52//48
f 61//49 58//49 62//49
f 63//50 62//50 57//50
f 55//51 60//51 63//51
f 60//52 56//52 61//52
