# Blender 4.1.1
# www.blender.org
mtllib Plane.045.mtl
o Plane.045
v 5.975979 4.911710 -0.930550
v 6.016294 4.936679 -0.737903
v 5.997873 4.957583 -0.941078
v 6.038188 4.982553 -0.748430
v 5.981385 4.931215 -0.962293
v 6.009214 4.919837 -0.826016
v 6.027241 4.959616 -0.743167
v 6.031108 4.965711 -0.836544
v 6.021953 4.936314 -0.855706
v 5.988102 5.060547 -0.902757
v 6.007792 5.095173 -0.708399
v 5.938606 5.076024 -0.900500
v 5.958295 5.110650 -0.706142
v 5.960648 5.063527 -0.928343
v 6.002498 5.091332 -0.798148
v 5.983044 5.102911 -0.707270
v 5.953002 5.106809 -0.795891
v 5.977509 5.101971 -0.822182
v 5.792317 5.016537 -0.912153
v 5.789047 5.042356 -0.715469
v 5.786060 4.965431 -0.905549
v 5.782791 4.991250 -0.708865
v 5.789638 4.987435 -0.935885
v 5.778128 5.032223 -0.804215
v 5.785919 5.016803 -0.712167
v 5.771871 4.981118 -0.797610
v 5.767869 5.004416 -0.825114
v 5.983966 4.700499 -0.924665
v 6.019743 4.730288 -0.731806
v 6.007049 4.654095 -0.921780
v 6.042826 4.683883 -0.728921
v 5.990590 4.673203 -0.949730
v 5.992722 4.711637 -0.815590
v 6.031284 4.707086 -0.730364
v 6.015805 4.665233 -0.812705
v 5.993251 4.681604 -0.835911
v 5.823527 4.985034 -0.915439
v 5.840892 5.010090 -0.719397
v 5.871958 5.002536 -0.921966
v 5.889323 5.027592 -0.725924
v 5.845356 4.990341 -0.945648
v 5.837448 4.987191 -0.806354
v 5.865108 5.018841 -0.722660
v 5.885880 5.004693 -0.812881
v 5.862196 4.985814 -0.832828
v 5.851304 4.758757 -0.907100
v 5.879893 4.769228 -0.711052
v 5.856187 4.810318 -0.910566
v 5.884776 4.820791 -0.714518
v 5.849816 4.783098 -0.935779
v 5.879346 4.763244 -0.800838
v 5.882335 4.795010 -0.712785
v 5.884230 4.814806 -0.804304
v 5.885777 4.786972 -0.827500
v 6.116383 4.997712 -0.966226
v 6.144972 5.008184 -0.770178
v 6.128537 4.947255 -0.965303
v 6.157126 4.957726 -0.769255
v 6.118531 4.971044 -0.992710
v 6.120130 5.000624 -0.856337
v 6.151049 4.982955 -0.769716
v 6.132284 4.950167 -0.855414
v 6.115432 4.972384 -0.878601
vn -0.9510 0.3087 -0.0192
vn -0.8969 0.2976 0.3271
vn -0.7437 0.6186 0.2535
vn -0.8460 0.5286 -0.0697
vn -0.1766 -0.9842 0.0166
vn -0.0851 -0.9324 0.3512
vn -0.4315 -0.8241 0.3670
vn -0.4137 -0.9100 0.0274
vn 0.9876 -0.0148 -0.1562
vn 0.9799 0.0876 0.1791
vn 0.9361 -0.2699 0.2254
vn 0.9576 -0.2597 -0.1246
vn 0.7707 0.4977 -0.3979
vn 0.7997 0.5971 -0.0628
vn 0.9612 0.2724 -0.0426
vn 0.8813 0.2754 -0.3840
vn -0.4722 0.8477 -0.2416
vn -0.4922 0.8637 0.1081
vn -0.1533 0.9862 0.0625
vn -0.2401 0.9316 -0.2729
vn -0.9991 -0.0324 -0.0277
vn -0.9458 -0.0720 0.3167
vn -0.9116 0.2888 0.2924
vn -0.9757 0.2147 -0.0443
vn 0.8853 0.3353 -0.3222
vn 0.9131 0.4072 0.0200
vn 0.9982 0.0541 0.0265
vn 0.9436 0.0935 -0.3177
vn -0.9033 0.4289 -0.0094
vn -0.9501 0.1043 0.2940
vn -0.6395 0.7550 0.1446
vn -0.2955 -0.9536 0.0582
vn 0.0988 -0.9582 0.2684
vn -0.6034 -0.7387 0.3004
vn 0.9853 -0.1343 -0.1059
vn 0.9595 0.2678 0.0872
vn 0.8708 -0.4572 0.1809
vn 0.8438 0.3974 -0.3606
vn 0.6657 0.7350 -0.1285
vn 0.9932 0.0767 -0.0876
vn 0.8439 0.3973 -0.3606
vn -0.3578 0.9064 -0.2245
vn -0.6567 0.7510 0.0690
vn 0.0303 0.9993 -0.0236
vn -0.9955 0.0942 -0.0002
vn -0.9294 -0.2654 0.2565
vn -0.8601 0.4661 0.2073
vn -0.9955 0.0943 -0.0002
vn 0.9322 0.2193 -0.2880
vn 0.8171 0.5749 -0.0431
vn 0.9896 -0.1410 -0.0300
s 0
usemtl Material.001
f 7//1 8//1 9//1
f 9//2 3//2 5//2
f 1//3 9//3 5//3
f 6//4 7//4 9//4
f 16//5 17//5 18//5
f 18//6 12//6 14//6
f 10//7 18//7 14//7
f 15//8 16//8 18//8
f 25//9 26//9 27//9
f 27//10 21//10 23//10
f 19//11 27//11 23//11
f 24//12 25//12 27//12
f 34//13 35//13 36//13
f 36//14 30//14 32//14
f 28//15 36//15 32//15
f 33//16 34//16 36//16
f 43//17 44//17 45//17
f 45//18 39//18 41//18
f 37//19 45//19 41//19
f 42//20 43//20 45//20
f 52//21 53//21 54//21
f 54//22 48//22 50//22
f 46//23 54//23 50//23
f 51//24 52//24 54//24
f 61//25 62//25 63//25
f 63//26 57//26 59//26
f 55//27 63//27 59//27
f 60//28 61//28 63//28
f 7//29 4//29 8//29
f 9//30 8//30 3//30
f 1//31 6//31 9//31
f 6//29 2//29 7//29
f 16//32 13//32 17//32
f 18//33 17//33 12//33
f 10//34 15//34 18//34
f 15//32 11//32 16//32
f 25//35 22//35 26//35
f 27//36 26//36 21//36
f 19//37 24//37 27//37
f 24//35 20//35 25//35
f 34//38 31//38 35//38
f 36//39 35//39 30//39
f 28//40 33//40 36//40
f 33//41 29//41 34//41
f 43//42 40//42 44//42
f 45//43 44//43 39//43
f 37//44 42//44 45//44
f 42//42 38//42 43//42
f 52//45 49//45 53//45
f 54//46 53//46 48//46
f 46//47 51//47 54//47
f 51//48 47//48 52//48
f 61//49 58//49 62//49
f 63//50 62//50 57//50
f 55//51 60//51 63//51
f 60//49 56//49 61//49
