# Blender 4.1.1
# www.blender.org
mtllib Cube.066_Cube.070.mtl
o Cube.066_Cube.070
v -6.565009 -5.083192 -1.441600
v -6.624778 -5.094989 -1.464400
v -6.514847 -4.848823 -1.874945
v -6.535594 -5.153690 -1.472100
v -6.486652 -4.917121 -1.911829
v -6.508794 -4.959816 -1.647021
v -6.566147 -4.955240 -1.682095
v -6.594963 -5.092083 -1.445104
v -6.492735 -4.896070 -1.909093
v -6.544508 -5.043674 -1.707247
v -6.611379 -5.134829 -1.472927
v -6.482388 -5.033016 -1.683801
v -6.548067 -5.118054 -1.454614
v -6.467016 -4.863604 -1.902308
v -6.489085 -4.993783 -1.662042
v -6.513137 -5.040455 -1.696708
v -6.571640 -5.006829 -1.692530
v -6.545096 -4.961571 -1.658032
v -6.456501 -4.830957 -1.863690
v -6.598166 -5.034097 -1.571375
v -6.576342 -5.104580 -1.607778
v -6.633027 -5.116404 -1.476413
v -6.428718 -4.902985 -1.895152
v -6.513072 -5.088267 -1.580615
v -6.598043 -5.169041 -1.490713
v -6.542874 -5.135179 -1.465218
v -6.540431 -5.016246 -1.544805
v -6.481664 -4.837407 -1.871293
v -6.546705 -4.901485 -1.767717
v -6.501945 -4.857985 -1.903105
v -6.518209 -4.982878 -1.808301
v -6.607746 -5.148543 -1.489941
v -6.458564 -4.971700 -1.785220
v -6.448367 -4.850011 -1.871323
v -6.566871 -5.140492 -1.472740
v -6.525011 -5.058657 -1.566082
v -6.490677 -5.010015 -1.672241
v -6.503115 -4.978331 -1.656598
v -6.554340 -5.100820 -1.588742
v -6.529842 -5.037634 -1.699593
v -6.502977 -5.035086 -1.690693
v -6.592733 -5.069206 -1.590999
v -6.534578 -4.942962 -1.789003
v -6.565602 -4.988832 -1.680050
v -6.549138 -5.022315 -1.695671
v -6.517958 -4.898777 -1.758028
v -6.523473 -4.962687 -1.652773
v -6.529322 -4.901983 -1.764278
v -6.502176 -4.901048 -1.754738
v -6.557245 -5.014742 -1.548512
v -6.538071 -4.963286 -1.802318
v -6.544738 -4.916303 -1.777092
v -6.596056 -5.047763 -1.579015
v -6.481595 -4.961783 -1.815375
v -6.508729 -4.976141 -1.801649
v -6.472206 -4.920056 -1.776841
v -6.468215 -4.953159 -1.776794
v -6.523115 -5.076257 -1.576147
v -6.589122 -5.106808 -1.462021
v -6.474983 -4.914304 -1.908465
v -6.456597 -4.867597 -1.878877
v -6.495178 -4.834791 -1.890790
v -6.532885 -5.042628 -1.558602
v -6.530190 -5.094145 -1.588845
v -6.592379 -5.084192 -1.599915
v -6.579860 -5.030892 -1.548707
vn -0.5295 0.7871 0.3163
vn 0.4603 -0.7993 -0.3864
vn 0.7254 0.6553 -0.2109
vn 0.2478 0.2087 -0.9461
vn -0.0460 -0.3304 0.9427
vn -0.5426 0.7555 0.3671
vn 0.5871 -0.7378 -0.3331
vn 0.2434 -0.8508 -0.4657
vn 0.2448 -0.8706 -0.4267
vn 0.4538 -0.8135 -0.3638
vn 0.7368 0.5144 0.4387
vn 0.8925 0.2242 0.3914
vn -0.1900 -0.4069 0.8935
vn -0.1361 -0.5510 0.8233
vn -0.0221 0.4033 -0.9148
vn 0.1263 0.4949 -0.8597
vn 0.6084 0.7243 -0.3245
vn 0.2385 -0.8695 -0.4325
vn -0.2644 0.8503 0.4551
vn 0.9560 0.1259 0.2648
vn 0.9472 0.1142 0.2997
vn -0.7322 0.4735 -0.4895
vn 0.9040 -0.0913 -0.4176
vn -0.2787 -0.1479 0.9489
vn 0.9784 -0.1699 0.1178
vn 0.9427 0.1323 0.3062
vn -0.0532 -0.8504 -0.5234
vn 0.3348 -0.8368 -0.4331
vn 0.2400 -0.8547 -0.4603
vn -0.5246 -0.7063 -0.4754
vn -0.9196 0.3794 -0.1021
vn -0.9578 -0.0547 -0.2821
vn 0.0104 0.8456 0.5338
vn -0.4272 0.8340 0.3491
vn -0.0779 0.8522 0.5173
vn -0.3553 0.8619 0.3618
vn -0.0584 0.9028 0.4260
vn -0.3341 0.8359 0.4355
vn -0.2997 0.8132 0.4989
vn -0.3398 0.8493 0.4040
vn 0.0254 0.8755 0.4825
vn -0.0172 0.8968 0.4421
vn -0.5537 0.7716 0.3132
vn -0.5485 -0.7062 -0.4478
vn -0.6702 -0.5168 -0.5326
vn -0.9318 0.2969 -0.2088
vn -0.9724 -0.0299 -0.2314
vn -0.9167 -0.1379 -0.3751
vn -0.9068 -0.1741 -0.3839
vn -0.9175 0.3918 -0.0685
vn -0.9590 0.0102 -0.2831
vn -0.9478 0.3188 -0.0011
vn 0.5107 -0.7790 -0.3638
vn 0.3265 -0.8512 -0.4109
vn 0.3219 -0.8599 -0.3961
vn 0.4536 -0.8137 -0.3636
vn 0.9352 0.1854 0.3017
vn -0.0585 -0.8617 -0.5041
vn 0.9112 0.1690 0.3757
vn 0.7707 0.4955 0.4005
vn 0.9400 0.1138 0.3216
vn 0.7354 0.4159 0.5350
vn 0.9528 -0.2229 0.2060
vn -0.2769 -0.4527 0.8476
vn -0.2928 -0.7690 0.5683
vn -0.1984 -0.4203 0.8854
vn 0.1280 0.3403 -0.9316
vn 0.1356 -0.7236 0.6767
vn 0.0410 0.1141 -0.9926
vn 0.2292 0.1903 -0.9546
vn -0.3467 -0.1986 0.9167
vn -0.8453 -0.3862 -0.3693
vn 0.0920 0.4459 -0.8903
vn 0.8876 0.3014 0.3482
vn -0.1024 -0.7851 0.6109
vn 0.7148 0.4650 0.5222
vn 0.9362 0.0902 0.3396
vn 0.5756 -0.7647 -0.2897
vn 0.4411 -0.8392 -0.3182
vn -0.9926 0.0438 -0.1131
vn -0.9345 0.1654 -0.3151
vn -0.9463 -0.0308 -0.3217
vn -0.3616 0.8249 0.4345
vn -0.5733 0.7366 0.3588
vn 0.9841 0.0044 0.1776
vn 0.9690 0.1171 0.2177
vn 0.9430 0.1310 0.3059
vn 0.1883 -0.8409 -0.5074
vn 0.2367 -0.8547 -0.4619
vn -0.9469 0.0320 -0.3198
vn -0.9182 -0.1962 -0.3441
vn -0.7020 -0.5897 -0.3993
vn -0.0781 0.8603 0.5038
vn -0.2696 0.8468 0.4586
vn -0.4182 0.8480 0.3255
vn -0.3175 0.8703 0.3765
vn -0.2347 0.8593 0.4544
vn -0.0429 0.8428 0.5365
vn -0.3189 0.8680 0.3805
vn -0.0583 0.9006 0.4308
vn -0.9437 0.2788 -0.1780
vn -0.8572 -0.1852 -0.4805
vn -0.9762 0.0076 -0.2169
vn -0.9631 0.0406 -0.2662
vn -0.9098 -0.1598 -0.3829
vn -0.9688 -0.0113 -0.2474
vn -0.9534 -0.0337 -0.2997
vn -0.9590 0.0097 -0.2833
vn 0.6703 -0.6999 -0.2466
vn 0.6692 -0.7025 -0.2422
vn 0.5014 -0.8000 -0.3294
vn 0.8800 0.2856 0.3794
vn 0.8731 0.2700 0.4058
vn 0.9134 0.2359 0.3318
vn 0.9218 0.1532 0.3561
vn 0.9574 -0.0586 0.2828
vn -0.2767 -0.4512 0.8485
vn 0.1602 0.4252 -0.8908
vn -0.1780 -0.3777 0.9087
vn -0.7913 -0.4730 -0.3874
vn 0.8978 0.2838 0.3369
vn 0.8618 0.2074 0.4629
vn 0.9306 0.1039 0.3509
vn 0.2425 -0.8833 -0.4013
vn 0.2344 -0.8669 -0.4400
vn -0.9833 -0.0401 -0.1776
vn -0.5321 -0.6676 -0.5207
vn -0.7391 -0.3623 -0.5679
s 0
usemtl Fence
f 20//1 2//1 66//1
f 24//2 4//2 64//2
f 14//3 28//3 61//3
f 60//4 9//4 30//4
f 59//5 11//5 35//5
f 66//6 8//6 50//6
f 54//7 41//7 16//7
f 23//8 33//8 54//8
f 60//9 54//9 55//9
f 39//10 25//10 21//10
f 56//11 38//11 15//11
f 34//12 19//12 56//12
f 35//13 4//13 26//13
f 13//14 35//14 26//14
f 23//15 61//15 34//15
f 60//16 61//16 23//16
f 14//17 62//17 28//17
f 64//18 4//18 39//18
f 7//19 66//19 18//19
f 26//20 36//20 13//20
f 63//21 27//21 1//21
f 30//22 3//22 62//22
f 60//23 14//23 61//23
f 59//24 22//24 11//24
f 57//25 15//25 37//25
f 6//26 56//26 19//26
f 55//27 16//27 40//27
f 39//28 4//28 25//28
f 41//29 33//29 12//29
f 22//30 42//30 11//30
f 44//31 43//31 17//31
f 45//32 31//32 10//32
f 18//33 49//33 46//33
f 7//34 46//34 48//34
f 48//35 29//35 7//35
f 48//36 28//36 62//36
f 48//37 3//37 29//37
f 6//38 49//38 47//38
f 1//39 50//39 8//39
f 19//40 28//40 49//40
f 28//41 46//41 49//41
f 27//42 47//42 50//42
f 50//43 18//43 66//43
f 17//44 51//44 45//44
f 51//45 5//45 31//45
f 9//46 51//46 43//46
f 7//47 52//47 44//47
f 52//48 3//48 30//48
f 52//49 9//49 43//49
f 2//50 53//50 22//50
f 20//51 44//51 53//51
f 42//52 44//52 17//52
f 10//53 55//53 40//53
f 60//54 23//54 54//54
f 55//55 5//55 60//55
f 21//56 40//56 39//56
f 12//57 57//57 37//57
f 40//58 16//58 39//58
f 57//59 23//59 34//59
f 26//60 24//60 58//60
f 34//61 56//61 57//61
f 24//62 37//62 58//62
f 36//63 37//63 15//63
f 13//64 59//64 35//64
f 8//65 2//65 59//65
f 2//66 22//66 59//66
f 28//67 34//67 61//67
f 1//68 8//68 59//68
f 60//69 30//69 14//69
f 60//70 5//70 9//70
f 25//71 35//71 32//71
f 32//72 21//72 25//72
f 14//73 30//73 62//73
f 13//74 63//74 1//74
f 11//75 32//75 35//75
f 63//76 15//76 38//76
f 63//77 6//77 27//77
f 64//78 16//78 41//78
f 64//79 12//79 24//79
f 32//80 42//80 65//80
f 42//81 45//81 65//81
f 21//82 45//82 10//82
f 66//83 2//83 8//83
f 7//84 20//84 66//84
f 26//85 58//85 36//85
f 57//86 56//86 15//86
f 6//87 38//87 56//87
f 55//88 54//88 16//88
f 41//89 54//89 33//89
f 22//90 53//90 42//90
f 44//91 52//91 43//91
f 45//92 51//92 31//92
f 18//93 47//93 49//93
f 7//94 18//94 46//94
f 48//95 46//95 28//95
f 48//96 62//96 3//96
f 6//97 19//97 49//97
f 1//98 27//98 50//98
f 27//99 6//99 47//99
f 50//100 47//100 18//100
f 17//101 43//101 51//101
f 51//102 9//102 5//102
f 7//103 29//103 52//103
f 52//104 29//104 3//104
f 52//105 30//105 9//105
f 2//106 20//106 53//106
f 20//107 7//107 44//107
f 42//108 53//108 44//108
f 10//109 31//109 55//109
f 55//110 31//110 5//110
f 21//111 10//111 40//111
f 12//112 33//112 57//112
f 57//113 33//113 23//113
f 26//114 4//114 24//114
f 24//115 12//115 37//115
f 36//116 58//116 37//116
f 13//117 1//117 59//117
f 28//118 19//118 34//118
f 25//119 4//119 35//119
f 32//120 65//120 21//120
f 13//121 36//121 63//121
f 63//122 36//122 15//122
f 63//123 38//123 6//123
f 64//124 39//124 16//124
f 64//125 41//125 12//125
f 32//126 11//126 42//126
f 42//127 17//127 45//127
f 21//128 65//128 45//128
