# Blender 4.1.1
# www.blender.org
mtllib Cube.066_Cube.070.mtl
o Cube.066_Cube.070
v -17.497360 6.433120 -4.312132
v -17.660484 6.495347 -4.344329
v -17.360455 7.615824 -3.672483
v -17.417080 6.516362 -4.504538
v -17.283504 7.716489 -3.858886
v -17.343935 6.993764 -3.975410
v -17.500465 7.089489 -3.962920
v -17.579111 6.442683 -4.336398
v -17.300106 7.709022 -3.801433
v -17.441408 7.158135 -4.204279
v -17.623915 6.518619 -4.453062
v -17.271868 7.094145 -4.175191
v -17.451122 6.468638 -4.407279
v -17.229914 7.690504 -3.712826
v -17.290146 7.034760 -4.068114
v -17.355789 7.129371 -4.195493
v -17.515457 7.117969 -4.103720
v -17.443012 7.023816 -3.980201
v -17.201216 7.585106 -3.623723
v -17.587852 6.787307 -4.178141
v -17.528292 6.886659 -4.370505
v -17.682999 6.528133 -4.402776
v -17.125389 7.670973 -3.820306
v -17.355612 6.812526 -4.325982
v -17.587517 6.567161 -4.546435
v -17.436949 6.497579 -4.454018
v -17.430281 6.714792 -4.129420
v -17.269892 7.605856 -3.641327
v -17.447403 7.323173 -3.816211
v -17.325243 7.692679 -3.697490
v -17.369631 7.433935 -4.038353
v -17.614000 6.565054 -4.490490
v -17.206846 7.370942 -4.007845
v -17.179016 7.605938 -3.675726
v -17.502441 6.518108 -4.468517
v -17.388197 6.772861 -4.245171
v -17.294489 7.062595 -4.112415
v -17.328438 7.019901 -4.025943
v -17.468241 6.834706 -4.360243
v -17.401381 7.137245 -4.187794
v -17.328060 7.112955 -4.180840
v -17.573025 6.840866 -4.273962
v -17.414307 7.381267 -3.929412
v -17.498978 7.083908 -4.054602
v -17.454044 7.126541 -4.145985
v -17.368946 7.296729 -3.808820
v -17.383997 7.009463 -3.983246
v -17.399961 7.313787 -3.817570
v -17.325872 7.287749 -3.815019
v -17.476170 6.724909 -4.125316
v -17.423840 7.417607 -3.984880
v -17.442036 7.348759 -3.856653
v -17.582094 6.808159 -4.215438
v -17.269703 7.453242 -3.980779
v -17.343758 7.415781 -4.019965
v -17.244080 7.348074 -3.866896
v -17.233187 7.347946 -3.957241
v -17.383022 6.800331 -4.293205
v -17.563169 6.488853 -4.376586
v -17.251657 7.707308 -3.851197
v -17.201477 7.626555 -3.723722
v -17.306774 7.659069 -3.634189
v -17.409687 6.752447 -4.201423
v -17.402330 6.834987 -4.342025
v -17.572060 6.865200 -4.314860
v -17.537893 6.725441 -4.169393
vn -0.5295 -0.3163 0.7871
vn 0.4602 0.3863 -0.7993
vn 0.7254 0.2109 0.6553
vn 0.2478 0.9461 0.2087
vn -0.0460 -0.9427 -0.3304
vn -0.5427 -0.3671 0.7555
vn 0.5871 0.3331 -0.7378
vn 0.2434 0.4657 -0.8508
vn 0.2449 0.4267 -0.8706
vn 0.4538 0.3638 -0.8135
vn 0.7368 -0.4387 0.5144
vn 0.8925 -0.3914 0.2242
vn -0.1900 -0.8935 -0.4069
vn -0.1361 -0.8233 -0.5510
vn -0.0221 0.9148 0.4033
vn 0.1263 0.8597 0.4949
vn 0.6083 0.3245 0.7243
vn 0.2385 0.4325 -0.8695
vn -0.2644 -0.4551 0.8503
vn 0.9560 -0.2648 0.1259
vn 0.9472 -0.2996 0.1142
vn -0.7322 0.4895 0.4736
vn 0.9040 0.4176 -0.0914
vn -0.2787 -0.9489 -0.1479
vn 0.9784 -0.1178 -0.1699
vn 0.9427 -0.3062 0.1323
vn -0.0532 0.5234 -0.8504
vn 0.3348 0.4331 -0.8368
vn 0.2400 0.4603 -0.8547
vn -0.5246 0.4754 -0.7063
vn -0.9196 0.1021 0.3793
vn -0.9578 0.2822 -0.0548
vn 0.0104 -0.5338 0.8455
vn -0.4273 -0.3490 0.8340
vn -0.0779 -0.5174 0.8522
vn -0.3553 -0.3619 0.8619
vn -0.0584 -0.4260 0.9028
vn -0.3341 -0.4355 0.8359
vn -0.2997 -0.4989 0.8132
vn -0.3398 -0.4040 0.8493
vn 0.0254 -0.4825 0.8755
vn -0.0173 -0.4421 0.8968
vn -0.5537 -0.3132 0.7716
vn -0.5485 0.4478 -0.7062
vn -0.6702 0.5326 -0.5168
vn -0.9318 0.2087 0.2969
vn -0.9724 0.2314 -0.0299
vn -0.9167 0.3751 -0.1379
vn -0.9068 0.3839 -0.1741
vn -0.9175 0.0685 0.3918
vn -0.9590 0.2831 0.0101
vn -0.9478 0.0011 0.3188
vn 0.5107 0.3638 -0.7790
vn 0.3265 0.4109 -0.8512
vn 0.3218 0.3962 -0.8599
vn 0.4536 0.3636 -0.8137
vn 0.9352 -0.3017 0.1853
vn -0.0585 0.5041 -0.8617
vn 0.9112 -0.3757 0.1690
vn 0.7707 -0.4005 0.4955
vn 0.9400 -0.3215 0.1138
vn 0.7354 -0.5350 0.4160
vn 0.9528 -0.2060 -0.2228
vn -0.2769 -0.8476 -0.4527
vn -0.2928 -0.5683 -0.7690
vn -0.1984 -0.8855 -0.4203
vn 0.1280 0.9316 0.3403
vn 0.1356 -0.6767 -0.7236
vn 0.0410 0.9926 0.1141
vn 0.2293 0.9546 0.1903
vn -0.3467 -0.9167 -0.1986
vn -0.8452 0.3693 -0.3862
vn 0.0920 0.8904 0.4459
vn 0.8877 -0.3482 0.3014
vn -0.1024 -0.6109 -0.7851
vn 0.7148 -0.5223 0.4651
vn 0.9362 -0.3396 0.0902
vn 0.5756 0.2897 -0.7647
vn 0.4411 0.3182 -0.8392
vn -0.9926 0.1131 0.0438
vn -0.9345 0.3151 0.1654
vn -0.9463 0.3217 -0.0308
vn -0.3616 -0.4345 0.8249
vn -0.5733 -0.3588 0.7366
vn 0.9841 -0.1776 0.0044
vn 0.9690 -0.2177 0.1171
vn 0.9430 -0.3059 0.1310
vn 0.1883 0.5074 -0.8409
vn 0.2367 0.4619 -0.8547
vn -0.9469 0.3198 0.0320
vn -0.9182 0.3441 -0.1962
vn -0.7020 0.3993 -0.5897
vn -0.0781 -0.5037 0.8603
vn -0.2695 -0.4586 0.8468
vn -0.4183 -0.3255 0.8480
vn -0.3175 -0.3765 0.8703
vn -0.2348 -0.4544 0.8593
vn -0.0429 -0.5365 0.8428
vn -0.3189 -0.3805 0.8681
vn -0.0583 -0.4308 0.9006
vn -0.9437 0.1780 0.2788
vn -0.8572 0.4806 -0.1852
vn -0.9762 0.2169 0.0077
vn -0.9631 0.2662 0.0406
vn -0.9098 0.3829 -0.1598
vn -0.9688 0.2474 -0.0113
vn -0.9534 0.2997 -0.0337
vn -0.9590 0.2834 0.0098
vn 0.6704 0.2466 -0.6999
vn 0.6692 0.2422 -0.7025
vn 0.5014 0.3294 -0.8001
vn 0.8800 -0.3794 0.2857
vn 0.8731 -0.4059 0.2700
vn 0.9134 -0.3318 0.2359
vn 0.9218 -0.3561 0.1532
vn 0.9574 -0.2828 -0.0586
vn -0.2767 -0.8485 -0.4512
vn 0.1601 0.8908 0.4252
vn -0.1780 -0.9087 -0.3777
vn -0.7913 0.3874 -0.4730
vn 0.8977 -0.3369 0.2838
vn 0.8618 -0.4629 0.2073
vn 0.9306 -0.3509 0.1039
vn 0.2424 0.4013 -0.8833
vn 0.2344 0.4400 -0.8669
vn -0.9833 0.1776 -0.0401
vn -0.5321 0.5207 -0.6676
vn -0.7391 0.5679 -0.3623
s 0
usemtl Fence
f 20//1 2//1 66//1
f 24//2 4//2 64//2
f 14//3 28//3 61//3
f 60//4 9//4 30//4
f 59//5 11//5 35//5
f 66//6 8//6 50//6
f 54//7 41//7 16//7
f 23//8 33//8 54//8
f 60//9 54//9 55//9
f 39//10 25//10 21//10
f 56//11 38//11 15//11
f 34//12 19//12 56//12
f 35//13 4//13 26//13
f 13//14 35//14 26//14
f 23//15 61//15 34//15
f 60//16 61//16 23//16
f 14//17 62//17 28//17
f 64//18 4//18 39//18
f 7//19 66//19 18//19
f 26//20 36//20 13//20
f 63//21 27//21 1//21
f 30//22 3//22 62//22
f 60//23 14//23 61//23
f 59//24 22//24 11//24
f 57//25 15//25 37//25
f 6//26 56//26 19//26
f 55//27 16//27 40//27
f 39//28 4//28 25//28
f 41//29 33//29 12//29
f 22//30 42//30 11//30
f 44//31 43//31 17//31
f 45//32 31//32 10//32
f 18//33 49//33 46//33
f 7//34 46//34 48//34
f 48//35 29//35 7//35
f 48//36 28//36 62//36
f 48//37 3//37 29//37
f 6//38 49//38 47//38
f 1//39 50//39 8//39
f 19//40 28//40 49//40
f 28//41 46//41 49//41
f 27//42 47//42 50//42
f 50//43 18//43 66//43
f 17//44 51//44 45//44
f 51//45 5//45 31//45
f 9//46 51//46 43//46
f 7//47 52//47 44//47
f 52//48 3//48 30//48
f 52//49 9//49 43//49
f 2//50 53//50 22//50
f 20//51 44//51 53//51
f 42//52 44//52 17//52
f 10//53 55//53 40//53
f 60//54 23//54 54//54
f 55//55 5//55 60//55
f 21//56 40//56 39//56
f 12//57 57//57 37//57
f 40//58 16//58 39//58
f 57//59 23//59 34//59
f 26//60 24//60 58//60
f 34//61 56//61 57//61
f 24//62 37//62 58//62
f 36//63 37//63 15//63
f 13//64 59//64 35//64
f 8//65 2//65 59//65
f 2//66 22//66 59//66
f 28//67 34//67 61//67
f 1//68 8//68 59//68
f 60//69 30//69 14//69
f 60//70 5//70 9//70
f 25//71 35//71 32//71
f 32//72 21//72 25//72
f 14//73 30//73 62//73
f 13//74 63//74 1//74
f 11//75 32//75 35//75
f 63//76 15//76 38//76
f 63//77 6//77 27//77
f 64//78 16//78 41//78
f 64//79 12//79 24//79
f 32//80 42//80 65//80
f 42//81 45//81 65//81
f 21//82 45//82 10//82
f 66//83 2//83 8//83
f 7//84 20//84 66//84
f 26//85 58//85 36//85
f 57//86 56//86 15//86
f 6//87 38//87 56//87
f 55//88 54//88 16//88
f 41//89 54//89 33//89
f 22//90 53//90 42//90
f 44//91 52//91 43//91
f 45//92 51//92 31//92
f 18//93 47//93 49//93
f 7//94 18//94 46//94
f 48//95 46//95 28//95
f 48//96 62//96 3//96
f 6//97 19//97 49//97
f 1//98 27//98 50//98
f 27//99 6//99 47//99
f 50//100 47//100 18//100
f 17//101 43//101 51//101
f 51//102 9//102 5//102
f 7//103 29//103 52//103
f 52//104 29//104 3//104
f 52//105 30//105 9//105
f 2//106 20//106 53//106
f 20//107 7//107 44//107
f 42//108 53//108 44//108
f 10//109 31//109 55//109
f 55//110 31//110 5//110
f 21//111 10//111 40//111
f 12//112 33//112 57//112
f 57//113 33//113 23//113
f 26//114 4//114 24//114
f 24//115 12//115 37//115
f 36//116 58//116 37//116
f 13//117 1//117 59//117
f 28//118 19//118 34//118
f 25//119 4//119 35//119
f 32//120 65//120 21//120
f 13//121 36//121 63//121
f 63//122 36//122 15//122
f 63//123 38//123 6//123
f 64//124 39//124 16//124
f 64//125 41//125 12//125
f 32//126 11//126 42//126
f 42//127 17//127 45//127
f 21//128 65//128 45//128
