# Blender 4.1.1
# www.blender.org
mtllib Plane.016_Plane.026.mtl
o Plane.016_Plane.026
v -0.215593 -2.287917 -0.899147
v -0.206662 -2.302523 -0.701489
v -0.188382 -2.243759 -0.897113
v -0.179450 -2.258365 -0.699455
v -0.203215 -2.263830 -0.925298
v -0.200060 -2.302459 -0.791234
v -0.193056 -2.280444 -0.700472
v -0.172848 -2.258301 -0.789200
v -0.181092 -2.282548 -0.814878
v -0.195680 -2.148844 -0.841406
v -0.206461 -2.151925 -0.643325
v -0.243329 -2.128376 -0.843682
v -0.254111 -2.131458 -0.645600
v -0.218023 -2.138186 -0.869770
v -0.196714 -2.139072 -0.731855
v -0.230286 -2.141691 -0.644463
v -0.244363 -2.118605 -0.734130
v -0.216244 -2.121494 -0.756851
v -0.390049 -2.167444 -0.888649
v -0.424519 -2.176879 -0.693496
v -0.401690 -2.217830 -0.893141
v -0.436160 -2.227266 -0.697989
v -0.391132 -2.191340 -0.917719
v -0.421004 -2.169700 -0.783128
v -0.430339 -2.202073 -0.695742
v -0.432645 -2.220087 -0.787620
v -0.429899 -2.191957 -0.810344
v -0.226835 -2.496273 -0.933352
v -0.221983 -2.505681 -0.735237
v -0.208639 -2.544810 -0.936103
v -0.203786 -2.554218 -0.737987
v -0.218404 -2.519248 -0.961958
v -0.235848 -2.505840 -0.824149
v -0.212885 -2.529949 -0.736612
v -0.217651 -2.554377 -0.826900
v -0.234442 -2.531627 -0.849611
v -0.361548 -2.201264 -0.893252
v -0.375717 -2.213726 -0.695754
v -0.311395 -2.188622 -0.888857
v -0.325564 -2.201084 -0.691358
v -0.334524 -2.193230 -0.918200
v -0.366261 -2.220208 -0.785008
v -0.350640 -2.207405 -0.693556
v -0.316107 -2.207566 -0.780612
v -0.337579 -2.219710 -0.807196
v -0.355070 -2.427076 -0.925023
v -0.359470 -2.455093 -0.728663
v -0.345272 -2.376643 -0.917608
v -0.349672 -2.404659 -0.721247
v -0.349566 -2.398009 -0.948305
v -0.345240 -2.444879 -0.816929
v -0.354571 -2.429876 -0.724955
v -0.335442 -2.394446 -0.809513
v -0.332358 -2.417691 -0.837179
v -0.064327 -2.213826 -0.895776
v -0.068727 -2.241843 -0.699415
v -0.056872 -2.264705 -0.902868
v -0.061272 -2.292722 -0.706508
v -0.059994 -2.235415 -0.926312
v -0.079099 -2.230994 -0.788142
v -0.064999 -2.267282 -0.702962
v -0.071644 -2.281873 -0.795235
v -0.082340 -2.254076 -0.815926
vn -0.9038 0.4155 -0.1022
vn -0.9107 0.3367 0.2395
vn -0.7203 0.6456 0.2537
vn -0.7734 0.6271 -0.0924
vn -0.2604 -0.9441 -0.2022
vn -0.2231 -0.9638 0.1460
vn -0.5566 -0.8206 0.1301
vn -0.4887 -0.8460 -0.2131
vn 0.9948 -0.1012 -0.0051
vn 0.9390 -0.0600 0.3387
vn 0.8575 -0.4126 0.3072
vn 0.9391 -0.3427 -0.0266
vn 0.8669 0.4678 -0.1723
vn 0.8469 0.5017 0.1762
vn 0.9742 0.1621 0.1569
vn 0.9541 0.2352 -0.1855
vn -0.3499 0.9262 -0.1405
vn -0.4277 0.8819 0.1986
vn -0.0767 0.9703 0.2294
vn -0.1095 0.9868 -0.1194
vn -0.9789 0.0892 -0.1841
vn -0.9885 -0.0169 0.1501
vn -0.9200 0.3360 0.2020
vn -0.9319 0.3309 -0.1485
vn 0.9526 0.2823 -0.1132
vn 0.9279 0.2882 0.2366
vn 0.9800 -0.0677 0.1869
vn 0.9884 0.0384 -0.1472
vn -0.8484 0.5257 -0.0620
vn -0.9738 0.1598 0.1617
vn -0.5878 0.7862 0.1906
vn -0.3816 -0.9078 -0.1738
vn -0.0308 -0.9956 0.0885
vn -0.7067 -0.7052 0.0562
vn -0.3817 -0.9078 -0.1738
vn 0.9737 -0.2268 0.0200
vn 0.9500 0.1347 0.2816
vn 0.7849 -0.5801 0.2179
vn 0.9738 -0.2267 0.0200
vn 0.9238 0.3545 -0.1447
vn 0.7383 0.6638 0.1191
vn 0.9965 -0.0247 0.0801
vn -0.2355 0.9672 -0.0952
vn -0.5921 0.7978 0.1138
vn 0.1193 0.9771 0.1762
vn -0.9692 0.2077 -0.1322
vn -0.9787 -0.1971 0.0565
vn -0.8397 0.5183 0.1617
vn 0.9829 0.1573 -0.0957
vn 0.8587 0.4745 0.1935
vn 0.9645 -0.2473 0.0929
vn 0.9829 0.1574 -0.0957
s 0
usemtl Material.001
f 7//1 8//1 9//1
f 9//2 3//2 5//2
f 1//3 9//3 5//3
f 6//4 7//4 9//4
f 16//5 17//5 18//5
f 18//6 12//6 14//6
f 10//7 18//7 14//7
f 15//8 16//8 18//8
f 25//9 26//9 27//9
f 27//10 21//10 23//10
f 19//11 27//11 23//11
f 24//12 25//12 27//12
f 34//13 35//13 36//13
f 36//14 30//14 32//14
f 28//15 36//15 32//15
f 33//16 34//16 36//16
f 43//17 44//17 45//17
f 45//18 39//18 41//18
f 37//19 45//19 41//19
f 42//20 43//20 45//20
f 52//21 53//21 54//21
f 54//22 48//22 50//22
f 46//23 54//23 50//23
f 51//24 52//24 54//24
f 61//25 62//25 63//25
f 63//26 57//26 59//26
f 55//27 63//27 59//27
f 60//28 61//28 63//28
f 7//29 4//29 8//29
f 9//30 8//30 3//30
f 1//31 6//31 9//31
f 6//29 2//29 7//29
f 16//32 13//32 17//32
f 18//33 17//33 12//33
f 10//34 15//34 18//34
f 15//35 11//35 16//35
f 25//36 22//36 26//36
f 27//37 26//37 21//37
f 19//38 24//38 27//38
f 24//39 20//39 25//39
f 34//40 31//40 35//40
f 36//41 35//41 30//41
f 28//42 33//42 36//42
f 33//40 29//40 34//40
f 43//43 40//43 44//43
f 45//44 44//44 39//44
f 37//45 42//45 45//45
f 42//43 38//43 43//43
f 52//46 49//46 53//46
f 54//47 53//47 48//47
f 46//48 51//48 54//48
f 51//46 47//46 52//46
f 61//49 58//49 62//49
f 63//50 62//50 57//50
f 55//51 60//51 63//51
f 60//52 56//52 61//52
