# Blender 4.1.1
# www.blender.org
mtllib Plane.016_Plane.026.mtl
o Plane.016_Plane.026
v -0.168277 4.952646 3.316848
v -0.143902 4.413190 3.276985
v -0.094012 4.947095 3.437366
v -0.069634 4.407639 3.397503
v -0.134495 5.024018 3.382587
v -0.125884 4.658125 3.277160
v -0.106768 4.410414 3.337244
v -0.051616 4.652575 3.397677
v -0.074116 4.722655 3.331502
v -0.113930 4.795057 3.696412
v -0.143354 4.254447 3.688004
v -0.243975 4.801269 3.752274
v -0.273402 4.260656 3.743863
v -0.174909 4.872470 3.725500
v -0.116752 4.496066 3.723082
v -0.208378 4.257553 3.715935
v -0.246798 4.502275 3.778942
v -0.170054 4.564286 3.771057
v -0.644410 4.923995 3.645648
v -0.738487 4.391376 3.619898
v -0.676181 4.936255 3.508132
v -0.770258 4.403637 3.482379
v -0.647365 5.003334 3.580430
v -0.728893 4.636003 3.639491
v -0.754371 4.397505 3.551137
v -0.760664 4.648262 3.501973
v -0.753170 4.710281 3.578746
v -0.198959 5.045999 2.748194
v -0.185717 4.505295 2.722518
v -0.149298 5.053507 2.615725
v -0.136053 4.512800 2.590049
v -0.175949 5.124071 2.685489
v -0.223558 4.747957 2.722084
v -0.160887 4.509048 2.656285
v -0.173894 4.755466 2.589614
v -0.219721 4.817450 2.651705
v -0.566624 4.936558 3.553345
v -0.605294 4.397538 3.519333
v -0.429744 4.924562 3.587848
v -0.468415 4.385540 3.553837
v -0.492869 5.004646 3.575272
v -0.579486 4.641133 3.501643
v -0.536853 4.391539 3.536585
v -0.442604 4.629136 3.536145
v -0.501206 4.701690 3.503001
v -0.548944 5.023267 2.937049
v -0.560952 4.487353 2.860585
v -0.522202 5.003030 3.074693
v -0.534211 4.467113 2.998231
v -0.533922 5.086810 3.016380
v -0.522115 4.728252 2.888461
v -0.547582 4.477234 2.929408
v -0.495374 4.708013 3.026105
v -0.486957 4.783520 2.962663
v 0.244564 4.943446 3.519060
v 0.232555 4.407530 3.442595
v 0.264911 4.962801 3.380199
v 0.252902 4.426888 3.303734
v 0.256390 5.026786 3.460138
v 0.204248 4.649687 3.472205
v 0.242730 4.417210 3.373166
v 0.224594 4.669045 3.333344
v 0.195402 4.725516 3.409208
vn -0.9038 0.1022 0.4155
vn -0.9107 -0.2395 0.3366
vn -0.7203 -0.2537 0.6456
vn -0.7735 0.0924 0.6271
vn -0.2604 0.2022 -0.9441
vn -0.2231 -0.1460 -0.9638
vn -0.5565 -0.1301 -0.8206
vn -0.4887 0.2131 -0.8460
vn 0.9948 0.0051 -0.1012
vn 0.9390 -0.3387 -0.0600
vn 0.8575 -0.3072 -0.4126
vn 0.9391 0.0266 -0.3427
vn 0.8669 0.1723 0.4678
vn 0.8469 -0.1762 0.5017
vn 0.9742 -0.1569 0.1621
vn 0.9541 0.1855 0.2352
vn -0.3499 0.1405 0.9262
vn -0.4276 -0.1986 0.8819
vn -0.0767 -0.2294 0.9703
vn -0.1095 0.1194 0.9868
vn -0.9789 0.1841 0.0892
vn -0.9885 -0.1501 -0.0169
vn -0.9200 -0.2020 0.3360
vn -0.9319 0.1485 0.3309
vn 0.9526 0.1132 0.2823
vn 0.9279 -0.2366 0.2882
vn 0.9800 -0.1869 -0.0677
vn 0.9884 0.1472 0.0384
vn -0.8484 0.0620 0.5257
vn -0.9738 -0.1617 0.1598
vn -0.5878 -0.1906 0.7862
vn -0.3816 0.1738 -0.9078
vn -0.0308 -0.0885 -0.9956
vn -0.7067 -0.0562 -0.7052
vn -0.3817 0.1738 -0.9078
vn 0.9737 -0.0200 -0.2268
vn 0.9500 -0.2816 0.1347
vn 0.7849 -0.2179 -0.5801
vn 0.9738 -0.0200 -0.2267
vn 0.9238 0.1447 0.3545
vn 0.7383 -0.1191 0.6638
vn 0.9965 -0.0801 -0.0247
vn -0.2355 0.0952 0.9672
vn -0.5921 -0.1138 0.7978
vn 0.1193 -0.1762 0.9771
vn -0.9692 0.1322 0.2077
vn -0.9787 -0.0565 -0.1971
vn -0.8397 -0.1617 0.5183
vn 0.9829 0.0957 0.1573
vn 0.8587 -0.1935 0.4745
vn 0.9645 -0.0929 -0.2473
vn 0.9829 0.0957 0.1574
s 0
usemtl Material.001
f 7//1 8//1 9//1
f 9//2 3//2 5//2
f 1//3 9//3 5//3
f 6//4 7//4 9//4
f 16//5 17//5 18//5
f 18//6 12//6 14//6
f 10//7 18//7 14//7
f 15//8 16//8 18//8
f 25//9 26//9 27//9
f 27//10 21//10 23//10
f 19//11 27//11 23//11
f 24//12 25//12 27//12
f 34//13 35//13 36//13
f 36//14 30//14 32//14
f 28//15 36//15 32//15
f 33//16 34//16 36//16
f 43//17 44//17 45//17
f 45//18 39//18 41//18
f 37//19 45//19 41//19
f 42//20 43//20 45//20
f 52//21 53//21 54//21
f 54//22 48//22 50//22
f 46//23 54//23 50//23
f 51//24 52//24 54//24
f 61//25 62//25 63//25
f 63//26 57//26 59//26
f 55//27 63//27 59//27
f 60//28 61//28 63//28
f 7//29 4//29 8//29
f 9//30 8//30 3//30
f 1//31 6//31 9//31
f 6//29 2//29 7//29
f 16//32 13//32 17//32
f 18//33 17//33 12//33
f 10//34 15//34 18//34
f 15//35 11//35 16//35
f 25//36 22//36 26//36
f 27//37 26//37 21//37
f 19//38 24//38 27//38
f 24//39 20//39 25//39
f 34//40 31//40 35//40
f 36//41 35//41 30//41
f 28//42 33//42 36//42
f 33//40 29//40 34//40
f 43//43 40//43 44//43
f 45//44 44//44 39//44
f 37//45 42//45 45//45
f 42//43 38//43 43//43
f 52//46 49//46 53//46
f 54//47 53//47 48//47
f 46//48 51//48 54//48
f 51//46 47//46 52//46
f 61//49 58//49 62//49
f 63//50 62//50 57//50
f 55//51 60//51 63//51
f 60//52 56//52 61//52
