# Blender 4.1.1
# www.blender.org
mtllib Cube.048_Cube.052.mtl
o Cube.048_Cube.052
v 0.815647 5.924067 16.766495
v 0.695863 5.925503 16.897522
v -0.280539 5.727978 16.000587
v 0.851866 5.703653 16.788883
v -0.261969 5.504017 16.017828
v 0.328535 5.824457 16.314783
v 0.170247 5.839596 16.407181
v 0.775710 5.930175 16.842197
v -0.283151 5.557834 16.000879
v 0.223961 5.597420 16.477322
v 0.731128 5.816879 16.923193
v 0.349353 5.592229 16.343399
v 0.841321 5.815719 16.773836
v -0.262996 5.609756 15.900782
v 0.352713 5.712288 16.313395
v 0.286379 5.588397 16.412073
v 0.186535 5.722498 16.490143
v 0.257127 5.840729 16.388123
v -0.193512 5.723693 15.855379
v 0.441648 5.869290 16.673136
v 0.454680 5.647810 16.707775
v 0.677727 5.871581 16.939489
v -0.160218 5.500313 15.882944
v 0.584674 5.658672 16.565365
v 0.740885 5.706481 16.934008
v 0.840477 5.759445 16.781263
v 0.561511 5.887978 16.539921
v -0.238214 5.724130 15.914183
v -0.040254 5.806883 16.223970
v -0.316775 5.654938 15.967068
v -0.017579 5.549977 16.257875
v 0.711024 5.759871 16.924343
v 0.103208 5.547791 16.128254
v -0.182136 5.664831 15.861456
v 0.796490 5.761208 16.835882
v 0.573806 5.753356 16.556263
v 0.342828 5.665197 16.334391
v 0.331856 5.766311 16.323986
v 0.522679 5.661636 16.667831
v 0.255039 5.606620 16.441826
v 0.308404 5.598277 16.386177
v 0.437554 5.762179 16.701086
v -0.033248 5.677460 16.245995
v 0.205814 5.772182 16.458458
v 0.223874 5.663366 16.462921
v 0.017232 5.798158 16.164568
v 0.298756 5.824640 16.346819
v -0.008879 5.793625 16.189610
v 0.047728 5.782585 16.136253
v 0.529404 5.902369 16.571339
v -0.048835 5.619185 16.275139
v -0.044820 5.760405 16.235712
v 0.440043 5.827599 16.684025
v -0.002951 5.547172 16.141897
v 0.003692 5.564309 16.231815
v 0.056631 5.680986 16.085068
v 0.091999 5.608249 16.126778
v 0.570141 5.700151 16.571905
v 0.759697 5.869018 16.840189
v -0.241437 5.503214 15.990707
v -0.193910 5.625378 15.900673
v -0.301576 5.714471 15.925800
v 0.565176 5.805443 16.554113
v 0.548891 5.651399 16.605507
v 0.431978 5.717625 16.716883
v 0.513160 5.890939 16.644541
vn -0.2667 0.9618 0.0612
vn 0.1802 -0.9835 -0.0175
vn -0.0293 0.1226 -0.9920
vn -0.7085 -0.4380 -0.5534
vn 0.8455 0.2701 0.4607
vn -0.2219 0.9697 0.1022
vn 0.2653 -0.9542 -0.1385
vn 0.0266 -0.9864 0.1623
vn 0.0654 -0.9811 0.1822
vn 0.1999 -0.9798 0.0012
vn 0.5458 0.3592 -0.7570
vn 0.6805 0.0561 -0.7306
vn 0.7602 0.2377 0.6046
vn 0.7780 0.0708 0.6243
vn -0.8807 -0.1748 -0.4403
vn -0.7935 -0.1295 -0.5946
vn -0.2012 0.1569 -0.9669
vn 0.0571 -0.9810 0.1852
vn -0.0454 0.9879 -0.1481
vn 0.6424 -0.1097 -0.7585
vn 0.6700 -0.0968 -0.7360
vn -0.9114 0.3647 0.1905
vn 0.1395 -0.6221 -0.7704
vn 0.6754 0.4971 0.5447
vn 0.6330 -0.4222 -0.6489
vn 0.6671 -0.0778 -0.7409
vn -0.1661 -0.9091 0.3819
vn 0.0932 -0.9915 0.0906
vn 0.0306 -0.9852 0.1685
vn -0.4073 -0.6022 0.6866
vn -0.6607 0.5688 0.4898
vn -0.6808 0.1555 0.7158
vn 0.1549 0.9266 -0.3427
vn -0.2056 0.9779 -0.0374
vn 0.0960 0.9549 -0.2808
vn -0.1689 0.9799 -0.1066
vn 0.0154 0.9375 -0.3477
vn -0.0907 0.9918 -0.0900
vn -0.0152 0.9960 -0.0884
vn -0.1233 0.9872 -0.1011
vn 0.1111 0.9165 -0.3844
vn 0.0506 0.9266 -0.3727
vn -0.2760 0.9571 0.0882
vn -0.3969 -0.5786 0.7125
vn -0.5878 -0.4355 0.6818
vn -0.7253 0.4532 0.5183
vn -0.6553 0.2068 0.7265
vn -0.7078 0.0273 0.7059
vn -0.6981 -0.0086 0.7159
vn -0.6367 0.5954 0.4899
vn -0.7037 0.2048 0.6804
vn -0.5732 0.5870 0.5717
vn 0.2166 -0.9742 -0.0629
vn 0.1118 -0.9875 0.1108
vn 0.1242 -0.9846 0.1232
vn 0.2001 -0.9798 0.0015
vn 0.6422 -0.0371 -0.7657
vn -0.1493 -0.9055 0.3973
vn 0.6953 -0.0012 -0.7187
vn 0.5380 0.3120 -0.7831
vn 0.6842 -0.0828 -0.7246
vn 0.6552 0.3362 -0.6765
vn 0.7089 -0.4060 -0.5767
vn 0.6956 0.2099 0.6871
vn 0.5676 -0.1751 0.8045
vn 0.7540 0.2263 0.6166
vn -0.7994 -0.2864 -0.5281
vn 0.8509 -0.2382 0.4681
vn -0.8165 -0.4598 -0.3490
vn -0.7184 -0.4499 -0.5306
vn 0.6328 0.4659 0.6184
vn -0.5858 -0.1848 0.7891
vn -0.8189 -0.1708 -0.5480
vn 0.6178 0.0935 -0.7808
vn 0.7010 -0.2336 0.6738
vn 0.6186 0.3743 -0.6908
vn 0.7046 -0.0897 -0.7039
vn 0.3035 -0.9472 -0.1033
vn 0.2389 -0.9703 0.0372
vn -0.5944 0.3338 0.7316
vn -0.7687 0.2970 0.5665
vn -0.7149 0.1483 0.6833
vn -0.1014 0.9929 -0.0624
vn -0.2373 0.9620 0.1348
vn 0.6263 -0.2593 -0.7352
vn 0.6138 -0.1464 -0.7758
vn 0.6674 -0.0791 -0.7405
vn -0.0374 -0.9811 0.1897
vn 0.0277 -0.9849 0.1708
vn -0.7344 0.1973 0.6494
vn -0.6643 -0.0000 0.7475
vn -0.4720 -0.4081 0.7815
vn 0.0823 0.9539 -0.2886
vn -0.0439 0.9890 -0.1412
vn -0.2248 0.9727 -0.0583
vn -0.1414 0.9804 -0.1373
vn -0.0343 0.9836 -0.1768
vn 0.1318 0.9453 -0.2984
vn -0.1381 0.9813 -0.1340
vn 0.0200 0.9383 -0.3454
vn -0.7004 0.4602 0.5456
vn -0.7477 -0.0869 0.6583
vn -0.6579 0.2446 0.7123
vn -0.7021 0.2385 0.6710
vn -0.7035 0.0038 0.7107
vn -0.6727 0.2111 0.7092
vn -0.6997 0.1604 0.6962
vn -0.7037 0.2043 0.6805
vn 0.3633 -0.9092 -0.2034
vn 0.3672 -0.9084 -0.1999
vn 0.2466 -0.9685 -0.0351
vn 0.6443 0.1010 -0.7580
vn 0.6674 0.1057 -0.7372
vn 0.6389 0.0254 -0.7689
vn 0.6900 -0.0276 -0.7233
vn 0.7186 -0.2412 -0.6522
vn 0.6959 0.2114 0.6863
vn -0.7788 -0.2115 -0.5905
vn 0.7687 0.2638 0.5827
vn -0.5450 -0.2803 0.7902
vn 0.6195 0.0703 -0.7819
vn 0.7284 0.0927 -0.6788
vn 0.7065 -0.0711 -0.7042
vn 0.0887 -0.9763 0.1976
vn 0.0482 -0.9816 0.1849
vn -0.6140 0.2317 0.7545
vn -0.4603 -0.5943 0.6595
vn -0.7012 -0.3117 0.6412
s 0
usemtl Fence2
f 20//1 2//1 66//1
f 24//2 4//2 64//2
f 14//3 28//3 61//3
f 60//4 9//4 30//4
f 59//5 11//5 35//5
f 66//6 8//6 50//6
f 54//7 41//7 16//7
f 23//8 33//8 54//8
f 60//9 54//9 55//9
f 39//10 25//10 21//10
f 56//11 38//11 15//11
f 34//12 19//12 56//12
f 35//13 4//13 26//13
f 13//14 35//14 26//14
f 23//15 61//15 34//15
f 60//16 61//16 23//16
f 14//17 62//17 28//17
f 64//18 4//18 39//18
f 7//19 66//19 18//19
f 26//20 36//20 13//20
f 63//21 27//21 1//21
f 30//22 3//22 62//22
f 60//23 14//23 61//23
f 59//24 22//24 11//24
f 57//25 15//25 37//25
f 6//26 56//26 19//26
f 55//27 16//27 40//27
f 39//28 4//28 25//28
f 41//29 33//29 12//29
f 22//30 42//30 11//30
f 44//31 43//31 17//31
f 45//32 31//32 10//32
f 18//33 49//33 46//33
f 7//34 46//34 48//34
f 48//35 29//35 7//35
f 48//36 28//36 62//36
f 48//37 3//37 29//37
f 6//38 49//38 47//38
f 1//39 50//39 8//39
f 19//40 28//40 49//40
f 28//41 46//41 49//41
f 27//42 47//42 50//42
f 50//43 18//43 66//43
f 17//44 51//44 45//44
f 51//45 5//45 31//45
f 9//46 51//46 43//46
f 7//47 52//47 44//47
f 52//48 3//48 30//48
f 52//49 9//49 43//49
f 2//50 53//50 22//50
f 20//51 44//51 53//51
f 42//52 44//52 17//52
f 10//53 55//53 40//53
f 60//54 23//54 54//54
f 55//55 5//55 60//55
f 21//56 40//56 39//56
f 12//57 57//57 37//57
f 40//58 16//58 39//58
f 57//59 23//59 34//59
f 26//60 24//60 58//60
f 34//61 56//61 57//61
f 24//62 37//62 58//62
f 36//63 37//63 15//63
f 13//64 59//64 35//64
f 8//65 2//65 59//65
f 2//66 22//66 59//66
f 28//67 34//67 61//67
f 1//68 8//68 59//68
f 60//69 30//69 14//69
f 60//70 5//70 9//70
f 25//71 35//71 32//71
f 32//72 21//72 25//72
f 14//73 30//73 62//73
f 13//74 63//74 1//74
f 11//75 32//75 35//75
f 63//76 15//76 38//76
f 63//77 6//77 27//77
f 64//78 16//78 41//78
f 64//79 12//79 24//79
f 32//80 42//80 65//80
f 42//81 45//81 65//81
f 21//82 45//82 10//82
f 66//83 2//83 8//83
f 7//84 20//84 66//84
f 26//85 58//85 36//85
f 57//86 56//86 15//86
f 6//87 38//87 56//87
f 55//88 54//88 16//88
f 41//89 54//89 33//89
f 22//90 53//90 42//90
f 44//91 52//91 43//91
f 45//92 51//92 31//92
f 18//93 47//93 49//93
f 7//94 18//94 46//94
f 48//95 46//95 28//95
f 48//96 62//96 3//96
f 6//97 19//97 49//97
f 1//98 27//98 50//98
f 27//99 6//99 47//99
f 50//100 47//100 18//100
f 17//101 43//101 51//101
f 51//102 9//102 5//102
f 7//103 29//103 52//103
f 52//104 29//104 3//104
f 52//105 30//105 9//105
f 2//106 20//106 53//106
f 20//107 7//107 44//107
f 42//108 53//108 44//108
f 10//109 31//109 55//109
f 55//110 31//110 5//110
f 21//111 10//111 40//111
f 12//112 33//112 57//112
f 57//113 33//113 23//113
f 26//114 4//114 24//114
f 24//115 12//115 37//115
f 36//116 58//116 37//116
f 13//117 1//117 59//117
f 28//118 19//118 34//118
f 25//119 4//119 35//119
f 32//120 65//120 21//120
f 13//121 36//121 63//121
f 63//122 36//122 15//122
f 63//123 38//123 6//123
f 64//124 39//124 16//124
f 64//125 41//125 12//125
f 32//126 11//126 42//126
f 42//127 17//127 45//127
f 21//128 65//128 45//128
