# Blender 4.1.1
# www.blender.org
mtllib Cube.065_Cube.069.mtl
o Cube.065_Cube.069
v -6.343224 -5.211769 -1.991370
v -6.402027 -5.228108 -2.013878
v -6.226012 -5.665647 -2.151025
v -6.360726 -5.238872 -1.915708
v -6.244096 -5.699157 -2.077744
v -6.254038 -5.430820 -2.059499
v -6.303404 -5.460905 -2.094117
v -6.373365 -5.211849 -2.000319
v -6.237388 -5.697630 -2.098727
v -6.336473 -5.480532 -2.007845
v -6.413556 -5.234492 -1.973064
v -6.276258 -5.463667 -1.983107
v -6.349641 -5.223332 -1.952680
v -6.197566 -5.695854 -2.111867
v -6.257907 -5.444696 -2.019997
v -6.307395 -5.473129 -1.993519
v -6.337244 -5.466534 -2.053821
v -6.286474 -5.438374 -2.077746
v -6.166476 -5.661139 -2.134138
v -6.359618 -5.341669 -2.048014
v -6.384126 -5.373956 -1.976416
v -6.421952 -5.237539 -2.000276
v -6.186279 -5.688925 -2.058076
v -6.319438 -5.353969 -1.955845
v -6.423186 -5.250525 -1.936803
v -6.355896 -5.232913 -1.935310
v -6.298766 -5.321904 -2.031755
v -6.191798 -5.665915 -2.142414
v -6.268279 -5.552044 -2.126650
v -6.223634 -5.693995 -2.135724
v -6.293668 -5.588179 -2.042190
v -6.420021 -5.250578 -1.959272
v -6.235272 -5.571499 -2.019239
v -6.170980 -5.667875 -2.113600
v -6.379624 -5.237805 -1.943897
v -6.311536 -5.340912 -1.987430
v -6.269269 -5.453344 -2.007107
v -6.260521 -5.439312 -2.040720
v -6.361524 -5.357328 -1.967855
v -6.320089 -5.474736 -2.004991
v -6.295316 -5.468504 -1.992546
v -6.376523 -5.358747 -2.015305
v -6.283279 -5.570845 -2.084913
v -6.320957 -5.456163 -2.065790
v -6.327332 -5.470384 -2.028464
v -6.241761 -5.545209 -2.113321
v -6.268484 -5.434988 -2.065045
v -6.253693 -5.550138 -2.116758
v -6.229486 -5.543162 -2.102823
v -6.312365 -5.324209 -2.042171
v -6.298814 -5.582080 -2.069585
v -6.275815 -5.560307 -2.113003
v -6.366203 -5.348318 -2.035285
v -6.252628 -5.600195 -2.039571
v -6.281335 -5.582974 -2.042746
v -6.217550 -5.566210 -2.070046
v -6.232212 -5.563799 -2.040197
v -6.320726 -5.349626 -1.971483
v -6.378533 -5.227952 -1.984472
v -6.232466 -5.697089 -2.073757
v -6.188275 -5.673195 -2.103276
v -6.203938 -5.684279 -2.151633
v -6.308477 -5.334103 -2.005294
v -6.337842 -5.360130 -1.960170
v -6.385437 -5.366397 -2.002413
v -6.339955 -5.321062 -2.041091
vn 0.0254 0.2965 -0.9547
vn -0.0980 -0.3588 0.9282
vn 0.9336 -0.3278 -0.1450
vn 0.2061 -0.9783 -0.0195
vn -0.1050 0.9670 0.2320
vn 0.0033 0.3506 -0.9365
vn 0.0473 -0.3223 0.9455
vn -0.3156 -0.4140 0.8538
vn -0.3205 -0.3738 0.8704
vn -0.1083 -0.3347 0.9361
vn 0.9442 0.3276 -0.0340
vn 0.9103 0.2906 0.2949
vn -0.2721 0.9373 0.2179
vn -0.3140 0.8746 0.3694
vn 0.0913 -0.9392 -0.3309
vn 0.2710 -0.9053 -0.3270
vn 0.8602 -0.4358 -0.2647
vn -0.3259 -0.3791 0.8661
vn 0.2966 0.4054 -0.8647
vn 0.8945 0.1674 0.4145
vn 0.8850 0.2037 0.4187
vn -0.4097 -0.4597 -0.7879
vn 0.6517 -0.4875 0.5810
vn -0.1985 0.9789 -0.0484
vn 0.7347 0.0437 0.6769
vn 0.8919 0.2091 0.4010
vn -0.5688 -0.4450 0.6917
vn -0.2282 -0.3910 0.8917
vn -0.3199 -0.4081 0.8550
vn -0.8765 -0.3671 0.3115
vn -0.5703 -0.0506 -0.8199
vn -0.8594 -0.1903 -0.4746
vn 0.5318 0.4595 -0.7114
vn 0.1398 0.3160 -0.9384
vn 0.4600 0.4504 -0.7652
vn 0.2163 0.3200 -0.9224
vn 0.4928 0.3539 -0.7949
vn 0.2284 0.3934 -0.8906
vn 0.2523 0.4551 -0.8540
vn 0.2274 0.3614 -0.9042
vn 0.5544 0.4048 -0.7272
vn 0.5258 0.3667 -0.7675
vn -0.0035 0.2968 -0.9549
vn -0.8929 -0.3376 0.2978
vn -0.9014 -0.4265 0.0744
vn -0.6380 -0.1486 -0.7555
vn -0.8519 -0.1406 -0.5044
vn -0.8815 -0.2794 -0.3806
vn -0.8940 -0.2860 -0.3449
vn -0.5578 -0.0184 -0.8298
vn -0.8253 -0.1964 -0.5295
vn -0.6146 0.0572 -0.7868
vn -0.0423 -0.3425 0.9386
vn -0.2402 -0.3671 0.8986
vn -0.2472 -0.3513 0.9031
vn -0.1086 -0.3344 0.9362
vn 0.9139 0.2010 0.3526
vn -0.5770 -0.4244 0.6979
vn 0.8939 0.2779 0.3517
vn 0.9576 0.2882 0.0011
vn 0.8814 0.2261 0.4147
vn 0.9010 0.4314 0.0456
vn 0.6953 0.1379 0.7054
vn -0.3747 0.9032 0.2092
vn -0.5932 0.6533 0.4704
vn -0.2873 0.9311 0.2246
vn 0.1798 -0.9641 -0.1955
vn -0.1995 0.7191 0.6656
vn -0.0226 -0.9983 -0.0531
vn 0.1798 -0.9836 -0.0141
vn -0.2864 0.9572 -0.0426
vn -0.9564 -0.2596 -0.1341
vn 0.2123 -0.9286 -0.3043
vn 0.9430 0.2418 0.2287
vn -0.4386 0.6800 0.5875
vn 0.9091 0.4165 -0.0065
vn 0.8676 0.2463 0.4320
vn 0.0282 -0.2759 0.9608
vn -0.1274 -0.2862 0.9497
vn -0.8145 -0.0274 -0.5794
vn -0.7244 -0.2431 -0.6451
vn -0.8416 -0.2325 -0.4875
vn 0.1996 0.3957 -0.8964
vn -0.0333 0.3467 -0.9374
vn 0.8414 0.0883 0.5332
vn 0.8949 0.1201 0.4299
vn 0.8914 0.2089 0.4022
vn -0.3610 -0.4514 0.8161
vn -0.3228 -0.4094 0.8533
vn -0.8078 -0.2358 -0.5403
vn -0.9108 -0.2436 -0.3334
vn -0.9515 -0.2853 0.1152
vn 0.4627 0.4363 -0.7717
vn 0.2909 0.4097 -0.8646
vn 0.1521 0.2906 -0.9447
vn 0.2539 0.3305 -0.9090
vn 0.3261 0.4013 -0.8559
vn 0.4864 0.4671 -0.7384
vn 0.2520 0.3347 -0.9080
vn 0.4923 0.3588 -0.7930
vn -0.6541 -0.1155 -0.7476
vn -0.8704 -0.3854 -0.3063
vn -0.8330 -0.1290 -0.5380
vn -0.8101 -0.1818 -0.5574
vn -0.8887 -0.2859 -0.3585
vn -0.8408 -0.1584 -0.5177
vn -0.8464 -0.2098 -0.4894
vn -0.8255 -0.1967 -0.5291
vn 0.1474 -0.2470 0.9578
vn 0.1455 -0.2423 0.9592
vn -0.0573 -0.3059 0.9503
vn 0.9318 0.2748 0.2370
vn 0.9208 0.3029 0.2457
vn 0.9268 0.2286 0.2979
vn 0.8918 0.2588 0.3710
vn 0.7976 0.2002 0.5690
vn -0.3736 0.9039 0.2082
vn 0.2576 -0.9334 -0.2496
vn -0.2445 0.9488 0.1998
vn -0.9609 -0.2752 -0.0316
vn 0.9405 0.2312 0.2492
vn 0.8842 0.3656 0.2908
vn 0.8718 0.2569 0.4171
vn -0.3264 -0.3474 0.8791
vn -0.3287 -0.3864 0.8618
vn -0.8602 -0.0854 -0.5028
vn -0.8671 -0.4146 0.2760
vn -0.8789 -0.4681 -0.0918
s 0
usemtl Fence2
f 20//1 2//1 66//1
f 24//2 4//2 64//2
f 14//3 28//3 61//3
f 60//4 9//4 30//4
f 59//5 11//5 35//5
f 66//6 8//6 50//6
f 54//7 41//7 16//7
f 23//8 33//8 54//8
f 60//9 54//9 55//9
f 39//10 25//10 21//10
f 56//11 38//11 15//11
f 34//12 19//12 56//12
f 35//13 4//13 26//13
f 13//14 35//14 26//14
f 23//15 61//15 34//15
f 60//16 61//16 23//16
f 14//17 62//17 28//17
f 64//18 4//18 39//18
f 7//19 66//19 18//19
f 26//20 36//20 13//20
f 63//21 27//21 1//21
f 30//22 3//22 62//22
f 60//23 14//23 61//23
f 59//24 22//24 11//24
f 57//25 15//25 37//25
f 6//26 56//26 19//26
f 55//27 16//27 40//27
f 39//28 4//28 25//28
f 41//29 33//29 12//29
f 22//30 42//30 11//30
f 44//31 43//31 17//31
f 45//32 31//32 10//32
f 18//33 49//33 46//33
f 7//34 46//34 48//34
f 48//35 29//35 7//35
f 48//36 28//36 62//36
f 48//37 3//37 29//37
f 6//38 49//38 47//38
f 1//39 50//39 8//39
f 19//40 28//40 49//40
f 28//41 46//41 49//41
f 27//42 47//42 50//42
f 50//43 18//43 66//43
f 17//44 51//44 45//44
f 51//45 5//45 31//45
f 9//46 51//46 43//46
f 7//47 52//47 44//47
f 52//48 3//48 30//48
f 52//49 9//49 43//49
f 2//50 53//50 22//50
f 20//51 44//51 53//51
f 42//52 44//52 17//52
f 10//53 55//53 40//53
f 60//54 23//54 54//54
f 55//55 5//55 60//55
f 21//56 40//56 39//56
f 12//57 57//57 37//57
f 40//58 16//58 39//58
f 57//59 23//59 34//59
f 26//60 24//60 58//60
f 34//61 56//61 57//61
f 24//62 37//62 58//62
f 36//63 37//63 15//63
f 13//64 59//64 35//64
f 8//65 2//65 59//65
f 2//66 22//66 59//66
f 28//67 34//67 61//67
f 1//68 8//68 59//68
f 60//69 30//69 14//69
f 60//70 5//70 9//70
f 25//71 35//71 32//71
f 32//72 21//72 25//72
f 14//73 30//73 62//73
f 13//74 63//74 1//74
f 11//75 32//75 35//75
f 63//76 15//76 38//76
f 63//77 6//77 27//77
f 64//78 16//78 41//78
f 64//79 12//79 24//79
f 32//80 42//80 65//80
f 42//81 45//81 65//81
f 21//82 45//82 10//82
f 66//83 2//83 8//83
f 7//84 20//84 66//84
f 26//85 58//85 36//85
f 57//86 56//86 15//86
f 6//87 38//87 56//87
f 55//88 54//88 16//88
f 41//89 54//89 33//89
f 22//90 53//90 42//90
f 44//91 52//91 43//91
f 45//92 51//92 31//92
f 18//93 47//93 49//93
f 7//94 18//94 46//94
f 48//95 46//95 28//95
f 48//96 62//96 3//96
f 6//97 19//97 49//97
f 1//98 27//98 50//98
f 27//99 6//99 47//99
f 50//100 47//100 18//100
f 17//101 43//101 51//101
f 51//102 9//102 5//102
f 7//103 29//103 52//103
f 52//104 29//104 3//104
f 52//105 30//105 9//105
f 2//106 20//106 53//106
f 20//107 7//107 44//107
f 42//108 53//108 44//108
f 10//109 31//109 55//109
f 55//110 31//110 5//110
f 21//111 10//111 40//111
f 12//112 33//112 57//112
f 57//113 33//113 23//113
f 26//114 4//114 24//114
f 24//115 12//115 37//115
f 36//116 58//116 37//116
f 13//117 1//117 59//117
f 28//118 19//118 34//118
f 25//119 4//119 35//119
f 32//120 65//120 21//120
f 13//121 36//121 63//121
f 63//122 36//122 15//122
f 63//123 38//123 6//123
f 64//124 39//124 16//124
f 64//125 41//125 12//125
f 32//126 11//126 42//126
f 42//127 17//127 45//127
f 21//128 65//128 45//128
