# Blender 4.1.1
# www.blender.org
mtllib Cube.065_Cube.069.mtl
o Cube.065_Cube.069
v -16.892056 7.933574 -4.663052
v -17.052544 7.995004 -4.707644
v -16.572157 8.369309 -5.901794
v -16.939823 7.727074 -4.737022
v -16.621511 8.169308 -5.993251
v -16.648645 8.119514 -5.260895
v -16.783377 8.213995 -5.343004
v -16.974318 7.957998 -4.663270
v -16.603205 8.226576 -5.989082
v -16.873631 7.978537 -5.396571
v -17.084009 7.883612 -4.725067
v -16.709290 7.911022 -5.350541
v -16.909569 7.827980 -4.694610
v -16.494520 8.262438 -5.984237
v -16.659204 8.011703 -5.298765
v -16.794270 7.939438 -5.376366
v -16.875734 8.104017 -5.358367
v -16.737171 8.169313 -5.281511
v -16.409668 8.323221 -5.889490
v -16.936800 8.088169 -5.017580
v -17.003687 7.892760 -5.105700
v -17.106922 7.957880 -4.733383
v -16.463715 8.115629 -5.965324
v -16.827137 7.836617 -5.051149
v -17.110291 7.784647 -4.768826
v -16.926640 7.780572 -4.720758
v -16.770720 8.043795 -4.963637
v -16.478779 8.345808 -5.902526
v -16.687513 8.302785 -5.591743
v -16.565664 8.327549 -5.979162
v -16.756805 8.072273 -5.690365
v -17.101652 7.845971 -4.768970
v -16.597427 8.009634 -5.644841
v -16.421961 8.267168 -5.907874
v -16.991400 7.804008 -4.734110
v -16.805571 7.922821 -5.015513
v -16.690214 7.976523 -5.322368
v -16.666338 8.068261 -5.284071
v -16.942001 7.869395 -5.060317
v -16.828915 7.970748 -5.380753
v -16.761303 7.936783 -5.363743
v -16.982937 7.998898 -5.064190
v -16.728451 8.188874 -5.643057
v -16.831284 8.136683 -5.330061
v -16.848682 8.034812 -5.368875
v -16.615139 8.266407 -5.573090
v -16.688072 8.134650 -5.272270
v -16.647703 8.275787 -5.586542
v -16.581636 8.237755 -5.567502
v -16.807835 8.072222 -4.969928
v -16.770849 8.147040 -5.673719
v -16.708080 8.265539 -5.614296
v -16.954771 8.053429 -5.035727
v -16.644796 8.065125 -5.723159
v -16.723145 8.073791 -5.676159
v -16.549061 8.148298 -5.630405
v -16.589077 8.066833 -5.623826
v -16.830652 7.879297 -5.039296
v -16.988422 7.914748 -4.707219
v -16.589771 8.158426 -5.987607
v -16.469162 8.238991 -5.922394
v -16.511911 8.370969 -5.952645
v -16.797222 7.971576 -4.996931
v -16.877367 7.848421 -5.067964
v -17.007265 7.963712 -5.085069
v -16.883133 8.069275 -4.961339
vn 0.0254 0.9547 0.2965
vn -0.0980 -0.9282 -0.3589
vn 0.9335 0.1450 -0.3278
vn 0.2062 0.0195 -0.9783
vn -0.1050 -0.2320 0.9670
vn 0.0033 0.9365 0.3507
vn 0.0473 -0.9455 -0.3223
vn -0.3156 -0.8538 -0.4141
vn -0.3205 -0.8704 -0.3738
vn -0.1083 -0.9361 -0.3347
vn 0.9442 0.0340 0.3276
vn 0.9103 -0.2949 0.2906
vn -0.2721 -0.2179 0.9373
vn -0.3140 -0.3694 0.8746
vn 0.0914 0.3309 -0.9392
vn 0.2711 0.3270 -0.9053
vn 0.8602 0.2647 -0.4358
vn -0.3259 -0.8661 -0.3791
vn 0.2966 0.8647 0.4054
vn 0.8945 -0.4145 0.1675
vn 0.8850 -0.4187 0.2037
vn -0.4097 0.7879 -0.4597
vn 0.6517 -0.5810 -0.4875
vn -0.1985 0.0484 0.9789
vn 0.7347 -0.6770 0.0437
vn 0.8919 -0.4010 0.2091
vn -0.5688 -0.6917 -0.4449
vn -0.2282 -0.8917 -0.3910
vn -0.3199 -0.8551 -0.4081
vn -0.8765 -0.3115 -0.3671
vn -0.5703 0.8199 -0.0506
vn -0.8594 0.4746 -0.1903
vn 0.5318 0.7114 0.4595
vn 0.1398 0.9384 0.3160
vn 0.4601 0.7651 0.4504
vn 0.2163 0.9224 0.3200
vn 0.4929 0.7949 0.3539
vn 0.2284 0.8906 0.3933
vn 0.2523 0.8540 0.4551
vn 0.2273 0.9042 0.3615
vn 0.5544 0.7272 0.4047
vn 0.5257 0.7676 0.3667
vn -0.0035 0.9549 0.2968
vn -0.8929 -0.2978 -0.3376
vn -0.9014 -0.0744 -0.4265
vn -0.6380 0.7555 -0.1486
vn -0.8520 0.5044 -0.1406
vn -0.8815 0.3806 -0.2794
vn -0.8940 0.3449 -0.2860
vn -0.5578 0.8298 -0.0185
vn -0.8252 0.5295 -0.1964
vn -0.6146 0.7868 0.0572
vn -0.0423 -0.9386 -0.3425
vn -0.2402 -0.8987 -0.3670
vn -0.2472 -0.9031 -0.3513
vn -0.1086 -0.9362 -0.3344
vn 0.9139 -0.3526 0.2010
vn -0.5769 -0.6979 -0.4244
vn 0.8939 -0.3517 0.2779
vn 0.9576 -0.0012 0.2882
vn 0.8814 -0.4147 0.2261
vn 0.9010 -0.0456 0.4314
vn 0.6953 -0.7054 0.1379
vn -0.3747 -0.2093 0.9032
vn -0.5932 -0.4704 0.6533
vn -0.2873 -0.2247 0.9311
vn 0.1799 0.1955 -0.9641
vn -0.1995 -0.6656 0.7191
vn -0.0226 0.0531 -0.9983
vn 0.1798 0.0141 -0.9836
vn -0.2864 0.0426 0.9572
vn -0.9564 0.1341 -0.2596
vn 0.2123 0.3043 -0.9286
vn 0.9430 -0.2287 0.2418
vn -0.4386 -0.5875 0.6800
vn 0.9091 0.0064 0.4166
vn 0.8676 -0.4319 0.2463
vn 0.0283 -0.9608 -0.2759
vn -0.1274 -0.9497 -0.2862
vn -0.8145 0.5795 -0.0274
vn -0.7244 0.6451 -0.2431
vn -0.8416 0.4875 -0.2325
vn 0.1996 0.8964 0.3957
vn -0.0333 0.9374 0.3467
vn 0.8414 -0.5331 0.0883
vn 0.8949 -0.4299 0.1201
vn 0.8914 -0.4022 0.2089
vn -0.3610 -0.8160 -0.4514
vn -0.3228 -0.8533 -0.4094
vn -0.8078 0.5403 -0.2358
vn -0.9108 0.3334 -0.2436
vn -0.9515 -0.1152 -0.2853
vn 0.4627 0.7717 0.4363
vn 0.2909 0.8646 0.4096
vn 0.1520 0.9447 0.2906
vn 0.2539 0.9090 0.3305
vn 0.3261 0.8559 0.4013
vn 0.4864 0.7384 0.4671
vn 0.2520 0.9080 0.3348
vn 0.4923 0.7930 0.3588
vn -0.6541 0.7476 -0.1156
vn -0.8704 0.3063 -0.3855
vn -0.8330 0.5380 -0.1290
vn -0.8101 0.5574 -0.1818
vn -0.8887 0.3585 -0.2859
vn -0.8408 0.5177 -0.1584
vn -0.8465 0.4894 -0.2098
vn -0.8255 0.5290 -0.1967
vn 0.1474 -0.9577 -0.2470
vn 0.1455 -0.9592 -0.2423
vn -0.0573 -0.9503 -0.3059
vn 0.9318 -0.2370 0.2748
vn 0.9208 -0.2457 0.3029
vn 0.9268 -0.2979 0.2286
vn 0.8918 -0.3710 0.2588
vn 0.7976 -0.5690 0.2002
vn -0.3736 -0.2082 0.9039
vn 0.2576 0.2496 -0.9334
vn -0.2445 -0.1998 0.9488
vn -0.9609 0.0316 -0.2752
vn 0.9405 -0.2491 0.2311
vn 0.8842 -0.2908 0.3657
vn 0.8718 -0.4171 0.2569
vn -0.3264 -0.8791 -0.3474
vn -0.3287 -0.8617 -0.3864
vn -0.8602 0.5028 -0.0855
vn -0.8671 -0.2760 -0.4146
vn -0.8789 0.0918 -0.4681
s 0
usemtl Fence2
f 20//1 2//1 66//1
f 24//2 4//2 64//2
f 14//3 28//3 61//3
f 60//4 9//4 30//4
f 59//5 11//5 35//5
f 66//6 8//6 50//6
f 54//7 41//7 16//7
f 23//8 33//8 54//8
f 60//9 54//9 55//9
f 39//10 25//10 21//10
f 56//11 38//11 15//11
f 34//12 19//12 56//12
f 35//13 4//13 26//13
f 13//14 35//14 26//14
f 23//15 61//15 34//15
f 60//16 61//16 23//16
f 14//17 62//17 28//17
f 64//18 4//18 39//18
f 7//19 66//19 18//19
f 26//20 36//20 13//20
f 63//21 27//21 1//21
f 30//22 3//22 62//22
f 60//23 14//23 61//23
f 59//24 22//24 11//24
f 57//25 15//25 37//25
f 6//26 56//26 19//26
f 55//27 16//27 40//27
f 39//28 4//28 25//28
f 41//29 33//29 12//29
f 22//30 42//30 11//30
f 44//31 43//31 17//31
f 45//32 31//32 10//32
f 18//33 49//33 46//33
f 7//34 46//34 48//34
f 48//35 29//35 7//35
f 48//36 28//36 62//36
f 48//37 3//37 29//37
f 6//38 49//38 47//38
f 1//39 50//39 8//39
f 19//40 28//40 49//40
f 28//41 46//41 49//41
f 27//42 47//42 50//42
f 50//43 18//43 66//43
f 17//44 51//44 45//44
f 51//45 5//45 31//45
f 9//46 51//46 43//46
f 7//47 52//47 44//47
f 52//48 3//48 30//48
f 52//49 9//49 43//49
f 2//50 53//50 22//50
f 20//51 44//51 53//51
f 42//52 44//52 17//52
f 10//53 55//53 40//53
f 60//54 23//54 54//54
f 55//55 5//55 60//55
f 21//56 40//56 39//56
f 12//57 57//57 37//57
f 40//58 16//58 39//58
f 57//59 23//59 34//59
f 26//60 24//60 58//60
f 34//61 56//61 57//61
f 24//62 37//62 58//62
f 36//63 37//63 15//63
f 13//64 59//64 35//64
f 8//65 2//65 59//65
f 2//66 22//66 59//66
f 28//67 34//67 61//67
f 1//68 8//68 59//68
f 60//69 30//69 14//69
f 60//70 5//70 9//70
f 25//71 35//71 32//71
f 32//72 21//72 25//72
f 14//73 30//73 62//73
f 13//74 63//74 1//74
f 11//75 32//75 35//75
f 63//76 15//76 38//76
f 63//77 6//77 27//77
f 64//78 16//78 41//78
f 64//79 12//79 24//79
f 32//80 42//80 65//80
f 42//81 45//81 65//81
f 21//82 45//82 10//82
f 66//83 2//83 8//83
f 7//84 20//84 66//84
f 26//85 58//85 36//85
f 57//86 56//86 15//86
f 6//87 38//87 56//87
f 55//88 54//88 16//88
f 41//89 54//89 33//89
f 22//90 53//90 42//90
f 44//91 52//91 43//91
f 45//92 51//92 31//92
f 18//93 47//93 49//93
f 7//94 18//94 46//94
f 48//95 46//95 28//95
f 48//96 62//96 3//96
f 6//97 19//97 49//97
f 1//98 27//98 50//98
f 27//99 6//99 47//99
f 50//100 47//100 18//100
f 17//101 43//101 51//101
f 51//102 9//102 5//102
f 7//103 29//103 52//103
f 52//104 29//104 3//104
f 52//105 30//105 9//105
f 2//106 20//106 53//106
f 20//107 7//107 44//107
f 42//108 53//108 44//108
f 10//109 31//109 55//109
f 55//110 31//110 5//110
f 21//111 10//111 40//111
f 12//112 33//112 57//112
f 57//113 33//113 23//113
f 26//114 4//114 24//114
f 24//115 12//115 37//115
f 36//116 58//116 37//116
f 13//117 1//117 59//117
f 28//118 19//118 34//118
f 25//119 4//119 35//119
f 32//120 65//120 21//120
f 13//121 36//121 63//121
f 63//122 36//122 15//122
f 63//123 38//123 6//123
f 64//124 39//124 16//124
f 64//125 41//125 12//125
f 32//126 11//126 42//126
f 42//127 17//127 45//127
f 21//128 65//128 45//128
