# Blender 4.1.1
# www.blender.org
mtllib Cube.045_Cube.049.mtl
o Cube.045_Cube.049
v -0.044378 4.846416 15.902843
v -0.050390 4.844853 16.080269
v -0.049951 6.185306 16.087299
v -0.268026 4.837697 15.885486
v -0.275010 6.193371 16.078129
v -0.044662 5.518162 15.903219
v -0.028990 5.568473 16.079411
v -0.044995 4.823519 15.985539
v -0.217911 6.212167 16.082451
v -0.281781 5.518162 16.083981
v -0.163921 4.818082 16.070457
v -0.279554 5.518162 15.900459
v -0.154473 4.838892 15.886258
v -0.155177 6.257235 15.997864
v -0.157273 5.518162 15.881147
v -0.287220 5.518162 15.993397
v -0.156836 5.518162 16.123960
v -0.032388 5.518162 16.006134
v -0.042266 6.220576 15.921848
v -0.056196 5.188413 16.088560
v -0.280626 5.188413 16.095947
v -0.107685 4.837732 16.121069
v -0.269284 6.210930 15.910143
v -0.261800 5.188413 15.903744
v -0.275209 4.820061 16.067209
v -0.210984 4.842828 15.889978
v -0.030022 5.188413 15.910299
v -0.045898 6.213344 15.995270
v -0.020470 5.849165 16.088722
v -0.114839 6.244932 16.084745
v -0.280586 5.847909 16.087549
v -0.218785 4.840312 16.082756
v -0.275580 5.847909 15.910429
v -0.102142 6.216946 15.916120
v -0.212818 4.837694 15.959917
v -0.166173 5.188413 15.908365
v -0.205750 5.518162 15.901300
v -0.103589 5.518162 15.905308
v -0.267237 5.163956 16.020893
v -0.270564 5.518162 16.037239
v -0.275856 5.518162 15.959870
v -0.165354 5.188413 16.107399
v -0.151798 5.848406 16.094755
v -0.105161 5.518162 16.089701
v -0.214729 5.518162 16.076210
v -0.025977 5.848763 16.005783
v -0.046258 5.518162 15.946925
v -0.031616 5.851506 16.041700
v -0.040134 5.848015 15.963673
v -0.017309 5.188413 15.955725
v -0.211929 5.848714 16.124292
v -0.067560 5.851446 16.098522
v -0.098684 5.188413 16.095909
v -0.269417 5.915763 15.992978
v -0.264740 5.847909 16.054596
v -0.134574 5.891028 15.916218
v -0.214740 5.848086 15.919458
v -0.220493 5.188413 15.920119
v -0.103878 4.845519 15.992567
v -0.273921 6.196854 16.044300
v -0.145292 6.204926 15.951141
v -0.051853 6.252876 16.046694
v -0.113725 5.188413 15.914803
v -0.271336 5.188413 15.957163
v -0.210993 5.188413 16.120924
v -0.036840 5.152621 16.019682
vn 0.9640 0.0099 0.2658
vn -0.9841 0.0266 -0.1757
vn 0.2528 0.6706 -0.6974
vn -0.3036 0.9506 0.0642
vn 0.1387 -0.9627 -0.2322
vn 0.9628 -0.0514 0.2653
vn -0.9462 0.0420 -0.3207
vn -0.9980 0.0174 0.0602
vn -0.9985 -0.0248 0.0484
vn -0.9845 -0.0008 -0.1754
vn 0.4096 0.0607 -0.9102
vn 0.0958 -0.0098 -0.9953
vn 0.0949 -0.9930 -0.0704
vn -0.0742 -0.9944 -0.0749
vn -0.0444 0.9604 0.2749
vn 0.0135 0.9944 0.1048
vn 0.2973 0.7733 -0.5601
vn -0.9982 -0.0209 0.0562
vn 0.9992 -0.0135 -0.0370
vn -0.0613 0.0610 -0.9963
vn -0.0537 0.0240 -0.9983
vn 0.4091 0.4784 0.7770
vn -0.5255 0.5094 -0.6814
vn 0.3658 -0.9296 -0.0455
vn -0.3836 0.0403 -0.9226
vn -0.0341 0.0266 -0.9991
vn -0.9348 -0.0022 0.3551
vn -0.9991 0.0181 -0.0377
vn -0.9980 0.0101 0.0621
vn -0.6518 -0.0778 0.7544
vn 0.5514 0.0651 0.8317
vn 0.1151 -0.0112 0.9933
vn 0.9478 -0.0187 -0.3183
vn 0.9878 0.0295 0.1528
vn 0.9726 -0.0218 -0.2316
vn 0.9958 0.0492 0.0775
vn 0.9705 0.0842 -0.2259
vn 0.9991 -0.0204 0.0365
vn 0.9970 -0.0768 -0.0138
vn 0.9987 0.0114 0.0505
vn 0.9468 0.0425 -0.3190
vn 0.9601 0.0771 -0.2687
vn 0.9565 -0.0008 0.2916
vn -0.6327 -0.1062 0.7671
vn -0.4719 0.0316 0.8811
vn 0.4387 0.1099 0.8919
vn 0.1625 -0.0444 0.9857
vn -0.0081 0.0340 0.9994
vn -0.0456 0.0255 0.9986
vn 0.5759 0.0438 0.8164
vn 0.1704 0.0219 0.9851
vn 0.5517 -0.0561 0.8322
vn -0.9720 0.0294 -0.2333
vn -0.9993 -0.0095 -0.0355
vn -0.9990 -0.0273 -0.0350
vn -0.9845 -0.0012 -0.1753
vn 0.0114 0.0553 -0.9984
vn -0.9345 -0.0252 0.3550
vn 0.0365 -0.0202 -0.9991
vn 0.3670 0.0908 -0.9258
vn -0.0425 0.0039 -0.9991
vn 0.3676 -0.0694 -0.9274
vn -0.3830 -0.0657 -0.9214
vn 0.0618 -0.9975 0.0328
vn -0.3236 -0.9269 0.1903
vn 0.0825 -0.9949 -0.0578
vn -0.1497 0.9771 0.1509
vn -0.3649 -0.8966 -0.2510
vn -0.3431 0.8947 0.2860
vn -0.3174 0.9443 0.0870
vn 0.3288 -0.9437 0.0361
vn -0.2383 -0.0790 0.9680
vn -0.0313 0.9875 0.1544
vn 0.1444 0.0638 -0.9875
vn -0.3752 -0.9269 0.0015
vn 0.4101 -0.0388 -0.9112
vn -0.0537 -0.0238 -0.9983
vn -0.9470 -0.0103 -0.3210
vn -0.9830 -0.0547 -0.1755
vn 0.2824 -0.1108 0.9529
vn 0.2816 0.1321 0.9504
vn 0.1150 0.0364 0.9927
vn 0.9975 -0.0313 0.0639
vn 0.9522 -0.0610 0.2993
vn -0.2108 0.0792 -0.9743
vn -0.0930 0.0988 -0.9907
vn -0.0354 0.0263 -0.9990
vn -0.9912 0.0445 0.1243
vn -0.9978 0.0107 0.0657
vn 0.1695 0.0662 0.9833
vn -0.0439 -0.0215 0.9988
vn -0.4671 -0.1234 0.8755
vn 0.9736 -0.0065 -0.2281
vn 0.9993 -0.0194 -0.0330
vn 0.9869 0.0583 0.1505
vn 0.9981 0.0499 0.0362
vn 0.9978 -0.0017 -0.0657
vn 0.9624 -0.0345 -0.2693
vn 0.9983 0.0451 0.0365
vn 0.9706 0.0791 -0.2274
vn 0.4400 0.0724 0.8951
vn -0.1116 0.1118 0.9874
vn 0.2018 -0.0386 0.9787
vn 0.2047 0.0221 0.9786
vn -0.0321 0.0311 0.9990
vn 0.1704 -0.0209 0.9852
vn 0.1241 0.0150 0.9922
vn 0.1698 0.0219 0.9852
vn -0.9012 0.0080 -0.4333
vn -0.9012 0.0027 -0.4334
vn -0.9723 -0.0119 -0.2333
vn 0.1467 0.0281 -0.9888
vn 0.1468 -0.0033 -0.9892
vn 0.0739 0.0505 -0.9960
vn 0.0114 -0.0094 -0.9999
vn -0.2113 -0.0463 -0.9763
vn 0.0633 -0.9975 0.0320
vn -0.0692 0.9931 0.0944
vn 0.1227 -0.9883 -0.0911
vn -0.3361 -0.0952 0.9370
vn 0.1216 0.0667 -0.9903
vn 0.1214 -0.0849 -0.9890
vn -0.0354 -0.0277 -0.9990
vn -0.9976 -0.0529 0.0439
vn -0.9980 -0.0142 0.0621
vn 0.1801 -0.0969 0.9789
vn -0.6361 -0.0223 0.7713
vn -0.3351 0.1229 0.9341
s 0
usemtl Fence
f 20//1 2//1 66//1
f 24//2 4//2 64//2
f 14//3 28//3 61//3
f 60//4 9//4 30//4
f 59//5 11//5 35//5
f 66//6 8//6 50//6
f 54//7 41//7 16//7
f 23//8 33//8 54//8
f 60//9 54//9 55//9
f 39//10 25//10 21//10
f 56//11 38//11 15//11
f 34//12 19//12 56//12
f 35//13 4//13 26//13
f 13//14 35//14 26//14
f 23//15 61//15 34//15
f 60//16 61//16 23//16
f 14//17 62//17 28//17
f 64//18 4//18 39//18
f 7//19 66//19 18//19
f 26//20 36//20 13//20
f 63//21 27//21 1//21
f 30//22 3//22 62//22
f 60//23 14//23 61//23
f 59//24 22//24 11//24
f 57//25 15//25 37//25
f 6//26 56//26 19//26
f 55//27 16//27 40//27
f 39//28 4//28 25//28
f 41//29 33//29 12//29
f 22//30 42//30 11//30
f 44//31 43//31 17//31
f 45//32 31//32 10//32
f 18//33 49//33 46//33
f 7//34 46//34 48//34
f 48//35 29//35 7//35
f 48//36 28//36 62//36
f 48//37 3//37 29//37
f 6//38 49//38 47//38
f 1//39 50//39 8//39
f 19//40 28//40 49//40
f 28//41 46//41 49//41
f 27//42 47//42 50//42
f 50//43 18//43 66//43
f 17//44 51//44 45//44
f 51//45 5//45 31//45
f 9//46 51//46 43//46
f 7//47 52//47 44//47
f 52//48 3//48 30//48
f 52//49 9//49 43//49
f 2//50 53//50 22//50
f 20//51 44//51 53//51
f 42//52 44//52 17//52
f 10//53 55//53 40//53
f 60//54 23//54 54//54
f 55//55 5//55 60//55
f 21//56 40//56 39//56
f 12//57 57//57 37//57
f 40//58 16//58 39//58
f 57//59 23//59 34//59
f 26//60 24//60 58//60
f 34//61 56//61 57//61
f 24//62 37//62 58//62
f 36//63 37//63 15//63
f 13//64 59//64 35//64
f 8//65 2//65 59//65
f 2//66 22//66 59//66
f 28//67 34//67 61//67
f 1//68 8//68 59//68
f 60//69 30//69 14//69
f 60//70 5//70 9//70
f 25//71 35//71 32//71
f 32//72 21//72 25//72
f 14//73 30//73 62//73
f 13//74 63//74 1//74
f 11//75 32//75 35//75
f 63//76 15//76 38//76
f 63//77 6//77 27//77
f 64//78 16//78 41//78
f 64//79 12//79 24//79
f 32//80 42//80 65//80
f 42//81 45//81 65//81
f 21//82 45//82 10//82
f 66//83 2//83 8//83
f 7//84 20//84 66//84
f 26//85 58//85 36//85
f 57//86 56//86 15//86
f 6//87 38//87 56//87
f 55//88 54//88 16//88
f 41//89 54//89 33//89
f 22//90 53//90 42//90
f 44//91 52//91 43//91
f 45//92 51//92 31//92
f 18//93 47//93 49//93
f 7//94 18//94 46//94
f 48//95 46//95 28//95
f 48//96 62//96 3//96
f 6//97 19//97 49//97
f 1//98 27//98 50//98
f 27//99 6//99 47//99
f 50//100 47//100 18//100
f 17//101 43//101 51//101
f 51//102 9//102 5//102
f 7//103 29//103 52//103
f 52//104 29//104 3//104
f 52//105 30//105 9//105
f 2//106 20//106 53//106
f 20//107 7//107 44//107
f 42//108 53//108 44//108
f 10//109 31//109 55//109
f 55//110 31//110 5//110
f 21//111 10//111 40//111
f 12//112 33//112 57//112
f 57//113 33//113 23//113
f 26//114 4//114 24//114
f 24//115 12//115 37//115
f 36//116 58//116 37//116
f 13//117 1//117 59//117
f 28//118 19//118 34//118
f 25//119 4//119 35//119
f 32//120 65//120 21//120
f 13//121 36//121 63//121
f 63//122 36//122 15//122
f 63//123 38//123 6//123
f 64//124 39//124 16//124
f 64//125 41//125 12//125
f 32//126 11//126 42//126
f 42//127 17//127 45//127
f 21//128 65//128 45//128
