# Blender 4.1.1
# www.blender.org
mtllib untitled.mtl
o Plane
v -0.204595 0.172657 -2.243532
v 0.274595 0.148492 -2.214041
v 0.204595 0.172657 -2.243532
v 0.374595 0.050000 -0.283012
v -0.374595 0.050000 -0.000000
v 0.374595 0.050000 -0.000000
v -0.374595 0.050000 -0.283012
v 0.374595 0.050000 -0.566024
v -0.374595 0.050000 -0.566024
v 0.384595 0.050000 -0.849036
v -0.384595 0.050000 -0.849036
v 0.394595 0.050000 -1.132048
v -0.394595 0.050000 -1.132048
v 0.404595 0.050000 -1.405061
v -0.404595 0.050000 -1.405061
v 0.414595 0.050000 -1.676567
v -0.424595 0.074976 -1.946982
v -0.424595 0.050000 -1.676567
v 0.394595 0.099813 -2.066532
v -0.324595 0.124620 -2.166744
v -0.394595 0.099813 -2.066532
v 0.424595 0.074976 -1.946982
v -0.274595 0.148492 -2.214041
v 0.324595 0.124620 -2.166744
v 0.204595 0.127342 -2.264663
v -0.274595 0.101507 -2.231142
v -0.204595 0.127342 -2.264663
v 0.374595 -0.000000 -0.283012
v -0.374595 0.000000 0.000000
v -0.374595 -0.000000 -0.283012
v 0.374595 -0.000000 -0.566024
v -0.374595 -0.000000 -0.566024
v 0.384595 -0.000000 -0.849036
v -0.384595 -0.000000 -0.849036
v 0.394595 -0.000000 -1.132048
v -0.394595 -0.000000 -1.132048
v 0.404595 -0.000000 -1.405061
v -0.404595 -0.000000 -1.405061
v 0.414595 -0.000000 -1.676567
v -0.424595 0.025024 -1.949163
v 0.424595 0.025024 -1.949163
v -0.424595 -0.000000 -1.676567
v -0.394595 0.050186 -2.072625
v 0.324595 0.075380 -2.175426
v 0.394595 0.050186 -2.072625
v 0.274595 0.101507 -2.231142
v -0.324595 0.075380 -2.175426
v 0.204595 0.172658 2.243532
v -0.274595 0.148493 2.214041
v -0.204595 0.172658 2.243532
v 0.374595 0.050000 0.283012
v -0.374595 0.050000 0.283012
v 0.374595 0.050000 0.566024
v -0.374595 0.050000 0.566024
v 0.384595 0.050000 0.849036
v -0.384595 0.050000 0.849036
v 0.394595 0.050000 1.132048
v -0.394595 0.050000 1.132048
v 0.404595 0.050000 1.405061
v -0.404595 0.050000 1.405061
v 0.414595 0.050000 1.676567
v -0.424595 0.074976 1.946982
v 0.424595 0.074976 1.946982
v -0.424595 0.050000 1.676567
v -0.394595 0.099814 2.066532
v 0.324595 0.124620 2.166744
v 0.394595 0.099814 2.066532
v 0.274595 0.148493 2.214041
v -0.324595 0.124620 2.166744
v -0.204595 0.127343 2.264663
v 0.274595 0.101508 2.231142
v 0.204595 0.127343 2.264663
v 0.374595 0.000000 0.000000
v 0.374595 0.000000 0.283012
v -0.374595 0.000000 0.283012
v 0.374595 0.000000 0.566024
v -0.374595 0.000000 0.566024
v 0.384595 0.000000 0.849036
v -0.384595 0.000000 0.849036
v 0.394595 0.000000 1.132048
v -0.394595 0.000000 1.132048
v 0.404595 0.000000 1.405061
v -0.404595 0.000000 1.405061
v 0.414595 0.000000 1.676567
v -0.424595 0.000000 1.676567
v -0.424595 0.025024 1.949163
v -0.394595 0.050187 2.072625
v 0.394595 0.050187 2.072625
v 0.324595 0.075380 2.175426
v -0.324595 0.075380 2.175426
v 0.424595 0.025024 1.949163
v -0.274595 0.101508 2.231142
v 0.424595 0.074976 -1.946982
v 0.394595 0.050186 -2.072625
v 0.394595 0.099813 -2.066532
v -0.384595 -0.000000 -0.849036
v -0.394595 0.050000 -1.132048
v -0.394595 -0.000000 -1.132048
v -0.384595 0.050000 -0.849036
v -0.374595 -0.000000 -0.566024
v -0.374595 0.050000 -0.566024
v -0.424595 0.074976 -1.946982
v -0.394595 0.050186 -2.072625
v -0.424595 0.025024 -1.949163
v 0.424595 0.025024 -1.949163
v 0.324595 0.075380 -2.175426
v 0.324595 0.124620 -2.166744
v -0.374595 -0.000000 -0.283012
v -0.374595 0.050000 -0.283012
v 0.414595 -0.000000 -1.676567
v 0.404595 0.050000 -1.405061
v 0.404595 -0.000000 -1.405061
v 0.424595 0.025024 -1.949163
v 0.414595 0.050000 -1.676567
v 0.424595 0.074976 -1.946982
v -0.374595 0.000000 0.000000
v -0.374595 0.050000 -0.000000
v 0.204595 0.172657 -2.243532
v -0.204595 0.127342 -2.264663
v -0.204595 0.172657 -2.243532
v 0.204595 0.127342 -2.264663
v 0.274595 0.148492 -2.214041
v 0.274595 0.101507 -2.231142
v 0.394595 0.050000 -1.132048
v 0.394595 -0.000000 -1.132048
v -0.274595 0.148492 -2.214041
v -0.394595 0.099813 -2.066532
v -0.324595 0.075380 -2.175426
v 0.384595 0.050000 -0.849036
v 0.384595 -0.000000 -0.849036
v -0.424595 0.025024 -1.949163
v -0.424595 0.050000 -1.676567
v -0.424595 0.074976 -1.946982
v -0.404595 -0.000000 -1.405061
v -0.404595 0.050000 -1.405061
v -0.424595 -0.000000 -1.676567
v -0.274595 0.101507 -2.231142
v -0.324595 0.124620 -2.166744
v 0.374595 0.050000 -0.566024
v 0.374595 -0.000000 -0.566024
v 0.374595 -0.000000 -0.283012
v 0.374595 0.050000 -0.000000
v 0.374595 0.000000 0.000000
v 0.374595 0.050000 -0.283012
v 0.424595 0.074976 1.946982
v 0.394595 0.050187 2.072625
v 0.424595 0.025024 1.949163
v 0.394595 0.099814 2.066532
v 0.374595 0.000000 0.283012
v 0.374595 0.050000 0.283012
v -0.384595 0.050000 0.849036
v -0.374595 0.000000 0.566024
v -0.384595 0.000000 0.849036
v -0.374595 0.050000 0.566024
v -0.424595 0.074976 1.946982
v -0.394595 0.050187 2.072625
v -0.394595 0.099814 2.066532
v 0.324595 0.075380 2.175426
v 0.324595 0.124620 2.166744
v -0.374595 0.000000 0.283012
v -0.374595 0.050000 0.283012
v -0.374595 0.050000 -0.000000
v 0.374595 0.000000 0.000000
v -0.374595 0.000000 0.000000
v 0.374595 0.050000 -0.000000
v 0.414595 0.050000 1.676567
v 0.424595 0.025024 1.949163
v 0.414595 0.000000 1.676567
v 0.424595 0.074976 1.946982
v 0.204595 0.172658 2.243532
v -0.204595 0.127343 2.264663
v 0.204595 0.127343 2.264663
v -0.204595 0.172658 2.243532
v 0.404595 0.050000 1.405061
v 0.404595 0.000000 1.405061
v -0.274595 0.148493 2.214041
v -0.274595 0.101508 2.231142
v -0.424595 0.025024 1.949163
v -0.324595 0.075380 2.175426
v -0.324595 0.124620 2.166744
v 0.274595 0.148493 2.214041
v 0.274595 0.101508 2.231142
v 0.394595 0.050000 1.132048
v 0.394595 0.000000 1.132048
v -0.424595 0.025024 1.949163
v -0.424595 0.050000 1.676567
v -0.424595 0.000000 1.676567
v -0.404595 0.000000 1.405061
v -0.404595 0.050000 1.405061
v -0.424595 0.074976 1.946982
v 0.384595 0.050000 0.849036
v 0.384595 0.000000 0.849036
v -0.394595 0.050000 1.132048
v -0.394595 0.000000 1.132048
v 0.374595 0.050000 0.566024
v 0.374595 0.000000 0.566024
vn -0.0000 0.7735 0.6338
vn -0.0000 0.8888 0.4583
vn -0.0000 1.0000 -0.0000
vn -0.0000 0.9986 0.0520
vn -0.0000 0.9925 0.1226
vn -0.0000 0.9986 0.0527
vn -0.0000 0.9784 0.2069
vn -0.0000 0.9673 0.2538
vn -0.0000 0.9920 0.1260
vn -0.0000 -0.7921 -0.6104
vn -0.0000 -0.9013 -0.4331
vn -0.0000 -1.0000 -0.0000
vn -0.0000 -0.9987 -0.0517
vn -0.0000 -0.9926 -0.1217
vn -0.0000 -0.9922 -0.1250
vn -0.0000 -0.9986 -0.0524
vn -0.0000 -0.9791 -0.2034
vn -0.0000 -0.9678 -0.2517
vn -0.0000 0.7735 -0.6338
vn -0.0000 0.8888 -0.4583
vn -0.0000 0.9986 -0.0520
vn -0.0000 0.9925 -0.1226
vn -0.0000 0.9920 -0.1260
vn -0.0000 0.9986 -0.0527
vn -0.0000 0.9784 -0.2069
vn -0.0000 0.9673 -0.2538
vn -0.0000 -0.7921 0.6104
vn -0.0000 -0.9013 0.4331
vn -0.0000 -0.9987 0.0517
vn -0.0000 -0.9986 0.0524
vn -0.0000 -0.9926 0.1217
vn -0.0000 -0.9791 0.2034
vn -0.0000 -0.9678 0.2517
vn -0.0000 -0.9922 0.1250
vn 0.9716 0.0196 -0.2359
vn 0.9427 0.0382 -0.3314
vn 0.9307 0.0445 -0.3630
vn -0.9994 -0.0000 0.0353
vn -0.9994 -0.0000 0.0360
vn -0.9998 -0.0000 0.0175
vn -0.9716 0.0196 -0.2359
vn -0.9427 0.0382 -0.3314
vn 0.7975 0.1202 -0.5912
vn 0.7902 0.1282 -0.5992
vn -1.0000 -0.0000 -0.0000
vn 0.9993 -0.0004 0.0368
vn 0.9993 -0.0000 0.0367
vn 0.9993 -0.0008 0.0367
vn 0.9993 -0.0003 0.0368
vn 0.2547 0.3904 -0.8847
vn -0.2729 0.3869 -0.8808
vn -0.2548 0.3903 -0.8847
vn 0.2729 0.3870 -0.8808
vn 0.6290 0.2552 -0.7344
vn 0.6515 0.2408 -0.7194
vn 0.9994 -0.0000 0.0360
vn -0.6290 0.2552 -0.7344
vn -0.9307 0.0445 -0.3630
vn -0.7975 0.1202 -0.5912
vn 0.9994 -0.0000 0.0353
vn -0.9995 -0.0000 0.0329
vn -0.9985 -0.0000 0.0544
vn -0.9993 -0.0000 0.0377
vn -0.6515 0.2408 -0.7194
vn -0.7902 0.1282 -0.5992
vn 0.9998 -0.0000 0.0175
vn 1.0000 -0.0000 -0.0000
vn 0.9716 0.0196 0.2359
vn 0.9427 0.0382 0.3314
vn 0.9307 0.0445 0.3630
vn -0.9994 -0.0000 -0.0353
vn -0.9998 -0.0000 -0.0175
vn -0.9716 0.0196 0.2359
vn -0.9427 0.0382 0.3314
vn -0.9307 0.0445 0.3631
vn 0.7975 0.1202 0.5912
vn 0.7902 0.1282 0.5992
vn -0.0000 -0.0000 -1.0000
vn 0.9993 -0.0003 -0.0368
vn 0.9993 -0.0008 -0.0367
vn 0.9993 -0.0004 -0.0368
vn 0.2547 0.3904 0.8847
vn -0.2729 0.3869 0.8808
vn 0.2729 0.3870 0.8808
vn -0.2548 0.3903 0.8847
vn 0.9993 -0.0000 -0.0367
vn -0.6290 0.2552 0.7344
vn -0.6515 0.2408 0.7194
vn -0.7975 0.1202 0.5912
vn -0.7902 0.1282 0.5992
vn 0.6290 0.2552 0.7344
vn 0.6515 0.2408 0.7194
vn 0.9994 -0.0000 -0.0360
vn -0.9995 -0.0000 -0.0329
vn -0.9993 -0.0000 -0.0377
vn -0.9985 -0.0000 -0.0544
vn 0.9994 -0.0000 -0.0353
vn -0.9994 -0.0000 -0.0360
vn 0.9998 -0.0000 -0.0175
vt 0.000000 0.000000
vt 0.000000 0.031250
vt 0.000000 0.437500
vt 0.000000 0.500000
vt 0.000000 0.375000
vt 0.000000 0.312500
vt 0.000000 0.250000
vt 0.000000 0.187500
vt 0.000000 0.156250
vt 0.000000 0.125000
vt 0.000000 0.093750
vt 0.000000 0.062500
s 1
usemtl Material.002
f 1/1/1 2/2/2 3/1/1
s 0
f 4/3/3 5/4/3 6/4/3
f 4/3/3 7/3/3 5/4/3
f 8/5/3 7/3/3 4/3/3
f 8/5/3 9/5/3 7/3/3
f 10/6/3 9/5/3 8/5/3
f 10/6/3 11/6/3 9/5/3
f 12/7/3 11/6/3 10/6/3
f 12/7/3 13/7/3 11/6/3
f 14/8/3 13/7/3 12/7/3
f 14/8/3 15/8/3 13/7/3
s 1
f 16/9/4 17/10/5 18/9/6
f 16/9/4 18/9/6 15/8/3
f 16/9/4 15/8/3 14/8/3
f 19/11/7 20/12/8 21/11/7
f 17/10/5 16/9/4 22/10/9
f 17/10/5 19/11/7 21/11/7
f 17/10/5 22/10/9 19/11/7
f 2/2/2 1/1/1 23/2/2
f 20/12/8 19/11/7 24/12/8
f 23/2/2 24/12/8 2/2/2
f 24/12/8 23/2/2 20/12/8
f 25/1/10 26/2/11 27/1/10
s 0
f 28/3/12 29/4/12 30/3/12
f 30/3/12 31/5/12 28/3/12
f 31/5/12 30/3/12 32/5/12
f 32/5/12 33/6/12 31/5/12
f 33/6/12 32/5/12 34/6/12
f 34/6/12 35/7/12 33/6/12
f 35/7/12 34/6/12 36/7/12
f 36/7/12 37/8/12 35/7/12
f 37/8/12 36/7/12 38/8/12
s 1
f 39/9/13 40/10/14 41/10/15
f 39/9/13 38/8/12 42/9/16
f 38/8/12 39/9/13 37/8/12
f 43/11/17 44/12/18 45/11/17
f 45/11/17 40/10/14 43/11/17
f 40/10/14 39/9/13 42/9/16
f 41/10/15 40/10/14 45/11/17
f 26/2/11 25/1/10 46/2/11
f 44/12/18 43/11/17 47/12/18
f 46/2/11 47/12/18 26/2/11
f 47/12/18 46/2/11 44/12/18
f 48/1/19 49/2/20 50/1/19
s 0
f 5/4/3 51/3/3 6/4/3
f 51/3/3 5/4/3 52/3/3
f 52/3/3 53/5/3 51/3/3
f 53/5/3 52/3/3 54/5/3
f 54/5/3 55/6/3 53/5/3
f 55/6/3 54/5/3 56/6/3
f 56/6/3 57/7/3 55/6/3
f 57/7/3 56/6/3 58/7/3
f 58/7/3 59/8/3 57/7/3
f 59/8/3 58/7/3 60/8/3
s 1
f 61/9/21 62/10/22 63/10/23
f 61/9/21 60/8/3 64/9/24
f 60/8/3 61/9/21 59/8/3
f 65/11/25 66/12/26 67/11/25
f 67/11/25 62/10/22 65/11/25
f 62/10/22 61/9/21 64/9/24
f 63/10/23 62/10/22 67/11/25
f 49/2/20 48/1/19 68/2/20
f 66/12/26 65/11/25 69/12/26
f 68/2/20 69/12/26 49/2/20
f 69/12/26 68/2/20 66/12/26
f 70/1/27 71/2/28 72/1/27
s 0
f 29/4/12 28/3/12 73/4/12
f 74/3/12 29/4/12 73/4/12
f 74/3/12 75/3/12 29/4/12
f 76/5/12 75/3/12 74/3/12
f 76/5/12 77/5/12 75/3/12
f 78/6/12 79/6/12 77/5/12
f 78/6/12 77/5/12 76/5/12
f 80/7/12 81/7/12 79/6/12
f 80/7/12 79/6/12 78/6/12
f 82/8/12 81/7/12 80/7/12
f 82/8/12 83/8/12 81/7/12
s 1
f 84/9/29 83/8/12 82/8/12
f 84/9/29 85/9/30 83/8/12
f 84/9/29 86/10/31 85/9/30
f 87/11/32 88/11/32 89/12/33
f 87/11/32 89/12/33 90/12/33
f 86/10/31 84/9/29 91/10/34
f 86/10/31 88/11/32 87/11/32
f 86/10/31 91/10/34 88/11/32
f 71/2/28 70/1/27 92/2/28
f 92/2/28 89/12/33 71/2/28
f 89/12/33 92/2/28 90/12/33
usemtl Material.001
f 93/10/35 94/11/36 95/11/37
f 96/6/38 97/7/39 98/7/39
f 99/6/38 100/5/40 101/5/40
f 102/10/41 103/11/42 104/10/41
f 94/11/36 93/10/35 105/10/35
f 95/11/37 106/12/43 107/12/44
f 100/5/40 99/6/38 96/6/38
f 101/5/40 108/3/45 109/3/45
f 110/9/46 111/8/47 112/8/47
f 113/10/48 114/9/49 110/9/46
f 114/9/49 113/10/48 115/10/48
f 108/3/45 101/5/40 100/5/40
s 0
f 109/3/45 116/4/45 117/4/45
s 1
f 118/1/50 119/1/51 120/1/52
f 121/1/53 122/2/54 123/2/55
f 111/8/47 110/9/46 114/9/49
f 112/8/47 124/7/56 125/7/56
f 119/1/51 118/1/50 121/1/53
f 119/1/51 126/2/57 120/1/52
f 103/11/42 102/10/41 127/11/58
f 127/11/58 128/12/59 103/11/42
f 106/12/43 95/11/37 94/11/36
f 122/2/54 121/1/53 118/1/50
f 123/2/55 107/12/44 106/12/43
f 107/12/44 123/2/55 122/2/54
f 124/7/56 112/8/47 111/8/47
f 125/7/56 129/6/60 130/6/60
f 131/10/45 132/9/61 133/10/45
f 132/9/61 134/8/62 135/8/62
f 132/9/61 131/10/45 136/9/63
f 126/2/57 119/1/51 137/2/64
f 128/12/59 127/11/58 138/12/65
f 137/2/64 138/12/65 126/2/57
f 138/12/65 137/2/64 128/12/59
f 129/6/60 125/7/56 124/7/56
f 130/6/60 139/5/66 140/5/66
f 134/8/62 132/9/61 136/9/63
f 97/7/39 96/6/38 99/6/38
f 98/7/39 135/8/62 134/8/62
f 135/8/62 98/7/39 97/7/39
s 0
f 141/3/67 142/4/67 143/4/67
s 1
f 139/5/66 130/6/60 129/6/60
f 140/5/66 144/3/67 141/3/67
f 144/3/67 140/5/66 139/5/66
f 145/10/68 146/11/69 147/10/68
f 145/10/68 148/11/70 146/11/69
s 0
f 142/4/67 141/3/67 144/3/67
f 142/4/67 149/3/67 143/4/67
f 142/4/67 150/3/67 149/3/67
s 1
f 151/6/71 152/5/72 153/6/71
f 151/6/71 154/5/72 152/5/72
f 155/10/73 156/11/74 157/11/75
f 148/11/70 158/12/76 146/11/69
f 148/11/70 159/12/77 158/12/76
f 154/5/72 160/3/45 152/5/72
f 154/5/72 161/3/45 160/3/45
s 0
f 162/4/78 163/4/78 164/4/78
f 162/4/78 165/4/78 163/4/78
s 1
f 166/9/79 167/10/80 168/9/81
f 166/9/79 169/10/80 167/10/80
s 0
f 116/4/45 109/3/45 108/3/45
f 161/3/45 117/4/45 116/4/45
f 161/3/45 116/4/45 160/3/45
s 1
f 170/1/82 171/1/83 172/1/84
f 170/1/82 173/1/85 171/1/83
f 174/8/86 168/9/81 175/8/86
f 174/8/86 166/9/79 168/9/81
f 171/1/83 176/2/87 177/2/88
f 156/11/74 155/10/73 178/10/73
f 157/11/75 179/12/89 180/12/90
f 181/2/91 170/1/82 172/1/84
f 181/2/91 172/1/84 182/2/92
f 159/12/77 181/2/91 182/2/92
f 159/12/77 182/2/92 158/12/76
f 183/7/93 175/8/86 184/7/93
f 183/7/93 174/8/86 175/8/86
f 185/10/45 186/9/94 187/9/95
f 186/9/94 188/8/96 187/9/95
f 186/9/94 189/8/96 188/8/96
f 186/9/94 185/10/45 190/10/45
f 179/12/89 157/11/75 156/11/74
f 176/2/87 171/1/83 173/1/85
f 177/2/88 180/12/90 179/12/89
f 180/12/90 177/2/88 176/2/87
f 191/6/97 184/7/93 192/6/97
f 191/6/97 183/7/93 184/7/93
f 193/7/98 153/6/71 194/7/98
f 193/7/98 151/6/71 153/6/71
f 189/8/96 193/7/98 194/7/98
f 189/8/96 194/7/98 188/8/96
f 195/5/99 191/6/97 192/6/97
f 195/5/99 192/6/97 196/5/99
f 150/3/67 196/5/99 149/3/67
f 150/3/67 195/5/99 196/5/99
