# Blender 4.1.1
# www.blender.org
mtllib Plane.032.mtl
o Plane.032
v -13.567123 -14.480864 1.535570
v -1.657794 -13.904839 1.062963
v -13.716383 -7.875095 0.632706
v -7.691755 -1.835752 0.606956
v -1.674930 -8.407308 0.657558
v -13.719434 -4.373528 0.963251
v -4.666163 -1.825298 0.822067
v -1.673226 -10.884218 0.919281
v -13.773750 -10.912991 0.986531
v -10.002666 -1.899926 0.933142
v -1.683126 -4.871107 0.950097
v -7.691755 -10.824305 -1.451319
v -10.663116 -7.875058 -1.480594
v -4.809688 -8.158036 -1.534561
v -11.548994 -10.657024 0.037023
v -4.971436 -11.409948 -0.531796
v -13.714400 -1.855962 1.010812
v -1.671921 -12.947352 1.106022
v -12.585023 -14.103509 1.523490
v -13.800686 -9.419848 0.827100
v -12.238485 -7.875103 -0.379722
v -6.077125 -7.875058 -2.763705
v -13.695580 -6.337991 0.772618
v -1.569442 -10.165842 0.587298
v -9.211761 -13.882295 0.842967
v -13.983251 -12.545109 1.621729
v -12.327288 -1.860634 1.077470
v -1.669220 -3.358157 0.997648
v -3.807772 -13.900844 0.950783
v -7.611446 -10.436775 -2.366030
v -5.174617 -6.391508 -1.312755
v -5.202885 -3.373263 0.353636
v -3.064210 -4.836370 -0.161517
v -10.648159 -6.397013 -1.174466
v -12.488883 -4.784508 0.387684
v -11.344323 -12.254933 0.805657
v -12.550591 -10.987642 0.716058
v -9.116220 -10.914768 -1.317529
v -4.863221 -12.479265 0.244439
v -3.126961 -11.574417 0.369183
v -3.130509 -9.715958 -0.054764
v -6.817757 -12.251119 -0.444883
v -9.235366 -9.418669 -2.257347
v -12.148840 -9.363533 0.163019
v -12.354221 -12.453876 1.076286
v -12.103096 -6.404854 -0.001168
v -3.384429 -3.426847 0.927756
v -6.249112 -6.597352 -2.383211
v -2.931431 -6.320229 -0.545235
v -9.410994 -12.901760 0.552946
v -3.197564 -13.030868 1.211498
v -1.636391 -1.872190 0.937370
v -13.022018 -13.907752 0.800975
v -8.434352 -1.929112 0.797158
v -1.607656 -7.114027 0.547736
v -7.649520 -13.916867 0.603043
v -7.718043 -13.384936 -0.006071
v -7.833924 -7.115245 -2.904638
v -6.880526 -7.875058 -3.071308
v -5.476080 -1.960115 1.064303
v -10.192200 -14.045214 0.960801
v -13.845336 -11.701376 1.198406
v -11.504662 -1.777396 0.595245
v -1.626530 -4.166390 0.733095
v -5.127858 -7.140894 -1.277245
v -7.069478 -4.781024 -1.592977
v -4.948814 -4.845678 -0.625664
v -10.804052 -4.992555 -0.559038
v -10.121712 -4.635698 -1.297399
v -11.038732 -14.059357 1.415447
v -10.049295 -10.994232 -1.025731
v -4.498163 -13.890366 0.964857
v -4.626930 -10.173779 -1.019693
v -7.017346 -10.575402 -1.041011
v -4.180944 -10.683320 0.343324
v -3.603469 -1.820341 0.857396
v -1.633256 -11.662514 0.795210
v -11.474821 -13.910857 1.057432
v -13.802778 -10.155123 1.158836
v -1.835284 -5.778681 1.173415
v -7.804166 -11.623636 -0.656435
v -11.220169 -7.805514 -0.778773
v -13.774991 -7.114141 0.549294
v -6.365092 -1.797347 0.600674
v -8.420010 -13.707603 1.077160
v -13.857754 -13.468431 1.301873
v -13.115395 -1.849200 1.153197
v -1.674076 -2.610196 1.330413
v -7.691755 -8.505044 -2.399014
v -8.339665 -7.992889 -2.560729
v -2.915798 -8.005016 -0.006314
v -4.679650 -5.547406 -0.752536
v -2.442471 -4.875524 0.711035
v -10.701481 -3.150657 0.353021
v -11.355305 -4.944371 0.068365
v -8.508803 -5.450637 -1.646025
v -11.343549 -11.757608 0.247378
v -10.981256 -8.907811 -1.462171
v -8.996672 -10.196367 -1.780339
v -5.521127 -11.539688 -0.737454
v -2.413610 -10.891165 0.637377
v -3.701959 -9.400327 -1.134274
v -2.127267 -9.870420 0.435196
v -5.533001 -10.577721 -1.211831
v -6.106895 -8.587438 -2.515998
v -7.032818 -10.227662 -2.497731
v -4.756035 -9.021139 -1.554935
v -5.822296 -13.978830 0.580857
v -8.663899 -9.149805 -2.506993
v -13.791146 -8.669069 0.585178
v -11.555780 -9.742190 -0.392349
v -12.494116 -11.747190 1.268762
v -13.326679 -12.491482 2.152704
v -10.019950 -3.219394 -0.177735
v -9.049119 -4.281174 -0.571814
v -11.508080 -3.885529 0.723334
v -12.766573 -6.425524 0.675006
v -11.624472 -6.301537 -0.935684
v -6.431384 -2.600713 0.028165
v -6.803597 -6.012477 -2.313213
v -3.760413 -6.302090 -0.933781
v -2.398390 -6.706149 0.225621
v -9.341640 -7.124146 -2.665563
v -9.852268 -7.027466 -2.182530
v -8.934550 -6.372726 -2.409176
v -3.873097 -12.849085 1.015103
v -2.478992 -11.851819 0.425676
v -3.937661 -11.629152 0.257983
v -10.120667 -11.940005 -0.528322
v -10.207181 -13.334143 0.605513
v -10.000674 -5.566138 -1.482962
v -2.553603 -5.673346 0.749898
v -3.795118 -7.102666 -0.883937
v -6.989780 -6.975052 -2.875011
v -5.427617 -2.592153 0.457839
v -7.422915 -2.466377 -0.081962
v -7.777666 -4.091802 -0.806586
v -2.658499 -2.663917 0.799871
v -4.429768 -2.226636 0.705344
v -11.674077 -5.645114 -0.640787
v -12.934859 -5.628085 0.538142
v -12.871050 -7.694246 0.316843
v -11.475054 -2.578561 0.727309
v -11.897414 -3.851624 0.860097
v -9.149229 -2.530329 0.200668
v -9.138071 -1.896020 0.784833
v -9.983389 -4.055894 -0.522684
v -12.968157 -11.636153 0.880848
v -13.314284 -13.291109 1.556437
v -11.674738 -8.615797 -0.848965
v -12.967602 -8.630548 0.247172
v -13.199197 -10.250626 0.710359
v -9.926859 -8.826278 -1.668027
v -9.880751 -10.195412 -1.385799
v -6.911264 -13.336882 -0.073118
v -6.953655 -8.613158 -2.690687
v -3.096585 -8.615962 -0.262646
v -4.029233 -10.072321 -0.281489
v -11.524282 -13.163837 1.167770
v -11.417416 -7.198059 -0.582048
v -2.720335 -3.697460 0.819468
v -5.750569 -4.373374 -0.279014
v -2.427297 -13.139516 1.107730
vn -0.0136 0.0447 -0.9989
vn -0.5108 -0.6752 -0.5322
vn -0.7062 0.2960 -0.6432
vn 0.6576 0.1525 -0.7378
vn -0.3162 -0.8632 -0.3935
vn -0.0282 -0.9724 -0.2318
vn 0.2041 -0.1260 -0.9708
vn -0.0333 -0.7404 -0.6714
vn 0.4044 -0.5101 -0.7591
vn -0.3516 -0.2906 -0.8899
vn -0.6995 -0.3307 -0.6336
vn -0.2138 0.6638 -0.7167
vn -0.1628 0.3905 -0.9061
vn -0.2329 0.5528 -0.8001
vn -0.0940 0.0880 -0.9917
vn -0.4274 0.0135 -0.9040
vn 0.3880 0.3052 -0.8697
vn 0.4142 0.2624 -0.8715
vn 0.5016 0.4503 -0.7387
vn -0.4511 0.3477 -0.8220
vn 0.2973 0.0767 -0.9517
vn -0.1352 -0.4911 -0.8605
vn 0.1268 0.1215 -0.9845
vn 0.5242 -0.2758 -0.8057
vn -0.0032 -0.6852 -0.7284
vn -0.4707 -0.6585 -0.5872
vn -0.2340 -0.4387 -0.8677
vn 0.2856 -0.6153 -0.7347
vn -0.7428 0.1164 -0.6593
vn 0.2299 0.2578 -0.9385
vn 0.2606 0.3126 -0.9134
vn 0.4219 -0.0745 -0.9036
vn 0.5081 0.3381 -0.7922
vn -0.1570 0.5203 -0.8394
vn -0.1849 0.4661 -0.8652
vn 0.3411 0.4238 -0.8391
vn 0.1662 0.5631 -0.8095
vn 0.2773 0.2664 -0.9231
vn -0.1282 -0.0441 -0.9908
vn 0.0434 0.1163 -0.9923
vn 0.3023 0.0874 -0.9492
vn 0.0951 0.1734 -0.9802
vn 0.1289 0.6245 -0.7703
vn -0.0888 0.7282 -0.6796
vn -0.4936 0.7193 -0.4889
vn -0.3231 -0.1277 -0.9377
vn -0.0619 0.0190 -0.9979
vn 0.0447 0.6763 -0.7352
vn 0.0437 0.3825 -0.9229
vn -0.7481 -0.3156 -0.5837
vn -0.5962 -0.3288 -0.7324
vn 0.0516 -0.0608 -0.9968
vn -0.5795 -0.2545 -0.7742
vn -0.5965 -0.2218 -0.7714
vn 0.0400 -0.4415 -0.8964
vn -0.1079 -0.3446 -0.9325
vn 0.5117 0.1992 -0.8357
vn 0.4250 -0.7831 -0.4540
vn 0.4434 -0.3983 -0.8030
vn 0.2698 -0.3718 -0.8882
vn -0.7460 -0.2875 -0.6007
vn -0.1528 -0.3395 -0.9281
vn -0.8108 -0.3671 -0.4559
vn 0.7958 0.2389 -0.5564
vn 0.7597 -0.1917 -0.6213
vn -0.0526 0.4992 -0.8649
vn 0.1154 -0.4613 -0.8797
vn 0.2878 -0.3029 -0.9085
vn -0.0377 0.5489 -0.8350
vn -0.2528 0.6033 -0.7564
vn 0.4025 -0.4009 -0.8230
vn -0.5461 -0.3593 -0.7568
vn 0.3240 -0.4350 -0.8401
vn -0.1622 -0.2198 -0.9620
vn 0.2899 0.0556 -0.9554
vn 0.8626 -0.1195 -0.4916
vn -0.3619 -0.4615 -0.8099
vn 0.4444 -0.0987 -0.8904
vn 0.1183 -0.0120 -0.9929
vn -0.4869 0.2609 -0.8336
vn -0.2005 -0.1407 -0.9695
vn -0.4283 -0.3832 -0.8183
vn -0.5437 -0.5329 -0.6484
vn -0.7422 0.0354 -0.6693
vn 0.2159 0.7128 -0.6674
vn -0.6850 -0.2613 -0.6801
vn 0.0744 0.4061 -0.9108
vn -0.5725 0.5001 -0.6497
vn -0.1823 0.3914 -0.9020
vn 0.2594 0.8176 -0.5140
vn 0.0096 -0.1741 -0.9847
vn 0.4250 0.3703 -0.8260
vn 0.4108 0.3106 -0.8572
vn 0.1745 0.1794 -0.9682
vn 0.0818 -0.2674 -0.9601
vn 0.5422 -0.2514 -0.8018
vn 0.0114 0.6344 -0.7729
vn 0.1144 -0.5015 -0.8576
vn 0.1464 -0.6895 -0.7094
vn 0.3496 0.1650 -0.9223
vn 0.4319 -0.2243 -0.8736
vn 0.1702 0.2010 -0.9647
vn 0.4327 -0.4588 -0.7761
vn -0.5374 -0.3604 -0.7624
vn 0.6212 0.2274 -0.7499
vn -0.0194 0.0598 -0.9980
vn 0.1180 -0.5516 -0.8257
vn -0.1509 -0.6863 -0.7115
vn -0.5808 -0.4916 -0.6488
vn -0.4259 -0.4116 -0.8058
vn -0.6697 0.2642 -0.6940
vn -0.1318 0.6674 -0.7329
vn -0.7427 0.0367 -0.6686
vn -0.6817 0.0475 -0.7301
vn 0.8448 0.3377 -0.4151
vn -0.5343 0.5175 -0.6684
vn 0.2902 -0.2743 -0.9168
vn 0.8034 -0.1401 -0.5787
vn 0.1528 0.4029 -0.9024
vn 0.2624 -0.0713 -0.9623
vn 0.5470 0.2160 -0.8088
vn 0.4448 0.6376 -0.6290
vn 0.3658 0.5275 -0.7668
vn -0.0011 0.2130 -0.9771
vn 0.3814 0.2292 -0.8955
vn 0.1089 0.3362 -0.9355
vn -0.3655 0.0855 -0.9269
vn -0.0244 0.7326 -0.6802
vn 0.1523 0.3745 -0.9146
vn 0.4448 -0.4386 -0.7809
vn 0.0304 0.2956 -0.9548
vn 0.1945 0.5663 -0.8010
vn 0.2513 0.6270 -0.7374
vn -0.8882 0.1308 -0.4405
vn -0.1205 -0.1926 -0.9739
vn -0.0692 0.2763 -0.9586
vn -0.6641 0.2238 -0.7134
vn -0.5525 0.1258 -0.8240
vn -0.3305 0.0112 -0.9437
vn -0.0881 0.4592 -0.8839
vn -0.4872 -0.1595 -0.8586
vn -0.1304 0.7721 -0.6219
vn 0.2197 0.2708 -0.9372
vn -0.2012 0.5411 -0.8165
vn -0.4416 0.4178 -0.7940
vn -0.3950 0.6978 -0.5975
vn -0.1501 0.4838 -0.8622
vn -0.6996 0.6263 -0.3438
vn -0.5130 -0.6406 -0.5714
vn -0.4852 -0.2507 -0.8377
vn -0.1507 -0.8001 -0.5806
vn -0.3177 -0.2191 -0.9225
vn 0.0371 0.7811 -0.6233
vn 0.4789 -0.4930 -0.7264
vn 0.5116 0.5187 -0.6850
vn -0.1781 -0.3278 -0.9278
vn -0.5271 0.3623 -0.7687
vn -0.3667 0.2825 -0.8864
vn -0.3680 0.1067 -0.9237
vn -0.6466 -0.0089 -0.7628
vn -0.2232 -0.2038 -0.9532
vn -0.3960 -0.0947 -0.9134
vn -0.5140 -0.2572 -0.8183
vn -0.5521 -0.2721 -0.7881
vn -0.0388 -0.3451 -0.9378
vn -0.3367 -0.5652 -0.7531
vn -0.1723 -0.2044 -0.9636
vn -0.0121 -0.3364 -0.9416
vn 0.1863 -0.6445 -0.7416
vn -0.0596 -0.3188 -0.9460
vn -0.0097 -0.7537 -0.6571
vn 0.5906 0.0557 -0.8050
vn 0.3348 -0.3309 -0.8823
vn -0.2131 -0.0255 -0.9767
vn -0.3872 -0.3920 -0.8345
vn 0.2004 -0.3292 -0.9227
vn 0.4493 -0.8679 -0.2120
vn 0.3844 0.0457 -0.9220
vn 0.5690 -0.3296 -0.7534
vn 0.4088 -0.1816 -0.8944
vn 0.7372 0.0641 -0.6727
vn 0.8206 -0.3926 -0.4153
vn 0.5008 -0.1916 -0.8441
vn 0.5714 -0.7368 -0.3614
vn 0.3454 -0.3631 -0.8653
vn -0.4140 -0.4267 -0.8041
vn 0.2811 -0.3777 -0.8822
vn -0.6370 0.0424 -0.7697
vn -0.5379 -0.5000 -0.6788
vn -0.4007 0.1079 -0.9099
vn -0.1825 -0.3325 -0.9253
vn -0.2259 0.4374 -0.8705
vn -0.1685 0.5008 -0.8490
vn -0.6435 0.3681 -0.6711
vn -0.3696 0.1755 -0.9125
vn 0.6876 0.3727 -0.6232
vn 0.3989 0.8891 0.2244
vn 0.4205 0.3093 -0.8530
vn -0.3841 -0.7867 -0.4833
vn 0.7047 0.0104 -0.7094
vn 0.5226 0.4332 -0.7344
vn -0.1484 -0.2855 -0.9468
vn -0.1465 0.3896 -0.9093
vn 0.0520 0.1103 -0.9925
vn -0.3805 -0.3367 -0.8613
vn -0.1824 -0.4659 -0.8658
vn -0.0438 0.0813 -0.9957
vn -0.2308 0.5982 -0.7674
vn 0.3661 -0.4281 -0.8263
vn 0.1407 -0.2302 -0.9629
vn 0.4225 -0.6972 -0.5792
vn 0.5472 -0.0421 -0.8359
vn -0.2517 -0.3531 -0.9011
vn 0.3827 0.0125 -0.9238
vn 0.1709 -0.0935 -0.9808
vn 0.7143 0.6516 -0.2555
vn 0.2151 -0.8374 -0.5025
vn 0.1554 0.7774 -0.6095
vn -0.6676 -0.2214 -0.7108
vn -0.1963 0.3752 -0.9059
vn 0.2462 0.8279 -0.5039
vn 0.3471 0.2399 -0.9066
vn -0.0331 -0.4473 -0.8938
vn 0.1505 -0.5156 -0.8435
vn 0.3605 0.1773 -0.9158
vn 0.4611 -0.4902 -0.7396
vn -0.5966 -0.2567 -0.7604
vn -0.4766 -0.3528 -0.8052
vn -0.6527 0.2421 -0.7179
vn -0.1206 0.1790 -0.9764
vn -0.7558 0.2091 -0.6206
vn 0.9186 0.1740 -0.3549
vn 0.4927 -0.1107 -0.8631
vn 0.2034 0.4558 -0.8665
vn 0.2837 -0.0277 -0.9585
vn 0.5221 0.5708 -0.6338
vn 0.3300 0.5296 -0.7814
vn -0.3156 0.6443 -0.6967
vn -0.4084 0.0534 -0.9112
vn -0.0738 0.2827 -0.9564
vn -0.6953 0.2477 -0.6747
vn -0.3631 0.0233 -0.9315
vn 0.2051 -0.1518 -0.9669
vn -0.2634 0.6582 -0.7053
vn -0.5691 0.2921 -0.7686
vn -0.2899 0.1977 -0.9364
vn -0.5739 -0.5093 -0.6413
vn 0.5867 -0.4377 -0.6813
vn -0.2208 -0.1042 -0.9697
vn -0.6085 -0.3402 -0.7169
vn 0.3020 0.3484 -0.8874
vn -0.6761 0.4337 -0.5957
vn -0.7531 0.2209 -0.6197
vn -0.3818 0.0910 -0.9198
vn -0.7181 0.1250 -0.6846
vn -0.5721 0.1609 -0.8042
vn -0.3201 -0.1932 -0.9275
vn -0.1946 0.0425 -0.9800
vn -0.7174 -0.1637 -0.6772
vn 0.5616 -0.6218 -0.5459
vn -0.0198 -0.3472 -0.9376
vn 0.6364 -0.2769 -0.7200
vn -0.3775 -0.0916 -0.9214
vn -0.4233 -0.3477 -0.8366
vn 0.3176 -0.4593 -0.8296
vn 0.2435 -0.9006 -0.3602
vn 0.4489 0.1148 -0.8862
vn 0.7730 0.0996 -0.6265
vn 0.6519 -0.6152 -0.4433
vn 0.3856 -0.2822 -0.8785
vn 0.2163 -0.3912 -0.8945
vn -0.1078 -0.5436 -0.8324
vn -0.2544 -0.4051 -0.8781
vn 0.7395 0.2816 -0.6114
vn 0.3194 -0.2085 -0.9244
vn -0.0789 0.3366 -0.9383
s 0
usemtl Snow
f 18//1 2//1 163//1
f 57//2 56//2 85//2
f 68//3 95//3 116//3
f 70//4 78//4 159//4
f 30//5 12//5 99//5
f 104//6 74//6 106//6
f 105//7 106//7 156//7
f 108//8 56//8 155//8
f 16//9 39//9 100//9
f 151//10 44//10 110//10
f 150//11 98//11 111//11
f 145//12 114//12 146//12
f 136//13 115//13 145//13
f 116//14 35//14 144//14
f 27//15 144//15 87//15
f 94//16 116//16 143//16
f 138//17 28//17 64//17
f 33//18 49//18 121//18
f 132//19 80//19 122//19
f 125//20 124//20 131//20
f 51//21 29//21 126//21
f 40//22 127//22 51//22
f 40//23 128//23 75//23
f 126//24 72//24 39//24
f 38//25 81//25 50//25
f 97//26 129//26 36//26
f 71//27 38//27 129//27
f 129//28 50//28 130//28
f 124//29 82//29 34//29
f 67//30 33//30 92//30
f 133//31 14//31 65//31
f 121//32 49//32 133//32
f 67//33 92//33 120//33
f 96//34 120//34 134//34
f 66//35 120//35 96//35
f 120//36 48//36 134//36
f 84//37 119//37 136//37
f 119//38 162//38 137//38
f 138//39 64//39 47//39
f 52//40 138//40 76//40
f 139//41 47//41 32//41
f 76//42 138//42 139//42
f 47//43 161//43 33//43
f 95//44 140//44 35//44
f 68//45 140//45 95//45
f 142//46 3//46 83//46
f 144//47 6//47 17//47
f 54//48 145//48 146//48
f 115//49 147//49 114//49
f 150//50 111//50 44//50
f 20//51 152//51 79//51
f 123//52 90//52 109//52
f 123//53 109//53 153//53
f 154//54 71//54 15//54
f 100//55 42//55 104//55
f 104//56 42//56 74//56
f 5//57 157//57 91//57
f 41//58 158//58 102//58
f 107//59 104//59 105//59
f 39//60 108//60 42//60
f 44//61 111//61 15//61
f 36//62 70//62 159//62
f 118//63 160//63 46//63
f 161//64 93//64 33//64
f 122//65 91//65 49//65
f 134//66 58//66 125//66
f 18//67 163//67 127//67
f 93//68 64//68 11//68
f 162//69 32//69 67//69
f 96//70 137//70 66//70
f 104//71 16//71 100//71
f 111//72 154//72 15//72
f 101//73 24//73 8//73
f 75//74 41//74 40//74
f 103//75 5//75 24//75
f 157//76 41//76 102//76
f 38//77 154//77 99//77
f 91//78 55//78 5//78
f 109//79 89//79 30//79
f 153//80 109//80 43//80
f 19//81 149//81 159//81
f 152//82 15//82 37//82
f 151//83 150//83 44//83
f 113//84 112//84 45//84
f 69//85 115//85 96//85
f 141//86 46//86 117//86
f 145//87 115//87 114//87
f 160//88 21//88 142//88
f 140//89 34//89 118//89
f 66//90 162//90 67//90
f 139//91 138//91 47//91
f 138//92 88//92 28//92
f 22//93 134//93 48//93
f 135//94 139//94 32//94
f 25//95 130//95 50//95
f 133//96 49//96 91//96
f 96//97 134//97 125//97
f 126//98 40//98 51//98
f 129//99 38//99 50//99
f 77//100 101//100 8//100
f 77//101 18//101 127//101
f 101//102 127//102 40//102
f 39//103 128//103 126//103
f 97//104 71//104 129//104
f 75//105 128//105 16//105
f 126//106 29//106 72//106
f 38//107 99//107 81//107
f 99//108 12//108 81//108
f 130//109 36//109 129//109
f 70//110 130//110 61//110
f 34//111 131//111 124//111
f 131//112 96//112 125//112
f 69//113 131//113 68//113
f 13//114 124//114 123//114
f 49//115 132//115 122//115
f 125//116 123//116 124//116
f 80//117 93//117 11//117
f 33//118 93//118 132//118
f 121//119 92//119 33//119
f 133//120 31//120 121//120
f 31//121 120//121 92//121
f 135//122 84//122 60//122
f 66//123 67//123 120//123
f 58//124 134//124 59//124
f 119//125 135//125 32//125
f 135//126 7//126 139//126
f 6//127 141//127 23//127
f 4//128 84//128 136//128
f 136//129 119//129 137//129
f 52//130 88//130 138//130
f 7//131 76//131 139//131
f 32//132 33//132 67//132
f 32//133 47//133 33//133
f 140//134 118//134 46//134
f 141//135 117//135 23//135
f 83//136 117//136 142//136
f 35//137 140//137 141//137
f 142//138 46//138 160//138
f 144//139 143//139 116//139
f 143//140 10//140 94//140
f 27//141 63//141 143//141
f 54//142 136//142 145//142
f 17//143 87//143 144//143
f 144//144 35//144 6//144
f 94//145 147//145 68//145
f 146//146 114//146 94//146
f 10//147 146//147 94//147
f 147//148 69//148 68//148
f 36//149 112//149 97//149
f 97//150 37//150 15//150
f 113//151 62//151 148//151
f 9//152 148//152 62//152
f 53//153 86//153 149//153
f 37//154 112//154 148//154
f 149//155 26//155 113//155
f 149//156 45//156 159//156
f 82//157 98//157 150//157
f 21//158 82//158 150//158
f 151//159 3//159 142//159
f 151//160 21//160 150//160
f 9//161 152//161 37//161
f 152//162 44//162 15//162
f 20//163 110//163 152//163
f 153//164 13//164 123//164
f 90//165 58//165 89//165
f 154//166 43//166 99//166
f 98//167 153//167 154//167
f 81//168 74//168 42//168
f 100//169 39//169 42//169
f 57//170 42//170 155//170
f 57//171 155//171 56//171
f 105//172 14//172 107//172
f 42//173 108//173 155//173
f 89//174 106//174 30//174
f 89//175 59//175 156//175
f 156//176 22//176 105//176
f 12//177 106//177 74//177
f 14//178 102//178 107//178
f 105//179 104//179 106//179
f 157//180 103//180 41//180
f 157//181 133//181 91//181
f 73//182 75//182 16//182
f 41//183 101//183 40//183
f 102//184 158//184 73//184
f 107//185 73//185 104//185
f 99//186 109//186 30//186
f 39//187 72//187 108//187
f 160//188 34//188 82//188
f 111//189 98//189 154//189
f 159//190 78//190 19//190
f 45//191 36//191 159//191
f 136//192 137//192 115//192
f 116//193 95//193 35//193
f 94//194 68//194 116//194
f 160//195 82//195 21//195
f 22//196 65//196 14//196
f 47//197 64//197 161//197
f 119//198 32//198 162//198
f 85//199 50//199 57//199
f 48//200 31//200 65//200
f 122//201 80//201 55//201
f 58//202 90//202 123//202
f 125//203 58//203 123//203
f 29//204 163//204 2//204
f 50//205 81//205 57//205
f 51//206 127//206 163//206
f 93//207 161//207 64//207
f 96//208 115//208 137//208
f 104//209 73//209 16//209
f 101//210 103//210 24//210
f 75//211 158//211 41//211
f 103//212 157//212 5//212
f 38//213 71//213 154//213
f 91//214 122//214 55//214
f 109//215 90//215 89//215
f 19//216 53//216 149//216
f 113//217 148//217 112//217
f 69//218 147//218 115//218
f 141//219 140//219 46//219
f 140//220 68//220 34//220
f 66//221 137//221 162//221
f 22//222 59//222 134//222
f 25//223 61//223 130//223
f 126//224 128//224 40//224
f 77//225 127//225 101//225
f 39//226 16//226 128//226
f 97//227 15//227 71//227
f 130//228 70//228 36//228
f 34//229 68//229 131//229
f 131//230 69//230 96//230
f 13//231 82//231 124//231
f 49//232 33//232 132//232
f 80//233 132//233 93//233
f 121//234 31//234 92//234
f 133//235 65//235 31//235
f 31//236 48//236 120//236
f 135//237 119//237 84//237
f 135//238 60//238 7//238
f 6//239 35//239 141//239
f 83//240 23//240 117//240
f 142//241 117//241 46//241
f 144//242 27//242 143//242
f 143//243 63//243 10//243
f 54//244 4//244 136//244
f 94//245 114//245 147//245
f 36//246 45//246 112//246
f 97//247 112//247 37//247
f 113//248 26//248 62//248
f 9//249 37//249 148//249
f 53//250 1//250 86//250
f 149//251 86//251 26//251
f 149//252 113//252 45//252
f 82//253 13//253 98//253
f 151//254 110//254 3//254
f 151//255 142//255 21//255
f 9//256 79//256 152//256
f 152//257 110//257 44//257
f 153//258 98//258 13//258
f 154//259 153//259 43//259
f 81//260 12//260 74//260
f 57//261 81//261 42//261
f 105//262 22//262 14//262
f 89//263 156//263 106//263
f 89//264 58//264 59//264
f 156//265 59//265 22//265
f 12//266 30//266 106//266
f 14//267 133//267 102//267
f 157//268 102//268 133//268
f 73//269 158//269 75//269
f 41//270 103//270 101//270
f 107//271 102//271 73//271
f 99//272 43//272 109//272
f 160//273 118//273 34//273
f 22//274 48//274 65//274
f 85//275 25//275 50//275
f 29//276 51//276 163//276
