# Blender 4.1.1
# www.blender.org
mtllib Plane.040.mtl
o Plane.040
v -14.937352 9.112070 -12.656511
v -15.373266 8.799714 -12.731384
v -14.919090 9.120207 -12.796766
v -15.355007 8.807850 -12.871639
v -14.868304 9.159071 -12.716349
v -15.197184 8.967775 -12.698711
v -15.364137 8.803783 -12.801512
v -15.178923 8.975914 -12.838966
v -15.146941 9.026763 -12.760300
v -14.902483 8.923553 -13.024075
v -15.299669 8.562494 -13.095314
v -14.811578 8.818256 -12.997240
v -15.208763 8.457200 -13.068480
v -14.802437 8.920532 -13.000866
v -15.113626 8.722820 -13.096462
v -15.254216 8.509848 -13.081898
v -15.022720 8.617523 -13.069624
v -15.015151 8.713025 -13.094509
v -14.584742 8.652562 -12.668806
v -14.954262 8.257284 -12.688980
v -14.625541 8.683968 -12.536819
v -14.995061 8.288690 -12.556993
v -14.554352 8.722595 -12.600042
v -14.765393 8.412815 -12.667603
v -14.974663 8.272987 -12.622986
v -14.806192 8.444221 -12.535618
v -14.726871 8.463284 -12.591669
v -15.120390 9.339215 -12.158592
v -15.545445 9.013587 -12.239166
v -15.199940 9.422687 -12.076279
v -15.624992 9.097055 -12.156851
v -15.101745 9.425708 -12.106361
v -15.345599 9.141471 -12.175716
v -15.585218 9.055320 -12.198008
v -15.425152 9.224942 -12.093403
v -15.328178 9.211702 -12.108181
v -14.654561 8.745480 -12.633886
v -15.058331 8.387506 -12.678844
v -14.710478 8.821791 -12.739342
v -15.114247 8.463819 -12.784300
v -14.627021 8.832840 -12.680431
v -14.895250 8.566092 -12.636078
v -15.086289 8.425661 -12.731573
v -14.951165 8.642406 -12.741533
v -14.885136 8.658668 -12.669613
v -14.887312 9.017973 -12.124739
v -15.321002 8.694683 -12.149099
v -14.850133 8.977951 -12.255455
v -15.283823 8.654661 -12.279816
v -14.809113 9.042397 -12.186750
v -15.144526 8.865477 -12.151201
v -15.302412 8.674673 -12.214457
v -15.107350 8.825455 -12.281919
v -15.084250 8.900389 -12.221521
v -15.039526 9.326708 -13.050091
v -15.473216 9.003419 -13.074451
v -15.099646 9.399397 -12.944387
v -15.533339 9.076107 -12.968750
v -15.009976 9.407488 -12.993891
v -15.264020 9.127630 -13.040878
v -15.503279 9.039762 -13.021599
v -15.324142 9.200317 -12.935179
v -15.232508 9.190588 -12.971308
vn 0.6890 -0.7034 0.1745
vn 0.3980 -0.8989 0.1831
vn 0.4448 -0.8781 -0.1765
vn 0.7211 -0.6891 -0.0718
vn -0.1718 0.2611 0.9499
vn -0.4603 0.0725 0.8848
vn -0.2272 -0.1975 0.9536
vn -0.0122 0.0762 0.9970
vn -0.5025 0.7304 -0.4626
vn -0.7160 0.4594 -0.5256
vn -0.8206 0.5399 -0.1872
vn -0.5741 0.7856 -0.2309
vn -0.0500 0.5580 -0.8283
vn -0.2871 0.3115 -0.9058
vn -0.4910 0.5254 -0.6949
vn -0.1897 0.7046 -0.6838
vn 0.7026 -0.4629 -0.5404
vn 0.4625 -0.7177 -0.5206
vn 0.3191 -0.5220 -0.7910
vn 0.6045 -0.3289 -0.7256
vn 0.6318 -0.5951 0.4967
vn 0.3349 -0.7787 0.5305
vn 0.4302 -0.8813 0.1954
vn 0.6971 -0.6654 0.2672
vn -0.2213 0.6420 -0.7341
vn -0.4703 0.4006 -0.7863
vn -0.6244 0.5870 -0.5154
vn -0.3268 0.7697 -0.5485
vn 0.6851 -0.7269 0.0470
vn 0.4025 -0.8347 0.3759
vn 0.4974 -0.7924 -0.3532
vn -0.1202 0.1465 0.9819
vn -0.5206 0.2537 0.8152
vn -0.0481 -0.2936 0.9547
vn -0.5707 0.7415 -0.3528
vn -0.5866 0.4386 -0.6809
vn -0.7986 0.6018 0.0052
vn -0.5707 0.7415 -0.3529
vn -0.1503 0.6178 -0.7718
vn -0.1179 0.2181 -0.9688
vn -0.5313 0.6520 -0.5410
vn -0.1504 0.6179 -0.7718
vn 0.6351 -0.4255 -0.6447
vn 0.5625 -0.7505 -0.3468
vn 0.2719 -0.3539 -0.8949
vn 0.6441 -0.6607 0.3855
vn 0.3160 -0.6525 0.6887
vn 0.5093 -0.8606 0.0093
vn -0.3072 0.6935 -0.6517
vn -0.3184 0.3177 -0.8931
vn -0.6309 0.6956 -0.3437
vn -0.3072 0.6935 -0.6516
s 0
usemtl Material.001
f 7//1 8//1 9//1
f 9//2 3//2 5//2
f 1//3 9//3 5//3
f 6//4 7//4 9//4
f 16//5 17//5 18//5
f 18//6 12//6 14//6
f 10//7 18//7 14//7
f 15//8 16//8 18//8
f 25//9 26//9 27//9
f 27//10 21//10 23//10
f 19//11 27//11 23//11
f 24//12 25//12 27//12
f 34//13 35//13 36//13
f 36//14 30//14 32//14
f 28//15 36//15 32//15
f 33//16 34//16 36//16
f 43//17 44//17 45//17
f 45//18 39//18 41//18
f 37//19 45//19 41//19
f 42//20 43//20 45//20
f 52//21 53//21 54//21
f 54//22 48//22 50//22
f 46//23 54//23 50//23
f 51//24 52//24 54//24
f 61//25 62//25 63//25
f 63//26 57//26 59//26
f 55//27 63//27 59//27
f 60//28 61//28 63//28
f 7//29 4//29 8//29
f 9//30 8//30 3//30
f 1//31 6//31 9//31
f 6//29 2//29 7//29
f 16//32 13//32 17//32
f 18//33 17//33 12//33
f 10//34 15//34 18//34
f 15//32 11//32 16//32
f 25//35 22//35 26//35
f 27//36 26//36 21//36
f 19//37 24//37 27//37
f 24//38 20//38 25//38
f 34//39 31//39 35//39
f 36//40 35//40 30//40
f 28//41 33//41 36//41
f 33//42 29//42 34//42
f 43//43 40//43 44//43
f 45//44 44//44 39//44
f 37//45 42//45 45//45
f 42//43 38//43 43//43
f 52//46 49//46 53//46
f 54//47 53//47 48//47
f 46//48 51//48 54//48
f 51//46 47//46 52//46
f 61//49 58//49 62//49
f 63//50 62//50 57//50
f 55//51 60//51 63//51
f 60//52 56//52 61//52
