# Blender 4.1.1
# www.blender.org
mtllib Plane.040.mtl
o Plane.040
v -5.627016 -8.140591 -2.423178
v -5.786736 -8.168024 -2.308730
v -5.620325 -8.191980 -2.426159
v -5.780046 -8.219414 -2.311711
v -5.601717 -8.162515 -2.440399
v -5.722219 -8.156053 -2.370308
v -5.783391 -8.193719 -2.310221
v -5.715528 -8.207442 -2.373290
v -5.703810 -8.178618 -2.391921
v -5.614240 -8.275267 -2.354105
v -5.759770 -8.301370 -2.221812
v -5.580932 -8.265434 -2.315524
v -5.726462 -8.291537 -2.183232
v -5.577583 -8.266763 -2.352998
v -5.691603 -8.301789 -2.280556
v -5.743116 -8.296453 -2.202522
v -5.658295 -8.291957 -2.241975
v -5.655522 -8.301074 -2.276967
v -5.497819 -8.145096 -2.254813
v -5.633212 -8.152488 -2.109982
v -5.512768 -8.096736 -2.266320
v -5.648161 -8.104128 -2.121489
v -5.486684 -8.119900 -2.280473
v -5.564010 -8.144655 -2.166969
v -5.640687 -8.128307 -2.115736
v -5.578959 -8.096295 -2.178476
v -5.549896 -8.116833 -2.185461
v -5.694082 -7.958152 -2.506404
v -5.849823 -7.987674 -2.387093
v -5.723229 -7.927992 -2.536988
v -5.878969 -7.957514 -2.417676
v -5.687250 -7.939014 -2.538095
v -5.776599 -7.964426 -2.433950
v -5.864396 -7.972594 -2.402384
v -5.805747 -7.934266 -2.464534
v -5.770216 -7.939681 -2.459683
v -5.523401 -8.132300 -2.288858
v -5.671343 -8.148774 -2.157696
v -5.543889 -8.170939 -2.316819
v -5.691831 -8.187413 -2.185657
v -5.513310 -8.149355 -2.320867
v -5.611590 -8.133104 -2.223130
v -5.681587 -8.168094 -2.171676
v -5.632077 -8.171743 -2.251092
v -5.607884 -8.145391 -2.257050
v -5.608681 -7.945748 -2.388700
v -5.767586 -7.954674 -2.270246
v -5.595059 -7.993643 -2.374036
v -5.753964 -8.002569 -2.255582
v -5.580029 -7.968469 -2.397649
v -5.702925 -7.955444 -2.332825
v -5.760775 -7.978621 -2.262914
v -5.689304 -8.003339 -2.318161
v -5.680840 -7.981209 -2.345617
v -5.664453 -8.284799 -2.501822
v -5.823358 -8.293725 -2.383368
v -5.686481 -8.246069 -2.528455
v -5.845387 -8.254995 -2.410001
v -5.653626 -8.264207 -2.531420
v -5.746708 -8.281424 -2.428879
v -5.834373 -8.274360 -2.396684
v -5.768737 -8.242695 -2.455512
v -5.735162 -8.255933 -2.451947
vn 0.6890 0.1746 0.7034
vn 0.3980 0.1831 0.8989
vn 0.4448 -0.1765 0.8781
vn 0.7211 -0.0718 0.6891
vn -0.1718 0.9499 -0.2611
vn -0.4603 0.8848 -0.0725
vn -0.2272 0.9536 0.1975
vn -0.0122 0.9970 -0.0762
vn -0.5025 -0.4626 -0.7304
vn -0.7160 -0.5256 -0.4594
vn -0.8206 -0.1872 -0.5399
vn -0.5741 -0.2309 -0.7856
vn -0.0500 -0.8283 -0.5580
vn -0.2871 -0.9059 -0.3115
vn -0.4910 -0.6948 -0.5255
vn -0.1897 -0.6838 -0.7046
vn 0.7026 -0.5404 0.4629
vn 0.4625 -0.5206 0.7177
vn 0.3191 -0.7910 0.5220
vn 0.6045 -0.7256 0.3289
vn 0.6318 0.4967 0.5951
vn 0.3349 0.5305 0.7787
vn 0.4302 0.1954 0.8813
vn 0.6971 0.2672 0.6654
vn -0.2213 -0.7341 -0.6420
vn -0.4702 -0.7864 -0.4006
vn -0.6244 -0.5154 -0.5869
vn -0.3268 -0.5485 -0.7697
vn 0.6851 0.0470 0.7269
vn 0.4025 0.3759 0.8347
vn 0.4974 -0.3532 0.7924
vn 0.6851 0.0470 0.7270
vn -0.1202 0.9819 -0.1465
vn -0.5206 0.8152 -0.2537
vn -0.0482 0.9547 0.2936
vn -0.5707 -0.3528 -0.7415
vn -0.5866 -0.6809 -0.4385
vn -0.7986 0.0052 -0.6018
vn -0.5707 -0.3529 -0.7415
vn -0.1503 -0.7718 -0.6178
vn -0.1179 -0.9688 -0.2181
vn -0.5313 -0.5409 -0.6520
vn -0.1504 -0.7718 -0.6179
vn 0.6351 -0.6446 0.4255
vn 0.5625 -0.3468 0.7505
vn 0.2719 -0.8949 0.3539
vn 0.6350 -0.6447 0.4256
vn 0.6441 0.3855 0.6607
vn 0.3160 0.6887 0.6525
vn 0.5093 0.0093 0.8606
vn -0.3072 -0.6517 -0.6935
vn -0.3184 -0.8931 -0.3177
vn -0.6309 -0.3437 -0.6956
vn -0.3072 -0.6516 -0.6935
s 0
usemtl Material.001
f 7//1 8//1 9//1
f 9//2 3//2 5//2
f 1//3 9//3 5//3
f 6//4 7//4 9//4
f 16//5 17//5 18//5
f 18//6 12//6 14//6
f 10//7 18//7 14//7
f 15//8 16//8 18//8
f 25//9 26//9 27//9
f 27//10 21//10 23//10
f 19//11 27//11 23//11
f 24//12 25//12 27//12
f 34//13 35//13 36//13
f 36//14 30//14 32//14
f 28//15 36//15 32//15
f 33//16 34//16 36//16
f 43//17 44//17 45//17
f 45//18 39//18 41//18
f 37//19 45//19 41//19
f 42//20 43//20 45//20
f 52//21 53//21 54//21
f 54//22 48//22 50//22
f 46//23 54//23 50//23
f 51//24 52//24 54//24
f 61//25 62//25 63//25
f 63//26 57//26 59//26
f 55//27 63//27 59//27
f 60//28 61//28 63//28
f 7//29 4//29 8//29
f 9//30 8//30 3//30
f 1//31 6//31 9//31
f 6//32 2//32 7//32
f 16//33 13//33 17//33
f 18//34 17//34 12//34
f 10//35 15//35 18//35
f 15//33 11//33 16//33
f 25//36 22//36 26//36
f 27//37 26//37 21//37
f 19//38 24//38 27//38
f 24//39 20//39 25//39
f 34//40 31//40 35//40
f 36//41 35//41 30//41
f 28//42 33//42 36//42
f 33//43 29//43 34//43
f 43//44 40//44 44//44
f 45//45 44//45 39//45
f 37//46 42//46 45//46
f 42//47 38//47 43//47
f 52//48 49//48 53//48
f 54//49 53//49 48//49
f 46//50 51//50 54//50
f 51//48 47//48 52//48
f 61//51 58//51 62//51
f 63//52 62//52 57//52
f 55//53 60//53 63//53
f 60//54 56//54 61//54
