# Blender 4.1.1
# www.blender.org
mtllib Cube.088_Cube.092.mtl
o Cube.088_Cube.092
v -3.196255 -8.584960 -1.046430
v -3.205000 -8.649416 -1.047016
v -2.833738 -8.700902 -0.729615
v -3.250904 -8.574512 -0.985850
v -2.884388 -8.694023 -0.664751
v -3.010200 -8.609607 -0.887196
v -2.999394 -8.675876 -0.881533
v -3.205957 -8.614231 -1.052567
v -2.865839 -8.697255 -0.676290
v -3.073313 -8.671397 -0.822903
v -3.238894 -8.642933 -1.021547
v -3.065660 -8.604601 -0.821565
v -3.223740 -8.576771 -1.017288
v -2.835226 -8.669163 -0.682229
v -3.035982 -8.599650 -0.855510
v -3.071082 -8.638316 -0.820416
v -3.045308 -8.688086 -0.858225
v -3.011293 -8.647295 -0.891722
v -2.815722 -8.642065 -0.721637
v -3.111497 -8.664874 -0.964082
v -3.164876 -8.663741 -0.901482
v -3.222111 -8.663038 -1.033138
v -2.871644 -8.633584 -0.660395
v -3.152959 -8.594066 -0.904687
v -3.264546 -8.639926 -0.989963
v -3.236162 -8.577306 -1.000613
v -3.098383 -8.600401 -0.969489
v -2.821437 -8.668479 -0.723121
v -2.919961 -8.689655 -0.817507
v -2.832467 -8.701042 -0.697339
v -2.981797 -8.684752 -0.745146
v -3.246191 -8.647287 -1.001089
v -2.973736 -8.620333 -0.744652
v -2.830670 -8.638826 -0.705714
v -3.240734 -8.602558 -1.002064
v -3.130517 -8.597377 -0.931443
v -3.048233 -8.606165 -0.842186
v -3.024221 -8.609363 -0.870761
v -3.165570 -8.635744 -0.910214
v -3.068845 -8.654567 -0.825536
v -3.067092 -8.626300 -0.823232
v -3.138052 -8.669877 -0.933798
v -2.951473 -8.689588 -0.781073
v -3.031753 -8.676489 -0.872291
v -3.057149 -8.669710 -0.841546
v -2.918155 -8.659342 -0.815178
v -3.012275 -8.625497 -0.887216
v -2.920123 -8.672426 -0.813337
v -2.920076 -8.643737 -0.810952
v -3.097140 -8.617161 -0.973524
v -2.966760 -8.699331 -0.764523
v -2.930849 -8.692506 -0.803919
v -3.121834 -8.666827 -0.952295
v -2.956681 -8.652977 -0.731178
v -2.976769 -8.673020 -0.749219
v -2.928655 -8.626417 -0.773878
v -2.959645 -8.624664 -0.761698
v -3.143823 -8.600733 -0.916398
v -3.214063 -8.616590 -1.030984
v -2.881851 -8.681849 -0.663868
v -2.845568 -8.650407 -0.696885
v -2.813887 -8.688548 -0.712640
v -3.118359 -8.600615 -0.946160
v -3.157289 -8.613358 -0.902594
v -3.149373 -8.674024 -0.921196
v -3.114161 -8.638813 -0.977233
vn 0.6017 -0.3100 -0.7362
vn -0.5967 0.2177 0.7724
vn 0.7443 0.6146 0.2613
vn 0.5162 -0.1443 0.8442
vn -0.6139 0.3202 -0.7215
vn 0.5547 -0.3033 -0.7748
vn -0.5451 0.3586 0.7578
vn -0.6376 -0.0152 0.7702
vn -0.6686 0.0008 0.7436
vn -0.6176 0.2202 0.7550
vn 0.4068 0.8796 -0.2464
vn 0.1599 0.9859 -0.0504
vn -0.6823 0.1645 -0.7124
vn -0.7920 0.1770 -0.5843
vn 0.6685 -0.3669 0.6469
vn 0.7496 -0.2038 0.6297
vn 0.8361 0.4658 0.2897
vn -0.6662 -0.0074 0.7457
vn 0.6388 -0.0083 -0.7693
vn 0.1121 0.9870 0.1152
vn 0.0893 0.9923 0.0856
vn 0.5435 -0.8390 -0.0250
vn 0.1181 0.6510 0.7498
vn -0.4621 0.1208 -0.8786
vn -0.1193 0.9309 0.3454
vn 0.1040 0.9919 0.0723
vn -0.6429 -0.3093 0.7008
vn -0.6274 0.0822 0.7744
vn -0.6432 -0.0164 0.7655
vn -0.5596 -0.7118 0.4245
vn 0.3171 -0.8588 -0.4024
vn -0.0394 -0.9915 -0.1239
vn 0.6316 0.2741 -0.7252
vn 0.6439 -0.2007 -0.7383
vn 0.6360 0.1872 -0.7487
vn 0.6719 -0.1282 -0.7294
vn 0.7142 0.1710 -0.6788
vn 0.6257 -0.0807 -0.7758
vn 0.5871 -0.0249 -0.8092
vn 0.6480 -0.0978 -0.7553
vn 0.6772 0.2688 -0.6849
vn 0.7067 0.2147 -0.6742
vn 0.5860 -0.3342 -0.7381
vn -0.5701 -0.7225 0.3912
vn -0.3741 -0.8570 0.3545
vn 0.2719 -0.9178 -0.2893
vn -0.0332 -0.9829 -0.1813
vn -0.0854 -0.9963 -0.0010
vn -0.1160 -0.9930 0.0221
vn 0.3184 -0.8425 -0.4344
vn 0.0222 -0.9893 -0.1445
vn 0.2256 -0.8472 -0.4810
vn -0.5806 0.2741 0.7667
vn -0.6486 0.0827 0.7566
vn -0.6619 0.0839 0.7449
vn -0.6180 0.2201 0.7548
vn 0.1550 0.9863 0.0561
vn -0.6600 -0.3069 0.6857
vn 0.1142 0.9934 -0.0117
vn 0.4038 0.8941 -0.1940
vn 0.0814 0.9946 0.0640
vn 0.2832 0.9116 -0.2980
vn -0.1993 0.9402 0.2764
vn -0.7180 0.0639 -0.6931
vn -0.9301 -0.0818 -0.3582
vn -0.6930 0.1527 -0.7046
vn 0.6263 -0.2403 0.7416
vn -0.8870 0.3557 -0.2943
vn 0.4248 -0.3575 0.8317
vn 0.4999 -0.1658 0.8501
vn -0.5052 0.0429 -0.8619
vn -0.3162 -0.9432 0.1023
vn 0.7102 -0.2504 0.6580
vn 0.2461 0.9684 -0.0400
vn -0.9434 0.1083 -0.3134
vn 0.3319 0.8905 -0.3111
vn 0.0531 0.9971 0.0546
vn -0.5852 0.3641 0.7245
vn -0.6574 0.2255 0.7190
vn -0.0025 -0.9492 -0.3146
vn 0.1809 -0.9709 -0.1569
vn -0.0034 -0.9957 -0.0930
vn 0.6135 -0.1067 -0.7824
vn 0.5369 -0.3357 -0.7740
vn 0.0270 0.9703 0.2403
vn 0.1197 0.9792 0.1637
vn 0.1029 0.9920 0.0731
vn -0.6195 -0.0819 0.7807
vn -0.6431 -0.0200 0.7655
vn 0.0553 -0.9918 -0.1151
vn -0.1505 -0.9886 -0.0095
vn -0.4877 -0.8362 0.2507
vn 0.6478 0.1821 -0.7397
vn 0.6340 -0.0117 -0.7733
vn 0.6653 -0.2012 -0.7189
vn 0.6783 -0.0874 -0.7295
vn 0.6500 0.0190 -0.7597
vn 0.6238 0.2264 -0.7481
vn 0.6748 -0.0872 -0.7328
vn 0.7106 0.1730 -0.6820
vn 0.2440 -0.9173 -0.3147
vn -0.0921 -0.9874 0.1286
vn -0.0026 -0.9783 -0.2073
vn 0.0453 -0.9844 -0.1703
vn -0.1031 -0.9946 0.0155
vn -0.0102 -0.9850 -0.1721
vn -0.0137 -0.9934 -0.1138
vn 0.0219 -0.9893 -0.1440
vn -0.5299 0.4718 0.7047
vn -0.5340 0.4723 0.7013
vn -0.6120 0.2783 0.7403
vn 0.2208 0.9732 -0.0648
vn 0.1971 0.9767 -0.0852
vn 0.1915 0.9815 0.0054
vn 0.1063 0.9942 0.0144
vn -0.0680 0.9848 0.1596
vn -0.7168 0.0646 -0.6942
vn 0.6963 -0.1895 0.6923
vn -0.6585 0.1832 -0.7300
vn -0.3884 -0.9062 0.1673
vn 0.2338 0.9721 -0.0206
vn 0.1190 0.9858 -0.1186
vn 0.0621 0.9973 0.0382
vn -0.6887 0.0080 0.7250
vn -0.6617 -0.0139 0.7497
vn -0.0608 -0.9716 -0.2285
vn -0.5093 -0.7348 0.4480
vn -0.2225 -0.9251 0.3076
s 0
usemtl Fence2
f 20//1 2//1 66//1
f 24//2 4//2 64//2
f 14//3 28//3 61//3
f 60//4 9//4 30//4
f 59//5 11//5 35//5
f 66//6 8//6 50//6
f 54//7 41//7 16//7
f 23//8 33//8 54//8
f 60//9 54//9 55//9
f 39//10 25//10 21//10
f 56//11 38//11 15//11
f 34//12 19//12 56//12
f 35//13 4//13 26//13
f 13//14 35//14 26//14
f 23//15 61//15 34//15
f 60//16 61//16 23//16
f 14//17 62//17 28//17
f 64//18 4//18 39//18
f 7//19 66//19 18//19
f 26//20 36//20 13//20
f 63//21 27//21 1//21
f 30//22 3//22 62//22
f 60//23 14//23 61//23
f 59//24 22//24 11//24
f 57//25 15//25 37//25
f 6//26 56//26 19//26
f 55//27 16//27 40//27
f 39//28 4//28 25//28
f 41//29 33//29 12//29
f 22//30 42//30 11//30
f 44//31 43//31 17//31
f 45//32 31//32 10//32
f 18//33 49//33 46//33
f 7//34 46//34 48//34
f 48//35 29//35 7//35
f 48//36 28//36 62//36
f 48//37 3//37 29//37
f 6//38 49//38 47//38
f 1//39 50//39 8//39
f 19//40 28//40 49//40
f 28//41 46//41 49//41
f 27//42 47//42 50//42
f 50//43 18//43 66//43
f 17//44 51//44 45//44
f 51//45 5//45 31//45
f 9//46 51//46 43//46
f 7//47 52//47 44//47
f 52//48 3//48 30//48
f 52//49 9//49 43//49
f 2//50 53//50 22//50
f 20//51 44//51 53//51
f 42//52 44//52 17//52
f 10//53 55//53 40//53
f 60//54 23//54 54//54
f 55//55 5//55 60//55
f 21//56 40//56 39//56
f 12//57 57//57 37//57
f 40//58 16//58 39//58
f 57//59 23//59 34//59
f 26//60 24//60 58//60
f 34//61 56//61 57//61
f 24//62 37//62 58//62
f 36//63 37//63 15//63
f 13//64 59//64 35//64
f 8//65 2//65 59//65
f 2//66 22//66 59//66
f 28//67 34//67 61//67
f 1//68 8//68 59//68
f 60//69 30//69 14//69
f 60//70 5//70 9//70
f 25//71 35//71 32//71
f 32//72 21//72 25//72
f 14//73 30//73 62//73
f 13//74 63//74 1//74
f 11//75 32//75 35//75
f 63//76 15//76 38//76
f 63//77 6//77 27//77
f 64//78 16//78 41//78
f 64//79 12//79 24//79
f 32//80 42//80 65//80
f 42//81 45//81 65//81
f 21//82 45//82 10//82
f 66//83 2//83 8//83
f 7//84 20//84 66//84
f 26//85 58//85 36//85
f 57//86 56//86 15//86
f 6//87 38//87 56//87
f 55//88 54//88 16//88
f 41//89 54//89 33//89
f 22//90 53//90 42//90
f 44//91 52//91 43//91
f 45//92 51//92 31//92
f 18//93 47//93 49//93
f 7//94 18//94 46//94
f 48//95 46//95 28//95
f 48//96 62//96 3//96
f 6//97 19//97 49//97
f 1//98 27//98 50//98
f 27//99 6//99 47//99
f 50//100 47//100 18//100
f 17//101 43//101 51//101
f 51//102 9//102 5//102
f 7//103 29//103 52//103
f 52//104 29//104 3//104
f 52//105 30//105 9//105
f 2//106 20//106 53//106
f 20//107 7//107 44//107
f 42//108 53//108 44//108
f 10//109 31//109 55//109
f 55//110 31//110 5//110
f 21//111 10//111 40//111
f 12//112 33//112 57//112
f 57//113 33//113 23//113
f 26//114 4//114 24//114
f 24//115 12//115 37//115
f 36//116 58//116 37//116
f 13//117 1//117 59//117
f 28//118 19//118 34//118
f 25//119 4//119 35//119
f 32//120 65//120 21//120
f 13//121 36//121 63//121
f 63//122 36//122 15//122
f 63//123 38//123 6//123
f 64//124 39//124 16//124
f 64//125 41//125 12//125
f 32//126 11//126 42//126
f 42//127 17//127 45//127
f 21//128 65//128 45//128
