# Blender 4.1.1
# www.blender.org
mtllib Cube.016.mtl
o Cube.016
v 6.703663 5.679570 3.109179
v 6.699821 5.846447 3.109681
v 6.775991 5.682097 2.823406
v 6.772146 5.848974 2.823908
v 9.629210 5.744743 3.850173
v 9.625364 5.911620 3.850675
v 9.701534 5.747272 3.564400
v 9.697689 5.914149 3.564901
v 6.701742 5.763009 3.109430
v 6.735983 5.847711 2.966794
v 6.774067 5.765536 2.823657
v 6.739826 5.680834 2.966292
v 8.234918 5.881562 3.194405
v 9.699611 5.830709 3.564651
v 8.238763 5.714685 3.193903
v 9.661527 5.912884 3.707788
v 9.627286 5.828184 3.850424
v 9.665373 5.746009 3.707286
v 8.162593 5.879035 3.480178
v 8.166435 5.712158 3.479676
v 8.198755 5.880299 3.337291
v 8.202600 5.713422 3.336789
v 8.164514 5.795597 3.479927
v 9.663451 5.829448 3.707537
v 8.236839 5.798123 3.194154
v 6.737905 5.764273 2.966543
v 6.700781 5.804728 3.109555
v 6.754065 5.848341 2.895351
v 6.775028 5.723817 2.823531
v 6.721747 5.680201 3.037736
v 8.966305 5.897856 3.379654
v 9.700574 5.788989 3.564525
v 7.507376 5.698391 3.008653
v 9.643446 5.912253 3.779232
v 9.628249 5.786466 3.850298
v 9.683454 5.746640 3.635843
v 7.431206 5.862741 3.294928
v 8.897822 5.728452 3.664923
v 6.702703 5.721290 3.109304
v 6.717899 5.847077 3.038237
v 6.773106 5.807255 2.823782
v 6.757907 5.681464 2.894849
v 7.503531 5.865268 3.009155
v 9.698650 5.872430 3.564776
v 8.970147 5.730979 3.379150
v 9.679608 5.913517 3.636345
v 9.626326 5.869904 3.850550
v 9.647291 5.745376 3.778730
v 8.893977 5.895329 3.665425
v 7.435050 5.695865 3.294426
v 7.467368 5.864005 3.152041
v 8.930140 5.896592 3.522538
v 8.180674 5.879665 3.408734
v 8.216836 5.880929 3.265848
v 8.933986 5.729715 3.522037
v 7.471213 5.697128 3.151540
v 8.184520 5.712789 3.408233
v 8.220682 5.714052 3.265346
v 8.165475 5.753878 3.479802
v 8.163553 5.837316 3.480052
v 8.895901 5.811891 3.665174
v 7.433130 5.779303 3.294677
v 9.664412 5.787726 3.707411
v 9.662487 5.871167 3.707663
v 9.681530 5.830078 3.636094
v 9.645367 5.828815 3.778980
v 8.237800 5.756404 3.194028
v 8.235878 5.839843 3.194279
v 7.505455 5.781830 3.008904
v 8.968225 5.814417 3.379401
v 6.738865 5.722553 2.966418
v 6.736944 5.805992 2.966668
v 6.719823 5.763639 3.037987
v 6.755985 5.764903 2.895100
v 6.755025 5.806622 2.895225
v 6.718863 5.805359 3.038112
v 6.720784 5.721920 3.037861
v 8.967265 5.856136 3.379526
v 7.504491 5.823549 3.009029
v 7.506415 5.740110 3.008778
v 9.644406 5.870534 3.779106
v 9.680569 5.871798 3.636220
v 9.682493 5.788359 3.635968
v 7.432166 5.821022 3.294802
v 8.894940 5.853610 3.665299
v 8.896862 5.770172 3.665048
v 7.489295 5.697758 3.080096
v 7.453132 5.696495 3.222983
v 8.915904 5.729082 3.593480
v 8.948220 5.897223 3.451095
v 8.912059 5.895959 3.593982
v 7.449286 5.863371 3.223485
v 7.485449 5.864635 3.080598
v 8.952066 5.730346 3.450593
v 7.434090 5.737584 3.294551
v 9.646331 5.787095 3.778855
v 8.969187 5.772698 3.379275
v 6.756947 5.723184 2.894975
vn -0.9691 -0.0216 -0.2455
vn 0.2453 0.0086 -0.9694
vn 0.9692 0.0216 0.2455
vn -0.2453 -0.0086 0.9694
vn 0.0230 -0.9997 -0.0030
vn -0.0230 0.9997 0.0030
vn -0.2453 -0.0085 0.9694
vn 0.9692 0.0216 0.2454
vn -0.9692 -0.0217 -0.2454
vn -0.9692 -0.0216 -0.2455
vn -0.9692 -0.0216 -0.2454
vn -0.9692 -0.0217 -0.2455
vn 0.9692 0.0217 0.2455
vn 0.2453 0.0085 -0.9694
vn 0.9691 0.0216 0.2455
vn 0.9692 0.0217 0.2454
s 0
usemtl CHIM
f 98//1 3//1 42//1
f 97//2 7//2 45//2
f 35//3 48//3 96//3
f 39//4 50//4 95//4
f 94//5 7//5 36//5
f 93//6 4//6 28//6
f 92//6 10//6 40//6
f 52//6 53//6 91//6
f 90//6 13//6 54//6
f 55//5 48//5 89//5
f 88//5 22//5 57//5
f 87//5 15//5 58//5
f 59//7 38//7 86//7
f 60//4 61//4 85//4
f 84//4 9//4 62//4
f 63//3 36//3 83//3
f 82//8 24//8 65//8
f 81//8 17//8 66//8
f 67//2 33//2 80//2
f 68//2 69//2 79//2
f 78//2 14//2 70//2
f 77//9 12//9 30//9
f 76//10 26//10 73//10
f 75//10 11//10 74//10
f 72//10 74//10 26//10
f 28//10 72//10 10//10
f 28//10 41//10 75//10
f 27//10 73//10 9//10
f 40//11 27//11 2//11
f 40//12 72//12 76//12
f 77//10 1//10 39//10
f 73//10 39//10 9//10
f 73//10 71//10 77//10
f 68//2 70//2 25//2
f 13//2 78//2 68//2
f 31//2 44//2 78//2
f 79//2 11//2 41//2
f 4//2 79//2 41//2
f 43//2 68//2 79//2
f 80//2 3//2 29//2
f 11//2 80//2 29//2
f 69//2 67//2 80//2
f 81//13 24//13 64//13
f 34//3 64//3 16//3
f 34//3 47//3 81//3
f 82//3 14//3 44//3
f 46//3 44//3 8//3
f 16//3 82//3 46//3
f 83//3 7//3 32//3
f 14//3 83//3 32//3
f 65//3 63//3 83//3
f 60//4 62//4 23//4
f 37//4 60//4 19//4
f 2//4 84//4 37//4
f 85//4 17//4 47//4
f 6//4 85//4 47//4
f 49//4 60//4 85//4
f 86//4 5//4 35//4
f 17//4 86//4 35//4
f 61//4 59//4 86//4
f 87//5 22//5 56//5
f 12//5 87//5 56//5
f 3//5 87//5 42//5
f 88//5 20//5 50//5
f 30//5 50//5 1//5
f 30//5 56//5 88//5
f 89//5 5//5 38//5
f 57//5 38//5 20//5
f 57//5 55//5 89//5
f 52//6 54//6 21//6
f 46//6 52//6 16//6
f 46//6 31//6 90//6
f 49//6 53//6 19//6
f 6//6 91//6 49//6
f 16//6 91//6 34//6
f 92//6 2//6 37//6
f 53//6 37//6 19//6
f 53//6 51//6 92//6
f 93//6 10//6 51//6
f 54//6 51//6 21//6
f 54//6 43//6 93//6
f 55//5 36//5 18//5
f 58//5 55//5 22//5
f 58//5 45//5 94//5
f 95//4 20//4 59//4
f 23//4 95//4 59//4
f 9//4 95//4 62//4
f 96//3 18//3 63//3
f 66//3 63//3 24//3
f 66//13 35//13 96//13
f 97//2 15//2 67//2
f 25//2 97//2 67//2
f 14//2 97//2 70//2
f 98//10 12//10 71//10
f 74//10 71//10 26//10
f 74//10 29//10 98//10
f 98//10 29//10 3//10
f 97//2 32//2 7//2
f 35//3 5//3 48//3
f 39//4 1//4 50//4
f 94//5 45//5 7//5
f 93//6 43//6 4//6
f 92//6 51//6 10//6
f 52//6 21//6 53//6
f 90//6 31//6 13//6
f 55//5 18//5 48//5
f 88//5 56//5 22//5
f 87//5 33//5 15//5
f 59//4 20//4 38//4
f 60//4 23//4 61//4
f 84//4 27//4 9//4
f 63//3 18//3 36//3
f 82//13 64//13 24//13
f 81//3 47//3 17//3
f 67//2 15//2 33//2
f 68//2 25//2 69//2
f 78//2 44//2 14//2
f 77//10 71//10 12//10
f 76//10 72//10 26//10
f 75//10 41//10 11//10
f 72//10 75//10 74//10
f 28//10 75//10 72//10
f 28//10 4//10 41//10
f 27//10 76//10 73//10
f 40//12 76//12 27//12
f 40//10 10//10 72//10
f 77//10 30//10 1//10
f 73//10 77//10 39//10
f 73//10 26//10 71//10
f 68//2 78//2 70//2
f 13//2 31//2 78//2
f 31//14 8//14 44//14
f 79//2 69//2 11//2
f 4//2 43//2 79//2
f 43//2 13//2 68//2
f 80//2 33//2 3//2
f 11//2 69//2 80//2
f 69//2 25//2 67//2
f 81//15 66//15 24//15
f 34//8 81//8 64//8
f 34//3 6//3 47//3
f 82//3 65//3 14//3
f 46//3 82//3 44//3
f 16//3 64//3 82//3
f 83//3 36//3 7//3
f 14//3 65//3 83//3
f 65//8 24//8 63//8
f 60//4 84//4 62//4
f 37//4 84//4 60//4
f 2//4 27//4 84//4
f 85//4 61//4 17//4
f 6//4 49//4 85//4
f 49//4 19//4 60//4
f 86//7 38//7 5//7
f 17//4 61//4 86//4
f 61//4 23//4 59//4
f 87//5 58//5 22//5
f 12//5 42//5 87//5
f 3//5 33//5 87//5
f 88//5 57//5 20//5
f 30//5 88//5 50//5
f 30//5 12//5 56//5
f 89//5 48//5 5//5
f 57//5 89//5 38//5
f 57//5 22//5 55//5
f 52//6 90//6 54//6
f 46//6 90//6 52//6
f 46//6 8//6 31//6
f 49//6 91//6 53//6
f 6//6 34//6 91//6
f 16//6 52//6 91//6
f 92//6 40//6 2//6
f 53//6 92//6 37//6
f 53//6 21//6 51//6
f 93//6 28//6 10//6
f 54//6 93//6 51//6
f 54//6 13//6 43//6
f 55//5 94//5 36//5
f 58//5 94//5 55//5
f 58//5 15//5 45//5
f 95//4 50//4 20//4
f 23//4 62//4 95//4
f 9//4 39//4 95//4
f 96//3 48//3 18//3
f 66//16 96//16 63//16
f 66//3 17//3 35//3
f 97//2 45//2 15//2
f 25//2 70//2 97//2
f 14//2 32//2 97//2
f 98//10 42//10 12//10
f 74//10 98//10 71//10
f 74//10 11//10 29//10
