# Blender 4.1.1
# www.blender.org
mtllib Plane.015_Plane.025.mtl
o Plane.015_Plane.025
v 1.173808 4.991167 3.312424
v 1.283837 4.465386 3.380570
v 1.233562 5.019900 3.437622
v 1.343591 4.494117 3.505772
v 1.188559 5.077801 3.365657
v 1.264514 4.705868 3.334608
v 1.313714 4.479751 3.443171
v 1.324268 4.734599 3.459805
v 1.299279 4.786900 3.379574
v 1.206891 4.915313 3.718636
v 1.260630 4.384864 3.813137
v 1.071805 4.909153 3.760876
v 1.125544 4.378704 3.855380
v 1.131963 4.985144 3.726766
v 1.246184 4.629810 3.802656
v 1.193087 4.381783 3.834259
v 1.111095 4.623651 3.844896
v 1.177983 4.695402 3.831689
v 0.672547 4.940957 3.598522
v 0.663625 4.404159 3.668985
v 0.655473 4.922930 3.459042
v 0.646548 4.386135 3.529509
v 0.665236 5.005725 3.519095
v 0.633822 4.646368 3.641333
v 0.655088 4.395147 3.599248
v 0.616745 4.628342 3.501855
v 0.605823 4.703404 3.565441
v 1.195606 4.975104 2.735978
v 1.293247 4.448746 2.817280
v 1.258602 4.967227 2.609331
v 1.356246 4.440872 2.690629
v 1.213685 5.043512 2.661479
v 1.219503 4.677412 2.766377
v 1.324748 4.444807 2.753953
v 1.282500 4.669538 2.639727
v 1.220944 4.732873 2.684410
v 0.757727 4.949925 3.512543
v 0.805120 4.414880 3.580927
v 0.889909 4.967739 3.560307
v 0.937303 4.432693 3.628694
v 0.817303 5.032372 3.527027
v 0.795723 4.652206 3.518430
v 0.871211 4.423785 3.604811
v 0.927903 4.670020 3.566197
v 0.863264 4.724460 3.514669
v 0.833540 4.927162 2.894976
v 0.911566 4.392100 2.923557
v 0.846866 4.936625 3.035703
v 0.924893 4.401563 3.064281
v 0.829478 5.005437 2.961411
v 0.910073 4.637151 2.907225
v 0.918228 4.396833 2.993919
v 0.923400 4.646610 3.047950
v 0.927622 4.709918 2.971981
v 1.557004 5.088532 3.547143
v 1.635030 4.553471 3.575725
v 1.590175 5.086016 3.409431
v 1.668201 4.550954 3.438013
v 1.562864 5.160816 3.474360
v 1.567230 4.788622 3.555091
v 1.651616 4.552212 3.506869
v 1.600402 4.786102 3.417382
v 1.554408 4.849385 3.478018
vn -0.9510 0.0192 0.3087
vn -0.8969 -0.3271 0.2977
vn -0.7437 -0.2535 0.6186
vn -0.8460 0.0697 0.5285
vn -0.1765 -0.0166 -0.9842
vn -0.0851 -0.3512 -0.9324
vn -0.4314 -0.3670 -0.8241
vn -0.4137 -0.0274 -0.9100
vn 0.9876 0.1562 -0.0148
vn 0.9799 -0.1791 0.0877
vn 0.9361 -0.2254 -0.2699
vn 0.9576 0.1246 -0.2597
vn 0.7707 0.3979 0.4977
vn 0.7997 0.0628 0.5970
vn 0.9613 0.0426 0.2724
vn 0.8813 0.3840 0.2753
vn -0.4722 0.2417 0.8477
vn -0.4922 -0.1081 0.8638
vn -0.1533 -0.0625 0.9862
vn -0.2401 0.2729 0.9316
vn -0.9991 0.0277 -0.0324
vn -0.9458 -0.3167 -0.0720
vn -0.9116 -0.2924 0.2888
vn -0.9757 0.0443 0.2146
vn 0.8853 0.3221 0.3353
vn 0.9131 -0.0200 0.4072
vn 0.9982 -0.0265 0.0541
vn 0.9436 0.3177 0.0935
vn -0.9033 0.0094 0.4289
vn -0.9501 -0.2940 0.1043
vn -0.6395 -0.1446 0.7550
vn -0.2955 -0.0582 -0.9536
vn 0.0987 -0.2684 -0.9582
vn -0.6034 -0.3004 -0.7387
vn 0.9853 0.1059 -0.1343
vn 0.9595 -0.0872 0.2678
vn 0.8708 -0.1809 -0.4572
vn 0.8439 0.3606 0.3973
vn 0.6658 0.1285 0.7350
vn 0.9932 0.0876 0.0767
vn -0.3578 0.2245 0.9064
vn -0.6567 -0.0689 0.7510
vn 0.0304 0.0236 0.9993
vn -0.9955 0.0002 0.0943
vn -0.9294 -0.2565 -0.2654
vn -0.8601 -0.2073 0.4660
vn -0.9955 0.0002 0.0942
vn 0.9322 0.2880 0.2193
vn 0.8171 0.0431 0.5748
vn 0.9896 0.0300 -0.1410
s 0
usemtl Material.001
f 7//1 8//1 9//1
f 9//2 3//2 5//2
f 1//3 9//3 5//3
f 6//4 7//4 9//4
f 16//5 17//5 18//5
f 18//6 12//6 14//6
f 10//7 18//7 14//7
f 15//8 16//8 18//8
f 25//9 26//9 27//9
f 27//10 21//10 23//10
f 19//11 27//11 23//11
f 24//12 25//12 27//12
f 34//13 35//13 36//13
f 36//14 30//14 32//14
f 28//15 36//15 32//15
f 33//16 34//16 36//16
f 43//17 44//17 45//17
f 45//18 39//18 41//18
f 37//19 45//19 41//19
f 42//20 43//20 45//20
f 52//21 53//21 54//21
f 54//22 48//22 50//22
f 46//23 54//23 50//23
f 51//24 52//24 54//24
f 61//25 62//25 63//25
f 63//26 57//26 59//26
f 55//27 63//27 59//27
f 60//28 61//28 63//28
f 7//29 4//29 8//29
f 9//30 8//30 3//30
f 1//31 6//31 9//31
f 6//29 2//29 7//29
f 16//32 13//32 17//32
f 18//33 17//33 12//33
f 10//34 15//34 18//34
f 15//32 11//32 16//32
f 25//35 22//35 26//35
f 27//36 26//36 21//36
f 19//37 24//37 27//37
f 24//35 20//35 25//35
f 34//38 31//38 35//38
f 36//39 35//39 30//39
f 28//40 33//40 36//40
f 33//38 29//38 34//38
f 43//41 40//41 44//41
f 45//42 44//42 39//42
f 37//43 42//43 45//43
f 42//41 38//41 43//41
f 52//44 49//44 53//44
f 54//45 53//45 48//45
f 46//46 51//46 54//46
f 51//47 47//47 52//47
f 61//48 58//48 62//48
f 63//49 62//49 57//49
f 55//50 60//50 63//50
f 60//48 56//48 61//48
