# Blender 4.1.1
# www.blender.org
mtllib Cylinder.020_Cylinder.030.mtl
o Cylinder.020_Cylinder.030
v 2.726515 -2.645053 -0.711296
v 2.734302 -2.674491 -0.694753
v 2.712587 -2.638768 -1.195992
v 2.725603 -2.653391 -1.010599
v 2.772129 -2.690043 -0.708889
v 2.767803 -2.682118 -0.912040
v 2.800845 -2.675744 -0.742877
v 2.769555 -2.658244 -1.193071
v 2.837476 -2.634757 -0.713216
v 2.797686 -2.626614 -1.191532
v 2.810322 -2.602865 -1.221893
v 2.792350 -2.565066 -1.217519
v 2.815871 -2.604054 -0.918864
v 2.779814 -2.665471 -0.961054
v 2.749191 -2.679423 -0.940998
v 2.743140 -2.558727 -0.979520
v 2.749725 -2.551698 -1.214060
v 2.738147 -2.596344 -0.722885
v 2.732248 -2.626438 -0.748248
v 2.695845 -2.609647 -1.209834
v 2.821351 -2.672455 -0.719897
v 2.795322 -2.647221 -1.222994
v 2.779253 -2.576331 -0.706857
v 2.757095 -2.590727 -0.737480
v 2.724519 -2.560436 -1.215252
v 2.709628 -2.579101 -1.197093
v 2.721426 -2.659251 -1.102409
v 2.735516 -2.652752 -1.187919
v 2.798932 -2.567671 -1.080146
v 2.805175 -2.594173 -1.047475
v 2.782231 -2.574822 -0.951473
v 2.729666 -2.608236 -0.702484
v 2.718617 -2.600007 -1.041586
v 2.719409 -2.575269 -1.025622
v 2.758596 -2.561345 -0.988270
v 2.756621 -2.587049 -0.829512
v 2.714391 -2.622394 -0.858156
v 2.713706 -2.635205 -1.002990
v 2.720686 -2.645993 -0.800808
v 2.752806 -2.672864 -0.743430
v 2.795138 -2.679706 -0.834226
v 2.819435 -2.603778 -1.049149
v 2.817337 -2.594939 -0.726352
v 2.815624 -2.636853 -0.978713
v 2.800981 -2.661829 -0.998698
v 2.754757 -2.665780 -1.198466
vn -0.7672 0.6407 0.0294
vn -0.9838 -0.1704 0.0556
vn 0.9831 0.1777 -0.0437
vn 0.5565 0.8305 -0.0250
vn 0.5436 -0.8363 -0.0716
vn -0.3283 0.9444 0.0191
vn 0.1859 0.9820 0.0346
vn -0.9984 -0.0049 0.0571
vn -0.8171 0.5558 0.1532
vn -0.8285 -0.5552 0.0731
vn -0.6996 -0.7136 0.0365
vn -0.0815 -0.9946 -0.0642
vn 0.4672 -0.8829 -0.0482
vn 0.4553 -0.8903 0.0102
vn 0.8794 -0.4731 -0.0530
vn 0.9216 -0.3813 -0.0728
vn 0.1171 0.9906 0.0703
vn 0.4435 0.8962 0.0109
vn 0.9986 0.0109 -0.0526
vn 0.8957 0.4438 -0.0278
vn 0.7432 0.6687 0.0217
vn 0.8539 0.5195 -0.0311
vn 0.9819 0.1860 -0.0367
vn 0.1075 -0.9936 -0.0357
vn 0.3229 -0.9439 -0.0696
vn -0.0601 -0.9967 -0.0541
vn -0.8339 -0.5518 0.0150
vn -0.9221 0.3729 0.1034
vn -0.6273 0.7775 0.0439
vn -0.3186 -0.0428 0.9469
vn -0.0168 -0.1963 -0.9804
vn -0.7814 0.6174 0.0902
vn 0.9964 0.0130 -0.0834
vn -0.8697 -0.4933 0.0141
vn 0.2511 0.9550 0.1577
vn -0.7480 0.6606 0.0634
vn -0.2250 0.9709 0.0815
vn 0.1082 0.9934 0.0391
vn -0.7767 0.6026 0.1836
vn -0.7793 0.6253 0.0406
vn -0.9981 -0.0076 0.0613
vn -0.8858 -0.4462 0.1275
vn -0.9326 -0.3590 0.0362
vn -0.9923 -0.1050 0.0657
vn -0.8369 -0.5474 -0.0003
vn -0.9732 -0.2205 0.0657
vn 0.2995 0.9541 0.0037
vn -0.1432 -0.9848 -0.0984
vn -0.4776 -0.8666 -0.1446
vn -0.7852 -0.6182 0.0349
vn -0.0866 -0.9956 -0.0370
vn 0.6953 -0.7150 -0.0725
vn 0.2073 -0.9773 -0.0425
vn 0.5213 -0.8388 -0.1571
vn 0.1192 -0.9922 0.0356
vn -0.0225 -0.9938 -0.1088
vn 0.8870 -0.4543 -0.0821
vn 0.4820 0.8761 0.0113
vn 0.5599 0.8284 0.0171
vn 0.9033 0.4289 0.0053
vn 0.3714 0.9231 0.0995
vn 0.9229 -0.3782 -0.0730
vn 0.8224 -0.5607 -0.0963
vn -0.5805 -0.8123 -0.0556
vn 0.5758 0.5037 0.6440
vn 0.1828 0.8144 0.5507
vn -0.5088 -0.5766 0.6392
vn -0.7446 0.2060 0.6350
vn 0.0494 0.9050 0.4225
vn 0.8468 0.4126 0.3357
vn 0.7455 -0.6038 0.2822
vn 0.8470 0.4102 0.3380
vn -0.0431 -0.5601 0.8273
vn -0.3197 -0.0626 0.9454
vn -0.5357 -0.8421 0.0629
vn 0.6561 0.0186 -0.7544
vn 0.2956 -0.7768 -0.5561
vn -0.0524 0.0902 -0.9945
vn -0.6882 0.6296 -0.3607
vn -0.5392 -0.5396 -0.6466
vn -0.3688 -0.0354 -0.9288
vn 0.1640 0.3408 -0.9257
vn 0.2202 -0.1489 -0.9640
vn -0.5786 0.8149 0.0355
vn -0.8685 0.4941 0.0403
vn -0.9784 -0.2055 0.0228
vn -0.8946 -0.4468 -0.0052
vn 0.2271 0.9733 0.0327
s 0
usemtl Bark
f 25//1 26//1 34//1
f 4//2 3//2 27//2
f 12//3 29//3 30//3
f 42//4 11//4 30//4
f 45//5 21//5 41//5
f 17//6 25//6 16//6
f 35//7 17//7 16//7
f 34//8 26//8 33//8
f 19//9 37//9 1//9
f 4//10 27//10 15//10
f 40//11 15//11 5//11
f 4//12 40//12 2//12
f 46//13 8//13 14//13
f 41//14 7//14 5//14
f 45//15 22//15 44//15
f 21//16 44//16 9//16
f 29//17 31//17 43//17
f 43//18 31//18 23//18
f 11//19 42//19 9//19
f 13//20 43//20 9//20
f 9//21 42//21 13//21
f 13//22 30//22 43//22
f 30//23 29//23 43//23
f 8//24 45//24 14//24
f 8//25 22//25 45//25
f 46//26 6//26 15//26
f 3//27 4//27 38//27
f 33//28 26//28 20//28
f 16//29 25//29 34//29
f 19//30 40//30 9//30
f 3//31 17//31 8//31
f 36//32 23//32 35//32
f 44//33 22//33 10//33
f 38//34 20//34 3//34
f 35//35 16//35 36//35
f 37//36 33//36 20//36
f 24//37 34//37 18//37
f 24//38 36//38 34//38
f 36//39 16//39 34//39
f 18//40 33//40 32//40
f 18//41 34//41 33//41
f 32//42 37//42 19//42
f 38//43 37//43 20//43
f 37//44 39//44 1//44
f 4//45 39//45 38//45
f 1//46 39//46 2//46
f 17//47 29//47 12//47
f 27//48 28//48 15//48
f 3//49 28//49 27//49
f 4//50 15//50 40//50
f 5//51 15//51 6//51
f 6//52 46//52 14//52
f 6//53 41//53 5//53
f 6//54 14//54 41//54
f 7//55 41//55 21//55
f 41//56 14//56 45//56
f 45//57 44//57 21//57
f 31//58 35//58 23//58
f 42//59 30//59 13//59
f 11//60 12//60 30//60
f 31//61 29//61 35//61
f 44//62 11//62 9//62
f 10//63 11//63 44//63
f 15//64 28//64 46//64
f 9//65 43//65 23//65
f 24//66 18//66 32//66
f 9//67 23//67 24//67
f 7//68 21//68 9//68
f 40//69 5//69 7//69
f 1//70 2//70 40//70
f 24//71 32//71 19//71
f 19//72 1//72 40//72
f 40//73 7//73 9//73
f 9//74 24//74 19//74
f 46//75 28//75 3//75
f 3//76 20//76 26//76
f 26//77 25//77 17//77
f 17//78 12//78 11//78
f 10//79 22//79 8//79
f 17//80 11//80 10//80
f 3//81 26//81 17//81
f 8//82 46//82 3//82
f 17//83 10//83 8//83
f 36//84 24//84 23//84
f 37//85 32//85 33//85
f 38//86 39//86 37//86
f 4//87 2//87 39//87
f 17//88 35//88 29//88
