# Blender 4.1.1
# www.blender.org
mtllib Plane.027_Plane.019.mtl
o Plane.027_Plane.019
v -13.700949 4.527073 3.666835
v -13.770720 3.992295 3.715220
v -13.709267 4.515406 3.525889
v -13.779037 3.980627 3.574274
v -13.695520 4.594745 3.589713
v -13.773101 4.237056 3.695100
v -13.774879 3.986463 3.644749
v -13.781420 4.225389 3.554153
v -13.789252 4.299127 3.619716
v -13.577070 4.345942 3.315124
v -13.584710 3.806520 3.361631
v -13.435978 4.345040 3.327875
v -13.443620 3.805620 3.374382
v -13.505475 4.419633 3.315107
v -13.578244 4.045864 3.306942
v -13.514165 3.806070 3.368006
v -13.437151 4.044963 3.319693
v -13.504921 4.109324 3.287111
v -13.128163 4.464227 3.606841
v -13.086812 3.932265 3.699052
v -13.164880 4.484822 3.742116
v -13.123528 3.952857 3.834324
v -13.152204 4.547641 3.661805
v -13.072589 4.175203 3.665927
v -13.105168 3.942563 3.766688
v -13.109303 4.195796 3.801199
v -13.076054 4.252722 3.727370
v -13.938897 4.657379 4.176171
v -13.992221 4.120122 4.217476
v -14.045007 4.674999 4.268373
v -14.098328 4.137740 4.309678
v -13.984623 4.740034 4.216594
v -13.945947 4.361213 4.224654
v -14.045275 4.128932 4.263576
v -14.052056 4.378833 4.316856
v -13.978944 4.435326 4.281362
v -13.239631 4.484934 3.650141
v -13.251216 3.948570 3.723454
v -13.344141 4.474202 3.555097
v -13.355726 3.937836 3.628411
v -13.290294 4.553290 3.592540
v -13.269000 4.193388 3.715359
v -13.303473 3.943204 3.675933
v -13.373507 4.182657 3.620316
v -13.333811 4.255724 3.674000
v -13.543043 4.613045 4.178513
v -13.598038 4.083305 4.276215
v -13.502284 4.584358 4.045902
v -13.557279 4.054615 4.143601
v -13.515107 4.671514 4.098779
v -13.605774 4.322728 4.222043
v -13.577658 4.068960 4.209908
v -13.565016 4.294038 4.089428
v -13.598411 4.373805 4.137581
v -13.968086 4.515059 3.292793
v -14.023081 3.985319 3.390498
v -14.050832 4.544169 3.404045
v -14.105825 4.014426 3.501747
v -14.001902 4.602425 3.334990
v -13.970944 4.224144 3.366786
v -14.064454 3.999871 3.446123
v -14.053691 4.253251 3.478035
v -13.988949 4.303758 3.422771
vn 0.9968 0.0508 0.0620
vn 0.9467 -0.2849 0.1503
vn 0.9254 -0.3148 -0.2111
vn 0.9822 0.0303 -0.1855
vn -0.2085 0.2580 0.9434
vn -0.2696 -0.0870 0.9590
vn 0.0922 -0.0893 0.9917
vn 0.0393 0.2564 0.9658
vn -0.9217 0.0376 -0.3861
vn -0.8718 -0.3095 -0.3797
vn -0.9659 -0.2567 -0.0329
vn -0.9861 0.0737 -0.1486
vn -0.5300 0.1630 -0.8322
vn -0.5153 -0.1874 -0.8363
vn -0.7874 -0.1422 -0.5999
vn -0.7163 0.1940 -0.6703
vn 0.7548 0.0692 -0.6523
vn 0.7835 -0.2680 -0.5606
vn 0.5156 -0.2956 -0.8042
vn 0.5712 0.0504 -0.8192
vn 0.9122 0.1523 0.3803
vn 0.8521 -0.1741 0.4936
vn 0.9566 -0.2477 0.1535
vn 0.9838 0.1020 0.1475
vn -0.6966 0.1187 -0.7076
vn -0.6911 -0.2312 -0.6848
vn -0.9032 -0.1566 -0.3996
vn -0.8419 0.1698 -0.5122
vn 0.9982 0.0048 -0.0593
vn 0.9225 -0.1971 0.3319
vn 0.8792 -0.2578 -0.4006
vn -0.0863 0.2241 0.9707
vn -0.4505 -0.0226 0.8925
vn 0.2829 -0.0272 0.9588
vn -0.9641 0.0203 -0.2648
vn -0.7859 -0.2653 -0.5585
vn -0.9768 -0.1583 0.1446
vn -0.6353 0.1445 -0.7586
vn -0.3399 -0.1440 -0.9294
vn -0.8914 -0.0525 -0.4501
vn -0.6352 0.1445 -0.7587
vn 0.6712 0.0243 -0.7408
vn 0.8927 -0.1821 -0.4122
vn 0.3495 -0.2379 -0.9062
vn 0.9572 0.0929 0.2741
vn 0.7631 -0.0685 0.6427
vn 0.9749 -0.2176 -0.0466
vn -0.7835 0.1103 -0.6116
vn -0.5396 -0.2025 -0.8172
vn -0.9697 -0.0513 -0.2390
s 0
usemtl Material.001
f 7//1 8//1 9//1
f 9//2 3//2 5//2
f 1//3 9//3 5//3
f 6//4 7//4 9//4
f 16//5 17//5 18//5
f 18//6 12//6 14//6
f 10//7 18//7 14//7
f 15//8 16//8 18//8
f 25//9 26//9 27//9
f 27//10 21//10 23//10
f 19//11 27//11 23//11
f 24//12 25//12 27//12
f 34//13 35//13 36//13
f 36//14 30//14 32//14
f 28//15 36//15 32//15
f 33//16 34//16 36//16
f 43//17 44//17 45//17
f 45//18 39//18 41//18
f 37//19 45//19 41//19
f 42//20 43//20 45//20
f 52//21 53//21 54//21
f 54//22 48//22 50//22
f 46//23 54//23 50//23
f 51//24 52//24 54//24
f 61//25 62//25 63//25
f 63//26 57//26 59//26
f 55//27 63//27 59//27
f 60//28 61//28 63//28
f 7//29 4//29 8//29
f 9//30 8//30 3//30
f 1//31 6//31 9//31
f 6//29 2//29 7//29
f 16//32 13//32 17//32
f 18//33 17//33 12//33
f 10//34 15//34 18//34
f 15//32 11//32 16//32
f 25//35 22//35 26//35
f 27//36 26//36 21//36
f 19//37 24//37 27//37
f 24//35 20//35 25//35
f 34//38 31//38 35//38
f 36//39 35//39 30//39
f 28//40 33//40 36//40
f 33//41 29//41 34//41
f 43//42 40//42 44//42
f 45//43 44//43 39//43
f 37//44 42//44 45//44
f 42//42 38//42 43//42
f 52//45 49//45 53//45
f 54//46 53//46 48//46
f 46//47 51//47 54//47
f 51//45 47//45 52//45
f 61//48 58//48 62//48
f 63//49 62//49 57//49
f 55//50 60//50 63//50
f 60//48 56//48 61//48
