# Blender 4.1.1
# www.blender.org
mtllib Plane.027_Plane.019.mtl
o Plane.027_Plane.019
v -5.173995 -2.159681 -0.743216
v -5.199559 -2.141953 -0.547272
v -5.177043 -2.211324 -0.738941
v -5.202607 -2.193596 -0.542997
v -5.172006 -2.187939 -0.768011
v -5.200432 -2.149325 -0.636953
v -5.201083 -2.167774 -0.545135
v -5.203480 -2.200968 -0.632678
v -5.206350 -2.176946 -0.659696
v -5.128606 -2.288549 -0.676849
v -5.131405 -2.271509 -0.479204
v -5.076909 -2.283877 -0.676519
v -5.079709 -2.266837 -0.478874
v -5.102373 -2.288555 -0.703850
v -5.129036 -2.291547 -0.566900
v -5.105557 -2.269173 -0.479039
v -5.077339 -2.286875 -0.566570
v -5.102170 -2.298813 -0.590152
v -4.964125 -2.181663 -0.720189
v -4.948974 -2.147877 -0.525277
v -4.977578 -2.132098 -0.727735
v -4.962427 -2.098313 -0.532822
v -4.972934 -2.161524 -0.750752
v -4.943763 -2.160014 -0.614290
v -4.955700 -2.123095 -0.529050
v -4.957215 -2.110450 -0.621835
v -4.945032 -2.137501 -0.642693
v -5.261180 -1.973059 -0.790960
v -5.280718 -1.957925 -0.594108
v -5.300059 -1.939276 -0.797416
v -5.319596 -1.924142 -0.600563
v -5.277934 -1.958248 -0.821245
v -5.263763 -1.955295 -0.682444
v -5.300157 -1.941034 -0.597336
v -5.302642 -1.921512 -0.688900
v -5.275853 -1.934517 -0.709599
v -5.004967 -2.165798 -0.727776
v -5.009212 -2.138936 -0.531251
v -5.043260 -2.200622 -0.723844
v -5.047505 -2.173760 -0.527318
v -5.023530 -2.186903 -0.752822
v -5.015728 -2.141902 -0.620953
v -5.028359 -2.156348 -0.529285
v -5.054020 -2.176726 -0.617021
v -5.039475 -2.157056 -0.643793
v -5.116138 -1.972201 -0.774716
v -5.136288 -1.936403 -0.580618
v -5.101204 -2.020790 -0.764205
v -5.121354 -1.984993 -0.570106
v -5.105902 -2.001416 -0.796139
v -5.139123 -1.956252 -0.668343
v -5.128821 -1.960698 -0.575362
v -5.124189 -2.004842 -0.657831
v -5.136425 -1.987199 -0.687058
v -5.271875 -2.296731 -0.738814
v -5.292025 -2.260932 -0.544716
v -5.302193 -2.255968 -0.749480
v -5.322343 -2.220170 -0.555381
v -5.284265 -2.281270 -0.770825
v -5.272922 -2.269620 -0.632222
v -5.307184 -2.240551 -0.550048
v -5.303241 -2.228858 -0.642887
v -5.279519 -2.249107 -0.661393
vn 0.9968 0.0620 -0.0508
vn 0.9467 0.1503 0.2849
vn 0.9254 -0.2111 0.3148
vn 0.9822 -0.1855 -0.0303
vn -0.2085 0.9434 -0.2580
vn -0.2696 0.9590 0.0870
vn 0.0921 0.9917 0.0893
vn 0.0393 0.9658 -0.2564
vn -0.9217 -0.3861 -0.0376
vn -0.8718 -0.3797 0.3095
vn -0.9659 -0.0329 0.2567
vn -0.9861 -0.1486 -0.0737
vn -0.5300 -0.8322 -0.1630
vn -0.5153 -0.8363 0.1874
vn -0.7873 -0.5999 0.1422
vn -0.7163 -0.6703 -0.1940
vn 0.7548 -0.6523 -0.0692
vn 0.7835 -0.5606 0.2680
vn 0.5156 -0.8042 0.2956
vn 0.5713 -0.8192 -0.0504
vn 0.9122 0.3803 -0.1523
vn 0.8521 0.4936 0.1741
vn 0.9566 0.1535 0.2477
vn 0.9838 0.1474 -0.1020
vn -0.6966 -0.7076 -0.1187
vn -0.6911 -0.6848 0.2312
vn -0.9032 -0.3996 0.1566
vn -0.8419 -0.5122 -0.1698
vn 0.9982 -0.0593 -0.0048
vn 0.9225 0.3319 0.1972
vn 0.8792 -0.4006 0.2578
vn -0.0863 0.9707 -0.2241
vn -0.4505 0.8925 0.0226
vn 0.2829 0.9588 0.0272
vn -0.9641 -0.2648 -0.0203
vn -0.7859 -0.5585 0.2653
vn -0.9768 0.1446 0.1582
vn -0.6353 -0.7586 -0.1445
vn -0.3399 -0.9294 0.1440
vn -0.8914 -0.4501 0.0525
vn -0.6352 -0.7587 -0.1445
vn 0.6712 -0.7408 -0.0243
vn 0.8927 -0.4122 0.1821
vn 0.3495 -0.9062 0.2379
vn 0.9572 0.2741 -0.0929
vn 0.7630 0.6427 0.0685
vn 0.9749 -0.0466 0.2177
vn 0.9572 0.2741 -0.0930
vn -0.7835 -0.6116 -0.1103
vn -0.5396 -0.8172 0.2025
vn -0.9697 -0.2390 0.0512
s 0
usemtl Material.001
f 7//1 8//1 9//1
f 9//2 3//2 5//2
f 1//3 9//3 5//3
f 6//4 7//4 9//4
f 16//5 17//5 18//5
f 18//6 12//6 14//6
f 10//7 18//7 14//7
f 15//8 16//8 18//8
f 25//9 26//9 27//9
f 27//10 21//10 23//10
f 19//11 27//11 23//11
f 24//12 25//12 27//12
f 34//13 35//13 36//13
f 36//14 30//14 32//14
f 28//15 36//15 32//15
f 33//16 34//16 36//16
f 43//17 44//17 45//17
f 45//18 39//18 41//18
f 37//19 45//19 41//19
f 42//20 43//20 45//20
f 52//21 53//21 54//21
f 54//22 48//22 50//22
f 46//23 54//23 50//23
f 51//24 52//24 54//24
f 61//25 62//25 63//25
f 63//26 57//26 59//26
f 55//27 63//27 59//27
f 60//28 61//28 63//28
f 7//29 4//29 8//29
f 9//30 8//30 3//30
f 1//31 6//31 9//31
f 6//29 2//29 7//29
f 16//32 13//32 17//32
f 18//33 17//33 12//33
f 10//34 15//34 18//34
f 15//32 11//32 16//32
f 25//35 22//35 26//35
f 27//36 26//36 21//36
f 19//37 24//37 27//37
f 24//35 20//35 25//35
f 34//38 31//38 35//38
f 36//39 35//39 30//39
f 28//40 33//40 36//40
f 33//41 29//41 34//41
f 43//42 40//42 44//42
f 45//43 44//43 39//43
f 37//44 42//44 45//44
f 42//42 38//42 43//42
f 52//45 49//45 53//45
f 54//46 53//46 48//46
f 46//47 51//47 54//47
f 51//48 47//48 52//48
f 61//49 58//49 62//49
f 63//50 62//50 57//50
f 55//51 60//51 63//51
f 60//49 56//49 61//49
