# Blender 4.1.1
# www.blender.org
mtllib Cube.043_Cube.047.mtl
o Cube.043_Cube.047
v 0.937414 2.975615 -0.787856
v 0.911594 3.035317 -0.787283
v 0.910802 3.037775 -1.278428
v 0.863469 2.939734 -0.784660
v 0.835279 3.004496 -1.281382
v 0.937268 2.975705 -1.033984
v 0.919007 3.037892 -1.052419
v 0.926125 3.003735 -0.779465
v 0.854172 3.013619 -1.288270
v 0.832186 3.005584 -1.033984
v 0.874191 3.016762 -0.777474
v 0.857531 2.943296 -1.033984
v 0.902090 2.955209 -0.785098
v 0.886899 2.993177 -1.304783
v 0.901821 2.953092 -1.033984
v 0.842466 2.973963 -1.033984
v 0.869440 3.035957 -1.033984
v 0.927665 3.012447 -1.033984
v 0.935588 2.982379 -1.291351
v 0.908504 3.037367 -0.913164
v 0.830977 3.009820 -0.913164
v 0.886590 3.041555 -0.784673
v 0.859736 2.947974 -1.287817
v 0.863146 2.946794 -0.913164
v 0.836674 3.000745 -0.778199
v 0.882320 2.948908 -0.786541
v 0.941312 2.980081 -0.913164
v 0.924513 3.006932 -1.288701
v 0.920666 3.042210 -1.155265
v 0.889016 3.028210 -1.300274
v 0.832115 3.006962 -1.154805
v 0.853833 3.013606 -0.785619
v 0.857551 2.947228 -1.154805
v 0.915937 2.972404 -1.290021
v 0.872325 2.972513 -0.784660
v 0.895139 2.961181 -0.913164
v 0.882588 2.953471 -1.033984
v 0.916892 2.968523 -1.033984
v 0.845598 2.986018 -0.904203
v 0.842272 2.991147 -1.033984
v 0.850834 2.964052 -1.033984
v 0.868753 3.029169 -0.913164
v 0.875070 3.026672 -1.154987
v 0.891652 3.031196 -1.033984
v 0.856093 3.011917 -1.033984
v 0.929898 3.013186 -1.155118
v 0.930867 2.990397 -1.033984
v 0.923164 3.024680 -1.156123
v 0.930713 2.996929 -1.154844
v 0.939561 2.997276 -0.913164
v 0.850607 3.028690 -1.155099
v 0.903294 3.039243 -1.156101
v 0.893029 3.034181 -0.913164
v 0.848594 2.976206 -1.179667
v 0.841934 2.997847 -1.154805
v 0.904863 2.968094 -1.170604
v 0.877089 2.958458 -1.154870
v 0.875039 2.957913 -0.913164
v 0.905103 2.998243 -0.787527
v 0.840182 2.993105 -1.282659
v 0.896529 2.978567 -1.285617
v 0.915593 3.023672 -1.303186
v 0.912163 2.970403 -0.913164
v 0.852737 2.963735 -0.913164
v 0.851377 3.027666 -0.913164
v 0.924333 3.016471 -0.900050
vn 0.8001 0.5998 -0.0099
vn -0.8517 -0.5233 -0.0266
vn 0.4903 -0.5566 -0.6707
vn -0.3060 -0.0513 -0.9506
vn 0.2140 -0.1654 0.9627
vn 0.7992 0.5989 0.0514
vn -0.7634 -0.6446 -0.0420
vn -0.9510 -0.3088 -0.0174
vn -0.9471 -0.3200 0.0248
vn -0.8522 -0.5232 0.0008
vn 0.7141 -0.6974 -0.0607
vn 0.4531 -0.8914 0.0099
vn 0.1141 -0.0308 0.9930
vn -0.0417 -0.0969 0.9944
vn -0.1418 0.2397 -0.9604
vn -0.0258 0.1025 -0.9944
vn 0.4815 -0.4126 -0.7733
vn -0.9496 -0.3127 0.0209
vn 0.9436 0.3309 0.0135
vn 0.3071 -0.9497 -0.0610
vn 0.3150 -0.9488 -0.0240
vn 0.0966 0.8728 -0.4785
vn -0.2400 -0.8264 -0.5094
vn 0.3571 0.0914 0.9296
vn -0.0197 -0.9990 -0.0403
vn 0.3335 -0.9424 -0.0266
vn -0.9999 -0.0113 0.0022
vn -0.9161 -0.4004 -0.0181
vn -0.9516 -0.3071 -0.0102
vn -0.8825 0.4639 0.0778
vn 0.2091 0.9757 -0.0651
vn -0.2560 0.9666 0.0112
vn 0.9986 0.0504 0.0187
vn 0.8636 0.5033 -0.0295
vn 0.9899 0.1400 0.0218
vn 0.8985 0.4362 -0.0492
vn 0.9859 0.1446 -0.0842
vn 0.9166 0.3993 0.0204
vn 0.9330 0.3516 0.0768
vn 0.9110 0.4122 -0.0114
vn 0.9979 0.0493 -0.0425
vn 0.9919 0.1010 -0.0771
vn 0.7837 0.6212 0.0008
vn -0.8693 0.4827 0.1062
vn -0.7614 0.6476 -0.0316
vn 0.0822 0.9905 -0.1099
vn -0.2092 0.9769 0.0444
vn -0.3730 0.9272 -0.0340
vn -0.4076 0.9128 -0.0255
vn 0.2375 0.9704 -0.0438
vn -0.2016 0.9792 -0.0219
vn 0.2093 0.9763 0.0560
vn -0.8194 -0.5725 -0.0295
vn -0.9171 -0.3985 0.0095
vn -0.9171 -0.3978 0.0273
vn -0.8523 -0.5231 0.0012
vn 0.3757 -0.9251 -0.0553
vn -0.9996 -0.0113 0.0252
vn 0.3992 -0.9166 0.0202
vn 0.6801 -0.7275 -0.0908
vn 0.3258 -0.9454 -0.0039
vn 0.6813 -0.7287 0.0694
vn -0.0196 -0.9976 0.0657
vn 0.0456 0.0531 0.9975
vn -0.3708 0.0588 0.9268
vn 0.0979 -0.0237 0.9949
vn -0.1945 0.0857 -0.9771
vn -0.2479 -0.3671 0.8965
vn -0.4239 0.1408 -0.8947
vn -0.3273 -0.0350 -0.9443
vn 0.2928 0.1538 0.9437
vn -0.5758 0.8138 0.0790
vn -0.0856 0.1323 -0.9875
vn 0.4955 -0.8663 -0.0638
vn -0.3498 -0.1358 0.9269
vn 0.7149 -0.6982 0.0388
vn 0.3150 -0.9488 0.0238
vn -0.7641 -0.6451 0.0103
vn -0.8507 -0.5227 0.0547
vn -0.0856 0.9901 0.1108
vn -0.0854 0.9876 -0.1321
vn -0.2559 0.9660 -0.0364
vn 0.9050 0.4242 0.0313
vn 0.7769 0.6267 0.0610
vn 0.1600 -0.9839 -0.0792
vn 0.2757 -0.9561 -0.0989
vn 0.3323 -0.9428 -0.0263
vn -0.9681 -0.2468 -0.0445
vn -0.9527 -0.3036 -0.0107
vn -0.2018 0.9772 -0.0662
vn -0.4061 0.9136 0.0215
vn -0.7549 0.6441 0.1234
vn 0.9896 0.1437 0.0065
vn 0.9421 0.3346 0.0194
vn 0.8636 0.5009 -0.0583
vn 0.9157 0.3987 -0.0499
vn 0.9528 0.3037 0.0017
vn 0.9943 0.1012 0.0345
vn 0.9158 0.3990 -0.0451
vn 0.9865 0.1433 -0.0791
vn 0.0823 0.9940 -0.0724
vn -0.4649 0.8783 -0.1118
vn -0.1700 0.9847 0.0386
vn -0.1673 0.9857 -0.0221
vn -0.3952 0.9181 -0.0311
vn -0.2016 0.9792 0.0209
vn -0.2472 0.9688 -0.0150
vn -0.2021 0.9791 -0.0219
vn -0.6803 -0.7329 -0.0080
vn -0.6803 -0.7329 -0.0027
vn -0.8197 -0.5727 0.0119
vn 0.4981 -0.8667 -0.0281
vn 0.4983 -0.8670 0.0033
vn 0.4330 -0.9000 -0.0505
vn 0.3762 -0.9265 0.0093
vn 0.1603 -0.9860 0.0463
vn 0.0473 0.0530 0.9975
vn -0.0990 0.0625 -0.9931
vn 0.1475 -0.0399 0.9883
vn -0.6554 0.7492 0.0952
vn 0.4753 -0.8773 -0.0667
vn 0.4746 -0.8761 0.0849
vn 0.3323 -0.9428 0.0277
vn -0.9446 -0.3239 0.0529
vn -0.9516 -0.3070 0.0142
vn -0.1902 0.9769 0.0970
vn -0.8741 0.4853 0.0223
vn -0.6534 0.7469 -0.1229
s 0
usemtl Fence
f 20//1 2//1 66//1
f 24//2 4//2 64//2
f 14//3 28//3 61//3
f 60//4 9//4 30//4
f 59//5 11//5 35//5
f 66//6 8//6 50//6
f 54//7 41//7 16//7
f 23//8 33//8 54//8
f 60//9 54//9 55//9
f 39//10 25//10 21//10
f 56//11 38//11 15//11
f 34//12 19//12 56//12
f 35//13 4//13 26//13
f 13//14 35//14 26//14
f 23//15 61//15 34//15
f 60//16 61//16 23//16
f 14//17 62//17 28//17
f 64//18 4//18 39//18
f 7//19 66//19 18//19
f 26//20 36//20 13//20
f 63//21 27//21 1//21
f 30//22 3//22 62//22
f 60//23 14//23 61//23
f 59//24 22//24 11//24
f 57//25 15//25 37//25
f 6//26 56//26 19//26
f 55//27 16//27 40//27
f 39//28 4//28 25//28
f 41//29 33//29 12//29
f 22//30 42//30 11//30
f 44//31 43//31 17//31
f 45//32 31//32 10//32
f 18//33 49//33 46//33
f 7//34 46//34 48//34
f 48//35 29//35 7//35
f 48//36 28//36 62//36
f 48//37 3//37 29//37
f 6//38 49//38 47//38
f 1//39 50//39 8//39
f 19//40 28//40 49//40
f 28//41 46//41 49//41
f 27//42 47//42 50//42
f 50//43 18//43 66//43
f 17//44 51//44 45//44
f 51//45 5//45 31//45
f 9//46 51//46 43//46
f 7//47 52//47 44//47
f 52//48 3//48 30//48
f 52//49 9//49 43//49
f 2//50 53//50 22//50
f 20//51 44//51 53//51
f 42//52 44//52 17//52
f 10//53 55//53 40//53
f 60//54 23//54 54//54
f 55//55 5//55 60//55
f 21//56 40//56 39//56
f 12//57 57//57 37//57
f 40//58 16//58 39//58
f 57//59 23//59 34//59
f 26//60 24//60 58//60
f 34//61 56//61 57//61
f 24//62 37//62 58//62
f 36//63 37//63 15//63
f 13//64 59//64 35//64
f 8//65 2//65 59//65
f 2//66 22//66 59//66
f 28//67 34//67 61//67
f 1//68 8//68 59//68
f 60//69 30//69 14//69
f 60//70 5//70 9//70
f 25//71 35//71 32//71
f 32//72 21//72 25//72
f 14//73 30//73 62//73
f 13//74 63//74 1//74
f 11//75 32//75 35//75
f 63//76 15//76 38//76
f 63//77 6//77 27//77
f 64//78 16//78 41//78
f 64//79 12//79 24//79
f 32//80 42//80 65//80
f 42//81 45//81 65//81
f 21//82 45//82 10//82
f 66//83 2//83 8//83
f 7//84 20//84 66//84
f 26//85 58//85 36//85
f 57//86 56//86 15//86
f 6//87 38//87 56//87
f 55//88 54//88 16//88
f 41//89 54//89 33//89
f 22//90 53//90 42//90
f 44//91 52//91 43//91
f 45//92 51//92 31//92
f 18//93 47//93 49//93
f 7//94 18//94 46//94
f 48//95 46//95 28//95
f 48//96 62//96 3//96
f 6//97 19//97 49//97
f 1//98 27//98 50//98
f 27//99 6//99 47//99
f 50//100 47//100 18//100
f 17//101 43//101 51//101
f 51//102 9//102 5//102
f 7//103 29//103 52//103
f 52//104 29//104 3//104
f 52//105 30//105 9//105
f 2//106 20//106 53//106
f 20//107 7//107 44//107
f 42//108 53//108 44//108
f 10//109 31//109 55//109
f 55//110 31//110 5//110
f 21//111 10//111 40//111
f 12//112 33//112 57//112
f 57//113 33//113 23//113
f 26//114 4//114 24//114
f 24//115 12//115 37//115
f 36//116 58//116 37//116
f 13//117 1//117 59//117
f 28//118 19//118 34//118
f 25//119 4//119 35//119
f 32//120 65//120 21//120
f 13//121 36//121 63//121
f 63//122 36//122 15//122
f 63//123 38//123 6//123
f 64//124 39//124 16//124
f 64//125 41//125 12//125
f 32//126 11//126 42//126
f 42//127 17//127 45//127
f 21//128 65//128 45//128
