# Blender 4.1.1
# www.blender.org
mtllib arrow.mtl
o arrow
v 0.060450 0.064841 -0.291200
v 0.060450 0.064841 -0.356579
v 0.227850 0.048227 -0.440000
v 0.060450 0.064841 -0.523421
v 0.060450 0.064841 -0.588800
v 0.227850 0.031613 -0.440000
v 0.060450 0.015000 -0.291200
v -0.227850 0.015000 -0.333050
v 0.060450 0.015000 -0.356579
v -0.227850 0.015000 -0.546950
v 0.060450 0.015000 -0.523421
v 0.060450 0.015000 -0.588800
v -0.227850 0.064841 -0.333050
v -0.227850 0.064841 -0.546950
v 0.035000 0.035000 0.000000
v -0.035000 0.035000 0.000000
v 0.025550 0.025550 -0.600000
v -0.025550 0.025550 -0.600000
v -0.035000 -0.035000 0.000000
v -0.025550 -0.025550 -0.600000
v 0.035000 -0.035000 0.000000
v 0.025550 -0.025550 -0.600000
vn 0.0988 0.9951 -0.0000
vn 0.0648 0.9979 -0.0000
vn 0.6644 -0.0000 0.7474
vn -0.0000 -1.0000 -0.0000
vn 0.0648 -0.9979 -0.0000
vn 0.6644 -0.0000 -0.7474
vn -1.0000 -0.0000 -0.0000
vn -0.0000 1.0000 -0.0000
vn 0.0813 -0.0000 -0.9967
vn 0.0988 -0.9951 -0.0000
vn 0.0813 -0.0000 0.9967
vn -0.0000 0.9999 -0.0157
vn -0.9999 -0.0000 -0.0157
vn -0.0000 -0.0000 1.0000
vn 0.9999 -0.0000 -0.0157
vn -0.0000 -0.0000 -1.0000
vn -0.0000 -0.9999 -0.0157
vt 8.739103 17.322830
vt 2.116175 14.038540
vt 2.116175 11.464570
vt 2.116175 20.607130
vt 2.116175 23.181101
vt -1.898701 18.213280
vt -0.590551 9.395419
vt -1.244626 18.213280
vt -2.552779 9.395419
vt 8.970472 21.533461
vt -2.379921 14.038540
vt 8.970472 13.112200
vt -2.379921 20.607130
vt -0.590551 13.621910
vt -1.898701 4.804050
vt -1.244626 4.804050
vt -2.552779 13.621910
vt 2.552779 13.112200
vt 0.590551 21.533461
vt 0.590551 13.112200
vt 2.552779 21.533461
vt 2.379921 14.038540
vt -8.970472 21.533461
vt -8.970472 13.112200
vt 2.379921 20.607130
vt -0.590551 10.692330
vt -2.552779 -0.695800
vt -0.590551 -0.695800
vt -2.552779 10.692330
vt 2.552779 11.464570
vt 0.590551 14.038540
vt 0.590551 11.464570
vt 2.552779 14.038540
vt -2.426609 14.038540
vt -9.049538 17.322830
vt -2.426609 11.464570
vt -2.426609 20.607130
vt -2.426609 23.181101
vt -2.552779 3.513959
vt -0.590551 -7.874172
vt -0.590551 3.513959
vt -2.552779 -7.874172
vt 2.552779 20.607130
vt 0.590551 23.181101
vt 0.590551 20.607130
vt 2.552779 23.181101
vt 1.005906 23.603279
vt -1.377953 -0.021700
vt 1.377953 -0.021700
vt -1.005906 23.603279
vt 1.377953 -0.021700
vt -1.377953 -0.021700
vt 1.377953 1.377953
vt -1.377953 -1.377953
vt 1.377953 -1.377953
vt -1.377953 1.377953
vt 1.005906 -1.005906
vt -1.005906 1.005906
vt -1.005906 -1.005906
vt 1.005906 1.005906
s 0
usemtl wood
f 3/1/1 2/2/2 1/3/1
f 2/2/2 3/1/1 4/4/2
f 4/4/2 3/1/1 5/5/1
f 3/6/3 7/7/3 6/8/3
f 7/7/3 3/6/3 1/9/3
f 10/10/4 9/11/5 8/12/4
f 9/11/5 10/10/4 11/13/5
f 12/14/6 3/15/6 6/16/6
f 3/15/6 12/14/6 5/17/6
f 13/18/7 10/19/7 8/20/7
f 10/19/7 13/18/7 14/21/7
f 2/22/2 14/23/8 13/24/8
f 14/23/8 2/22/2 4/25/2
f 10/26/9 4/27/9 11/28/9
f 4/27/9 10/26/9 14/29/9
f 1/30/7 9/31/7 7/32/7
f 9/31/7 1/30/7 2/33/7
f 9/34/5 6/35/10 7/36/10
f 6/35/10 9/34/5 11/37/5
f 6/35/10 11/37/5 12/38/10
f 2/39/11 8/40/11 9/41/11
f 8/40/11 2/39/11 13/42/11
f 4/43/7 12/44/7 11/45/7
f 12/44/7 4/43/7 5/46/7
usemtl woodDark
f 17/47/12 16/48/12 15/49/12
f 16/48/12 17/47/12 18/50/12
f 16/51/13 20/50/13 19/52/13
f 20/50/13 16/51/13 18/47/13
f 15/53/14 19/54/14 21/55/14
f 19/54/14 15/53/14 16/56/14
f 22/47/15 15/48/15 21/49/15
f 15/48/15 22/47/15 17/50/15
f 20/57/16 17/58/16 22/59/16
f 17/58/16 20/57/16 18/60/16
f 20/47/17 21/52/17 19/51/17
f 21/52/17 20/47/17 22/50/17
