# Blender 4.1.1
# www.blender.org
mtllib Icosphere.015.mtl
o Icosphere.015
v 5.623591 12.954988 4.422054
v 5.608640 13.143637 4.492271
v 5.446128 13.023968 4.489058
v 5.454113 12.912424 4.321023
v 5.621566 12.963160 4.220385
v 5.717068 13.106054 4.326221
v 5.429922 13.217661 4.434638
v 5.334420 13.074768 4.328798
v 5.442844 13.037186 4.162748
v 5.605357 13.156853 4.165963
v 5.597372 13.268394 4.334000
v 5.427894 13.225832 4.232969
vn 0.2210 -0.3248 0.9196
vn 0.8130 -0.1454 0.5638
vn -0.1167 -0.8300 0.5454
vn 0.2667 -0.9629 -0.0417
vn 0.8413 -0.5398 -0.0303
vn 0.7557 0.5394 0.3714
vn -0.2022 0.2492 0.9471
vn -0.7486 -0.5683 0.3417
vn -0.1283 -0.7833 -0.6083
vn 0.8014 -0.0987 -0.5899
vn 0.1283 0.7833 0.6083
vn -0.8014 0.0987 0.5899
vn -0.7557 -0.5394 -0.3714
vn 0.2022 -0.2492 -0.9471
vn 0.7485 0.5683 -0.3417
vn -0.2667 0.9629 0.0417
vn -0.8413 0.5398 0.0303
vn -0.8130 0.1454 -0.5638
vn -0.2210 0.3248 -0.9196
vn 0.1167 0.8300 -0.5454
s 0
usemtl Smoke
f 1//1 2//1 3//1
f 2//2 1//2 6//2
f 1//3 3//3 4//3
f 1//4 4//4 5//4
f 1//5 5//5 6//5
f 2//6 6//6 11//6
f 3//7 2//7 7//7
f 4//8 3//8 8//8
f 5//9 4//9 9//9
f 6//10 5//10 10//10
f 2//11 11//11 7//11
f 3//12 7//12 8//12
f 4//13 8//13 9//13
f 5//14 9//14 10//14
f 6//15 10//15 11//15
f 7//16 11//16 12//16
f 8//17 7//17 12//17
f 9//18 8//18 12//18
f 10//19 9//19 12//19
f 11//20 10//20 12//20
