# Blender 4.1.1
# www.blender.org
mtllib Icosphere.015.mtl
o Icosphere.015
v 1.906561 -1.882963 -3.831223
v 1.901083 -1.857235 -3.900344
v 1.841538 -1.858412 -3.856497
v 1.844464 -1.919981 -3.815628
v 1.905819 -1.956855 -3.834217
v 1.940811 -1.918076 -3.886574
v 1.835600 -1.878352 -3.927467
v 1.800608 -1.917132 -3.875111
v 1.840335 -1.977973 -3.861341
v 1.899880 -1.976795 -3.905187
v 1.896954 -1.915226 -3.946056
v 1.834857 -1.952244 -3.930461
vn 0.2210 0.9196 0.3248
vn 0.8130 0.5638 0.1454
vn -0.1167 0.5454 0.8300
vn 0.2667 -0.0417 0.9629
vn 0.8413 -0.0303 0.5398
vn 0.7557 0.3714 -0.5394
vn -0.2022 0.9471 -0.2492
vn -0.7486 0.3416 0.5683
vn -0.1283 -0.6083 0.7833
vn 0.8014 -0.5899 0.0987
vn 0.1283 0.6083 -0.7833
vn -0.8014 0.5899 -0.0987
vn -0.7557 -0.3714 0.5394
vn 0.2022 -0.9471 0.2492
vn 0.7485 -0.3417 -0.5683
vn -0.2667 0.0417 -0.9629
vn -0.8413 0.0303 -0.5398
vn -0.8130 -0.5638 -0.1454
vn -0.2210 -0.9196 -0.3248
vn 0.1167 -0.5454 -0.8300
s 0
usemtl Smoke
f 1//1 2//1 3//1
f 2//2 1//2 6//2
f 1//3 3//3 4//3
f 1//4 4//4 5//4
f 1//5 5//5 6//5
f 2//6 6//6 11//6
f 3//7 2//7 7//7
f 4//8 3//8 8//8
f 5//9 4//9 9//9
f 6//10 5//10 10//10
f 2//11 11//11 7//11
f 3//12 7//12 8//12
f 4//13 8//13 9//13
f 5//14 9//14 10//14
f 6//15 10//15 11//15
f 7//16 11//16 12//16
f 8//17 7//17 12//17
f 9//18 8//18 12//18
f 10//19 9//19 12//19
f 11//20 10//20 12//20
