# Blender 4.1.1
# www.blender.org
mtllib Cube.070_Cube.074.mtl
o Cube.070_Cube.074
v -6.064097 -5.992544 -2.196018
v -6.117870 -6.023602 -2.215391
v -5.888031 -6.453815 -2.157764
v -6.088702 -5.991460 -2.117539
v -5.912343 -6.459581 -2.079051
v -5.948045 -6.207591 -2.166587
v -5.989738 -6.254568 -2.190986
v -6.092719 -5.999878 -2.206768
v -5.903162 -6.465142 -2.098350
v -6.031736 -6.244680 -2.106963
v -6.133927 -6.015724 -2.176410
v -5.976901 -6.212123 -2.085624
v -6.074378 -5.989552 -2.156558
v -5.862296 -6.463240 -2.107725
v -5.955711 -6.206089 -2.125273
v -6.005496 -6.228750 -2.094185
v -6.027836 -6.249091 -2.154667
v -5.977088 -6.225559 -2.183194
v -5.831775 -6.435629 -2.138932
v -6.061639 -6.135141 -2.199372
v -6.092188 -6.141247 -2.123222
v -6.138468 -6.029774 -2.200950
v -5.858645 -6.435323 -2.060016
v -6.032675 -6.106798 -2.106535
v -6.146679 -6.018160 -2.137730
v -6.081942 -5.992679 -2.137435
v -6.005341 -6.103005 -2.186887
v -5.855311 -6.446398 -2.146845
v -5.942875 -6.345863 -2.182757
v -5.885155 -6.473830 -2.132575
v -5.975606 -6.350814 -2.093381
v -6.140669 -6.026189 -2.158085
v -5.922322 -6.319332 -2.073766
v -5.838265 -6.434732 -2.117848
v -6.103853 -6.003464 -2.145454
v -6.021967 -6.105573 -2.139917
v -5.967827 -6.210695 -2.111060
v -5.956110 -6.209220 -2.146610
v -6.072416 -6.119840 -2.119848
v -6.016426 -6.236161 -2.105183
v -5.994094 -6.222569 -2.094049
v -6.081030 -6.140812 -2.164170
v -5.961391 -6.349496 -2.138435
v -6.011123 -6.241918 -2.168279
v -6.020956 -6.241870 -2.129043
v -5.918986 -6.331161 -2.170894
v -5.961240 -6.215368 -2.171303
v -5.929900 -6.338521 -2.173164
v -5.908385 -6.323764 -2.160996
v -6.017239 -6.110780 -2.196722
v -5.977715 -6.356112 -2.121339
v -5.951343 -6.349336 -2.167673
v -6.069191 -6.137352 -2.185672
v -5.934345 -6.355538 -2.082857
v -5.963809 -6.344638 -2.094851
v -5.898770 -6.331142 -2.120981
v -5.917289 -6.319688 -2.095731
v -6.032324 -6.108816 -2.122687
v -6.098442 -6.009423 -2.186440
v -5.901547 -6.454681 -2.075198
v -5.856207 -6.438012 -2.107779
v -5.864512 -6.468287 -2.149265
v -6.017254 -6.105592 -2.158696
v -6.049760 -6.116465 -2.109695
v -6.090816 -6.144183 -2.150132
v -6.044909 -6.111073 -2.199286
vn 0.1214 -0.0809 -0.9893
vn -0.1842 0.0043 0.9829
vn 0.9696 -0.2339 0.0724
vn 0.2917 -0.8792 0.3768
vn -0.2183 0.9612 -0.1686
vn 0.0925 -0.0272 -0.9953
vn -0.0461 0.0632 0.9969
vn -0.3848 -0.1025 0.9173
vn -0.3953 -0.0600 0.9166
vn -0.1976 0.0280 0.9799
vn 0.9084 0.4110 -0.0773
vn 0.8359 0.4954 0.2362
vn -0.3790 0.9069 -0.1843
vn -0.4342 0.9005 -0.0245
vn 0.2150 -0.9744 0.0658
vn 0.3891 -0.9184 0.0716
vn 0.9219 -0.3873 -0.0021
vn -0.3997 -0.0671 0.9142
vn 0.3682 0.0881 -0.9256
vn 0.8159 0.4248 0.3922
vn 0.8027 0.4585 0.3813
vn -0.2635 -0.7697 -0.5815
vn 0.6122 -0.1461 0.7771
vn -0.2759 0.8553 -0.4386
vn 0.6353 0.3884 0.6675
vn 0.8114 0.4578 0.3635
vn -0.6114 -0.2243 0.7588
vn -0.3053 -0.0558 0.9506
vn -0.3898 -0.0971 0.9158
vn -0.8735 -0.3348 0.3534
vn -0.4539 -0.4268 -0.7822
vn -0.7715 -0.4637 -0.4356
vn 0.5762 0.2255 -0.7856
vn 0.2305 -0.0420 -0.9722
vn 0.5130 0.1878 -0.8376
vn 0.3037 -0.0224 -0.9525
vn 0.5576 0.0923 -0.8249
vn 0.3052 0.0585 -0.9505
vn 0.3187 0.1319 -0.9386
vn 0.3088 0.0239 -0.9508
vn 0.6053 0.1723 -0.7771
vn 0.5854 0.1185 -0.8020
vn 0.0928 -0.0845 -0.9921
vn -0.8906 -0.3150 0.3279
vn -0.8626 -0.4811 0.1562
vn -0.5204 -0.5016 -0.6910
vn -0.7646 -0.4283 -0.4816
vn -0.7976 -0.5134 -0.3168
vn -0.8139 -0.5077 -0.2825
vn -0.4431 -0.3993 -0.8026
vn -0.7301 -0.4854 -0.4809
vn -0.5114 -0.3212 -0.7971
vn -0.1321 0.0303 0.9908
vn -0.3202 -0.0328 0.9468
vn -0.3290 -0.0176 0.9442
vn -0.1979 0.0283 0.9798
vn 0.8400 0.4351 0.3241
vn -0.6221 -0.2041 0.7559
vn 0.8136 0.5028 0.2919
vn 0.9205 0.3896 -0.0287
vn 0.7978 0.4771 0.3687
vn 0.8464 0.5304 -0.0479
vn 0.5844 0.4805 0.6539
vn -0.4762 0.8591 -0.1878
vn -0.7036 0.6986 0.1300
vn -0.3944 0.9017 -0.1770
vn 0.2873 -0.9351 0.2073
vn -0.3455 0.8831 0.3174
vn 0.0720 -0.9397 0.3342
vn 0.2657 -0.8854 0.3815
vn -0.3614 0.8260 -0.4325
vn -0.9048 -0.4128 -0.1043
vn 0.3302 -0.9390 0.0965
vn 0.8810 0.4301 0.1970
vn -0.5682 0.7870 0.2404
vn 0.8623 0.4984 -0.0892
vn 0.7802 0.5003 0.3756
vn -0.0709 0.1090 0.9915
vn -0.2224 0.0752 0.9721
vn -0.7280 -0.3474 -0.5910
vn -0.6116 -0.5584 -0.5605
vn -0.7485 -0.5050 -0.4297
vn 0.2773 0.0547 -0.9592
vn 0.0568 -0.0359 -0.9977
vn 0.7551 0.3896 0.5273
vn 0.8184 0.3872 0.4246
vn 0.8108 0.4580 0.3646
vn -0.4216 -0.1568 0.8931
vn -0.3923 -0.0993 0.9144
vn -0.7081 -0.5233 -0.4741
vn -0.8356 -0.4667 -0.2897
vn -0.9297 -0.3428 0.1351
vn 0.5177 0.1727 -0.8380
vn 0.3622 0.0912 -0.9276
vn 0.2457 -0.0661 -0.9671
vn 0.3383 -0.0028 -0.9410
vn 0.3966 0.0914 -0.9134
vn 0.5341 0.2165 -0.8173
vn 0.3359 0.0012 -0.9419
vn 0.5565 0.0974 -0.8251
vn -0.5402 -0.4703 -0.6978
vn -0.7868 -0.5816 -0.2067
vn -0.7426 -0.4277 -0.5154
vn -0.7129 -0.4804 -0.5109
vn -0.8069 -0.5120 -0.2946
vn -0.7503 -0.4481 -0.4860
vn -0.7551 -0.4855 -0.4406
vn -0.7305 -0.4855 -0.4803
vn 0.0446 0.1499 0.9877
vn 0.0421 0.1545 0.9871
vn -0.1516 0.0664 0.9862
vn 0.8661 0.4620 0.1910
vn 0.8516 0.4897 0.1872
vn 0.8574 0.4417 0.2643
vn 0.8107 0.4922 0.3169
vn 0.6974 0.5001 0.5134
vn -0.4751 0.8594 -0.1889
vn 0.3684 -0.9171 0.1524
vn -0.3504 0.9143 -0.2030
vn -0.9210 -0.3894 -0.0045
vn 0.8769 0.4276 0.2196
vn 0.8041 0.5594 0.2013
vn 0.7852 0.5051 0.3582
vn -0.4046 -0.0333 0.9139
vn -0.4012 -0.0759 0.9128
vn -0.7778 -0.3780 -0.5021
vn -0.8556 -0.3905 0.3398
vn -0.8154 -0.5785 0.0216
s 0
usemtl Fence2
f 20//1 2//1 66//1
f 24//2 4//2 64//2
f 14//3 28//3 61//3
f 60//4 9//4 30//4
f 59//5 11//5 35//5
f 66//6 8//6 50//6
f 54//7 41//7 16//7
f 23//8 33//8 54//8
f 60//9 54//9 55//9
f 39//10 25//10 21//10
f 56//11 38//11 15//11
f 34//12 19//12 56//12
f 35//13 4//13 26//13
f 13//14 35//14 26//14
f 23//15 61//15 34//15
f 60//16 61//16 23//16
f 14//17 62//17 28//17
f 64//18 4//18 39//18
f 7//19 66//19 18//19
f 26//20 36//20 13//20
f 63//21 27//21 1//21
f 30//22 3//22 62//22
f 60//23 14//23 61//23
f 59//24 22//24 11//24
f 57//25 15//25 37//25
f 6//26 56//26 19//26
f 55//27 16//27 40//27
f 39//28 4//28 25//28
f 41//29 33//29 12//29
f 22//30 42//30 11//30
f 44//31 43//31 17//31
f 45//32 31//32 10//32
f 18//33 49//33 46//33
f 7//34 46//34 48//34
f 48//35 29//35 7//35
f 48//36 28//36 62//36
f 48//37 3//37 29//37
f 6//38 49//38 47//38
f 1//39 50//39 8//39
f 19//40 28//40 49//40
f 28//41 46//41 49//41
f 27//42 47//42 50//42
f 50//43 18//43 66//43
f 17//44 51//44 45//44
f 51//45 5//45 31//45
f 9//46 51//46 43//46
f 7//47 52//47 44//47
f 52//48 3//48 30//48
f 52//49 9//49 43//49
f 2//50 53//50 22//50
f 20//51 44//51 53//51
f 42//52 44//52 17//52
f 10//53 55//53 40//53
f 60//54 23//54 54//54
f 55//55 5//55 60//55
f 21//56 40//56 39//56
f 12//57 57//57 37//57
f 40//58 16//58 39//58
f 57//59 23//59 34//59
f 26//60 24//60 58//60
f 34//61 56//61 57//61
f 24//62 37//62 58//62
f 36//63 37//63 15//63
f 13//64 59//64 35//64
f 8//65 2//65 59//65
f 2//66 22//66 59//66
f 28//67 34//67 61//67
f 1//68 8//68 59//68
f 60//69 30//69 14//69
f 60//70 5//70 9//70
f 25//71 35//71 32//71
f 32//72 21//72 25//72
f 14//73 30//73 62//73
f 13//74 63//74 1//74
f 11//75 32//75 35//75
f 63//76 15//76 38//76
f 63//77 6//77 27//77
f 64//78 16//78 41//78
f 64//79 12//79 24//79
f 32//80 42//80 65//80
f 42//81 45//81 65//81
f 21//82 45//82 10//82
f 66//83 2//83 8//83
f 7//84 20//84 66//84
f 26//85 58//85 36//85
f 57//86 56//86 15//86
f 6//87 38//87 56//87
f 55//88 54//88 16//88
f 41//89 54//89 33//89
f 22//90 53//90 42//90
f 44//91 52//91 43//91
f 45//92 51//92 31//92
f 18//93 47//93 49//93
f 7//94 18//94 46//94
f 48//95 46//95 28//95
f 48//96 62//96 3//96
f 6//97 19//97 49//97
f 1//98 27//98 50//98
f 27//99 6//99 47//99
f 50//100 47//100 18//100
f 17//101 43//101 51//101
f 51//102 9//102 5//102
f 7//103 29//103 52//103
f 52//104 29//104 3//104
f 52//105 30//105 9//105
f 2//106 20//106 53//106
f 20//107 7//107 44//107
f 42//108 53//108 44//108
f 10//109 31//109 55//109
f 55//110 31//110 5//110
f 21//111 10//111 40//111
f 12//112 33//112 57//112
f 57//113 33//113 23//113
f 26//114 4//114 24//114
f 24//115 12//115 37//115
f 36//116 58//116 37//116
f 13//117 1//117 59//117
f 28//118 19//118 34//118
f 25//119 4//119 35//119
f 32//120 65//120 21//120
f 13//121 36//121 63//121
f 63//122 36//122 15//122
f 63//123 38//123 6//123
f 64//124 39//124 16//124
f 64//125 41//125 12//125
f 32//126 11//126 42//126
f 42//127 17//127 45//127
f 21//128 65//128 45//128
