# Blender 4.1.1
# www.blender.org
mtllib Cube.077_Cube.081.mtl
o Cube.077_Cube.081
v -5.484197 -7.241282 -1.680167
v -5.502197 -7.303241 -1.688447
v -5.502778 -7.236200 -2.175002
v -5.404302 -7.260831 -1.679669
v -5.423313 -7.257861 -2.181019
v -5.483956 -7.206657 -1.923848
v -5.509357 -7.263072 -1.950543
v -5.493354 -7.271064 -1.675950
v -5.443694 -7.251974 -2.187151
v -5.421803 -7.295605 -1.936500
v -5.461533 -7.313976 -1.680041
v -5.401793 -7.232050 -1.927411
v -5.443957 -7.248299 -1.678353
v -5.455962 -7.213426 -2.198337
v -5.442216 -7.211673 -1.924532
v -5.409647 -7.264968 -1.932116
v -5.469868 -7.295382 -1.936504
v -5.499888 -7.240781 -1.928732
v -5.486707 -7.176439 -2.179512
v -5.501019 -7.288960 -1.813565
v -5.423651 -7.316679 -1.817464
v -5.486855 -7.324109 -1.688779
v -5.406278 -7.198363 -2.179011
v -5.408442 -7.248268 -1.807685
v -5.422385 -7.325235 -1.682351
v -5.424686 -7.255716 -1.680854
v -5.489950 -7.224534 -1.804358
v -5.493759 -7.202548 -2.180568
v -5.513305 -7.250792 -2.052681
v -5.479862 -7.239509 -2.197525
v -5.422532 -7.279626 -2.056265
v -5.443801 -7.323220 -1.689575
v -5.404216 -7.217967 -2.047448
v -5.465195 -7.181366 -2.178855
v -5.431969 -7.280314 -1.682472
v -5.442287 -7.239137 -1.806407
v -5.427607 -7.224063 -1.926290
v -5.463658 -7.213986 -1.924879
v -5.419823 -7.290555 -1.804680
v -5.420417 -7.278224 -1.934017
v -5.409811 -7.252129 -1.930283
v -5.465115 -7.307703 -1.816213
v -5.468225 -7.267641 -2.054772
v -5.483994 -7.277769 -1.934000
v -5.444287 -7.285405 -1.935060
v -5.501991 -7.222821 -2.048531
v -5.488350 -7.221913 -1.926029
v -5.504094 -7.235701 -2.051387
v -5.492290 -7.209920 -2.046405
v -5.499525 -7.238778 -1.806399
v -5.450618 -7.284558 -2.057287
v -5.498005 -7.259336 -2.054734
v -5.487045 -7.296261 -1.814597
v -5.415695 -7.242237 -2.076035
v -5.424322 -7.266482 -2.054389
v -5.453995 -7.201917 -2.061153
v -5.426439 -7.214249 -2.046999
v -5.424691 -7.249284 -1.807842
v -5.473626 -7.278953 -1.685205
v -5.419860 -7.245890 -2.180597
v -5.454129 -7.198910 -2.176903
v -5.497498 -7.218907 -2.197538
v -5.461292 -7.235475 -1.805899
v -5.411169 -7.267765 -1.810471
v -5.450743 -7.317486 -1.817599
v -5.499973 -7.264883 -1.796880
vn -0.9989 0.0463 -0.0041
vn 0.9902 -0.1321 -0.0450
vn -0.0243 0.8287 -0.5591
vn 0.2696 -0.0190 -0.9628
vn -0.0609 0.1250 0.9903
vn -0.9977 0.0377 0.0565
vn 0.9991 0.0183 -0.0391
vn 0.9305 -0.3598 -0.0682
vn 0.9346 -0.3547 -0.0248
vn 0.9905 -0.1364 -0.0179
vn -0.1082 0.9909 0.0801
vn 0.2165 0.9650 0.1479
vn -0.0692 -0.0451 0.9966
vn 0.0930 -0.0927 0.9913
vn -0.0420 -0.1366 -0.9897
vn -0.0445 0.0460 -0.9979
vn -0.1091 0.7275 -0.6773
vn 0.9319 -0.3614 -0.0298
vn -0.9389 0.3388 0.0613
vn 0.3663 0.9278 0.0712
vn 0.3596 0.9268 0.1083
vn -0.6288 -0.5387 -0.5607
vn 0.7108 0.5527 -0.4351
vn -0.3345 0.0234 0.9421
vn 0.6501 0.7568 0.0678
vn 0.3413 0.9339 0.1067
vn 0.7792 -0.6208 -0.0858
vn 0.9619 -0.2678 -0.0558
vn 0.9299 -0.3626 -0.0613
vn 0.3866 -0.9208 -0.0526
vn -0.7814 -0.6050 -0.1528
vn -0.4165 -0.9015 -0.1177
vn -0.8031 0.5870 0.1021
vn -0.9866 0.1627 -0.0073
vn -0.8533 0.5127 0.0946
vn -0.9709 0.2389 -0.0164
vn -0.8531 0.5217 -0.0112
vn -0.9615 0.2686 0.0582
vn -0.9439 0.3073 0.1207
vn -0.9654 0.2597 0.0248
vn -0.8019 0.5961 0.0415
vn -0.8300 0.5578 0.0011
vn -0.9998 0.0181 0.0027
vn 0.3645 -0.9309 -0.0253
vn 0.1764 -0.9695 -0.1702
vn -0.6928 -0.6899 -0.2100
vn -0.4593 -0.8845 -0.0818
vn -0.3013 -0.9385 -0.1686
vn -0.2653 -0.9505 -0.1617
vn -0.8000 -0.5861 -0.1285
vn -0.4665 -0.8722 -0.1470
vn -0.7819 -0.6225 -0.0329
vn 0.9965 -0.0738 -0.0395
vn 0.9614 -0.2738 -0.0287
vn 0.9609 -0.2768 -0.0112
vn 0.9905 -0.1365 -0.0176
vn 0.2977 0.9513 0.0802
vn 0.7790 -0.6238 -0.0631
vn 0.2742 0.9489 0.1561
vn -0.0628 0.9968 0.0505
vn 0.3492 0.9282 0.1288
vn -0.0630 0.9758 0.2093
vn 0.6491 0.7408 0.1726
vn -0.0697 -0.1529 0.9858
vn 0.2482 -0.4092 0.8780
vn -0.0613 -0.0609 0.9963
vn 0.0965 -0.0497 -0.9941
vn 0.4240 -0.0021 0.9057
vn 0.2385 -0.2478 -0.9390
vn 0.2757 -0.0457 -0.9602
vn -0.3246 -0.0667 0.9435
vn -0.0727 -0.9954 -0.0624
vn -0.0172 -0.0153 -0.9997
vn 0.1680 0.9829 0.0760
vn 0.3557 -0.2473 0.9013
vn -0.1084 0.9779 0.1788
vn 0.3596 0.9200 0.1557
vn 0.9999 0.0110 0.0128
vn 0.9890 -0.1434 0.0355
vn -0.5631 -0.8264 -0.0065
vn -0.5614 -0.7899 -0.2466
vn -0.4162 -0.8942 -0.1648
vn -0.9684 0.2408 0.0653
vn -0.9981 0.0011 0.0610
vn 0.5017 0.8639 0.0437
vn 0.3948 0.9182 0.0315
vn 0.3425 0.9334 0.1069
vn 0.9043 -0.4141 -0.1034
vn 0.9286 -0.3658 -0.0623
vn -0.4651 -0.8645 -0.1906
vn -0.2670 -0.9568 -0.1151
vn 0.1735 -0.9847 -0.0158
vn -0.8555 0.5118 0.0790
vn -0.9401 0.3342 0.0666
vn -0.9850 0.1687 -0.0355
vn -0.9604 0.2784 -0.0113
vn -0.9287 0.3671 0.0534
vn -0.8321 0.5433 0.1118
vn -0.9607 0.2776 -0.0066
vn -0.8527 0.5223 -0.0060
vn -0.6951 -0.6977 -0.1733
vn -0.1991 -0.9480 -0.2485
vn -0.4944 -0.8651 -0.0849
vn -0.4971 -0.8555 -0.1448
vn -0.2782 -0.9459 -0.1667
vn -0.4666 -0.8783 -0.1046
vn -0.4247 -0.8940 -0.1431
vn -0.4660 -0.8725 -0.1470
vn 0.9910 0.1333 0.0117
vn 0.9910 0.1325 0.0169
vn 0.9968 -0.0797 0.0014
vn 0.1662 0.9798 0.1116
vn 0.1661 0.9757 0.1428
vn 0.2377 0.9674 0.0873
vn 0.2982 0.9435 0.1444
vn 0.5027 0.8479 0.1682
vn -0.0709 -0.1517 0.9859
vn 0.0374 0.0303 -0.9988
vn -0.0894 -0.0164 0.9959
vn 0.0299 -0.9985 -0.0463
vn 0.1906 0.9790 0.0725
vn 0.1902 0.9562 0.2224
vn 0.3424 0.9258 0.1604
vn 0.9352 -0.3542 0.0036
vn 0.9299 -0.3660 -0.0372
vn -0.4739 -0.8801 -0.0281
vn 0.3665 -0.9240 -0.1091
vn 0.0301 -0.9647 -0.2618
s 0
usemtl Fence
f 20//1 2//1 66//1
f 24//2 4//2 64//2
f 14//3 28//3 61//3
f 60//4 9//4 30//4
f 59//5 11//5 35//5
f 66//6 8//6 50//6
f 54//7 41//7 16//7
f 23//8 33//8 54//8
f 60//9 54//9 55//9
f 39//10 25//10 21//10
f 56//11 38//11 15//11
f 34//12 19//12 56//12
f 35//13 4//13 26//13
f 13//14 35//14 26//14
f 23//15 61//15 34//15
f 60//16 61//16 23//16
f 14//17 62//17 28//17
f 64//18 4//18 39//18
f 7//19 66//19 18//19
f 26//20 36//20 13//20
f 63//21 27//21 1//21
f 30//22 3//22 62//22
f 60//23 14//23 61//23
f 59//24 22//24 11//24
f 57//25 15//25 37//25
f 6//26 56//26 19//26
f 55//27 16//27 40//27
f 39//28 4//28 25//28
f 41//29 33//29 12//29
f 22//30 42//30 11//30
f 44//31 43//31 17//31
f 45//32 31//32 10//32
f 18//33 49//33 46//33
f 7//34 46//34 48//34
f 48//35 29//35 7//35
f 48//36 28//36 62//36
f 48//37 3//37 29//37
f 6//38 49//38 47//38
f 1//39 50//39 8//39
f 19//40 28//40 49//40
f 28//41 46//41 49//41
f 27//42 47//42 50//42
f 50//43 18//43 66//43
f 17//44 51//44 45//44
f 51//45 5//45 31//45
f 9//46 51//46 43//46
f 7//47 52//47 44//47
f 52//48 3//48 30//48
f 52//49 9//49 43//49
f 2//50 53//50 22//50
f 20//51 44//51 53//51
f 42//52 44//52 17//52
f 10//53 55//53 40//53
f 60//54 23//54 54//54
f 55//55 5//55 60//55
f 21//56 40//56 39//56
f 12//57 57//57 37//57
f 40//58 16//58 39//58
f 57//59 23//59 34//59
f 26//60 24//60 58//60
f 34//61 56//61 57//61
f 24//62 37//62 58//62
f 36//63 37//63 15//63
f 13//64 59//64 35//64
f 8//65 2//65 59//65
f 2//66 22//66 59//66
f 28//67 34//67 61//67
f 1//68 8//68 59//68
f 60//69 30//69 14//69
f 60//70 5//70 9//70
f 25//71 35//71 32//71
f 32//72 21//72 25//72
f 14//73 30//73 62//73
f 13//74 63//74 1//74
f 11//75 32//75 35//75
f 63//76 15//76 38//76
f 63//77 6//77 27//77
f 64//78 16//78 41//78
f 64//79 12//79 24//79
f 32//80 42//80 65//80
f 42//81 45//81 65//81
f 21//82 45//82 10//82
f 66//83 2//83 8//83
f 7//84 20//84 66//84
f 26//85 58//85 36//85
f 57//86 56//86 15//86
f 6//87 38//87 56//87
f 55//88 54//88 16//88
f 41//89 54//89 33//89
f 22//90 53//90 42//90
f 44//91 52//91 43//91
f 45//92 51//92 31//92
f 18//93 47//93 49//93
f 7//94 18//94 46//94
f 48//95 46//95 28//95
f 48//96 62//96 3//96
f 6//97 19//97 49//97
f 1//98 27//98 50//98
f 27//99 6//99 47//99
f 50//100 47//100 18//100
f 17//101 43//101 51//101
f 51//102 9//102 5//102
f 7//103 29//103 52//103
f 52//104 29//104 3//104
f 52//105 30//105 9//105
f 2//106 20//106 53//106
f 20//107 7//107 44//107
f 42//108 53//108 44//108
f 10//109 31//109 55//109
f 55//110 31//110 5//110
f 21//111 10//111 40//111
f 12//112 33//112 57//112
f 57//113 33//113 23//113
f 26//114 4//114 24//114
f 24//115 12//115 37//115
f 36//116 58//116 37//116
f 13//117 1//117 59//117
f 28//118 19//118 34//118
f 25//119 4//119 35//119
f 32//120 65//120 21//120
f 13//121 36//121 63//121
f 63//122 36//122 15//122
f 63//123 38//123 6//123
f 64//124 39//124 16//124
f 64//125 41//125 12//125
f 32//126 11//126 42//126
f 42//127 17//127 45//127
f 21//128 65//128 45//128
