# Blender 4.1.1
# www.blender.org
mtllib Cube.077_Cube.081.mtl
o Cube.077_Cube.081
v -14.547565 7.084219 -10.202078
v -14.596690 7.106816 -10.371180
v -14.598276 8.434743 -10.188210
v -14.329512 7.082859 -10.255432
v -14.381397 8.451164 -10.247330
v -14.546906 7.749283 -10.107580
v -14.616232 7.822140 -10.261551
v -14.572556 7.072709 -10.283360
v -14.437022 8.467899 -10.231262
v -14.377276 7.783813 -10.350342
v -14.485709 7.083874 -10.400476
v -14.322664 7.759007 -10.176884
v -14.437739 7.079268 -10.221230
v -14.470505 8.498429 -10.126055
v -14.432988 7.751150 -10.121269
v -14.344099 7.771848 -10.266726
v -14.508457 7.783823 -10.349731
v -14.590388 7.762612 -10.200712
v -14.554415 8.447052 -10.025108
v -14.593475 7.448294 -10.332205
v -14.382320 7.458935 -10.407858
v -14.554819 7.107723 -10.428133
v -14.334905 8.445684 -10.084944
v -14.340811 7.432246 -10.221148
v -14.378865 7.090179 -10.431206
v -14.385144 7.086093 -10.241472
v -14.563266 7.423166 -10.156372
v -14.573662 8.449934 -10.096367
v -14.627007 8.100899 -10.228035
v -14.535733 8.496214 -10.197241
v -14.379266 8.110681 -10.306730
v -14.437314 7.109895 -10.425707
v -14.329276 8.086617 -10.138449
v -14.495704 8.445258 -10.038555
v -14.405022 7.090509 -10.308607
v -14.433182 7.428758 -10.196226
v -14.393117 7.755948 -10.155085
v -14.491508 7.752097 -10.127583
v -14.371873 7.424044 -10.336557
v -14.373493 7.777036 -10.302904
v -14.344547 7.766845 -10.231686
v -14.495485 7.455521 -10.383360
v -14.503973 8.106606 -10.274021
v -14.547010 7.776989 -10.301662
v -14.438640 7.779882 -10.322504
v -14.596128 8.089573 -10.151697
v -14.558899 7.755235 -10.149218
v -14.601869 8.097368 -10.186850
v -14.569652 8.083771 -10.116486
v -14.589398 7.428736 -10.195248
v -14.455918 8.113470 -10.320190
v -14.585249 8.106502 -10.251354
v -14.555337 7.451110 -10.352131
v -14.360606 8.164638 -10.204687
v -14.384151 8.105560 -10.270857
v -14.465137 8.124022 -10.094645
v -14.389928 8.085392 -10.128302
v -14.385159 7.432674 -10.223919
v -14.518714 7.097968 -10.304892
v -14.371973 8.450012 -10.214657
v -14.465502 8.439931 -10.086437
v -14.583866 8.496248 -10.141014
v -14.485050 7.427372 -10.186232
v -14.348253 7.439849 -10.274359
v -14.456261 7.459303 -10.410059
v -14.590620 7.402756 -10.266493
vn -0.9989 0.0041 0.0463
vn 0.9902 0.0450 -0.1321
vn -0.0244 0.5592 0.8287
vn 0.2696 0.9628 -0.0190
vn -0.0609 -0.9903 0.1250
vn -0.9977 -0.0565 0.0377
vn 0.9991 0.0391 0.0184
vn 0.9305 0.0682 -0.3598
vn 0.9346 0.0248 -0.3547
vn 0.9905 0.0179 -0.1363
vn -0.1082 -0.0801 0.9909
vn 0.2165 -0.1479 0.9650
vn -0.0692 -0.9966 -0.0451
vn 0.0930 -0.9913 -0.0927
vn -0.0420 0.9897 -0.1366
vn -0.0445 0.9979 0.0460
vn -0.1091 0.6773 0.7275
vn 0.9319 0.0298 -0.3615
vn -0.9388 -0.0613 0.3388
vn 0.3663 -0.0711 0.9278
vn 0.3596 -0.1083 0.9268
vn -0.6288 0.5607 -0.5387
vn 0.7108 0.4351 0.5527
vn -0.3345 -0.9421 0.0234
vn 0.6501 -0.0678 0.7568
vn 0.3413 -0.1067 0.9339
vn 0.7793 0.0858 -0.6208
vn 0.9619 0.0558 -0.2677
vn 0.9299 0.0613 -0.3626
vn 0.3866 0.0526 -0.9207
vn -0.7814 0.1528 -0.6050
vn -0.4165 0.1177 -0.9015
vn -0.8031 -0.1021 0.5870
vn -0.9866 0.0073 0.1628
vn -0.8533 -0.0946 0.5127
vn -0.9709 0.0164 0.2389
vn -0.8531 0.0112 0.5216
vn -0.9615 -0.0582 0.2687
vn -0.9439 -0.1207 0.3073
vn -0.9653 -0.0248 0.2598
vn -0.8019 -0.0415 0.5960
vn -0.8300 -0.0011 0.5578
vn -0.9998 -0.0027 0.0181
vn 0.3645 0.0253 -0.9309
vn 0.1764 0.1702 -0.9695
vn -0.6928 0.2100 -0.6899
vn -0.4592 0.0818 -0.8845
vn -0.3012 0.1686 -0.9385
vn -0.2653 0.1617 -0.9505
vn -0.8000 0.1285 -0.5861
vn -0.4665 0.1470 -0.8722
vn -0.7820 0.0329 -0.6225
vn 0.9965 0.0395 -0.0739
vn 0.9614 0.0287 -0.2738
vn 0.9609 0.0112 -0.2768
vn 0.9905 0.0176 -0.1365
vn 0.2978 -0.0802 0.9512
vn 0.7790 0.0631 -0.6238
vn 0.2742 -0.1561 0.9489
vn -0.0628 -0.0505 0.9967
vn 0.3492 -0.1288 0.9282
vn -0.0630 -0.2093 0.9758
vn 0.6491 -0.1726 0.7408
vn -0.0697 -0.9858 -0.1529
vn 0.2483 -0.8780 -0.4092
vn -0.0613 -0.9963 -0.0609
vn 0.0965 0.9941 -0.0497
vn 0.4240 -0.9056 -0.0021
vn 0.2386 0.9390 -0.2478
vn 0.2757 0.9602 -0.0457
vn -0.3245 -0.9435 -0.0667
vn -0.0726 0.0623 -0.9954
vn -0.0172 0.9997 -0.0153
vn 0.1680 -0.0760 0.9829
vn 0.3557 -0.9013 -0.2473
vn -0.1084 -0.1788 0.9779
vn 0.3596 -0.1557 0.9200
vn 0.9999 -0.0128 0.0110
vn 0.9890 -0.0355 -0.1434
vn -0.5631 0.0065 -0.8264
vn -0.5615 0.2466 -0.7899
vn -0.4162 0.1648 -0.8942
vn -0.9684 -0.0653 0.2408
vn -0.9981 -0.0610 0.0011
vn 0.5018 -0.0437 0.8639
vn 0.3947 -0.0315 0.9183
vn 0.3425 -0.1069 0.9334
vn 0.9043 0.1034 -0.4141
vn 0.9286 0.0623 -0.3658
vn -0.4651 0.1906 -0.8645
vn -0.2670 0.1151 -0.9568
vn 0.1735 0.0158 -0.9847
vn -0.8555 -0.0790 0.5118
vn -0.9401 -0.0666 0.3342
vn -0.9850 0.0355 0.1687
vn -0.9604 0.0113 0.2785
vn -0.9287 -0.0534 0.3670
vn -0.8321 -0.1118 0.5433
vn -0.9607 0.0067 0.2776
vn -0.8527 0.0060 0.5223
vn -0.6951 0.1733 -0.6977
vn -0.1991 0.2485 -0.9480
vn -0.4945 0.0849 -0.8650
vn -0.4972 0.1448 -0.8555
vn -0.2782 0.1667 -0.9459
vn -0.4666 0.1046 -0.8783
vn -0.4247 0.1431 -0.8940
vn -0.4661 0.1470 -0.8725
vn 0.9910 -0.0118 0.1333
vn 0.9910 -0.0169 0.1326
vn 0.9968 -0.0014 -0.0797
vn 0.1662 -0.1116 0.9798
vn 0.1661 -0.1428 0.9757
vn 0.2377 -0.0872 0.9674
vn 0.2982 -0.1444 0.9435
vn 0.5027 -0.1682 0.8480
vn -0.0709 -0.9859 -0.1517
vn 0.0375 0.9988 0.0303
vn -0.0894 -0.9959 -0.0164
vn 0.0300 0.0463 -0.9985
vn 0.1906 -0.0725 0.9790
vn 0.1902 -0.2224 0.9562
vn 0.3424 -0.1604 0.9258
vn 0.9352 -0.0036 -0.3542
vn 0.9299 0.0372 -0.3660
vn -0.4739 0.0281 -0.8801
vn 0.3665 0.1091 -0.9240
vn 0.0300 0.2618 -0.9646
s 0
usemtl Fence
f 20//1 2//1 66//1
f 24//2 4//2 64//2
f 14//3 28//3 61//3
f 60//4 9//4 30//4
f 59//5 11//5 35//5
f 66//6 8//6 50//6
f 54//7 41//7 16//7
f 23//8 33//8 54//8
f 60//9 54//9 55//9
f 39//10 25//10 21//10
f 56//11 38//11 15//11
f 34//12 19//12 56//12
f 35//13 4//13 26//13
f 13//14 35//14 26//14
f 23//15 61//15 34//15
f 60//16 61//16 23//16
f 14//17 62//17 28//17
f 64//18 4//18 39//18
f 7//19 66//19 18//19
f 26//20 36//20 13//20
f 63//21 27//21 1//21
f 30//22 3//22 62//22
f 60//23 14//23 61//23
f 59//24 22//24 11//24
f 57//25 15//25 37//25
f 6//26 56//26 19//26
f 55//27 16//27 40//27
f 39//28 4//28 25//28
f 41//29 33//29 12//29
f 22//30 42//30 11//30
f 44//31 43//31 17//31
f 45//32 31//32 10//32
f 18//33 49//33 46//33
f 7//34 46//34 48//34
f 48//35 29//35 7//35
f 48//36 28//36 62//36
f 48//37 3//37 29//37
f 6//38 49//38 47//38
f 1//39 50//39 8//39
f 19//40 28//40 49//40
f 28//41 46//41 49//41
f 27//42 47//42 50//42
f 50//43 18//43 66//43
f 17//44 51//44 45//44
f 51//45 5//45 31//45
f 9//46 51//46 43//46
f 7//47 52//47 44//47
f 52//48 3//48 30//48
f 52//49 9//49 43//49
f 2//50 53//50 22//50
f 20//51 44//51 53//51
f 42//52 44//52 17//52
f 10//53 55//53 40//53
f 60//54 23//54 54//54
f 55//55 5//55 60//55
f 21//56 40//56 39//56
f 12//57 57//57 37//57
f 40//58 16//58 39//58
f 57//59 23//59 34//59
f 26//60 24//60 58//60
f 34//61 56//61 57//61
f 24//62 37//62 58//62
f 36//63 37//63 15//63
f 13//64 59//64 35//64
f 8//65 2//65 59//65
f 2//66 22//66 59//66
f 28//67 34//67 61//67
f 1//68 8//68 59//68
f 60//69 30//69 14//69
f 60//70 5//70 9//70
f 25//71 35//71 32//71
f 32//72 21//72 25//72
f 14//73 30//73 62//73
f 13//74 63//74 1//74
f 11//75 32//75 35//75
f 63//76 15//76 38//76
f 63//77 6//77 27//77
f 64//78 16//78 41//78
f 64//79 12//79 24//79
f 32//80 42//80 65//80
f 42//81 45//81 65//81
f 21//82 45//82 10//82
f 66//83 2//83 8//83
f 7//84 20//84 66//84
f 26//85 58//85 36//85
f 57//86 56//86 15//86
f 6//87 38//87 56//87
f 55//88 54//88 16//88
f 41//89 54//89 33//89
f 22//90 53//90 42//90
f 44//91 52//91 43//91
f 45//92 51//92 31//92
f 18//93 47//93 49//93
f 7//94 18//94 46//94
f 48//95 46//95 28//95
f 48//96 62//96 3//96
f 6//97 19//97 49//97
f 1//98 27//98 50//98
f 27//99 6//99 47//99
f 50//100 47//100 18//100
f 17//101 43//101 51//101
f 51//102 9//102 5//102
f 7//103 29//103 52//103
f 52//104 29//104 3//104
f 52//105 30//105 9//105
f 2//106 20//106 53//106
f 20//107 7//107 44//107
f 42//108 53//108 44//108
f 10//109 31//109 55//109
f 55//110 31//110 5//110
f 21//111 10//111 40//111
f 12//112 33//112 57//112
f 57//113 33//113 23//113
f 26//114 4//114 24//114
f 24//115 12//115 37//115
f 36//116 58//116 37//116
f 13//117 1//117 59//117
f 28//118 19//118 34//118
f 25//119 4//119 35//119
f 32//120 65//120 21//120
f 13//121 36//121 63//121
f 63//122 36//122 15//122
f 63//123 38//123 6//123
f 64//124 39//124 16//124
f 64//125 41//125 12//125
f 32//126 11//126 42//126
f 42//127 17//127 45//127
f 21//128 65//128 45//128
