# Blender 4.1.1
# www.blender.org
mtllib Cube.103_Cube.111.mtl
o Cube.103_Cube.111
v 5.270245 5.229846 8.459034
v 7.656616 5.336525 9.763313
v 7.610364 5.365237 9.850139
v 5.238927 4.997880 8.517183
v 5.185750 5.005887 8.565662
v 7.579450 5.116980 9.891615
v 5.244440 5.241669 8.483706
v 6.427696 5.310678 9.174941
v 7.600347 5.194930 9.870010
v 5.245504 5.103580 8.483753
v 6.412003 5.191100 9.212288
v 6.458119 5.163627 9.129952
v 7.645874 5.349118 9.800873
v 5.272273 5.254190 8.536116
v 7.014764 5.335157 9.498375
v 7.651101 5.098618 9.864429
v 7.631469 5.280687 9.763583
v 5.810784 5.027607 8.924788
v 7.608148 5.092427 9.817554
v 5.221056 5.200024 8.531165
v 5.935855 5.292796 8.903960
v 6.518291 5.294413 9.138959
v 7.616414 5.298087 9.847377
v 7.614092 5.108440 9.866675
v 7.625255 5.157834 9.808771
v 7.190806 5.097646 9.680882
v 5.844378 5.012861 8.864425
v 5.215916 5.070472 8.571514
v 5.276593 5.171134 8.480470
v 6.422312 5.249424 9.189220
v 6.397001 5.135576 9.243740
v 6.995719 5.219831 9.541552
v 6.459061 5.227530 9.123604
v 5.864130 5.140180 8.819095
v 7.038972 5.191829 9.464486
v 5.185840 5.137827 8.528990
v 6.287528 5.043322 9.104778
v 6.579982 5.066938 9.306881
v 6.387140 5.304308 9.127613
v 5.859095 5.298751 8.816821
v 6.992155 5.342338 9.453444
v 5.921619 5.277190 8.821856
v 5.756227 5.018486 8.863441
v 7.010826 5.062217 9.525334
v 5.865880 5.206667 8.811081
v 5.851226 5.083952 8.846758
v 6.980840 5.159135 9.573153
v 5.890737 5.129247 8.964039
v 5.826584 5.227971 8.881394
v 6.994317 5.288578 9.539142
v 6.867852 5.126120 9.386861
v 5.206397 5.003963 8.526899
v 7.037275 5.324707 9.457972
vn -0.7275 -0.3034 -0.6155
vn 0.1219 0.9510 -0.2840
vn -0.3979 0.4986 0.7702
vn 0.1717 -0.9523 -0.2525
vn -0.1035 0.9820 0.1583
vn 0.3123 0.7785 -0.5445
vn 0.8179 0.0501 0.5732
vn 0.8538 -0.0189 0.5202
vn -0.1002 -0.9673 0.2330
vn -0.0753 -0.9708 0.2279
vn -0.2296 -0.8711 0.4341
vn -0.8780 -0.1276 -0.4613
vn -0.3213 -0.2673 -0.9084
vn -0.6325 -0.0851 -0.7698
vn 0.4747 -0.2250 -0.8509
vn 0.4755 -0.2183 -0.8522
vn -0.4998 0.2917 0.8155
vn 0.4457 -0.4058 -0.7979
vn 0.4871 -0.2992 -0.8205
vn 0.4788 -0.2541 -0.8404
vn 0.3341 0.6901 -0.6421
vn -0.4417 -0.0766 0.8939
vn 0.7267 -0.2746 -0.6297
vn -0.1106 -0.9658 0.2345
vn 0.4802 -0.2389 -0.8440
vn -0.4752 0.2392 0.8467
vn 0.4487 -0.3644 -0.8160
vn -0.4149 0.5307 0.7390
vn 0.4641 -0.1180 -0.8779
vn 0.9787 -0.1126 -0.1715
vn 0.4645 -0.3263 -0.8233
vn -0.0030 -0.9988 0.0480
vn -0.1716 0.9557 0.2390
vn 0.0928 0.9694 -0.2273
vn 0.0966 0.9645 -0.2460
vn -0.1798 0.9579 0.2239
vn 0.2982 0.7179 -0.6291
vn 0.0701 0.9789 -0.1918
vn 0.5114 0.2214 0.8304
vn -0.0400 -0.9825 0.1817
vn 0.5933 0.0633 0.8025
vn 0.8478 -0.3800 0.3699
vn -0.3927 -0.5126 0.7635
vn -0.0368 -0.9893 0.1414
vn -0.0251 -0.9878 0.1535
vn 0.4646 -0.3235 -0.8243
vn -0.7789 0.5614 0.2795
vn 0.1469 -0.0487 -0.9879
vn -0.6057 0.2135 0.7665
vn 0.4913 -0.1170 -0.8631
vn 0.4846 -0.2551 -0.8367
vn 0.4597 -0.2324 -0.8571
vn 0.4858 -0.2546 -0.8361
vn 0.4145 -0.5316 -0.7386
vn 0.4408 -0.4757 -0.7612
vn -0.4415 0.4972 0.7469
vn -0.4346 0.0866 0.8965
vn -0.4830 -0.1329 0.8655
vn -0.5060 0.0659 0.8600
vn -0.4836 0.0427 0.8743
vn -0.4447 0.4882 0.7510
vn -0.4887 0.3511 0.7987
vn -0.4326 0.3966 0.8096
vn -0.4087 0.6961 0.5903
vn -0.5227 0.0192 0.8523
vn -0.4530 0.2578 0.8534
vn -0.5176 0.1978 -0.8324
vn 0.1038 -0.9864 -0.1271
vn -0.4549 -0.2101 0.8654
vn 0.0940 0.9651 -0.2445
vn 0.3250 0.6571 -0.6802
vn 0.1322 0.9433 -0.3046
vn -0.3902 0.6974 0.6011
vn -0.4246 0.4404 0.7911
vn 0.4745 -0.2551 -0.8425
vn 0.4666 -0.0942 -0.8794
vn 0.8499 -0.1129 -0.5147
vn 0.0177 0.9888 -0.1482
vn -0.1259 0.9678 0.2180
vn 0.0496 0.9652 -0.2569
vn 0.0994 0.9339 -0.3435
vn 0.0526 -0.0301 0.9982
vn 0.0548 -0.9985 -0.0074
vn -0.1998 -0.8600 0.4695
vn 0.5003 -0.0929 -0.8609
vn 0.4722 -0.2583 -0.8428
vn 0.4849 -0.2532 -0.8371
vn 0.4633 -0.2128 -0.8603
vn 0.4848 -0.2910 -0.8248
vn 0.4224 -0.4764 -0.7712
vn -0.4363 0.5299 0.7272
vn -0.4600 0.3496 0.8162
vn -0.4962 0.1544 0.8543
vn -0.4813 0.0250 0.8762
vn -0.4765 0.3780 0.7937
vn -0.4934 0.2502 0.8330
vn -0.4326 0.3967 0.8096
vn -0.4762 0.2391 0.8462
vn -0.4660 0.3954 0.7915
vn -0.4441 0.0223 0.8957
vn -0.4222 -0.1515 -0.8937
vn -0.0183 -0.9897 0.1421
s 0
usemtl Bark
f 7//1 1//1 29//1
f 2//2 53//2 13//2
f 9//3 32//3 47//3
f 37//4 19//4 44//4
f 21//5 39//5 40//5
f 40//6 39//6 42//6
f 23//7 13//7 3//7
f 23//8 9//8 13//8
f 5//9 43//9 18//9
f 6//10 26//10 24//10
f 38//11 37//11 44//11
f 36//12 52//12 5//12
f 52//13 10//13 4//13
f 36//14 10//14 52//14
f 22//15 17//15 33//15
f 2//16 17//16 22//16
f 48//17 36//17 28//17
f 51//18 19//18 37//18
f 35//19 51//19 12//19
f 35//20 25//20 51//20
f 41//21 13//21 53//21
f 3//22 50//22 23//22
f 16//23 19//23 25//23
f 52//24 4//24 27//24
f 51//25 25//25 19//25
f 21//26 30//26 8//26
f 37//27 46//27 51//27
f 31//28 11//28 48//28
f 45//29 12//29 34//29
f 13//30 25//30 17//30
f 17//31 25//31 35//31
f 5//32 52//32 43//32
f 41//33 8//33 15//33
f 39//34 22//34 42//34
f 13//35 15//35 3//35
f 40//36 14//36 21//36
f 1//37 40//37 42//37
f 21//38 8//38 39//38
f 9//39 16//39 13//39
f 38//40 18//40 43//40
f 9//41 6//41 24//41
f 13//42 17//42 2//42
f 44//43 24//43 38//43
f 24//44 26//44 38//44
f 16//45 44//45 19//45
f 35//46 33//46 17//46
f 36//47 14//47 7//47
f 20//48 14//48 36//48
f 5//49 28//49 36//49
f 34//50 29//50 45//50
f 45//51 1//51 42//51
f 42//52 33//52 45//52
f 4//53 46//53 27//53
f 46//54 12//54 51//54
f 10//55 34//55 46//55
f 32//56 31//56 47//56
f 26//57 9//57 47//57
f 26//58 47//58 31//58
f 28//59 18//59 48//59
f 18//60 31//60 48//60
f 14//61 49//61 21//61
f 49//62 36//62 48//62
f 48//63 30//63 49//63
f 15//64 30//64 50//64
f 30//65 32//65 50//65
f 23//66 32//66 9//66
f 36//67 29//67 10//67
f 37//68 43//68 52//68
f 37//69 52//69 27//69
f 39//70 53//70 22//70
f 39//71 41//71 53//71
f 2//72 22//72 53//72
f 3//73 15//73 50//73
f 21//74 49//74 30//74
f 37//75 27//75 46//75
f 45//76 33//76 12//76
f 13//77 16//77 25//77
f 41//78 39//78 8//78
f 13//79 41//79 15//79
f 40//80 7//80 14//80
f 1//81 7//81 40//81
f 9//82 24//82 16//82
f 38//83 26//83 18//83
f 44//84 16//84 24//84
f 35//85 12//85 33//85
f 34//86 10//86 29//86
f 45//87 29//87 1//87
f 42//88 22//88 33//88
f 4//89 10//89 46//89
f 46//90 34//90 12//90
f 32//91 11//91 31//91
f 26//92 6//92 9//92
f 28//93 5//93 18//93
f 18//94 26//94 31//94
f 14//95 20//95 49//95
f 49//96 20//96 36//96
f 48//97 11//97 30//97
f 15//98 8//98 30//98
f 30//99 11//99 32//99
f 23//100 50//100 32//100
f 36//101 7//101 29//101
f 37//102 38//102 43//102
