# Blender 4.1.1
# www.blender.org
mtllib Cube.105_Cube.113.mtl
o Cube.105_Cube.113
v 7.480208 5.005316 10.110685
v 5.087904 4.912547 8.816248
v 5.078447 5.014441 8.821843
v 7.601496 5.026364 9.903280
v 7.621720 5.095610 9.909470
v 5.213659 5.018185 8.607341
v 7.485588 5.041380 10.119900
v 6.275247 5.035869 9.473599
v 5.165513 5.004119 8.674150
v 7.554745 5.014844 10.003356
v 6.334771 5.052687 9.363534
v 6.342096 4.954876 9.357216
v 5.076463 4.951961 8.815490
v 7.438623 5.073711 10.099228
v 5.686688 5.014875 9.152630
v 5.176569 4.955530 8.577197
v 5.135827 4.914995 8.778197
v 6.992005 5.084865 9.558110
v 5.230187 4.936714 8.606375
v 7.508003 5.085302 10.074051
v 6.767006 5.053943 9.744714
v 6.225402 4.956606 9.441981
v 5.108739 4.996384 8.764314
v 5.199787 4.978038 8.597827
v 5.186768 4.932989 8.658807
v 5.603660 5.034340 8.815823
v 6.994808 5.014284 9.558091
v 7.563235 5.097414 9.950597
v 7.497310 5.009058 10.050350
v 6.305399 5.039060 9.418228
v 6.363396 5.076278 9.309484
v 5.744598 5.039100 9.044986
v 6.311239 4.961110 9.413193
v 6.931042 4.990149 9.676442
v 5.752545 4.947073 9.037115
v 7.567916 5.089598 10.035253
v 6.545821 4.997507 9.327421
v 6.232133 5.023669 9.160544
v 6.327241 5.015422 9.501947
v 6.855407 5.020692 9.812538
v 5.716890 4.989900 9.184971
v 6.815530 4.989161 9.769932
v 7.061399 5.059212 9.594846
v 5.818486 4.988079 8.913568
v 6.898837 4.995062 9.734979
v 6.959737 5.009357 9.622581
v 5.775694 5.061777 8.986482
v 6.863730 5.096510 9.599021
v 6.893605 5.078137 9.738529
v 5.711707 5.050745 9.104284
v 5.947819 4.956153 9.074663
v 7.620421 5.052174 9.916135
v 5.688842 4.967509 9.152122
vn 0.9447 -0.2061 0.2550
vn -0.4758 -0.1214 0.8711
vn -0.2173 0.9435 0.2503
vn 0.4388 -0.4789 -0.7603
vn -0.4735 0.3707 0.7990
vn -0.4441 -0.4695 0.7631
vn -0.8721 0.0768 -0.4833
vn -0.8463 0.0011 -0.5328
vn 0.4854 0.0644 -0.8719
vn 0.4694 0.0467 -0.8817
vn 0.4659 0.3172 -0.8260
vn 0.9183 0.0331 0.3944
vn 0.7133 -0.6516 0.2582
vn 0.8151 -0.3429 0.4670
vn 0.0473 -0.9988 -0.0151
vn 0.0437 -0.9990 -0.0092
vn -0.0488 0.9943 0.0945
vn 0.1426 -0.9736 -0.1782
vn 0.0643 -0.9935 -0.0942
vn 0.0551 -0.9975 -0.0452
vn -0.3813 -0.5792 0.7205
vn 0.0644 0.9613 -0.2678
vn -0.2044 -0.9498 -0.2368
vn 0.4922 0.0712 -0.8676
vn 0.0476 -0.9984 -0.0315
vn -0.0526 0.9982 0.0289
vn 0.1259 -0.9825 -0.1371
vn -0.2090 0.9320 0.2961
vn 0.0111 -0.9959 0.0897
vn -0.6485 -0.6617 -0.3764
vn 0.0967 -0.9894 -0.1078
vn 0.4915 -0.1464 -0.8585
vn -0.4359 0.4682 0.7686
vn -0.4827 -0.0554 0.8740
vn -0.4764 -0.0739 0.8761
vn -0.4250 0.4601 0.7795
vn -0.3720 -0.5449 0.7514
vn -0.4824 -0.0124 0.8759
vn -0.8109 0.4809 -0.3335
vn 0.4643 -0.0121 -0.8856
vn -0.7850 0.3861 -0.4844
vn -0.6045 -0.1903 -0.7735
vn 0.2938 0.7447 -0.5993
vn 0.4797 -0.0490 -0.8761
vn 0.4655 -0.0445 -0.8840
vn 0.0956 -0.9899 -0.1051
vn 0.2255 0.7358 0.6385
vn 0.2639 -0.9146 0.3063
vn 0.0915 0.9920 0.0865
vn -0.0161 -0.9971 0.0748
vn 0.0498 -0.9975 -0.0498
vn 0.0650 -0.9978 -0.0135
vn 0.0483 -0.9976 -0.0499
vn 0.2097 -0.9316 -0.2968
vn 0.1688 -0.9534 -0.2501
vn -0.1740 0.9458 0.2741
vn -0.0250 0.9907 -0.1341
vn 0.1353 0.9478 -0.2888
vn 0.0546 0.9923 -0.1112
vn 0.0437 0.9885 -0.1445
vn -0.1684 0.9491 0.2661
vn -0.0816 0.9857 0.1473
vn -0.1525 0.9751 0.1611
vn -0.2443 0.8350 0.4931
vn 0.0941 0.9855 -0.1413
vn -0.0819 0.9961 0.0339
vn 0.6041 -0.4004 0.6890
vn 0.4643 -0.3455 -0.8155
vn 0.1527 0.9188 -0.3640
vn -0.4752 -0.0713 0.8770
vn -0.3438 -0.6129 0.7114
vn -0.4725 -0.1455 0.8692
vn -0.2634 0.8349 0.4832
vn -0.1743 0.9637 0.2025
vn 0.0597 -0.9973 -0.0437
vn -0.0024 -0.9940 0.1093
vn -0.4242 -0.8851 -0.1915
vn -0.4620 0.0526 0.8853
vn -0.4702 0.4297 0.7709
vn -0.4360 -0.0593 0.8980
vn -0.4282 -0.1632 0.8888
vn -0.3841 0.8071 -0.4483
vn 0.4660 -0.2223 -0.8564
vn 0.4241 0.3340 -0.8418
vn -0.0362 -0.9952 0.0909
vn 0.0633 -0.9970 -0.0454
vn 0.0487 -0.9977 -0.0481
vn 0.0534 -0.9986 0.0030
vn 0.0634 -0.9944 -0.0848
vn 0.1871 -0.9526 -0.2400
vn -0.1876 0.9328 0.3078
vn -0.1095 0.9856 0.1286
vn 0.0041 0.9993 -0.0380
vn 0.0502 0.9857 -0.1610
vn -0.1030 0.9805 0.1676
vn -0.0391 0.9980 0.0502
vn -0.0516 0.9982 0.0294
vn -0.1192 0.9765 0.1793
vn 0.0154 0.9827 -0.1845
vn 0.7284 -0.5662 0.3859
vn 0.4651 -0.0578 -0.8834
s 0
usemtl Bark
f 7//1 1//1 29//1
f 2//2 53//2 13//2
f 9//3 32//3 47//3
f 37//4 19//4 44//4
f 21//5 39//5 40//5
f 40//6 39//6 42//6
f 23//7 13//7 3//7
f 23//8 9//8 13//8
f 5//9 43//9 18//9
f 6//10 26//10 24//10
f 38//11 37//11 44//11
f 36//12 52//12 5//12
f 52//13 10//13 4//13
f 36//14 10//14 52//14
f 22//15 17//15 33//15
f 2//16 17//16 22//16
f 48//17 36//17 28//17
f 51//18 19//18 37//18
f 35//19 51//19 12//19
f 35//20 25//20 51//20
f 41//21 13//21 53//21
f 3//22 50//22 23//22
f 16//23 19//23 25//23
f 52//24 4//24 27//24
f 51//25 25//25 19//25
f 21//26 30//26 8//26
f 37//27 46//27 51//27
f 31//28 11//28 48//28
f 45//29 12//29 34//29
f 13//30 25//30 17//30
f 17//31 25//31 35//31
f 5//32 52//32 43//32
f 41//33 8//33 15//33
f 39//34 22//34 42//34
f 13//35 15//35 3//35
f 40//36 14//36 21//36
f 1//37 40//37 42//37
f 21//38 8//38 39//38
f 9//39 16//39 13//39
f 38//40 18//40 43//40
f 9//41 6//41 24//41
f 13//42 17//42 2//42
f 44//43 24//43 38//43
f 24//44 26//44 38//44
f 16//45 44//45 19//45
f 35//46 33//46 17//46
f 36//47 14//47 7//47
f 20//48 14//48 36//48
f 5//49 28//49 36//49
f 34//50 29//50 45//50
f 45//51 1//51 42//51
f 42//52 33//52 45//52
f 4//53 46//53 27//53
f 46//54 12//54 51//54
f 10//55 34//55 46//55
f 32//56 31//56 47//56
f 26//57 9//57 47//57
f 26//58 47//58 31//58
f 28//59 18//59 48//59
f 18//60 31//60 48//60
f 14//61 49//61 21//61
f 49//62 36//62 48//62
f 48//63 30//63 49//63
f 15//64 30//64 50//64
f 30//65 32//65 50//65
f 23//66 32//66 9//66
f 36//67 29//67 10//67
f 37//68 43//68 52//68
f 37//69 52//69 27//69
f 39//70 53//70 22//70
f 39//71 41//71 53//71
f 2//72 22//72 53//72
f 3//73 15//73 50//73
f 21//74 49//74 30//74
f 37//75 27//75 46//75
f 45//76 33//76 12//76
f 13//77 16//77 25//77
f 41//78 39//78 8//78
f 13//79 41//79 15//79
f 40//80 7//80 14//80
f 1//81 7//81 40//81
f 9//82 24//82 16//82
f 38//83 26//83 18//83
f 44//84 16//84 24//84
f 35//85 12//85 33//85
f 34//86 10//86 29//86
f 45//87 29//87 1//87
f 42//88 22//88 33//88
f 4//89 10//89 46//89
f 46//90 34//90 12//90
f 32//91 11//91 31//91
f 26//92 6//92 9//92
f 28//93 5//93 18//93
f 18//94 26//94 31//94
f 14//95 20//95 49//95
f 49//96 20//96 36//96
f 48//63 11//63 30//63
f 15//97 8//97 30//97
f 30//98 11//98 32//98
f 23//99 50//99 32//99
f 36//100 7//100 29//100
f 37//101 38//101 43//101
