# Blender 4.1.1
# www.blender.org
mtllib Cube.038_Cube.042.mtl
o Cube.038_Cube.042
v 1.786070 3.062658 -0.860218
v 1.780151 3.127434 -0.859645
v 1.780164 3.130016 -1.350790
v 1.704624 3.051620 -0.857023
v 1.698030 3.121943 -1.353745
v 1.785959 3.062789 -1.106347
v 1.787997 3.127570 -1.124781
v 1.784111 3.092896 -0.851828
v 1.718826 3.124720 -1.360632
v 1.695430 3.123941 -1.106347
v 1.738827 3.121465 -0.849836
v 1.700093 3.056855 -1.106347
v 1.746145 3.054282 -0.857461
v 1.743548 3.095094 -1.377145
v 1.745229 3.052355 -1.106347
v 1.695340 3.090691 -1.106347
v 1.740297 3.141185 -1.106347
v 1.788290 3.100693 -1.106347
v 1.786444 3.069654 -1.363713
v 1.777853 3.130346 -0.985526
v 1.695602 3.128342 -0.985526
v 1.758337 3.141157 -0.857036
v 1.703646 3.060613 -1.360179
v 1.706518 3.058429 -0.985526
v 1.698186 3.117944 -0.850561
v 1.725396 3.054459 -0.858903
v 1.791166 3.065687 -0.985526
v 1.783576 3.096437 -1.361063
v 1.790919 3.131155 -1.227627
v 1.756482 3.127721 -1.372637
v 1.695793 3.125272 -1.227167
v 1.718500 3.124813 -0.857981
v 1.701337 3.060585 -1.227167
v 1.764662 3.066303 -1.362383
v 1.723258 3.080004 -0.857022
v 1.741401 3.062124 -0.985526
v 1.727073 3.058711 -1.106347
v 1.764359 3.062318 -1.106347
v 1.702073 3.101168 -0.976565
v 1.700513 3.107078 -1.106347
v 1.700200 3.078665 -1.106347
v 1.737528 3.134949 -0.985526
v 1.742752 3.130607 -1.227349
v 1.759918 3.129736 -1.106347
v 1.720121 3.122504 -1.106347
v 1.790643 3.100700 -1.227480
v 1.784458 3.078744 -1.106347
v 1.787827 3.113720 -1.228485
v 1.786348 3.084999 -1.227206
v 1.794864 3.082570 -0.985526
v 1.720137 3.140152 -1.227462
v 1.773488 3.133752 -1.228463
v 1.762157 3.132143 -0.985526
v 1.701861 3.090911 -1.252029
v 1.702280 3.113550 -1.227167
v 1.752796 3.065660 -1.242966
v 1.723403 3.065164 -1.227232
v 1.721285 3.065285 -0.985526
v 1.762424 3.094232 -0.859889
v 1.699137 3.109591 -1.355021
v 1.748143 3.078210 -1.357979
v 1.780320 3.115123 -1.375548
v 1.760452 3.065578 -0.985526
v 1.701909 3.077770 -0.985526
v 1.720550 3.138939 -0.985526
v 1.786379 3.105556 -0.972412
vn 0.9472 0.3205 -0.0099
vn -0.9724 -0.2317 -0.0266
vn 0.2923 -0.6817 -0.6707
vn -0.3068 0.0467 -0.9506
vn 0.1518 -0.2239 0.9627
vn 0.9461 0.3199 0.0514
vn -0.9263 -0.3743 -0.0420
vn -0.9998 0.0030 -0.0174
vn -0.9997 -0.0088 0.0248
vn -0.9729 -0.2314 0.0008
vn 0.4611 -0.8853 -0.0607
vn 0.1526 -0.9882 0.0098
vn 0.0987 -0.0648 0.9930
vn -0.0698 -0.0791 0.9944
vn -0.0601 0.2719 -0.9604
vn 0.0075 0.1054 -0.9944
vn 0.3289 -0.5421 -0.7733
vn -0.9998 -0.0010 0.0209
vn 0.9997 0.0202 0.0135
vn -0.0043 -0.9981 -0.0610
vn 0.0035 -0.9997 -0.0240
vn 0.3639 0.7992 -0.4784
vn -0.4857 -0.7104 -0.5094
vn 0.3678 -0.0245 0.9296
vn -0.3301 -0.9431 -0.0403
vn 0.0231 -0.9994 -0.0266
vn -0.9536 0.3010 0.0022
vn -0.9953 -0.0949 -0.0181
vn -0.9999 0.0049 -0.0101
vn -0.6939 0.7159 0.0778
vn 0.5029 0.8619 -0.0651
vn 0.0581 0.9982 0.0112
vn 0.9645 -0.2635 0.0187
vn 0.9774 0.2091 -0.0295
vn 0.9842 -0.1756 0.0218
vn 0.9897 0.1343 -0.0492
vn 0.9818 -0.1700 -0.0842
vn 0.9954 0.0936 0.0204
vn 0.9961 0.0432 0.0768
vn 0.9941 0.1076 -0.0114
vn 0.9635 -0.2643 -0.0425
vn 0.9739 -0.2133 -0.0771
vn 0.9383 0.3459 0.0008
vn -0.6755 0.7296 0.1062
vn -0.5215 0.8526 -0.0316
vn 0.3870 0.9155 -0.1099
vn 0.1058 0.9934 0.0444
vn -0.0653 0.9973 -0.0340
vn -0.1027 0.9944 -0.0255
vn 0.5282 0.8480 -0.0438
vn 0.1137 0.9933 -0.0219
vn 0.5032 0.8624 0.0560
vn -0.9570 -0.2885 -0.0294
vn -0.9957 -0.0927 0.0095
vn -0.9954 -0.0920 0.0273
vn -0.9729 -0.2313 0.0012
vn 0.0685 -0.9961 -0.0553
vn -0.9533 0.3009 0.0252
vn 0.0935 -0.9954 0.0202
vn 0.4194 -0.9033 -0.0908
vn 0.0148 -0.9999 -0.0039
vn 0.4201 -0.9048 0.0694
vn -0.3297 -0.9418 0.0657
vn 0.0599 0.0362 0.9975
vn -0.3339 0.1715 0.9269
vn 0.0856 -0.0530 0.9949
vn -0.1581 0.1420 -0.9771
vn -0.3500 -0.2714 0.8966
vn -0.3589 0.2659 -0.8947
vn -0.3219 0.0690 -0.9443
vn 0.3262 0.0548 0.9437
vn -0.2933 0.9528 0.0790
vn -0.0401 0.1523 -0.9875
vn 0.2007 -0.9776 -0.0638
vn -0.3747 -0.0199 0.9269
vn 0.4616 -0.8862 0.0388
vn 0.0035 -0.9997 0.0238
vn -0.9271 -0.3747 0.0103
vn -0.9713 -0.2315 0.0547
vn 0.2274 0.9675 0.1108
vn 0.2268 0.9650 -0.1321
vn 0.0581 0.9976 -0.0364
vn 0.9922 0.1209 0.0313
vn 0.9335 0.3533 0.0610
vn -0.1548 -0.9848 -0.0792
vn -0.0361 -0.9944 -0.0988
vn 0.0218 -0.9994 -0.0263
vn -0.9967 0.0673 -0.0445
vn -0.9999 0.0085 -0.0107
vn 0.1129 0.9914 -0.0662
vn -0.1010 0.9947 0.0215
vn -0.5165 0.8474 0.1234
vn 0.9851 -0.1720 0.0065
vn 0.9995 0.0242 0.0194
vn 0.9767 0.2067 -0.0583
vn 0.9944 0.0933 -0.0499
vn 1.0000 -0.0085 0.0017
vn 0.9763 -0.2138 0.0345
vn 0.9946 0.0936 -0.0451
vn 0.9820 -0.1714 -0.0792
vn 0.3881 0.9188 -0.0724
vn -0.1678 0.9795 -0.1118
vn 0.1454 0.9886 0.0386
vn 0.1484 0.9887 -0.0221
vn -0.0892 0.9955 -0.0311
vn 0.1137 0.9933 0.0209
vn 0.0671 0.9976 -0.0150
vn 0.1132 0.9933 -0.0219
vn -0.8749 -0.4842 -0.0080
vn -0.8750 -0.4842 -0.0027
vn -0.9574 -0.2886 0.0119
vn 0.2030 -0.9788 -0.0281
vn 0.2032 -0.9791 0.0033
vn 0.1308 -0.9901 -0.0505
vn 0.0686 -0.9976 0.0093
vn -0.1550 -0.9868 0.0463
vn 0.0614 0.0356 0.9975
vn -0.0745 0.0903 -0.9931
vn 0.1277 -0.0839 0.9883
vn -0.3892 0.9162 0.0952
vn 0.1780 -0.9818 -0.0667
vn 0.1777 -0.9804 0.0849
vn 0.0218 -0.9994 0.0277
vn -0.9985 -0.0132 0.0529
vn -0.9999 0.0049 0.0142
vn 0.1238 0.9876 0.0970
vn -0.6792 0.7336 0.0223
vn -0.3880 0.9134 -0.1229
s 0
usemtl Fence
f 20//1 2//1 66//1
f 24//2 4//2 64//2
f 14//3 28//3 61//3
f 60//4 9//4 30//4
f 59//5 11//5 35//5
f 66//6 8//6 50//6
f 54//7 41//7 16//7
f 23//8 33//8 54//8
f 60//9 54//9 55//9
f 39//10 25//10 21//10
f 56//11 38//11 15//11
f 34//12 19//12 56//12
f 35//13 4//13 26//13
f 13//14 35//14 26//14
f 23//15 61//15 34//15
f 60//16 61//16 23//16
f 14//17 62//17 28//17
f 64//18 4//18 39//18
f 7//19 66//19 18//19
f 26//20 36//20 13//20
f 63//21 27//21 1//21
f 30//22 3//22 62//22
f 60//23 14//23 61//23
f 59//24 22//24 11//24
f 57//25 15//25 37//25
f 6//26 56//26 19//26
f 55//27 16//27 40//27
f 39//28 4//28 25//28
f 41//29 33//29 12//29
f 22//30 42//30 11//30
f 44//31 43//31 17//31
f 45//32 31//32 10//32
f 18//33 49//33 46//33
f 7//34 46//34 48//34
f 48//35 29//35 7//35
f 48//36 28//36 62//36
f 48//37 3//37 29//37
f 6//38 49//38 47//38
f 1//39 50//39 8//39
f 19//40 28//40 49//40
f 28//41 46//41 49//41
f 27//42 47//42 50//42
f 50//43 18//43 66//43
f 17//44 51//44 45//44
f 51//45 5//45 31//45
f 9//46 51//46 43//46
f 7//47 52//47 44//47
f 52//48 3//48 30//48
f 52//49 9//49 43//49
f 2//50 53//50 22//50
f 20//51 44//51 53//51
f 42//52 44//52 17//52
f 10//53 55//53 40//53
f 60//54 23//54 54//54
f 55//55 5//55 60//55
f 21//56 40//56 39//56
f 12//57 57//57 37//57
f 40//58 16//58 39//58
f 57//59 23//59 34//59
f 26//60 24//60 58//60
f 34//61 56//61 57//61
f 24//62 37//62 58//62
f 36//63 37//63 15//63
f 13//64 59//64 35//64
f 8//65 2//65 59//65
f 2//66 22//66 59//66
f 28//67 34//67 61//67
f 1//68 8//68 59//68
f 60//69 30//69 14//69
f 60//70 5//70 9//70
f 25//71 35//71 32//71
f 32//72 21//72 25//72
f 14//73 30//73 62//73
f 13//74 63//74 1//74
f 11//75 32//75 35//75
f 63//76 15//76 38//76
f 63//77 6//77 27//77
f 64//78 16//78 41//78
f 64//79 12//79 24//79
f 32//80 42//80 65//80
f 42//81 45//81 65//81
f 21//82 45//82 10//82
f 66//83 2//83 8//83
f 7//84 20//84 66//84
f 26//85 58//85 36//85
f 57//86 56//86 15//86
f 6//87 38//87 56//87
f 55//88 54//88 16//88
f 41//89 54//89 33//89
f 22//90 53//90 42//90
f 44//91 52//91 43//91
f 45//92 51//92 31//92
f 18//93 47//93 49//93
f 7//94 18//94 46//94
f 48//95 46//95 28//95
f 48//96 62//96 3//96
f 6//97 19//97 49//97
f 1//98 27//98 50//98
f 27//99 6//99 47//99
f 50//100 47//100 18//100
f 17//101 43//101 51//101
f 51//102 9//102 5//102
f 7//103 29//103 52//103
f 52//104 29//104 3//104
f 52//105 30//105 9//105
f 2//106 20//106 53//106
f 20//107 7//107 44//107
f 42//108 53//108 44//108
f 10//109 31//109 55//109
f 55//110 31//110 5//110
f 21//111 10//111 40//111
f 12//112 33//112 57//112
f 57//113 33//113 23//113
f 26//114 4//114 24//114
f 24//115 12//115 37//115
f 36//116 58//116 37//116
f 13//117 1//117 59//117
f 28//118 19//118 34//118
f 25//119 4//119 35//119
f 32//120 65//120 21//120
f 13//121 36//121 63//121
f 63//122 36//122 15//122
f 63//123 38//123 6//123
f 64//124 39//124 16//124
f 64//125 41//125 12//125
f 32//126 11//126 42//126
f 42//127 17//127 45//127
f 21//128 65//128 45//128
