# Blender 4.1.1
# www.blender.org
mtllib Cube.056_Cube.060.mtl
o Cube.056_Cube.060
v -2.712120 5.924063 14.015982
v -2.858730 5.925498 14.116091
v -3.603731 5.727974 13.019360
v -2.681992 5.703650 14.046072
v -3.589604 5.504012 13.040394
v -3.082817 5.824453 13.464711
v -3.258058 5.839592 13.518395
v -2.768334 5.930171 14.080528
v -3.606342 5.557830 13.019046
v -3.221842 5.597416 13.598974
v -2.830283 5.816875 14.149158
v -3.069108 5.592225 13.497334
v -2.688810 5.815715 14.029009
v -3.563793 5.609751 12.926224
v -3.058963 5.712284 13.468895
v -3.146135 5.588393 13.549755
v -3.261205 5.722494 13.602882
v -3.169123 5.840725 13.519741
v -3.485759 5.723689 12.897943
v -3.054790 5.869287 13.839441
v -3.050039 5.647806 13.876144
v -2.885998 5.871577 14.152790
v -3.459662 5.500309 12.932404
v -2.890883 5.658669 13.767300
v -2.823261 5.706477 14.161921
v -2.691332 5.759441 14.036048
v -2.907602 5.887974 13.737226
v -3.542743 5.724125 12.944943
v -3.421000 5.806879 13.291841
v -3.631326 5.654934 12.978429
v -3.406693 5.549973 13.330037
v -2.850116 5.759867 14.145674
v -3.259426 5.547787 13.231525
v -3.476076 5.664827 12.906467
v -2.746659 5.761204 14.079140
v -2.899376 5.753351 13.755949
v -3.073395 5.665194 13.487069
v -3.081692 5.766307 13.474430
v -2.974698 5.661633 13.852842
v -3.183457 5.606616 13.571539
v -3.118766 5.598272 13.529593
v -3.065180 5.762175 13.865710
v -3.419226 5.677456 13.314884
v -3.235185 5.772177 13.576454
v -3.218626 5.663363 13.584937
v -3.351437 5.798154 13.247183
v -3.119140 5.824636 13.489073
v -3.382588 5.793621 13.265577
v -3.315266 5.782581 13.226606
v -2.946052 5.902365 13.760454
v -3.441073 5.619182 13.339680
v -3.428134 5.760400 13.302223
v -3.058846 5.827595 13.849676
v -3.365888 5.547167 13.220493
v -3.380020 5.564304 13.309540
v -3.294876 5.680982 13.178823
v -3.269999 5.608245 13.227521
v -2.906527 5.700148 13.770334
v -2.783460 5.869014 14.074903
v -3.563406 5.503210 13.018699
v -3.496520 5.625373 12.941941
v -3.607079 5.714467 12.941740
v -2.907286 5.805439 13.751879
v -2.934908 5.651395 13.798178
v -3.074223 5.717620 13.879812
v -2.978631 5.890935 13.827986
vn -0.2736 0.9618 -0.0015
vn 0.1795 -0.9835 0.0242
vn 0.1987 0.1226 -0.9724
vn -0.5629 -0.4380 -0.7009
vn 0.7175 0.2701 0.6421
vn -0.2393 0.9697 0.0487
vn 0.2899 -0.9542 -0.0740
vn -0.0113 -0.9864 0.1641
vn 0.0219 -0.9811 0.1923
vn 0.1943 -0.9798 0.0469
vn 0.7047 0.3592 -0.6119
vn 0.8297 0.0561 -0.5553
vn 0.6016 0.2377 0.7626
vn 0.6143 0.0708 0.7859
vn -0.7564 -0.1748 -0.6304
vn -0.6362 -0.1295 -0.7605
vn 0.0256 0.1569 -0.9873
vn 0.0132 -0.9810 0.1933
vn -0.0103 0.9879 -0.1546
vn 0.7991 -0.1097 -0.5911
vn 0.8207 -0.0968 -0.5630
vn -0.9308 0.3647 -0.0233
vn 0.3122 -0.6221 -0.7180
vn 0.5327 0.4971 0.6849
vn 0.7648 -0.4222 -0.4867
vn 0.8190 -0.0779 -0.5684
vn -0.2491 -0.9092 0.3337
vn 0.0700 -0.9915 0.1096
vn -0.0089 -0.9852 0.1710
vn -0.5538 -0.6022 0.5751
vn -0.7554 0.5688 0.3255
vn -0.8267 0.1554 0.5408
vn 0.2293 0.9266 -0.2981
vn -0.1916 0.9779 -0.0835
vn 0.1578 0.9550 -0.2513
vn -0.1400 0.9799 -0.1424
vn 0.0946 0.9375 -0.3349
vn -0.0677 0.9918 -0.1084
vn 0.0054 0.9960 -0.0895
vn -0.0969 0.9872 -0.1266
vn 0.1962 0.9165 -0.3487
vn 0.1346 0.9266 -0.3512
vn -0.2889 0.9571 0.0226
vn -0.5495 -0.5786 0.6027
vn -0.7283 -0.4355 0.5290
vn -0.8247 0.4532 0.3384
vn -0.8043 0.2068 0.5570
vn -0.8507 0.0272 0.5250
vn -0.8435 -0.0086 0.5370
vn -0.7320 0.5955 0.3310
vn -0.8408 0.2048 0.5011
vn -0.6889 0.5870 0.4252
vn 0.2252 -0.9742 -0.0116
vn 0.0834 -0.9875 0.1335
vn 0.0927 -0.9846 0.1484
vn 0.1944 -0.9798 0.0473
vn 0.8005 -0.0371 -0.5982
vn -0.2364 -0.9055 0.3525
vn 0.8415 -0.0012 -0.5403
vn 0.7031 0.3119 -0.6390
vn 0.8320 -0.0827 -0.5486
vn 0.7927 0.3362 -0.5085
vn 0.8222 -0.4060 -0.3990
vn 0.5198 0.2100 0.8281
vn 0.3683 -0.1751 0.9131
vn 0.5928 0.2263 0.7729
vn -0.6571 -0.2864 -0.6973
vn 0.7211 -0.2382 0.6506
vn -0.7149 -0.4598 -0.5268
vn -0.5778 -0.4498 -0.6810
vn 0.4743 0.4659 0.7470
vn -0.7510 -0.1849 0.6339
vn -0.6716 -0.1708 -0.7210
vn 0.7802 0.0935 -0.6185
vn 0.5281 -0.2336 0.8164
vn 0.7604 0.3743 -0.5308
vn 0.8471 -0.0897 -0.5238
vn 0.3190 -0.9472 -0.0310
vn 0.2241 -0.9703 0.0909
vn -0.7462 0.3338 0.5760
vn -0.8780 0.2970 0.3753
vn -0.8524 0.1483 0.5014
vn -0.0844 0.9929 -0.0840
vn -0.2619 0.9620 0.0768
vn 0.7780 -0.2593 -0.5722
vn 0.7751 -0.1464 -0.6146
vn 0.8192 -0.0791 -0.5680
vn -0.0798 -0.9811 0.1761
vn -0.0121 -0.9849 0.1726
vn -0.8637 0.1973 0.4639
vn -0.8178 -0.0000 0.5754
vn -0.6384 -0.4081 0.6526
vn 0.1462 0.9539 -0.2621
vn -0.0104 0.9890 -0.1475
vn -0.2055 0.9727 -0.1082
vn -0.1062 0.9804 -0.1660
vn 0.0072 0.9836 -0.1800
vn 0.1966 0.9453 -0.2602
vn -0.1037 0.9813 -0.1620
vn 0.0986 0.9383 -0.3316
vn -0.8067 0.4602 0.3707
vn -0.8786 -0.0870 0.4695
vn -0.8036 0.2445 0.5426
vn -0.8371 0.2385 0.4923
vn -0.8476 0.0039 0.5306
vn -0.8172 0.2111 0.5363
vn -0.8406 0.1604 0.5174
vn -0.8408 0.2043 0.5013
vn 0.4003 -0.9092 -0.1148
vn 0.4032 -0.9084 -0.1105
vn 0.2481 -0.9685 0.0223
vn 0.8009 0.1010 -0.5903
vn 0.8185 0.1057 -0.5647
vn 0.7980 0.0254 -0.6021
vn 0.8373 -0.0276 -0.5460
vn 0.8489 -0.2412 -0.4703
vn 0.5203 0.2114 0.8274
vn -0.6229 -0.2115 -0.7532
vn 0.6148 0.2637 0.7433
vn -0.7115 -0.2803 0.6443
vn 0.7821 0.0704 -0.6192
vn 0.8646 0.0927 -0.4939
vn 0.8490 -0.0711 -0.5236
vn 0.0410 -0.9763 0.2127
vn 0.0046 -0.9816 0.1910
vn -0.7705 0.2317 0.5938
vn -0.5991 -0.5943 0.5366
vn -0.8295 -0.3117 0.4635
s 0
usemtl Fence2
f 20//1 2//1 66//1
f 24//2 4//2 64//2
f 14//3 28//3 61//3
f 60//4 9//4 30//4
f 59//5 11//5 35//5
f 66//6 8//6 50//6
f 54//7 41//7 16//7
f 23//8 33//8 54//8
f 60//9 54//9 55//9
f 39//10 25//10 21//10
f 56//11 38//11 15//11
f 34//12 19//12 56//12
f 35//13 4//13 26//13
f 13//14 35//14 26//14
f 23//15 61//15 34//15
f 60//16 61//16 23//16
f 14//17 62//17 28//17
f 64//18 4//18 39//18
f 7//19 66//19 18//19
f 26//20 36//20 13//20
f 63//21 27//21 1//21
f 30//22 3//22 62//22
f 60//23 14//23 61//23
f 59//24 22//24 11//24
f 57//25 15//25 37//25
f 6//26 56//26 19//26
f 55//27 16//27 40//27
f 39//28 4//28 25//28
f 41//29 33//29 12//29
f 22//30 42//30 11//30
f 44//31 43//31 17//31
f 45//32 31//32 10//32
f 18//33 49//33 46//33
f 7//34 46//34 48//34
f 48//35 29//35 7//35
f 48//36 28//36 62//36
f 48//37 3//37 29//37
f 6//38 49//38 47//38
f 1//39 50//39 8//39
f 19//40 28//40 49//40
f 28//41 46//41 49//41
f 27//42 47//42 50//42
f 50//43 18//43 66//43
f 17//44 51//44 45//44
f 51//45 5//45 31//45
f 9//46 51//46 43//46
f 7//47 52//47 44//47
f 52//48 3//48 30//48
f 52//49 9//49 43//49
f 2//50 53//50 22//50
f 20//51 44//51 53//51
f 42//52 44//52 17//52
f 10//53 55//53 40//53
f 60//54 23//54 54//54
f 55//55 5//55 60//55
f 21//56 40//56 39//56
f 12//57 57//57 37//57
f 40//58 16//58 39//58
f 57//59 23//59 34//59
f 26//60 24//60 58//60
f 34//61 56//61 57//61
f 24//62 37//62 58//62
f 36//63 37//63 15//63
f 13//64 59//64 35//64
f 8//65 2//65 59//65
f 2//66 22//66 59//66
f 28//67 34//67 61//67
f 1//68 8//68 59//68
f 60//69 30//69 14//69
f 60//70 5//70 9//70
f 25//71 35//71 32//71
f 32//72 21//72 25//72
f 14//73 30//73 62//73
f 13//74 63//74 1//74
f 11//75 32//75 35//75
f 63//76 15//76 38//76
f 63//77 6//77 27//77
f 64//78 16//78 41//78
f 64//79 12//79 24//79
f 32//80 42//80 65//80
f 42//81 45//81 65//81
f 21//82 45//82 10//82
f 66//83 2//83 8//83
f 7//84 20//84 66//84
f 26//85 58//85 36//85
f 57//86 56//86 15//86
f 6//87 38//87 56//87
f 55//88 54//88 16//88
f 41//89 54//89 33//89
f 22//90 53//90 42//90
f 44//91 52//91 43//91
f 45//92 51//92 31//92
f 18//93 47//93 49//93
f 7//94 18//94 46//94
f 48//95 46//95 28//95
f 48//96 62//96 3//96
f 6//97 19//97 49//97
f 1//98 27//98 50//98
f 27//99 6//99 47//99
f 50//100 47//100 18//100
f 17//101 43//101 51//101
f 51//102 9//102 5//102
f 7//103 29//103 52//103
f 52//104 29//104 3//104
f 52//105 30//105 9//105
f 2//106 20//106 53//106
f 20//107 7//107 44//107
f 42//108 53//108 44//108
f 10//109 31//109 55//109
f 55//110 31//110 5//110
f 21//111 10//111 40//111
f 12//112 33//112 57//112
f 57//113 33//113 23//113
f 26//114 4//114 24//114
f 24//115 12//115 37//115
f 36//116 58//116 37//116
f 13//117 1//117 59//117
f 28//118 19//118 34//118
f 25//119 4//119 35//119
f 32//120 65//120 21//120
f 13//121 36//121 63//121
f 63//122 36//122 15//122
f 63//123 38//123 6//123
f 64//124 39//124 16//124
f 64//125 41//125 12//125
f 32//126 11//126 42//126
f 42//127 17//127 45//127
f 21//128 65//128 45//128
