# Blender 4.1.1
# www.blender.org
mtllib Cube.056_Cube.060.mtl
o Cube.056_Cube.060
v -1.147663 1.632271 -1.255071
v -1.201381 1.668951 -1.255597
v -1.474351 1.267106 -1.183224
v -1.136624 1.643296 -1.174311
v -1.469175 1.274813 -1.101164
v -1.283487 1.430284 -1.218574
v -1.347696 1.449954 -1.224121
v -1.168260 1.655921 -1.257309
v -1.475308 1.266991 -1.120883
v -1.334426 1.479478 -1.135387
v -1.190958 1.681067 -1.215797
v -1.278464 1.442237 -1.133485
v -1.139122 1.637044 -1.215372
v -1.459718 1.232981 -1.139907
v -1.274747 1.431817 -1.177475
v -1.306687 1.461444 -1.132081
v -1.348849 1.480910 -1.181216
v -1.315110 1.450447 -1.224536
v -1.431126 1.222619 -1.181654
v -1.273218 1.567586 -1.235001
v -1.271477 1.581034 -1.153850
v -1.211372 1.682398 -1.235840
v -1.421564 1.235245 -1.099807
v -1.213162 1.541153 -1.157830
v -1.188385 1.685743 -1.175347
v -1.140046 1.639623 -1.194753
v -1.219288 1.530134 -1.241848
v -1.452005 1.239840 -1.181814
v -1.407398 1.366944 -1.212135
v -1.484462 1.252109 -1.156462
v -1.402156 1.380939 -1.118004
v -1.198225 1.679790 -1.194909
v -1.348197 1.344844 -1.117203
v -1.427578 1.225742 -1.160087
v -1.160318 1.655412 -1.195399
v -1.216274 1.536994 -1.192522
v -1.280035 1.438476 -1.160221
v -1.283075 1.433845 -1.197269
v -1.243872 1.572496 -1.158916
v -1.320362 1.469426 -1.138758
v -1.296659 1.454057 -1.135701
v -1.277025 1.577211 -1.195755
v -1.406748 1.375387 -1.164714
v -1.339315 1.471227 -1.199420
v -1.333248 1.474335 -1.159550
v -1.381910 1.350581 -1.208938
v -1.296796 1.439210 -1.218641
v -1.393324 1.357321 -1.207277
v -1.368657 1.343042 -1.203232
v -1.233376 1.538645 -1.247121
v -1.414753 1.384472 -1.143362
v -1.410012 1.370748 -1.195105
v -1.274704 1.571336 -1.219725
v -1.387205 1.340802 -1.116976
v -1.392383 1.373429 -1.123255
v -1.361186 1.325534 -1.166006
v -1.352071 1.343377 -1.139355
v -1.218894 1.542265 -1.173028
v -1.173802 1.653860 -1.234901
v -1.459576 1.266864 -1.100870
v -1.435069 1.238740 -1.145631
v -1.475578 1.238666 -1.178275
v -1.219172 1.535503 -1.211607
v -1.229293 1.552467 -1.155165
v -1.280338 1.582378 -1.179430
v -1.245313 1.563389 -1.242933
vn -0.2736 -0.0015 -0.9618
vn 0.1795 0.0242 0.9835
vn 0.1987 -0.9724 -0.1226
vn -0.5629 -0.7009 0.4380
vn 0.7175 0.6421 -0.2701
vn -0.2394 0.0487 -0.9697
vn 0.2899 -0.0740 0.9542
vn -0.0113 0.1641 0.9864
vn 0.0219 0.1923 0.9811
vn 0.1943 0.0469 0.9798
vn 0.7047 -0.6119 -0.3592
vn 0.8297 -0.5553 -0.0561
vn 0.6016 0.7626 -0.2377
vn 0.6143 0.7859 -0.0708
vn -0.7564 -0.6304 0.1748
vn -0.6362 -0.7605 0.1295
vn 0.0256 -0.9873 -0.1569
vn 0.0132 0.1933 0.9810
vn -0.0102 -0.1546 -0.9879
vn 0.7991 -0.5911 0.1097
vn 0.8208 -0.5630 0.0968
vn -0.9308 -0.0233 -0.3648
vn 0.3122 -0.7180 0.6221
vn 0.5327 0.6849 -0.4971
vn 0.7648 -0.4867 0.4222
vn 0.8190 -0.5684 0.0779
vn -0.2491 0.3337 0.9092
vn 0.0700 0.1096 0.9915
vn -0.0089 0.1711 0.9852
vn -0.5537 0.5751 0.6022
vn -0.7554 0.3255 -0.5687
vn -0.8267 0.5408 -0.1554
vn 0.2293 -0.2981 -0.9266
vn -0.1916 -0.0834 -0.9779
vn 0.1578 -0.2514 -0.9550
vn -0.1400 -0.1424 -0.9799
vn 0.0946 -0.3349 -0.9375
vn -0.0677 -0.1084 -0.9918
vn 0.0054 -0.0895 -0.9960
vn -0.0969 -0.1266 -0.9872
vn 0.1962 -0.3487 -0.9165
vn 0.1346 -0.3512 -0.9266
vn -0.2889 0.0226 -0.9571
vn -0.5496 0.6027 0.5786
vn -0.7283 0.5290 0.4355
vn -0.8247 0.3384 -0.4532
vn -0.8043 0.5570 -0.2068
vn -0.8507 0.5250 -0.0272
vn -0.8435 0.5370 0.0086
vn -0.7320 0.3310 -0.5955
vn -0.8408 0.5011 -0.2048
vn -0.6889 0.4252 -0.5870
vn 0.2252 -0.0116 0.9742
vn 0.0834 0.1335 0.9875
vn 0.0927 0.1484 0.9846
vn 0.1944 0.0473 0.9798
vn 0.8005 -0.5982 0.0371
vn -0.2364 0.3525 0.9055
vn 0.8415 -0.5403 0.0012
vn 0.7031 -0.6390 -0.3119
vn 0.8320 -0.5486 0.0827
vn 0.7927 -0.5085 -0.3362
vn 0.8222 -0.3990 0.4060
vn 0.5198 0.8281 -0.2100
vn 0.3683 0.9131 0.1751
vn 0.5928 0.7729 -0.2263
vn -0.6572 -0.6972 0.2864
vn 0.7211 0.6506 0.2382
vn -0.7149 -0.5268 0.4598
vn -0.5778 -0.6810 0.4498
vn 0.4743 0.7469 -0.4659
vn -0.7510 0.6339 0.1849
vn -0.6716 -0.7210 0.1708
vn 0.7802 -0.6185 -0.0935
vn 0.5281 0.8164 0.2336
vn 0.7604 -0.5308 -0.3743
vn 0.8471 -0.5237 0.0897
vn 0.3190 -0.0311 0.9472
vn 0.2241 0.0909 0.9703
vn -0.7462 0.5760 -0.3337
vn -0.8780 0.3753 -0.2970
vn -0.8524 0.5014 -0.1483
vn -0.0844 -0.0840 -0.9929
vn -0.2619 0.0768 -0.9620
vn 0.7780 -0.5722 0.2593
vn 0.7751 -0.6146 0.1464
vn 0.8192 -0.5680 0.0791
vn -0.0799 0.1761 0.9811
vn -0.0122 0.1726 0.9849
vn -0.8637 0.4639 -0.1973
vn -0.8178 0.5754 -0.0000
vn -0.6384 0.6526 0.4081
vn 0.1462 -0.2621 -0.9539
vn -0.0104 -0.1475 -0.9890
vn -0.2054 -0.1082 -0.9727
vn -0.1062 -0.1660 -0.9804
vn 0.0072 -0.1800 -0.9836
vn 0.1966 -0.2602 -0.9453
vn -0.1037 -0.1620 -0.9813
vn 0.0986 -0.3316 -0.9383
vn -0.8067 0.3707 -0.4602
vn -0.8786 0.4695 0.0870
vn -0.8036 0.5426 -0.2446
vn -0.8371 0.4923 -0.2385
vn -0.8476 0.5306 -0.0039
vn -0.8172 0.5363 -0.2111
vn -0.8406 0.5174 -0.1604
vn -0.8408 0.5013 -0.2043
vn 0.4003 -0.1148 0.9092
vn 0.4032 -0.1105 0.9084
vn 0.2481 0.0223 0.9685
vn 0.8009 -0.5903 -0.1010
vn 0.8185 -0.5647 -0.1057
vn 0.7980 -0.6021 -0.0254
vn 0.8373 -0.5460 0.0276
vn 0.8489 -0.4703 0.2413
vn 0.5203 0.8274 -0.2114
vn -0.6229 -0.7532 0.2115
vn 0.6148 0.7433 -0.2637
vn -0.7115 0.6443 0.2803
vn 0.7821 -0.6192 -0.0704
vn 0.8646 -0.4939 -0.0927
vn 0.8490 -0.5236 0.0711
vn 0.0410 0.2127 0.9763
vn 0.0045 0.1910 0.9816
vn -0.7705 0.5938 -0.2318
vn -0.5991 0.5366 0.5943
vn -0.8294 0.4635 0.3117
s 0
usemtl Fence2
f 20//1 2//1 66//1
f 24//2 4//2 64//2
f 14//3 28//3 61//3
f 60//4 9//4 30//4
f 59//5 11//5 35//5
f 66//6 8//6 50//6
f 54//7 41//7 16//7
f 23//8 33//8 54//8
f 60//9 54//9 55//9
f 39//10 25//10 21//10
f 56//11 38//11 15//11
f 34//12 19//12 56//12
f 35//13 4//13 26//13
f 13//14 35//14 26//14
f 23//15 61//15 34//15
f 60//16 61//16 23//16
f 14//17 62//17 28//17
f 64//18 4//18 39//18
f 7//19 66//19 18//19
f 26//20 36//20 13//20
f 63//21 27//21 1//21
f 30//22 3//22 62//22
f 60//23 14//23 61//23
f 59//24 22//24 11//24
f 57//25 15//25 37//25
f 6//26 56//26 19//26
f 55//27 16//27 40//27
f 39//28 4//28 25//28
f 41//29 33//29 12//29
f 22//30 42//30 11//30
f 44//31 43//31 17//31
f 45//32 31//32 10//32
f 18//33 49//33 46//33
f 7//34 46//34 48//34
f 48//35 29//35 7//35
f 48//36 28//36 62//36
f 48//37 3//37 29//37
f 6//38 49//38 47//38
f 1//39 50//39 8//39
f 19//40 28//40 49//40
f 28//41 46//41 49//41
f 27//42 47//42 50//42
f 50//43 18//43 66//43
f 17//44 51//44 45//44
f 51//45 5//45 31//45
f 9//46 51//46 43//46
f 7//47 52//47 44//47
f 52//48 3//48 30//48
f 52//49 9//49 43//49
f 2//50 53//50 22//50
f 20//51 44//51 53//51
f 42//52 44//52 17//52
f 10//53 55//53 40//53
f 60//54 23//54 54//54
f 55//55 5//55 60//55
f 21//56 40//56 39//56
f 12//57 57//57 37//57
f 40//58 16//58 39//58
f 57//59 23//59 34//59
f 26//60 24//60 58//60
f 34//61 56//61 57//61
f 24//62 37//62 58//62
f 36//63 37//63 15//63
f 13//64 59//64 35//64
f 8//65 2//65 59//65
f 2//66 22//66 59//66
f 28//67 34//67 61//67
f 1//68 8//68 59//68
f 60//69 30//69 14//69
f 60//70 5//70 9//70
f 25//71 35//71 32//71
f 32//72 21//72 25//72
f 14//73 30//73 62//73
f 13//74 63//74 1//74
f 11//75 32//75 35//75
f 63//76 15//76 38//76
f 63//77 6//77 27//77
f 64//78 16//78 41//78
f 64//79 12//79 24//79
f 32//80 42//80 65//80
f 42//81 45//81 65//81
f 21//82 45//82 10//82
f 66//83 2//83 8//83
f 7//84 20//84 66//84
f 26//85 58//85 36//85
f 57//86 56//86 15//86
f 6//87 38//87 56//87
f 55//88 54//88 16//88
f 41//89 54//89 33//89
f 22//90 53//90 42//90
f 44//91 52//91 43//91
f 45//92 51//92 31//92
f 18//93 47//93 49//93
f 7//94 18//94 46//94
f 48//95 46//95 28//95
f 48//96 62//96 3//96
f 6//97 19//97 49//97
f 1//98 27//98 50//98
f 27//99 6//99 47//99
f 50//100 47//100 18//100
f 17//101 43//101 51//101
f 51//102 9//102 5//102
f 7//103 29//103 52//103
f 52//104 29//104 3//104
f 52//105 30//105 9//105
f 2//106 20//106 53//106
f 20//107 7//107 44//107
f 42//108 53//108 44//108
f 10//109 31//109 55//109
f 55//110 31//110 5//110
f 21//111 10//111 40//111
f 12//112 33//112 57//112
f 57//113 33//113 23//113
f 26//114 4//114 24//114
f 24//115 12//115 37//115
f 36//116 58//116 37//116
f 13//117 1//117 59//117
f 28//118 19//118 34//118
f 25//119 4//119 35//119
f 32//120 65//120 21//120
f 13//121 36//121 63//121
f 63//122 36//122 15//122
f 63//123 38//123 6//123
f 64//124 39//124 16//124
f 64//125 41//125 12//125
f 32//126 11//126 42//126
f 42//127 17//127 45//127
f 21//128 65//128 45//128
