# Blender 4.1.1
# www.blender.org
mtllib Cube.050_Cube.054.mtl
o Cube.050_Cube.054
v -1.745140 5.932224 14.595007
v -1.842088 5.933357 14.743729
v -2.960579 6.004371 14.008340
v -1.743114 5.707908 14.586462
v -2.977118 5.779858 13.997341
v -2.303949 5.967182 14.223860
v -2.441920 5.992620 14.342762
v -1.771747 5.933772 14.676573
v -2.991354 5.837991 13.990267
v -2.419330 5.737935 14.375626
v -1.821929 5.818276 14.750912
v -2.317969 5.732695 14.222709
v -1.737020 5.821302 14.585888
v -2.978030 5.899513 13.894561
v -2.299227 5.853922 14.206018
v -2.369732 5.728825 14.300180
v -2.433110 5.864230 14.408323
v -2.359895 5.983610 14.309545
v -2.898151 6.007160 13.850945
v -2.132727 5.945917 14.560684
v -2.151654 5.722283 14.567936
v -1.862459 5.877476 14.781939
v -2.898699 5.779661 13.847637
v -2.044406 5.733251 14.407705
v -1.829148 5.707204 14.747656
v -1.746084 5.765274 14.587086
v -2.032684 5.964787 14.412033
v -2.932870 6.006142 13.916138
v -2.679899 6.016222 14.195260
v -3.013044 5.942649 13.973557
v -2.695420 5.756564 14.196249
v -1.850827 5.765198 14.749135
v -2.597405 5.754354 14.048651
v -2.895935 5.946994 13.848475
v -1.780510 5.766019 14.648208
v -2.040626 5.828854 14.411085
v -2.313550 5.806370 14.223049
v -2.308998 5.908468 14.225885
v -2.089040 5.731308 14.518862
v -2.392810 5.747225 14.336627
v -2.350491 5.738800 14.272190
v -2.150342 5.837765 14.576914
v -2.691283 5.885385 14.201346
v -2.410796 5.914396 14.379528
v -2.410608 5.804523 14.368824
v -2.634187 6.007330 14.126408
v -2.328160 5.967365 14.260284
v -2.656651 6.003307 14.154840
v -2.611278 5.991453 14.091803
v -2.056895 5.979317 14.449817
v -2.711809 5.826605 14.226082
v -2.690316 5.969750 14.202394
v -2.139594 5.903821 14.567013
v -2.698949 5.767421 14.079876
v -2.676198 5.771034 14.168716
v -2.627124 5.897548 14.028943
v -2.598508 5.815436 14.055779
v -2.050703 5.775134 14.421146
v -1.797814 5.876458 14.670552
v -2.961289 5.779752 13.967224
v -2.908110 5.904732 13.884512
v -2.994498 6.004365 13.937151
v -2.040705 5.881449 14.416192
v -2.074499 5.725907 14.452259
v -2.160819 5.792776 14.588405
v -2.063699 5.960554 14.522990
vn -0.0910 0.9732 0.2113
vn 0.0096 -0.9877 -0.1563
vn -0.1563 0.2591 -0.9531
vn -0.8460 -0.2505 -0.4707
vn 0.9378 0.0785 0.3383
vn -0.0399 0.9688 0.2447
vn 0.0793 -0.9550 -0.2858
vn -0.1137 -0.9925 0.0455
vn -0.0721 -0.9957 0.0590
vn 0.0322 -0.9895 -0.1409
vn 0.4786 0.3749 -0.7939
vn 0.5635 0.0546 -0.8243
vn 0.8708 0.0397 0.4900
vn 0.8633 -0.1292 0.4878
vn -0.9532 0.0173 -0.3018
vn -0.8838 0.0699 -0.4626
vn -0.3145 0.3144 -0.8957
vn -0.0797 -0.9948 0.0633
vn 0.0978 0.9948 -0.0283
vn 0.4947 -0.0985 -0.8635
vn 0.5270 -0.0929 -0.8448
vn -0.7993 0.4648 0.3808
vn -0.0825 -0.5254 -0.8469
vn 0.8223 0.3144 0.4744
vn 0.4499 -0.4182 -0.7891
vn 0.5266 -0.0733 -0.8469
vn -0.2559 -0.9184 0.3016
vn -0.0603 -0.9975 -0.0366
vn -0.1087 -0.9928 0.0510
vn -0.3945 -0.6237 0.6748
vn -0.4764 0.5874 0.6542
vn -0.5309 0.1546 0.8332
vn 0.2538 0.9318 -0.2595
vn -0.0435 0.9934 0.1062
vn 0.2103 0.9598 -0.1857
vn -0.0178 0.9993 0.0324
vn 0.1188 0.9636 -0.2395
vn 0.0629 0.9973 0.0368
vn 0.1374 0.9902 0.0260
vn 0.0287 0.9991 0.0309
vn 0.2032 0.9340 -0.2940
vn 0.1476 0.9511 -0.2712
vn -0.0968 0.9662 0.2388
vn -0.3766 -0.6056 0.7010
vn -0.5435 -0.4334 0.7189
vn -0.5542 0.4798 0.6802
vn -0.4959 0.1999 0.8451
vn -0.5800 0.0343 0.8139
vn -0.5750 -0.0036 0.8182
vn -0.4485 0.6101 0.6531
vn -0.5502 0.2112 0.8078
vn -0.3758 0.5814 0.7216
vn 0.0398 -0.9778 -0.2058
vn -0.0386 -0.9991 -0.0195
vn -0.0241 -0.9997 -0.0091
vn 0.0325 -0.9895 -0.1406
vn 0.5054 -0.0263 -0.8625
vn -0.2367 -0.9194 0.3143
vn 0.5702 -0.0053 -0.8215
vn 0.4593 0.3333 -0.8234
vn 0.5449 -0.0828 -0.8344
vn 0.5935 0.3255 -0.7361
vn 0.5374 -0.4231 -0.7295
vn 0.8155 0.0107 0.5786
vn 0.6444 -0.3637 0.6727
vn 0.8647 0.0278 0.5016
vn -0.9057 -0.0920 -0.4139
vn 0.8598 -0.4213 0.2885
vn -0.9244 -0.2838 -0.2548
vn -0.8542 -0.2637 -0.4480
vn 0.7866 0.2800 0.5503
vn -0.4839 -0.2026 0.8514
vn -0.9084 0.0268 -0.4173
vn 0.5011 0.1073 -0.8587
vn 0.7451 -0.4229 0.5157
vn 0.5620 0.3701 -0.7397
vn 0.5668 -0.0954 -0.8183
vn 0.1230 -0.9585 -0.2571
vn 0.0772 -0.9908 -0.1112
vn -0.4147 0.3146 0.8538
vn -0.6153 0.3266 0.7174
vn -0.5702 0.1571 0.8064
vn 0.0568 0.9962 0.0657
vn -0.0513 0.9591 0.2784
vn 0.4575 -0.2459 -0.8545
vn 0.4580 -0.1279 -0.8797
vn 0.5268 -0.0745 -0.8467
vn -0.1711 -0.9817 0.0838
vn -0.1112 -0.9923 0.0538
vn -0.5861 0.2125 0.7818
vn -0.5359 -0.0044 0.8443
vn -0.4112 -0.4370 0.8000
vn 0.1956 0.9619 -0.1912
vn 0.1005 0.9947 -0.0217
vn -0.0661 0.9939 0.0884
vn 0.0046 1.0000 -0.0023
vn 0.1036 0.9929 -0.0587
vn 0.2409 0.9475 -0.2100
vn 0.0084 1.0000 0.0006
vn 0.1238 0.9634 -0.2379
vn -0.5247 0.4793 0.7035
vn -0.6450 -0.0653 0.7614
vn -0.4943 0.2392 0.8358
vn -0.5445 0.2452 0.8021
vn -0.5790 0.0102 0.8153
vn -0.5147 0.2089 0.8315
vn -0.5514 0.1649 0.8177
vn -0.5503 0.2107 0.8079
vn 0.1727 -0.9164 -0.3610
vn 0.1771 -0.9167 -0.3582
vn 0.0742 -0.9803 -0.1831
vn 0.5316 0.1077 -0.8401
vn 0.5580 0.1061 -0.8230
vn 0.5122 0.0358 -0.8581
vn 0.5600 -0.0297 -0.8280
vn 0.5629 -0.2530 -0.7868
vn 0.8160 0.0122 0.5780
vn -0.8825 -0.0132 -0.4702
vn 0.8801 0.0669 0.4700
vn -0.4598 -0.3022 0.8350
vn 0.4988 0.0845 -0.8626
vn 0.6241 0.0765 -0.7776
vn 0.5716 -0.0773 -0.8169
vn -0.0463 -0.9964 0.0707
vn -0.0885 -0.9940 0.0645
vn -0.4473 0.2145 0.8683
vn -0.4489 -0.6045 0.6581
vn -0.6395 -0.2899 0.7120
s 0
usemtl Fence2
f 20//1 2//1 66//1
f 24//2 4//2 64//2
f 14//3 28//3 61//3
f 60//4 9//4 30//4
f 59//5 11//5 35//5
f 66//6 8//6 50//6
f 54//7 41//7 16//7
f 23//8 33//8 54//8
f 60//9 54//9 55//9
f 39//10 25//10 21//10
f 56//11 38//11 15//11
f 34//12 19//12 56//12
f 35//13 4//13 26//13
f 13//14 35//14 26//14
f 23//15 61//15 34//15
f 60//16 61//16 23//16
f 14//17 62//17 28//17
f 64//18 4//18 39//18
f 7//19 66//19 18//19
f 26//20 36//20 13//20
f 63//21 27//21 1//21
f 30//22 3//22 62//22
f 60//23 14//23 61//23
f 59//24 22//24 11//24
f 57//25 15//25 37//25
f 6//26 56//26 19//26
f 55//27 16//27 40//27
f 39//28 4//28 25//28
f 41//29 33//29 12//29
f 22//30 42//30 11//30
f 44//31 43//31 17//31
f 45//32 31//32 10//32
f 18//33 49//33 46//33
f 7//34 46//34 48//34
f 48//35 29//35 7//35
f 48//36 28//36 62//36
f 48//37 3//37 29//37
f 6//38 49//38 47//38
f 1//39 50//39 8//39
f 19//40 28//40 49//40
f 28//41 46//41 49//41
f 27//42 47//42 50//42
f 50//43 18//43 66//43
f 17//44 51//44 45//44
f 51//45 5//45 31//45
f 9//46 51//46 43//46
f 7//47 52//47 44//47
f 52//48 3//48 30//48
f 52//49 9//49 43//49
f 2//50 53//50 22//50
f 20//51 44//51 53//51
f 42//52 44//52 17//52
f 10//53 55//53 40//53
f 60//54 23//54 54//54
f 55//55 5//55 60//55
f 21//56 40//56 39//56
f 12//57 57//57 37//57
f 40//58 16//58 39//58
f 57//59 23//59 34//59
f 26//60 24//60 58//60
f 34//61 56//61 57//61
f 24//62 37//62 58//62
f 36//63 37//63 15//63
f 13//64 59//64 35//64
f 8//65 2//65 59//65
f 2//66 22//66 59//66
f 28//67 34//67 61//67
f 1//68 8//68 59//68
f 60//69 30//69 14//69
f 60//70 5//70 9//70
f 25//71 35//71 32//71
f 32//72 21//72 25//72
f 14//73 30//73 62//73
f 13//74 63//74 1//74
f 11//75 32//75 35//75
f 63//76 15//76 38//76
f 63//77 6//77 27//77
f 64//78 16//78 41//78
f 64//79 12//79 24//79
f 32//80 42//80 65//80
f 42//81 45//81 65//81
f 21//82 45//82 10//82
f 66//83 2//83 8//83
f 7//84 20//84 66//84
f 26//85 58//85 36//85
f 57//86 56//86 15//86
f 6//87 38//87 56//87
f 55//88 54//88 16//88
f 41//89 54//89 33//89
f 22//90 53//90 42//90
f 44//91 52//91 43//91
f 45//92 51//92 31//92
f 18//93 47//93 49//93
f 7//94 18//94 46//94
f 48//95 46//95 28//95
f 48//96 62//96 3//96
f 6//97 19//97 49//97
f 1//98 27//98 50//98
f 27//99 6//99 47//99
f 50//100 47//100 18//100
f 17//101 43//101 51//101
f 51//102 9//102 5//102
f 7//103 29//103 52//103
f 52//104 29//104 3//104
f 52//105 30//105 9//105
f 2//106 20//106 53//106
f 20//107 7//107 44//107
f 42//108 53//108 44//108
f 10//109 31//109 55//109
f 55//110 31//110 5//110
f 21//111 10//111 40//111
f 12//112 33//112 57//112
f 57//113 33//113 23//113
f 26//114 4//114 24//114
f 24//115 12//115 37//115
f 36//116 58//116 37//116
f 13//117 1//117 59//117
f 28//118 19//118 34//118
f 25//119 4//119 35//119
f 32//120 65//120 21//120
f 13//121 36//121 63//121
f 63//122 36//122 15//122
f 63//123 38//123 6//123
f 64//124 39//124 16//124
f 64//125 41//125 12//125
f 32//126 11//126 42//126
f 42//127 17//127 45//127
f 21//128 65//128 45//128
