# Blender 4.1.1
# www.blender.org
mtllib Icosphere.014.mtl
o Icosphere.014
v 2.324720 -2.308344 -3.880377
v 2.125225 -2.335622 -3.906950
v 2.250202 -2.495698 -3.904750
v 2.422546 -2.442053 -3.997856
v 2.404080 -2.248820 -4.057599
v 2.220326 -2.183044 -4.001416
v 2.099755 -2.486191 -4.040854
v 2.283509 -2.551967 -4.097037
v 2.378609 -2.399389 -4.191502
v 2.253632 -2.239313 -4.193703
v 2.081288 -2.292958 -4.100596
v 2.179114 -2.426667 -4.218076
vn -0.1208 -0.0807 0.9894
vn -0.1856 0.5983 0.7795
vn 0.5249 -0.3118 0.7920
vn 0.8591 0.2243 0.4600
vn 0.4199 0.7868 0.4523
vn -0.7143 0.6317 0.3012
vn -0.6093 -0.4669 0.6409
vn 0.4354 -0.8409 0.3215
vn 0.9761 0.0266 -0.2156
vn 0.2656 0.9367 -0.2281
vn -0.9761 -0.0266 0.2156
vn -0.2656 -0.9367 0.2281
vn 0.7143 -0.6317 -0.3012
vn 0.6093 0.4669 -0.6409
vn -0.4354 0.8409 -0.3215
vn -0.8591 -0.2243 -0.4600
vn -0.4199 -0.7868 -0.4523
vn 0.1856 -0.5983 -0.7795
vn 0.1208 0.0807 -0.9894
vn -0.5249 0.3118 -0.7920
s 0
usemtl Smoke
f 1//1 2//1 3//1
f 2//2 1//2 6//2
f 1//3 3//3 4//3
f 1//4 4//4 5//4
f 1//5 5//5 6//5
f 2//6 6//6 11//6
f 3//7 2//7 7//7
f 4//8 3//8 8//8
f 5//9 4//9 9//9
f 6//10 5//10 10//10
f 2//11 11//11 7//11
f 3//12 7//12 8//12
f 4//13 8//13 9//13
f 5//14 9//14 10//14
f 6//15 10//15 11//15
f 7//16 11//16 12//16
f 8//17 7//17 12//17
f 9//18 8//18 12//18
f 10//19 9//19 12//19
f 11//20 10//20 12//20
