# Blender 4.1.1
# www.blender.org
mtllib Plane.028_Plane.020.mtl
o Plane.028_Plane.020
v -4.665145 -2.569669 -0.861465
v -4.680115 -2.587919 -0.664476
v -4.658252 -2.620944 -0.865691
v -4.673223 -2.639194 -0.668702
v -4.659641 -2.592799 -0.890653
v -4.685725 -2.581290 -0.754043
v -4.676669 -2.613556 -0.666589
v -4.678833 -2.632565 -0.758269
v -4.687952 -2.605658 -0.780810
v -4.592195 -2.695982 -0.819095
v -4.584607 -2.710739 -0.621392
v -4.542364 -2.681465 -0.819924
v -4.534777 -2.696222 -0.622221
v -4.568323 -2.686695 -0.846683
v -4.584552 -2.716058 -0.711222
v -4.559692 -2.703480 -0.621806
v -4.534721 -2.701540 -0.712051
v -4.558456 -2.714262 -0.736342
v -4.453768 -2.553766 -0.850236
v -4.431880 -2.548393 -0.653122
v -4.476672 -2.507201 -0.848962
v -4.454784 -2.501828 -0.651848
v -4.468229 -2.531223 -0.876692
v -4.430596 -2.545301 -0.743048
v -4.443332 -2.525110 -0.652485
v -4.453500 -2.498736 -0.741774
v -4.437960 -2.519328 -0.767263
v -4.788515 -2.398432 -0.874359
v -4.797034 -2.418165 -0.677128
v -4.833338 -2.372261 -0.873677
v -4.841858 -2.391994 -0.676446
v -4.809755 -2.382635 -0.901126
v -4.786935 -2.398594 -0.764379
v -4.819446 -2.405079 -0.676787
v -4.831759 -2.372423 -0.763697
v -4.804498 -2.376598 -0.787248
v -4.497266 -2.545156 -0.853563
v -4.492996 -2.550507 -0.655283
v -4.528069 -2.586936 -0.854028
v -4.523798 -2.592286 -0.655748
v -4.513254 -2.565310 -0.881049
v -4.504957 -2.540704 -0.743932
v -4.508397 -2.571397 -0.655516
v -4.535759 -2.582484 -0.744396
v -4.526981 -2.556445 -0.768064
v -4.645390 -2.371948 -0.863615
v -4.658534 -2.371357 -0.665654
v -4.621011 -2.417742 -0.861860
v -4.634155 -2.417151 -0.663899
v -4.631393 -2.394926 -0.889947
v -4.663618 -2.377499 -0.755287
v -4.646345 -2.394254 -0.664776
v -4.639239 -2.423293 -0.753532
v -4.656505 -2.404039 -0.778957
v -4.735344 -2.722109 -0.876175
v -4.748489 -2.721518 -0.678213
v -4.773360 -2.686861 -0.878804
v -4.786504 -2.686270 -0.680843
v -4.752546 -2.704566 -0.904699
v -4.734126 -2.712621 -0.766601
v -4.767497 -2.703894 -0.679528
v -4.772142 -2.677373 -0.769230
v -4.746393 -2.689501 -0.791705
vn 0.9621 0.2616 -0.0769
vn 0.9195 0.2852 0.2704
vn 0.9678 -0.0736 0.2408
vn 0.9951 0.0158 -0.0972
vn -0.3972 0.9133 -0.0903
vn -0.4363 0.8630 0.2546
vn -0.0877 0.9646 0.2488
vn -0.1584 0.9829 -0.0942
vn -0.8344 -0.5472 -0.0666
vn -0.7630 -0.5852 0.2746
vn -0.9232 -0.2594 0.2836
vn -0.9441 -0.3241 -0.0605
vn -0.3761 -0.8836 -0.2787
vn -0.3371 -0.9392 0.0654
vn -0.6507 -0.7561 0.0701
vn -0.5909 -0.7582 -0.2755
vn 0.8562 -0.4744 -0.2044
vn 0.8904 -0.4324 0.1421
vn 0.6749 -0.7247 0.1389
vn 0.7086 -0.6747 -0.2066
vn 0.8132 0.5693 -0.1211
vn 0.7555 0.6165 0.2216
vn 0.9261 0.2961 0.2338
vn 0.9300 0.3498 -0.1127
vn -0.5596 -0.8022 -0.2082
vn -0.5345 -0.8335 0.1402
vn -0.8005 -0.5868 0.1218
vn -0.7417 -0.6333 -0.2208
vn 0.9892 0.1372 -0.0518
vn 0.8560 0.4701 0.2149
vn 0.9538 -0.2573 0.1549
vn -0.2801 0.9583 -0.0569
vn -0.6058 0.7734 0.1869
vn 0.1012 0.9793 0.1751
vn -0.8973 -0.4406 -0.0280
vn -0.6486 -0.7348 0.1982
vn -0.9735 -0.0743 0.2163
vn -0.4917 -0.8358 -0.2444
vn -0.1508 -0.9886 0.0007
vn -0.7866 -0.6173 0.0104
vn 0.7939 -0.5834 -0.1716
vn 0.9640 -0.2541 0.0779
vn 0.5270 -0.8468 0.0714
vn 0.8810 0.4659 -0.0819
vn 0.6333 0.7601 0.1455
vn 0.9792 0.1104 0.1704
vn 0.8811 0.4659 -0.0819
vn -0.6620 -0.7274 -0.1808
vn -0.3634 -0.9278 0.0844
vn -0.9026 -0.4278 0.0471
s 0
usemtl Material.001
f 7//1 8//1 9//1
f 9//2 3//2 5//2
f 1//3 9//3 5//3
f 6//4 7//4 9//4
f 16//5 17//5 18//5
f 18//6 12//6 14//6
f 10//7 18//7 14//7
f 15//8 16//8 18//8
f 25//9 26//9 27//9
f 27//10 21//10 23//10
f 19//11 27//11 23//11
f 24//12 25//12 27//12
f 34//13 35//13 36//13
f 36//14 30//14 32//14
f 28//15 36//15 32//15
f 33//16 34//16 36//16
f 43//17 44//17 45//17
f 45//18 39//18 41//18
f 37//19 45//19 41//19
f 42//20 43//20 45//20
f 52//21 53//21 54//21
f 54//22 48//22 50//22
f 46//23 54//23 50//23
f 51//24 52//24 54//24
f 61//25 62//25 63//25
f 63//26 57//26 59//26
f 55//27 63//27 59//27
f 60//28 61//28 63//28
f 7//29 4//29 8//29
f 9//30 8//30 3//30
f 1//31 6//31 9//31
f 6//29 2//29 7//29
f 16//32 13//32 17//32
f 18//33 17//33 12//33
f 10//34 15//34 18//34
f 15//32 11//32 16//32
f 25//35 22//35 26//35
f 27//36 26//36 21//36
f 19//37 24//37 27//37
f 24//35 20//35 25//35
f 34//38 31//38 35//38
f 36//39 35//39 30//39
f 28//40 33//40 36//40
f 33//38 29//38 34//38
f 43//41 40//41 44//41
f 45//42 44//42 39//42
f 37//43 42//43 45//43
f 42//41 38//41 43//41
f 52//44 49//44 53//44
f 54//45 53//45 48//45
f 46//46 51//46 54//46
f 51//47 47//47 52//47
f 61//48 58//48 62//48
f 63//49 62//49 57//49
f 55//50 60//50 63//50
f 60//48 56//48 61//48
