# Blender 4.1.1
# www.blender.org
mtllib Icosphere.013.mtl
o Icosphere.013
v 5.385421 13.340637 3.180297
v 5.594045 13.418715 3.766789
v 5.018925 13.614122 3.609806
v 5.044894 13.844740 3.026936
v 5.636075 13.791855 2.823694
v 5.975459 13.528557 3.280949
v 5.382452 13.971075 3.975906
v 5.043068 14.234375 3.518651
v 5.424485 14.344215 3.032811
v 5.999604 14.148808 3.189794
v 5.973633 13.918192 3.772665
v 5.633108 14.422295 3.619302
vn -0.3722 -0.8935 0.2513
vn 0.3003 -0.9536 0.0201
vn -0.7582 -0.5940 -0.2688
vn -0.3244 -0.4690 -0.8215
vn 0.3298 -0.6913 -0.6429
vn 0.7138 -0.5476 0.4366
vn -0.3743 -0.4503 0.8107
vn -0.9989 0.0343 -0.0309
vn -0.2969 0.2365 -0.9252
vn 0.7616 -0.1231 -0.6362
vn 0.2969 -0.2365 0.9252
vn -0.7616 0.1231 0.6362
vn -0.7138 0.5476 -0.4366
vn 0.3743 0.4503 -0.8107
vn 0.9989 -0.0343 0.0309
vn 0.3244 0.4690 0.8215
vn -0.3298 0.6913 0.6429
vn -0.3003 0.9536 -0.0201
vn 0.3722 0.8935 -0.2513
vn 0.7582 0.5940 0.2688
s 0
usemtl Smoke
f 1//1 2//1 3//1
f 2//2 1//2 6//2
f 1//3 3//3 4//3
f 1//4 4//4 5//4
f 1//5 5//5 6//5
f 2//6 6//6 11//6
f 3//7 2//7 7//7
f 4//8 3//8 8//8
f 5//9 4//9 9//9
f 6//10 5//10 10//10
f 2//11 11//11 7//11
f 3//12 7//12 8//12
f 4//13 8//13 9//13
f 5//14 9//14 10//14
f 6//15 10//15 11//15
f 7//16 11//16 12//16
f 8//17 7//17 12//17
f 9//18 8//18 12//18
f 10//19 9//19 12//19
f 11//20 10//20 12//20
