# Blender 4.1.1
# www.blender.org
mtllib Cube.082_Cube.086.mtl
o Cube.082_Cube.086
v -4.719527 -7.795901 -1.408067
v -4.737527 -7.857860 -1.416348
v -4.738109 -7.790819 -1.902902
v -4.639633 -7.815450 -1.407570
v -4.658644 -7.812480 -1.908919
v -4.719286 -7.761276 -1.651748
v -4.744688 -7.817690 -1.678443
v -4.728685 -7.825683 -1.403850
v -4.679024 -7.806593 -1.915051
v -4.657133 -7.850224 -1.664400
v -4.696863 -7.868595 -1.407941
v -4.637124 -7.786669 -1.655311
v -4.679287 -7.802918 -1.406253
v -4.691292 -7.768045 -1.926238
v -4.677547 -7.766292 -1.652432
v -4.644978 -7.819587 -1.660017
v -4.705198 -7.850001 -1.664405
v -4.735219 -7.795400 -1.656632
v -4.722037 -7.731058 -1.907412
v -4.736349 -7.843579 -1.541465
v -4.658981 -7.871298 -1.545364
v -4.722186 -7.878727 -1.416680
v -4.641608 -7.752982 -1.906912
v -4.643773 -7.802887 -1.535585
v -4.657715 -7.879854 -1.410251
v -4.660017 -7.810335 -1.408754
v -4.725281 -7.779153 -1.532259
v -4.729090 -7.757167 -1.908468
v -4.748635 -7.805411 -1.780582
v -4.715192 -7.794127 -1.925425
v -4.657863 -7.834245 -1.784165
v -4.679132 -7.877839 -1.417475
v -4.639546 -7.772586 -1.775348
v -4.700526 -7.735985 -1.906755
v -4.667300 -7.834933 -1.410372
v -4.677618 -7.793756 -1.534307
v -4.662937 -7.778682 -1.654190
v -4.698989 -7.768605 -1.652779
v -4.655153 -7.845173 -1.532580
v -4.655747 -7.832843 -1.661917
v -4.645141 -7.806747 -1.658184
v -4.700446 -7.862321 -1.544114
v -4.703556 -7.822260 -1.782672
v -4.719325 -7.832387 -1.661901
v -4.679617 -7.840024 -1.662961
v -4.737322 -7.777440 -1.776431
v -4.723680 -7.776532 -1.653929
v -4.739424 -7.790319 -1.779287
v -4.727621 -7.764539 -1.774305
v -4.734855 -7.793396 -1.534300
v -4.685948 -7.839177 -1.785188
v -4.733335 -7.813954 -1.782635
v -4.722376 -7.850880 -1.542497
v -4.651025 -7.796856 -1.803936
v -4.659653 -7.821101 -1.782290
v -4.689325 -7.756536 -1.789053
v -4.661769 -7.768868 -1.774900
v -4.660021 -7.803903 -1.535743
v -4.708957 -7.833572 -1.413105
v -4.655190 -7.800508 -1.908497
v -4.689459 -7.753529 -1.904803
v -4.732828 -7.773526 -1.925439
v -4.696623 -7.790094 -1.533799
v -4.646500 -7.822384 -1.538371
v -4.686074 -7.872105 -1.545500
v -4.735303 -7.819502 -1.524780
vn -0.9989 0.0463 -0.0041
vn 0.9902 -0.1321 -0.0450
vn -0.0244 0.8287 -0.5591
vn 0.2696 -0.0190 -0.9628
vn -0.0609 0.1250 0.9903
vn -0.9977 0.0377 0.0565
vn 0.9991 0.0183 -0.0391
vn 0.9305 -0.3598 -0.0682
vn 0.9346 -0.3548 -0.0248
vn 0.9905 -0.1364 -0.0179
vn -0.1082 0.9909 0.0801
vn 0.2165 0.9650 0.1479
vn -0.0692 -0.0451 0.9966
vn 0.0930 -0.0927 0.9913
vn -0.0421 -0.1366 -0.9897
vn -0.0445 0.0460 -0.9979
vn -0.1090 0.7276 -0.6773
vn 0.9319 -0.3614 -0.0298
vn -0.9388 0.3388 0.0613
vn 0.3663 0.9278 0.0712
vn 0.3597 0.9268 0.1083
vn -0.6288 -0.5387 -0.5607
vn 0.7108 0.5527 -0.4351
vn -0.3345 0.0234 0.9421
vn 0.6500 0.7569 0.0678
vn 0.3413 0.9339 0.1067
vn 0.7793 -0.6208 -0.0858
vn 0.9619 -0.2677 -0.0558
vn 0.9299 -0.3626 -0.0613
vn 0.3866 -0.9208 -0.0526
vn -0.7814 -0.6050 -0.1528
vn -0.4165 -0.9015 -0.1177
vn -0.8031 0.5870 0.1021
vn -0.9867 0.1627 -0.0074
vn -0.8533 0.5127 0.0946
vn -0.9709 0.2388 -0.0164
vn -0.8531 0.5216 -0.0112
vn -0.9615 0.2686 0.0582
vn -0.9439 0.3073 0.1207
vn -0.9653 0.2598 0.0248
vn -0.8019 0.5961 0.0415
vn -0.8300 0.5577 0.0011
vn -0.9998 0.0181 0.0027
vn 0.3645 -0.9309 -0.0253
vn 0.1765 -0.9695 -0.1702
vn -0.6928 -0.6899 -0.2100
vn -0.4593 -0.8845 -0.0818
vn -0.3012 -0.9385 -0.1686
vn -0.2653 -0.9505 -0.1617
vn -0.8000 -0.5861 -0.1285
vn -0.4666 -0.8722 -0.1470
vn -0.7820 -0.6225 -0.0329
vn 0.9965 -0.0738 -0.0395
vn 0.9614 -0.2738 -0.0287
vn 0.9609 -0.2768 -0.0112
vn 0.9905 -0.1365 -0.0176
vn 0.2978 0.9512 0.0802
vn 0.7790 -0.6239 -0.0631
vn 0.2742 0.9489 0.1561
vn -0.0629 0.9967 0.0505
vn 0.3492 0.9282 0.1288
vn -0.0631 0.9758 0.2093
vn 0.6491 0.7409 0.1726
vn -0.0697 -0.1529 0.9858
vn 0.2483 -0.4092 0.8780
vn -0.0613 -0.0609 0.9963
vn 0.0965 -0.0497 -0.9941
vn 0.4240 -0.0022 0.9056
vn 0.2385 -0.2479 -0.9390
vn 0.2757 -0.0457 -0.9602
vn -0.3245 -0.0667 0.9435
vn -0.0726 -0.9954 -0.0624
vn -0.0172 -0.0154 -0.9997
vn 0.1680 0.9829 0.0760
vn 0.3557 -0.2473 0.9013
vn -0.1084 0.9779 0.1788
vn 0.3596 0.9200 0.1557
vn 0.9999 0.0109 0.0128
vn 0.9890 -0.1434 0.0355
vn -0.5632 -0.8263 -0.0065
vn -0.5615 -0.7898 -0.2466
vn -0.4162 -0.8942 -0.1648
vn -0.9684 0.2407 0.0653
vn -0.9981 0.0011 0.0610
vn 0.5018 0.8639 0.0437
vn 0.3948 0.9182 0.0315
vn 0.3425 0.9334 0.1070
vn 0.9043 -0.4142 -0.1034
vn 0.9286 -0.3658 -0.0623
vn -0.4651 -0.8645 -0.1906
vn -0.2670 -0.9568 -0.1151
vn 0.1735 -0.9847 -0.0158
vn -0.8554 0.5118 0.0790
vn -0.9401 0.3342 0.0666
vn -0.9850 0.1687 -0.0355
vn -0.9604 0.2785 -0.0113
vn -0.9286 0.3671 0.0534
vn -0.8320 0.5433 0.1118
vn -0.9607 0.2776 -0.0067
vn -0.8527 0.5223 -0.0060
vn -0.6951 -0.6977 -0.1733
vn -0.1991 -0.9480 -0.2485
vn -0.4944 -0.8651 -0.0849
vn -0.4972 -0.8555 -0.1448
vn -0.2782 -0.9459 -0.1667
vn -0.4666 -0.8782 -0.1046
vn -0.4247 -0.8939 -0.1431
vn -0.4660 -0.8725 -0.1470
vn 0.9910 0.1333 0.0117
vn 0.9910 0.1326 0.0169
vn 0.9968 -0.0797 0.0014
vn 0.1662 0.9798 0.1116
vn 0.1661 0.9757 0.1428
vn 0.2377 0.9674 0.0873
vn 0.2982 0.9435 0.1444
vn 0.5027 0.8480 0.1682
vn -0.0709 -0.1517 0.9859
vn 0.0374 0.0303 -0.9988
vn -0.0893 -0.0164 0.9959
vn 0.0300 -0.9985 -0.0463
vn 0.1906 0.9790 0.0725
vn 0.1902 0.9562 0.2224
vn 0.3424 0.9257 0.1604
vn 0.9352 -0.3542 0.0036
vn 0.9299 -0.3660 -0.0372
vn -0.4740 -0.8801 -0.0281
vn 0.3666 -0.9240 -0.1091
vn 0.0301 -0.9647 -0.2618
s 0
usemtl Fence
f 20//1 2//1 66//1
f 24//2 4//2 64//2
f 14//3 28//3 61//3
f 60//4 9//4 30//4
f 59//5 11//5 35//5
f 66//6 8//6 50//6
f 54//7 41//7 16//7
f 23//8 33//8 54//8
f 60//9 54//9 55//9
f 39//10 25//10 21//10
f 56//11 38//11 15//11
f 34//12 19//12 56//12
f 35//13 4//13 26//13
f 13//14 35//14 26//14
f 23//15 61//15 34//15
f 60//16 61//16 23//16
f 14//17 62//17 28//17
f 64//18 4//18 39//18
f 7//19 66//19 18//19
f 26//20 36//20 13//20
f 63//21 27//21 1//21
f 30//22 3//22 62//22
f 60//23 14//23 61//23
f 59//24 22//24 11//24
f 57//25 15//25 37//25
f 6//26 56//26 19//26
f 55//27 16//27 40//27
f 39//28 4//28 25//28
f 41//29 33//29 12//29
f 22//30 42//30 11//30
f 44//31 43//31 17//31
f 45//32 31//32 10//32
f 18//33 49//33 46//33
f 7//34 46//34 48//34
f 48//35 29//35 7//35
f 48//36 28//36 62//36
f 48//37 3//37 29//37
f 6//38 49//38 47//38
f 1//39 50//39 8//39
f 19//40 28//40 49//40
f 28//41 46//41 49//41
f 27//42 47//42 50//42
f 50//43 18//43 66//43
f 17//44 51//44 45//44
f 51//45 5//45 31//45
f 9//46 51//46 43//46
f 7//47 52//47 44//47
f 52//48 3//48 30//48
f 52//49 9//49 43//49
f 2//50 53//50 22//50
f 20//51 44//51 53//51
f 42//52 44//52 17//52
f 10//53 55//53 40//53
f 60//54 23//54 54//54
f 55//55 5//55 60//55
f 21//56 40//56 39//56
f 12//57 57//57 37//57
f 40//58 16//58 39//58
f 57//59 23//59 34//59
f 26//60 24//60 58//60
f 34//61 56//61 57//61
f 24//62 37//62 58//62
f 36//63 37//63 15//63
f 13//64 59//64 35//64
f 8//65 2//65 59//65
f 2//66 22//66 59//66
f 28//67 34//67 61//67
f 1//68 8//68 59//68
f 60//69 30//69 14//69
f 60//70 5//70 9//70
f 25//71 35//71 32//71
f 32//72 21//72 25//72
f 14//73 30//73 62//73
f 13//74 63//74 1//74
f 11//75 32//75 35//75
f 63//76 15//76 38//76
f 63//77 6//77 27//77
f 64//78 16//78 41//78
f 64//79 12//79 24//79
f 32//80 42//80 65//80
f 42//81 45//81 65//81
f 21//82 45//82 10//82
f 66//83 2//83 8//83
f 7//84 20//84 66//84
f 26//85 58//85 36//85
f 57//86 56//86 15//86
f 6//87 38//87 56//87
f 55//88 54//88 16//88
f 41//89 54//89 33//89
f 22//90 53//90 42//90
f 44//91 52//91 43//91
f 45//92 51//92 31//92
f 18//93 47//93 49//93
f 7//94 18//94 46//94
f 48//95 46//95 28//95
f 48//96 62//96 3//96
f 6//97 19//97 49//97
f 1//98 27//98 50//98
f 27//99 6//99 47//99
f 50//100 47//100 18//100
f 17//101 43//101 51//101
f 51//102 9//102 5//102
f 7//103 29//103 52//103
f 52//104 29//104 3//104
f 52//105 30//105 9//105
f 2//106 20//106 53//106
f 20//107 7//107 44//107
f 42//108 53//108 44//108
f 10//109 31//109 55//109
f 55//110 31//110 5//110
f 21//111 10//111 40//111
f 12//112 33//112 57//112
f 57//113 33//113 23//113
f 26//114 4//114 24//114
f 24//115 12//115 37//115
f 36//116 58//116 37//116
f 13//117 1//117 59//117
f 28//118 19//118 34//118
f 25//119 4//119 35//119
f 32//120 65//120 21//120
f 13//121 36//121 63//121
f 63//122 36//122 15//122
f 63//123 38//123 6//123
f 64//124 39//124 16//124
f 64//125 41//125 12//125
f 32//126 11//126 42//126
f 42//127 17//127 45//127
f 21//128 65//128 45//128
