# Blender 4.1.1
# www.blender.org
mtllib Cube.082_Cube.086.mtl
o Cube.082_Cube.086
v -12.460595 6.341590 -11.715767
v -12.509722 6.364191 -11.884869
v -12.511311 7.692114 -11.701899
v -12.242546 6.340234 -11.769121
v -12.294433 7.708536 -11.761017
v -12.459938 7.006654 -11.621267
v -12.529266 7.079511 -11.775234
v -12.485590 6.330081 -11.797050
v -12.350054 7.725271 -11.744949
v -12.290308 7.041184 -11.864027
v -12.398741 6.341246 -11.914167
v -12.235699 7.016378 -11.690571
v -12.350771 6.336639 -11.734919
v -12.383535 7.755803 -11.639744
v -12.346023 7.008521 -11.634956
v -12.257133 7.029222 -11.780413
v -12.421488 7.041198 -11.863419
v -12.503424 7.019984 -11.714399
v -12.467446 7.704423 -11.538797
v -12.506508 6.705666 -11.845892
v -12.295351 6.716307 -11.921543
v -12.467854 6.365097 -11.941818
v -12.247937 7.703058 -11.598633
v -12.253845 6.689618 -11.734833
v -12.291896 6.347550 -11.944895
v -12.298179 6.343465 -11.755161
v -12.476299 6.680540 -11.670057
v -12.486696 7.707305 -11.610054
v -12.540038 7.358273 -11.741724
v -12.448764 7.753584 -11.710928
v -12.292300 7.368052 -11.820419
v -12.350348 6.367267 -11.939396
v -12.242309 7.343988 -11.652136
v -12.408738 7.702630 -11.552244
v -12.318056 6.347881 -11.822294
v -12.346216 6.686130 -11.709913
v -12.306149 7.013319 -11.668774
v -12.404543 7.009468 -11.641270
v -12.284904 6.681416 -11.850243
v -12.286525 7.034408 -11.816589
v -12.257579 7.024220 -11.745369
v -12.408520 6.712895 -11.897043
v -12.417007 7.363977 -11.787708
v -12.460045 7.034364 -11.815346
v -12.351672 7.037257 -11.836189
v -12.509162 7.346944 -11.665384
v -12.471931 7.012607 -11.662905
v -12.514900 7.354739 -11.700535
v -12.482687 7.341142 -11.630175
v -12.502430 6.686110 -11.708931
v -12.368951 7.370844 -11.833879
v -12.498281 7.363876 -11.765039
v -12.468371 6.708482 -11.865818
v -12.273637 7.422012 -11.718376
v -12.297186 7.362935 -11.784546
v -12.378167 7.381392 -11.608332
v -12.302960 7.342765 -11.641989
v -12.298189 6.690049 -11.737606
v -12.431748 6.355340 -11.818581
v -12.285005 7.707384 -11.728342
v -12.378532 7.697302 -11.600126
v -12.496898 7.753623 -11.654703
v -12.398085 6.684743 -11.699919
v -12.261288 6.697221 -11.788046
v -12.369294 6.716678 -11.923746
v -12.503653 6.660128 -11.780180
vn -0.9989 0.0041 0.0463
vn 0.9902 0.0450 -0.1320
vn -0.0244 0.5591 0.8287
vn 0.2696 0.9628 -0.0190
vn -0.0609 -0.9903 0.1250
vn -0.9977 -0.0565 0.0378
vn 0.9991 0.0391 0.0183
vn 0.9305 0.0682 -0.3598
vn 0.9346 0.0248 -0.3548
vn 0.9905 0.0179 -0.1364
vn -0.1082 -0.0801 0.9909
vn 0.2165 -0.1479 0.9650
vn -0.0692 -0.9966 -0.0451
vn 0.0930 -0.9913 -0.0927
vn -0.0420 0.9897 -0.1367
vn -0.0445 0.9979 0.0460
vn -0.1090 0.6773 0.7276
vn 0.9319 0.0298 -0.3614
vn -0.9389 -0.0613 0.3388
vn 0.3663 -0.0712 0.9278
vn 0.3597 -0.1083 0.9268
vn -0.6288 0.5607 -0.5387
vn 0.7108 0.4351 0.5527
vn -0.3345 -0.9421 0.0234
vn 0.6500 -0.0678 0.7569
vn 0.3413 -0.1067 0.9339
vn 0.7793 0.0858 -0.6208
vn 0.9619 0.0558 -0.2677
vn 0.9299 0.0613 -0.3625
vn 0.3865 0.0526 -0.9208
vn -0.7814 0.1528 -0.6050
vn -0.4165 0.1177 -0.9015
vn -0.8031 -0.1021 0.5870
vn -0.9867 0.0073 0.1627
vn -0.8533 -0.0946 0.5127
vn -0.9709 0.0164 0.2388
vn -0.8531 0.0112 0.5217
vn -0.9615 -0.0582 0.2686
vn -0.9439 -0.1207 0.3073
vn -0.9653 -0.0248 0.2598
vn -0.8019 -0.0415 0.5961
vn -0.8300 -0.0011 0.5578
vn -0.9998 -0.0027 0.0181
vn 0.3645 0.0253 -0.9309
vn 0.1764 0.1702 -0.9695
vn -0.6928 0.2100 -0.6899
vn -0.4592 0.0818 -0.8845
vn -0.3012 0.1686 -0.9385
vn -0.2653 0.1617 -0.9505
vn -0.8000 0.1285 -0.5861
vn -0.4666 0.1470 -0.8722
vn -0.7819 0.0329 -0.6225
vn 0.9965 0.0395 -0.0738
vn 0.9614 0.0287 -0.2738
vn 0.9608 0.0112 -0.2769
vn 0.9905 0.0176 -0.1365
vn 0.2978 -0.0802 0.9512
vn 0.7790 0.0631 -0.6238
vn 0.2742 -0.1561 0.9489
vn -0.0628 -0.0505 0.9967
vn 0.3492 -0.1288 0.9282
vn -0.0631 -0.2093 0.9758
vn 0.6491 -0.1726 0.7408
vn -0.0697 -0.9858 -0.1529
vn 0.2483 -0.8780 -0.4092
vn -0.0613 -0.9963 -0.0609
vn 0.0965 0.9941 -0.0497
vn 0.4240 -0.9057 -0.0022
vn 0.2386 0.9390 -0.2478
vn 0.2757 0.9602 -0.0457
vn -0.3245 -0.9435 -0.0667
vn -0.0726 0.0624 -0.9954
vn -0.0172 0.9997 -0.0154
vn 0.1680 -0.0760 0.9829
vn 0.3557 -0.9013 -0.2473
vn -0.1084 -0.1788 0.9779
vn 0.3596 -0.1557 0.9200
vn 0.9999 -0.0128 0.0109
vn 0.9890 -0.0355 -0.1434
vn -0.5632 0.0065 -0.8263
vn -0.5615 0.2466 -0.7899
vn -0.4162 0.1648 -0.8942
vn -0.9684 -0.0653 0.2407
vn -0.9981 -0.0610 0.0011
vn 0.5017 -0.0437 0.8639
vn 0.3947 -0.0315 0.9183
vn 0.3425 -0.1070 0.9334
vn 0.9043 0.1034 -0.4142
vn 0.9286 0.0623 -0.3658
vn -0.4651 0.1906 -0.8645
vn -0.2670 0.1151 -0.9568
vn 0.1735 0.0158 -0.9847
vn -0.8554 -0.0790 0.5118
vn -0.9401 -0.0666 0.3342
vn -0.9850 0.0355 0.1687
vn -0.9604 0.0113 0.2785
vn -0.9286 -0.0534 0.3671
vn -0.8321 -0.1118 0.5433
vn -0.9607 0.0067 0.2777
vn -0.8527 0.0060 0.5223
vn -0.6951 0.1733 -0.6977
vn -0.1991 0.2485 -0.9480
vn -0.4944 0.0849 -0.8651
vn -0.4971 0.1448 -0.8555
vn -0.2782 0.1667 -0.9459
vn -0.4666 0.1046 -0.8783
vn -0.4247 0.1431 -0.8940
vn -0.4660 0.1470 -0.8725
vn 0.9910 -0.0117 0.1333
vn 0.9910 -0.0169 0.1326
vn 0.9968 -0.0014 -0.0797
vn 0.1662 -0.1116 0.9798
vn 0.1661 -0.1428 0.9757
vn 0.2377 -0.0873 0.9674
vn 0.2982 -0.1444 0.9435
vn 0.5027 -0.1682 0.8480
vn -0.0709 -0.9859 -0.1517
vn 0.0374 0.9988 0.0303
vn -0.0893 -0.9959 -0.0164
vn 0.0300 0.0463 -0.9985
vn 0.1906 -0.0725 0.9790
vn 0.1902 -0.2224 0.9562
vn 0.3424 -0.1604 0.9258
vn 0.9352 -0.0036 -0.3542
vn 0.9299 0.0372 -0.3660
vn -0.4739 0.0281 -0.8801
vn 0.3665 0.1091 -0.9240
vn 0.0300 0.2618 -0.9647
s 0
usemtl Fence
f 20//1 2//1 66//1
f 24//2 4//2 64//2
f 14//3 28//3 61//3
f 60//4 9//4 30//4
f 59//5 11//5 35//5
f 66//6 8//6 50//6
f 54//7 41//7 16//7
f 23//8 33//8 54//8
f 60//9 54//9 55//9
f 39//10 25//10 21//10
f 56//11 38//11 15//11
f 34//12 19//12 56//12
f 35//13 4//13 26//13
f 13//14 35//14 26//14
f 23//15 61//15 34//15
f 60//16 61//16 23//16
f 14//17 62//17 28//17
f 64//18 4//18 39//18
f 7//19 66//19 18//19
f 26//20 36//20 13//20
f 63//21 27//21 1//21
f 30//22 3//22 62//22
f 60//23 14//23 61//23
f 59//24 22//24 11//24
f 57//25 15//25 37//25
f 6//26 56//26 19//26
f 55//27 16//27 40//27
f 39//28 4//28 25//28
f 41//29 33//29 12//29
f 22//30 42//30 11//30
f 44//31 43//31 17//31
f 45//32 31//32 10//32
f 18//33 49//33 46//33
f 7//34 46//34 48//34
f 48//35 29//35 7//35
f 48//36 28//36 62//36
f 48//37 3//37 29//37
f 6//38 49//38 47//38
f 1//39 50//39 8//39
f 19//40 28//40 49//40
f 28//41 46//41 49//41
f 27//42 47//42 50//42
f 50//43 18//43 66//43
f 17//44 51//44 45//44
f 51//45 5//45 31//45
f 9//46 51//46 43//46
f 7//47 52//47 44//47
f 52//48 3//48 30//48
f 52//49 9//49 43//49
f 2//50 53//50 22//50
f 20//51 44//51 53//51
f 42//52 44//52 17//52
f 10//53 55//53 40//53
f 60//54 23//54 54//54
f 55//55 5//55 60//55
f 21//56 40//56 39//56
f 12//57 57//57 37//57
f 40//58 16//58 39//58
f 57//59 23//59 34//59
f 26//60 24//60 58//60
f 34//61 56//61 57//61
f 24//62 37//62 58//62
f 36//63 37//63 15//63
f 13//64 59//64 35//64
f 8//65 2//65 59//65
f 2//66 22//66 59//66
f 28//67 34//67 61//67
f 1//68 8//68 59//68
f 60//69 30//69 14//69
f 60//70 5//70 9//70
f 25//71 35//71 32//71
f 32//72 21//72 25//72
f 14//73 30//73 62//73
f 13//74 63//74 1//74
f 11//75 32//75 35//75
f 63//76 15//76 38//76
f 63//77 6//77 27//77
f 64//78 16//78 41//78
f 64//79 12//79 24//79
f 32//80 42//80 65//80
f 42//81 45//81 65//81
f 21//82 45//82 10//82
f 66//83 2//83 8//83
f 7//84 20//84 66//84
f 26//85 58//85 36//85
f 57//86 56//86 15//86
f 6//87 38//87 56//87
f 55//88 54//88 16//88
f 41//89 54//89 33//89
f 22//90 53//90 42//90
f 44//91 52//91 43//91
f 45//92 51//92 31//92
f 18//93 47//93 49//93
f 7//94 18//94 46//94
f 48//95 46//95 28//95
f 48//96 62//96 3//96
f 6//97 19//97 49//97
f 1//98 27//98 50//98
f 27//99 6//99 47//99
f 50//100 47//100 18//100
f 17//101 43//101 51//101
f 51//102 9//102 5//102
f 7//103 29//103 52//103
f 52//104 29//104 3//104
f 52//105 30//105 9//105
f 2//106 20//106 53//106
f 20//107 7//107 44//107
f 42//108 53//108 44//108
f 10//109 31//109 55//109
f 55//110 31//110 5//110
f 21//111 10//111 40//111
f 12//112 33//112 57//112
f 57//113 33//113 23//113
f 26//114 4//114 24//114
f 24//115 12//115 37//115
f 36//116 58//116 37//116
f 13//117 1//117 59//117
f 28//118 19//118 34//118
f 25//119 4//119 35//119
f 32//120 65//120 21//120
f 13//121 36//121 63//121
f 63//122 36//122 15//122
f 63//123 38//123 6//123
f 64//124 39//124 16//124
f 64//125 41//125 12//125
f 32//126 11//126 42//126
f 42//127 17//127 45//127
f 21//128 65//128 45//128
