# Blender 4.1.1
# www.blender.org
mtllib Cube.049_Cube.053.mtl
o Cube.049_Cube.053
v -0.835544 5.924065 15.199897
v -0.932710 5.925500 15.348473
v -2.040583 5.727976 14.620146
v -0.796196 5.703651 15.216171
v -2.019485 5.504015 14.634174
v -1.388927 5.824455 14.832355
v -1.530305 5.839594 14.948992
v -0.862795 5.930173 15.281036
v -2.043118 5.557832 14.620853
v -1.466017 5.597418 15.009586
v -0.893778 5.816876 15.368143
v -1.363783 5.592227 14.857254
v -0.809024 5.815717 15.203016
v -2.039314 5.609754 14.518818
v -1.365289 5.712286 14.827099
v -1.414899 5.588395 14.935156
v -1.500894 5.722496 15.028257
v -1.447620 5.840727 14.916216
v -1.978031 5.723691 14.462835
v -1.219687 5.869288 15.167866
v -1.201257 5.647808 15.199960
v -0.943865 5.871579 15.392813
v -1.940739 5.500311 14.484692
v -1.095840 5.658670 15.038509
v -0.882408 5.706479 15.377249
v -0.808663 5.759442 15.210481
v -1.122794 5.887976 15.017118
v -2.012701 5.724128 14.528059
v -1.767519 5.806881 14.802000
v -2.081739 5.654936 14.592884
v -1.739689 5.549975 14.831820
v -0.913436 5.759869 15.372511
v -1.641306 5.547789 14.684466
v -1.965823 5.664829 14.467006
v -0.843300 5.761206 15.271463
v -1.108031 5.753353 15.031273
v -1.371670 5.665195 14.849411
v -1.384173 5.766309 14.840906
v -1.140561 5.661634 15.149608
v -1.441050 5.606618 14.969560
v -1.397322 5.598274 14.906059
v -1.219237 5.762177 15.196112
v -1.757064 5.677458 14.822613
v -1.486962 5.772180 14.993888
v -1.468419 5.663364 14.995390
v -1.720328 5.798156 14.734129
v -1.413171 5.824638 14.868761
v -1.742074 5.793623 14.763042
v -1.694780 5.782583 14.701281
v -1.149434 5.902367 15.053289
v -1.767765 5.619184 14.853881
v -1.770137 5.760403 14.814321
v -1.219521 5.827597 15.178873
v -1.743892 5.547170 14.714998
v -1.722885 5.564306 14.802678
v -1.694220 5.680984 14.649332
v -1.652607 5.608247 14.684813
v -1.109134 5.700150 15.047300
v -0.878920 5.869016 15.281624
v -2.003580 5.503212 14.604109
v -1.971143 5.625376 14.507603
v -2.073369 5.714469 14.549709
v -1.116896 5.805441 15.030536
v -1.124707 5.651397 15.083879
v -1.222198 5.717622 15.212599
v -1.153702 5.890937 15.128147
vn -0.2534 0.9618 0.1033
vn 0.1751 -0.9835 -0.0463
vn -0.1884 0.1226 -0.9744
vn -0.7882 -0.4381 -0.4323
vn 0.9085 0.2701 0.3188
vn -0.2025 0.9697 0.1365
vn 0.2395 -0.9542 -0.1793
vn 0.0524 -0.9864 0.1559
vn 0.0938 -0.9811 0.1693
vn 0.1975 -0.9798 -0.0310
vn 0.4170 0.3591 -0.8349
vn 0.5542 0.0561 -0.8305
vn 0.8475 0.2378 0.4745
vn 0.8682 0.0707 0.4911
vn -0.9400 -0.1748 -0.2931
vn -0.8788 -0.1295 -0.4593
vn -0.3540 0.1569 -0.9220
vn 0.0861 -0.9810 0.1736
vn -0.0686 0.9879 -0.1389
vn 0.5122 -0.1097 -0.8519
vn 0.5430 -0.0968 -0.8342
vn -0.8689 0.3648 0.3345
vn 0.0138 -0.6221 -0.7828
vn 0.7542 0.4971 0.4291
vn 0.5204 -0.4222 -0.7422
vn 0.5393 -0.0779 -0.8385
vn -0.1025 -0.9092 0.4036
vn 0.1066 -0.9915 0.0745
vn 0.0573 -0.9852 0.1614
vn -0.2916 -0.6022 0.7432
vn -0.5734 0.5687 0.5897
vn -0.5569 0.1554 0.8159
vn 0.0978 0.9266 -0.3632
vn -0.2089 0.9779 -0.0038
vn 0.0496 0.9550 -0.2926
vn -0.1839 0.9799 -0.0780
vn -0.0407 0.9375 -0.3456
vn -0.1040 0.9918 -0.0742
vn -0.0292 0.9960 -0.0848
vn -0.1380 0.9872 -0.0799
vn 0.0479 0.9165 -0.3972
vn -0.0100 0.9266 -0.3760
vn -0.2583 0.9571 0.1314
vn -0.2772 -0.5786 0.7671
vn -0.4706 -0.4355 0.7674
vn -0.6325 0.4532 0.6281
vn -0.5301 0.2069 0.8223
vn -0.5852 0.0272 0.8105
vn -0.5740 -0.0086 0.8188
vn -0.5497 0.5955 0.5859
vn -0.5852 0.2047 0.7846
vn -0.4739 0.5870 0.6564
vn 0.2036 -0.9742 -0.0969
vn 0.1281 -0.9875 0.0914
vn 0.1424 -0.9846 0.1016
vn 0.1978 -0.9798 -0.0307
vn 0.5108 -0.0371 -0.8589
vn -0.0835 -0.9055 0.4161
vn 0.5708 -0.0013 -0.8211
vn 0.4051 0.3120 -0.8594
vn 0.5588 -0.0828 -0.8251
vn 0.5379 0.3362 -0.7730
vn 0.6070 -0.4060 -0.6832
vn 0.7970 0.2100 0.5663
vn 0.6895 -0.1750 0.7028
vn 0.8433 0.2263 0.4874
vn -0.8739 -0.2864 -0.3928
vn 0.9151 -0.2382 0.3253
vn -0.8620 -0.4598 -0.2133
vn -0.7943 -0.4498 -0.4082
vn 0.7240 0.4659 0.5087
vn -0.4514 -0.1849 0.8730
vn -0.8963 -0.1708 -0.4092
vn 0.4842 0.0935 -0.8699
vn 0.8002 -0.2336 0.5523
vn 0.4995 0.3743 -0.7813
vn 0.5824 -0.0897 -0.8080
vn 0.2829 -0.9472 -0.1507
vn 0.2418 -0.9703 -0.0017
vn -0.4691 0.3337 0.8176
vn -0.6677 0.2970 0.6827
vn -0.5958 0.1482 0.7893
vn -0.1101 0.9929 -0.0453
vn -0.2126 0.9620 0.1712
vn 0.4999 -0.2593 -0.8263
vn 0.4811 -0.1464 -0.8644
vn 0.5397 -0.0791 -0.8382
vn -0.0064 -0.9811 0.1933
vn 0.0548 -0.9849 0.1641
vn -0.6205 0.1973 0.7590
vn -0.5355 -0.0000 0.8445
vn -0.3403 -0.4081 0.8472
vn 0.0348 0.9539 -0.2981
vn -0.0660 0.9890 -0.1324
vn -0.2312 0.9727 -0.0214
vn -0.1616 0.9804 -0.1128
vn -0.0622 0.9836 -0.1690
vn 0.0821 0.9453 -0.3157
vn -0.1578 0.9813 -0.1100
vn -0.0358 0.9383 -0.3441
vn -0.6036 0.4602 0.6511
vn -0.6322 -0.0870 0.7699
vn -0.5349 0.2445 0.8088
vn -0.5851 0.2384 0.7751
vn -0.5801 0.0039 0.8145
vn -0.5499 0.2111 0.8081
vn -0.5788 0.1604 0.7996
vn -0.5851 0.2043 0.7848
vn 0.3259 -0.9092 -0.2591
vn 0.3303 -0.9084 -0.2563
vn 0.2378 -0.9685 -0.0743
vn 0.5141 0.1010 -0.8517
vn 0.5402 0.1058 -0.8348
vn 0.5070 0.0254 -0.8616
vn 0.5648 -0.0276 -0.8248
vn 0.6044 -0.2412 -0.7593
vn 0.7972 0.2114 0.5655
vn -0.8636 -0.2115 -0.4576
vn 0.8524 0.2638 0.4516
vn -0.4109 -0.2803 0.8675
vn 0.4858 0.0703 -0.8713
vn 0.6099 0.0927 -0.7871
vn 0.5841 -0.0711 -0.8086
vn 0.1193 -0.9763 0.1808
vn 0.0773 -0.9816 0.1747
vn -0.4848 0.2318 0.8434
vn -0.3483 -0.5942 0.7250
vn -0.5891 -0.3117 0.7456
s 0
usemtl Fence2
f 20//1 2//1 66//1
f 24//2 4//2 64//2
f 14//3 28//3 61//3
f 60//4 9//4 30//4
f 59//5 11//5 35//5
f 66//6 8//6 50//6
f 54//7 41//7 16//7
f 23//8 33//8 54//8
f 60//9 54//9 55//9
f 39//10 25//10 21//10
f 56//11 38//11 15//11
f 34//12 19//12 56//12
f 35//13 4//13 26//13
f 13//14 35//14 26//14
f 23//15 61//15 34//15
f 60//16 61//16 23//16
f 14//17 62//17 28//17
f 64//18 4//18 39//18
f 7//19 66//19 18//19
f 26//20 36//20 13//20
f 63//21 27//21 1//21
f 30//22 3//22 62//22
f 60//23 14//23 61//23
f 59//24 22//24 11//24
f 57//25 15//25 37//25
f 6//26 56//26 19//26
f 55//27 16//27 40//27
f 39//28 4//28 25//28
f 41//29 33//29 12//29
f 22//30 42//30 11//30
f 44//31 43//31 17//31
f 45//32 31//32 10//32
f 18//33 49//33 46//33
f 7//34 46//34 48//34
f 48//35 29//35 7//35
f 48//36 28//36 62//36
f 48//37 3//37 29//37
f 6//38 49//38 47//38
f 1//39 50//39 8//39
f 19//40 28//40 49//40
f 28//41 46//41 49//41
f 27//42 47//42 50//42
f 50//43 18//43 66//43
f 17//44 51//44 45//44
f 51//45 5//45 31//45
f 9//46 51//46 43//46
f 7//47 52//47 44//47
f 52//48 3//48 30//48
f 52//49 9//49 43//49
f 2//50 53//50 22//50
f 20//51 44//51 53//51
f 42//52 44//52 17//52
f 10//53 55//53 40//53
f 60//54 23//54 54//54
f 55//55 5//55 60//55
f 21//56 40//56 39//56
f 12//57 57//57 37//57
f 40//58 16//58 39//58
f 57//59 23//59 34//59
f 26//60 24//60 58//60
f 34//61 56//61 57//61
f 24//62 37//62 58//62
f 36//63 37//63 15//63
f 13//64 59//64 35//64
f 8//65 2//65 59//65
f 2//66 22//66 59//66
f 28//67 34//67 61//67
f 1//68 8//68 59//68
f 60//69 30//69 14//69
f 60//70 5//70 9//70
f 25//71 35//71 32//71
f 32//72 21//72 25//72
f 14//73 30//73 62//73
f 13//74 63//74 1//74
f 11//75 32//75 35//75
f 63//76 15//76 38//76
f 63//77 6//77 27//77
f 64//78 16//78 41//78
f 64//79 12//79 24//79
f 32//80 42//80 65//80
f 42//81 45//81 65//81
f 21//82 45//82 10//82
f 66//83 2//83 8//83
f 7//84 20//84 66//84
f 26//85 58//85 36//85
f 57//86 56//86 15//86
f 6//87 38//87 56//87
f 55//88 54//88 16//88
f 41//89 54//89 33//89
f 22//90 53//90 42//90
f 44//91 52//91 43//91
f 45//92 51//92 31//92
f 18//93 47//93 49//93
f 7//94 18//94 46//94
f 48//95 46//95 28//95
f 48//96 62//96 3//96
f 6//97 19//97 49//97
f 1//98 27//98 50//98
f 27//99 6//99 47//99
f 50//100 47//100 18//100
f 17//101 43//101 51//101
f 51//102 9//102 5//102
f 7//103 29//103 52//103
f 52//104 29//104 3//104
f 52//105 30//105 9//105
f 2//106 20//106 53//106
f 20//107 7//107 44//107
f 42//108 53//108 44//108
f 10//109 31//109 55//109
f 55//110 31//110 5//110
f 21//111 10//111 40//111
f 12//112 33//112 57//112
f 57//113 33//113 23//113
f 26//114 4//114 24//114
f 24//115 12//115 37//115
f 36//116 58//116 37//116
f 13//117 1//117 59//117
f 28//118 19//118 34//118
f 25//119 4//119 35//119
f 32//120 65//120 21//120
f 13//121 36//121 63//121
f 63//122 36//122 15//122
f 63//123 38//123 6//123
f 64//124 39//124 16//124
f 64//125 41//125 12//125
f 32//126 11//126 42//126
f 42//127 17//127 45//127
f 21//128 65//128 45//128
