# Blender 4.1.1
# www.blender.org
mtllib group984652469.004.mtl
o group984652469.004
v 347.426086 282.338135 -85.202942
v 348.164032 285.092224 -85.202942
v 338.573914 287.661865 -85.202942
v 337.835968 284.907776 -85.202942
v 347.426086 282.338135 -34.797058
v 337.835968 284.907776 -34.797058
v 338.573914 287.661865 -34.797058
v 348.164032 285.092224 -34.797058
vn -0.0000 -0.0000 -1.0000
vn -0.0000 -0.0000 1.0000
vn 0.9659 -0.2588 -0.0000
vn -0.9659 0.2588 -0.0000
vn -0.2588 -0.9659 -0.0000
vn 0.2588 0.9659 -0.0000
vt -0.042038 -0.039355
vt -0.004919 0.160103
vt 0.045169 0.135059
vt 0.004919 0.160103
vt 0.042038 -0.039355
vt -0.045169 0.135059
vt 0.060449 0.050219
vt -0.133220 0.119735
vt -0.100671 0.165304
vt -0.060449 0.050219
vt 0.133220 0.119735
vt -0.027899 0.004650
vt 0.000673 -0.057581
vt -0.120207 0.192654
vt 0.066258 0.126059
vt -0.000673 -0.057581
vt 0.120207 0.192654
vt 0.185792 0.009014
vt -0.092126 -0.014311
vt 0.092126 -0.014311
vt 0.027899 0.004650
vt 0.100670 0.165304
vt -0.185792 0.009014
vt -0.066258 0.126059
s 0
usemtl mat21.004
f 4/1/1 2/2/1 1/3/1
f 8/4/2 6/5/2 5/6/2
f 8/7/3 1/8/3 2/9/3
f 7/10/4 4/11/4 6/12/4
f 6/13/5 1/14/5 5/15/5
f 7/16/6 2/17/6 3/18/6
f 4/1/1 3/19/1 2/2/1
f 8/4/2 7/20/2 6/5/2
f 8/7/3 5/21/3 1/8/3
f 7/10/4 3/22/4 4/11/4
f 6/13/5 4/23/5 1/14/5
f 7/16/6 8/24/6 2/17/6
