# Blender 4.1.1
# www.blender.org
mtllib Cube.034_Cube.037.mtl
o Cube.034_Cube.037
v 12.538717 4.329842 9.255155
v 12.362721 4.328278 9.278451
v 12.355858 5.668731 9.280041
v 12.518995 4.321121 9.031706
v 12.327831 5.676793 9.056546
v 12.538297 5.001587 9.254938
v 12.367091 5.051898 9.299417
v 12.457047 4.306941 9.268170
v 12.332975 5.695591 9.113576
v 12.320945 5.001586 9.050832
v 12.353699 4.301507 9.164855
v 12.502328 5.001586 9.022799
v 12.536941 4.322317 9.143831
v 12.426742 5.740660 9.161520
v 12.541520 5.001587 9.140231
v 12.409398 5.001586 9.030545
v 12.302094 5.001587 9.180654
v 12.438808 5.001587 9.283994
v 12.520316 5.704000 9.260368
v 12.353587 4.671837 9.274090
v 12.309336 4.671837 9.053944
v 12.313045 4.321155 9.228659
v 12.494468 5.694355 9.034524
v 12.502013 4.671837 9.040852
v 12.338570 4.303485 9.054553
v 12.523963 4.326252 9.088706
v 12.533725 4.671837 9.270544
v 12.447298 5.696768 9.268878
v 12.359310 5.332589 9.309356
v 12.347689 5.728354 9.215619
v 12.317624 5.331333 9.052597
v 12.332530 4.323736 9.112764
v 12.493150 5.331333 9.028358
v 12.516105 5.700371 9.200366
v 12.454675 4.321119 9.098417
v 12.513206 4.671837 9.135933
v 12.513655 5.001586 9.095736
v 12.526530 5.001587 9.197160
v 12.385568 4.647380 9.054787
v 12.368896 5.001586 9.054194
v 12.444337 5.001586 9.036233
v 12.317022 4.671837 9.169527
v 12.331731 5.331830 9.180814
v 12.344398 5.001587 9.225981
v 12.339654 5.001586 9.115686
v 12.440209 5.332188 9.290259
v 12.494924 5.001587 9.260563
v 12.403853 5.334930 9.290614
v 12.479413 5.331440 9.269361
v 12.491013 4.671837 9.290565
v 12.292689 5.332136 9.126371
v 12.341887 5.334870 9.264523
v 12.339340 4.671837 9.233391
v 12.412744 5.399188 9.048037
v 12.352736 5.331333 9.062799
v 12.510662 5.374453 9.168393
v 12.494264 5.331511 9.089857
v 12.492666 4.671837 9.084292
v 12.440415 4.328944 9.211249
v 12.361376 5.680278 9.052048
v 12.474451 5.688351 9.163573
v 12.395595 5.736301 9.271476
v 12.515496 4.671837 9.188725
v 12.447751 4.671837 9.040243
v 12.296169 4.671837 9.126738
v 12.424714 4.636046 9.281837
vn -0.1034 0.0099 0.9946
vn 0.0112 0.0266 -0.9996
vn 0.7295 0.6706 0.1345
vn -0.1133 0.9506 -0.2889
vn 0.2519 -0.9627 0.0986
vn -0.1030 -0.0514 0.9933
vn 0.1605 0.0420 -0.9861
vn -0.2238 0.0174 -0.9745
vn -0.2122 -0.0248 -0.9769
vn 0.0108 -0.0008 -0.9999
vn 0.9653 0.0607 0.2541
vn 0.9975 -0.0098 -0.0694
vn 0.0851 -0.9930 0.0820
vn 0.0617 -0.9944 -0.0855
vn -0.2785 0.9604 0.0015
vn -0.1012 0.9944 0.0306
vn 0.6014 0.7733 0.2010
vn -0.2199 -0.0209 -0.9753
vn 0.2011 -0.0135 0.9795
vn 0.9725 0.0610 -0.2246
vn 0.9758 0.0240 -0.2174
vn -0.6990 0.4784 0.5315
vn 0.5856 0.5093 -0.6306
vn 0.1051 -0.9296 0.3533
vn 0.8468 0.0403 -0.5303
vn 0.9798 0.0266 -0.1982
vn -0.5042 -0.0022 -0.8636
vn -0.1273 0.0181 -0.9917
vn -0.2257 0.0101 -0.9742
vn -0.8515 -0.0778 -0.5186
vn -0.7295 0.0651 0.6809
vn -0.9608 -0.0112 0.2772
vn 0.4701 -0.0187 0.8824
vn 0.0120 0.0295 0.9995
vn 0.3887 -0.0218 0.9211
vn 0.0876 0.0492 0.9949
vn 0.3827 0.0842 0.9201
vn 0.1286 -0.0204 0.9915
vn 0.1779 -0.0768 0.9811
vn 0.1146 0.0114 0.9933
vn 0.4706 0.0425 0.8813
vn 0.4232 0.0771 0.9028
vn -0.1301 -0.0008 0.9915
vn -0.8608 -0.1062 -0.4977
vn -0.9468 0.0316 -0.3203
vn -0.8074 0.1099 0.5797
vn -0.9455 -0.0444 0.3226
vn -0.9871 0.0340 0.1566
vn -0.9925 0.0255 0.1195
vn -0.7104 0.0438 0.7024
vn -0.9436 0.0219 0.3303
vn -0.7299 -0.0560 0.6812
vn 0.0699 0.0294 -0.9971
vn -0.1295 -0.0095 -0.9915
vn -0.1301 -0.0273 -0.9911
vn 0.0107 -0.0012 -0.9999
vn 0.9866 0.0553 -0.1532
vn -0.5041 -0.0252 -0.8633
vn 0.9915 -0.0202 -0.1286
vn 0.9736 0.0908 0.2095
vn 0.9784 0.0039 -0.2065
vn 0.9753 -0.0694 0.2099
vn 0.8457 -0.0657 -0.5296
vn -0.0221 -0.9975 0.0664
vn -0.2410 -0.9268 -0.2878
vn 0.0707 -0.9949 0.0718
vn -0.1735 0.9771 -0.1228
vn 0.1874 -0.8965 -0.4013
vn -0.3386 0.8947 -0.2913
vn -0.1382 0.9443 -0.2988
vn 0.0186 -0.9437 0.3302
vn -0.9940 -0.0790 -0.0756
vn -0.1575 0.9875 -0.0055
vn 0.9978 0.0638 -0.0203
vn -0.0633 -0.9269 -0.3698
vn 0.9663 -0.0388 0.2544
vn 0.9758 -0.0238 -0.2174
vn 0.1607 -0.0103 -0.9870
vn 0.0112 -0.0547 -0.9984
vn -0.8934 -0.1108 0.4354
vn -0.8910 0.1321 0.4343
vn -0.9602 0.0364 0.2770
vn 0.1013 -0.0313 0.9944
vn -0.1384 -0.0610 0.9885
vn 0.9263 0.0792 -0.3685
vn 0.9619 0.0989 -0.2549
vn 0.9796 0.0263 -0.1994
vn -0.2858 0.0445 -0.9572
vn -0.2292 0.0107 -0.9733
vn -0.9419 0.0662 0.3292
vn -0.9924 -0.0215 0.1212
vn -0.9405 -0.1234 -0.3165
vn 0.3853 -0.0065 0.9228
vn 0.1972 -0.0194 0.9802
vn 0.0141 0.0583 0.9982
vn 0.1287 0.0499 0.9904
vn 0.2291 -0.0017 0.9734
vn 0.4242 -0.0345 0.9049
vn 0.1285 0.0451 0.9907
vn 0.3841 0.0791 0.9199
vn -0.8103 0.0724 0.5815
vn -0.9923 0.1118 0.0526
vn -0.9320 -0.0386 0.3603
vn -0.9315 0.0221 0.3631
vn -0.9906 0.0311 0.1328
vn -0.9436 -0.0209 0.3304
vn -0.9582 0.0150 0.2858
vn -0.9438 0.0219 0.3299
vn 0.2790 0.0079 -0.9603
vn 0.2790 0.0027 -0.9603
vn 0.0699 -0.0119 -0.9975
vn 0.9994 0.0281 -0.0182
vn 0.9998 -0.0033 -0.0181
vn 0.9945 0.0505 -0.0913
vn 0.9881 -0.0093 -0.1534
vn 0.9282 -0.0463 -0.3692
vn -0.0211 -0.9975 0.0678
vn -0.1045 0.9931 -0.0527
vn 0.1100 -0.9883 0.1061
vn -0.9796 -0.0952 -0.1771
vn 0.9968 0.0667 -0.0432
vn 0.9955 -0.0849 -0.0432
vn 0.9795 -0.0277 -0.1995
vn -0.2077 -0.0529 -0.9768
vn -0.2257 -0.0142 -0.9741
vn -0.9358 -0.0970 0.3389
vn -0.8655 -0.0223 -0.5004
vn -0.9766 0.1229 -0.1767
s 0
usemtl Fence
f 20//1 2//1 66//1
f 24//2 4//2 64//2
f 14//3 28//3 61//3
f 60//4 9//4 30//4
f 59//5 11//5 35//5
f 66//6 8//6 50//6
f 54//7 41//7 16//7
f 23//8 33//8 54//8
f 60//9 54//9 55//9
f 39//10 25//10 21//10
f 56//11 38//11 15//11
f 34//12 19//12 56//12
f 35//13 4//13 26//13
f 13//14 35//14 26//14
f 23//15 61//15 34//15
f 60//16 61//16 23//16
f 14//17 62//17 28//17
f 64//18 4//18 39//18
f 7//19 66//19 18//19
f 26//20 36//20 13//20
f 63//21 27//21 1//21
f 30//22 3//22 62//22
f 60//23 14//23 61//23
f 59//24 22//24 11//24
f 57//25 15//25 37//25
f 6//26 56//26 19//26
f 55//27 16//27 40//27
f 39//28 4//28 25//28
f 41//29 33//29 12//29
f 22//30 42//30 11//30
f 44//31 43//31 17//31
f 45//32 31//32 10//32
f 18//33 49//33 46//33
f 7//34 46//34 48//34
f 48//35 29//35 7//35
f 48//36 28//36 62//36
f 48//37 3//37 29//37
f 6//38 49//38 47//38
f 1//39 50//39 8//39
f 19//40 28//40 49//40
f 28//41 46//41 49//41
f 27//42 47//42 50//42
f 50//43 18//43 66//43
f 17//44 51//44 45//44
f 51//45 5//45 31//45
f 9//46 51//46 43//46
f 7//47 52//47 44//47
f 52//48 3//48 30//48
f 52//49 9//49 43//49
f 2//50 53//50 22//50
f 20//51 44//51 53//51
f 42//52 44//52 17//52
f 10//53 55//53 40//53
f 60//54 23//54 54//54
f 55//55 5//55 60//55
f 21//56 40//56 39//56
f 12//57 57//57 37//57
f 40//58 16//58 39//58
f 57//59 23//59 34//59
f 26//60 24//60 58//60
f 34//61 56//61 57//61
f 24//62 37//62 58//62
f 36//63 37//63 15//63
f 13//64 59//64 35//64
f 8//65 2//65 59//65
f 2//66 22//66 59//66
f 28//67 34//67 61//67
f 1//68 8//68 59//68
f 60//69 30//69 14//69
f 60//70 5//70 9//70
f 25//71 35//71 32//71
f 32//72 21//72 25//72
f 14//73 30//73 62//73
f 13//74 63//74 1//74
f 11//75 32//75 35//75
f 63//76 15//76 38//76
f 63//77 6//77 27//77
f 64//78 16//78 41//78
f 64//79 12//79 24//79
f 32//80 42//80 65//80
f 42//81 45//81 65//81
f 21//82 45//82 10//82
f 66//83 2//83 8//83
f 7//84 20//84 66//84
f 26//85 58//85 36//85
f 57//86 56//86 15//86
f 6//87 38//87 56//87
f 55//88 54//88 16//88
f 41//89 54//89 33//89
f 22//90 53//90 42//90
f 44//91 52//91 43//91
f 45//92 51//92 31//92
f 18//93 47//93 49//93
f 7//94 18//94 46//94
f 48//95 46//95 28//95
f 48//96 62//96 3//96
f 6//97 19//97 49//97
f 1//98 27//98 50//98
f 27//99 6//99 47//99
f 50//100 47//100 18//100
f 17//101 43//101 51//101
f 51//102 9//102 5//102
f 7//103 29//103 52//103
f 52//104 29//104 3//104
f 52//105 30//105 9//105
f 2//106 20//106 53//106
f 20//107 7//107 44//107
f 42//108 53//108 44//108
f 10//109 31//109 55//109
f 55//110 31//110 5//110
f 21//111 10//111 40//111
f 12//112 33//112 57//112
f 57//113 33//113 23//113
f 26//114 4//114 24//114
f 24//115 12//115 37//115
f 36//116 58//116 37//116
f 13//117 1//117 59//117
f 28//118 19//118 34//118
f 25//119 4//119 35//119
f 32//120 65//120 21//120
f 13//121 36//121 63//121
f 63//122 36//122 15//122
f 63//123 38//123 6//123
f 64//124 39//124 16//124
f 64//125 41//125 12//125
f 32//126 11//126 42//126
f 42//127 17//127 45//127
f 21//128 65//128 45//128
