# Blender 4.1.1
# www.blender.org
mtllib Cube.034_Cube.037.mtl
o Cube.034_Cube.037
v 4.440279 -0.112108 -0.670947
v 4.375794 -0.103572 -0.670374
v 4.373279 -0.102989 -1.161519
v 4.433053 -0.193980 -0.667752
v 4.363010 -0.184878 -1.164473
v 4.440125 -0.112187 -0.917076
v 4.377395 -0.095890 -0.935510
v 4.410355 -0.107339 -0.662556
v 4.364895 -0.163982 -1.171361
v 4.360487 -0.186972 -0.917076
v 4.372488 -0.145194 -0.660565
v 4.426946 -0.197243 -0.917076
v 4.439628 -0.152897 -0.668190
v 4.399251 -0.146415 -1.187874
v 4.441306 -0.154216 -0.917076
v 4.392896 -0.194405 -0.917076
v 4.353580 -0.139405 -0.917076
v 4.403672 -0.101541 -0.917076
v 4.433537 -0.110197 -1.174442
v 4.372447 -0.105170 -0.796255
v 4.356233 -0.185832 -0.796255
v 4.357592 -0.121816 -0.667764
v 4.424066 -0.192947 -1.170908
v 4.426831 -0.190629 -0.796255
v 4.366945 -0.185609 -0.661290
v 4.434873 -0.173095 -0.669632
v 4.438450 -0.106469 -0.796255
v 4.406783 -0.107079 -1.171792
v 4.374544 -0.092248 -1.038356
v 4.370286 -0.126593 -1.183365
v 4.359270 -0.186325 -1.037896
v 4.364732 -0.164280 -0.668710
v 4.423583 -0.195206 -1.037896
v 4.431994 -0.132182 -1.173112
v 4.409486 -0.169537 -0.667751
v 4.430932 -0.155791 -0.796255
v 4.431096 -0.170519 -0.917076
v 4.435814 -0.133357 -0.917076
v 4.384165 -0.185523 -0.787294
v 4.378056 -0.185740 -0.917076
v 4.405698 -0.192321 -0.917076
v 4.359050 -0.143482 -0.796255
v 4.364439 -0.139346 -1.038078
v 4.369080 -0.122797 -0.917076
v 4.367342 -0.163209 -0.917076
v 4.404186 -0.099245 -1.038209
v 4.424233 -0.110126 -0.917076
v 4.390865 -0.099115 -1.039214
v 4.418550 -0.106902 -1.037935
v 4.422800 -0.099133 -0.796255
v 4.350134 -0.159294 -1.038190
v 4.368160 -0.108675 -1.039192
v 4.367227 -0.120082 -0.796255
v 4.394122 -0.187996 -1.062758
v 4.372135 -0.182587 -1.037896
v 4.430000 -0.143897 -1.053695
v 4.423991 -0.172673 -1.037961
v 4.423406 -0.174712 -0.796255
v 4.404261 -0.128195 -0.670618
v 4.375301 -0.186526 -1.165750
v 4.416732 -0.145663 -1.168708
v 4.387839 -0.106127 -1.186277
v 4.431771 -0.136448 -0.796255
v 4.406949 -0.190852 -0.796255
v 4.351409 -0.159160 -0.796255
v 4.398508 -0.102331 -0.783141
vn -0.1034 0.9946 -0.0099
vn 0.0112 -0.9996 -0.0266
vn 0.7295 0.1345 -0.6706
vn -0.1133 -0.2889 -0.9506
vn 0.2519 0.0986 0.9627
vn -0.1030 0.9933 0.0514
vn 0.1605 -0.9861 -0.0420
vn -0.2238 -0.9745 -0.0174
vn -0.2122 -0.9769 0.0248
vn 0.0108 -0.9999 0.0008
vn 0.9653 0.2542 -0.0607
vn 0.9975 -0.0694 0.0098
vn 0.0851 0.0820 0.9930
vn 0.0617 -0.0855 0.9944
vn -0.2785 0.0015 -0.9604
vn -0.1012 0.0306 -0.9944
vn 0.6014 0.2010 -0.7733
vn -0.2199 -0.9753 0.0209
vn 0.2011 0.9795 0.0135
vn 0.9725 -0.2246 -0.0610
vn 0.9758 -0.2174 -0.0240
vn -0.6990 0.5314 -0.4785
vn 0.5856 -0.6306 -0.5094
vn 0.1051 0.3532 0.9296
vn 0.8468 -0.5303 -0.0403
vn 0.9798 -0.1982 -0.0266
vn -0.5042 -0.8636 0.0022
vn -0.1273 -0.9917 -0.0181
vn -0.2257 -0.9742 -0.0101
vn -0.8515 -0.5186 0.0778
vn -0.7295 0.6809 -0.0651
vn -0.9608 0.2772 0.0112
vn 0.4700 0.8824 0.0187
vn 0.0120 0.9995 -0.0295
vn 0.3887 0.9211 0.0218
vn 0.0876 0.9949 -0.0492
vn 0.3827 0.9200 -0.0842
vn 0.1286 0.9915 0.0204
vn 0.1779 0.9811 0.0768
vn 0.1146 0.9933 -0.0114
vn 0.4706 0.8813 -0.0425
vn 0.4232 0.9028 -0.0771
vn -0.1301 0.9915 0.0008
vn -0.8608 -0.4977 0.1062
vn -0.9468 -0.3203 -0.0316
vn -0.8074 0.5796 -0.1099
vn -0.9455 0.3226 0.0444
vn -0.9871 0.1567 -0.0340
vn -0.9925 0.1195 -0.0255
vn -0.7104 0.7025 -0.0438
vn -0.9436 0.3303 -0.0219
vn -0.7299 0.6812 0.0560
vn 0.0699 -0.9971 -0.0294
vn -0.1295 -0.9915 0.0095
vn -0.1301 -0.9911 0.0273
vn 0.0107 -0.9999 0.0012
vn 0.9866 -0.1532 -0.0553
vn -0.5041 -0.8633 0.0252
vn 0.9915 -0.1286 0.0202
vn 0.9736 0.2095 -0.0908
vn 0.9785 -0.2064 -0.0039
vn 0.9753 0.2098 0.0694
vn 0.8457 -0.5296 0.0657
vn -0.0221 0.0664 0.9975
vn -0.2410 -0.2878 0.9268
vn 0.0707 0.0718 0.9949
vn -0.1735 -0.1228 -0.9772
vn 0.1874 -0.4013 0.8966
vn -0.3386 -0.2913 -0.8947
vn -0.1382 -0.2988 -0.9443
vn 0.0186 0.3302 0.9437
vn -0.9940 -0.0756 0.0790
vn -0.1575 -0.0055 -0.9875
vn 0.9978 -0.0202 -0.0638
vn -0.0633 -0.3698 0.9269
vn 0.9663 0.2544 0.0388
vn 0.9758 -0.2174 0.0238
vn 0.1607 -0.9870 0.0103
vn 0.0112 -0.9984 0.0547
vn -0.8934 0.4354 0.1108
vn -0.8911 0.4343 -0.1321
vn -0.9602 0.2770 -0.0364
vn 0.1013 0.9944 0.0313
vn -0.1384 0.9885 0.0610
vn 0.9263 -0.3684 -0.0792
vn 0.9619 -0.2549 -0.0989
vn 0.9795 -0.1995 -0.0263
vn -0.2858 -0.9572 -0.0445
vn -0.2292 -0.9733 -0.0107
vn -0.9419 0.3292 -0.0662
vn -0.9924 0.1212 0.0215
vn -0.9405 -0.3165 0.1234
vn 0.3853 0.9228 0.0065
vn 0.1972 0.9802 0.0194
vn 0.0141 0.9982 -0.0583
vn 0.1287 0.9904 -0.0499
vn 0.2291 0.9734 0.0017
vn 0.4242 0.9049 0.0345
vn 0.1285 0.9907 -0.0451
vn 0.3841 0.9199 -0.0791
vn -0.8103 0.5815 -0.0724
vn -0.9923 0.0526 -0.1118
vn -0.9320 0.3603 0.0386
vn -0.9315 0.3631 -0.0221
vn -0.9906 0.1328 -0.0311
vn -0.9436 0.3303 0.0209
vn -0.9582 0.2858 -0.0150
vn -0.9438 0.3298 -0.0219
vn 0.2790 -0.9603 -0.0080
vn 0.2790 -0.9603 -0.0027
vn 0.0699 -0.9975 0.0119
vn 0.9994 -0.0182 -0.0281
vn 0.9998 -0.0181 0.0033
vn 0.9945 -0.0912 -0.0505
vn 0.9881 -0.1534 0.0093
vn 0.9282 -0.3692 0.0463
vn -0.0212 0.0678 0.9975
vn -0.1045 -0.0528 -0.9931
vn 0.1100 0.1060 0.9883
vn -0.9796 -0.1772 0.0952
vn 0.9968 -0.0432 -0.0667
vn 0.9955 -0.0432 0.0849
vn 0.9795 -0.1995 0.0277
vn -0.2077 -0.9768 0.0529
vn -0.2256 -0.9741 0.0142
vn -0.9358 0.3389 0.0970
vn -0.8655 -0.5004 0.0223
vn -0.9766 -0.1766 -0.1229
s 0
usemtl Fence
f 20//1 2//1 66//1
f 24//2 4//2 64//2
f 14//3 28//3 61//3
f 60//4 9//4 30//4
f 59//5 11//5 35//5
f 66//6 8//6 50//6
f 54//7 41//7 16//7
f 23//8 33//8 54//8
f 60//9 54//9 55//9
f 39//10 25//10 21//10
f 56//11 38//11 15//11
f 34//12 19//12 56//12
f 35//13 4//13 26//13
f 13//14 35//14 26//14
f 23//15 61//15 34//15
f 60//16 61//16 23//16
f 14//17 62//17 28//17
f 64//18 4//18 39//18
f 7//19 66//19 18//19
f 26//20 36//20 13//20
f 63//21 27//21 1//21
f 30//22 3//22 62//22
f 60//23 14//23 61//23
f 59//24 22//24 11//24
f 57//25 15//25 37//25
f 6//26 56//26 19//26
f 55//27 16//27 40//27
f 39//28 4//28 25//28
f 41//29 33//29 12//29
f 22//30 42//30 11//30
f 44//31 43//31 17//31
f 45//32 31//32 10//32
f 18//33 49//33 46//33
f 7//34 46//34 48//34
f 48//35 29//35 7//35
f 48//36 28//36 62//36
f 48//37 3//37 29//37
f 6//38 49//38 47//38
f 1//39 50//39 8//39
f 19//40 28//40 49//40
f 28//41 46//41 49//41
f 27//42 47//42 50//42
f 50//43 18//43 66//43
f 17//44 51//44 45//44
f 51//45 5//45 31//45
f 9//46 51//46 43//46
f 7//47 52//47 44//47
f 52//48 3//48 30//48
f 52//49 9//49 43//49
f 2//50 53//50 22//50
f 20//51 44//51 53//51
f 42//52 44//52 17//52
f 10//53 55//53 40//53
f 60//54 23//54 54//54
f 55//55 5//55 60//55
f 21//56 40//56 39//56
f 12//57 57//57 37//57
f 40//58 16//58 39//58
f 57//59 23//59 34//59
f 26//60 24//60 58//60
f 34//61 56//61 57//61
f 24//62 37//62 58//62
f 36//63 37//63 15//63
f 13//64 59//64 35//64
f 8//65 2//65 59//65
f 2//66 22//66 59//66
f 28//67 34//67 61//67
f 1//68 8//68 59//68
f 60//69 30//69 14//69
f 60//70 5//70 9//70
f 25//71 35//71 32//71
f 32//72 21//72 25//72
f 14//73 30//73 62//73
f 13//74 63//74 1//74
f 11//75 32//75 35//75
f 63//76 15//76 38//76
f 63//77 6//77 27//77
f 64//78 16//78 41//78
f 64//79 12//79 24//79
f 32//80 42//80 65//80
f 42//81 45//81 65//81
f 21//82 45//82 10//82
f 66//83 2//83 8//83
f 7//84 20//84 66//84
f 26//85 58//85 36//85
f 57//86 56//86 15//86
f 6//87 38//87 56//87
f 55//88 54//88 16//88
f 41//89 54//89 33//89
f 22//90 53//90 42//90
f 44//91 52//91 43//91
f 45//92 51//92 31//92
f 18//93 47//93 49//93
f 7//94 18//94 46//94
f 48//95 46//95 28//95
f 48//96 62//96 3//96
f 6//97 19//97 49//97
f 1//98 27//98 50//98
f 27//99 6//99 47//99
f 50//100 47//100 18//100
f 17//101 43//101 51//101
f 51//102 9//102 5//102
f 7//103 29//103 52//103
f 52//104 29//104 3//104
f 52//105 30//105 9//105
f 2//106 20//106 53//106
f 20//107 7//107 44//107
f 42//108 53//108 44//108
f 10//109 31//109 55//109
f 55//110 31//110 5//110
f 21//111 10//111 40//111
f 12//112 33//112 57//112
f 57//113 33//113 23//113
f 26//114 4//114 24//114
f 24//115 12//115 37//115
f 36//116 58//116 37//116
f 13//117 1//117 59//117
f 28//118 19//118 34//118
f 25//119 4//119 35//119
f 32//120 65//120 21//120
f 13//121 36//121 63//121
f 63//122 36//122 15//122
f 63//123 38//123 6//123
f 64//124 39//124 16//124
f 64//125 41//125 12//125
f 32//126 11//126 42//126
f 42//127 17//127 45//127
f 21//128 65//128 45//128
