# Blender 4.1.1
# www.blender.org
mtllib Cube.079_Cube.083.mtl
o Cube.079_Cube.083
v -5.453380 -7.201773 -2.128770
v -5.484273 -7.258251 -2.138111
v -5.093939 -7.498850 -1.962094
v -5.485610 -7.192473 -2.053668
v -5.122838 -7.495142 -1.884821
v -5.257320 -7.321332 -2.040195
v -5.269701 -7.386851 -2.049911
v -5.473935 -7.224176 -2.136780
v -5.109752 -7.500427 -1.901804
v -5.321974 -7.376892 -1.971873
v -5.506992 -7.249237 -2.102868
v -5.291074 -7.318147 -1.961083
v -5.468850 -7.194045 -2.091720
v -5.073360 -7.481969 -1.911631
v -5.270045 -7.313160 -2.000963
v -5.307674 -7.347831 -1.964350
v -5.310436 -7.390918 -2.016376
v -5.272679 -7.354407 -2.050790
v -5.054955 -7.452216 -1.949626
v -5.386173 -7.321937 -2.091417
v -5.420094 -7.322103 -2.016459
v -5.501495 -7.269487 -2.122360
v -5.088888 -7.444528 -1.873869
v -5.385329 -7.260740 -2.010701
v -5.522083 -7.247458 -2.065003
v -5.476552 -7.195383 -2.072444
v -5.352661 -7.265111 -2.089005
v -5.069829 -7.474405 -1.953975
v -5.188043 -7.439826 -2.016378
v -5.085553 -7.507998 -1.932271
v -5.226101 -7.436678 -1.929054
v -5.510541 -7.256589 -2.082275
v -5.195862 -7.380010 -1.919600
v -5.063782 -7.449149 -1.929623
v -5.489970 -7.216848 -2.076901
v -5.372170 -7.263157 -2.043128
v -5.280464 -7.319139 -1.985939
v -5.266251 -7.321423 -2.020523
v -5.412780 -7.293852 -2.019461
v -5.312553 -7.362034 -1.972704
v -5.300434 -7.337207 -1.966061
v -5.405212 -7.326900 -2.055918
v -5.208398 -7.440335 -1.972722
v -5.297201 -7.380454 -2.031588
v -5.310913 -7.375061 -1.993918
v -5.175144 -7.413142 -2.009365
v -5.264834 -7.335312 -2.042407
v -5.181148 -7.425076 -2.009367
v -5.170408 -7.399385 -2.002059
v -5.358378 -7.279781 -2.096134
v -5.221988 -7.449259 -1.954332
v -5.195868 -7.442908 -2.000868
v -5.393586 -7.323873 -2.077600
v -5.188903 -7.418569 -1.917922
v -5.218303 -7.426281 -1.932308
v -5.163697 -7.390913 -1.961670
v -5.188454 -7.383529 -1.940590
v -5.382041 -7.266389 -2.025612
v -5.477257 -7.229762 -2.114534
v -5.116026 -7.484940 -1.882600
v -5.079412 -7.457803 -1.918907
v -5.067719 -7.497843 -1.949999
v -5.365603 -7.265732 -2.061158
v -5.395618 -7.277753 -2.010854
v -5.414113 -7.330783 -2.041430
v -5.382329 -7.293706 -2.098307
vn 0.2703 -0.2628 -0.9262
vn -0.2901 0.1670 0.9423
vn 0.9521 0.2773 0.1289
vn 0.6078 -0.5093 0.6093
vn -0.6066 0.6664 -0.4336
vn 0.2212 -0.2327 -0.9471
vn -0.1968 0.2852 0.9380
vn -0.4103 -0.0344 0.9113
vn -0.4387 -0.0036 0.8986
vn -0.3123 0.1800 0.9328
vn 0.6251 0.7551 -0.1977
vn 0.4829 0.8721 0.0794
vn -0.7217 0.5409 -0.4320
vn -0.7880 0.5500 -0.2767
vn 0.6228 -0.7052 0.3389
vn 0.7503 -0.5745 0.3272
vn 0.9891 0.1063 0.1015
vn -0.4390 -0.0123 0.8984
vn 0.4033 0.0122 -0.9150
vn 0.4772 0.8427 0.2492
vn 0.4517 0.8622 0.2292
vn 0.1906 -0.9222 -0.3365
vn 0.5069 0.3624 0.7821
vn -0.5748 0.4811 -0.6619
vn 0.2992 0.7970 0.5246
vn 0.4620 0.8611 0.2123
vn -0.5348 -0.2843 0.7957
vn -0.3656 0.0509 0.9294
vn -0.4169 -0.0325 0.9084
vn -0.6641 -0.6042 0.4404
vn -0.1071 -0.7732 -0.6250
vn -0.4148 -0.8658 -0.2800
vn 0.5066 0.2618 -0.8215
vn 0.3467 -0.1743 -0.9216
vn 0.4745 0.1870 -0.8601
vn 0.3999 -0.1182 -0.9089
vn 0.5556 0.1306 -0.8211
vn 0.3644 -0.0487 -0.9300
vn 0.3414 0.0227 -0.9396
vn 0.3831 -0.0764 -0.9205
vn 0.5553 0.2328 -0.7984
vn 0.5653 0.1718 -0.8068
vn 0.2470 -0.2800 -0.9277
vn -0.6850 -0.6019 0.4104
vn -0.5630 -0.7728 0.2930
vn -0.1436 -0.8445 -0.5159
vn -0.4190 -0.8443 -0.3341
vn -0.4305 -0.8897 -0.1519
vn -0.4519 -0.8839 -0.1204
vn -0.1074 -0.7501 -0.6525
vn -0.3628 -0.8761 -0.3174
vn -0.2037 -0.7148 -0.6689
vn -0.2568 0.2156 0.9421
vn -0.3887 0.0624 0.9192
vn -0.4031 0.0705 0.9124
vn -0.3126 0.1800 0.9327
vn 0.5025 0.8454 0.1808
vn -0.5530 -0.2731 0.7872
vn 0.4527 0.8820 0.1308
vn 0.6393 0.7552 -0.1451
vn 0.4405 0.8724 0.2118
vn 0.5126 0.8343 -0.2031
vn 0.2143 0.8474 0.4858
vn -0.7854 0.4538 -0.4210
vn -0.9539 0.2921 -0.0691
vn -0.7338 0.5312 -0.4235
vn 0.6507 -0.6020 0.4628
vn -0.7455 0.6642 0.0554
vn 0.4466 -0.6750 0.5873
vn 0.5867 -0.5259 0.6158
vn -0.6379 0.4177 -0.6470
vn -0.5979 -0.8012 0.0241
vn 0.7044 -0.6133 0.3573
vn 0.5573 0.8282 0.0599
vn -0.8886 0.4585 0.0105
vn 0.5464 0.8042 -0.2338
vn 0.4136 0.8854 0.2119
vn -0.2388 0.3109 0.9200
vn -0.3545 0.2062 0.9120
vn -0.4094 -0.7866 -0.4623
vn -0.2150 -0.9022 -0.3739
vn -0.3766 -0.8883 -0.2627
vn 0.3425 -0.0673 -0.9371
vn 0.1939 -0.2574 -0.9466
vn 0.4223 0.8187 0.3890
vn 0.4923 0.8204 0.2909
vn 0.4611 0.8613 0.2134
vn -0.4151 -0.1037 0.9039
vn -0.4180 -0.0359 0.9077
vn -0.3270 -0.8960 -0.3004
vn -0.4887 -0.8613 -0.1389
vn -0.6822 -0.6928 0.2338
vn 0.4856 0.1764 -0.8562
vn 0.3968 0.0116 -0.9178
vn 0.3703 -0.1862 -0.9101
vn 0.4200 -0.0825 -0.9037
vn 0.4252 0.0316 -0.9045
vn 0.4776 0.2264 -0.8489
vn 0.4163 -0.0804 -0.9057
vn 0.5523 0.1343 -0.8228
vn -0.1743 -0.8291 -0.5312
vn -0.4042 -0.9143 -0.0269
vn -0.3956 -0.8420 -0.3669
vn -0.3460 -0.8714 -0.3477
vn -0.4423 -0.8873 -0.1308
vn -0.3969 -0.8554 -0.3328
vn -0.3899 -0.8777 -0.2787
vn -0.3630 -0.8762 -0.3170
vn -0.1549 0.3990 0.9038
vn -0.1590 0.4015 0.9019
vn -0.2899 0.2357 0.9276
vn 0.5303 0.8466 0.0452
vn 0.5055 0.8622 0.0339
vn 0.5226 0.8439 0.1213
vn 0.4518 0.8781 0.1578
vn 0.3231 0.8814 0.3447
vn -0.7844 0.4543 -0.4223
vn 0.7210 -0.5626 0.4045
vn -0.6975 0.5559 -0.4523
vn -0.6356 -0.7637 0.1132
vn 0.5518 0.8299 0.0825
vn 0.4303 0.9023 0.0279
vn 0.4181 0.8874 0.1940
vn -0.4587 0.0140 0.8885
vn -0.4363 -0.0207 0.8996
vn -0.4508 -0.8132 -0.3680
vn -0.6214 -0.6462 0.4431
vn -0.4600 -0.8671 0.1912
s 0
usemtl Fence2
f 20//1 2//1 66//1
f 24//2 4//2 64//2
f 14//3 28//3 61//3
f 60//4 9//4 30//4
f 59//5 11//5 35//5
f 66//6 8//6 50//6
f 54//7 41//7 16//7
f 23//8 33//8 54//8
f 60//9 54//9 55//9
f 39//10 25//10 21//10
f 56//11 38//11 15//11
f 34//12 19//12 56//12
f 35//13 4//13 26//13
f 13//14 35//14 26//14
f 23//15 61//15 34//15
f 60//16 61//16 23//16
f 14//17 62//17 28//17
f 64//18 4//18 39//18
f 7//19 66//19 18//19
f 26//20 36//20 13//20
f 63//21 27//21 1//21
f 30//22 3//22 62//22
f 60//23 14//23 61//23
f 59//24 22//24 11//24
f 57//25 15//25 37//25
f 6//26 56//26 19//26
f 55//27 16//27 40//27
f 39//28 4//28 25//28
f 41//29 33//29 12//29
f 22//30 42//30 11//30
f 44//31 43//31 17//31
f 45//32 31//32 10//32
f 18//33 49//33 46//33
f 7//34 46//34 48//34
f 48//35 29//35 7//35
f 48//36 28//36 62//36
f 48//37 3//37 29//37
f 6//38 49//38 47//38
f 1//39 50//39 8//39
f 19//40 28//40 49//40
f 28//41 46//41 49//41
f 27//42 47//42 50//42
f 50//43 18//43 66//43
f 17//44 51//44 45//44
f 51//45 5//45 31//45
f 9//46 51//46 43//46
f 7//47 52//47 44//47
f 52//48 3//48 30//48
f 52//49 9//49 43//49
f 2//50 53//50 22//50
f 20//51 44//51 53//51
f 42//52 44//52 17//52
f 10//53 55//53 40//53
f 60//54 23//54 54//54
f 55//55 5//55 60//55
f 21//56 40//56 39//56
f 12//57 57//57 37//57
f 40//58 16//58 39//58
f 57//59 23//59 34//59
f 26//60 24//60 58//60
f 34//61 56//61 57//61
f 24//62 37//62 58//62
f 36//63 37//63 15//63
f 13//64 59//64 35//64
f 8//65 2//65 59//65
f 2//66 22//66 59//66
f 28//67 34//67 61//67
f 1//68 8//68 59//68
f 60//69 30//69 14//69
f 60//70 5//70 9//70
f 25//71 35//71 32//71
f 32//72 21//72 25//72
f 14//73 30//73 62//73
f 13//74 63//74 1//74
f 11//75 32//75 35//75
f 63//76 15//76 38//76
f 63//77 6//77 27//77
f 64//78 16//78 41//78
f 64//79 12//79 24//79
f 32//80 42//80 65//80
f 42//81 45//81 65//81
f 21//82 45//82 10//82
f 66//83 2//83 8//83
f 7//84 20//84 66//84
f 26//85 58//85 36//85
f 57//86 56//86 15//86
f 6//87 38//87 56//87
f 55//88 54//88 16//88
f 41//89 54//89 33//89
f 22//90 53//90 42//90
f 44//91 52//91 43//91
f 45//92 51//92 31//92
f 18//93 47//93 49//93
f 7//94 18//94 46//94
f 48//95 46//95 28//95
f 48//96 62//96 3//96
f 6//97 19//97 49//97
f 1//98 27//98 50//98
f 27//99 6//99 47//99
f 50//100 47//100 18//100
f 17//101 43//101 51//101
f 51//102 9//102 5//102
f 7//103 29//103 52//103
f 52//104 29//104 3//104
f 52//105 30//105 9//105
f 2//106 20//106 53//106
f 20//107 7//107 44//107
f 42//108 53//108 44//108
f 10//109 31//109 55//109
f 55//110 31//110 5//110
f 21//111 10//111 40//111
f 12//112 33//112 57//112
f 57//113 33//113 23//113
f 26//114 4//114 24//114
f 24//115 12//115 37//115
f 36//116 58//116 37//116
f 13//117 1//117 59//117
f 28//118 19//118 34//118
f 25//119 4//119 35//119
f 32//120 65//120 21//120
f 13//121 36//121 63//121
f 63//122 36//122 15//122
f 63//123 38//123 6//123
f 64//124 39//124 16//124
f 64//125 41//125 12//125
f 32//126 11//126 42//126
f 42//127 17//127 45//127
f 21//128 65//128 45//128
