# Blender 4.1.1
# www.blender.org
mtllib Cube.054_Cube.058.mtl
o Cube.054_Cube.058
v -2.706059 4.884397 14.025006
v -2.852756 4.882833 14.124992
v -2.858167 6.223286 14.129501
v -2.824202 4.875677 13.834322
v -2.983748 6.231350 13.942511
v -2.706531 5.556142 14.025000
v -2.839420 5.606453 14.141748
v -2.773141 4.861499 14.073374
v -2.953497 6.250147 13.991129
v -2.992468 5.556142 13.940508
v -2.911920 4.856065 14.027601
v -2.843094 5.556142 13.833866
v -2.757731 4.876872 13.926385
v -2.848187 6.295215 13.991762
v -2.755262 5.556142 13.921108
v -2.922602 5.556142 13.882593
v -2.950899 5.556142 14.064928
v -2.782308 5.556142 14.095712
v -2.720147 6.258558 14.037938
v -2.862875 5.226393 14.125208
v -3.001442 5.226393 13.948507
v -2.919521 4.875712 14.102875
v -2.844841 6.248913 13.847874
v -2.835256 5.226393 13.850130
v -2.975055 4.858041 13.935900
v -2.794123 4.880808 13.882993
v -2.703594 5.226393 14.040997
v -2.781528 6.251324 14.078391
v -2.841896 5.887145 14.154128
v -2.894447 6.282912 14.075643
v -2.994643 5.885892 13.943581
v -2.954258 4.878292 13.990606
v -2.848790 5.885892 13.842962
v -2.750903 6.254926 13.986249
v -2.851631 4.875674 13.922840
v -2.782480 5.226393 13.930009
v -2.800166 5.556142 13.893909
v -2.743035 5.556142 13.978693
v -2.932979 5.201939 13.914963
v -2.948134 5.556142 13.921938
v -2.888841 5.556142 13.871955
v -2.942572 5.226393 14.048275
v -2.924360 5.886386 14.051738
v -2.892725 5.556142 14.086375
v -2.946581 5.556142 13.990011
v -2.778239 5.886744 14.100676
v -2.742737 5.556142 14.049539
v -2.810545 5.889489 14.117349
v -2.752628 5.885995 14.064374
v -2.732729 5.226393 14.078093
v -2.983718 5.886694 14.020681
v -2.877627 5.889429 14.121925
v -2.893907 5.226393 14.095270
v -2.911748 5.953746 13.896711
v -2.958696 5.885892 13.936893
v -2.770147 5.929008 13.960144
v -2.820127 5.886066 13.897383
v -2.824057 5.226393 13.893131
v -2.813604 4.883499 14.030020
v -2.955814 6.234836 13.923400
v -2.804652 6.242907 13.972128
v -2.826533 6.290856 14.103971
v -2.756683 5.226393 13.976125
v -2.883989 5.226393 13.874000
v -2.980448 5.226393 14.019444
v -2.795867 5.190601 14.100125
vn 0.3552 0.0099 0.9347
vn -0.4397 0.0266 -0.8977
vn 0.7120 0.6706 -0.2081
vn -0.2312 0.9506 -0.2070
vn 0.2693 -0.9627 -0.0252
vn 0.3549 -0.0514 0.9335
vn -0.3003 0.0420 -0.9529
vn -0.6383 0.0174 -0.7696
vn -0.6291 -0.0248 -0.7770
vn -0.4402 -0.0008 -0.8979
vn 0.9764 0.0607 -0.2073
vn 0.8596 -0.0098 -0.5108
vn 0.1129 -0.9930 0.0349
vn 0.0166 -0.9944 -0.1041
vn -0.2481 0.9604 0.1267
vn -0.0766 0.9944 0.0728
vn 0.6275 0.7733 -0.0911
vn -0.6352 -0.0209 -0.7721
vn 0.6203 -0.0135 0.7843
vn 0.7675 0.0610 -0.6381
vn 0.7737 0.0240 -0.6331
vn -0.3851 0.4785 0.7891
vn 0.2393 0.5094 -0.8266
vn 0.2528 -0.9296 0.2682
vn 0.5177 0.0403 -0.8546
vn 0.7859 0.0266 -0.6178
vn -0.8388 -0.0022 -0.5444
vn -0.5599 0.0181 -0.8284
vn -0.6398 0.0101 -0.7685
vn -0.9938 -0.0778 -0.0800
vn -0.3452 0.0651 0.9363
vn -0.7333 -0.0112 0.6798
vn 0.8168 -0.0187 0.5766
vn 0.4604 0.0295 0.8872
vn 0.7615 -0.0218 0.6477
vn 0.5259 0.0493 0.8491
vn 0.7557 0.0842 0.6495
vn 0.5609 -0.0204 0.8276
vn 0.6002 -0.0768 0.7961
vn 0.5493 0.0114 0.8355
vn 0.8168 0.0425 0.5754
vn 0.7841 0.0771 0.6158
vn 0.3299 -0.0008 0.9440
vn -0.9927 -0.1062 -0.0572
vn -0.9897 0.0316 0.1399
vn -0.4603 0.1099 0.8809
vn -0.6992 -0.0444 0.7135
vn -0.8110 0.0340 0.5840
vn -0.8326 0.0255 0.5533
vn -0.3184 0.0438 0.9470
vn -0.6942 0.0219 0.7195
vn -0.3454 -0.0560 0.9368
vn -0.3862 0.0294 -0.9220
vn -0.5618 -0.0095 -0.8272
vn -0.5621 -0.0273 -0.8266
vn -0.4403 -0.0012 -0.8978
vn 0.8122 0.0553 -0.5807
vn -0.8386 -0.0252 -0.5442
vn 0.8276 -0.0202 -0.5610
vn 0.9637 0.0908 -0.2510
vn 0.7809 0.0039 -0.6246
vn 0.9654 -0.0694 -0.2514
vn 0.5170 -0.0657 -0.8535
vn 0.0101 -0.9975 0.0692
vn -0.3447 -0.9269 -0.1486
vn 0.0954 -0.9949 0.0324
vn -0.2102 0.9772 -0.0317
vn -0.0132 -0.8966 -0.4427
vn -0.4334 0.8947 -0.1078
vn -0.2578 0.9443 -0.2047
vn 0.1651 -0.9437 0.2866
vn -0.9217 -0.0790 0.3797
vn -0.1430 0.9875 0.0660
vn 0.8820 0.0638 -0.4670
vn -0.2229 -0.9269 -0.3018
vn 0.9775 -0.0388 -0.2075
vn 0.7737 -0.0238 -0.6331
vn -0.3005 -0.0103 -0.9537
vn -0.4392 -0.0547 -0.8967
vn -0.6020 -0.1108 0.7908
vn -0.6004 0.1321 0.7887
vn -0.7329 0.0364 0.6794
vn 0.5378 -0.0313 0.8425
vn 0.3212 -0.0609 0.9450
vn 0.6615 0.0792 -0.7458
vn 0.7444 0.0989 -0.6604
vn 0.7851 0.0263 -0.6189
vn -0.6859 0.0445 -0.7263
vn -0.6426 0.0107 -0.7662
vn -0.6931 0.0662 0.7178
vn -0.8317 -0.0215 0.5547
vn -0.9824 -0.1234 0.1405
vn 0.7593 -0.0065 0.6507
vn 0.6170 -0.0194 0.7867
vn 0.4618 0.0583 0.8851
vn 0.5606 0.0499 0.8266
vn 0.6426 -0.0017 0.7662
vn 0.7860 -0.0345 0.6173
vn 0.5605 0.0451 0.8269
vn 0.7569 0.0791 0.6487
vn -0.4621 0.0724 0.8839
vn -0.8626 0.1118 0.4935
vn -0.6703 -0.0386 0.7411
vn -0.6685 0.0221 0.7434
vn -0.8250 0.0311 0.5643
vn -0.6942 -0.0209 0.7195
vn -0.7271 0.0150 0.6863
vn -0.6945 0.0219 0.7192
vn -0.1829 0.0080 -0.9831
vn -0.1829 0.0027 -0.9831
vn -0.3863 -0.0119 -0.9223
vn 0.8844 0.0281 -0.4659
vn 0.8848 -0.0033 -0.4660
vn 0.8472 0.0505 -0.5289
vn 0.8134 -0.0093 -0.5816
vn 0.6629 -0.0463 -0.7473
vn 0.0116 -0.9975 0.0700
vn -0.1171 0.9931 -0.0001
vn 0.1460 -0.9883 0.0452
vn -0.9545 -0.0952 0.2825
vn 0.8708 0.0667 -0.4871
vn 0.8696 -0.0849 -0.4864
vn 0.7850 -0.0277 -0.6188
vn -0.6249 -0.0529 -0.7789
vn -0.6398 -0.0142 -0.7684
vn -0.6833 -0.0970 0.7237
vn -0.9981 -0.0223 -0.0575
vn -0.9516 0.1229 0.2816
s 0
usemtl Fence
f 20//1 2//1 66//1
f 24//2 4//2 64//2
f 14//3 28//3 61//3
f 60//4 9//4 30//4
f 59//5 11//5 35//5
f 66//6 8//6 50//6
f 54//7 41//7 16//7
f 23//8 33//8 54//8
f 60//9 54//9 55//9
f 39//10 25//10 21//10
f 56//11 38//11 15//11
f 34//12 19//12 56//12
f 35//13 4//13 26//13
f 13//14 35//14 26//14
f 23//15 61//15 34//15
f 60//16 61//16 23//16
f 14//17 62//17 28//17
f 64//18 4//18 39//18
f 7//19 66//19 18//19
f 26//20 36//20 13//20
f 63//21 27//21 1//21
f 30//22 3//22 62//22
f 60//23 14//23 61//23
f 59//24 22//24 11//24
f 57//25 15//25 37//25
f 6//26 56//26 19//26
f 55//27 16//27 40//27
f 39//28 4//28 25//28
f 41//29 33//29 12//29
f 22//30 42//30 11//30
f 44//31 43//31 17//31
f 45//32 31//32 10//32
f 18//33 49//33 46//33
f 7//34 46//34 48//34
f 48//35 29//35 7//35
f 48//36 28//36 62//36
f 48//37 3//37 29//37
f 6//38 49//38 47//38
f 1//39 50//39 8//39
f 19//40 28//40 49//40
f 28//41 46//41 49//41
f 27//42 47//42 50//42
f 50//43 18//43 66//43
f 17//44 51//44 45//44
f 51//45 5//45 31//45
f 9//46 51//46 43//46
f 7//47 52//47 44//47
f 52//48 3//48 30//48
f 52//49 9//49 43//49
f 2//50 53//50 22//50
f 20//51 44//51 53//51
f 42//52 44//52 17//52
f 10//53 55//53 40//53
f 60//54 23//54 54//54
f 55//55 5//55 60//55
f 21//56 40//56 39//56
f 12//57 57//57 37//57
f 40//58 16//58 39//58
f 57//59 23//59 34//59
f 26//60 24//60 58//60
f 34//61 56//61 57//61
f 24//62 37//62 58//62
f 36//63 37//63 15//63
f 13//64 59//64 35//64
f 8//65 2//65 59//65
f 2//66 22//66 59//66
f 28//67 34//67 61//67
f 1//68 8//68 59//68
f 60//69 30//69 14//69
f 60//70 5//70 9//70
f 25//71 35//71 32//71
f 32//72 21//72 25//72
f 14//73 30//73 62//73
f 13//74 63//74 1//74
f 11//75 32//75 35//75
f 63//76 15//76 38//76
f 63//77 6//77 27//77
f 64//78 16//78 41//78
f 64//79 12//79 24//79
f 32//80 42//80 65//80
f 42//81 45//81 65//81
f 21//82 45//82 10//82
f 66//83 2//83 8//83
f 7//84 20//84 66//84
f 26//85 58//85 36//85
f 57//86 56//86 15//86
f 6//87 38//87 56//87
f 55//88 54//88 16//88
f 41//89 54//89 33//89
f 22//90 53//90 42//90
f 44//91 52//91 43//91
f 45//92 51//92 31//92
f 18//93 47//93 49//93
f 7//94 18//94 46//94
f 48//95 46//95 28//95
f 48//96 62//96 3//96
f 6//97 19//97 49//97
f 1//98 27//98 50//98
f 27//99 6//99 47//99
f 50//100 47//100 18//100
f 17//101 43//101 51//101
f 51//102 9//102 5//102
f 7//103 29//103 52//103
f 52//104 29//104 3//104
f 52//105 30//105 9//105
f 2//106 20//106 53//106
f 20//107 7//107 44//107
f 42//108 53//108 44//108
f 10//109 31//109 55//109
f 55//110 31//110 5//110
f 21//111 10//111 40//111
f 12//112 33//112 57//112
f 57//113 33//113 23//113
f 26//114 4//114 24//114
f 24//115 12//115 37//115
f 36//116 58//116 37//116
f 13//117 1//117 59//117
f 28//118 19//118 34//118
f 25//119 4//119 35//119
f 32//120 65//120 21//120
f 13//121 36//121 63//121
f 63//122 36//122 15//122
f 63//123 38//123 6//123
f 64//124 39//124 16//124
f 64//125 41//125 12//125
f 32//126 11//126 42//126
f 42//127 17//127 45//127
f 21//128 65//128 45//128
