# Blender 4.1.1
# www.blender.org
mtllib Cube.054_Cube.058.mtl
o Cube.054_Cube.058
v -1.145442 1.635577 -0.874135
v -1.199192 1.672212 -0.873562
v -1.201175 1.673865 -1.364707
v -1.188730 1.565710 -0.870940
v -1.247188 1.605351 -1.367662
v -1.145615 1.635575 -1.120264
v -1.194306 1.678352 -1.138698
v -1.170021 1.653299 -0.865745
v -1.236104 1.623165 -1.374549
v -1.250383 1.604617 -1.120264
v -1.220870 1.636528 -0.863754
v -1.195652 1.565543 -1.120264
v -1.164375 1.599442 -0.871378
v -1.197518 1.623397 -1.391062
v -1.163470 1.597509 -1.120264
v -1.224784 1.583397 -1.120264
v -1.235152 1.650205 -1.120264
v -1.173380 1.661484 -1.120264
v -1.150604 1.640316 -1.377631
v -1.202900 1.672291 -0.999443
v -1.253671 1.607548 -0.999443
v -1.223655 1.664108 -0.870953
v -1.196292 1.570676 -1.374097
v -1.192780 1.571502 -0.999443
v -1.244003 1.602928 -0.864478
v -1.177709 1.583543 -0.872820
v -1.144539 1.641436 -0.999443
v -1.173094 1.655138 -1.374980
v -1.195213 1.682888 -1.241544
v -1.214468 1.654131 -1.386554
v -1.251180 1.605743 -1.241085
v -1.236383 1.622973 -0.871898
v -1.197739 1.568876 -1.241085
v -1.161873 1.621377 -1.376300
v -1.198780 1.598143 -0.870939
v -1.173443 1.600770 -0.999443
v -1.179923 1.587543 -1.120264
v -1.158990 1.618608 -1.120264
v -1.228586 1.595257 -0.990483
v -1.234139 1.597813 -1.120264
v -1.212414 1.579499 -1.120264
v -1.232101 1.644103 -0.999443
v -1.225428 1.645372 -1.241266
v -1.213837 1.658063 -1.120264
v -1.233570 1.622755 -1.120264
v -1.171889 1.663303 -1.241397
v -1.158881 1.644566 -1.120264
v -1.183726 1.669412 -1.242403
v -1.162505 1.650002 -1.241123
v -1.155214 1.655028 -0.999443
v -1.247177 1.633993 -1.241379
v -1.208305 1.671089 -1.242381
v -1.214270 1.661322 -0.999443
v -1.220807 1.588570 -1.265947
v -1.238009 1.603293 -1.241085
v -1.168924 1.611812 -1.256883
v -1.187237 1.588816 -1.241149
v -1.188677 1.587258 -0.999443
v -1.184847 1.637414 -0.873806
v -1.236953 1.598349 -1.368939
v -1.181567 1.616203 -1.371896
v -1.189584 1.664511 -1.389465
v -1.163991 1.617667 -0.999443
v -1.210636 1.580248 -0.999443
v -1.245979 1.633539 -0.999443
v -1.178348 1.663101 -0.986329
vn 0.3552 0.9348 -0.0099
vn -0.4397 -0.8977 -0.0266
vn 0.7120 -0.2081 -0.6707
vn -0.2312 -0.2070 -0.9506
vn 0.2693 -0.0252 0.9627
vn 0.3549 0.9335 0.0514
vn -0.3003 -0.9529 -0.0420
vn -0.6383 -0.7696 -0.0174
vn -0.6291 -0.7770 0.0248
vn -0.4402 -0.8979 0.0008
vn 0.9764 -0.2073 -0.0607
vn 0.8596 -0.5108 0.0098
vn 0.1129 0.0349 0.9930
vn 0.0166 -0.1041 0.9944
vn -0.2480 0.1267 -0.9604
vn -0.0766 0.0728 -0.9944
vn 0.6275 -0.0911 -0.7733
vn -0.6352 -0.7721 0.0209
vn 0.6203 0.7843 0.0135
vn 0.7675 -0.6381 -0.0610
vn 0.7737 -0.6331 -0.0240
vn -0.3851 0.7891 -0.4785
vn 0.2393 -0.8266 -0.5094
vn 0.2528 0.2682 0.9296
vn 0.5177 -0.8546 -0.0403
vn 0.7859 -0.6178 -0.0266
vn -0.8389 -0.5444 0.0022
vn -0.5599 -0.8284 -0.0181
vn -0.6398 -0.7685 -0.0101
vn -0.9938 -0.0800 0.0778
vn -0.3452 0.9363 -0.0651
vn -0.7333 0.6798 0.0112
vn 0.8168 0.5766 0.0187
vn 0.4604 0.8872 -0.0295
vn 0.7615 0.6478 0.0219
vn 0.5259 0.8491 -0.0492
vn 0.7557 0.6495 -0.0842
vn 0.5609 0.8276 0.0204
vn 0.6002 0.7961 0.0768
vn 0.5493 0.8355 -0.0114
vn 0.8168 0.5754 -0.0425
vn 0.7841 0.6158 -0.0771
vn 0.3299 0.9440 0.0008
vn -0.9927 -0.0572 0.1062
vn -0.9897 0.1399 -0.0316
vn -0.4603 0.8809 -0.1099
vn -0.6992 0.7135 0.0444
vn -0.8110 0.5840 -0.0340
vn -0.8326 0.5533 -0.0255
vn -0.3184 0.9470 -0.0438
vn -0.6941 0.7195 -0.0219
vn -0.3454 0.9368 0.0560
vn -0.3862 -0.9220 -0.0294
vn -0.5618 -0.8272 0.0095
vn -0.5621 -0.8266 0.0273
vn -0.4403 -0.8978 0.0012
vn 0.8122 -0.5807 -0.0553
vn -0.8386 -0.5442 0.0252
vn 0.8276 -0.5610 0.0202
vn 0.9637 -0.2510 -0.0908
vn 0.7809 -0.6246 -0.0039
vn 0.9654 -0.2514 0.0694
vn 0.5170 -0.8535 0.0657
vn 0.0101 0.0692 0.9975
vn -0.3447 -0.1486 0.9269
vn 0.0954 0.0323 0.9949
vn -0.2102 -0.0317 -0.9771
vn -0.0131 -0.4427 0.8966
vn -0.4335 -0.1078 -0.8947
vn -0.2578 -0.2046 -0.9443
vn 0.1652 0.2866 0.9437
vn -0.9217 0.3797 0.0790
vn -0.1430 0.0660 -0.9875
vn 0.8820 -0.4670 -0.0638
vn -0.2229 -0.3018 0.9269
vn 0.9775 -0.2075 0.0388
vn 0.7737 -0.6331 0.0238
vn -0.3005 -0.9537 0.0103
vn -0.4392 -0.8967 0.0547
vn -0.6020 0.7908 0.1108
vn -0.6004 0.7887 -0.1321
vn -0.7329 0.6794 -0.0364
vn 0.5378 0.8425 0.0313
vn 0.3212 0.9451 0.0610
vn 0.6615 -0.7458 -0.0792
vn 0.7444 -0.6604 -0.0989
vn 0.7851 -0.6189 -0.0263
vn -0.6860 -0.7263 -0.0445
vn -0.6426 -0.7662 -0.0107
vn -0.6931 0.7178 -0.0662
vn -0.8318 0.5547 0.0215
vn -0.9824 0.1405 0.1234
vn 0.7593 0.6507 0.0065
vn 0.6170 0.7867 0.0194
vn 0.4618 0.8851 -0.0583
vn 0.5606 0.8266 -0.0499
vn 0.6426 0.7662 0.0017
vn 0.7860 0.6173 0.0345
vn 0.5605 0.8269 -0.0451
vn 0.7569 0.6487 -0.0791
vn -0.4621 0.8839 -0.0724
vn -0.8626 0.4934 -0.1118
vn -0.6703 0.7411 0.0386
vn -0.6685 0.7434 -0.0221
vn -0.8250 0.5643 -0.0311
vn -0.6941 0.7195 0.0209
vn -0.7271 0.6863 -0.0150
vn -0.6945 0.7192 -0.0219
vn -0.1829 -0.9831 -0.0080
vn -0.1829 -0.9831 -0.0027
vn -0.3863 -0.9223 0.0119
vn 0.8844 -0.4659 -0.0281
vn 0.8848 -0.4660 0.0033
vn 0.8472 -0.5289 -0.0505
vn 0.8134 -0.5816 0.0093
vn 0.6628 -0.7473 0.0463
vn 0.0116 0.0700 0.9975
vn -0.1171 -0.0001 -0.9931
vn 0.1460 0.0452 0.9883
vn -0.9545 0.2825 0.0952
vn 0.8708 -0.4871 -0.0667
vn 0.8696 -0.4864 0.0849
vn 0.7850 -0.6188 0.0277
vn -0.6249 -0.7789 0.0529
vn -0.6398 -0.7684 0.0142
vn -0.6833 0.7237 0.0970
vn -0.9981 -0.0575 0.0223
vn -0.9516 0.2816 -0.1229
s 0
usemtl Fence
f 20//1 2//1 66//1
f 24//2 4//2 64//2
f 14//3 28//3 61//3
f 60//4 9//4 30//4
f 59//5 11//5 35//5
f 66//6 8//6 50//6
f 54//7 41//7 16//7
f 23//8 33//8 54//8
f 60//9 54//9 55//9
f 39//10 25//10 21//10
f 56//11 38//11 15//11
f 34//12 19//12 56//12
f 35//13 4//13 26//13
f 13//14 35//14 26//14
f 23//15 61//15 34//15
f 60//16 61//16 23//16
f 14//17 62//17 28//17
f 64//18 4//18 39//18
f 7//19 66//19 18//19
f 26//20 36//20 13//20
f 63//21 27//21 1//21
f 30//22 3//22 62//22
f 60//23 14//23 61//23
f 59//24 22//24 11//24
f 57//25 15//25 37//25
f 6//26 56//26 19//26
f 55//27 16//27 40//27
f 39//28 4//28 25//28
f 41//29 33//29 12//29
f 22//30 42//30 11//30
f 44//31 43//31 17//31
f 45//32 31//32 10//32
f 18//33 49//33 46//33
f 7//34 46//34 48//34
f 48//35 29//35 7//35
f 48//36 28//36 62//36
f 48//37 3//37 29//37
f 6//38 49//38 47//38
f 1//39 50//39 8//39
f 19//40 28//40 49//40
f 28//41 46//41 49//41
f 27//42 47//42 50//42
f 50//43 18//43 66//43
f 17//44 51//44 45//44
f 51//45 5//45 31//45
f 9//46 51//46 43//46
f 7//47 52//47 44//47
f 52//48 3//48 30//48
f 52//49 9//49 43//49
f 2//50 53//50 22//50
f 20//51 44//51 53//51
f 42//52 44//52 17//52
f 10//53 55//53 40//53
f 60//54 23//54 54//54
f 55//55 5//55 60//55
f 21//56 40//56 39//56
f 12//57 57//57 37//57
f 40//58 16//58 39//58
f 57//59 23//59 34//59
f 26//60 24//60 58//60
f 34//61 56//61 57//61
f 24//62 37//62 58//62
f 36//63 37//63 15//63
f 13//64 59//64 35//64
f 8//65 2//65 59//65
f 2//66 22//66 59//66
f 28//67 34//67 61//67
f 1//68 8//68 59//68
f 60//69 30//69 14//69
f 60//70 5//70 9//70
f 25//71 35//71 32//71
f 32//72 21//72 25//72
f 14//73 30//73 62//73
f 13//74 63//74 1//74
f 11//75 32//75 35//75
f 63//76 15//76 38//76
f 63//77 6//77 27//77
f 64//78 16//78 41//78
f 64//79 12//79 24//79
f 32//80 42//80 65//80
f 42//81 45//81 65//81
f 21//82 45//82 10//82
f 66//83 2//83 8//83
f 7//84 20//84 66//84
f 26//85 58//85 36//85
f 57//86 56//86 15//86
f 6//87 38//87 56//87
f 55//88 54//88 16//88
f 41//89 54//89 33//89
f 22//90 53//90 42//90
f 44//91 52//91 43//91
f 45//92 51//92 31//92
f 18//93 47//93 49//93
f 7//94 18//94 46//94
f 48//95 46//95 28//95
f 48//96 62//96 3//96
f 6//97 19//97 49//97
f 1//98 27//98 50//98
f 27//99 6//99 47//99
f 50//100 47//100 18//100
f 17//101 43//101 51//101
f 51//102 9//102 5//102
f 7//103 29//103 52//103
f 52//104 29//104 3//104
f 52//105 30//105 9//105
f 2//106 20//106 53//106
f 20//107 7//107 44//107
f 42//108 53//108 44//108
f 10//109 31//109 55//109
f 55//110 31//110 5//110
f 21//111 10//111 40//111
f 12//112 33//112 57//112
f 57//113 33//113 23//113
f 26//114 4//114 24//114
f 24//115 12//115 37//115
f 36//116 58//116 37//116
f 13//117 1//117 59//117
f 28//118 19//118 34//118
f 25//119 4//119 35//119
f 32//120 65//120 21//120
f 13//121 36//121 63//121
f 63//122 36//122 15//122
f 63//123 38//123 6//123
f 64//124 39//124 16//124
f 64//125 41//125 12//125
f 32//126 11//126 42//126
f 42//127 17//127 45//127
f 21//128 65//128 45//128
