# Blender 4.1.1
# www.blender.org
mtllib Cylinder.015_Cylinder.025.mtl
o Cylinder.015_Cylinder.025
v 8.691646 4.439962 7.873831
v 8.670389 4.394812 7.954175
v 8.729655 5.762814 7.856676
v 8.694132 5.256832 7.896584
v 8.567151 4.433393 7.996620
v 8.578958 4.987841 7.974990
v 8.488778 4.526154 7.957592
v 8.574176 5.754842 7.909828
v 8.388805 4.445202 7.845728
v 8.497399 5.750641 7.823502
v 8.462913 5.833504 7.758688
v 8.511966 5.821566 7.655525
v 8.447771 5.006465 7.761934
v 8.546176 5.121612 7.929553
v 8.629754 5.066874 7.967631
v 8.646269 5.172009 7.638226
v 8.628297 5.812125 7.619039
v 8.659896 4.471591 7.740892
v 8.675996 4.540812 7.823024
v 8.775348 5.800591 7.777195
v 8.432815 4.463436 7.948618
v 8.503851 5.836509 7.879744
v 8.547708 4.427846 7.686272
v 8.608182 4.511424 7.725560
v 8.697093 5.815379 7.642886
v 8.737734 5.765819 7.693830
v 8.705531 5.507403 7.912580
v 8.667077 5.740781 7.894842
v 8.493999 5.446642 7.662633
v 8.476960 5.357475 7.734963
v 8.539580 5.095462 7.682153
v 8.683044 4.415912 7.773346
v 8.713198 5.341402 7.750886
v 8.711039 5.297832 7.683370
v 8.604086 5.195890 7.645371
v 8.609476 4.762601 7.715524
v 8.724731 4.840778 7.811989
v 8.726601 5.236065 7.846950
v 8.707551 4.684261 7.876396
v 8.619887 4.527663 7.949731
v 8.504354 4.775467 7.968404
v 8.438042 5.362044 7.761180
v 8.443767 4.481053 7.737058
v 8.448442 5.169807 7.851448
v 8.488410 5.224351 7.919613
v 8.614563 5.769566 7.930398
vn 0.7672 -0.0294 -0.6407
vn 0.9838 -0.0556 0.1704
vn -0.9831 0.0437 -0.1777
vn -0.5565 0.0250 -0.8305
vn -0.5436 0.0716 0.8363
vn 0.3283 -0.0191 -0.9444
vn -0.1859 -0.0347 -0.9819
vn 0.9984 -0.0571 0.0049
vn 0.8171 -0.1532 -0.5558
vn 0.8285 -0.0731 0.5552
vn 0.6996 -0.0365 0.7136
vn 0.0814 0.0642 0.9946
vn -0.4672 0.0482 0.8828
vn -0.4554 -0.0102 0.8903
vn -0.8794 0.0530 0.4732
vn -0.9216 0.0728 0.3813
vn -0.1171 -0.0703 -0.9906
vn -0.4435 -0.0109 -0.8962
vn -0.9986 0.0526 -0.0109
vn -0.8957 0.0278 -0.4438
vn -0.7432 -0.0218 -0.6687
vn -0.8540 0.0311 -0.5194
vn -0.9819 0.0367 -0.1860
vn -0.1075 0.0357 0.9936
vn -0.3229 0.0696 0.9439
vn 0.0602 0.0541 0.9967
vn 0.8339 -0.0150 0.5518
vn 0.9221 -0.1034 -0.3729
vn 0.6273 -0.0439 -0.7776
vn 0.3186 -0.9469 0.0428
vn 0.0168 0.9804 0.1963
vn 0.7814 -0.0902 -0.6174
vn -0.9964 0.0834 -0.0130
vn 0.8698 -0.0142 0.4933
vn -0.2511 -0.1578 -0.9550
vn 0.7480 -0.0634 -0.6606
vn 0.2251 -0.0815 -0.9709
vn -0.1083 -0.0391 -0.9934
vn 0.7766 -0.1836 -0.6026
vn 0.7792 -0.0406 -0.6254
vn 0.9981 -0.0613 0.0076
vn 0.8858 -0.1275 0.4462
vn 0.9326 -0.0362 0.3591
vn 0.9923 -0.0657 0.1050
vn 0.8369 0.0003 0.5473
vn 0.9732 -0.0657 0.2206
vn -0.2995 -0.0037 -0.9541
vn 0.1432 0.0984 0.9848
vn 0.4776 0.1446 0.8666
vn 0.7852 -0.0349 0.6182
vn 0.0867 0.0370 0.9956
vn -0.6954 0.0725 0.7150
vn -0.2074 0.0425 0.9773
vn -0.5213 0.1571 0.8388
vn -0.1192 -0.0356 0.9922
vn 0.0225 0.1088 0.9938
vn -0.8870 0.0821 0.4544
vn -0.4820 -0.0113 -0.8761
vn -0.5600 -0.0171 -0.8283
vn -0.9033 -0.0053 -0.4289
vn -0.3714 -0.0995 -0.9231
vn -0.9229 0.0730 0.3781
vn -0.8224 0.0963 0.5607
vn 0.5805 0.0556 0.8124
vn -0.5758 -0.6440 -0.5037
vn -0.1827 -0.5506 -0.8145
vn 0.5088 -0.6392 0.5766
vn 0.7446 -0.6349 -0.2060
vn -0.0494 -0.4225 -0.9050
vn -0.8468 -0.3357 -0.4127
vn -0.7455 -0.2822 0.6038
vn -0.8470 -0.3381 -0.4102
vn 0.0431 -0.8273 0.5602
vn 0.3197 -0.9454 0.0626
vn 0.5357 -0.0629 0.8421
vn -0.6561 0.7544 -0.0186
vn -0.2956 0.5561 0.7768
vn 0.0524 0.9945 -0.0902
vn 0.6882 0.3607 -0.6296
vn 0.5392 0.6465 0.5396
vn 0.3688 0.9288 0.0354
vn -0.1639 0.9258 -0.3407
vn -0.2202 0.9640 0.1489
vn 0.5785 -0.0355 -0.8149
vn 0.8685 -0.0403 -0.4940
vn 0.9784 -0.0228 0.2056
vn 0.8946 0.0052 0.4468
vn -0.2270 -0.0327 -0.9733
s 0
usemtl Bark
f 25//1 26//1 34//1
f 4//2 3//2 27//2
f 12//3 29//3 30//3
f 42//4 11//4 30//4
f 45//5 21//5 41//5
f 17//6 25//6 16//6
f 35//7 17//7 16//7
f 34//8 26//8 33//8
f 19//9 37//9 1//9
f 4//10 27//10 15//10
f 40//11 15//11 5//11
f 4//12 40//12 2//12
f 46//13 8//13 14//13
f 41//14 7//14 5//14
f 45//15 22//15 44//15
f 21//16 44//16 9//16
f 29//17 31//17 43//17
f 43//18 31//18 23//18
f 11//19 42//19 9//19
f 13//20 43//20 9//20
f 9//21 42//21 13//21
f 13//22 30//22 43//22
f 30//23 29//23 43//23
f 8//24 45//24 14//24
f 8//25 22//25 45//25
f 46//26 6//26 15//26
f 3//27 4//27 38//27
f 33//28 26//28 20//28
f 16//29 25//29 34//29
f 19//30 40//30 9//30
f 3//31 17//31 8//31
f 36//32 23//32 35//32
f 44//33 22//33 10//33
f 38//34 20//34 3//34
f 35//35 16//35 36//35
f 37//36 33//36 20//36
f 24//37 34//37 18//37
f 24//38 36//38 34//38
f 36//39 16//39 34//39
f 18//40 33//40 32//40
f 18//41 34//41 33//41
f 32//42 37//42 19//42
f 38//43 37//43 20//43
f 37//44 39//44 1//44
f 4//45 39//45 38//45
f 1//46 39//46 2//46
f 17//47 29//47 12//47
f 27//48 28//48 15//48
f 3//49 28//49 27//49
f 4//50 15//50 40//50
f 5//51 15//51 6//51
f 6//52 46//52 14//52
f 6//53 41//53 5//53
f 6//54 14//54 41//54
f 7//55 41//55 21//55
f 41//56 14//56 45//56
f 45//57 44//57 21//57
f 31//58 35//58 23//58
f 42//59 30//59 13//59
f 11//60 12//60 30//60
f 31//61 29//61 35//61
f 44//62 11//62 9//62
f 10//63 11//63 44//63
f 15//64 28//64 46//64
f 9//65 43//65 23//65
f 24//66 18//66 32//66
f 9//67 23//67 24//67
f 7//68 21//68 9//68
f 40//69 5//69 7//69
f 1//70 2//70 40//70
f 24//71 32//71 19//71
f 19//72 1//72 40//72
f 40//73 7//73 9//73
f 9//74 24//74 19//74
f 46//75 28//75 3//75
f 3//76 20//76 26//76
f 26//77 25//77 17//77
f 17//78 12//78 11//78
f 10//79 22//79 8//79
f 17//80 11//80 10//80
f 3//81 26//81 17//81
f 8//82 46//82 3//82
f 17//83 10//83 8//83
f 36//84 24//84 23//84
f 37//85 32//85 33//85
f 38//86 39//86 37//86
f 4//87 2//87 39//87
f 17//88 35//88 29//88
