# Blender 4.1.1
# www.blender.org
mtllib Plane.041.mtl
o Plane.041
v -13.524846 8.386253 -13.529980
v -13.921081 8.057587 -13.697830
v -13.472246 8.389992 -13.661472
v -13.868484 8.061325 -13.829321
v -13.444087 8.433296 -13.572657
v -13.762566 8.232275 -13.629452
v -13.894782 8.059456 -13.763575
v -13.709969 8.236013 -13.760948
v -13.699832 8.290623 -13.679018
v -13.394897 8.186035 -13.868925
v -13.753470 7.810095 -14.021544
v -13.311281 8.084734 -13.815844
v -13.669854 7.708797 -13.968466
v -13.303805 8.187056 -13.821407
v -13.576677 7.976178 -13.983078
v -13.711660 7.759446 -13.995007
v -13.493062 7.874877 -13.929998
v -13.481635 7.969631 -13.956232
v -13.170245 7.938169 -13.434525
v -13.514058 7.530750 -13.529390
v -13.243470 7.972907 -13.318329
v -13.587287 7.565488 -13.413193
v -13.159601 8.011536 -13.363388
v -13.340064 7.692930 -13.468225
v -13.550674 7.548119 -13.471292
v -13.413289 7.727671 -13.352030
v -13.322910 7.747274 -13.387300
v -13.831703 8.624912 -13.103479
v -14.215696 8.283134 -13.273573
v -13.931163 8.708647 -13.047203
v -14.315156 8.366871 -13.217295
v -13.828652 8.713757 -13.051962
v -14.040996 8.419547 -13.167797
v -14.265427 8.325001 -13.245434
v -14.140457 8.503284 -13.111519
v -14.042603 8.492650 -13.101088
v -13.248634 8.029972 -13.422075
v -13.620225 7.657835 -13.551043
v -13.278057 8.100662 -13.541275
v -13.649650 7.728525 -13.670238
v -13.212273 8.116467 -13.463949
v -13.477057 7.842978 -13.476583
v -13.634936 7.693179 -13.610640
v -13.506482 7.913666 -13.595785
v -13.460934 7.934583 -13.510431
v -13.607423 8.312727 -12.999022
v -14.013902 7.975006 -13.116983
v -13.537829 8.269310 -13.114534
v -13.944309 7.931589 -13.232492
v -13.516757 8.337440 -13.040564
v -13.846365 8.151200 -13.082270
v -13.979104 7.953297 -13.174736
v -13.776772 8.107784 -13.197779
v -13.771199 8.185518 -13.136759
v -13.530007 8.583403 -13.945333
v -13.936484 8.245677 -14.063293
v -13.616277 8.657823 -13.861128
v -14.022753 8.320099 -13.979090
v -13.517271 8.667030 -13.887018
v -13.745171 8.377661 -13.983936
v -13.979621 8.282887 -14.021193
v -13.831439 8.452082 -13.899733
v -13.733486 8.444027 -13.911440
vn 0.6389 -0.6743 0.3704
vn 0.3594 -0.8786 0.3144
vn 0.4942 -0.8690 -0.0227
vn 0.7312 -0.6677 0.1395
vn -0.4099 0.2890 0.8652
vn -0.6686 0.0890 0.7383
vn -0.4542 -0.1707 0.8744
vn -0.2630 0.1111 0.9584
vn -0.3868 0.6970 -0.6038
vn -0.5717 0.4172 -0.7064
vn -0.7595 0.5063 -0.4085
vn -0.5154 0.7580 -0.3998
vn 0.1465 0.5264 -0.8375
vn -0.0581 0.2697 -0.9612
vn -0.3131 0.4844 -0.8169
vn -0.0282 0.6735 -0.7387
vn 0.8257 -0.4589 -0.3281
vn 0.5939 -0.7205 -0.3580
vn 0.5185 -0.5392 -0.6636
vn 0.7740 -0.3348 -0.5374
vn 0.5004 -0.5565 0.6632
vn 0.2087 -0.7483 0.6297
vn 0.3871 -0.8596 0.3336
vn 0.6226 -0.6327 0.4604
vn -0.0447 0.6081 -0.7926
vn -0.2673 0.3571 -0.8950
vn -0.4884 0.5479 -0.6791
vn -0.1962 0.7388 -0.6447
vn 0.6675 -0.7024 0.2470
vn 0.3141 -0.8075 0.4994
vn 0.5875 -0.7880 -0.1841
vn -0.3654 0.1773 0.9138
vn -0.7136 0.2655 0.6482
vn -0.2790 -0.2610 0.9241
vn -0.3653 0.1772 0.9139
vn -0.4806 0.7098 -0.5150
vn -0.4071 0.3951 -0.8235
vn -0.7877 0.5756 -0.2196
vn -0.4805 0.7098 -0.5151
vn 0.0339 0.5849 -0.8104
vn 0.1236 0.1797 -0.9759
vn -0.3934 0.6150 -0.6834
vn 0.7855 -0.4275 -0.4474
vn 0.6480 -0.7439 -0.1635
vn 0.4951 -0.3765 -0.7831
vn 0.5416 -0.6256 0.5614
vn 0.1480 -0.6172 0.7727
vn 0.5097 -0.8429 0.1723
vn 0.5416 -0.6256 0.5615
vn -0.1497 0.6597 -0.7364
vn -0.0917 0.2755 -0.9569
vn -0.5401 0.6623 -0.5192
vn -0.1497 0.6597 -0.7365
s 0
usemtl Material.001
f 7//1 8//1 9//1
f 9//2 3//2 5//2
f 1//3 9//3 5//3
f 6//4 7//4 9//4
f 16//5 17//5 18//5
f 18//6 12//6 14//6
f 10//7 18//7 14//7
f 15//8 16//8 18//8
f 25//9 26//9 27//9
f 27//10 21//10 23//10
f 19//11 27//11 23//11
f 24//12 25//12 27//12
f 34//13 35//13 36//13
f 36//14 30//14 32//14
f 28//15 36//15 32//15
f 33//16 34//16 36//16
f 43//17 44//17 45//17
f 45//18 39//18 41//18
f 37//19 45//19 41//19
f 42//20 43//20 45//20
f 52//21 53//21 54//21
f 54//22 48//22 50//22
f 46//23 54//23 50//23
f 51//24 52//24 54//24
f 61//25 62//25 63//25
f 63//26 57//26 59//26
f 55//27 63//27 59//27
f 60//28 61//28 63//28
f 7//29 4//29 8//29
f 9//30 8//30 3//30
f 1//31 6//31 9//31
f 6//29 2//29 7//29
f 16//32 13//32 17//32
f 18//33 17//33 12//33
f 10//34 15//34 18//34
f 15//35 11//35 16//35
f 25//36 22//36 26//36
f 27//37 26//37 21//37
f 19//38 24//38 27//38
f 24//39 20//39 25//39
f 34//40 31//40 35//40
f 36//41 35//41 30//41
f 28//42 33//42 36//42
f 33//40 29//40 34//40
f 43//43 40//43 44//43
f 45//44 44//44 39//44
f 37//45 42//45 45//45
f 42//43 38//43 43//43
f 52//46 49//46 53//46
f 54//47 53//47 48//47
f 46//48 51//48 54//48
f 51//49 47//49 52//49
f 61//50 58//50 62//50
f 63//51 62//51 57//51
f 55//52 60//52 63//52
f 60//53 56//53 61//53
