# Blender 4.1.1
# www.blender.org
mtllib Plane.041.mtl
o Plane.041
v -5.109471 -8.460632 -2.157237
v -5.254652 -8.522133 -2.036813
v -5.090198 -8.508811 -2.158607
v -5.235380 -8.570312 -2.038183
v -5.079880 -8.476269 -2.174474
v -5.196572 -8.497079 -2.100819
v -5.245016 -8.546222 -2.037498
v -5.177300 -8.545259 -2.102189
v -5.173586 -8.515240 -2.122198
v -5.061857 -8.584823 -2.083877
v -5.193239 -8.640742 -1.946132
v -5.031220 -8.565373 -2.046760
v -5.162602 -8.621294 -1.909016
v -5.028481 -8.567411 -2.084251
v -5.128462 -8.626648 -2.006985
v -5.177920 -8.631019 -1.927574
v -5.097825 -8.607200 -1.969868
v -5.093638 -8.616812 -2.004586
v -4.979544 -8.425657 -1.993058
v -5.105518 -8.460416 -1.843779
v -5.006374 -8.383082 -2.005786
v -5.132349 -8.417841 -1.856507
v -4.975644 -8.399592 -2.019940
v -5.041766 -8.438005 -1.903202
v -5.118934 -8.439129 -1.850143
v -5.068596 -8.395431 -1.915931
v -5.035481 -8.408354 -1.923114
v -5.221904 -8.304361 -2.244682
v -5.362600 -8.366684 -2.119454
v -5.258346 -8.283741 -2.275363
v -5.399042 -8.346064 -2.150135
v -5.220786 -8.285484 -2.277235
v -5.298589 -8.327928 -2.169436
v -5.380821 -8.356374 -2.134794
v -5.335032 -8.307307 -2.200117
v -5.299178 -8.303485 -2.196221
v -5.008266 -8.421096 -2.026695
v -5.144418 -8.468349 -1.890343
v -5.019047 -8.464770 -2.052596
v -5.155199 -8.512023 -1.916244
v -4.994943 -8.436439 -2.058387
v -5.091961 -8.441068 -1.958180
v -5.149808 -8.490186 -1.903293
v -5.102742 -8.484743 -1.984080
v -5.086053 -8.453469 -1.991744
v -5.139727 -8.266088 -2.130297
v -5.288662 -8.309309 -2.006555
v -5.114228 -8.308412 -2.114389
v -5.263163 -8.351632 -1.990647
v -5.106507 -8.281309 -2.139352
v -5.227276 -8.296590 -2.071113
v -5.275912 -8.330470 -1.998601
v -5.201777 -8.338913 -2.055205
v -5.199735 -8.316555 -2.083687
v -5.111362 -8.612819 -2.229473
v -5.260296 -8.656039 -2.105730
v -5.142971 -8.581965 -2.256741
v -5.291905 -8.625187 -2.132998
v -5.106695 -8.591452 -2.260115
v -5.190198 -8.626963 -2.154089
v -5.276101 -8.640614 -2.119364
v -5.221807 -8.596110 -2.181357
v -5.185917 -8.600400 -2.178406
vn 0.6388 0.3704 0.6743
vn 0.3594 0.3144 0.8786
vn 0.4943 -0.0227 0.8690
vn 0.7313 0.1395 0.6677
vn -0.4099 0.8652 -0.2890
vn -0.6685 0.7383 -0.0890
vn -0.4542 0.8744 0.1707
vn -0.2631 0.9584 -0.1111
vn -0.3868 -0.6038 -0.6970
vn -0.5717 -0.7064 -0.4172
vn -0.7595 -0.4085 -0.5063
vn -0.5154 -0.3998 -0.7580
vn 0.1465 -0.8375 -0.5264
vn -0.0581 -0.9612 -0.2697
vn -0.3130 -0.8169 -0.4845
vn -0.0282 -0.7387 -0.6735
vn 0.8257 -0.3281 0.4589
vn 0.5939 -0.3580 0.7205
vn 0.5185 -0.6636 0.5392
vn 0.7740 -0.5374 0.3348
vn 0.5004 0.6632 0.5565
vn 0.2087 0.6297 0.7483
vn 0.3871 0.3336 0.8596
vn 0.6226 0.4604 0.6327
vn -0.0447 -0.7926 -0.6081
vn -0.2673 -0.8950 -0.3571
vn -0.4884 -0.6791 -0.5479
vn -0.1962 -0.6447 -0.7388
vn 0.6675 0.2470 0.7024
vn 0.3140 0.4994 0.8075
vn 0.5875 -0.1841 0.7880
vn -0.3654 0.9138 -0.1773
vn -0.7136 0.6482 -0.2656
vn -0.2790 0.9241 0.2610
vn -0.3654 0.9138 -0.1772
vn -0.4806 -0.5150 -0.7098
vn -0.4071 -0.8235 -0.3951
vn -0.7877 -0.2196 -0.5756
vn 0.0339 -0.8104 -0.5849
vn 0.1236 -0.9759 -0.1797
vn -0.3935 -0.6834 -0.6150
vn 0.7855 -0.4475 0.4275
vn 0.6480 -0.1635 0.7439
vn 0.4951 -0.7831 0.3765
vn 0.7855 -0.4474 0.4275
vn 0.5416 0.5615 0.6256
vn 0.1480 0.7728 0.6172
vn 0.5097 0.1723 0.8429
vn -0.1497 -0.7364 -0.6598
vn -0.0917 -0.9569 -0.2755
vn -0.5401 -0.5193 -0.6623
vn -0.1496 -0.7364 -0.6597
s 0
usemtl Material.001
f 7//1 8//1 9//1
f 9//2 3//2 5//2
f 1//3 9//3 5//3
f 6//4 7//4 9//4
f 16//5 17//5 18//5
f 18//6 12//6 14//6
f 10//7 18//7 14//7
f 15//8 16//8 18//8
f 25//9 26//9 27//9
f 27//10 21//10 23//10
f 19//11 27//11 23//11
f 24//12 25//12 27//12
f 34//13 35//13 36//13
f 36//14 30//14 32//14
f 28//15 36//15 32//15
f 33//16 34//16 36//16
f 43//17 44//17 45//17
f 45//18 39//18 41//18
f 37//19 45//19 41//19
f 42//20 43//20 45//20
f 52//21 53//21 54//21
f 54//22 48//22 50//22
f 46//23 54//23 50//23
f 51//24 52//24 54//24
f 61//25 62//25 63//25
f 63//26 57//26 59//26
f 55//27 63//27 59//27
f 60//28 61//28 63//28
f 7//29 4//29 8//29
f 9//30 8//30 3//30
f 1//31 6//31 9//31
f 6//29 2//29 7//29
f 16//32 13//32 17//32
f 18//33 17//33 12//33
f 10//34 15//34 18//34
f 15//35 11//35 16//35
f 25//36 22//36 26//36
f 27//37 26//37 21//37
f 19//38 24//38 27//38
f 24//36 20//36 25//36
f 34//39 31//39 35//39
f 36//40 35//40 30//40
f 28//41 33//41 36//41
f 33//39 29//39 34//39
f 43//42 40//42 44//42
f 45//43 44//43 39//43
f 37//44 42//44 45//44
f 42//45 38//45 43//45
f 52//46 49//46 53//46
f 54//47 53//47 48//47
f 46//48 51//48 54//48
f 51//46 47//46 52//46
f 61//49 58//49 62//49
f 63//50 62//50 57//50
f 55//51 60//51 63//51
f 60//52 56//52 61//52
